<svg width="688" height="410" xmlns="http://www.w3.org/2000/svg" xmlns:xlink="http://www.w3.org/1999/xlink" overflow="hidden"><defs><clipPath id="clip0"><rect x="295" y="155" width="688" height="410"/></clipPath></defs><g clip-path="url(#clip0)" transform="translate(-295 -155)"><path d="M777.856 158C889.497 158 980 248.438 980 360 980 471.562 889.497 562 777.856 562 729.013 562 684.216 544.689 649.274 515.873L639 506.542 643.081 502.836C679.662 466.281 702.288 415.781 702.288 360 702.288 304.219 679.662 253.719 643.081 217.164L639 213.458 649.274 204.127C684.216 175.311 729.013 158 777.856 158ZM500.144 158C548.987 158 593.784 175.311 628.726 204.127L639 213.458 634.919 217.164C598.338 253.719 575.712 304.219 575.712 360 575.712 415.781 598.338 466.281 634.919 502.836L639 506.542 628.726 515.873C593.784 544.689 548.987 562 500.144 562 388.503 562 298 471.562 298 360 298 248.438 388.503 158 500.144 158Z" stroke="#000000" stroke-width="4" stroke-miterlimit="8" fill="#0D6EFD" fill-rule="evenodd"/><text fill="#FFFFFF" font-family="DengXian,DengXian_MSFontService,sans-serif" font-weight="400" font-size="48" transform="translate(584.555 347)">Right<tspan x="-2" y="57">Table</tspan></text><path d="M639 213 643.063 216.718C679.477 253.387 702 304.045 702 360 702 415.955 679.477 466.613 643.063 503.282L639 507 634.937 503.282C598.523 466.613 576 415.955 576 360 576 304.045 598.523 253.387 634.937 216.718Z" stroke="#000000" stroke-width="4" stroke-miterlimit="8" fill="#0D6EFD" fill-rule="evenodd"/></g></svg>