<svg xmlns="http://www.w3.org/2000/svg" xmlns:xlink="http://www.w3.org/1999/xlink" width="1919" zoomAndPan="magnify" viewBox="0 0 1439.25 371.999986" height="496" preserveAspectRatio="xMidYMid meet" version="1.0"><defs><filter x="0%" y="0%" width="100%" height="100%" id="040e84d954"><feColorMatrix values="0 0 0 0 1 0 0 0 0 1 0 0 0 0 1 0 0 0 1 0" color-interpolation-filters="sRGB"/></filter><g/><clipPath id="c8ca8e9f92"><path d="M 75.332031 153.953125 L 262 153.953125 L 262 221.25 L 75.332031 221.25 Z M 75.332031 153.953125 " clip-rule="nonzero"/></clipPath><clipPath id="6a677662b1"><path d="M 271.160156 78.589844 L 458 78.589844 L 458 145.890625 L 271.160156 145.890625 Z M 271.160156 78.589844 " clip-rule="nonzero"/></clipPath><clipPath id="c3c676ef1e"><path d="M 75.332031 229.3125 L 262 229.3125 L 262 296.613281 L 75.332031 296.613281 Z M 75.332031 229.3125 " clip-rule="nonzero"/></clipPath><clipPath id="8e24d7c54b"><path d="M 271.160156 229.3125 L 458 229.3125 L 458 296.613281 L 271.160156 296.613281 Z M 271.160156 229.3125 " clip-rule="nonzero"/></clipPath><clipPath id="912ded6725"><path d="M 466.984375 78.589844 L 653.929688 78.589844 L 653.929688 145.890625 L 466.984375 145.890625 Z M 466.984375 78.589844 " clip-rule="nonzero"/></clipPath><clipPath id="b11bf694e0"><path d="M 466.984375 153.953125 L 653.929688 153.953125 L 653.929688 221.25 L 466.984375 221.25 Z M 466.984375 153.953125 " clip-rule="nonzero"/></clipPath><mask id="68b93bc2b5"><g filter="url(#040e84d954)"><rect x="-143.925" width="1727.1" fill="#000000" y="-37.199999" height="446.399983" fill-opacity="0.498"/></g></mask><clipPath id="c4f78c39d7"><path d="M 0.984375 0.953125 L 187.929688 0.953125 L 187.929688 68.25 L 0.984375 68.25 Z M 0.984375 0.953125 " clip-rule="nonzero"/></clipPath><clipPath id="059756676e"><rect x="0" width="188" y="0" height="69"/></clipPath><clipPath id="5a763793a8"><path d="M 466.984375 229.3125 L 653.929688 229.3125 L 653.929688 296.613281 L 466.984375 296.613281 Z M 466.984375 229.3125 " clip-rule="nonzero"/></clipPath><clipPath id="3d6395f7e7"><path d="M 670.679688 153.953125 L 768.878906 153.953125 L 768.878906 216 L 670.679688 216 Z M 670.679688 153.953125 " clip-rule="nonzero"/></clipPath><clipPath id="a0aee5d938"><path d="M 670.679688 169.394531 L 737.554688 169.394531 L 737.554688 153.953125 L 768.4375 184.835938 L 737.554688 215.71875 L 737.554688 200.277344 L 670.679688 200.277344 L 670.679688 169.394531 " clip-rule="nonzero"/></clipPath><mask id="4d33898c85"><g filter="url(#040e84d954)"><rect x="-143.925" width="1727.1" fill="#000000" y="-37.199999" height="446.399983" fill-opacity="0.4"/></g></mask><clipPath id="0c6717822e"><path d="M 0.679688 0.953125 L 98.558594 0.953125 L 98.558594 62.746094 L 0.679688 62.746094 Z M 0.679688 0.953125 " clip-rule="nonzero"/></clipPath><clipPath id="e8144bdaa1"><path d="M 0.679688 16.394531 L 67.554688 16.394531 L 67.554688 0.953125 L 98.4375 31.835938 L 67.554688 62.71875 L 67.554688 47.277344 L 0.679688 47.277344 L 0.679688 16.394531 " clip-rule="nonzero"/></clipPath><clipPath id="8fe2b8c345"><rect x="0" width="99" y="0" height="63"/></clipPath><clipPath id="11bef3ac72"><path d="M 784.703125 150.617188 L 971.648438 150.617188 L 971.648438 217.917969 L 784.703125 217.917969 Z M 784.703125 150.617188 " clip-rule="nonzero"/></clipPath><clipPath id="6dd4765c5d"><path d="M 980.527344 75.257812 L 1167.472656 75.257812 L 1167.472656 142.558594 L 980.527344 142.558594 Z M 980.527344 75.257812 " clip-rule="nonzero"/></clipPath><clipPath id="0e86ba09f1"><path d="M 980.527344 150.617188 L 1167.472656 150.617188 L 1167.472656 217.917969 L 980.527344 217.917969 Z M 980.527344 150.617188 " clip-rule="nonzero"/></clipPath><mask id="f3b979d529"><g filter="url(#040e84d954)"><rect x="-143.925" width="1727.1" fill="#000000" y="-37.199999" height="446.399983" fill-opacity="0.498"/></g></mask><clipPath id="8a2766e4cc"><path d="M 0.527344 0.617188 L 187.472656 0.617188 L 187.472656 67.917969 L 0.527344 67.917969 Z M 0.527344 0.617188 " clip-rule="nonzero"/></clipPath><clipPath id="482126178f"><rect x="0" width="188" y="0" height="68"/></clipPath><clipPath id="d40391d9fd"><path d="M 784.703125 225.980469 L 971.648438 225.980469 L 971.648438 293.277344 L 784.703125 293.277344 Z M 784.703125 225.980469 " clip-rule="nonzero"/></clipPath><clipPath id="8b3c25e853"><path d="M 980.527344 225.980469 L 1167.472656 225.980469 L 1167.472656 293.277344 L 980.527344 293.277344 Z M 980.527344 225.980469 " clip-rule="nonzero"/></clipPath><clipPath id="b0cdc0db1b"><path d="M 1176.355469 75.257812 L 1363.300781 75.257812 L 1363.300781 142.558594 L 1176.355469 142.558594 Z M 1176.355469 75.257812 " clip-rule="nonzero"/></clipPath><clipPath id="b72b7e66d4"><path d="M 1176.355469 150.617188 L 1363.300781 150.617188 L 1363.300781 217.917969 L 1176.355469 217.917969 Z M 1176.355469 150.617188 " clip-rule="nonzero"/></clipPath><mask id="6e1d7e3866"><g filter="url(#040e84d954)"><rect x="-143.925" width="1727.1" fill="#000000" y="-37.199999" height="446.399983" fill-opacity="0.498"/></g></mask><clipPath id="ca6f27bb33"><path d="M 0.355469 0.617188 L 187.300781 0.617188 L 187.300781 67.917969 L 0.355469 67.917969 Z M 0.355469 0.617188 " clip-rule="nonzero"/></clipPath><clipPath id="31a3feec3b"><rect x="0" width="188" y="0" height="68"/></clipPath><clipPath id="272fd3ea6c"><path d="M 1176.355469 225.980469 L 1363.300781 225.980469 L 1363.300781 293.277344 L 1176.355469 293.277344 Z M 1176.355469 225.980469 " clip-rule="nonzero"/></clipPath><clipPath id="88fe8a9aaf"><path d="M 271.160156 153.953125 L 458.105469 153.953125 L 458.105469 221.25 L 271.160156 221.25 Z M 271.160156 153.953125 " clip-rule="nonzero"/></clipPath><mask id="42920d5d37"><g filter="url(#040e84d954)"><rect x="-143.925" width="1727.1" fill="#000000" y="-37.199999" height="446.399983" fill-opacity="0.498"/></g></mask><clipPath id="c41e3123be"><path d="M 0.160156 0.953125 L 187 0.953125 L 187 68.25 L 0.160156 68.25 Z M 0.160156 0.953125 " clip-rule="nonzero"/></clipPath><clipPath id="2cbb6a5cf0"><rect x="0" width="188" y="0" height="69"/></clipPath></defs><g clip-path="url(#c8ca8e9f92)"><path fill="#d9d9d9" d="M 75.332031 153.953125 L 261.988281 153.953125 L 261.988281 221.417969 L 75.332031 221.417969 Z M 75.332031 153.953125 " fill-opacity="1" fill-rule="nonzero"/></g><g clip-path="url(#6a677662b1)"><path fill="#d9d9d9" d="M 271.160156 78.589844 L 457.8125 78.589844 L 457.8125 146.054688 L 271.160156 146.054688 Z M 271.160156 78.589844 " fill-opacity="1" fill-rule="nonzero"/></g><g clip-path="url(#c3c676ef1e)"><path fill="#d9d9d9" d="M 75.332031 229.3125 L 261.988281 229.3125 L 261.988281 296.777344 L 75.332031 296.777344 Z M 75.332031 229.3125 " fill-opacity="1" fill-rule="nonzero"/></g><g clip-path="url(#8e24d7c54b)"><path fill="#f2f2f2" d="M 271.160156 229.3125 L 457.8125 229.3125 L 457.8125 296.777344 L 271.160156 296.777344 Z M 271.160156 229.3125 " fill-opacity="1" fill-rule="nonzero"/></g><g clip-path="url(#912ded6725)"><path fill="#d9d9d9" d="M 466.984375 78.589844 L 653.636719 78.589844 L 653.636719 146.054688 L 466.984375 146.054688 Z M 466.984375 78.589844 " fill-opacity="1" fill-rule="nonzero"/></g><g clip-path="url(#b11bf694e0)"><g mask="url(#68b93bc2b5)"><g transform="matrix(1, 0, 0, 1, 466, 153)"><g clip-path="url(#059756676e)"><g clip-path="url(#c4f78c39d7)"><path fill="#ffc000" d="M 0.984375 0.953125 L 187.636719 0.953125 L 187.636719 68.417969 L 0.984375 68.417969 Z M 0.984375 0.953125 " fill-opacity="1" fill-rule="nonzero"/></g></g></g></g></g><g fill="#808080" fill-opacity="1"><g transform="translate(543.784948, 197.42923)"><g><path d="M 1.046875 0 L 1.046875 -2.859375 C 1.578125 -4.035156 2.335938 -5.1875 3.328125 -6.3125 C 4.316406 -7.4375 5.566406 -8.609375 7.078125 -9.828125 C 8.515625 -10.992188 9.523438 -11.957031 10.109375 -12.71875 C 10.691406 -13.476562 10.984375 -14.226562 10.984375 -14.96875 C 10.984375 -16.757812 10.078125 -17.65625 8.265625 -17.65625 C 7.390625 -17.65625 6.71875 -17.414062 6.25 -16.9375 C 5.789062 -16.46875 5.492188 -15.757812 5.359375 -14.8125 L 1.21875 -15.046875 C 1.445312 -16.960938 2.160156 -18.421875 3.359375 -19.421875 C 4.554688 -20.429688 6.1875 -20.9375 8.25 -20.9375 C 10.46875 -20.9375 12.171875 -20.425781 13.359375 -19.40625 C 14.554688 -18.394531 15.15625 -16.972656 15.15625 -15.140625 C 15.15625 -14.171875 14.960938 -13.296875 14.578125 -12.515625 C 14.203125 -11.734375 13.710938 -11.015625 13.109375 -10.359375 C 12.515625 -9.703125 11.851562 -9.082031 11.125 -8.5 C 10.40625 -7.925781 9.703125 -7.363281 9.015625 -6.8125 C 8.335938 -6.269531 7.71875 -5.71875 7.15625 -5.15625 C 6.59375 -4.601562 6.175781 -4.007812 5.90625 -3.375 L 15.46875 -3.375 L 15.46875 0 Z M 1.046875 0 "/></g></g><g transform="translate(560.460828, 197.42923)"><g><path d="M 15.59375 -5.71875 C 15.59375 -3.789062 14.957031 -2.296875 13.6875 -1.234375 C 12.414062 -0.179688 10.609375 0.34375 8.265625 0.34375 C 6.054688 0.34375 4.296875 -0.164062 2.984375 -1.1875 C 1.679688 -2.207031 0.914062 -3.679688 0.6875 -5.609375 L 4.875 -5.96875 C 5.132812 -3.988281 6.257812 -3 8.25 -3 C 9.238281 -3 10.003906 -3.242188 10.546875 -3.734375 C 11.097656 -4.222656 11.375 -4.96875 11.375 -5.96875 C 11.375 -6.882812 11.039062 -7.585938 10.375 -8.078125 C 9.71875 -8.566406 8.734375 -8.8125 7.421875 -8.8125 L 5.984375 -8.8125 L 5.984375 -12.140625 L 7.328125 -12.140625 C 8.515625 -12.140625 9.40625 -12.378906 10 -12.859375 C 10.59375 -13.347656 10.890625 -14.039062 10.890625 -14.9375 C 10.890625 -15.78125 10.648438 -16.441406 10.171875 -16.921875 C 9.703125 -17.410156 9.015625 -17.65625 8.109375 -17.65625 C 7.265625 -17.65625 6.578125 -17.421875 6.046875 -16.953125 C 5.523438 -16.484375 5.226562 -15.820312 5.15625 -14.96875 L 1.046875 -15.25 C 1.253906 -17.03125 1.988281 -18.421875 3.25 -19.421875 C 4.507812 -20.429688 6.15625 -20.9375 8.1875 -20.9375 C 10.34375 -20.9375 12.023438 -20.445312 13.234375 -19.46875 C 14.453125 -18.5 15.0625 -17.160156 15.0625 -15.453125 C 15.0625 -14.160156 14.679688 -13.097656 13.921875 -12.265625 C 13.171875 -11.441406 12.082031 -10.890625 10.65625 -10.609375 L 10.65625 -10.5625 C 12.238281 -10.375 13.457031 -9.851562 14.3125 -9 C 15.164062 -8.144531 15.59375 -7.050781 15.59375 -5.71875 Z M 15.59375 -5.71875 "/></g></g></g><g clip-path="url(#5a763793a8)"><path fill="#f2f2f2" d="M 466.984375 229.3125 L 653.636719 229.3125 L 653.636719 296.777344 L 466.984375 296.777344 Z M 466.984375 229.3125 " fill-opacity="1" fill-rule="nonzero"/></g><g clip-path="url(#3d6395f7e7)"><g clip-path="url(#a0aee5d938)"><g mask="url(#4d33898c85)"><g transform="matrix(1, 0, 0, 1, 670, 153)"><g clip-path="url(#8fe2b8c345)"><g clip-path="url(#0c6717822e)"><g clip-path="url(#e8144bdaa1)"><path fill="#03e313" d="M 0.679688 0.953125 L 98.128906 0.953125 L 98.128906 62.417969 L 0.679688 62.417969 Z M 0.679688 0.953125 " fill-opacity="1" fill-rule="nonzero"/></g></g></g></g></g></g></g><g clip-path="url(#11bef3ac72)"><path fill="#d9d9d9" d="M 784.703125 150.617188 L 971.355469 150.617188 L 971.355469 218.082031 L 784.703125 218.082031 Z M 784.703125 150.617188 " fill-opacity="1" fill-rule="nonzero"/></g><g clip-path="url(#6dd4765c5d)"><path fill="#d9d9d9" d="M 980.527344 75.257812 L 1167.179688 75.257812 L 1167.179688 142.722656 L 980.527344 142.722656 Z M 980.527344 75.257812 " fill-opacity="1" fill-rule="nonzero"/></g><g clip-path="url(#0e86ba09f1)"><g mask="url(#f3b979d529)"><g transform="matrix(1, 0, 0, 1, 980, 150)"><g clip-path="url(#482126178f)"><g clip-path="url(#8a2766e4cc)"><path fill="#03e313" d="M 0.527344 0.617188 L 187.179688 0.617188 L 187.179688 68.082031 L 0.527344 68.082031 Z M 0.527344 0.617188 " fill-opacity="1" fill-rule="nonzero"/></g></g></g></g></g><g fill="#808080" fill-opacity="1"><g transform="translate(1057.328661, 194.095766)"><g><path d="M 1.890625 0 L 1.890625 -3.0625 L 7 -3.0625 L 7 -17.125 L 2.046875 -14.046875 L 2.046875 -17.28125 L 7.21875 -20.625 L 11.109375 -20.625 L 11.109375 -3.0625 L 15.84375 -3.0625 L 15.84375 0 Z M 1.890625 0 "/></g></g><g transform="translate(1074.00454, 194.095766)"><g><path d="M 1.890625 0 L 1.890625 -3.0625 L 7 -3.0625 L 7 -17.125 L 2.046875 -14.046875 L 2.046875 -17.28125 L 7.21875 -20.625 L 11.109375 -20.625 L 11.109375 -3.0625 L 15.84375 -3.0625 L 15.84375 0 Z M 1.890625 0 "/></g></g></g><g clip-path="url(#d40391d9fd)"><path fill="#d9d9d9" d="M 784.703125 225.980469 L 971.355469 225.980469 L 971.355469 293.445312 L 784.703125 293.445312 Z M 784.703125 225.980469 " fill-opacity="1" fill-rule="nonzero"/></g><g clip-path="url(#8b3c25e853)"><path fill="#f2f2f2" d="M 980.527344 225.980469 L 1167.179688 225.980469 L 1167.179688 293.445312 L 980.527344 293.445312 Z M 980.527344 225.980469 " fill-opacity="1" fill-rule="nonzero"/></g><g clip-path="url(#b0cdc0db1b)"><path fill="#d9d9d9" d="M 1176.355469 75.257812 L 1363.007812 75.257812 L 1363.007812 142.722656 L 1176.355469 142.722656 Z M 1176.355469 75.257812 " fill-opacity="1" fill-rule="nonzero"/></g><g clip-path="url(#b72b7e66d4)"><g mask="url(#6e1d7e3866)"><g transform="matrix(1, 0, 0, 1, 1176, 150)"><g clip-path="url(#31a3feec3b)"><g clip-path="url(#ca6f27bb33)"><path fill="#03e313" d="M 0.355469 0.617188 L 187.007812 0.617188 L 187.007812 68.082031 L 0.355469 68.082031 Z M 0.355469 0.617188 " fill-opacity="1" fill-rule="nonzero"/></g></g></g></g></g><g fill="#808080" fill-opacity="1"><g transform="translate(1253.154159, 194.095766)"><g><path d="M 1.046875 0 L 1.046875 -2.859375 C 1.578125 -4.035156 2.335938 -5.1875 3.328125 -6.3125 C 4.316406 -7.4375 5.566406 -8.609375 7.078125 -9.828125 C 8.515625 -10.992188 9.523438 -11.957031 10.109375 -12.71875 C 10.691406 -13.476562 10.984375 -14.226562 10.984375 -14.96875 C 10.984375 -16.757812 10.078125 -17.65625 8.265625 -17.65625 C 7.390625 -17.65625 6.71875 -17.414062 6.25 -16.9375 C 5.789062 -16.46875 5.492188 -15.757812 5.359375 -14.8125 L 1.21875 -15.046875 C 1.445312 -16.960938 2.160156 -18.421875 3.359375 -19.421875 C 4.554688 -20.429688 6.1875 -20.9375 8.25 -20.9375 C 10.46875 -20.9375 12.171875 -20.425781 13.359375 -19.40625 C 14.554688 -18.394531 15.15625 -16.972656 15.15625 -15.140625 C 15.15625 -14.171875 14.960938 -13.296875 14.578125 -12.515625 C 14.203125 -11.734375 13.710938 -11.015625 13.109375 -10.359375 C 12.515625 -9.703125 11.851562 -9.082031 11.125 -8.5 C 10.40625 -7.925781 9.703125 -7.363281 9.015625 -6.8125 C 8.335938 -6.269531 7.71875 -5.71875 7.15625 -5.15625 C 6.59375 -4.601562 6.175781 -4.007812 5.90625 -3.375 L 15.46875 -3.375 L 15.46875 0 Z M 1.046875 0 "/></g></g><g transform="translate(1269.830039, 194.095766)"><g><path d="M 15.59375 -5.71875 C 15.59375 -3.789062 14.957031 -2.296875 13.6875 -1.234375 C 12.414062 -0.179688 10.609375 0.34375 8.265625 0.34375 C 6.054688 0.34375 4.296875 -0.164062 2.984375 -1.1875 C 1.679688 -2.207031 0.914062 -3.679688 0.6875 -5.609375 L 4.875 -5.96875 C 5.132812 -3.988281 6.257812 -3 8.25 -3 C 9.238281 -3 10.003906 -3.242188 10.546875 -3.734375 C 11.097656 -4.222656 11.375 -4.96875 11.375 -5.96875 C 11.375 -6.882812 11.039062 -7.585938 10.375 -8.078125 C 9.71875 -8.566406 8.734375 -8.8125 7.421875 -8.8125 L 5.984375 -8.8125 L 5.984375 -12.140625 L 7.328125 -12.140625 C 8.515625 -12.140625 9.40625 -12.378906 10 -12.859375 C 10.59375 -13.347656 10.890625 -14.039062 10.890625 -14.9375 C 10.890625 -15.78125 10.648438 -16.441406 10.171875 -16.921875 C 9.703125 -17.410156 9.015625 -17.65625 8.109375 -17.65625 C 7.265625 -17.65625 6.578125 -17.421875 6.046875 -16.953125 C 5.523438 -16.484375 5.226562 -15.820312 5.15625 -14.96875 L 1.046875 -15.25 C 1.253906 -17.03125 1.988281 -18.421875 3.25 -19.421875 C 4.507812 -20.429688 6.15625 -20.9375 8.1875 -20.9375 C 10.34375 -20.9375 12.023438 -20.445312 13.234375 -19.46875 C 14.453125 -18.5 15.0625 -17.160156 15.0625 -15.453125 C 15.0625 -14.160156 14.679688 -13.097656 13.921875 -12.265625 C 13.171875 -11.441406 12.082031 -10.890625 10.65625 -10.609375 L 10.65625 -10.5625 C 12.238281 -10.375 13.457031 -9.851562 14.3125 -9 C 15.164062 -8.144531 15.59375 -7.050781 15.59375 -5.71875 Z M 15.59375 -5.71875 "/></g></g></g><g clip-path="url(#272fd3ea6c)"><path fill="#f2f2f2" d="M 1176.355469 225.980469 L 1363.007812 225.980469 L 1363.007812 293.445312 L 1176.355469 293.445312 Z M 1176.355469 225.980469 " fill-opacity="1" fill-rule="nonzero"/></g><g clip-path="url(#88fe8a9aaf)"><g mask="url(#42920d5d37)"><g transform="matrix(1, 0, 0, 1, 271, 153)"><g clip-path="url(#2cbb6a5cf0)"><g clip-path="url(#c41e3123be)"><path fill="#ffc000" d="M 0.160156 0.953125 L 186.8125 0.953125 L 186.8125 68.417969 L 0.160156 68.417969 Z M 0.160156 0.953125 " fill-opacity="1" fill-rule="nonzero"/></g></g></g></g></g><g fill="#808080" fill-opacity="1"><g transform="translate(342.957958, 197.42923)"><g><path d="M 1.171875 -5.984375 L 1.171875 -9.5625 L 8.78125 -9.5625 L 8.78125 -5.984375 Z M 1.171875 -5.984375 "/></g></g><g transform="translate(352.942989, 197.42923)"><g><path d="M 1.890625 0 L 1.890625 -3.0625 L 7 -3.0625 L 7 -17.125 L 2.046875 -14.046875 L 2.046875 -17.28125 L 7.21875 -20.625 L 11.109375 -20.625 L 11.109375 -3.0625 L 15.84375 -3.0625 L 15.84375 0 Z M 1.890625 0 "/></g></g><g transform="translate(369.618868, 197.42923)"><g><path d="M 1.890625 0 L 1.890625 -3.0625 L 7 -3.0625 L 7 -17.125 L 2.046875 -14.046875 L 2.046875 -17.28125 L 7.21875 -20.625 L 11.109375 -20.625 L 11.109375 -3.0625 L 15.84375 -3.0625 L 15.84375 0 Z M 1.890625 0 "/></g></g></g></svg>