<svg xmlns="http://www.w3.org/2000/svg" xmlns:xlink="http://www.w3.org/1999/xlink" width="970" zoomAndPan="magnify" viewBox="0 0 727.5 449.249995" height="599" preserveAspectRatio="xMidYMid meet" version="1.0"><defs><filter x="0%" y="0%" width="100%" height="100%" id="dfd6992b54"><feColorMatrix values="0 0 0 0 1 0 0 0 0 1 0 0 0 0 1 0 0 0 1 0" color-interpolation-filters="sRGB"/></filter><g/><clipPath id="ec512392c9"><path d="M 196.882812 75.136719 L 311.738281 75.136719 L 311.738281 116.484375 L 196.882812 116.484375 Z M 196.882812 75.136719 " clip-rule="nonzero"/></clipPath><clipPath id="255fa5ee29"><path d="M 315.984375 75.136719 L 422.195312 75.136719 L 422.195312 116.484375 L 315.984375 116.484375 Z M 315.984375 75.136719 " clip-rule="nonzero"/></clipPath><clipPath id="4feeb458e0"><path d="M 205.53125 121.066406 L 311.738281 121.066406 L 311.738281 159.300781 L 205.53125 159.300781 Z M 205.53125 121.066406 " clip-rule="nonzero"/></clipPath><mask id="a7baea9f1f"><g filter="url(#dfd6992b54)"><rect x="-72.75" width="873" fill="#000000" y="-44.924999" height="539.099994" fill-opacity="0.498"/></g></mask><clipPath id="5e48b81e2f"><path d="M 0.53125 0.0664062 L 106.738281 0.0664062 L 106.738281 38.300781 L 0.53125 38.300781 Z M 0.53125 0.0664062 " clip-rule="nonzero"/></clipPath><clipPath id="1323a138f7"><rect x="0" width="107" y="0" height="39"/></clipPath><clipPath id="cfd18a0f60"><path d="M 315.984375 121.066406 L 422.195312 121.066406 L 422.195312 159.300781 L 315.984375 159.300781 Z M 315.984375 121.066406 " clip-rule="nonzero"/></clipPath><mask id="aff4bfdb14"><g filter="url(#dfd6992b54)"><rect x="-72.75" width="873" fill="#000000" y="-44.924999" height="539.099994" fill-opacity="0.298"/></g></mask><clipPath id="665dc0efc1"><path d="M 0.984375 0.0664062 L 107.195312 0.0664062 L 107.195312 38.300781 L 0.984375 38.300781 Z M 0.984375 0.0664062 " clip-rule="nonzero"/></clipPath><clipPath id="e7582f6559"><rect x="0" width="108" y="0" height="39"/></clipPath><clipPath id="729c018735"><path d="M 426.441406 75.136719 L 532.648438 75.136719 L 532.648438 116.484375 L 426.441406 116.484375 Z M 426.441406 75.136719 " clip-rule="nonzero"/></clipPath><clipPath id="c235685897"><path d="M 536.894531 75.136719 L 651.75 75.136719 L 651.75 116.484375 L 536.894531 116.484375 Z M 536.894531 75.136719 " clip-rule="nonzero"/></clipPath><clipPath id="003398e60d"><path d="M 426.441406 121.066406 L 532.648438 121.066406 L 532.648438 159.300781 L 426.441406 159.300781 Z M 426.441406 121.066406 " clip-rule="nonzero"/></clipPath><mask id="c70b886a5b"><g filter="url(#dfd6992b54)"><rect x="-72.75" width="873" fill="#000000" y="-44.924999" height="539.099994" fill-opacity="0.298"/></g></mask><clipPath id="9eef79f49e"><path d="M 0.441406 0.0664062 L 106.648438 0.0664062 L 106.648438 38.300781 L 0.441406 38.300781 Z M 0.441406 0.0664062 " clip-rule="nonzero"/></clipPath><clipPath id="f3782fdbcf"><rect x="0" width="107" y="0" height="39"/></clipPath><clipPath id="b165fba178"><path d="M 536.894531 121.066406 L 643.105469 121.066406 L 643.105469 159.300781 L 536.894531 159.300781 Z M 536.894531 121.066406 " clip-rule="nonzero"/></clipPath><mask id="94019f83f9"><g filter="url(#dfd6992b54)"><rect x="-72.75" width="873" fill="#000000" y="-44.924999" height="539.099994" fill-opacity="0.298"/></g></mask><clipPath id="883da45b95"><path d="M 0.894531 0.0664062 L 107.105469 0.0664062 L 107.105469 38.300781 L 0.894531 38.300781 Z M 0.894531 0.0664062 " clip-rule="nonzero"/></clipPath><clipPath id="ff7bcb0d2d"><rect x="0" width="108" y="0" height="39"/></clipPath><clipPath id="6793617a0a"><path d="M 205.53125 163.878906 L 311.738281 163.878906 L 311.738281 202.113281 L 205.53125 202.113281 Z M 205.53125 163.878906 " clip-rule="nonzero"/></clipPath><mask id="a912c583fd"><g filter="url(#dfd6992b54)"><rect x="-72.75" width="873" fill="#000000" y="-44.924999" height="539.099994" fill-opacity="0.498"/></g></mask><clipPath id="94a68a4f22"><path d="M 0.53125 0.878906 L 106.738281 0.878906 L 106.738281 39.113281 L 0.53125 39.113281 Z M 0.53125 0.878906 " clip-rule="nonzero"/></clipPath><clipPath id="75440d472e"><rect x="0" width="107" y="0" height="40"/></clipPath><clipPath id="96683eeb8d"><path d="M 315.984375 163.878906 L 422.195312 163.878906 L 422.195312 202.113281 L 315.984375 202.113281 Z M 315.984375 163.878906 " clip-rule="nonzero"/></clipPath><mask id="b799b37d69"><g filter="url(#dfd6992b54)"><rect x="-72.75" width="873" fill="#000000" y="-44.924999" height="539.099994" fill-opacity="0.298"/></g></mask><clipPath id="cf887c0407"><path d="M 0.984375 0.878906 L 107.195312 0.878906 L 107.195312 39.113281 L 0.984375 39.113281 Z M 0.984375 0.878906 " clip-rule="nonzero"/></clipPath><clipPath id="f1cd7b136f"><rect x="0" width="108" y="0" height="40"/></clipPath><clipPath id="e1a06a7ca6"><path d="M 205.53125 206.691406 L 311.738281 206.691406 L 311.738281 244.925781 L 205.53125 244.925781 Z M 205.53125 206.691406 " clip-rule="nonzero"/></clipPath><mask id="62f0aed49a"><g filter="url(#dfd6992b54)"><rect x="-72.75" width="873" fill="#000000" y="-44.924999" height="539.099994" fill-opacity="0.498"/></g></mask><clipPath id="556c25dea7"><path d="M 0.53125 0.691406 L 106.738281 0.691406 L 106.738281 38.925781 L 0.53125 38.925781 Z M 0.53125 0.691406 " clip-rule="nonzero"/></clipPath><clipPath id="8a6726ad69"><rect x="0" width="107" y="0" height="39"/></clipPath><clipPath id="63a2b88480"><path d="M 315.984375 206.691406 L 422.195312 206.691406 L 422.195312 244.925781 L 315.984375 244.925781 Z M 315.984375 206.691406 " clip-rule="nonzero"/></clipPath><mask id="3cf6f11d3f"><g filter="url(#dfd6992b54)"><rect x="-72.75" width="873" fill="#000000" y="-44.924999" height="539.099994" fill-opacity="0.298"/></g></mask><clipPath id="7b95b12154"><path d="M 0.984375 0.691406 L 107.195312 0.691406 L 107.195312 38.925781 L 0.984375 38.925781 Z M 0.984375 0.691406 " clip-rule="nonzero"/></clipPath><clipPath id="463119f5ff"><rect x="0" width="108" y="0" height="39"/></clipPath><clipPath id="32483bc063"><path d="M 426.441406 163.878906 L 532.648438 163.878906 L 532.648438 202.113281 L 426.441406 202.113281 Z M 426.441406 163.878906 " clip-rule="nonzero"/></clipPath><mask id="90bd59b4f0"><g filter="url(#dfd6992b54)"><rect x="-72.75" width="873" fill="#000000" y="-44.924999" height="539.099994" fill-opacity="0.298"/></g></mask><clipPath id="bb63b847ac"><path d="M 0.441406 0.878906 L 106.648438 0.878906 L 106.648438 39.113281 L 0.441406 39.113281 Z M 0.441406 0.878906 " clip-rule="nonzero"/></clipPath><clipPath id="5659bab2e4"><rect x="0" width="107" y="0" height="40"/></clipPath><clipPath id="62dae56a55"><path d="M 536.894531 163.878906 L 643.105469 163.878906 L 643.105469 202.113281 L 536.894531 202.113281 Z M 536.894531 163.878906 " clip-rule="nonzero"/></clipPath><mask id="f30bb04b17"><g filter="url(#dfd6992b54)"><rect x="-72.75" width="873" fill="#000000" y="-44.924999" height="539.099994" fill-opacity="0.298"/></g></mask><clipPath id="79f95d68e5"><path d="M 0.894531 0.878906 L 107.105469 0.878906 L 107.105469 39.113281 L 0.894531 39.113281 Z M 0.894531 0.878906 " clip-rule="nonzero"/></clipPath><clipPath id="9a25965b6a"><rect x="0" width="108" y="0" height="40"/></clipPath><clipPath id="48a2abf465"><path d="M 426.441406 206.691406 L 532.648438 206.691406 L 532.648438 244.925781 L 426.441406 244.925781 Z M 426.441406 206.691406 " clip-rule="nonzero"/></clipPath><mask id="b27be22be9"><g filter="url(#dfd6992b54)"><rect x="-72.75" width="873" fill="#000000" y="-44.924999" height="539.099994" fill-opacity="0.298"/></g></mask><clipPath id="b1fd3d824c"><path d="M 0.441406 0.691406 L 106.648438 0.691406 L 106.648438 38.925781 L 0.441406 38.925781 Z M 0.441406 0.691406 " clip-rule="nonzero"/></clipPath><clipPath id="ab65c5156d"><rect x="0" width="107" y="0" height="39"/></clipPath><clipPath id="1009c48823"><path d="M 536.894531 206.691406 L 643.105469 206.691406 L 643.105469 244.925781 L 536.894531 244.925781 Z M 536.894531 206.691406 " clip-rule="nonzero"/></clipPath><mask id="f6232b4941"><g filter="url(#dfd6992b54)"><rect x="-72.75" width="873" fill="#000000" y="-44.924999" height="539.099994" fill-opacity="0.298"/></g></mask><clipPath id="37917b651b"><path d="M 0.894531 0.691406 L 107.105469 0.691406 L 107.105469 38.925781 L 0.894531 38.925781 Z M 0.894531 0.691406 " clip-rule="nonzero"/></clipPath><clipPath id="e5a01c812b"><rect x="0" width="108" y="0" height="39"/></clipPath><clipPath id="7b02160ed1"><path d="M 205.53125 249.503906 L 311.738281 249.503906 L 311.738281 287.738281 L 205.53125 287.738281 Z M 205.53125 249.503906 " clip-rule="nonzero"/></clipPath><clipPath id="92815d1178"><path d="M 315.984375 249.503906 L 422.195312 249.503906 L 422.195312 287.738281 L 315.984375 287.738281 Z M 315.984375 249.503906 " clip-rule="nonzero"/></clipPath><clipPath id="5c63f888f6"><path d="M 426.441406 249.503906 L 532.648438 249.503906 L 532.648438 287.738281 L 426.441406 287.738281 Z M 426.441406 249.503906 " clip-rule="nonzero"/></clipPath><clipPath id="7d981c6e9c"><path d="M 536.894531 249.503906 L 643.105469 249.503906 L 643.105469 287.738281 L 536.894531 287.738281 Z M 536.894531 249.503906 " clip-rule="nonzero"/></clipPath><clipPath id="70aa8e7bde"><path d="M 205.53125 292.316406 L 311.738281 292.316406 L 311.738281 330.550781 L 205.53125 330.550781 Z M 205.53125 292.316406 " clip-rule="nonzero"/></clipPath><clipPath id="5a51db6c92"><path d="M 315.984375 292.316406 L 422.195312 292.316406 L 422.195312 330.550781 L 315.984375 330.550781 Z M 315.984375 292.316406 " clip-rule="nonzero"/></clipPath><clipPath id="6b75c1a0a7"><path d="M 426.441406 292.316406 L 532.648438 292.316406 L 532.648438 330.550781 L 426.441406 330.550781 Z M 426.441406 292.316406 " clip-rule="nonzero"/></clipPath><clipPath id="21a2d0fb6a"><path d="M 536.894531 292.316406 L 643.105469 292.316406 L 643.105469 330.550781 L 536.894531 330.550781 Z M 536.894531 292.316406 " clip-rule="nonzero"/></clipPath><clipPath id="9fc41bf043"><path d="M 205.53125 335.128906 L 311.738281 335.128906 L 311.738281 373.363281 L 205.53125 373.363281 Z M 205.53125 335.128906 " clip-rule="nonzero"/></clipPath><clipPath id="46e2b0934f"><path d="M 315.984375 335.128906 L 422.195312 335.128906 L 422.195312 373.363281 L 315.984375 373.363281 Z M 315.984375 335.128906 " clip-rule="nonzero"/></clipPath><clipPath id="8ea091690f"><path d="M 426.441406 335.128906 L 532.648438 335.128906 L 532.648438 373.363281 L 426.441406 373.363281 Z M 426.441406 335.128906 " clip-rule="nonzero"/></clipPath><clipPath id="63fdd25cb9"><path d="M 536.894531 335.128906 L 643.105469 335.128906 L 643.105469 373.363281 L 536.894531 373.363281 Z M 536.894531 335.128906 " clip-rule="nonzero"/></clipPath></defs><g clip-path="url(#ec512392c9)"><path fill="#d9d9d9" d="M 196.882812 75.136719 L 311.519531 75.136719 L 311.519531 116.347656 L 196.882812 116.347656 Z M 196.882812 75.136719 " fill-opacity="1" fill-rule="nonzero"/></g><g clip-path="url(#255fa5ee29)"><path fill="#d9d9d9" d="M 315.984375 75.136719 L 422.382812 75.136719 L 422.382812 116.347656 L 315.984375 116.347656 Z M 315.984375 75.136719 " fill-opacity="1" fill-rule="nonzero"/></g><g clip-path="url(#4feeb458e0)"><g mask="url(#a7baea9f1f)"><g transform="matrix(1, 0, 0, 1, 205, 121)"><g clip-path="url(#1323a138f7)"><g clip-path="url(#5e48b81e2f)"><path fill="#e60000" d="M 0.53125 0.0664062 L 106.925781 0.0664062 L 106.925781 38.277344 L 0.53125 38.277344 Z M 0.53125 0.0664062 " fill-opacity="1" fill-rule="nonzero"/></g></g></g></g></g><g clip-path="url(#cfd18a0f60)"><g mask="url(#aff4bfdb14)"><g transform="matrix(1, 0, 0, 1, 315, 121)"><g clip-path="url(#e7582f6559)"><g clip-path="url(#665dc0efc1)"><path fill="#e60000" d="M 0.984375 0.0664062 L 107.382812 0.0664062 L 107.382812 38.277344 L 0.984375 38.277344 Z M 0.984375 0.0664062 " fill-opacity="1" fill-rule="nonzero"/></g></g></g></g></g><g clip-path="url(#729c018735)"><path fill="#d9d9d9" d="M 426.441406 75.136719 L 532.835938 75.136719 L 532.835938 116.347656 L 426.441406 116.347656 Z M 426.441406 75.136719 " fill-opacity="1" fill-rule="nonzero"/></g><g clip-path="url(#c235685897)"><path fill="#d9d9d9" d="M 536.894531 75.136719 L 651.535156 75.136719 L 651.535156 116.347656 L 536.894531 116.347656 Z M 536.894531 75.136719 " fill-opacity="1" fill-rule="nonzero"/></g><g clip-path="url(#003398e60d)"><g mask="url(#c70b886a5b)"><g transform="matrix(1, 0, 0, 1, 426, 121)"><g clip-path="url(#f3782fdbcf)"><g clip-path="url(#9eef79f49e)"><path fill="#e60000" d="M 0.441406 0.0664062 L 106.835938 0.0664062 L 106.835938 38.277344 L 0.441406 38.277344 Z M 0.441406 0.0664062 " fill-opacity="1" fill-rule="nonzero"/></g></g></g></g></g><g clip-path="url(#b165fba178)"><g mask="url(#94019f83f9)"><g transform="matrix(1, 0, 0, 1, 536, 121)"><g clip-path="url(#ff7bcb0d2d)"><g clip-path="url(#883da45b95)"><path fill="#e60000" d="M 0.894531 0.0664062 L 107.292969 0.0664062 L 107.292969 38.277344 L 0.894531 38.277344 Z M 0.894531 0.0664062 " fill-opacity="1" fill-rule="nonzero"/></g></g></g></g></g><g clip-path="url(#6793617a0a)"><g mask="url(#a912c583fd)"><g transform="matrix(1, 0, 0, 1, 205, 163)"><g clip-path="url(#75440d472e)"><g clip-path="url(#94a68a4f22)"><path fill="#e60000" d="M 0.53125 0.878906 L 106.925781 0.878906 L 106.925781 39.089844 L 0.53125 39.089844 Z M 0.53125 0.878906 " fill-opacity="1" fill-rule="nonzero"/></g></g></g></g></g><g clip-path="url(#96683eeb8d)"><g mask="url(#b799b37d69)"><g transform="matrix(1, 0, 0, 1, 315, 163)"><g clip-path="url(#f1cd7b136f)"><g clip-path="url(#cf887c0407)"><path fill="#e60000" d="M 0.984375 0.878906 L 107.382812 0.878906 L 107.382812 39.089844 L 0.984375 39.089844 Z M 0.984375 0.878906 " fill-opacity="1" fill-rule="nonzero"/></g></g></g></g></g><g clip-path="url(#e1a06a7ca6)"><g mask="url(#62f0aed49a)"><g transform="matrix(1, 0, 0, 1, 205, 206)"><g clip-path="url(#8a6726ad69)"><g clip-path="url(#556c25dea7)"><path fill="#e60000" d="M 0.53125 0.691406 L 106.925781 0.691406 L 106.925781 38.902344 L 0.53125 38.902344 Z M 0.53125 0.691406 " fill-opacity="1" fill-rule="nonzero"/></g></g></g></g></g><g clip-path="url(#63a2b88480)"><g mask="url(#3cf6f11d3f)"><g transform="matrix(1, 0, 0, 1, 315, 206)"><g clip-path="url(#463119f5ff)"><g clip-path="url(#7b95b12154)"><path fill="#e60000" d="M 0.984375 0.691406 L 107.382812 0.691406 L 107.382812 38.902344 L 0.984375 38.902344 Z M 0.984375 0.691406 " fill-opacity="1" fill-rule="nonzero"/></g></g></g></g></g><g clip-path="url(#32483bc063)"><g mask="url(#90bd59b4f0)"><g transform="matrix(1, 0, 0, 1, 426, 163)"><g clip-path="url(#5659bab2e4)"><g clip-path="url(#bb63b847ac)"><path fill="#e60000" d="M 0.441406 0.878906 L 106.835938 0.878906 L 106.835938 39.089844 L 0.441406 39.089844 Z M 0.441406 0.878906 " fill-opacity="1" fill-rule="nonzero"/></g></g></g></g></g><g clip-path="url(#62dae56a55)"><g mask="url(#f30bb04b17)"><g transform="matrix(1, 0, 0, 1, 536, 163)"><g clip-path="url(#9a25965b6a)"><g clip-path="url(#79f95d68e5)"><path fill="#e60000" d="M 0.894531 0.878906 L 107.292969 0.878906 L 107.292969 39.089844 L 0.894531 39.089844 Z M 0.894531 0.878906 " fill-opacity="1" fill-rule="nonzero"/></g></g></g></g></g><g clip-path="url(#48a2abf465)"><g mask="url(#b27be22be9)"><g transform="matrix(1, 0, 0, 1, 426, 206)"><g clip-path="url(#ab65c5156d)"><g clip-path="url(#b1fd3d824c)"><path fill="#e60000" d="M 0.441406 0.691406 L 106.835938 0.691406 L 106.835938 38.902344 L 0.441406 38.902344 Z M 0.441406 0.691406 " fill-opacity="1" fill-rule="nonzero"/></g></g></g></g></g><g clip-path="url(#1009c48823)"><g mask="url(#f6232b4941)"><g transform="matrix(1, 0, 0, 1, 536, 206)"><g clip-path="url(#e5a01c812b)"><g clip-path="url(#37917b651b)"><path fill="#e60000" d="M 0.894531 0.691406 L 107.292969 0.691406 L 107.292969 38.902344 L 0.894531 38.902344 Z M 0.894531 0.691406 " fill-opacity="1" fill-rule="nonzero"/></g></g></g></g></g><g clip-path="url(#7b02160ed1)"><path fill="#d9d9d9" d="M 205.53125 249.503906 L 311.925781 249.503906 L 311.925781 287.714844 L 205.53125 287.714844 Z M 205.53125 249.503906 " fill-opacity="1" fill-rule="nonzero"/></g><g clip-path="url(#92815d1178)"><path fill="#f2f2f2" d="M 315.984375 249.503906 L 422.382812 249.503906 L 422.382812 287.714844 L 315.984375 287.714844 Z M 315.984375 249.503906 " fill-opacity="1" fill-rule="nonzero"/></g><g clip-path="url(#5c63f888f6)"><path fill="#f2f2f2" d="M 426.441406 249.503906 L 532.835938 249.503906 L 532.835938 287.714844 L 426.441406 287.714844 Z M 426.441406 249.503906 " fill-opacity="1" fill-rule="nonzero"/></g><g clip-path="url(#7d981c6e9c)"><path fill="#f2f2f2" d="M 536.894531 249.503906 L 643.292969 249.503906 L 643.292969 287.714844 L 536.894531 287.714844 Z M 536.894531 249.503906 " fill-opacity="1" fill-rule="nonzero"/></g><g clip-path="url(#70aa8e7bde)"><path fill="#d9d9d9" d="M 205.53125 292.316406 L 311.925781 292.316406 L 311.925781 330.527344 L 205.53125 330.527344 Z M 205.53125 292.316406 " fill-opacity="1" fill-rule="nonzero"/></g><g clip-path="url(#5a51db6c92)"><path fill="#f2f2f2" d="M 315.984375 292.316406 L 422.382812 292.316406 L 422.382812 330.527344 L 315.984375 330.527344 Z M 315.984375 292.316406 " fill-opacity="1" fill-rule="nonzero"/></g><g clip-path="url(#6b75c1a0a7)"><path fill="#f2f2f2" d="M 426.441406 292.316406 L 532.835938 292.316406 L 532.835938 330.527344 L 426.441406 330.527344 Z M 426.441406 292.316406 " fill-opacity="1" fill-rule="nonzero"/></g><g clip-path="url(#21a2d0fb6a)"><path fill="#f2f2f2" d="M 536.894531 292.316406 L 643.292969 292.316406 L 643.292969 330.527344 L 536.894531 330.527344 Z M 536.894531 292.316406 " fill-opacity="1" fill-rule="nonzero"/></g><g clip-path="url(#9fc41bf043)"><path fill="#d9d9d9" d="M 205.53125 335.128906 L 311.925781 335.128906 L 311.925781 373.34375 L 205.53125 373.34375 Z M 205.53125 335.128906 " fill-opacity="1" fill-rule="nonzero"/></g><g clip-path="url(#46e2b0934f)"><path fill="#f2f2f2" d="M 315.984375 335.128906 L 422.382812 335.128906 L 422.382812 373.34375 L 315.984375 373.34375 Z M 315.984375 335.128906 " fill-opacity="1" fill-rule="nonzero"/></g><g clip-path="url(#8ea091690f)"><path fill="#f2f2f2" d="M 426.441406 335.128906 L 532.835938 335.128906 L 532.835938 373.34375 L 426.441406 373.34375 Z M 426.441406 335.128906 " fill-opacity="1" fill-rule="nonzero"/></g><g clip-path="url(#63fdd25cb9)"><path fill="#f2f2f2" d="M 536.894531 335.128906 L 643.292969 335.128906 L 643.292969 373.34375 L 536.894531 373.34375 Z M 536.894531 335.128906 " fill-opacity="1" fill-rule="nonzero"/></g><g fill="#808080" fill-opacity="1"><g transform="translate(80.256584, 197.605609)"><g><path d="M 26.0625 -7.96875 C 26.0625 -5.300781 25.019531 -3.238281 22.9375 -1.78125 C 20.851562 -0.320312 17.921875 0.40625 14.140625 0.40625 C 7.097656 0.40625 3.019531 -2.035156 1.90625 -6.921875 L 5.6875 -7.6875 C 6.125 -5.945312 7.050781 -4.671875 8.46875 -3.859375 C 9.894531 -3.046875 11.832031 -2.640625 14.28125 -2.640625 C 16.800781 -2.640625 18.75 -3.070312 20.125 -3.9375 C 21.5 -4.8125 22.1875 -6.085938 22.1875 -7.765625 C 22.1875 -8.703125 21.96875 -9.460938 21.53125 -10.046875 C 21.101562 -10.640625 20.5 -11.128906 19.71875 -11.515625 C 18.945312 -11.898438 18.019531 -12.21875 16.9375 -12.46875 C 15.863281 -12.726562 14.671875 -13.007812 13.359375 -13.3125 C 11.078125 -13.820312 9.34375 -14.328125 8.15625 -14.828125 C 6.976562 -15.335938 6.046875 -15.898438 5.359375 -16.515625 C 4.679688 -17.140625 4.160156 -17.867188 3.796875 -18.703125 C 3.429688 -19.535156 3.25 -20.492188 3.25 -21.578125 C 3.25 -24.046875 4.195312 -25.945312 6.09375 -27.28125 C 7.988281 -28.625 10.695312 -29.296875 14.21875 -29.296875 C 17.5 -29.296875 20.003906 -28.789062 21.734375 -27.78125 C 23.472656 -26.78125 24.6875 -25.070312 25.375 -22.65625 L 21.53125 -21.984375 C 21.101562 -23.515625 20.296875 -24.625 19.109375 -25.3125 C 17.921875 -26 16.273438 -26.34375 14.171875 -26.34375 C 11.867188 -26.34375 10.109375 -25.957031 8.890625 -25.1875 C 7.671875 -24.425781 7.0625 -23.289062 7.0625 -21.78125 C 7.0625 -20.882812 7.296875 -20.144531 7.765625 -19.5625 C 8.242188 -18.988281 8.925781 -18.5 9.8125 -18.09375 C 10.695312 -17.695312 12.46875 -17.203125 15.125 -16.609375 C 16.007812 -16.410156 16.890625 -16.203125 17.765625 -15.984375 C 18.648438 -15.773438 19.492188 -15.523438 20.296875 -15.234375 C 21.109375 -14.941406 21.863281 -14.597656 22.5625 -14.203125 C 23.269531 -13.804688 23.878906 -13.316406 24.390625 -12.734375 C 24.910156 -12.160156 25.316406 -11.484375 25.609375 -10.703125 C 25.910156 -9.929688 26.0625 -9.019531 26.0625 -7.96875 Z M 26.0625 -7.96875 "/></g></g><g transform="translate(108.242786, 197.605609)"><g><path d="M 16.71875 0 L 9.21875 -10.125 L 6.515625 -7.890625 L 6.515625 0 L 2.828125 0 L 2.828125 -30.40625 L 6.515625 -30.40625 L 6.515625 -11.40625 L 16.25 -22.171875 L 20.5625 -22.171875 L 11.578125 -12.640625 L 21.03125 0 Z M 16.71875 0 "/></g></g><g transform="translate(129.222194, 197.605609)"><g><path d="M 2.8125 -26.875 L 2.8125 -30.40625 L 6.5 -30.40625 L 6.5 -26.875 Z M 2.8125 0 L 2.8125 -22.171875 L 6.5 -22.171875 L 6.5 0 Z M 2.8125 0 "/></g></g><g transform="translate(138.544098, 197.605609)"><g><path d="M 21.578125 -11.1875 C 21.578125 -3.457031 18.859375 0.40625 13.421875 0.40625 C 10.003906 0.40625 7.707031 -0.875 6.53125 -3.4375 L 6.4375 -3.4375 C 6.488281 -3.332031 6.515625 -2.171875 6.515625 0.046875 L 6.515625 8.703125 L 2.828125 8.703125 L 2.828125 -17.640625 C 2.828125 -19.921875 2.785156 -21.429688 2.703125 -22.171875 L 6.265625 -22.171875 C 6.273438 -22.109375 6.296875 -21.910156 6.328125 -21.578125 C 6.359375 -21.242188 6.390625 -20.726562 6.421875 -20.03125 C 6.453125 -19.332031 6.46875 -18.851562 6.46875 -18.59375 L 6.5625 -18.59375 C 7.207031 -19.96875 8.070312 -20.96875 9.15625 -21.59375 C 10.238281 -22.226562 11.660156 -22.546875 13.421875 -22.546875 C 16.148438 -22.546875 18.191406 -21.628906 19.546875 -19.796875 C 20.898438 -17.972656 21.578125 -15.101562 21.578125 -11.1875 Z M 17.703125 -11.109375 C 17.703125 -14.191406 17.285156 -16.394531 16.453125 -17.71875 C 15.617188 -19.039062 14.289062 -19.703125 12.46875 -19.703125 C 11.007812 -19.703125 9.867188 -19.394531 9.046875 -18.78125 C 8.222656 -18.164062 7.59375 -17.207031 7.15625 -15.90625 C 6.726562 -14.601562 6.515625 -12.90625 6.515625 -10.8125 C 6.515625 -7.90625 6.976562 -5.757812 7.90625 -4.375 C 8.832031 -3 10.34375 -2.3125 12.4375 -2.3125 C 14.257812 -2.3125 15.59375 -2.984375 16.4375 -4.328125 C 17.28125 -5.671875 17.703125 -7.929688 17.703125 -11.109375 Z M 17.703125 -11.109375 "/></g></g><g transform="translate(161.879591, 197.605609)"><g/></g><g transform="translate(173.537094, 197.605609)"><g><path d="M 16.90625 0 L 16.90625 -14.046875 C 16.90625 -15.515625 16.757812 -16.648438 16.46875 -17.453125 C 16.1875 -18.253906 15.726562 -18.832031 15.09375 -19.1875 C 14.46875 -19.550781 13.546875 -19.734375 12.328125 -19.734375 C 10.554688 -19.734375 9.15625 -19.125 8.125 -17.90625 C 7.101562 -16.6875 6.59375 -15 6.59375 -12.84375 L 6.59375 0 L 2.90625 0 L 2.90625 -17.4375 C 2.90625 -20.007812 2.863281 -21.585938 2.78125 -22.171875 L 6.265625 -22.171875 C 6.273438 -22.097656 6.285156 -21.910156 6.296875 -21.609375 C 6.316406 -21.304688 6.335938 -20.960938 6.359375 -20.578125 C 6.378906 -20.191406 6.40625 -19.457031 6.4375 -18.375 L 6.5 -18.375 C 7.34375 -19.90625 8.320312 -20.988281 9.4375 -21.625 C 10.550781 -22.257812 11.929688 -22.578125 13.578125 -22.578125 C 16.015625 -22.578125 17.796875 -21.972656 18.921875 -20.765625 C 20.046875 -19.554688 20.609375 -17.554688 20.609375 -14.765625 L 20.609375 0 Z M 16.90625 0 "/></g></g></g></svg>