<svg xmlns="http://www.w3.org/2000/svg" xmlns:xlink="http://www.w3.org/1999/xlink" width="1919" zoomAndPan="magnify" viewBox="0 0 1439.25 443.999984" height="592" preserveAspectRatio="xMidYMid meet" version="1.0"><defs><filter x="0%" y="0%" width="100%" height="100%" id="cc3b6d37dd"><feColorMatrix values="0 0 0 0 1 0 0 0 0 1 0 0 0 0 1 0 0 0 1 0" color-interpolation-filters="sRGB"/></filter><g/><clipPath id="692e47213d"><path d="M 75.332031 153.96875 L 262 153.96875 L 262 221.269531 L 75.332031 221.269531 Z M 75.332031 153.96875 " clip-rule="nonzero"/></clipPath><clipPath id="b99895ef48"><path d="M 271.160156 78.609375 L 458 78.609375 L 458 145.910156 L 271.160156 145.910156 Z M 271.160156 78.609375 " clip-rule="nonzero"/></clipPath><clipPath id="29e2a784e1"><path d="M 75.332031 229.332031 L 262 229.332031 L 262 296.632812 L 75.332031 296.632812 Z M 75.332031 229.332031 " clip-rule="nonzero"/></clipPath><clipPath id="73dd7c3f60"><path d="M 271.160156 229.332031 L 458.105469 229.332031 L 458.105469 296.632812 L 271.160156 296.632812 Z M 271.160156 229.332031 " clip-rule="nonzero"/></clipPath><mask id="64ca105046"><g filter="url(#cc3b6d37dd)"><rect x="-143.925" width="1727.1" fill="#000000" y="-44.399998" height="532.79998" fill-opacity="0.498"/></g></mask><clipPath id="ea25135f3a"><path d="M 0.160156 0.332031 L 187 0.332031 L 187 67.632812 L 0.160156 67.632812 Z M 0.160156 0.332031 " clip-rule="nonzero"/></clipPath><clipPath id="263ab82ef8"><rect x="0" width="188" y="0" height="68"/></clipPath><clipPath id="5ca0f56f78"><path d="M 466.984375 78.609375 L 653.929688 78.609375 L 653.929688 145.910156 L 466.984375 145.910156 Z M 466.984375 78.609375 " clip-rule="nonzero"/></clipPath><clipPath id="2b99085f2b"><path d="M 466.984375 229.332031 L 653.929688 229.332031 L 653.929688 296.632812 L 466.984375 296.632812 Z M 466.984375 229.332031 " clip-rule="nonzero"/></clipPath><mask id="bf6c1e633b"><g filter="url(#cc3b6d37dd)"><rect x="-143.925" width="1727.1" fill="#000000" y="-44.399998" height="532.79998" fill-opacity="0.498"/></g></mask><clipPath id="8d1aed3bf1"><path d="M 0.984375 0.332031 L 187.929688 0.332031 L 187.929688 67.632812 L 0.984375 67.632812 Z M 0.984375 0.332031 " clip-rule="nonzero"/></clipPath><clipPath id="88df51bfc4"><rect x="0" width="188" y="0" height="68"/></clipPath><clipPath id="3b12ee8f93"><path d="M 670.679688 153.96875 L 768.878906 153.96875 L 768.878906 216 L 670.679688 216 Z M 670.679688 153.96875 " clip-rule="nonzero"/></clipPath><clipPath id="e69e9bce3a"><path d="M 670.679688 169.414062 L 737.554688 169.414062 L 737.554688 153.96875 L 768.4375 184.855469 L 737.554688 215.738281 L 737.554688 200.296875 L 670.679688 200.296875 L 670.679688 169.414062 " clip-rule="nonzero"/></clipPath><mask id="85a2f9dbdf"><g filter="url(#cc3b6d37dd)"><rect x="-143.925" width="1727.1" fill="#000000" y="-44.399998" height="532.79998" fill-opacity="0.4"/></g></mask><clipPath id="1829ea2d86"><path d="M 0.679688 0.96875 L 98.558594 0.96875 L 98.558594 62.761719 L 0.679688 62.761719 Z M 0.679688 0.96875 " clip-rule="nonzero"/></clipPath><clipPath id="f182aa6c8d"><path d="M 0.679688 16.414062 L 67.554688 16.414062 L 67.554688 0.96875 L 98.4375 31.855469 L 67.554688 62.738281 L 67.554688 47.296875 L 0.679688 47.296875 L 0.679688 16.414062 " clip-rule="nonzero"/></clipPath><clipPath id="c8fef5b78d"><rect x="0" width="99" y="0" height="63"/></clipPath><clipPath id="04d05262db"><path d="M 784.703125 150.636719 L 971.648438 150.636719 L 971.648438 217.9375 L 784.703125 217.9375 Z M 784.703125 150.636719 " clip-rule="nonzero"/></clipPath><clipPath id="027f695605"><path d="M 980.527344 75.277344 L 1167.472656 75.277344 L 1167.472656 142.578125 L 980.527344 142.578125 Z M 980.527344 75.277344 " clip-rule="nonzero"/></clipPath><clipPath id="7247e347a2"><path d="M 980.527344 150.636719 L 1167.472656 150.636719 L 1167.472656 217.9375 L 980.527344 217.9375 Z M 980.527344 150.636719 " clip-rule="nonzero"/></clipPath><clipPath id="f0f54e1bc1"><path d="M 784.703125 225.996094 L 971.648438 225.996094 L 971.648438 293.296875 L 784.703125 293.296875 Z M 784.703125 225.996094 " clip-rule="nonzero"/></clipPath><clipPath id="7896002377"><path d="M 980.527344 225.996094 L 1167.472656 225.996094 L 1167.472656 293.296875 L 980.527344 293.296875 Z M 980.527344 225.996094 " clip-rule="nonzero"/></clipPath><clipPath id="303ed1f2bf"><path d="M 1176.355469 75.277344 L 1363.300781 75.277344 L 1363.300781 142.578125 L 1176.355469 142.578125 Z M 1176.355469 75.277344 " clip-rule="nonzero"/></clipPath><clipPath id="411e54757e"><path d="M 1176.355469 150.636719 L 1363.300781 150.636719 L 1363.300781 217.9375 L 1176.355469 217.9375 Z M 1176.355469 150.636719 " clip-rule="nonzero"/></clipPath><clipPath id="6cb664bda7"><path d="M 1176.355469 225.996094 L 1363.300781 225.996094 L 1363.300781 293.296875 L 1176.355469 293.296875 Z M 1176.355469 225.996094 " clip-rule="nonzero"/></clipPath><clipPath id="aad9e343a7"><path d="M 271.160156 153.96875 L 458.105469 153.96875 L 458.105469 221.269531 L 271.160156 221.269531 Z M 271.160156 153.96875 " clip-rule="nonzero"/></clipPath><mask id="e7ad81a482"><g filter="url(#cc3b6d37dd)"><rect x="-143.925" width="1727.1" fill="#000000" y="-44.399998" height="532.79998" fill-opacity="0.498"/></g></mask><clipPath id="6686945128"><path d="M 0.160156 0.96875 L 187 0.96875 L 187 68.269531 L 0.160156 68.269531 Z M 0.160156 0.96875 " clip-rule="nonzero"/></clipPath><clipPath id="2853ef4064"><rect x="0" width="188" y="0" height="69"/></clipPath><clipPath id="61f2316185"><path d="M 980.035156 301.359375 L 1166.980469 301.359375 L 1166.980469 368.65625 L 980.035156 368.65625 Z M 980.035156 301.359375 " clip-rule="nonzero"/></clipPath><mask id="57c8e8a190"><g filter="url(#cc3b6d37dd)"><rect x="-143.925" width="1727.1" fill="#000000" y="-44.399998" height="532.79998" fill-opacity="0.498"/></g></mask><clipPath id="a61374ec51"><path d="M 0.0351562 0.359375 L 186.980469 0.359375 L 186.980469 67.65625 L 0.0351562 67.65625 Z M 0.0351562 0.359375 " clip-rule="nonzero"/></clipPath><clipPath id="23fecbd9e9"><rect x="0" width="187" y="0" height="68"/></clipPath><clipPath id="09d154e4bd"><path d="M 466.984375 153.96875 L 653.929688 153.96875 L 653.929688 221.269531 L 466.984375 221.269531 Z M 466.984375 153.96875 " clip-rule="nonzero"/></clipPath><mask id="3b811b8b57"><g filter="url(#cc3b6d37dd)"><rect x="-143.925" width="1727.1" fill="#000000" y="-44.399998" height="532.79998" fill-opacity="0.498"/></g></mask><clipPath id="7d6e690533"><path d="M 0.984375 0.96875 L 187.929688 0.96875 L 187.929688 68.269531 L 0.984375 68.269531 Z M 0.984375 0.96875 " clip-rule="nonzero"/></clipPath><clipPath id="91d37f44e0"><rect x="0" width="188" y="0" height="69"/></clipPath><clipPath id="0430fb9d0a"><path d="M 1176.355469 301.359375 L 1363.300781 301.359375 L 1363.300781 368.65625 L 1176.355469 368.65625 Z M 1176.355469 301.359375 " clip-rule="nonzero"/></clipPath><mask id="86b1dd21eb"><g filter="url(#cc3b6d37dd)"><rect x="-143.925" width="1727.1" fill="#000000" y="-44.399998" height="532.79998" fill-opacity="0.498"/></g></mask><clipPath id="9edc6fc23c"><path d="M 0.355469 0.359375 L 187.300781 0.359375 L 187.300781 67.65625 L 0.355469 67.65625 Z M 0.355469 0.359375 " clip-rule="nonzero"/></clipPath><clipPath id="d94bc57366"><rect x="0" width="188" y="0" height="68"/></clipPath></defs><g clip-path="url(#692e47213d)"><path fill="#d9d9d9" d="M 75.332031 153.96875 L 261.988281 153.96875 L 261.988281 221.433594 L 75.332031 221.433594 Z M 75.332031 153.96875 " fill-opacity="1" fill-rule="nonzero"/></g><g clip-path="url(#b99895ef48)"><path fill="#d9d9d9" d="M 271.160156 78.609375 L 457.8125 78.609375 L 457.8125 146.074219 L 271.160156 146.074219 Z M 271.160156 78.609375 " fill-opacity="1" fill-rule="nonzero"/></g><g clip-path="url(#29e2a784e1)"><path fill="#d9d9d9" d="M 75.332031 229.332031 L 261.988281 229.332031 L 261.988281 296.796875 L 75.332031 296.796875 Z M 75.332031 229.332031 " fill-opacity="1" fill-rule="nonzero"/></g><g clip-path="url(#73dd7c3f60)"><g mask="url(#64ca105046)"><g transform="matrix(1, 0, 0, 1, 271, 229)"><g clip-path="url(#263ab82ef8)"><g clip-path="url(#ea25135f3a)"><path fill="#ffc000" d="M 0.160156 0.332031 L 186.8125 0.332031 L 186.8125 67.796875 L 0.160156 67.796875 Z M 0.160156 0.332031 " fill-opacity="1" fill-rule="nonzero"/></g></g></g></g></g><g fill="#808080" fill-opacity="1"><g transform="translate(347.959376, 272.808504)"><g><path d="M 1.890625 0 L 1.890625 -3.0625 L 7 -3.0625 L 7 -17.125 L 2.046875 -14.046875 L 2.046875 -17.28125 L 7.21875 -20.625 L 11.109375 -20.625 L 11.109375 -3.0625 L 15.84375 -3.0625 L 15.84375 0 Z M 1.890625 0 "/></g></g><g transform="translate(364.635255, 272.808504)"><g><path d="M 15.84375 -6.859375 C 15.84375 -4.679688 15.160156 -2.941406 13.796875 -1.640625 C 12.429688 -0.347656 10.566406 0.296875 8.203125 0.296875 C 6.128906 0.296875 4.46875 -0.164062 3.21875 -1.09375 C 1.976562 -2.03125 1.210938 -3.382812 0.921875 -5.15625 L 5.03125 -5.484375 C 5.25 -4.609375 5.628906 -3.96875 6.171875 -3.5625 C 6.722656 -3.164062 7.414062 -2.96875 8.25 -2.96875 C 9.269531 -2.96875 10.082031 -3.296875 10.6875 -3.953125 C 11.300781 -4.609375 11.609375 -5.550781 11.609375 -6.78125 C 11.609375 -7.863281 11.316406 -8.726562 10.734375 -9.375 C 10.160156 -10.019531 9.359375 -10.34375 8.328125 -10.34375 C 7.191406 -10.34375 6.257812 -9.898438 5.53125 -9.015625 L 1.515625 -9.015625 L 2.234375 -20.625 L 14.640625 -20.625 L 14.640625 -17.5625 L 5.96875 -17.5625 L 5.640625 -12.359375 C 6.628906 -13.234375 7.875 -13.671875 9.375 -13.671875 C 11.332031 -13.671875 12.898438 -13.0625 14.078125 -11.84375 C 15.253906 -10.625 15.84375 -8.960938 15.84375 -6.859375 Z M 15.84375 -6.859375 "/></g></g></g><g clip-path="url(#5ca0f56f78)"><path fill="#d9d9d9" d="M 466.984375 78.609375 L 653.636719 78.609375 L 653.636719 146.074219 L 466.984375 146.074219 Z M 466.984375 78.609375 " fill-opacity="1" fill-rule="nonzero"/></g><g clip-path="url(#2b99085f2b)"><g mask="url(#bf6c1e633b)"><g transform="matrix(1, 0, 0, 1, 466, 229)"><g clip-path="url(#88df51bfc4)"><g clip-path="url(#8d1aed3bf1)"><path fill="#ffc000" d="M 0.984375 0.332031 L 187.636719 0.332031 L 187.636719 67.796875 L 0.984375 67.796875 Z M 0.984375 0.332031 " fill-opacity="1" fill-rule="nonzero"/></g></g></g></g></g><g fill="#808080" fill-opacity="1"><g transform="translate(543.784948, 272.808504)"><g><path d="M 13.765625 -4.203125 L 13.765625 0 L 9.84375 0 L 9.84375 -4.203125 L 0.453125 -4.203125 L 0.453125 -7.296875 L 9.171875 -20.625 L 13.765625 -20.625 L 13.765625 -7.265625 L 16.515625 -7.265625 L 16.515625 -4.203125 Z M 9.84375 -14.015625 C 9.84375 -14.535156 9.859375 -15.101562 9.890625 -15.71875 C 9.921875 -16.332031 9.945312 -16.726562 9.96875 -16.90625 C 9.71875 -16.363281 9.257812 -15.570312 8.59375 -14.53125 L 3.8125 -7.265625 L 9.84375 -7.265625 Z M 9.84375 -14.015625 "/></g></g><g transform="translate(560.460828, 272.808504)"><g><path d="M 15.359375 -17.359375 C 14.429688 -15.898438 13.554688 -14.484375 12.734375 -13.109375 C 11.910156 -11.734375 11.1875 -10.347656 10.5625 -8.953125 C 9.945312 -7.554688 9.460938 -6.125 9.109375 -4.65625 C 8.753906 -3.1875 8.578125 -1.632812 8.578125 0 L 4.296875 0 C 4.296875 -1.71875 4.519531 -3.378906 4.96875 -4.984375 C 5.414062 -6.585938 6.0625 -8.222656 6.90625 -9.890625 C 7.757812 -11.554688 9.300781 -14.007812 11.53125 -17.25 L 1.28125 -17.25 L 1.28125 -20.625 L 15.359375 -20.625 Z M 15.359375 -17.359375 "/></g></g></g><g clip-path="url(#3b12ee8f93)"><g clip-path="url(#e69e9bce3a)"><g mask="url(#85a2f9dbdf)"><g transform="matrix(1, 0, 0, 1, 670, 153)"><g clip-path="url(#c8fef5b78d)"><g clip-path="url(#1829ea2d86)"><g clip-path="url(#f182aa6c8d)"><path fill="#03e313" d="M 0.679688 0.96875 L 98.128906 0.96875 L 98.128906 62.4375 L 0.679688 62.4375 Z M 0.679688 0.96875 " fill-opacity="1" fill-rule="nonzero"/></g></g></g></g></g></g></g><g clip-path="url(#04d05262db)"><path fill="#d9d9d9" d="M 784.703125 150.636719 L 971.355469 150.636719 L 971.355469 218.101562 L 784.703125 218.101562 Z M 784.703125 150.636719 " fill-opacity="1" fill-rule="nonzero"/></g><g clip-path="url(#027f695605)"><path fill="#d9d9d9" d="M 980.527344 75.277344 L 1167.179688 75.277344 L 1167.179688 142.742188 L 980.527344 142.742188 Z M 980.527344 75.277344 " fill-opacity="1" fill-rule="nonzero"/></g><g clip-path="url(#7247e347a2)"><path fill="#f2f2f2" d="M 980.527344 150.636719 L 1167.179688 150.636719 L 1167.179688 218.101562 L 980.527344 218.101562 Z M 980.527344 150.636719 " fill-opacity="1" fill-rule="nonzero"/></g><g fill="#808080" fill-opacity="1"><g transform="translate(1065.668065, 194.114515)"><g><path d="M 1.890625 0 L 1.890625 -3.0625 L 7 -3.0625 L 7 -17.125 L 2.046875 -14.046875 L 2.046875 -17.28125 L 7.21875 -20.625 L 11.109375 -20.625 L 11.109375 -3.0625 L 15.84375 -3.0625 L 15.84375 0 Z M 1.890625 0 "/></g></g></g><g clip-path="url(#f0f54e1bc1)"><path fill="#d9d9d9" d="M 784.703125 225.996094 L 971.355469 225.996094 L 971.355469 293.460938 L 784.703125 293.460938 Z M 784.703125 225.996094 " fill-opacity="1" fill-rule="nonzero"/></g><g clip-path="url(#7896002377)"><path fill="#f2f2f2" d="M 980.527344 225.996094 L 1167.179688 225.996094 L 1167.179688 293.460938 L 980.527344 293.460938 Z M 980.527344 225.996094 " fill-opacity="1" fill-rule="nonzero"/></g><g fill="#808080" fill-opacity="1"><g transform="translate(1057.328661, 269.47504)"><g><path d="M 1.890625 0 L 1.890625 -3.0625 L 7 -3.0625 L 7 -17.125 L 2.046875 -14.046875 L 2.046875 -17.28125 L 7.21875 -20.625 L 11.109375 -20.625 L 11.109375 -3.0625 L 15.84375 -3.0625 L 15.84375 0 Z M 1.890625 0 "/></g></g><g transform="translate(1074.00454, 269.47504)"><g><path d="M 15.84375 -6.859375 C 15.84375 -4.679688 15.160156 -2.941406 13.796875 -1.640625 C 12.429688 -0.347656 10.566406 0.296875 8.203125 0.296875 C 6.128906 0.296875 4.46875 -0.164062 3.21875 -1.09375 C 1.976562 -2.03125 1.210938 -3.382812 0.921875 -5.15625 L 5.03125 -5.484375 C 5.25 -4.609375 5.628906 -3.96875 6.171875 -3.5625 C 6.722656 -3.164062 7.414062 -2.96875 8.25 -2.96875 C 9.269531 -2.96875 10.082031 -3.296875 10.6875 -3.953125 C 11.300781 -4.609375 11.609375 -5.550781 11.609375 -6.78125 C 11.609375 -7.863281 11.316406 -8.726562 10.734375 -9.375 C 10.160156 -10.019531 9.359375 -10.34375 8.328125 -10.34375 C 7.191406 -10.34375 6.257812 -9.898438 5.53125 -9.015625 L 1.515625 -9.015625 L 2.234375 -20.625 L 14.640625 -20.625 L 14.640625 -17.5625 L 5.96875 -17.5625 L 5.640625 -12.359375 C 6.628906 -13.234375 7.875 -13.671875 9.375 -13.671875 C 11.332031 -13.671875 12.898438 -13.0625 14.078125 -11.84375 C 15.253906 -10.625 15.84375 -8.960938 15.84375 -6.859375 Z M 15.84375 -6.859375 "/></g></g></g><g clip-path="url(#303ed1f2bf)"><path fill="#d9d9d9" d="M 1176.355469 75.277344 L 1363.007812 75.277344 L 1363.007812 142.742188 L 1176.355469 142.742188 Z M 1176.355469 75.277344 " fill-opacity="1" fill-rule="nonzero"/></g><g clip-path="url(#411e54757e)"><path fill="#f2f2f2" d="M 1176.355469 150.636719 L 1363.007812 150.636719 L 1363.007812 218.101562 L 1176.355469 218.101562 Z M 1176.355469 150.636719 " fill-opacity="1" fill-rule="nonzero"/></g><g fill="#808080" fill-opacity="1"><g transform="translate(1253.154159, 194.114515)"><g><path d="M 15.59375 -5.71875 C 15.59375 -3.789062 14.957031 -2.296875 13.6875 -1.234375 C 12.414062 -0.179688 10.609375 0.34375 8.265625 0.34375 C 6.054688 0.34375 4.296875 -0.164062 2.984375 -1.1875 C 1.679688 -2.207031 0.914062 -3.679688 0.6875 -5.609375 L 4.875 -5.96875 C 5.132812 -3.988281 6.257812 -3 8.25 -3 C 9.238281 -3 10.003906 -3.242188 10.546875 -3.734375 C 11.097656 -4.222656 11.375 -4.96875 11.375 -5.96875 C 11.375 -6.882812 11.039062 -7.585938 10.375 -8.078125 C 9.71875 -8.566406 8.734375 -8.8125 7.421875 -8.8125 L 5.984375 -8.8125 L 5.984375 -12.140625 L 7.328125 -12.140625 C 8.515625 -12.140625 9.40625 -12.378906 10 -12.859375 C 10.59375 -13.347656 10.890625 -14.039062 10.890625 -14.9375 C 10.890625 -15.78125 10.648438 -16.441406 10.171875 -16.921875 C 9.703125 -17.410156 9.015625 -17.65625 8.109375 -17.65625 C 7.265625 -17.65625 6.578125 -17.421875 6.046875 -16.953125 C 5.523438 -16.484375 5.226562 -15.820312 5.15625 -14.96875 L 1.046875 -15.25 C 1.253906 -17.03125 1.988281 -18.421875 3.25 -19.421875 C 4.507812 -20.429688 6.15625 -20.9375 8.1875 -20.9375 C 10.34375 -20.9375 12.023438 -20.445312 13.234375 -19.46875 C 14.453125 -18.5 15.0625 -17.160156 15.0625 -15.453125 C 15.0625 -14.160156 14.679688 -13.097656 13.921875 -12.265625 C 13.171875 -11.441406 12.082031 -10.890625 10.65625 -10.609375 L 10.65625 -10.5625 C 12.238281 -10.375 13.457031 -9.851562 14.3125 -9 C 15.164062 -8.144531 15.59375 -7.050781 15.59375 -5.71875 Z M 15.59375 -5.71875 "/></g></g><g transform="translate(1269.830039, 194.114515)"><g><path d="M 1.890625 0 L 1.890625 -3.0625 L 7 -3.0625 L 7 -17.125 L 2.046875 -14.046875 L 2.046875 -17.28125 L 7.21875 -20.625 L 11.109375 -20.625 L 11.109375 -3.0625 L 15.84375 -3.0625 L 15.84375 0 Z M 1.890625 0 "/></g></g></g><g clip-path="url(#6cb664bda7)"><path fill="#f2f2f2" d="M 1176.355469 225.996094 L 1363.007812 225.996094 L 1363.007812 293.460938 L 1176.355469 293.460938 Z M 1176.355469 225.996094 " fill-opacity="1" fill-rule="nonzero"/></g><g fill="#808080" fill-opacity="1"><g transform="translate(1253.154159, 269.47504)"><g><path d="M 13.765625 -4.203125 L 13.765625 0 L 9.84375 0 L 9.84375 -4.203125 L 0.453125 -4.203125 L 0.453125 -7.296875 L 9.171875 -20.625 L 13.765625 -20.625 L 13.765625 -7.265625 L 16.515625 -7.265625 L 16.515625 -4.203125 Z M 9.84375 -14.015625 C 9.84375 -14.535156 9.859375 -15.101562 9.890625 -15.71875 C 9.921875 -16.332031 9.945312 -16.726562 9.96875 -16.90625 C 9.71875 -16.363281 9.257812 -15.570312 8.59375 -14.53125 L 3.8125 -7.265625 L 9.84375 -7.265625 Z M 9.84375 -14.015625 "/></g></g><g transform="translate(1269.830039, 269.47504)"><g><path d="M 15.359375 -17.359375 C 14.429688 -15.898438 13.554688 -14.484375 12.734375 -13.109375 C 11.910156 -11.734375 11.1875 -10.347656 10.5625 -8.953125 C 9.945312 -7.554688 9.460938 -6.125 9.109375 -4.65625 C 8.753906 -3.1875 8.578125 -1.632812 8.578125 0 L 4.296875 0 C 4.296875 -1.71875 4.519531 -3.378906 4.96875 -4.984375 C 5.414062 -6.585938 6.0625 -8.222656 6.90625 -9.890625 C 7.757812 -11.554688 9.300781 -14.007812 11.53125 -17.25 L 1.28125 -17.25 L 1.28125 -20.625 L 15.359375 -20.625 Z M 15.359375 -17.359375 "/></g></g></g><g clip-path="url(#aad9e343a7)"><g mask="url(#e7ad81a482)"><g transform="matrix(1, 0, 0, 1, 271, 153)"><g clip-path="url(#2853ef4064)"><g clip-path="url(#6686945128)"><path fill="#ffc000" d="M 0.160156 0.96875 L 186.8125 0.96875 L 186.8125 68.433594 L 0.160156 68.433594 Z M 0.160156 0.96875 " fill-opacity="1" fill-rule="nonzero"/></g></g></g></g></g><g fill="#808080" fill-opacity="1"><g transform="translate(356.298662, 197.447979)"><g><path d="M 1.890625 0 L 1.890625 -3.0625 L 7 -3.0625 L 7 -17.125 L 2.046875 -14.046875 L 2.046875 -17.28125 L 7.21875 -20.625 L 11.109375 -20.625 L 11.109375 -3.0625 L 15.84375 -3.0625 L 15.84375 0 Z M 1.890625 0 "/></g></g></g><g clip-path="url(#61f2316185)"><g mask="url(#57c8e8a190)"><g transform="matrix(1, 0, 0, 1, 980, 301)"><g clip-path="url(#23fecbd9e9)"><g clip-path="url(#a61374ec51)"><path fill="#03e313" d="M 0.0351562 0.359375 L 186.6875 0.359375 L 186.6875 67.824219 L 0.0351562 67.824219 Z M 0.0351562 0.359375 " fill-opacity="1" fill-rule="nonzero"/></g></g></g></g></g><g fill="#808080" fill-opacity="1"><g transform="translate(1065.173275, 344.835568)"><g><path d="M 15.75 -5.8125 C 15.75 -3.875 15.109375 -2.367188 13.828125 -1.296875 C 12.554688 -0.234375 10.734375 0.296875 8.359375 0.296875 C 6.003906 0.296875 4.179688 -0.234375 2.890625 -1.296875 C 1.597656 -2.367188 0.953125 -3.863281 0.953125 -5.78125 C 0.953125 -7.101562 1.332031 -8.210938 2.09375 -9.109375 C 2.851562 -10.015625 3.875 -10.578125 5.15625 -10.796875 L 5.15625 -10.84375 C 4.039062 -11.09375 3.140625 -11.644531 2.453125 -12.5 C 1.773438 -13.363281 1.4375 -14.351562 1.4375 -15.46875 C 1.4375 -17.164062 2.03125 -18.5 3.21875 -19.46875 C 4.414062 -20.445312 6.109375 -20.9375 8.296875 -20.9375 C 10.535156 -20.9375 12.25 -20.457031 13.4375 -19.5 C 14.632812 -18.550781 15.234375 -17.203125 15.234375 -15.453125 C 15.234375 -14.328125 14.894531 -13.335938 14.21875 -12.484375 C 13.539062 -11.640625 12.632812 -11.101562 11.5 -10.875 L 11.5 -10.8125 C 12.820312 -10.601562 13.859375 -10.0625 14.609375 -9.1875 C 15.367188 -8.3125 15.75 -7.1875 15.75 -5.8125 Z M 11.015625 -15.21875 C 11.015625 -16.195312 10.785156 -16.910156 10.328125 -17.359375 C 9.878906 -17.816406 9.203125 -18.046875 8.296875 -18.046875 C 6.523438 -18.046875 5.640625 -17.101562 5.640625 -15.21875 C 5.640625 -13.25 6.535156 -12.265625 8.328125 -12.265625 C 9.222656 -12.265625 9.894531 -12.492188 10.34375 -12.953125 C 10.789062 -13.410156 11.015625 -14.164062 11.015625 -15.21875 Z M 11.5 -6.15625 C 11.5 -8.3125 10.421875 -9.390625 8.265625 -9.390625 C 7.273438 -9.390625 6.515625 -9.101562 5.984375 -8.53125 C 5.453125 -7.96875 5.1875 -7.15625 5.1875 -6.09375 C 5.1875 -4.882812 5.445312 -4 5.96875 -3.4375 C 6.5 -2.882812 7.304688 -2.609375 8.390625 -2.609375 C 9.453125 -2.609375 10.234375 -2.882812 10.734375 -3.4375 C 11.242188 -4 11.5 -4.90625 11.5 -6.15625 Z M 11.5 -6.15625 "/></g></g></g><g clip-path="url(#09d154e4bd)"><g mask="url(#3b811b8b57)"><g transform="matrix(1, 0, 0, 1, 466, 153)"><g clip-path="url(#91d37f44e0)"><g clip-path="url(#7d6e690533)"><path fill="#ffc000" d="M 0.984375 0.96875 L 187.636719 0.96875 L 187.636719 68.433594 L 0.984375 68.433594 Z M 0.984375 0.96875 " fill-opacity="1" fill-rule="nonzero"/></g></g></g></g></g><g fill="#808080" fill-opacity="1"><g transform="translate(543.784948, 197.447979)"><g><path d="M 15.59375 -5.71875 C 15.59375 -3.789062 14.957031 -2.296875 13.6875 -1.234375 C 12.414062 -0.179688 10.609375 0.34375 8.265625 0.34375 C 6.054688 0.34375 4.296875 -0.164062 2.984375 -1.1875 C 1.679688 -2.207031 0.914062 -3.679688 0.6875 -5.609375 L 4.875 -5.96875 C 5.132812 -3.988281 6.257812 -3 8.25 -3 C 9.238281 -3 10.003906 -3.242188 10.546875 -3.734375 C 11.097656 -4.222656 11.375 -4.96875 11.375 -5.96875 C 11.375 -6.882812 11.039062 -7.585938 10.375 -8.078125 C 9.71875 -8.566406 8.734375 -8.8125 7.421875 -8.8125 L 5.984375 -8.8125 L 5.984375 -12.140625 L 7.328125 -12.140625 C 8.515625 -12.140625 9.40625 -12.378906 10 -12.859375 C 10.59375 -13.347656 10.890625 -14.039062 10.890625 -14.9375 C 10.890625 -15.78125 10.648438 -16.441406 10.171875 -16.921875 C 9.703125 -17.410156 9.015625 -17.65625 8.109375 -17.65625 C 7.265625 -17.65625 6.578125 -17.421875 6.046875 -16.953125 C 5.523438 -16.484375 5.226562 -15.820312 5.15625 -14.96875 L 1.046875 -15.25 C 1.253906 -17.03125 1.988281 -18.421875 3.25 -19.421875 C 4.507812 -20.429688 6.15625 -20.9375 8.1875 -20.9375 C 10.34375 -20.9375 12.023438 -20.445312 13.234375 -19.46875 C 14.453125 -18.5 15.0625 -17.160156 15.0625 -15.453125 C 15.0625 -14.160156 14.679688 -13.097656 13.921875 -12.265625 C 13.171875 -11.441406 12.082031 -10.890625 10.65625 -10.609375 L 10.65625 -10.5625 C 12.238281 -10.375 13.457031 -9.851562 14.3125 -9 C 15.164062 -8.144531 15.59375 -7.050781 15.59375 -5.71875 Z M 15.59375 -5.71875 "/></g></g><g transform="translate(560.460828, 197.447979)"><g><path d="M 1.890625 0 L 1.890625 -3.0625 L 7 -3.0625 L 7 -17.125 L 2.046875 -14.046875 L 2.046875 -17.28125 L 7.21875 -20.625 L 11.109375 -20.625 L 11.109375 -3.0625 L 15.84375 -3.0625 L 15.84375 0 Z M 1.890625 0 "/></g></g></g><g clip-path="url(#0430fb9d0a)"><g mask="url(#86b1dd21eb)"><g transform="matrix(1, 0, 0, 1, 1176, 301)"><g clip-path="url(#d94bc57366)"><g clip-path="url(#9edc6fc23c)"><path fill="#03e313" d="M 0.355469 0.359375 L 187.007812 0.359375 L 187.007812 67.824219 L 0.355469 67.824219 Z M 0.355469 0.359375 " fill-opacity="1" fill-rule="nonzero"/></g></g></g></g></g><g fill="#808080" fill-opacity="1"><g transform="translate(1253.154159, 344.835568)"><g><path d="M 15.59375 -5.71875 C 15.59375 -3.789062 14.957031 -2.296875 13.6875 -1.234375 C 12.414062 -0.179688 10.609375 0.34375 8.265625 0.34375 C 6.054688 0.34375 4.296875 -0.164062 2.984375 -1.1875 C 1.679688 -2.207031 0.914062 -3.679688 0.6875 -5.609375 L 4.875 -5.96875 C 5.132812 -3.988281 6.257812 -3 8.25 -3 C 9.238281 -3 10.003906 -3.242188 10.546875 -3.734375 C 11.097656 -4.222656 11.375 -4.96875 11.375 -5.96875 C 11.375 -6.882812 11.039062 -7.585938 10.375 -8.078125 C 9.71875 -8.566406 8.734375 -8.8125 7.421875 -8.8125 L 5.984375 -8.8125 L 5.984375 -12.140625 L 7.328125 -12.140625 C 8.515625 -12.140625 9.40625 -12.378906 10 -12.859375 C 10.59375 -13.347656 10.890625 -14.039062 10.890625 -14.9375 C 10.890625 -15.78125 10.648438 -16.441406 10.171875 -16.921875 C 9.703125 -17.410156 9.015625 -17.65625 8.109375 -17.65625 C 7.265625 -17.65625 6.578125 -17.421875 6.046875 -16.953125 C 5.523438 -16.484375 5.226562 -15.820312 5.15625 -14.96875 L 1.046875 -15.25 C 1.253906 -17.03125 1.988281 -18.421875 3.25 -19.421875 C 4.507812 -20.429688 6.15625 -20.9375 8.1875 -20.9375 C 10.34375 -20.9375 12.023438 -20.445312 13.234375 -19.46875 C 14.453125 -18.5 15.0625 -17.160156 15.0625 -15.453125 C 15.0625 -14.160156 14.679688 -13.097656 13.921875 -12.265625 C 13.171875 -11.441406 12.082031 -10.890625 10.65625 -10.609375 L 10.65625 -10.5625 C 12.238281 -10.375 13.457031 -9.851562 14.3125 -9 C 15.164062 -8.144531 15.59375 -7.050781 15.59375 -5.71875 Z M 15.59375 -5.71875 "/></g></g><g transform="translate(1269.830039, 344.835568)"><g><path d="M 15.5625 -10.640625 C 15.5625 -6.984375 14.890625 -4.242188 13.546875 -2.421875 C 12.210938 -0.609375 10.316406 0.296875 7.859375 0.296875 C 6.046875 0.296875 4.625 -0.0859375 3.59375 -0.859375 C 2.5625 -1.640625 1.832031 -2.867188 1.40625 -4.546875 L 5.265625 -5.09375 C 5.648438 -3.65625 6.53125 -2.9375 7.90625 -2.9375 C 9.0625 -2.9375 9.945312 -3.488281 10.5625 -4.59375 C 11.1875 -5.695312 11.503906 -7.332031 11.515625 -9.5 C 11.148438 -8.769531 10.546875 -8.195312 9.703125 -7.78125 C 8.859375 -7.363281 7.945312 -7.15625 6.96875 -7.15625 C 5.15625 -7.15625 3.710938 -7.769531 2.640625 -9 C 1.578125 -10.238281 1.046875 -11.914062 1.046875 -14.03125 C 1.046875 -16.195312 1.671875 -17.890625 2.921875 -19.109375 C 4.171875 -20.328125 5.945312 -20.9375 8.25 -20.9375 C 10.71875 -20.9375 12.550781 -20.078125 13.75 -18.359375 C 14.957031 -16.648438 15.5625 -14.078125 15.5625 -10.640625 Z M 11.21875 -13.53125 C 11.21875 -14.8125 10.9375 -15.828125 10.375 -16.578125 C 9.8125 -17.335938 9.066406 -17.71875 8.140625 -17.71875 C 7.234375 -17.71875 6.519531 -17.382812 6 -16.71875 C 5.476562 -16.0625 5.21875 -15.15625 5.21875 -14 C 5.21875 -12.851562 5.472656 -11.9375 5.984375 -11.25 C 6.503906 -10.5625 7.226562 -10.21875 8.15625 -10.21875 C 9.03125 -10.21875 9.757812 -10.515625 10.34375 -11.109375 C 10.925781 -11.710938 11.21875 -12.519531 11.21875 -13.53125 Z M 11.21875 -13.53125 "/></g></g></g></svg>