<svg xmlns="http://www.w3.org/2000/svg" xmlns:xlink="http://www.w3.org/1999/xlink" width="983" zoomAndPan="magnify" viewBox="0 0 737.25 449.249995" height="599" preserveAspectRatio="xMidYMid meet" version="1.0"><defs><filter x="0%" y="0%" width="100%" height="100%" id="b312208ed6"><feColorMatrix values="0 0 0 0 1 0 0 0 0 1 0 0 0 0 1 0 0 0 1 0" color-interpolation-filters="sRGB"/></filter><g/><clipPath id="2932ca136b"><path d="M 206.363281 75.085938 L 321 75.085938 L 321 116.402344 L 206.363281 116.402344 Z M 206.363281 75.085938 " clip-rule="nonzero"/></clipPath><clipPath id="e45351763e"><path d="M 325.386719 75.085938 L 431.519531 75.085938 L 431.519531 116.402344 L 325.386719 116.402344 Z M 325.386719 75.085938 " clip-rule="nonzero"/></clipPath><clipPath id="cb0cd6efa3"><path d="M 215.007812 120.980469 L 321.140625 120.980469 L 321.140625 159.191406 L 215.007812 159.191406 Z M 215.007812 120.980469 " clip-rule="nonzero"/></clipPath><clipPath id="a8e4a6a6d5"><path d="M 325.386719 120.980469 L 431.519531 120.980469 L 431.519531 159.191406 L 325.386719 159.191406 Z M 325.386719 120.980469 " clip-rule="nonzero"/></clipPath><clipPath id="741a0122de"><path d="M 435.765625 75.085938 L 541.902344 75.085938 L 541.902344 116.402344 L 435.765625 116.402344 Z M 435.765625 75.085938 " clip-rule="nonzero"/></clipPath><clipPath id="9f979a32dd"><path d="M 546.144531 75.085938 L 660.921875 75.085938 L 660.921875 116.402344 L 546.144531 116.402344 Z M 546.144531 75.085938 " clip-rule="nonzero"/></clipPath><clipPath id="78cb704b28"><path d="M 435.765625 120.980469 L 541.902344 120.980469 L 541.902344 159.191406 L 435.765625 159.191406 Z M 435.765625 120.980469 " clip-rule="nonzero"/></clipPath><clipPath id="5f4da95ed4"><path d="M 546.144531 120.980469 L 652.28125 120.980469 L 652.28125 159.191406 L 546.144531 159.191406 Z M 546.144531 120.980469 " clip-rule="nonzero"/></clipPath><clipPath id="5b338ee60f"><path d="M 215.007812 163.765625 L 321.140625 163.765625 L 321.140625 201.972656 L 215.007812 201.972656 Z M 215.007812 163.765625 " clip-rule="nonzero"/></clipPath><clipPath id="12a4e9af20"><path d="M 325.386719 163.765625 L 431.519531 163.765625 L 431.519531 201.972656 L 325.386719 201.972656 Z M 325.386719 163.765625 " clip-rule="nonzero"/></clipPath><clipPath id="d4d87ac5a2"><path d="M 215.007812 206.546875 L 321.140625 206.546875 L 321.140625 244.757812 L 215.007812 244.757812 Z M 215.007812 206.546875 " clip-rule="nonzero"/></clipPath><clipPath id="0057e33cd3"><path d="M 325.386719 206.546875 L 431.519531 206.546875 L 431.519531 244.757812 L 325.386719 244.757812 Z M 325.386719 206.546875 " clip-rule="nonzero"/></clipPath><clipPath id="2db5557eba"><path d="M 435.765625 163.765625 L 541.902344 163.765625 L 541.902344 201.972656 L 435.765625 201.972656 Z M 435.765625 163.765625 " clip-rule="nonzero"/></clipPath><clipPath id="6ffdf8350f"><path d="M 546.144531 163.765625 L 652.28125 163.765625 L 652.28125 201.972656 L 546.144531 201.972656 Z M 546.144531 163.765625 " clip-rule="nonzero"/></clipPath><clipPath id="63398b39cf"><path d="M 435.765625 206.546875 L 541.902344 206.546875 L 541.902344 244.757812 L 435.765625 244.757812 Z M 435.765625 206.546875 " clip-rule="nonzero"/></clipPath><clipPath id="8984402515"><path d="M 546.144531 206.546875 L 652.28125 206.546875 L 652.28125 244.757812 L 546.144531 244.757812 Z M 546.144531 206.546875 " clip-rule="nonzero"/></clipPath><clipPath id="a2b24f3db4"><path d="M 215.007812 249.332031 L 321.140625 249.332031 L 321.140625 287.542969 L 215.007812 287.542969 Z M 215.007812 249.332031 " clip-rule="nonzero"/></clipPath><mask id="2f2a9d0110"><g filter="url(#b312208ed6)"><rect x="-73.725" width="884.7" fill="#000000" y="-44.924999" height="539.099994" fill-opacity="0.498"/></g></mask><clipPath id="591709fe61"><path d="M 0.0078125 0.332031 L 106.140625 0.332031 L 106.140625 38.542969 L 0.0078125 38.542969 Z M 0.0078125 0.332031 " clip-rule="nonzero"/></clipPath><clipPath id="2e235e4f87"><rect x="0" width="107" y="0" height="39"/></clipPath><clipPath id="c3f5d384c8"><path d="M 325.386719 249.332031 L 431.519531 249.332031 L 431.519531 287.542969 L 325.386719 287.542969 Z M 325.386719 249.332031 " clip-rule="nonzero"/></clipPath><mask id="d57630334c"><g filter="url(#b312208ed6)"><rect x="-73.725" width="884.7" fill="#000000" y="-44.924999" height="539.099994" fill-opacity="0.298"/></g></mask><clipPath id="c6feec48a3"><path d="M 0.386719 0.332031 L 106.519531 0.332031 L 106.519531 38.542969 L 0.386719 38.542969 Z M 0.386719 0.332031 " clip-rule="nonzero"/></clipPath><clipPath id="52a4c41012"><rect x="0" width="107" y="0" height="39"/></clipPath><clipPath id="5e99aa24ac"><path d="M 435.765625 249.332031 L 541.902344 249.332031 L 541.902344 287.542969 L 435.765625 287.542969 Z M 435.765625 249.332031 " clip-rule="nonzero"/></clipPath><mask id="f3a9645472"><g filter="url(#b312208ed6)"><rect x="-73.725" width="884.7" fill="#000000" y="-44.924999" height="539.099994" fill-opacity="0.298"/></g></mask><clipPath id="ba20ada20a"><path d="M 0.765625 0.332031 L 106.902344 0.332031 L 106.902344 38.542969 L 0.765625 38.542969 Z M 0.765625 0.332031 " clip-rule="nonzero"/></clipPath><clipPath id="d0dbaca513"><rect x="0" width="107" y="0" height="39"/></clipPath><clipPath id="dbd18442be"><path d="M 546.144531 249.332031 L 652.28125 249.332031 L 652.28125 287.542969 L 546.144531 287.542969 Z M 546.144531 249.332031 " clip-rule="nonzero"/></clipPath><mask id="06633b64f9"><g filter="url(#b312208ed6)"><rect x="-73.725" width="884.7" fill="#000000" y="-44.924999" height="539.099994" fill-opacity="0.298"/></g></mask><clipPath id="649bac4d44"><path d="M 0.144531 0.332031 L 106.28125 0.332031 L 106.28125 38.542969 L 0.144531 38.542969 Z M 0.144531 0.332031 " clip-rule="nonzero"/></clipPath><clipPath id="b3eaee0a57"><rect x="0" width="107" y="0" height="39"/></clipPath><clipPath id="39791e1c99"><path d="M 215.007812 292.117188 L 321.140625 292.117188 L 321.140625 330.324219 L 215.007812 330.324219 Z M 215.007812 292.117188 " clip-rule="nonzero"/></clipPath><mask id="cfe26041eb"><g filter="url(#b312208ed6)"><rect x="-73.725" width="884.7" fill="#000000" y="-44.924999" height="539.099994" fill-opacity="0.498"/></g></mask><clipPath id="a4f463348d"><path d="M 0.0078125 0.117188 L 106.140625 0.117188 L 106.140625 38.324219 L 0.0078125 38.324219 Z M 0.0078125 0.117188 " clip-rule="nonzero"/></clipPath><clipPath id="cdc9b18bab"><rect x="0" width="107" y="0" height="39"/></clipPath><clipPath id="bebffa3e55"><path d="M 325.386719 292.117188 L 431.519531 292.117188 L 431.519531 330.324219 L 325.386719 330.324219 Z M 325.386719 292.117188 " clip-rule="nonzero"/></clipPath><mask id="4147f35463"><g filter="url(#b312208ed6)"><rect x="-73.725" width="884.7" fill="#000000" y="-44.924999" height="539.099994" fill-opacity="0.298"/></g></mask><clipPath id="ddd107d164"><path d="M 0.386719 0.117188 L 106.519531 0.117188 L 106.519531 38.324219 L 0.386719 38.324219 Z M 0.386719 0.117188 " clip-rule="nonzero"/></clipPath><clipPath id="6c8c4c3978"><rect x="0" width="107" y="0" height="39"/></clipPath><clipPath id="110f3a21dc"><path d="M 435.765625 292.117188 L 541.902344 292.117188 L 541.902344 330.324219 L 435.765625 330.324219 Z M 435.765625 292.117188 " clip-rule="nonzero"/></clipPath><mask id="ec3077af04"><g filter="url(#b312208ed6)"><rect x="-73.725" width="884.7" fill="#000000" y="-44.924999" height="539.099994" fill-opacity="0.298"/></g></mask><clipPath id="4c5f310b34"><path d="M 0.765625 0.117188 L 106.902344 0.117188 L 106.902344 38.324219 L 0.765625 38.324219 Z M 0.765625 0.117188 " clip-rule="nonzero"/></clipPath><clipPath id="7b49e28cc6"><rect x="0" width="107" y="0" height="39"/></clipPath><clipPath id="6371e7e310"><path d="M 546.144531 292.117188 L 652.28125 292.117188 L 652.28125 330.324219 L 546.144531 330.324219 Z M 546.144531 292.117188 " clip-rule="nonzero"/></clipPath><mask id="282cdbb1c1"><g filter="url(#b312208ed6)"><rect x="-73.725" width="884.7" fill="#000000" y="-44.924999" height="539.099994" fill-opacity="0.298"/></g></mask><clipPath id="c47fef3233"><path d="M 0.144531 0.117188 L 106.28125 0.117188 L 106.28125 38.324219 L 0.144531 38.324219 Z M 0.144531 0.117188 " clip-rule="nonzero"/></clipPath><clipPath id="d39e148c91"><rect x="0" width="107" y="0" height="39"/></clipPath><clipPath id="eaa5a52b3e"><path d="M 215.007812 334.898438 L 321.140625 334.898438 L 321.140625 373.109375 L 215.007812 373.109375 Z M 215.007812 334.898438 " clip-rule="nonzero"/></clipPath><mask id="bbe2ba1b6d"><g filter="url(#b312208ed6)"><rect x="-73.725" width="884.7" fill="#000000" y="-44.924999" height="539.099994" fill-opacity="0.498"/></g></mask><clipPath id="5dac4f8bac"><path d="M 0.0078125 0.898438 L 106.140625 0.898438 L 106.140625 39.109375 L 0.0078125 39.109375 Z M 0.0078125 0.898438 " clip-rule="nonzero"/></clipPath><clipPath id="824f82cca9"><rect x="0" width="107" y="0" height="40"/></clipPath><clipPath id="f56a8d3a4d"><path d="M 325.386719 334.898438 L 431.519531 334.898438 L 431.519531 373.109375 L 325.386719 373.109375 Z M 325.386719 334.898438 " clip-rule="nonzero"/></clipPath><mask id="be9230520a"><g filter="url(#b312208ed6)"><rect x="-73.725" width="884.7" fill="#000000" y="-44.924999" height="539.099994" fill-opacity="0.298"/></g></mask><clipPath id="a5c6fe1556"><path d="M 0.386719 0.898438 L 106.519531 0.898438 L 106.519531 39.109375 L 0.386719 39.109375 Z M 0.386719 0.898438 " clip-rule="nonzero"/></clipPath><clipPath id="e44f04c2a4"><rect x="0" width="107" y="0" height="40"/></clipPath><clipPath id="07a96ca474"><path d="M 435.765625 334.898438 L 541.902344 334.898438 L 541.902344 373.109375 L 435.765625 373.109375 Z M 435.765625 334.898438 " clip-rule="nonzero"/></clipPath><mask id="da62f84bde"><g filter="url(#b312208ed6)"><rect x="-73.725" width="884.7" fill="#000000" y="-44.924999" height="539.099994" fill-opacity="0.298"/></g></mask><clipPath id="a510bb1c67"><path d="M 0.765625 0.898438 L 106.902344 0.898438 L 106.902344 39.109375 L 0.765625 39.109375 Z M 0.765625 0.898438 " clip-rule="nonzero"/></clipPath><clipPath id="545782c44f"><rect x="0" width="107" y="0" height="40"/></clipPath><clipPath id="884d79d2ba"><path d="M 546.144531 334.898438 L 652.28125 334.898438 L 652.28125 373.109375 L 546.144531 373.109375 Z M 546.144531 334.898438 " clip-rule="nonzero"/></clipPath><mask id="4fe92840ac"><g filter="url(#b312208ed6)"><rect x="-73.725" width="884.7" fill="#000000" y="-44.924999" height="539.099994" fill-opacity="0.298"/></g></mask><clipPath id="1eda6955b6"><path d="M 0.144531 0.898438 L 106.28125 0.898438 L 106.28125 39.109375 L 0.144531 39.109375 Z M 0.144531 0.898438 " clip-rule="nonzero"/></clipPath><clipPath id="44e0564335"><rect x="0" width="107" y="0" height="40"/></clipPath></defs><g clip-path="url(#2932ca136b)"><path fill="#d9d9d9" d="M 206.363281 75.085938 L 320.921875 75.085938 L 320.921875 116.269531 L 206.363281 116.269531 Z M 206.363281 75.085938 " fill-opacity="1" fill-rule="nonzero"/></g><g clip-path="url(#e45351763e)"><path fill="#d9d9d9" d="M 325.386719 75.085938 L 431.707031 75.085938 L 431.707031 116.269531 L 325.386719 116.269531 Z M 325.386719 75.085938 " fill-opacity="1" fill-rule="nonzero"/></g><g clip-path="url(#cb0cd6efa3)"><path fill="#d9d9d9" d="M 215.007812 120.980469 L 321.328125 120.980469 L 321.328125 159.167969 L 215.007812 159.167969 Z M 215.007812 120.980469 " fill-opacity="1" fill-rule="nonzero"/></g><g clip-path="url(#a8e4a6a6d5)"><path fill="#f2f2f2" d="M 325.386719 120.980469 L 431.707031 120.980469 L 431.707031 159.167969 L 325.386719 159.167969 Z M 325.386719 120.980469 " fill-opacity="1" fill-rule="nonzero"/></g><g clip-path="url(#741a0122de)"><path fill="#d9d9d9" d="M 435.765625 75.085938 L 542.085938 75.085938 L 542.085938 116.269531 L 435.765625 116.269531 Z M 435.765625 75.085938 " fill-opacity="1" fill-rule="nonzero"/></g><g clip-path="url(#9f979a32dd)"><path fill="#d9d9d9" d="M 546.144531 75.085938 L 660.703125 75.085938 L 660.703125 116.269531 L 546.144531 116.269531 Z M 546.144531 75.085938 " fill-opacity="1" fill-rule="nonzero"/></g><g clip-path="url(#78cb704b28)"><path fill="#f2f2f2" d="M 435.765625 120.980469 L 542.085938 120.980469 L 542.085938 159.167969 L 435.765625 159.167969 Z M 435.765625 120.980469 " fill-opacity="1" fill-rule="nonzero"/></g><g clip-path="url(#5f4da95ed4)"><path fill="#f2f2f2" d="M 546.144531 120.980469 L 652.46875 120.980469 L 652.46875 159.167969 L 546.144531 159.167969 Z M 546.144531 120.980469 " fill-opacity="1" fill-rule="nonzero"/></g><g clip-path="url(#5b338ee60f)"><path fill="#d9d9d9" d="M 215.007812 163.765625 L 321.328125 163.765625 L 321.328125 201.953125 L 215.007812 201.953125 Z M 215.007812 163.765625 " fill-opacity="1" fill-rule="nonzero"/></g><g clip-path="url(#12a4e9af20)"><path fill="#f2f2f2" d="M 325.386719 163.765625 L 431.707031 163.765625 L 431.707031 201.953125 L 325.386719 201.953125 Z M 325.386719 163.765625 " fill-opacity="1" fill-rule="nonzero"/></g><g clip-path="url(#d4d87ac5a2)"><path fill="#d9d9d9" d="M 215.007812 206.546875 L 321.328125 206.546875 L 321.328125 244.734375 L 215.007812 244.734375 Z M 215.007812 206.546875 " fill-opacity="1" fill-rule="nonzero"/></g><g clip-path="url(#0057e33cd3)"><path fill="#f2f2f2" d="M 325.386719 206.546875 L 431.707031 206.546875 L 431.707031 244.734375 L 325.386719 244.734375 Z M 325.386719 206.546875 " fill-opacity="1" fill-rule="nonzero"/></g><g clip-path="url(#2db5557eba)"><path fill="#f2f2f2" d="M 435.765625 163.765625 L 542.085938 163.765625 L 542.085938 201.953125 L 435.765625 201.953125 Z M 435.765625 163.765625 " fill-opacity="1" fill-rule="nonzero"/></g><g clip-path="url(#6ffdf8350f)"><path fill="#f2f2f2" d="M 546.144531 163.765625 L 652.46875 163.765625 L 652.46875 201.953125 L 546.144531 201.953125 Z M 546.144531 163.765625 " fill-opacity="1" fill-rule="nonzero"/></g><g clip-path="url(#63398b39cf)"><path fill="#f2f2f2" d="M 435.765625 206.546875 L 542.085938 206.546875 L 542.085938 244.734375 L 435.765625 244.734375 Z M 435.765625 206.546875 " fill-opacity="1" fill-rule="nonzero"/></g><g clip-path="url(#8984402515)"><path fill="#f2f2f2" d="M 546.144531 206.546875 L 652.46875 206.546875 L 652.46875 244.734375 L 546.144531 244.734375 Z M 546.144531 206.546875 " fill-opacity="1" fill-rule="nonzero"/></g><g clip-path="url(#a2b24f3db4)"><g mask="url(#2f2a9d0110)"><g transform="matrix(1, 0, 0, 1, 215, 249)"><g clip-path="url(#2e235e4f87)"><g clip-path="url(#591709fe61)"><path fill="#e60000" d="M 0.0078125 0.332031 L 106.328125 0.332031 L 106.328125 38.519531 L 0.0078125 38.519531 Z M 0.0078125 0.332031 " fill-opacity="1" fill-rule="nonzero"/></g></g></g></g></g><g clip-path="url(#c3f5d384c8)"><g mask="url(#d57630334c)"><g transform="matrix(1, 0, 0, 1, 325, 249)"><g clip-path="url(#52a4c41012)"><g clip-path="url(#c6feec48a3)"><path fill="#e60000" d="M 0.386719 0.332031 L 106.707031 0.332031 L 106.707031 38.519531 L 0.386719 38.519531 Z M 0.386719 0.332031 " fill-opacity="1" fill-rule="nonzero"/></g></g></g></g></g><g clip-path="url(#5e99aa24ac)"><g mask="url(#f3a9645472)"><g transform="matrix(1, 0, 0, 1, 435, 249)"><g clip-path="url(#d0dbaca513)"><g clip-path="url(#ba20ada20a)"><path fill="#e60000" d="M 0.765625 0.332031 L 107.085938 0.332031 L 107.085938 38.519531 L 0.765625 38.519531 Z M 0.765625 0.332031 " fill-opacity="1" fill-rule="nonzero"/></g></g></g></g></g><g clip-path="url(#dbd18442be)"><g mask="url(#06633b64f9)"><g transform="matrix(1, 0, 0, 1, 546, 249)"><g clip-path="url(#b3eaee0a57)"><g clip-path="url(#649bac4d44)"><path fill="#e60000" d="M 0.144531 0.332031 L 106.46875 0.332031 L 106.46875 38.519531 L 0.144531 38.519531 Z M 0.144531 0.332031 " fill-opacity="1" fill-rule="nonzero"/></g></g></g></g></g><g clip-path="url(#39791e1c99)"><g mask="url(#cfe26041eb)"><g transform="matrix(1, 0, 0, 1, 215, 292)"><g clip-path="url(#cdc9b18bab)"><g clip-path="url(#a4f463348d)"><path fill="#e60000" d="M 0.0078125 0.117188 L 106.328125 0.117188 L 106.328125 38.300781 L 0.0078125 38.300781 Z M 0.0078125 0.117188 " fill-opacity="1" fill-rule="nonzero"/></g></g></g></g></g><g clip-path="url(#bebffa3e55)"><g mask="url(#4147f35463)"><g transform="matrix(1, 0, 0, 1, 325, 292)"><g clip-path="url(#6c8c4c3978)"><g clip-path="url(#ddd107d164)"><path fill="#e60000" d="M 0.386719 0.117188 L 106.707031 0.117188 L 106.707031 38.300781 L 0.386719 38.300781 Z M 0.386719 0.117188 " fill-opacity="1" fill-rule="nonzero"/></g></g></g></g></g><g clip-path="url(#110f3a21dc)"><g mask="url(#ec3077af04)"><g transform="matrix(1, 0, 0, 1, 435, 292)"><g clip-path="url(#7b49e28cc6)"><g clip-path="url(#4c5f310b34)"><path fill="#e60000" d="M 0.765625 0.117188 L 107.085938 0.117188 L 107.085938 38.300781 L 0.765625 38.300781 Z M 0.765625 0.117188 " fill-opacity="1" fill-rule="nonzero"/></g></g></g></g></g><g clip-path="url(#6371e7e310)"><g mask="url(#282cdbb1c1)"><g transform="matrix(1, 0, 0, 1, 546, 292)"><g clip-path="url(#d39e148c91)"><g clip-path="url(#c47fef3233)"><path fill="#e60000" d="M 0.144531 0.117188 L 106.46875 0.117188 L 106.46875 38.300781 L 0.144531 38.300781 Z M 0.144531 0.117188 " fill-opacity="1" fill-rule="nonzero"/></g></g></g></g></g><g clip-path="url(#eaa5a52b3e)"><g mask="url(#bbe2ba1b6d)"><g transform="matrix(1, 0, 0, 1, 215, 334)"><g clip-path="url(#824f82cca9)"><g clip-path="url(#5dac4f8bac)"><path fill="#e60000" d="M 0.0078125 0.898438 L 106.328125 0.898438 L 106.328125 39.085938 L 0.0078125 39.085938 Z M 0.0078125 0.898438 " fill-opacity="1" fill-rule="nonzero"/></g></g></g></g></g><g clip-path="url(#f56a8d3a4d)"><g mask="url(#be9230520a)"><g transform="matrix(1, 0, 0, 1, 325, 334)"><g clip-path="url(#e44f04c2a4)"><g clip-path="url(#a5c6fe1556)"><path fill="#e60000" d="M 0.386719 0.898438 L 106.707031 0.898438 L 106.707031 39.085938 L 0.386719 39.085938 Z M 0.386719 0.898438 " fill-opacity="1" fill-rule="nonzero"/></g></g></g></g></g><g clip-path="url(#07a96ca474)"><g mask="url(#da62f84bde)"><g transform="matrix(1, 0, 0, 1, 435, 334)"><g clip-path="url(#545782c44f)"><g clip-path="url(#a510bb1c67)"><path fill="#e60000" d="M 0.765625 0.898438 L 107.085938 0.898438 L 107.085938 39.085938 L 0.765625 39.085938 Z M 0.765625 0.898438 " fill-opacity="1" fill-rule="nonzero"/></g></g></g></g></g><g clip-path="url(#884d79d2ba)"><g mask="url(#4fe92840ac)"><g transform="matrix(1, 0, 0, 1, 546, 334)"><g clip-path="url(#44e0564335)"><g clip-path="url(#1eda6955b6)"><path fill="#e60000" d="M 0.144531 0.898438 L 106.46875 0.898438 L 106.46875 39.085938 L 0.144531 39.085938 Z M 0.144531 0.898438 " fill-opacity="1" fill-rule="nonzero"/></g></g></g></g></g><g fill="#808080" fill-opacity="1"><g transform="translate(80.513589, 319.841571)"><g><path d="M 28.28125 -14.71875 C 28.28125 -11.75 27.695312 -9.144531 26.53125 -6.90625 C 25.375 -4.675781 23.726562 -2.96875 21.59375 -1.78125 C 19.46875 -0.59375 17.015625 0 14.234375 0 L 3.4375 0 L 3.4375 -28.859375 L 12.984375 -28.859375 C 17.867188 -28.859375 21.640625 -27.628906 24.296875 -25.171875 C 26.953125 -22.722656 28.28125 -19.238281 28.28125 -14.71875 Z M 24.34375 -14.71875 C 24.34375 -18.300781 23.363281 -21.03125 21.40625 -22.90625 C 19.445312 -24.78125 16.613281 -25.71875 12.90625 -25.71875 L 7.34375 -25.71875 L 7.34375 -3.140625 L 13.78125 -3.140625 C 15.894531 -3.140625 17.753906 -3.601562 19.359375 -4.53125 C 20.960938 -5.457031 22.191406 -6.789062 23.046875 -8.53125 C 23.910156 -10.28125 24.34375 -12.34375 24.34375 -14.71875 Z M 24.34375 -14.71875 "/></g></g><g transform="translate(110.794091, 319.841571)"><g><path d="M 2.90625 0 L 2.90625 -17 C 2.90625 -18.550781 2.863281 -20.269531 2.78125 -22.15625 L 6.265625 -22.15625 C 6.378906 -19.644531 6.4375 -18.132812 6.4375 -17.625 L 6.515625 -17.625 C 7.097656 -19.53125 7.769531 -20.828125 8.53125 -21.515625 C 9.300781 -22.210938 10.382812 -22.5625 11.78125 -22.5625 C 12.269531 -22.5625 12.765625 -22.492188 13.265625 -22.359375 L 13.265625 -18.984375 C 12.773438 -19.117188 12.117188 -19.1875 11.296875 -19.1875 C 9.773438 -19.1875 8.609375 -18.523438 7.796875 -17.203125 C 6.992188 -15.890625 6.59375 -14.003906 6.59375 -11.546875 L 6.59375 0 Z M 2.90625 0 "/></g></g><g transform="translate(124.757107, 319.841571)"><g><path d="M 21.5625 -11.09375 C 21.5625 -7.21875 20.707031 -4.332031 19 -2.4375 C 17.289062 -0.539062 14.8125 0.40625 11.5625 0.40625 C 8.332031 0.40625 5.890625 -0.578125 4.234375 -2.546875 C 2.585938 -4.523438 1.765625 -7.375 1.765625 -11.09375 C 1.765625 -18.738281 5.070312 -22.5625 11.6875 -22.5625 C 15.070312 -22.5625 17.5625 -21.628906 19.15625 -19.765625 C 20.757812 -17.898438 21.5625 -15.007812 21.5625 -11.09375 Z M 17.6875 -11.09375 C 17.6875 -14.15625 17.234375 -16.378906 16.328125 -17.765625 C 15.421875 -19.148438 13.894531 -19.84375 11.75 -19.84375 C 9.59375 -19.84375 8.03125 -19.132812 7.0625 -17.71875 C 6.101562 -16.3125 5.625 -14.101562 5.625 -11.09375 C 5.625 -8.175781 6.097656 -5.984375 7.046875 -4.515625 C 8.003906 -3.046875 9.5 -2.3125 11.53125 -2.3125 C 13.738281 -2.3125 15.316406 -3.019531 16.265625 -4.4375 C 17.210938 -5.863281 17.6875 -8.082031 17.6875 -11.09375 Z M 17.6875 -11.09375 "/></g></g><g transform="translate(148.076574, 319.841571)"><g><path d="M 21.5625 -11.1875 C 21.5625 -3.457031 18.84375 0.40625 13.40625 0.40625 C 10 0.40625 7.707031 -0.875 6.53125 -3.4375 L 6.4375 -3.4375 C 6.488281 -3.332031 6.515625 -2.171875 6.515625 0.046875 L 6.515625 8.703125 L 2.828125 8.703125 L 2.828125 -17.625 C 2.828125 -19.90625 2.785156 -21.414062 2.703125 -22.15625 L 6.265625 -22.15625 C 6.273438 -22.101562 6.296875 -21.910156 6.328125 -21.578125 C 6.359375 -21.242188 6.390625 -20.726562 6.421875 -20.03125 C 6.453125 -19.332031 6.46875 -18.851562 6.46875 -18.59375 L 6.546875 -18.59375 C 7.203125 -19.957031 8.066406 -20.957031 9.140625 -21.59375 C 10.222656 -22.226562 11.644531 -22.546875 13.40625 -22.546875 C 16.144531 -22.546875 18.1875 -21.628906 19.53125 -19.796875 C 20.882812 -17.972656 21.5625 -15.101562 21.5625 -11.1875 Z M 17.6875 -11.09375 C 17.6875 -14.1875 17.269531 -16.394531 16.4375 -17.71875 C 15.601562 -19.039062 14.28125 -19.703125 12.46875 -19.703125 C 11.007812 -19.703125 9.863281 -19.394531 9.03125 -18.78125 C 8.207031 -18.164062 7.582031 -17.203125 7.15625 -15.890625 C 6.726562 -14.585938 6.515625 -12.894531 6.515625 -10.8125 C 6.515625 -7.90625 6.976562 -5.757812 7.90625 -4.375 C 8.832031 -3 10.34375 -2.3125 12.4375 -2.3125 C 14.257812 -2.3125 15.585938 -2.984375 16.421875 -4.328125 C 17.265625 -5.671875 17.6875 -7.925781 17.6875 -11.09375 Z M 17.6875 -11.09375 "/></g></g><g transform="translate(171.39604, 319.841571)"><g/></g><g transform="translate(183.045536, 319.841571)"><g><path d="M 16.890625 0 L 16.890625 -14.046875 C 16.890625 -15.503906 16.742188 -16.632812 16.453125 -17.4375 C 16.171875 -18.25 15.71875 -18.832031 15.09375 -19.1875 C 14.46875 -19.539062 13.546875 -19.71875 12.328125 -19.71875 C 10.554688 -19.71875 9.15625 -19.109375 8.125 -17.890625 C 7.101562 -16.679688 6.59375 -15 6.59375 -12.84375 L 6.59375 0 L 2.90625 0 L 2.90625 -17.421875 C 2.90625 -20.003906 2.863281 -21.582031 2.78125 -22.15625 L 6.265625 -22.15625 C 6.273438 -22.082031 6.285156 -21.894531 6.296875 -21.59375 C 6.316406 -21.300781 6.335938 -20.957031 6.359375 -20.5625 C 6.378906 -20.175781 6.40625 -19.445312 6.4375 -18.375 L 6.484375 -18.375 C 7.335938 -19.894531 8.316406 -20.972656 9.421875 -21.609375 C 10.535156 -22.242188 11.921875 -22.5625 13.578125 -22.5625 C 16.003906 -22.5625 17.78125 -21.957031 18.90625 -20.75 C 20.03125 -19.539062 20.59375 -17.546875 20.59375 -14.765625 L 20.59375 0 Z M 16.890625 0 "/></g></g></g></svg>