<svg xmlns="http://www.w3.org/2000/svg" xmlns:xlink="http://www.w3.org/1999/xlink" width="1919" zoomAndPan="magnify" viewBox="0 0 1439.25 371.999986" height="496" preserveAspectRatio="xMidYMid meet" version="1.0"><defs><filter x="0%" y="0%" width="100%" height="100%" id="19b1d23544"><feColorMatrix values="0 0 0 0 1 0 0 0 0 1 0 0 0 0 1 0 0 0 1 0" color-interpolation-filters="sRGB"/></filter><g/><clipPath id="48554072c9"><path d="M 75.332031 153.953125 L 262 153.953125 L 262 221.25 L 75.332031 221.25 Z M 75.332031 153.953125 " clip-rule="nonzero"/></clipPath><clipPath id="1426631ae5"><path d="M 271.160156 78.589844 L 458 78.589844 L 458 145.890625 L 271.160156 145.890625 Z M 271.160156 78.589844 " clip-rule="nonzero"/></clipPath><clipPath id="927d247fae"><path d="M 75.332031 229.3125 L 262 229.3125 L 262 296.613281 L 75.332031 296.613281 Z M 75.332031 229.3125 " clip-rule="nonzero"/></clipPath><clipPath id="8313cd14ff"><path d="M 271.160156 229.3125 L 458 229.3125 L 458 296.613281 L 271.160156 296.613281 Z M 271.160156 229.3125 " clip-rule="nonzero"/></clipPath><clipPath id="333e492fe4"><path d="M 466.984375 78.589844 L 653.929688 78.589844 L 653.929688 145.890625 L 466.984375 145.890625 Z M 466.984375 78.589844 " clip-rule="nonzero"/></clipPath><clipPath id="80d9ffe378"><path d="M 466.984375 153.953125 L 653.929688 153.953125 L 653.929688 221.25 L 466.984375 221.25 Z M 466.984375 153.953125 " clip-rule="nonzero"/></clipPath><mask id="e8958f5d22"><g filter="url(#19b1d23544)"><rect x="-143.925" width="1727.1" fill="#000000" y="-37.199999" height="446.399983" fill-opacity="0.498"/></g></mask><clipPath id="6df39bdd28"><path d="M 0.984375 0.953125 L 187.929688 0.953125 L 187.929688 68.25 L 0.984375 68.25 Z M 0.984375 0.953125 " clip-rule="nonzero"/></clipPath><clipPath id="30c271db17"><rect x="0" width="188" y="0" height="69"/></clipPath><clipPath id="2c693d71e6"><path d="M 466.984375 229.3125 L 653.929688 229.3125 L 653.929688 296.613281 L 466.984375 296.613281 Z M 466.984375 229.3125 " clip-rule="nonzero"/></clipPath><clipPath id="71ef3def07"><path d="M 670.679688 153.953125 L 768.878906 153.953125 L 768.878906 216 L 670.679688 216 Z M 670.679688 153.953125 " clip-rule="nonzero"/></clipPath><clipPath id="d87d92ac48"><path d="M 670.679688 169.394531 L 737.554688 169.394531 L 737.554688 153.953125 L 768.4375 184.835938 L 737.554688 215.71875 L 737.554688 200.277344 L 670.679688 200.277344 L 670.679688 169.394531 " clip-rule="nonzero"/></clipPath><mask id="68eb5ebb6b"><g filter="url(#19b1d23544)"><rect x="-143.925" width="1727.1" fill="#000000" y="-37.199999" height="446.399983" fill-opacity="0.4"/></g></mask><clipPath id="09405df84c"><path d="M 0.679688 0.953125 L 98.558594 0.953125 L 98.558594 62.746094 L 0.679688 62.746094 Z M 0.679688 0.953125 " clip-rule="nonzero"/></clipPath><clipPath id="b53a2f9800"><path d="M 0.679688 16.394531 L 67.554688 16.394531 L 67.554688 0.953125 L 98.4375 31.835938 L 67.554688 62.71875 L 67.554688 47.277344 L 0.679688 47.277344 L 0.679688 16.394531 " clip-rule="nonzero"/></clipPath><clipPath id="954eabe92c"><rect x="0" width="99" y="0" height="63"/></clipPath><clipPath id="bddf02c39e"><path d="M 784.703125 150.617188 L 971.648438 150.617188 L 971.648438 217.917969 L 784.703125 217.917969 Z M 784.703125 150.617188 " clip-rule="nonzero"/></clipPath><clipPath id="8346871b0e"><path d="M 980.527344 75.257812 L 1167.472656 75.257812 L 1167.472656 142.558594 L 980.527344 142.558594 Z M 980.527344 75.257812 " clip-rule="nonzero"/></clipPath><clipPath id="0ed4550972"><path d="M 980.527344 150.617188 L 1167.472656 150.617188 L 1167.472656 217.917969 L 980.527344 217.917969 Z M 980.527344 150.617188 " clip-rule="nonzero"/></clipPath><mask id="921ceb7d09"><g filter="url(#19b1d23544)"><rect x="-143.925" width="1727.1" fill="#000000" y="-37.199999" height="446.399983" fill-opacity="0.498"/></g></mask><clipPath id="253579b35f"><path d="M 0.527344 0.617188 L 187.472656 0.617188 L 187.472656 67.917969 L 0.527344 67.917969 Z M 0.527344 0.617188 " clip-rule="nonzero"/></clipPath><clipPath id="fbdc9f1bfa"><rect x="0" width="188" y="0" height="68"/></clipPath><clipPath id="c2d1d006b0"><path d="M 784.703125 225.980469 L 971.648438 225.980469 L 971.648438 293.277344 L 784.703125 293.277344 Z M 784.703125 225.980469 " clip-rule="nonzero"/></clipPath><clipPath id="6df6671c36"><path d="M 980.527344 225.980469 L 1167.472656 225.980469 L 1167.472656 293.277344 L 980.527344 293.277344 Z M 980.527344 225.980469 " clip-rule="nonzero"/></clipPath><clipPath id="a414d8e1ac"><path d="M 1176.355469 75.257812 L 1363.300781 75.257812 L 1363.300781 142.558594 L 1176.355469 142.558594 Z M 1176.355469 75.257812 " clip-rule="nonzero"/></clipPath><clipPath id="6c4c36070f"><path d="M 1176.355469 150.617188 L 1363.300781 150.617188 L 1363.300781 217.917969 L 1176.355469 217.917969 Z M 1176.355469 150.617188 " clip-rule="nonzero"/></clipPath><mask id="da09710076"><g filter="url(#19b1d23544)"><rect x="-143.925" width="1727.1" fill="#000000" y="-37.199999" height="446.399983" fill-opacity="0.498"/></g></mask><clipPath id="61dd7fdb85"><path d="M 0.355469 0.617188 L 187.300781 0.617188 L 187.300781 67.917969 L 0.355469 67.917969 Z M 0.355469 0.617188 " clip-rule="nonzero"/></clipPath><clipPath id="78e05c26ad"><rect x="0" width="188" y="0" height="68"/></clipPath><clipPath id="8594844fd5"><path d="M 1176.355469 225.980469 L 1363.300781 225.980469 L 1363.300781 293.277344 L 1176.355469 293.277344 Z M 1176.355469 225.980469 " clip-rule="nonzero"/></clipPath><clipPath id="dd70017adc"><path d="M 271.160156 153.953125 L 458.105469 153.953125 L 458.105469 221.25 L 271.160156 221.25 Z M 271.160156 153.953125 " clip-rule="nonzero"/></clipPath><mask id="780d846b9e"><g filter="url(#19b1d23544)"><rect x="-143.925" width="1727.1" fill="#000000" y="-37.199999" height="446.399983" fill-opacity="0.498"/></g></mask><clipPath id="d4b231dfa8"><path d="M 0.160156 0.953125 L 187 0.953125 L 187 68.25 L 0.160156 68.25 Z M 0.160156 0.953125 " clip-rule="nonzero"/></clipPath><clipPath id="6ea890ca80"><rect x="0" width="188" y="0" height="69"/></clipPath></defs><g clip-path="url(#48554072c9)"><path fill="#d9d9d9" d="M 75.332031 153.953125 L 261.988281 153.953125 L 261.988281 221.417969 L 75.332031 221.417969 Z M 75.332031 153.953125 " fill-opacity="1" fill-rule="nonzero"/></g><g clip-path="url(#1426631ae5)"><path fill="#d9d9d9" d="M 271.160156 78.589844 L 457.8125 78.589844 L 457.8125 146.054688 L 271.160156 146.054688 Z M 271.160156 78.589844 " fill-opacity="1" fill-rule="nonzero"/></g><g clip-path="url(#927d247fae)"><path fill="#d9d9d9" d="M 75.332031 229.3125 L 261.988281 229.3125 L 261.988281 296.777344 L 75.332031 296.777344 Z M 75.332031 229.3125 " fill-opacity="1" fill-rule="nonzero"/></g><g clip-path="url(#8313cd14ff)"><path fill="#f2f2f2" d="M 271.160156 229.3125 L 457.8125 229.3125 L 457.8125 296.777344 L 271.160156 296.777344 Z M 271.160156 229.3125 " fill-opacity="1" fill-rule="nonzero"/></g><g clip-path="url(#333e492fe4)"><path fill="#d9d9d9" d="M 466.984375 78.589844 L 653.636719 78.589844 L 653.636719 146.054688 L 466.984375 146.054688 Z M 466.984375 78.589844 " fill-opacity="1" fill-rule="nonzero"/></g><g clip-path="url(#80d9ffe378)"><g mask="url(#e8958f5d22)"><g transform="matrix(1, 0, 0, 1, 466, 153)"><g clip-path="url(#30c271db17)"><g clip-path="url(#6df39bdd28)"><path fill="#ffc000" d="M 0.984375 0.953125 L 187.636719 0.953125 L 187.636719 68.417969 L 0.984375 68.417969 Z M 0.984375 0.953125 " fill-opacity="1" fill-rule="nonzero"/></g></g></g></g></g><g fill="#808080" fill-opacity="1"><g transform="translate(552.95595, 197.42923)"><g><path d="M 1.203125 0 L 1.203125 -2.90625 L 8.65625 -12.875 L 1.796875 -12.875 L 1.796875 -15.84375 L 13.1875 -15.84375 L 13.1875 -12.90625 L 5.78125 -3 L 13.90625 -3 L 13.90625 0 Z M 1.203125 0 "/></g></g></g><g clip-path="url(#2c693d71e6)"><path fill="#f2f2f2" d="M 466.984375 229.3125 L 653.636719 229.3125 L 653.636719 296.777344 L 466.984375 296.777344 Z M 466.984375 229.3125 " fill-opacity="1" fill-rule="nonzero"/></g><g clip-path="url(#71ef3def07)"><g clip-path="url(#d87d92ac48)"><g mask="url(#68eb5ebb6b)"><g transform="matrix(1, 0, 0, 1, 670, 153)"><g clip-path="url(#954eabe92c)"><g clip-path="url(#09405df84c)"><g clip-path="url(#b53a2f9800)"><path fill="#03e313" d="M 0.679688 0.953125 L 98.128906 0.953125 L 98.128906 62.417969 L 0.679688 62.417969 Z M 0.679688 0.953125 " fill-opacity="1" fill-rule="nonzero"/></g></g></g></g></g></g></g><g clip-path="url(#bddf02c39e)"><path fill="#d9d9d9" d="M 784.703125 150.617188 L 971.355469 150.617188 L 971.355469 218.082031 L 784.703125 218.082031 Z M 784.703125 150.617188 " fill-opacity="1" fill-rule="nonzero"/></g><g clip-path="url(#8346871b0e)"><path fill="#d9d9d9" d="M 980.527344 75.257812 L 1167.179688 75.257812 L 1167.179688 142.722656 L 980.527344 142.722656 Z M 980.527344 75.257812 " fill-opacity="1" fill-rule="nonzero"/></g><g clip-path="url(#0ed4550972)"><g mask="url(#921ceb7d09)"><g transform="matrix(1, 0, 0, 1, 980, 150)"><g clip-path="url(#fbdc9f1bfa)"><g clip-path="url(#253579b35f)"><path fill="#03e313" d="M 0.527344 0.617188 L 187.179688 0.617188 L 187.179688 68.082031 L 0.527344 68.082031 Z M 0.527344 0.617188 " fill-opacity="1" fill-rule="nonzero"/></g></g></g></g></g><g fill="#808080" fill-opacity="1"><g transform="translate(1065.668065, 194.095766)"><g><path d="M 1.890625 0 L 1.890625 -3.0625 L 7 -3.0625 L 7 -17.125 L 2.046875 -14.046875 L 2.046875 -17.28125 L 7.21875 -20.625 L 11.109375 -20.625 L 11.109375 -3.0625 L 15.84375 -3.0625 L 15.84375 0 Z M 1.890625 0 "/></g></g></g><g clip-path="url(#c2d1d006b0)"><path fill="#d9d9d9" d="M 784.703125 225.980469 L 971.355469 225.980469 L 971.355469 293.445312 L 784.703125 293.445312 Z M 784.703125 225.980469 " fill-opacity="1" fill-rule="nonzero"/></g><g clip-path="url(#6df6671c36)"><path fill="#f2f2f2" d="M 980.527344 225.980469 L 1167.179688 225.980469 L 1167.179688 293.445312 L 980.527344 293.445312 Z M 980.527344 225.980469 " fill-opacity="1" fill-rule="nonzero"/></g><g clip-path="url(#a414d8e1ac)"><path fill="#d9d9d9" d="M 1176.355469 75.257812 L 1363.007812 75.257812 L 1363.007812 142.722656 L 1176.355469 142.722656 Z M 1176.355469 75.257812 " fill-opacity="1" fill-rule="nonzero"/></g><g clip-path="url(#6c4c36070f)"><g mask="url(#da09710076)"><g transform="matrix(1, 0, 0, 1, 1176, 150)"><g clip-path="url(#78e05c26ad)"><g clip-path="url(#61dd7fdb85)"><path fill="#03e313" d="M 0.355469 0.617188 L 187.007812 0.617188 L 187.007812 68.082031 L 0.355469 68.082031 Z M 0.355469 0.617188 " fill-opacity="1" fill-rule="nonzero"/></g></g></g></g></g><g fill="#808080" fill-opacity="1"><g transform="translate(1253.154159, 194.095766)"><g><path d="M 1.046875 0 L 1.046875 -2.859375 C 1.578125 -4.035156 2.335938 -5.1875 3.328125 -6.3125 C 4.316406 -7.4375 5.566406 -8.609375 7.078125 -9.828125 C 8.515625 -10.992188 9.523438 -11.957031 10.109375 -12.71875 C 10.691406 -13.476562 10.984375 -14.226562 10.984375 -14.96875 C 10.984375 -16.757812 10.078125 -17.65625 8.265625 -17.65625 C 7.390625 -17.65625 6.71875 -17.414062 6.25 -16.9375 C 5.789062 -16.46875 5.492188 -15.757812 5.359375 -14.8125 L 1.21875 -15.046875 C 1.445312 -16.960938 2.160156 -18.421875 3.359375 -19.421875 C 4.554688 -20.429688 6.1875 -20.9375 8.25 -20.9375 C 10.46875 -20.9375 12.171875 -20.425781 13.359375 -19.40625 C 14.554688 -18.394531 15.15625 -16.972656 15.15625 -15.140625 C 15.15625 -14.171875 14.960938 -13.296875 14.578125 -12.515625 C 14.203125 -11.734375 13.710938 -11.015625 13.109375 -10.359375 C 12.515625 -9.703125 11.851562 -9.082031 11.125 -8.5 C 10.40625 -7.925781 9.703125 -7.363281 9.015625 -6.8125 C 8.335938 -6.269531 7.71875 -5.71875 7.15625 -5.15625 C 6.59375 -4.601562 6.175781 -4.007812 5.90625 -3.375 L 15.46875 -3.375 L 15.46875 0 Z M 1.046875 0 "/></g></g><g transform="translate(1269.830039, 194.095766)"><g><path d="M 15.59375 -6.75 C 15.59375 -4.550781 14.976562 -2.828125 13.75 -1.578125 C 12.519531 -0.328125 10.820312 0.296875 8.65625 0.296875 C 6.21875 0.296875 4.347656 -0.550781 3.046875 -2.25 C 1.742188 -3.957031 1.09375 -6.488281 1.09375 -9.84375 C 1.09375 -13.519531 1.753906 -16.285156 3.078125 -18.140625 C 4.398438 -20.003906 6.289062 -20.9375 8.75 -20.9375 C 10.5 -20.9375 11.878906 -20.550781 12.890625 -19.78125 C 13.898438 -19.007812 14.613281 -17.8125 15.03125 -16.1875 L 11.15625 -15.65625 C 10.78125 -17.007812 9.953125 -17.6875 8.671875 -17.6875 C 7.566406 -17.6875 6.695312 -17.132812 6.0625 -16.03125 C 5.4375 -14.925781 5.125 -13.253906 5.125 -11.015625 C 5.5625 -11.742188 6.171875 -12.300781 6.953125 -12.6875 C 7.734375 -13.082031 8.617188 -13.28125 9.609375 -13.28125 C 11.453125 -13.28125 12.910156 -12.691406 13.984375 -11.515625 C 15.054688 -10.347656 15.59375 -8.757812 15.59375 -6.75 Z M 11.46875 -6.625 C 11.46875 -7.800781 11.195312 -8.695312 10.65625 -9.3125 C 10.113281 -9.9375 9.367188 -10.25 8.421875 -10.25 C 7.515625 -10.25 6.785156 -9.957031 6.234375 -9.375 C 5.691406 -8.789062 5.421875 -8.023438 5.421875 -7.078125 C 5.421875 -5.867188 5.703125 -4.867188 6.265625 -4.078125 C 6.835938 -3.296875 7.585938 -2.90625 8.515625 -2.90625 C 9.441406 -2.90625 10.164062 -3.234375 10.6875 -3.890625 C 11.207031 -4.554688 11.46875 -5.46875 11.46875 -6.625 Z M 11.46875 -6.625 "/></g></g></g><g clip-path="url(#8594844fd5)"><path fill="#f2f2f2" d="M 1176.355469 225.980469 L 1363.007812 225.980469 L 1363.007812 293.445312 L 1176.355469 293.445312 Z M 1176.355469 225.980469 " fill-opacity="1" fill-rule="nonzero"/></g><g clip-path="url(#dd70017adc)"><g mask="url(#780d846b9e)"><g transform="matrix(1, 0, 0, 1, 271, 153)"><g clip-path="url(#6ea890ca80)"><g clip-path="url(#d4b231dfa8)"><path fill="#ffc000" d="M 0.160156 0.953125 L 186.8125 0.953125 L 186.8125 68.417969 L 0.160156 68.417969 Z M 0.160156 0.953125 " fill-opacity="1" fill-rule="nonzero"/></g></g></g></g></g><g fill="#808080" fill-opacity="1"><g transform="translate(356.298662, 197.42923)"><g><path d="M 5.75 0.296875 C 4.21875 0.296875 3.019531 -0.117188 2.15625 -0.953125 C 1.300781 -1.785156 0.875 -2.960938 0.875 -4.484375 C 0.875 -6.117188 1.40625 -7.363281 2.46875 -8.21875 C 3.539062 -9.082031 5.09375 -9.523438 7.125 -9.546875 L 10.546875 -9.609375 L 10.546875 -10.40625 C 10.546875 -11.445312 10.363281 -12.21875 10 -12.71875 C 9.632812 -13.21875 9.046875 -13.46875 8.234375 -13.46875 C 7.472656 -13.46875 6.910156 -13.296875 6.546875 -12.953125 C 6.191406 -12.609375 5.972656 -12.035156 5.890625 -11.234375 L 1.59375 -11.4375 C 1.851562 -12.976562 2.554688 -14.144531 3.703125 -14.9375 C 4.859375 -15.738281 6.425781 -16.140625 8.40625 -16.140625 C 10.40625 -16.140625 11.945312 -15.644531 13.03125 -14.65625 C 14.113281 -13.664062 14.65625 -12.265625 14.65625 -10.453125 L 14.65625 -4.6875 C 14.65625 -3.800781 14.753906 -3.1875 14.953125 -2.84375 C 15.148438 -2.507812 15.484375 -2.34375 15.953125 -2.34375 C 16.265625 -2.34375 16.566406 -2.375 16.859375 -2.4375 L 16.859375 -0.203125 C 16.617188 -0.140625 16.398438 -0.0820312 16.203125 -0.03125 C 16.015625 0.0078125 15.820312 0.0390625 15.625 0.0625 C 15.425781 0.09375 15.21875 0.117188 15 0.140625 C 14.78125 0.160156 14.523438 0.171875 14.234375 0.171875 C 13.191406 0.171875 12.425781 -0.078125 11.9375 -0.578125 C 11.445312 -1.085938 11.148438 -1.835938 11.046875 -2.828125 L 10.96875 -2.828125 C 9.8125 -0.742188 8.070312 0.296875 5.75 0.296875 Z M 10.546875 -7.328125 L 8.4375 -7.3125 C 7.476562 -7.269531 6.796875 -7.160156 6.390625 -6.984375 C 5.992188 -6.816406 5.691406 -6.554688 5.484375 -6.203125 C 5.273438 -5.859375 5.171875 -5.390625 5.171875 -4.796875 C 5.171875 -4.046875 5.34375 -3.488281 5.6875 -3.125 C 6.03125 -2.757812 6.492188 -2.578125 7.078125 -2.578125 C 7.710938 -2.578125 8.296875 -2.75 8.828125 -3.09375 C 9.367188 -3.445312 9.789062 -3.929688 10.09375 -4.546875 C 10.394531 -5.171875 10.546875 -5.832031 10.546875 -6.53125 Z M 10.546875 -7.328125 "/></g></g></g></svg>