<svg xmlns="http://www.w3.org/2000/svg" xmlns:xlink="http://www.w3.org/1999/xlink" width="1412" zoomAndPan="magnify" viewBox="0 0 1059 443.999984" height="592" preserveAspectRatio="xMidYMid meet" version="1.0"><defs><filter x="0%" y="0%" width="100%" height="100%" id="9915e2ed0a"><feColorMatrix values="0 0 0 0 1 0 0 0 0 1 0 0 0 0 1 0 0 0 1 0" color-interpolation-filters="sRGB"/></filter><g/><clipPath id="3c73f29cde"><path d="M 75.53125 150.601562 L 262.574219 150.601562 L 262.574219 217.933594 L 75.53125 217.933594 Z M 75.53125 150.601562 " clip-rule="nonzero"/></clipPath><clipPath id="c15d87c109"><path d="M 271.460938 75.199219 L 458.503906 75.199219 L 458.503906 142.535156 L 271.460938 142.535156 Z M 271.460938 75.199219 " clip-rule="nonzero"/></clipPath><clipPath id="d5427b6216"><path d="M 75.53125 226 L 262.574219 226 L 262.574219 293.335938 L 75.53125 293.335938 Z M 75.53125 226 " clip-rule="nonzero"/></clipPath><clipPath id="5caee4aa19"><path d="M 271.460938 226 L 458.503906 226 L 458.503906 293.335938 L 271.460938 293.335938 Z M 271.460938 226 " clip-rule="nonzero"/></clipPath><mask id="e0261ceb66"><g filter="url(#9915e2ed0a)"><rect x="-105.9" width="1270.8" fill="#000000" y="-44.399998" height="532.79998" fill-opacity="0.498"/></g></mask><clipPath id="ba7625df94"><path d="M 0.460938 0 L 187.503906 0 L 187.503906 67.335938 L 0.460938 67.335938 Z M 0.460938 0 " clip-rule="nonzero"/></clipPath><clipPath id="d36e98a0bb"><rect x="0" width="188" y="0" height="68"/></clipPath><clipPath id="ce5e8824c1"><path d="M 486.53125 153.933594 L 584.78125 153.933594 L 584.78125 216 L 486.53125 216 Z M 486.53125 153.933594 " clip-rule="nonzero"/></clipPath><clipPath id="4d09eb81bb"><path d="M 486.53125 169.386719 L 553.4375 169.386719 L 553.4375 153.933594 L 584.335938 184.835938 L 553.4375 215.734375 L 553.4375 200.285156 L 486.53125 200.285156 L 486.53125 169.386719 " clip-rule="nonzero"/></clipPath><mask id="3af4f7f163"><g filter="url(#9915e2ed0a)"><rect x="-105.9" width="1270.8" fill="#000000" y="-44.399998" height="532.79998" fill-opacity="0.4"/></g></mask><clipPath id="49680090e1"><path d="M 0.53125 0.933594 L 98.398438 0.933594 L 98.398438 62.761719 L 0.53125 62.761719 Z M 0.53125 0.933594 " clip-rule="nonzero"/></clipPath><clipPath id="1c1fcd149f"><path d="M 0.53125 16.386719 L 67.4375 16.386719 L 67.4375 0.933594 L 98.335938 31.835938 L 67.4375 62.734375 L 67.4375 47.285156 L 0.53125 47.285156 L 0.53125 16.386719 " clip-rule="nonzero"/></clipPath><clipPath id="26cd8dfb74"><rect x="0" width="99" y="0" height="63"/></clipPath><clipPath id="a04e12b4d1"><path d="M 600.613281 150.601562 L 787.65625 150.601562 L 787.65625 217.933594 L 600.613281 217.933594 Z M 600.613281 150.601562 " clip-rule="nonzero"/></clipPath><clipPath id="c89b670b9b"><path d="M 796.539062 75.199219 L 983.582031 75.199219 L 983.582031 142.535156 L 796.539062 142.535156 Z M 796.539062 75.199219 " clip-rule="nonzero"/></clipPath><clipPath id="124642ce47"><path d="M 796.539062 150.601562 L 983.582031 150.601562 L 983.582031 217.933594 L 796.539062 217.933594 Z M 796.539062 150.601562 " clip-rule="nonzero"/></clipPath><mask id="86d3f3d376"><g filter="url(#9915e2ed0a)"><rect x="-105.9" width="1270.8" fill="#000000" y="-44.399998" height="532.79998" fill-opacity="0.498"/></g></mask><clipPath id="b85c289f3b"><path d="M 0.539062 0.601562 L 187.582031 0.601562 L 187.582031 67.933594 L 0.539062 67.933594 Z M 0.539062 0.601562 " clip-rule="nonzero"/></clipPath><clipPath id="5e3669b0e2"><rect x="0" width="188" y="0" height="68"/></clipPath><clipPath id="31431cfbf7"><path d="M 600.613281 226 L 787.65625 226 L 787.65625 293.335938 L 600.613281 293.335938 Z M 600.613281 226 " clip-rule="nonzero"/></clipPath><clipPath id="c749ea090b"><path d="M 796.539062 226 L 983.582031 226 L 983.582031 293.335938 L 796.539062 293.335938 Z M 796.539062 226 " clip-rule="nonzero"/></clipPath><mask id="937c11000c"><g filter="url(#9915e2ed0a)"><rect x="-105.9" width="1270.8" fill="#000000" y="-44.399998" height="532.79998" fill-opacity="0.498"/></g></mask><clipPath id="33dbbb2397"><path d="M 0.539062 0 L 187.582031 0 L 187.582031 67.335938 L 0.539062 67.335938 Z M 0.539062 0 " clip-rule="nonzero"/></clipPath><clipPath id="4107d4b6ad"><rect x="0" width="188" y="0" height="68"/></clipPath><clipPath id="e96ba420ad"><path d="M 271.460938 150.601562 L 458.503906 150.601562 L 458.503906 217.933594 L 271.460938 217.933594 Z M 271.460938 150.601562 " clip-rule="nonzero"/></clipPath><mask id="60a9bcaa6d"><g filter="url(#9915e2ed0a)"><rect x="-105.9" width="1270.8" fill="#000000" y="-44.399998" height="532.79998" fill-opacity="0.498"/></g></mask><clipPath id="a5a86a2a9c"><path d="M 0.460938 0.601562 L 187.503906 0.601562 L 187.503906 67.933594 L 0.460938 67.933594 Z M 0.460938 0.601562 " clip-rule="nonzero"/></clipPath><clipPath id="eefb46ebf2"><rect x="0" width="188" y="0" height="68"/></clipPath><clipPath id="a52961e968"><path d="M 796.042969 301.398438 L 983 301.398438 L 983 368.734375 L 796.042969 368.734375 Z M 796.042969 301.398438 " clip-rule="nonzero"/></clipPath><clipPath id="21c1949b8e"><path d="M 75.53125 301.398438 L 262.574219 301.398438 L 262.574219 368.734375 L 75.53125 368.734375 Z M 75.53125 301.398438 " clip-rule="nonzero"/></clipPath><clipPath id="e6e7da080d"><path d="M 271.460938 301.398438 L 458.503906 301.398438 L 458.503906 368.734375 L 271.460938 368.734375 Z M 271.460938 301.398438 " clip-rule="nonzero"/></clipPath><mask id="728089bb42"><g filter="url(#9915e2ed0a)"><rect x="-105.9" width="1270.8" fill="#000000" y="-44.399998" height="532.79998" fill-opacity="0.498"/></g></mask><clipPath id="6d915c81e2"><path d="M 0.460938 0.398438 L 187.503906 0.398438 L 187.503906 67.734375 L 0.460938 67.734375 Z M 0.460938 0.398438 " clip-rule="nonzero"/></clipPath><clipPath id="42d38f2c8e"><rect x="0" width="188" y="0" height="68"/></clipPath><clipPath id="112eee57ab"><path d="M 600.613281 301.398438 L 787.65625 301.398438 L 787.65625 368.734375 L 600.613281 368.734375 Z M 600.613281 301.398438 " clip-rule="nonzero"/></clipPath></defs><g clip-path="url(#3c73f29cde)"><path fill="#d9d9d9" d="M 75.53125 150.601562 L 262.28125 150.601562 L 262.28125 218.101562 L 75.53125 218.101562 Z M 75.53125 150.601562 " fill-opacity="1" fill-rule="nonzero"/></g><g clip-path="url(#c15d87c109)"><path fill="#d9d9d9" d="M 271.460938 75.199219 L 458.210938 75.199219 L 458.210938 142.699219 L 271.460938 142.699219 Z M 271.460938 75.199219 " fill-opacity="1" fill-rule="nonzero"/></g><g clip-path="url(#d5427b6216)"><path fill="#d9d9d9" d="M 75.53125 226 L 262.28125 226 L 262.28125 293.5 L 75.53125 293.5 Z M 75.53125 226 " fill-opacity="1" fill-rule="nonzero"/></g><g clip-path="url(#5caee4aa19)"><g mask="url(#e0261ceb66)"><g transform="matrix(1, 0, 0, 1, 271, 226)"><g clip-path="url(#d36e98a0bb)"><g clip-path="url(#ba7625df94)"><path fill="#ffc000" d="M 0.460938 0 L 187.210938 0 L 187.210938 67.5 L 0.460938 67.5 Z M 0.460938 0 " fill-opacity="1" fill-rule="nonzero"/></g></g></g></g></g><g fill="#808080" fill-opacity="1"><g transform="translate(348.300137, 269.499778)"><g><path d="M 1.046875 0 L 1.046875 -2.859375 C 1.578125 -4.035156 2.335938 -5.1875 3.328125 -6.3125 C 4.316406 -7.4375 5.566406 -8.609375 7.078125 -9.828125 C 8.523438 -11.003906 9.535156 -11.972656 10.109375 -12.734375 C 10.691406 -13.492188 10.984375 -14.238281 10.984375 -14.96875 C 10.984375 -16.769531 10.082031 -17.671875 8.28125 -17.671875 C 7.394531 -17.671875 6.71875 -17.429688 6.25 -16.953125 C 5.789062 -16.484375 5.492188 -15.773438 5.359375 -14.828125 L 1.21875 -15.0625 C 1.445312 -16.976562 2.160156 -18.4375 3.359375 -19.4375 C 4.554688 -20.445312 6.1875 -20.953125 8.25 -20.953125 C 10.476562 -20.953125 12.1875 -20.441406 13.375 -19.421875 C 14.5625 -18.410156 15.15625 -16.984375 15.15625 -15.140625 C 15.15625 -14.179688 14.960938 -13.3125 14.578125 -12.53125 C 14.203125 -11.75 13.71875 -11.023438 13.125 -10.359375 C 12.53125 -9.703125 11.867188 -9.082031 11.140625 -8.5 C 10.410156 -7.925781 9.703125 -7.363281 9.015625 -6.8125 C 8.335938 -6.269531 7.71875 -5.722656 7.15625 -5.171875 C 6.59375 -4.617188 6.175781 -4.023438 5.90625 -3.390625 L 15.484375 -3.390625 L 15.484375 0 Z M 1.046875 0 "/></g></g><g transform="translate(364.984706, 269.499778)"><g><path d="M 1.046875 0 L 1.046875 -2.859375 C 1.578125 -4.035156 2.335938 -5.1875 3.328125 -6.3125 C 4.316406 -7.4375 5.566406 -8.609375 7.078125 -9.828125 C 8.523438 -11.003906 9.535156 -11.972656 10.109375 -12.734375 C 10.691406 -13.492188 10.984375 -14.238281 10.984375 -14.96875 C 10.984375 -16.769531 10.082031 -17.671875 8.28125 -17.671875 C 7.394531 -17.671875 6.71875 -17.429688 6.25 -16.953125 C 5.789062 -16.484375 5.492188 -15.773438 5.359375 -14.828125 L 1.21875 -15.0625 C 1.445312 -16.976562 2.160156 -18.4375 3.359375 -19.4375 C 4.554688 -20.445312 6.1875 -20.953125 8.25 -20.953125 C 10.476562 -20.953125 12.1875 -20.441406 13.375 -19.421875 C 14.5625 -18.410156 15.15625 -16.984375 15.15625 -15.140625 C 15.15625 -14.179688 14.960938 -13.3125 14.578125 -12.53125 C 14.203125 -11.75 13.71875 -11.023438 13.125 -10.359375 C 12.53125 -9.703125 11.867188 -9.082031 11.140625 -8.5 C 10.410156 -7.925781 9.703125 -7.363281 9.015625 -6.8125 C 8.335938 -6.269531 7.71875 -5.722656 7.15625 -5.171875 C 6.59375 -4.617188 6.175781 -4.023438 5.90625 -3.390625 L 15.484375 -3.390625 L 15.484375 0 Z M 1.046875 0 "/></g></g></g><g clip-path="url(#ce5e8824c1)"><g clip-path="url(#4d09eb81bb)"><g mask="url(#3af4f7f163)"><g transform="matrix(1, 0, 0, 1, 486, 153)"><g clip-path="url(#26cd8dfb74)"><g clip-path="url(#49680090e1)"><g clip-path="url(#1c1fcd149f)"><path fill="#03e313" d="M 0.53125 0.933594 L 98.03125 0.933594 L 98.03125 62.433594 L 0.53125 62.433594 Z M 0.53125 0.933594 " fill-opacity="1" fill-rule="nonzero"/></g></g></g></g></g></g></g><g clip-path="url(#a04e12b4d1)"><path fill="#d9d9d9" d="M 600.613281 150.601562 L 787.363281 150.601562 L 787.363281 218.101562 L 600.613281 218.101562 Z M 600.613281 150.601562 " fill-opacity="1" fill-rule="nonzero"/></g><g clip-path="url(#c89b670b9b)"><path fill="#d9d9d9" d="M 796.539062 75.199219 L 983.289062 75.199219 L 983.289062 142.699219 L 796.539062 142.699219 Z M 796.539062 75.199219 " fill-opacity="1" fill-rule="nonzero"/></g><g clip-path="url(#124642ce47)"><g mask="url(#86d3f3d376)"><g transform="matrix(1, 0, 0, 1, 796, 150)"><g clip-path="url(#5e3669b0e2)"><g clip-path="url(#b85c289f3b)"><path fill="#03e313" d="M 0.539062 0.601562 L 187.289062 0.601562 L 187.289062 68.101562 L 0.539062 68.101562 Z M 0.539062 0.601562 " fill-opacity="1" fill-rule="nonzero"/></g></g></g></g></g><g fill="#808080" fill-opacity="1"><g transform="translate(881.723384, 194.099985)"><g><path d="M 1.890625 0 L 1.890625 -3.0625 L 7 -3.0625 L 7 -17.140625 L 2.046875 -14.046875 L 2.046875 -17.28125 L 7.21875 -20.640625 L 11.125 -20.640625 L 11.125 -3.0625 L 15.84375 -3.0625 L 15.84375 0 Z M 1.890625 0 "/></g></g></g><g clip-path="url(#31431cfbf7)"><path fill="#d9d9d9" d="M 600.613281 226 L 787.363281 226 L 787.363281 293.5 L 600.613281 293.5 Z M 600.613281 226 " fill-opacity="1" fill-rule="nonzero"/></g><g clip-path="url(#c749ea090b)"><g mask="url(#937c11000c)"><g transform="matrix(1, 0, 0, 1, 796, 226)"><g clip-path="url(#4107d4b6ad)"><g clip-path="url(#33dbbb2397)"><path fill="#03e313" d="M 0.539062 0 L 187.289062 0 L 187.289062 67.5 L 0.539062 67.5 Z M 0.539062 0 " fill-opacity="1" fill-rule="nonzero"/></g></g></g></g></g><g fill="#808080" fill-opacity="1"><g transform="translate(873.379635, 269.499778)"><g><path d="M 1.046875 0 L 1.046875 -2.859375 C 1.578125 -4.035156 2.335938 -5.1875 3.328125 -6.3125 C 4.316406 -7.4375 5.566406 -8.609375 7.078125 -9.828125 C 8.523438 -11.003906 9.535156 -11.972656 10.109375 -12.734375 C 10.691406 -13.492188 10.984375 -14.238281 10.984375 -14.96875 C 10.984375 -16.769531 10.082031 -17.671875 8.28125 -17.671875 C 7.394531 -17.671875 6.71875 -17.429688 6.25 -16.953125 C 5.789062 -16.484375 5.492188 -15.773438 5.359375 -14.828125 L 1.21875 -15.0625 C 1.445312 -16.976562 2.160156 -18.4375 3.359375 -19.4375 C 4.554688 -20.445312 6.1875 -20.953125 8.25 -20.953125 C 10.476562 -20.953125 12.1875 -20.441406 13.375 -19.421875 C 14.5625 -18.410156 15.15625 -16.984375 15.15625 -15.140625 C 15.15625 -14.179688 14.960938 -13.3125 14.578125 -12.53125 C 14.203125 -11.75 13.71875 -11.023438 13.125 -10.359375 C 12.53125 -9.703125 11.867188 -9.082031 11.140625 -8.5 C 10.410156 -7.925781 9.703125 -7.363281 9.015625 -6.8125 C 8.335938 -6.269531 7.71875 -5.722656 7.15625 -5.171875 C 6.59375 -4.617188 6.175781 -4.023438 5.90625 -3.390625 L 15.484375 -3.390625 L 15.484375 0 Z M 1.046875 0 "/></g></g><g transform="translate(890.064204, 269.499778)"><g><path d="M 1.046875 0 L 1.046875 -2.859375 C 1.578125 -4.035156 2.335938 -5.1875 3.328125 -6.3125 C 4.316406 -7.4375 5.566406 -8.609375 7.078125 -9.828125 C 8.523438 -11.003906 9.535156 -11.972656 10.109375 -12.734375 C 10.691406 -13.492188 10.984375 -14.238281 10.984375 -14.96875 C 10.984375 -16.769531 10.082031 -17.671875 8.28125 -17.671875 C 7.394531 -17.671875 6.71875 -17.429688 6.25 -16.953125 C 5.789062 -16.484375 5.492188 -15.773438 5.359375 -14.828125 L 1.21875 -15.0625 C 1.445312 -16.976562 2.160156 -18.4375 3.359375 -19.4375 C 4.554688 -20.445312 6.1875 -20.953125 8.25 -20.953125 C 10.476562 -20.953125 12.1875 -20.441406 13.375 -19.421875 C 14.5625 -18.410156 15.15625 -16.984375 15.15625 -15.140625 C 15.15625 -14.179688 14.960938 -13.3125 14.578125 -12.53125 C 14.203125 -11.75 13.71875 -11.023438 13.125 -10.359375 C 12.53125 -9.703125 11.867188 -9.082031 11.140625 -8.5 C 10.410156 -7.925781 9.703125 -7.363281 9.015625 -6.8125 C 8.335938 -6.269531 7.71875 -5.722656 7.15625 -5.171875 C 6.59375 -4.617188 6.175781 -4.023438 5.90625 -3.390625 L 15.484375 -3.390625 L 15.484375 0 Z M 1.046875 0 "/></g></g></g><g clip-path="url(#e96ba420ad)"><g mask="url(#60a9bcaa6d)"><g transform="matrix(1, 0, 0, 1, 271, 150)"><g clip-path="url(#eefb46ebf2)"><g clip-path="url(#a5a86a2a9c)"><path fill="#ffc000" d="M 0.460938 0.601562 L 187.210938 0.601562 L 187.210938 68.101562 L 0.460938 68.101562 Z M 0.460938 0.601562 " fill-opacity="1" fill-rule="nonzero"/></g></g></g></g></g><g fill="#808080" fill-opacity="1"><g transform="translate(356.643772, 194.099985)"><g><path d="M 1.890625 0 L 1.890625 -3.0625 L 7 -3.0625 L 7 -17.140625 L 2.046875 -14.046875 L 2.046875 -17.28125 L 7.21875 -20.640625 L 11.125 -20.640625 L 11.125 -3.0625 L 15.84375 -3.0625 L 15.84375 0 Z M 1.890625 0 "/></g></g></g><g clip-path="url(#a52961e968)"><path fill="#f2f2f2" d="M 796.042969 301.398438 L 982.792969 301.398438 L 982.792969 368.898438 L 796.042969 368.898438 Z M 796.042969 301.398438 " fill-opacity="1" fill-rule="nonzero"/></g><g clip-path="url(#21c1949b8e)"><path fill="#d9d9d9" d="M 75.53125 301.398438 L 262.28125 301.398438 L 262.28125 368.898438 L 75.53125 368.898438 Z M 75.53125 301.398438 " fill-opacity="1" fill-rule="nonzero"/></g><g clip-path="url(#e6e7da080d)"><g mask="url(#728089bb42)"><g transform="matrix(1, 0, 0, 1, 271, 301)"><g clip-path="url(#42d38f2c8e)"><g clip-path="url(#6d915c81e2)"><path fill="#ffc000" d="M 0.460938 0.398438 L 187.210938 0.398438 L 187.210938 67.898438 L 0.460938 67.898438 Z M 0.460938 0.398438 " fill-opacity="1" fill-rule="nonzero"/></g></g></g></g></g><g fill="#808080" fill-opacity="1"><g transform="translate(348.300137, 344.899574)"><g><path d="M 1.046875 0 L 1.046875 -2.859375 C 1.578125 -4.035156 2.335938 -5.1875 3.328125 -6.3125 C 4.316406 -7.4375 5.566406 -8.609375 7.078125 -9.828125 C 8.523438 -11.003906 9.535156 -11.972656 10.109375 -12.734375 C 10.691406 -13.492188 10.984375 -14.238281 10.984375 -14.96875 C 10.984375 -16.769531 10.082031 -17.671875 8.28125 -17.671875 C 7.394531 -17.671875 6.71875 -17.429688 6.25 -16.953125 C 5.789062 -16.484375 5.492188 -15.773438 5.359375 -14.828125 L 1.21875 -15.0625 C 1.445312 -16.976562 2.160156 -18.4375 3.359375 -19.4375 C 4.554688 -20.445312 6.1875 -20.953125 8.25 -20.953125 C 10.476562 -20.953125 12.1875 -20.441406 13.375 -19.421875 C 14.5625 -18.410156 15.15625 -16.984375 15.15625 -15.140625 C 15.15625 -14.179688 14.960938 -13.3125 14.578125 -12.53125 C 14.203125 -11.75 13.71875 -11.023438 13.125 -10.359375 C 12.53125 -9.703125 11.867188 -9.082031 11.140625 -8.5 C 10.410156 -7.925781 9.703125 -7.363281 9.015625 -6.8125 C 8.335938 -6.269531 7.71875 -5.722656 7.15625 -5.171875 C 6.59375 -4.617188 6.175781 -4.023438 5.90625 -3.390625 L 15.484375 -3.390625 L 15.484375 0 Z M 1.046875 0 "/></g></g><g transform="translate(364.984706, 344.899574)"><g><path d="M 1.046875 0 L 1.046875 -2.859375 C 1.578125 -4.035156 2.335938 -5.1875 3.328125 -6.3125 C 4.316406 -7.4375 5.566406 -8.609375 7.078125 -9.828125 C 8.523438 -11.003906 9.535156 -11.972656 10.109375 -12.734375 C 10.691406 -13.492188 10.984375 -14.238281 10.984375 -14.96875 C 10.984375 -16.769531 10.082031 -17.671875 8.28125 -17.671875 C 7.394531 -17.671875 6.71875 -17.429688 6.25 -16.953125 C 5.789062 -16.484375 5.492188 -15.773438 5.359375 -14.828125 L 1.21875 -15.0625 C 1.445312 -16.976562 2.160156 -18.4375 3.359375 -19.4375 C 4.554688 -20.445312 6.1875 -20.953125 8.25 -20.953125 C 10.476562 -20.953125 12.1875 -20.441406 13.375 -19.421875 C 14.5625 -18.410156 15.15625 -16.984375 15.15625 -15.140625 C 15.15625 -14.179688 14.960938 -13.3125 14.578125 -12.53125 C 14.203125 -11.75 13.71875 -11.023438 13.125 -10.359375 C 12.53125 -9.703125 11.867188 -9.082031 11.140625 -8.5 C 10.410156 -7.925781 9.703125 -7.363281 9.015625 -6.8125 C 8.335938 -6.269531 7.71875 -5.722656 7.15625 -5.171875 C 6.59375 -4.617188 6.175781 -4.023438 5.90625 -3.390625 L 15.484375 -3.390625 L 15.484375 0 Z M 1.046875 0 "/></g></g></g><g clip-path="url(#112eee57ab)"><path fill="#d9d9d9" d="M 600.613281 301.398438 L 787.363281 301.398438 L 787.363281 368.898438 L 600.613281 368.898438 Z M 600.613281 301.398438 " fill-opacity="1" fill-rule="nonzero"/></g></svg>