<svg xmlns="http://www.w3.org/2000/svg" xmlns:xlink="http://www.w3.org/1999/xlink" width="877" zoomAndPan="magnify" viewBox="0 0 657.75 449.249995" height="599" preserveAspectRatio="xMidYMid meet" version="1.0"><defs><filter x="0%" y="0%" width="100%" height="100%" id="e9f15e2beb"><feColorMatrix values="0 0 0 0 1 0 0 0 0 1 0 0 0 0 1 0 0 0 1 0" color-interpolation-filters="sRGB"/></filter><g/><clipPath id="158026b3de"><path d="M 127.230469 75.117188 L 242 75.117188 L 242 116.445312 L 127.230469 116.445312 Z M 127.230469 75.117188 " clip-rule="nonzero"/></clipPath><clipPath id="d86208e9d1"><path d="M 246.296875 75.117188 L 352.472656 75.117188 L 352.472656 116.445312 L 246.296875 116.445312 Z M 246.296875 75.117188 " clip-rule="nonzero"/></clipPath><clipPath id="2c345bd01e"><path d="M 135.875 121.027344 L 242.050781 121.027344 L 242.050781 159.25 L 135.875 159.25 Z M 135.875 121.027344 " clip-rule="nonzero"/></clipPath><mask id="3001bc6c9b"><g filter="url(#e9f15e2beb)"><rect x="-65.775" width="789.3" fill="#000000" y="-44.924999" height="539.099994" fill-opacity="0.498"/></g></mask><clipPath id="ebfe072c26"><path d="M 0.875 0.0273438 L 107.050781 0.0273438 L 107.050781 38.25 L 0.875 38.25 Z M 0.875 0.0273438 " clip-rule="nonzero"/></clipPath><clipPath id="2ba1523728"><rect x="0" width="108" y="0" height="39"/></clipPath><clipPath id="d0e04e5dce"><path d="M 246.296875 121.027344 L 352.472656 121.027344 L 352.472656 159.25 L 246.296875 159.25 Z M 246.296875 121.027344 " clip-rule="nonzero"/></clipPath><mask id="51639f583e"><g filter="url(#e9f15e2beb)"><rect x="-65.775" width="789.3" fill="#000000" y="-44.924999" height="539.099994" fill-opacity="0.349"/></g></mask><clipPath id="4c4d0c6f6e"><path d="M 0.296875 0.0273438 L 106.472656 0.0273438 L 106.472656 38.25 L 0.296875 38.25 Z M 0.296875 0.0273438 " clip-rule="nonzero"/></clipPath><clipPath id="40d5fb4b25"><rect x="0" width="107" y="0" height="39"/></clipPath><clipPath id="36f8b37c9c"><path d="M 356.714844 75.117188 L 462.890625 75.117188 L 462.890625 116.445312 L 356.714844 116.445312 Z M 356.714844 75.117188 " clip-rule="nonzero"/></clipPath><clipPath id="e6439bc30f"><path d="M 467.136719 75.117188 L 581.957031 75.117188 L 581.957031 116.445312 L 467.136719 116.445312 Z M 467.136719 75.117188 " clip-rule="nonzero"/></clipPath><clipPath id="6f389fd268"><path d="M 356.714844 121.027344 L 462.890625 121.027344 L 462.890625 159.25 L 356.714844 159.25 Z M 356.714844 121.027344 " clip-rule="nonzero"/></clipPath><mask id="51275d5537"><g filter="url(#e9f15e2beb)"><rect x="-65.775" width="789.3" fill="#000000" y="-44.924999" height="539.099994" fill-opacity="0.349"/></g></mask><clipPath id="c8d6d65091"><path d="M 0.714844 0.0273438 L 106.890625 0.0273438 L 106.890625 38.25 L 0.714844 38.25 Z M 0.714844 0.0273438 " clip-rule="nonzero"/></clipPath><clipPath id="075fc0c659"><rect x="0" width="107" y="0" height="39"/></clipPath><clipPath id="d6d006b544"><path d="M 467.136719 121.027344 L 573.3125 121.027344 L 573.3125 159.25 L 467.136719 159.25 Z M 467.136719 121.027344 " clip-rule="nonzero"/></clipPath><mask id="df87500a67"><g filter="url(#e9f15e2beb)"><rect x="-65.775" width="789.3" fill="#000000" y="-44.924999" height="539.099994" fill-opacity="0.349"/></g></mask><clipPath id="151791014d"><path d="M 0.136719 0.0273438 L 106.3125 0.0273438 L 106.3125 38.25 L 0.136719 38.25 Z M 0.136719 0.0273438 " clip-rule="nonzero"/></clipPath><clipPath id="dd983ebaf3"><rect x="0" width="107" y="0" height="39"/></clipPath><clipPath id="99b1e0b941"><path d="M 135.875 163.828125 L 242.050781 163.828125 L 242.050781 202.050781 L 135.875 202.050781 Z M 135.875 163.828125 " clip-rule="nonzero"/></clipPath><clipPath id="e125e6db88"><path d="M 246.296875 163.828125 L 352.472656 163.828125 L 352.472656 202.050781 L 246.296875 202.050781 Z M 246.296875 163.828125 " clip-rule="nonzero"/></clipPath><clipPath id="9a44cb5218"><path d="M 135.875 206.628906 L 242.050781 206.628906 L 242.050781 244.851562 L 135.875 244.851562 Z M 135.875 206.628906 " clip-rule="nonzero"/></clipPath><mask id="5e2be8605c"><g filter="url(#e9f15e2beb)"><rect x="-65.775" width="789.3" fill="#000000" y="-44.924999" height="539.099994" fill-opacity="0.498"/></g></mask><clipPath id="a3a837b762"><path d="M 0.875 0.628906 L 107.050781 0.628906 L 107.050781 38.851562 L 0.875 38.851562 Z M 0.875 0.628906 " clip-rule="nonzero"/></clipPath><clipPath id="e02c2ea807"><rect x="0" width="108" y="0" height="39"/></clipPath><clipPath id="2d1cbe0f3e"><path d="M 246.296875 206.628906 L 352.472656 206.628906 L 352.472656 244.851562 L 246.296875 244.851562 Z M 246.296875 206.628906 " clip-rule="nonzero"/></clipPath><mask id="d3c31dec0c"><g filter="url(#e9f15e2beb)"><rect x="-65.775" width="789.3" fill="#000000" y="-44.924999" height="539.099994" fill-opacity="0.349"/></g></mask><clipPath id="e873a99006"><path d="M 0.296875 0.628906 L 106.472656 0.628906 L 106.472656 38.851562 L 0.296875 38.851562 Z M 0.296875 0.628906 " clip-rule="nonzero"/></clipPath><clipPath id="6df71abb21"><rect x="0" width="107" y="0" height="39"/></clipPath><clipPath id="6a4edbb7c5"><path d="M 356.714844 163.828125 L 462.890625 163.828125 L 462.890625 202.050781 L 356.714844 202.050781 Z M 356.714844 163.828125 " clip-rule="nonzero"/></clipPath><clipPath id="802d90408e"><path d="M 467.136719 163.828125 L 573.3125 163.828125 L 573.3125 202.050781 L 467.136719 202.050781 Z M 467.136719 163.828125 " clip-rule="nonzero"/></clipPath><clipPath id="c52bda3c4d"><path d="M 356.714844 206.628906 L 462.890625 206.628906 L 462.890625 244.851562 L 356.714844 244.851562 Z M 356.714844 206.628906 " clip-rule="nonzero"/></clipPath><mask id="75a54bce9d"><g filter="url(#e9f15e2beb)"><rect x="-65.775" width="789.3" fill="#000000" y="-44.924999" height="539.099994" fill-opacity="0.349"/></g></mask><clipPath id="f01ea984e9"><path d="M 0.714844 0.628906 L 106.890625 0.628906 L 106.890625 38.851562 L 0.714844 38.851562 Z M 0.714844 0.628906 " clip-rule="nonzero"/></clipPath><clipPath id="c575d7ad41"><rect x="0" width="107" y="0" height="39"/></clipPath><clipPath id="d5f3affebc"><path d="M 467.136719 206.628906 L 573.3125 206.628906 L 573.3125 244.851562 L 467.136719 244.851562 Z M 467.136719 206.628906 " clip-rule="nonzero"/></clipPath><mask id="6a1a7a28d1"><g filter="url(#e9f15e2beb)"><rect x="-65.775" width="789.3" fill="#000000" y="-44.924999" height="539.099994" fill-opacity="0.349"/></g></mask><clipPath id="609f427a02"><path d="M 0.136719 0.628906 L 106.3125 0.628906 L 106.3125 38.851562 L 0.136719 38.851562 Z M 0.136719 0.628906 " clip-rule="nonzero"/></clipPath><clipPath id="301405894e"><rect x="0" width="107" y="0" height="39"/></clipPath><clipPath id="94f94f9c13"><path d="M 135.875 249.425781 L 242.050781 249.425781 L 242.050781 287.648438 L 135.875 287.648438 Z M 135.875 249.425781 " clip-rule="nonzero"/></clipPath><clipPath id="ef137c751e"><path d="M 246.296875 249.425781 L 352.472656 249.425781 L 352.472656 287.648438 L 246.296875 287.648438 Z M 246.296875 249.425781 " clip-rule="nonzero"/></clipPath><clipPath id="6b8c05863a"><path d="M 356.714844 249.425781 L 462.890625 249.425781 L 462.890625 287.648438 L 356.714844 287.648438 Z M 356.714844 249.425781 " clip-rule="nonzero"/></clipPath><clipPath id="acdd1be538"><path d="M 467.136719 249.425781 L 573.3125 249.425781 L 573.3125 287.648438 L 467.136719 287.648438 Z M 467.136719 249.425781 " clip-rule="nonzero"/></clipPath><clipPath id="923bc3f042"><path d="M 135.875 292.226562 L 242.050781 292.226562 L 242.050781 330.449219 L 135.875 330.449219 Z M 135.875 292.226562 " clip-rule="nonzero"/></clipPath><mask id="4235cf0fe8"><g filter="url(#e9f15e2beb)"><rect x="-65.775" width="789.3" fill="#000000" y="-44.924999" height="539.099994" fill-opacity="0.498"/></g></mask><clipPath id="4e4bd4da3a"><path d="M 0.875 0.226562 L 107.050781 0.226562 L 107.050781 38.449219 L 0.875 38.449219 Z M 0.875 0.226562 " clip-rule="nonzero"/></clipPath><clipPath id="df84a7c0ef"><rect x="0" width="108" y="0" height="39"/></clipPath><clipPath id="4e18efe3eb"><path d="M 246.296875 292.226562 L 352.472656 292.226562 L 352.472656 330.449219 L 246.296875 330.449219 Z M 246.296875 292.226562 " clip-rule="nonzero"/></clipPath><mask id="beae08bfaa"><g filter="url(#e9f15e2beb)"><rect x="-65.775" width="789.3" fill="#000000" y="-44.924999" height="539.099994" fill-opacity="0.349"/></g></mask><clipPath id="5092e0b884"><path d="M 0.296875 0.226562 L 106.472656 0.226562 L 106.472656 38.449219 L 0.296875 38.449219 Z M 0.296875 0.226562 " clip-rule="nonzero"/></clipPath><clipPath id="e91cd7d0a8"><rect x="0" width="107" y="0" height="39"/></clipPath><clipPath id="0829de237a"><path d="M 356.714844 292.226562 L 462.890625 292.226562 L 462.890625 330.449219 L 356.714844 330.449219 Z M 356.714844 292.226562 " clip-rule="nonzero"/></clipPath><mask id="ed9ae1d592"><g filter="url(#e9f15e2beb)"><rect x="-65.775" width="789.3" fill="#000000" y="-44.924999" height="539.099994" fill-opacity="0.349"/></g></mask><clipPath id="5848012b5e"><path d="M 0.714844 0.226562 L 106.890625 0.226562 L 106.890625 38.449219 L 0.714844 38.449219 Z M 0.714844 0.226562 " clip-rule="nonzero"/></clipPath><clipPath id="4286669f84"><rect x="0" width="107" y="0" height="39"/></clipPath><clipPath id="58811ffbc0"><path d="M 467.136719 292.226562 L 573.3125 292.226562 L 573.3125 330.449219 L 467.136719 330.449219 Z M 467.136719 292.226562 " clip-rule="nonzero"/></clipPath><mask id="506b19e2ba"><g filter="url(#e9f15e2beb)"><rect x="-65.775" width="789.3" fill="#000000" y="-44.924999" height="539.099994" fill-opacity="0.349"/></g></mask><clipPath id="3b3f43b46e"><path d="M 0.136719 0.226562 L 106.3125 0.226562 L 106.3125 38.449219 L 0.136719 38.449219 Z M 0.136719 0.226562 " clip-rule="nonzero"/></clipPath><clipPath id="e48f439458"><rect x="0" width="107" y="0" height="39"/></clipPath><clipPath id="5e98964590"><path d="M 135.875 335.027344 L 242.050781 335.027344 L 242.050781 373.25 L 135.875 373.25 Z M 135.875 335.027344 " clip-rule="nonzero"/></clipPath><clipPath id="5062e17d75"><path d="M 246.296875 335.027344 L 352.472656 335.027344 L 352.472656 373.25 L 246.296875 373.25 Z M 246.296875 335.027344 " clip-rule="nonzero"/></clipPath><clipPath id="e395aef039"><path d="M 356.714844 335.027344 L 462.890625 335.027344 L 462.890625 373.25 L 356.714844 373.25 Z M 356.714844 335.027344 " clip-rule="nonzero"/></clipPath><clipPath id="8d11815f2c"><path d="M 467.136719 335.027344 L 573.3125 335.027344 L 573.3125 373.25 L 467.136719 373.25 Z M 467.136719 335.027344 " clip-rule="nonzero"/></clipPath></defs><g clip-path="url(#158026b3de)"><path fill="#d9d9d9" d="M 127.230469 75.117188 L 241.832031 75.117188 L 241.832031 116.3125 L 127.230469 116.3125 Z M 127.230469 75.117188 " fill-opacity="1" fill-rule="nonzero"/></g><g clip-path="url(#d86208e9d1)"><path fill="#d9d9d9" d="M 246.296875 75.117188 L 352.660156 75.117188 L 352.660156 116.3125 L 246.296875 116.3125 Z M 246.296875 75.117188 " fill-opacity="1" fill-rule="nonzero"/></g><g clip-path="url(#2c345bd01e)"><g mask="url(#3001bc6c9b)"><g transform="matrix(1, 0, 0, 1, 135, 121)"><g clip-path="url(#2ba1523728)"><g clip-path="url(#ebfe072c26)"><path fill="#03e313" d="M 0.875 0.0273438 L 107.238281 0.0273438 L 107.238281 38.226562 L 0.875 38.226562 Z M 0.875 0.0273438 " fill-opacity="1" fill-rule="nonzero"/></g></g></g></g></g><g fill="#808080" fill-opacity="1"><g transform="translate(181.460043, 149.490907)"><g><path d="M 1.703125 0 L 1.703125 -2.75 L 6.296875 -2.75 L 6.296875 -15.40625 L 1.84375 -12.625 L 1.84375 -15.53125 L 6.484375 -18.546875 L 10 -18.546875 L 10 -2.75 L 14.25 -2.75 L 14.25 0 Z M 1.703125 0 "/></g></g></g><g clip-path="url(#d0e04e5dce)"><g mask="url(#51639f583e)"><g transform="matrix(1, 0, 0, 1, 246, 121)"><g clip-path="url(#40d5fb4b25)"><g clip-path="url(#4c4d0c6f6e)"><path fill="#03e313" d="M 0.296875 0.0273438 L 106.660156 0.0273438 L 106.660156 38.226562 L 0.296875 38.226562 Z M 0.296875 0.0273438 " fill-opacity="1" fill-rule="nonzero"/></g></g></g></g></g><g clip-path="url(#36f8b37c9c)"><path fill="#d9d9d9" d="M 356.714844 75.117188 L 463.078125 75.117188 L 463.078125 116.3125 L 356.714844 116.3125 Z M 356.714844 75.117188 " fill-opacity="1" fill-rule="nonzero"/></g><g clip-path="url(#e6439bc30f)"><path fill="#d9d9d9" d="M 467.136719 75.117188 L 581.738281 75.117188 L 581.738281 116.3125 L 467.136719 116.3125 Z M 467.136719 75.117188 " fill-opacity="1" fill-rule="nonzero"/></g><g clip-path="url(#6f389fd268)"><g mask="url(#51275d5537)"><g transform="matrix(1, 0, 0, 1, 356, 121)"><g clip-path="url(#075fc0c659)"><g clip-path="url(#c8d6d65091)"><path fill="#03e313" d="M 0.714844 0.0273438 L 107.078125 0.0273438 L 107.078125 38.226562 L 0.714844 38.226562 Z M 0.714844 0.0273438 " fill-opacity="1" fill-rule="nonzero"/></g></g></g></g></g><g clip-path="url(#d6d006b544)"><g mask="url(#df87500a67)"><g transform="matrix(1, 0, 0, 1, 467, 121)"><g clip-path="url(#dd983ebaf3)"><g clip-path="url(#151791014d)"><path fill="#03e313" d="M 0.136719 0.0273438 L 106.5 0.0273438 L 106.5 38.226562 L 0.136719 38.226562 Z M 0.136719 0.0273438 " fill-opacity="1" fill-rule="nonzero"/></g></g></g></g></g><g clip-path="url(#99b1e0b941)"><path fill="#d9d9d9" d="M 135.875 163.828125 L 242.238281 163.828125 L 242.238281 202.027344 L 135.875 202.027344 Z M 135.875 163.828125 " fill-opacity="1" fill-rule="nonzero"/></g><g clip-path="url(#e125e6db88)"><path fill="#f2f2f2" d="M 246.296875 163.828125 L 352.660156 163.828125 L 352.660156 202.027344 L 246.296875 202.027344 Z M 246.296875 163.828125 " fill-opacity="1" fill-rule="nonzero"/></g><g clip-path="url(#9a44cb5218)"><g mask="url(#5e2be8605c)"><g transform="matrix(1, 0, 0, 1, 135, 206)"><g clip-path="url(#e02c2ea807)"><g clip-path="url(#a3a837b762)"><path fill="#03e313" d="M 0.875 0.628906 L 107.238281 0.628906 L 107.238281 38.828125 L 0.875 38.828125 Z M 0.875 0.628906 " fill-opacity="1" fill-rule="nonzero"/></g></g></g></g></g><g fill="#808080" fill-opacity="1"><g transform="translate(181.460043, 235.090586)"><g><path d="M 14.03125 -5.15625 C 14.03125 -3.414062 13.457031 -2.070312 12.3125 -1.125 C 11.164062 -0.175781 9.539062 0.296875 7.4375 0.296875 C 5.445312 0.296875 3.863281 -0.160156 2.6875 -1.078125 C 1.507812 -1.992188 0.820312 -3.316406 0.625 -5.046875 L 4.390625 -5.375 C 4.617188 -3.59375 5.628906 -2.703125 7.421875 -2.703125 C 8.304688 -2.703125 8.992188 -2.921875 9.484375 -3.359375 C 9.984375 -3.796875 10.234375 -4.46875 10.234375 -5.375 C 10.234375 -6.195312 9.929688 -6.828125 9.328125 -7.265625 C 8.734375 -7.703125 7.847656 -7.921875 6.671875 -7.921875 L 5.390625 -7.921875 L 5.390625 -10.921875 L 6.59375 -10.921875 C 7.65625 -10.921875 8.453125 -11.132812 8.984375 -11.5625 C 9.523438 -12 9.796875 -12.625 9.796875 -13.4375 C 9.796875 -14.195312 9.582031 -14.789062 9.15625 -15.21875 C 8.726562 -15.65625 8.109375 -15.875 7.296875 -15.875 C 6.535156 -15.875 5.914062 -15.660156 5.4375 -15.234375 C 4.96875 -14.816406 4.703125 -14.222656 4.640625 -13.453125 L 0.9375 -13.71875 C 1.125 -15.320312 1.785156 -16.570312 2.921875 -17.46875 C 4.054688 -18.375 5.535156 -18.828125 7.359375 -18.828125 C 9.296875 -18.828125 10.8125 -18.390625 11.90625 -17.515625 C 13 -16.640625 13.546875 -15.429688 13.546875 -13.890625 C 13.546875 -12.734375 13.207031 -11.78125 12.53125 -11.03125 C 11.851562 -10.289062 10.875 -9.796875 9.59375 -9.546875 L 9.59375 -9.5 C 11.007812 -9.332031 12.101562 -8.863281 12.875 -8.09375 C 13.644531 -7.320312 14.03125 -6.34375 14.03125 -5.15625 Z M 14.03125 -5.15625 "/></g></g></g><g clip-path="url(#2d1cbe0f3e)"><g mask="url(#d3c31dec0c)"><g transform="matrix(1, 0, 0, 1, 246, 206)"><g clip-path="url(#6df71abb21)"><g clip-path="url(#e873a99006)"><path fill="#03e313" d="M 0.296875 0.628906 L 106.660156 0.628906 L 106.660156 38.828125 L 0.296875 38.828125 Z M 0.296875 0.628906 " fill-opacity="1" fill-rule="nonzero"/></g></g></g></g></g><g clip-path="url(#6a4edbb7c5)"><path fill="#f2f2f2" d="M 356.714844 163.828125 L 463.078125 163.828125 L 463.078125 202.027344 L 356.714844 202.027344 Z M 356.714844 163.828125 " fill-opacity="1" fill-rule="nonzero"/></g><g clip-path="url(#802d90408e)"><path fill="#f2f2f2" d="M 467.136719 163.828125 L 573.5 163.828125 L 573.5 202.027344 L 467.136719 202.027344 Z M 467.136719 163.828125 " fill-opacity="1" fill-rule="nonzero"/></g><g clip-path="url(#c52bda3c4d)"><g mask="url(#75a54bce9d)"><g transform="matrix(1, 0, 0, 1, 356, 206)"><g clip-path="url(#c575d7ad41)"><g clip-path="url(#f01ea984e9)"><path fill="#03e313" d="M 0.714844 0.628906 L 107.078125 0.628906 L 107.078125 38.828125 L 0.714844 38.828125 Z M 0.714844 0.628906 " fill-opacity="1" fill-rule="nonzero"/></g></g></g></g></g><g clip-path="url(#d5f3affebc)"><g mask="url(#6a1a7a28d1)"><g transform="matrix(1, 0, 0, 1, 467, 206)"><g clip-path="url(#301405894e)"><g clip-path="url(#609f427a02)"><path fill="#03e313" d="M 0.136719 0.628906 L 106.5 0.628906 L 106.5 38.828125 L 0.136719 38.828125 Z M 0.136719 0.628906 " fill-opacity="1" fill-rule="nonzero"/></g></g></g></g></g><g clip-path="url(#94f94f9c13)"><path fill="#d9d9d9" d="M 135.875 249.425781 L 242.238281 249.425781 L 242.238281 287.628906 L 135.875 287.628906 Z M 135.875 249.425781 " fill-opacity="1" fill-rule="nonzero"/></g><g clip-path="url(#ef137c751e)"><path fill="#f2f2f2" d="M 246.296875 249.425781 L 352.660156 249.425781 L 352.660156 287.628906 L 246.296875 287.628906 Z M 246.296875 249.425781 " fill-opacity="1" fill-rule="nonzero"/></g><g clip-path="url(#6b8c05863a)"><path fill="#f2f2f2" d="M 356.714844 249.425781 L 463.078125 249.425781 L 463.078125 287.628906 L 356.714844 287.628906 Z M 356.714844 249.425781 " fill-opacity="1" fill-rule="nonzero"/></g><g clip-path="url(#acdd1be538)"><path fill="#f2f2f2" d="M 467.136719 249.425781 L 573.5 249.425781 L 573.5 287.628906 L 467.136719 287.628906 Z M 467.136719 249.425781 " fill-opacity="1" fill-rule="nonzero"/></g><g clip-path="url(#923bc3f042)"><g mask="url(#4235cf0fe8)"><g transform="matrix(1, 0, 0, 1, 135, 292)"><g clip-path="url(#df84a7c0ef)"><g clip-path="url(#4e4bd4da3a)"><path fill="#03e313" d="M 0.875 0.226562 L 107.238281 0.226562 L 107.238281 38.425781 L 0.875 38.425781 Z M 0.875 0.226562 " fill-opacity="1" fill-rule="nonzero"/></g></g></g></g></g><g fill="#808080" fill-opacity="1"><g transform="translate(181.460043, 320.690255)"><g><path d="M 14.25 -6.171875 C 14.25 -4.203125 13.632812 -2.632812 12.40625 -1.46875 C 11.1875 -0.3125 9.507812 0.265625 7.375 0.265625 C 5.507812 0.265625 4.015625 -0.148438 2.890625 -0.984375 C 1.773438 -1.828125 1.085938 -3.046875 0.828125 -4.640625 L 4.53125 -4.9375 C 4.71875 -4.144531 5.054688 -3.566406 5.546875 -3.203125 C 6.046875 -2.847656 6.664062 -2.671875 7.40625 -2.671875 C 8.332031 -2.671875 9.066406 -2.960938 9.609375 -3.546875 C 10.160156 -4.140625 10.4375 -4.988281 10.4375 -6.09375 C 10.4375 -7.070312 10.175781 -7.851562 9.65625 -8.4375 C 9.144531 -9.019531 8.425781 -9.3125 7.5 -9.3125 C 6.46875 -9.3125 5.628906 -8.910156 4.984375 -8.109375 L 1.375 -8.109375 L 2.015625 -18.546875 L 13.171875 -18.546875 L 13.171875 -15.796875 L 5.375 -15.796875 L 5.0625 -11.109375 C 5.957031 -11.898438 7.078125 -12.296875 8.421875 -12.296875 C 10.191406 -12.296875 11.601562 -11.742188 12.65625 -10.640625 C 13.71875 -9.546875 14.25 -8.054688 14.25 -6.171875 Z M 14.25 -6.171875 "/></g></g></g><g clip-path="url(#4e18efe3eb)"><g mask="url(#beae08bfaa)"><g transform="matrix(1, 0, 0, 1, 246, 292)"><g clip-path="url(#e91cd7d0a8)"><g clip-path="url(#5092e0b884)"><path fill="#03e313" d="M 0.296875 0.226562 L 106.660156 0.226562 L 106.660156 38.425781 L 0.296875 38.425781 Z M 0.296875 0.226562 " fill-opacity="1" fill-rule="nonzero"/></g></g></g></g></g><g clip-path="url(#0829de237a)"><g mask="url(#ed9ae1d592)"><g transform="matrix(1, 0, 0, 1, 356, 292)"><g clip-path="url(#4286669f84)"><g clip-path="url(#5848012b5e)"><path fill="#03e313" d="M 0.714844 0.226562 L 107.078125 0.226562 L 107.078125 38.425781 L 0.714844 38.425781 Z M 0.714844 0.226562 " fill-opacity="1" fill-rule="nonzero"/></g></g></g></g></g><g clip-path="url(#58811ffbc0)"><g mask="url(#506b19e2ba)"><g transform="matrix(1, 0, 0, 1, 467, 292)"><g clip-path="url(#e48f439458)"><g clip-path="url(#3b3f43b46e)"><path fill="#03e313" d="M 0.136719 0.226562 L 106.5 0.226562 L 106.5 38.425781 L 0.136719 38.425781 Z M 0.136719 0.226562 " fill-opacity="1" fill-rule="nonzero"/></g></g></g></g></g><g clip-path="url(#5e98964590)"><path fill="#d9d9d9" d="M 135.875 335.027344 L 242.238281 335.027344 L 242.238281 373.226562 L 135.875 373.226562 Z M 135.875 335.027344 " fill-opacity="1" fill-rule="nonzero"/></g><g clip-path="url(#5062e17d75)"><path fill="#f2f2f2" d="M 246.296875 335.027344 L 352.660156 335.027344 L 352.660156 373.226562 L 246.296875 373.226562 Z M 246.296875 335.027344 " fill-opacity="1" fill-rule="nonzero"/></g><g clip-path="url(#e395aef039)"><path fill="#f2f2f2" d="M 356.714844 335.027344 L 463.078125 335.027344 L 463.078125 373.226562 L 356.714844 373.226562 Z M 356.714844 335.027344 " fill-opacity="1" fill-rule="nonzero"/></g><g clip-path="url(#8d11815f2c)"><path fill="#f2f2f2" d="M 467.136719 335.027344 L 573.5 335.027344 L 573.5 373.226562 L 467.136719 373.226562 Z M 467.136719 335.027344 " fill-opacity="1" fill-rule="nonzero"/></g><g fill="#767171" fill-opacity="1"><g transform="translate(76.316348, 150.850968)"><g><path d="M 5.96875 -10.453125 C 6.3125 -10.453125 6.570312 -10.171875 6.75 -9.609375 C 7.09375 -8.554688 7.34375 -8.03125 7.5 -8.03125 C 7.601562 -8.03125 7.71875 -8.117188 7.84375 -8.296875 C 10.3125 -11.921875 12.597656 -14.5 14.703125 -16.03125 C 15.585938 -16.6875 16.453125 -17.015625 17.296875 -17.015625 C 18.410156 -17.015625 19.082031 -16.976562 19.3125 -16.90625 C 19.40625 -16.882812 19.453125 -16.773438 19.453125 -16.578125 C 19.453125 -16.421875 19.347656 -16.222656 19.140625 -15.984375 C 13.492188 -9.503906 10.132812 -5.289062 9.0625 -3.34375 C 8.6875 -2.675781 7.832031 -2.34375 6.5 -2.34375 C 6.0625 -2.34375 5.601562 -2.457031 5.125 -2.6875 C 4.914062 -2.789062 4.5625 -3.460938 4.0625 -4.703125 C 3.4375 -6.265625 3.125 -7.632812 3.125 -8.8125 C 3.125 -9.238281 3.429688 -9.59375 4.046875 -9.875 C 4.890625 -10.257812 5.519531 -10.453125 5.9375 -10.453125 Z M 5.96875 -10.453125 "/></g></g></g><g fill="#767171" fill-opacity="1"><g transform="translate(75.785766, 322.366316)"><g><path d="M 5.96875 -10.453125 C 6.3125 -10.453125 6.570312 -10.171875 6.75 -9.609375 C 7.09375 -8.554688 7.34375 -8.03125 7.5 -8.03125 C 7.601562 -8.03125 7.71875 -8.117188 7.84375 -8.296875 C 10.3125 -11.921875 12.597656 -14.5 14.703125 -16.03125 C 15.585938 -16.6875 16.453125 -17.015625 17.296875 -17.015625 C 18.410156 -17.015625 19.082031 -16.976562 19.3125 -16.90625 C 19.40625 -16.882812 19.453125 -16.773438 19.453125 -16.578125 C 19.453125 -16.421875 19.347656 -16.222656 19.140625 -15.984375 C 13.492188 -9.503906 10.132812 -5.289062 9.0625 -3.34375 C 8.6875 -2.675781 7.832031 -2.34375 6.5 -2.34375 C 6.0625 -2.34375 5.601562 -2.457031 5.125 -2.6875 C 4.914062 -2.789062 4.5625 -3.460938 4.0625 -4.703125 C 3.4375 -6.265625 3.125 -7.632812 3.125 -8.8125 C 3.125 -9.238281 3.429688 -9.59375 4.046875 -9.875 C 4.890625 -10.257812 5.519531 -10.453125 5.9375 -10.453125 Z M 5.96875 -10.453125 "/></g></g></g><g fill="#767171" fill-opacity="1"><g transform="translate(75.618029, 236.958104)"><g><path d="M 5.96875 -10.453125 C 6.3125 -10.453125 6.570312 -10.171875 6.75 -9.609375 C 7.09375 -8.554688 7.34375 -8.03125 7.5 -8.03125 C 7.601562 -8.03125 7.71875 -8.117188 7.84375 -8.296875 C 10.3125 -11.921875 12.597656 -14.5 14.703125 -16.03125 C 15.585938 -16.6875 16.453125 -17.015625 17.296875 -17.015625 C 18.410156 -17.015625 19.082031 -16.976562 19.3125 -16.90625 C 19.40625 -16.882812 19.453125 -16.773438 19.453125 -16.578125 C 19.453125 -16.421875 19.347656 -16.222656 19.140625 -15.984375 C 13.492188 -9.503906 10.132812 -5.289062 9.0625 -3.34375 C 8.6875 -2.675781 7.832031 -2.34375 6.5 -2.34375 C 6.0625 -2.34375 5.601562 -2.457031 5.125 -2.6875 C 4.914062 -2.789062 4.5625 -3.460938 4.0625 -4.703125 C 3.4375 -6.265625 3.125 -7.632812 3.125 -8.8125 C 3.125 -9.238281 3.429688 -9.59375 4.046875 -9.875 C 4.890625 -10.257812 5.519531 -10.453125 5.9375 -10.453125 Z M 5.96875 -10.453125 "/></g></g></g></svg>