<svg xmlns="http://www.w3.org/2000/svg" xmlns:xlink="http://www.w3.org/1999/xlink" width="847" zoomAndPan="magnify" viewBox="0 0 635.25 449.249995" height="599" preserveAspectRatio="xMidYMid meet" version="1.0"><defs><filter x="0%" y="0%" width="100%" height="100%" id="c2567f6d30"><feColorMatrix values="0 0 0 0 1 0 0 0 0 1 0 0 0 0 1 0 0 0 1 0" color-interpolation-filters="sRGB"/></filter><g/><clipPath id="4419fce449"><path d="M 104.449219 75.085938 L 219.226562 75.085938 L 219.226562 116.402344 L 104.449219 116.402344 Z M 104.449219 75.085938 " clip-rule="nonzero"/></clipPath><clipPath id="fe4e4f9ac2"><path d="M 223.472656 75.085938 L 329.605469 75.085938 L 329.605469 116.402344 L 223.472656 116.402344 Z M 223.472656 75.085938 " clip-rule="nonzero"/></clipPath><clipPath id="21a7ff6abf"><path d="M 113.09375 120.980469 L 219.226562 120.980469 L 219.226562 159.191406 L 113.09375 159.191406 Z M 113.09375 120.980469 " clip-rule="nonzero"/></clipPath><mask id="f3c8a42f75"><g filter="url(#c2567f6d30)"><rect x="-63.525" width="762.3" fill="#000000" y="-44.924999" height="539.099994" fill-opacity="0.498"/></g></mask><clipPath id="9121a38c7f"><path d="M 0.09375 0.980469 L 106.226562 0.980469 L 106.226562 39.191406 L 0.09375 39.191406 Z M 0.09375 0.980469 " clip-rule="nonzero"/></clipPath><clipPath id="e99d6a3086"><rect x="0" width="107" y="0" height="40"/></clipPath><clipPath id="3044f91e12"><path d="M 223.472656 120.980469 L 329.605469 120.980469 L 329.605469 159.191406 L 223.472656 159.191406 Z M 223.472656 120.980469 " clip-rule="nonzero"/></clipPath><mask id="805ff2280f"><g filter="url(#c2567f6d30)"><rect x="-63.525" width="762.3" fill="#000000" y="-44.924999" height="539.099994" fill-opacity="0.298"/></g></mask><clipPath id="75f5d48e9c"><path d="M 0.472656 0.980469 L 106.605469 0.980469 L 106.605469 39.191406 L 0.472656 39.191406 Z M 0.472656 0.980469 " clip-rule="nonzero"/></clipPath><clipPath id="cfdba5d2f4"><rect x="0" width="107" y="0" height="40"/></clipPath><clipPath id="730df725a4"><path d="M 333.851562 75.085938 L 439.984375 75.085938 L 439.984375 116.402344 L 333.851562 116.402344 Z M 333.851562 75.085938 " clip-rule="nonzero"/></clipPath><clipPath id="4bd4615704"><path d="M 444.230469 75.085938 L 559 75.085938 L 559 116.402344 L 444.230469 116.402344 Z M 444.230469 75.085938 " clip-rule="nonzero"/></clipPath><clipPath id="b50a26af32"><path d="M 333.851562 120.980469 L 439.984375 120.980469 L 439.984375 159.191406 L 333.851562 159.191406 Z M 333.851562 120.980469 " clip-rule="nonzero"/></clipPath><mask id="f82d2146f1"><g filter="url(#c2567f6d30)"><rect x="-63.525" width="762.3" fill="#000000" y="-44.924999" height="539.099994" fill-opacity="0.298"/></g></mask><clipPath id="5afc18ddd0"><path d="M 0.851562 0.980469 L 106.984375 0.980469 L 106.984375 39.191406 L 0.851562 39.191406 Z M 0.851562 0.980469 " clip-rule="nonzero"/></clipPath><clipPath id="3b961c2e6a"><rect x="0" width="107" y="0" height="40"/></clipPath><clipPath id="09c115490e"><path d="M 444.230469 120.980469 L 550.363281 120.980469 L 550.363281 159.191406 L 444.230469 159.191406 Z M 444.230469 120.980469 " clip-rule="nonzero"/></clipPath><mask id="adb14f25b1"><g filter="url(#c2567f6d30)"><rect x="-63.525" width="762.3" fill="#000000" y="-44.924999" height="539.099994" fill-opacity="0.298"/></g></mask><clipPath id="786412d181"><path d="M 0.230469 0.980469 L 106.363281 0.980469 L 106.363281 39.191406 L 0.230469 39.191406 Z M 0.230469 0.980469 " clip-rule="nonzero"/></clipPath><clipPath id="0efbf507ca"><rect x="0" width="107" y="0" height="40"/></clipPath><clipPath id="588564fcc3"><path d="M 113.09375 163.765625 L 219.226562 163.765625 L 219.226562 201.972656 L 113.09375 201.972656 Z M 113.09375 163.765625 " clip-rule="nonzero"/></clipPath><clipPath id="08c23818a1"><path d="M 223.472656 163.765625 L 329.605469 163.765625 L 329.605469 201.972656 L 223.472656 201.972656 Z M 223.472656 163.765625 " clip-rule="nonzero"/></clipPath><clipPath id="8627eb4b34"><path d="M 113.09375 206.546875 L 219.226562 206.546875 L 219.226562 244.757812 L 113.09375 244.757812 Z M 113.09375 206.546875 " clip-rule="nonzero"/></clipPath><clipPath id="a0c8dc9d44"><path d="M 223.472656 206.546875 L 329.605469 206.546875 L 329.605469 244.757812 L 223.472656 244.757812 Z M 223.472656 206.546875 " clip-rule="nonzero"/></clipPath><clipPath id="673d1cd382"><path d="M 333.851562 163.765625 L 439.984375 163.765625 L 439.984375 201.972656 L 333.851562 201.972656 Z M 333.851562 163.765625 " clip-rule="nonzero"/></clipPath><clipPath id="a248fb0d40"><path d="M 444.230469 163.765625 L 550.363281 163.765625 L 550.363281 201.972656 L 444.230469 201.972656 Z M 444.230469 163.765625 " clip-rule="nonzero"/></clipPath><clipPath id="e95e499294"><path d="M 333.851562 206.546875 L 439.984375 206.546875 L 439.984375 244.757812 L 333.851562 244.757812 Z M 333.851562 206.546875 " clip-rule="nonzero"/></clipPath><clipPath id="3e506d5e1d"><path d="M 444.230469 206.546875 L 550.363281 206.546875 L 550.363281 244.757812 L 444.230469 244.757812 Z M 444.230469 206.546875 " clip-rule="nonzero"/></clipPath><clipPath id="2de35cc94d"><path d="M 113.09375 249.332031 L 219.226562 249.332031 L 219.226562 287.542969 L 113.09375 287.542969 Z M 113.09375 249.332031 " clip-rule="nonzero"/></clipPath><clipPath id="06f0b9f980"><path d="M 223.472656 249.332031 L 329.605469 249.332031 L 329.605469 287.542969 L 223.472656 287.542969 Z M 223.472656 249.332031 " clip-rule="nonzero"/></clipPath><clipPath id="b3d864a066"><path d="M 333.851562 249.332031 L 439.984375 249.332031 L 439.984375 287.542969 L 333.851562 287.542969 Z M 333.851562 249.332031 " clip-rule="nonzero"/></clipPath><clipPath id="fe3d61c936"><path d="M 444.230469 249.332031 L 550.363281 249.332031 L 550.363281 287.542969 L 444.230469 287.542969 Z M 444.230469 249.332031 " clip-rule="nonzero"/></clipPath><clipPath id="6b80f8dc58"><path d="M 113.09375 292.117188 L 219.226562 292.117188 L 219.226562 330.324219 L 113.09375 330.324219 Z M 113.09375 292.117188 " clip-rule="nonzero"/></clipPath><mask id="93b5af4032"><g filter="url(#c2567f6d30)"><rect x="-63.525" width="762.3" fill="#000000" y="-44.924999" height="539.099994" fill-opacity="0.498"/></g></mask><clipPath id="16ca426844"><path d="M 0.09375 0.117188 L 106.226562 0.117188 L 106.226562 38.324219 L 0.09375 38.324219 Z M 0.09375 0.117188 " clip-rule="nonzero"/></clipPath><clipPath id="805365188d"><rect x="0" width="107" y="0" height="39"/></clipPath><clipPath id="cdbf87b415"><path d="M 223.472656 292.117188 L 329.605469 292.117188 L 329.605469 330.324219 L 223.472656 330.324219 Z M 223.472656 292.117188 " clip-rule="nonzero"/></clipPath><mask id="0cd54baf97"><g filter="url(#c2567f6d30)"><rect x="-63.525" width="762.3" fill="#000000" y="-44.924999" height="539.099994" fill-opacity="0.298"/></g></mask><clipPath id="fd649461bf"><path d="M 0.472656 0.117188 L 106.605469 0.117188 L 106.605469 38.324219 L 0.472656 38.324219 Z M 0.472656 0.117188 " clip-rule="nonzero"/></clipPath><clipPath id="fbb19a79ae"><rect x="0" width="107" y="0" height="39"/></clipPath><clipPath id="4f8ac6a42f"><path d="M 333.851562 292.117188 L 439.984375 292.117188 L 439.984375 330.324219 L 333.851562 330.324219 Z M 333.851562 292.117188 " clip-rule="nonzero"/></clipPath><mask id="9b3ca1d9f7"><g filter="url(#c2567f6d30)"><rect x="-63.525" width="762.3" fill="#000000" y="-44.924999" height="539.099994" fill-opacity="0.298"/></g></mask><clipPath id="a37b3fcc18"><path d="M 0.851562 0.117188 L 106.984375 0.117188 L 106.984375 38.324219 L 0.851562 38.324219 Z M 0.851562 0.117188 " clip-rule="nonzero"/></clipPath><clipPath id="70dbfb381f"><rect x="0" width="107" y="0" height="39"/></clipPath><clipPath id="8e48d93859"><path d="M 444.230469 292.117188 L 550.363281 292.117188 L 550.363281 330.324219 L 444.230469 330.324219 Z M 444.230469 292.117188 " clip-rule="nonzero"/></clipPath><mask id="341955bcbb"><g filter="url(#c2567f6d30)"><rect x="-63.525" width="762.3" fill="#000000" y="-44.924999" height="539.099994" fill-opacity="0.298"/></g></mask><clipPath id="6fc093e57e"><path d="M 0.230469 0.117188 L 106.363281 0.117188 L 106.363281 38.324219 L 0.230469 38.324219 Z M 0.230469 0.117188 " clip-rule="nonzero"/></clipPath><clipPath id="f529303bc5"><rect x="0" width="107" y="0" height="39"/></clipPath><clipPath id="92c806435e"><path d="M 113.09375 334.898438 L 219.226562 334.898438 L 219.226562 373.109375 L 113.09375 373.109375 Z M 113.09375 334.898438 " clip-rule="nonzero"/></clipPath><clipPath id="a9d3ce67b3"><path d="M 223.472656 334.898438 L 329.605469 334.898438 L 329.605469 373.109375 L 223.472656 373.109375 Z M 223.472656 334.898438 " clip-rule="nonzero"/></clipPath><clipPath id="f96387ea94"><path d="M 333.851562 334.898438 L 439.984375 334.898438 L 439.984375 373.109375 L 333.851562 373.109375 Z M 333.851562 334.898438 " clip-rule="nonzero"/></clipPath><clipPath id="e88a569d5e"><path d="M 444.230469 334.898438 L 550.363281 334.898438 L 550.363281 373.109375 L 444.230469 373.109375 Z M 444.230469 334.898438 " clip-rule="nonzero"/></clipPath></defs><g clip-path="url(#4419fce449)"><path fill="#d9d9d9" d="M 104.449219 75.085938 L 219.007812 75.085938 L 219.007812 116.269531 L 104.449219 116.269531 Z M 104.449219 75.085938 " fill-opacity="1" fill-rule="nonzero"/></g><g clip-path="url(#fe4e4f9ac2)"><path fill="#d9d9d9" d="M 223.472656 75.085938 L 329.792969 75.085938 L 329.792969 116.269531 L 223.472656 116.269531 Z M 223.472656 75.085938 " fill-opacity="1" fill-rule="nonzero"/></g><g clip-path="url(#21a7ff6abf)"><g mask="url(#f3c8a42f75)"><g transform="matrix(1, 0, 0, 1, 113, 120)"><g clip-path="url(#e99d6a3086)"><g clip-path="url(#9121a38c7f)"><path fill="#e60000" d="M 0.09375 0.980469 L 106.414062 0.980469 L 106.414062 39.167969 L 0.09375 39.167969 Z M 0.09375 0.980469 " fill-opacity="1" fill-rule="nonzero"/></g></g></g></g></g><g clip-path="url(#3044f91e12)"><g mask="url(#805ff2280f)"><g transform="matrix(1, 0, 0, 1, 223, 120)"><g clip-path="url(#cfdba5d2f4)"><g clip-path="url(#75f5d48e9c)"><path fill="#e60000" d="M 0.472656 0.980469 L 106.792969 0.980469 L 106.792969 39.167969 L 0.472656 39.167969 Z M 0.472656 0.980469 " fill-opacity="1" fill-rule="nonzero"/></g></g></g></g></g><g clip-path="url(#730df725a4)"><path fill="#d9d9d9" d="M 333.851562 75.085938 L 440.171875 75.085938 L 440.171875 116.269531 L 333.851562 116.269531 Z M 333.851562 75.085938 " fill-opacity="1" fill-rule="nonzero"/></g><g clip-path="url(#4bd4615704)"><path fill="#d9d9d9" d="M 444.230469 75.085938 L 558.789062 75.085938 L 558.789062 116.269531 L 444.230469 116.269531 Z M 444.230469 75.085938 " fill-opacity="1" fill-rule="nonzero"/></g><g clip-path="url(#b50a26af32)"><g mask="url(#f82d2146f1)"><g transform="matrix(1, 0, 0, 1, 333, 120)"><g clip-path="url(#3b961c2e6a)"><g clip-path="url(#5afc18ddd0)"><path fill="#e60000" d="M 0.851562 0.980469 L 107.171875 0.980469 L 107.171875 39.167969 L 0.851562 39.167969 Z M 0.851562 0.980469 " fill-opacity="1" fill-rule="nonzero"/></g></g></g></g></g><g clip-path="url(#09c115490e)"><g mask="url(#adb14f25b1)"><g transform="matrix(1, 0, 0, 1, 444, 120)"><g clip-path="url(#0efbf507ca)"><g clip-path="url(#786412d181)"><path fill="#e60000" d="M 0.230469 0.980469 L 106.550781 0.980469 L 106.550781 39.167969 L 0.230469 39.167969 Z M 0.230469 0.980469 " fill-opacity="1" fill-rule="nonzero"/></g></g></g></g></g><g clip-path="url(#588564fcc3)"><path fill="#d9d9d9" d="M 113.09375 163.765625 L 219.414062 163.765625 L 219.414062 201.953125 L 113.09375 201.953125 Z M 113.09375 163.765625 " fill-opacity="1" fill-rule="nonzero"/></g><g clip-path="url(#08c23818a1)"><path fill="#f2f2f2" d="M 223.472656 163.765625 L 329.792969 163.765625 L 329.792969 201.953125 L 223.472656 201.953125 Z M 223.472656 163.765625 " fill-opacity="1" fill-rule="nonzero"/></g><g clip-path="url(#8627eb4b34)"><path fill="#d9d9d9" d="M 113.09375 206.546875 L 219.414062 206.546875 L 219.414062 244.734375 L 113.09375 244.734375 Z M 113.09375 206.546875 " fill-opacity="1" fill-rule="nonzero"/></g><g clip-path="url(#a0c8dc9d44)"><path fill="#f2f2f2" d="M 223.472656 206.546875 L 329.792969 206.546875 L 329.792969 244.734375 L 223.472656 244.734375 Z M 223.472656 206.546875 " fill-opacity="1" fill-rule="nonzero"/></g><g clip-path="url(#673d1cd382)"><path fill="#f2f2f2" d="M 333.851562 163.765625 L 440.171875 163.765625 L 440.171875 201.953125 L 333.851562 201.953125 Z M 333.851562 163.765625 " fill-opacity="1" fill-rule="nonzero"/></g><g clip-path="url(#a248fb0d40)"><path fill="#f2f2f2" d="M 444.230469 163.765625 L 550.550781 163.765625 L 550.550781 201.953125 L 444.230469 201.953125 Z M 444.230469 163.765625 " fill-opacity="1" fill-rule="nonzero"/></g><g clip-path="url(#e95e499294)"><path fill="#f2f2f2" d="M 333.851562 206.546875 L 440.171875 206.546875 L 440.171875 244.734375 L 333.851562 244.734375 Z M 333.851562 206.546875 " fill-opacity="1" fill-rule="nonzero"/></g><g clip-path="url(#3e506d5e1d)"><path fill="#f2f2f2" d="M 444.230469 206.546875 L 550.550781 206.546875 L 550.550781 244.734375 L 444.230469 244.734375 Z M 444.230469 206.546875 " fill-opacity="1" fill-rule="nonzero"/></g><g clip-path="url(#2de35cc94d)"><path fill="#d9d9d9" d="M 113.09375 249.332031 L 219.414062 249.332031 L 219.414062 287.519531 L 113.09375 287.519531 Z M 113.09375 249.332031 " fill-opacity="1" fill-rule="nonzero"/></g><g clip-path="url(#06f0b9f980)"><path fill="#f2f2f2" d="M 223.472656 249.332031 L 329.792969 249.332031 L 329.792969 287.519531 L 223.472656 287.519531 Z M 223.472656 249.332031 " fill-opacity="1" fill-rule="nonzero"/></g><g clip-path="url(#b3d864a066)"><path fill="#f2f2f2" d="M 333.851562 249.332031 L 440.171875 249.332031 L 440.171875 287.519531 L 333.851562 287.519531 Z M 333.851562 249.332031 " fill-opacity="1" fill-rule="nonzero"/></g><g clip-path="url(#fe3d61c936)"><path fill="#f2f2f2" d="M 444.230469 249.332031 L 550.550781 249.332031 L 550.550781 287.519531 L 444.230469 287.519531 Z M 444.230469 249.332031 " fill-opacity="1" fill-rule="nonzero"/></g><g clip-path="url(#6b80f8dc58)"><g mask="url(#93b5af4032)"><g transform="matrix(1, 0, 0, 1, 113, 292)"><g clip-path="url(#805365188d)"><g clip-path="url(#16ca426844)"><path fill="#e60000" d="M 0.09375 0.117188 L 106.414062 0.117188 L 106.414062 38.300781 L 0.09375 38.300781 Z M 0.09375 0.117188 " fill-opacity="1" fill-rule="nonzero"/></g></g></g></g></g><g clip-path="url(#cdbf87b415)"><g mask="url(#0cd54baf97)"><g transform="matrix(1, 0, 0, 1, 223, 292)"><g clip-path="url(#fbb19a79ae)"><g clip-path="url(#fd649461bf)"><path fill="#e60000" d="M 0.472656 0.117188 L 106.792969 0.117188 L 106.792969 38.300781 L 0.472656 38.300781 Z M 0.472656 0.117188 " fill-opacity="1" fill-rule="nonzero"/></g></g></g></g></g><g clip-path="url(#4f8ac6a42f)"><g mask="url(#9b3ca1d9f7)"><g transform="matrix(1, 0, 0, 1, 333, 292)"><g clip-path="url(#70dbfb381f)"><g clip-path="url(#a37b3fcc18)"><path fill="#e60000" d="M 0.851562 0.117188 L 107.171875 0.117188 L 107.171875 38.300781 L 0.851562 38.300781 Z M 0.851562 0.117188 " fill-opacity="1" fill-rule="nonzero"/></g></g></g></g></g><g clip-path="url(#8e48d93859)"><g mask="url(#341955bcbb)"><g transform="matrix(1, 0, 0, 1, 444, 292)"><g clip-path="url(#f529303bc5)"><g clip-path="url(#6fc093e57e)"><path fill="#e60000" d="M 0.230469 0.117188 L 106.550781 0.117188 L 106.550781 38.300781 L 0.230469 38.300781 Z M 0.230469 0.117188 " fill-opacity="1" fill-rule="nonzero"/></g></g></g></g></g><g clip-path="url(#92c806435e)"><path fill="#d9d9d9" d="M 113.09375 334.898438 L 219.414062 334.898438 L 219.414062 373.085938 L 113.09375 373.085938 Z M 113.09375 334.898438 " fill-opacity="1" fill-rule="nonzero"/></g><g clip-path="url(#a9d3ce67b3)"><path fill="#f2f2f2" d="M 223.472656 334.898438 L 329.792969 334.898438 L 329.792969 373.085938 L 223.472656 373.085938 Z M 223.472656 334.898438 " fill-opacity="1" fill-rule="nonzero"/></g><g clip-path="url(#f96387ea94)"><path fill="#f2f2f2" d="M 333.851562 334.898438 L 440.171875 334.898438 L 440.171875 373.085938 L 333.851562 373.085938 Z M 333.851562 334.898438 " fill-opacity="1" fill-rule="nonzero"/></g><g clip-path="url(#e88a569d5e)"><path fill="#f2f2f2" d="M 444.230469 334.898438 L 550.550781 334.898438 L 550.550781 373.085938 L 444.230469 373.085938 Z M 444.230469 334.898438 " fill-opacity="1" fill-rule="nonzero"/></g><g fill="#767171" fill-opacity="1"><g transform="translate(75.308513, 150.033109)"><g><path d="M 15.390625 -9.8125 L 20.28125 -4.921875 L 16.1875 -0.828125 L 11.296875 -5.71875 L 6.390625 -0.828125 L 2.296875 -4.921875 L 7.203125 -9.8125 L 2.296875 -14.71875 L 6.390625 -18.8125 L 11.296875 -13.90625 L 16.1875 -18.8125 L 20.28125 -14.734375 Z M 15.390625 -9.8125 "/></g></g></g><g fill="#767171" fill-opacity="1"><g transform="translate(75.308513, 320.284943)"><g><path d="M 15.390625 -9.8125 L 20.28125 -4.921875 L 16.1875 -0.828125 L 11.296875 -5.71875 L 6.390625 -0.828125 L 2.296875 -4.921875 L 7.203125 -9.8125 L 2.296875 -14.71875 L 6.390625 -18.8125 L 11.296875 -13.90625 L 16.1875 -18.8125 L 20.28125 -14.734375 Z M 15.390625 -9.8125 "/></g></g></g></svg>