<svg xmlns="http://www.w3.org/2000/svg" xmlns:xlink="http://www.w3.org/1999/xlink" width="1919" zoomAndPan="magnify" viewBox="0 0 1439.25 732.749983" height="977" preserveAspectRatio="xMidYMid meet" version="1.0"><defs><filter x="0%" y="0%" width="100%" height="100%" id="6d207c3f05"><feColorMatrix values="0 0 0 0 1 0 0 0 0 1 0 0 0 0 1 0 0 0 1 0" color-interpolation-filters="sRGB"/></filter><g/><clipPath id="6c6eeabbf1"><path d="M 75.332031 150.652344 L 262 150.652344 L 262 217.949219 L 75.332031 217.949219 Z M 75.332031 150.652344 " clip-rule="nonzero"/></clipPath><clipPath id="5fb4f52327"><path d="M 271.160156 75.289062 L 458 75.289062 L 458 142.589844 L 271.160156 142.589844 Z M 271.160156 75.289062 " clip-rule="nonzero"/></clipPath><clipPath id="cdd6120469"><path d="M 75.332031 226.011719 L 262 226.011719 L 262 293.3125 L 75.332031 293.3125 Z M 75.332031 226.011719 " clip-rule="nonzero"/></clipPath><clipPath id="4eb7f4f285"><path d="M 271.160156 226.011719 L 458 226.011719 L 458 293.3125 L 271.160156 293.3125 Z M 271.160156 226.011719 " clip-rule="nonzero"/></clipPath><clipPath id="2a77553f9f"><path d="M 466.984375 75.289062 L 653.929688 75.289062 L 653.929688 142.589844 L 466.984375 142.589844 Z M 466.984375 75.289062 " clip-rule="nonzero"/></clipPath><clipPath id="c1f50154b0"><path d="M 466.984375 226.011719 L 653.929688 226.011719 L 653.929688 293.3125 L 466.984375 293.3125 Z M 466.984375 226.011719 " clip-rule="nonzero"/></clipPath><clipPath id="be484ba009"><path d="M 784.703125 302.007812 L 971.648438 302.007812 L 971.648438 369.308594 L 784.703125 369.308594 Z M 784.703125 302.007812 " clip-rule="nonzero"/></clipPath><clipPath id="9acc7f1e2b"><path d="M 980.527344 226.648438 L 1167.472656 226.648438 L 1167.472656 293.949219 L 980.527344 293.949219 Z M 980.527344 226.648438 " clip-rule="nonzero"/></clipPath><clipPath id="6a1e3d03a4"><path d="M 980.527344 302.007812 L 1167.472656 302.007812 L 1167.472656 369.308594 L 980.527344 369.308594 Z M 980.527344 302.007812 " clip-rule="nonzero"/></clipPath><mask id="d03d37e2f8"><g filter="url(#6d207c3f05)"><rect x="-143.925" width="1727.1" fill="#000000" y="-73.274998" height="879.29998" fill-opacity="0.4"/></g></mask><clipPath id="fcf24cfbe6"><path d="M 0.527344 0.0078125 L 187.472656 0.0078125 L 187.472656 67.308594 L 0.527344 67.308594 Z M 0.527344 0.0078125 " clip-rule="nonzero"/></clipPath><clipPath id="b44598e943"><rect x="0" width="188" y="0" height="68"/></clipPath><clipPath id="55d270f096"><path d="M 784.703125 377.367188 L 971.648438 377.367188 L 971.648438 444.667969 L 784.703125 444.667969 Z M 784.703125 377.367188 " clip-rule="nonzero"/></clipPath><clipPath id="5f5f488abe"><path d="M 980.527344 377.367188 L 1167.472656 377.367188 L 1167.472656 444.667969 L 980.527344 444.667969 Z M 980.527344 377.367188 " clip-rule="nonzero"/></clipPath><clipPath id="d58a555f27"><path d="M 1176.355469 226.648438 L 1363.300781 226.648438 L 1363.300781 293.949219 L 1176.355469 293.949219 Z M 1176.355469 226.648438 " clip-rule="nonzero"/></clipPath><clipPath id="9b75be73b8"><path d="M 1176.355469 302.007812 L 1363.300781 302.007812 L 1363.300781 369.308594 L 1176.355469 369.308594 Z M 1176.355469 302.007812 " clip-rule="nonzero"/></clipPath><mask id="62d2cc53ec"><g filter="url(#6d207c3f05)"><rect x="-143.925" width="1727.1" fill="#000000" y="-73.274998" height="879.29998" fill-opacity="0.4"/></g></mask><clipPath id="f2e72259ff"><path d="M 0.355469 0.0078125 L 187.300781 0.0078125 L 187.300781 67.308594 L 0.355469 67.308594 Z M 0.355469 0.0078125 " clip-rule="nonzero"/></clipPath><clipPath id="6c44525a0b"><rect x="0" width="188" y="0" height="68"/></clipPath><clipPath id="8e47450e2a"><path d="M 1176.355469 377.367188 L 1363.300781 377.367188 L 1363.300781 444.667969 L 1176.355469 444.667969 Z M 1176.355469 377.367188 " clip-rule="nonzero"/></clipPath><clipPath id="a253955ba6"><path d="M 271.160156 150.652344 L 458.105469 150.652344 L 458.105469 217.949219 L 271.160156 217.949219 Z M 271.160156 150.652344 " clip-rule="nonzero"/></clipPath><mask id="7a1f1a52e8"><g filter="url(#6d207c3f05)"><rect x="-143.925" width="1727.1" fill="#000000" y="-73.274998" height="879.29998" fill-opacity="0.498"/></g></mask><clipPath id="e57f167a10"><path d="M 0.160156 0.652344 L 187 0.652344 L 187 67.949219 L 0.160156 67.949219 Z M 0.160156 0.652344 " clip-rule="nonzero"/></clipPath><clipPath id="097b4f3e9d"><rect x="0" width="188" y="0" height="68"/></clipPath><clipPath id="91ba930869"><path d="M 466.984375 150.652344 L 653.929688 150.652344 L 653.929688 217.949219 L 466.984375 217.949219 Z M 466.984375 150.652344 " clip-rule="nonzero"/></clipPath><mask id="2c34f6c24e"><g filter="url(#6d207c3f05)"><rect x="-143.925" width="1727.1" fill="#000000" y="-73.274998" height="879.29998" fill-opacity="0.498"/></g></mask><clipPath id="48c56c911f"><path d="M 0.984375 0.652344 L 187.929688 0.652344 L 187.929688 67.949219 L 0.984375 67.949219 Z M 0.984375 0.652344 " clip-rule="nonzero"/></clipPath><clipPath id="a6d80fa736"><rect x="0" width="188" y="0" height="68"/></clipPath><clipPath id="20bbee7791"><path d="M 75.332031 514.71875 L 262 514.71875 L 262 582.015625 L 75.332031 582.015625 Z M 75.332031 514.71875 " clip-rule="nonzero"/></clipPath><clipPath id="4d54ebb57b"><path d="M 271.160156 439.355469 L 458 439.355469 L 458 506.65625 L 271.160156 506.65625 Z M 271.160156 439.355469 " clip-rule="nonzero"/></clipPath><clipPath id="6b23c5b00d"><path d="M 75.332031 590.078125 L 262 590.078125 L 262 657.378906 L 75.332031 657.378906 Z M 75.332031 590.078125 " clip-rule="nonzero"/></clipPath><clipPath id="d1c9d153b4"><path d="M 271.160156 590.078125 L 458 590.078125 L 458 657.378906 L 271.160156 657.378906 Z M 271.160156 590.078125 " clip-rule="nonzero"/></clipPath><clipPath id="ce047bdee9"><path d="M 466.984375 439.355469 L 653.929688 439.355469 L 653.929688 506.65625 L 466.984375 506.65625 Z M 466.984375 439.355469 " clip-rule="nonzero"/></clipPath><clipPath id="eaa5110138"><path d="M 466.984375 590.078125 L 653.929688 590.078125 L 653.929688 657.378906 L 466.984375 657.378906 Z M 466.984375 590.078125 " clip-rule="nonzero"/></clipPath><clipPath id="092569d218"><path d="M 271.160156 514.71875 L 458.105469 514.71875 L 458.105469 582.015625 L 271.160156 582.015625 Z M 271.160156 514.71875 " clip-rule="nonzero"/></clipPath><mask id="6b7faa33fc"><g filter="url(#6d207c3f05)"><rect x="-143.925" width="1727.1" fill="#000000" y="-73.274998" height="879.29998" fill-opacity="0.498"/></g></mask><clipPath id="b596801060"><path d="M 0.160156 0.71875 L 187 0.71875 L 187 68.015625 L 0.160156 68.015625 Z M 0.160156 0.71875 " clip-rule="nonzero"/></clipPath><clipPath id="9faaa2c0d0"><rect x="0" width="188" y="0" height="69"/></clipPath><clipPath id="ce4009d535"><path d="M 466.984375 514.71875 L 653.929688 514.71875 L 653.929688 582.015625 L 466.984375 582.015625 Z M 466.984375 514.71875 " clip-rule="nonzero"/></clipPath><mask id="0264c8d214"><g filter="url(#6d207c3f05)"><rect x="-143.925" width="1727.1" fill="#000000" y="-73.274998" height="879.29998" fill-opacity="0.498"/></g></mask><clipPath id="f3da1a53e7"><path d="M 0.984375 0.71875 L 187.929688 0.71875 L 187.929688 68.015625 L 0.984375 68.015625 Z M 0.984375 0.71875 " clip-rule="nonzero"/></clipPath><clipPath id="8988784fcc"><rect x="0" width="188" y="0" height="69"/></clipPath></defs><g clip-path="url(#6c6eeabbf1)"><path fill="#d9d9d9" d="M 75.332031 150.652344 L 261.988281 150.652344 L 261.988281 218.117188 L 75.332031 218.117188 Z M 75.332031 150.652344 " fill-opacity="1" fill-rule="nonzero"/></g><g clip-path="url(#5fb4f52327)"><path fill="#d9d9d9" d="M 271.160156 75.289062 L 457.8125 75.289062 L 457.8125 142.753906 L 271.160156 142.753906 Z M 271.160156 75.289062 " fill-opacity="1" fill-rule="nonzero"/></g><g clip-path="url(#cdd6120469)"><path fill="#d9d9d9" d="M 75.332031 226.011719 L 261.988281 226.011719 L 261.988281 293.476562 L 75.332031 293.476562 Z M 75.332031 226.011719 " fill-opacity="1" fill-rule="nonzero"/></g><g clip-path="url(#4eb7f4f285)"><path fill="#f2f2f2" d="M 271.160156 226.011719 L 457.8125 226.011719 L 457.8125 293.476562 L 271.160156 293.476562 Z M 271.160156 226.011719 " fill-opacity="1" fill-rule="nonzero"/></g><g fill="#808080" fill-opacity="1"><g transform="translate(333.022812, 383.98451)"><g><path d="M 36.46875 0 L 24.03125 -19.71875 L 11.59375 0 L 0.625 0 L 17.78125 -26.046875 L 2.078125 -49.515625 L 13.03125 -49.515625 L 24.03125 -32.015625 L 35.03125 -49.515625 L 45.921875 -49.515625 L 30.890625 -26.046875 L 47.375 0 Z M 36.46875 0 "/></g></g><g transform="translate(381.021235, 383.98451)"><g><path d="M 18.65625 -18.234375 L 18.65625 -31.734375 C 18.65625 -33.773438 18.382812 -35.1875 17.84375 -35.96875 C 17.3125 -36.75 16.34375 -37.140625 14.9375 -37.140625 C 13.476562 -37.140625 12.320312 -36.578125 11.46875 -35.453125 C 10.613281 -34.328125 10.1875 -32.703125 10.1875 -30.578125 L 10.1875 -18.234375 L 3.9375 -18.234375 L 3.9375 -36.1875 L 3.796875 -41.078125 L 9.625 -41.078125 C 9.644531 -41.003906 9.664062 -40.8125 9.6875 -40.5 C 9.71875 -40.1875 9.75 -39.828125 9.78125 -39.421875 C 9.820312 -39.023438 9.863281 -38.273438 9.90625 -37.171875 L 10.015625 -37.171875 C 10.835938 -38.703125 11.828125 -39.804688 12.984375 -40.484375 C 14.140625 -41.160156 15.585938 -41.5 17.328125 -41.5 C 19.898438 -41.5 21.8125 -40.863281 23.0625 -39.59375 C 24.320312 -38.332031 24.953125 -36.285156 24.953125 -33.453125 L 24.953125 -18.234375 Z M 18.65625 -18.234375 "/></g></g></g><g fill="#808080" fill-opacity="1"><g transform="translate(409.518099, 383.98451)"><g/></g></g><g clip-path="url(#2a77553f9f)"><path fill="#d9d9d9" d="M 466.984375 75.289062 L 653.636719 75.289062 L 653.636719 142.753906 L 466.984375 142.753906 Z M 466.984375 75.289062 " fill-opacity="1" fill-rule="nonzero"/></g><g clip-path="url(#c1f50154b0)"><path fill="#f2f2f2" d="M 466.984375 226.011719 L 653.636719 226.011719 L 653.636719 293.476562 L 466.984375 293.476562 Z M 466.984375 226.011719 " fill-opacity="1" fill-rule="nonzero"/></g><g clip-path="url(#be484ba009)"><path fill="#d9d9d9" d="M 784.703125 302.007812 L 971.355469 302.007812 L 971.355469 369.472656 L 784.703125 369.472656 Z M 784.703125 302.007812 " fill-opacity="1" fill-rule="nonzero"/></g><g clip-path="url(#9acc7f1e2b)"><path fill="#d9d9d9" d="M 980.527344 226.648438 L 1167.179688 226.648438 L 1167.179688 294.113281 L 980.527344 294.113281 Z M 980.527344 226.648438 " fill-opacity="1" fill-rule="nonzero"/></g><g clip-path="url(#6a1e3d03a4)"><g mask="url(#d03d37e2f8)"><g transform="matrix(1, 0, 0, 1, 980, 302)"><g clip-path="url(#b44598e943)"><g clip-path="url(#fcf24cfbe6)"><path fill="#03e313" d="M 0.527344 0.0078125 L 187.179688 0.0078125 L 187.179688 67.472656 L 0.527344 67.472656 Z M 0.527344 0.0078125 " fill-opacity="1" fill-rule="nonzero"/></g></g></g></g></g><g fill="#808080" fill-opacity="1"><g transform="translate(1057.328661, 345.485863)"><g><path d="M 1.046875 0 L 1.046875 -2.859375 C 1.578125 -4.035156 2.335938 -5.1875 3.328125 -6.3125 C 4.316406 -7.4375 5.566406 -8.609375 7.078125 -9.828125 C 8.515625 -10.992188 9.523438 -11.957031 10.109375 -12.71875 C 10.691406 -13.476562 10.984375 -14.226562 10.984375 -14.96875 C 10.984375 -16.757812 10.078125 -17.65625 8.265625 -17.65625 C 7.390625 -17.65625 6.71875 -17.414062 6.25 -16.9375 C 5.789062 -16.46875 5.492188 -15.757812 5.359375 -14.8125 L 1.21875 -15.046875 C 1.445312 -16.960938 2.160156 -18.421875 3.359375 -19.421875 C 4.554688 -20.429688 6.1875 -20.9375 8.25 -20.9375 C 10.46875 -20.9375 12.171875 -20.425781 13.359375 -19.40625 C 14.554688 -18.394531 15.15625 -16.972656 15.15625 -15.140625 C 15.15625 -14.171875 14.960938 -13.296875 14.578125 -12.515625 C 14.203125 -11.734375 13.710938 -11.015625 13.109375 -10.359375 C 12.515625 -9.703125 11.851562 -9.082031 11.125 -8.5 C 10.40625 -7.925781 9.703125 -7.363281 9.015625 -6.8125 C 8.335938 -6.269531 7.71875 -5.71875 7.15625 -5.15625 C 6.59375 -4.601562 6.175781 -4.007812 5.90625 -3.375 L 15.46875 -3.375 L 15.46875 0 Z M 1.046875 0 "/></g></g><g transform="translate(1074.00454, 345.485863)"><g><path d="M 15.84375 -6.859375 C 15.84375 -4.679688 15.160156 -2.941406 13.796875 -1.640625 C 12.429688 -0.347656 10.566406 0.296875 8.203125 0.296875 C 6.128906 0.296875 4.46875 -0.164062 3.21875 -1.09375 C 1.976562 -2.03125 1.210938 -3.382812 0.921875 -5.15625 L 5.03125 -5.484375 C 5.25 -4.609375 5.628906 -3.96875 6.171875 -3.5625 C 6.722656 -3.164062 7.414062 -2.96875 8.25 -2.96875 C 9.269531 -2.96875 10.082031 -3.296875 10.6875 -3.953125 C 11.300781 -4.609375 11.609375 -5.550781 11.609375 -6.78125 C 11.609375 -7.863281 11.316406 -8.726562 10.734375 -9.375 C 10.160156 -10.019531 9.359375 -10.34375 8.328125 -10.34375 C 7.191406 -10.34375 6.257812 -9.898438 5.53125 -9.015625 L 1.515625 -9.015625 L 2.234375 -20.625 L 14.640625 -20.625 L 14.640625 -17.5625 L 5.96875 -17.5625 L 5.640625 -12.359375 C 6.628906 -13.234375 7.875 -13.671875 9.375 -13.671875 C 11.332031 -13.671875 12.898438 -13.0625 14.078125 -11.84375 C 15.253906 -10.625 15.84375 -8.960938 15.84375 -6.859375 Z M 15.84375 -6.859375 "/></g></g></g><g clip-path="url(#55d270f096)"><path fill="#d9d9d9" d="M 784.703125 377.367188 L 971.355469 377.367188 L 971.355469 444.832031 L 784.703125 444.832031 Z M 784.703125 377.367188 " fill-opacity="1" fill-rule="nonzero"/></g><g clip-path="url(#5f5f488abe)"><path fill="#f2f2f2" d="M 980.527344 377.367188 L 1167.179688 377.367188 L 1167.179688 444.832031 L 980.527344 444.832031 Z M 980.527344 377.367188 " fill-opacity="1" fill-rule="nonzero"/></g><g clip-path="url(#d58a555f27)"><path fill="#d9d9d9" d="M 1176.355469 226.648438 L 1363.007812 226.648438 L 1363.007812 294.113281 L 1176.355469 294.113281 Z M 1176.355469 226.648438 " fill-opacity="1" fill-rule="nonzero"/></g><g clip-path="url(#9b75be73b8)"><g mask="url(#62d2cc53ec)"><g transform="matrix(1, 0, 0, 1, 1176, 302)"><g clip-path="url(#6c44525a0b)"><g clip-path="url(#f2e72259ff)"><path fill="#03e313" d="M 0.355469 0.0078125 L 187.007812 0.0078125 L 187.007812 67.472656 L 0.355469 67.472656 Z M 0.355469 0.0078125 " fill-opacity="1" fill-rule="nonzero"/></g></g></g></g></g><g fill="#808080" fill-opacity="1"><g transform="translate(1253.154159, 345.485863)"><g><path d="M 1.890625 0 L 1.890625 -3.0625 L 7 -3.0625 L 7 -17.125 L 2.046875 -14.046875 L 2.046875 -17.28125 L 7.21875 -20.625 L 11.109375 -20.625 L 11.109375 -3.0625 L 15.84375 -3.0625 L 15.84375 0 Z M 1.890625 0 "/></g></g><g transform="translate(1269.830039, 345.485863)"><g><path d="M 15.59375 -6.75 C 15.59375 -4.550781 14.976562 -2.828125 13.75 -1.578125 C 12.519531 -0.328125 10.820312 0.296875 8.65625 0.296875 C 6.21875 0.296875 4.347656 -0.550781 3.046875 -2.25 C 1.742188 -3.957031 1.09375 -6.488281 1.09375 -9.84375 C 1.09375 -13.519531 1.753906 -16.285156 3.078125 -18.140625 C 4.398438 -20.003906 6.289062 -20.9375 8.75 -20.9375 C 10.5 -20.9375 11.878906 -20.550781 12.890625 -19.78125 C 13.898438 -19.007812 14.613281 -17.8125 15.03125 -16.1875 L 11.15625 -15.65625 C 10.78125 -17.007812 9.953125 -17.6875 8.671875 -17.6875 C 7.566406 -17.6875 6.695312 -17.132812 6.0625 -16.03125 C 5.4375 -14.925781 5.125 -13.253906 5.125 -11.015625 C 5.5625 -11.742188 6.171875 -12.300781 6.953125 -12.6875 C 7.734375 -13.082031 8.617188 -13.28125 9.609375 -13.28125 C 11.453125 -13.28125 12.910156 -12.691406 13.984375 -11.515625 C 15.054688 -10.347656 15.59375 -8.757812 15.59375 -6.75 Z M 11.46875 -6.625 C 11.46875 -7.800781 11.195312 -8.695312 10.65625 -9.3125 C 10.113281 -9.9375 9.367188 -10.25 8.421875 -10.25 C 7.515625 -10.25 6.785156 -9.957031 6.234375 -9.375 C 5.691406 -8.789062 5.421875 -8.023438 5.421875 -7.078125 C 5.421875 -5.867188 5.703125 -4.867188 6.265625 -4.078125 C 6.835938 -3.296875 7.585938 -2.90625 8.515625 -2.90625 C 9.441406 -2.90625 10.164062 -3.234375 10.6875 -3.890625 C 11.207031 -4.554688 11.46875 -5.46875 11.46875 -6.625 Z M 11.46875 -6.625 "/></g></g></g><g clip-path="url(#8e47450e2a)"><path fill="#f2f2f2" d="M 1176.355469 377.367188 L 1363.007812 377.367188 L 1363.007812 444.832031 L 1176.355469 444.832031 Z M 1176.355469 377.367188 " fill-opacity="1" fill-rule="nonzero"/></g><g clip-path="url(#a253955ba6)"><g mask="url(#7a1f1a52e8)"><g transform="matrix(1, 0, 0, 1, 271, 150)"><g clip-path="url(#097b4f3e9d)"><g clip-path="url(#e57f167a10)"><path fill="#ffc000" d="M 0.160156 0.652344 L 186.8125 0.652344 L 186.8125 68.117188 L 0.160156 68.117188 Z M 0.160156 0.652344 " fill-opacity="1" fill-rule="nonzero"/></g></g></g></g></g><g fill="#808080" fill-opacity="1"><g transform="translate(356.298662, 194.128522)"><g><path d="M 15.84375 -6.859375 C 15.84375 -4.679688 15.160156 -2.941406 13.796875 -1.640625 C 12.429688 -0.347656 10.566406 0.296875 8.203125 0.296875 C 6.128906 0.296875 4.46875 -0.164062 3.21875 -1.09375 C 1.976562 -2.03125 1.210938 -3.382812 0.921875 -5.15625 L 5.03125 -5.484375 C 5.25 -4.609375 5.628906 -3.96875 6.171875 -3.5625 C 6.722656 -3.164062 7.414062 -2.96875 8.25 -2.96875 C 9.269531 -2.96875 10.082031 -3.296875 10.6875 -3.953125 C 11.300781 -4.609375 11.609375 -5.550781 11.609375 -6.78125 C 11.609375 -7.863281 11.316406 -8.726562 10.734375 -9.375 C 10.160156 -10.019531 9.359375 -10.34375 8.328125 -10.34375 C 7.191406 -10.34375 6.257812 -9.898438 5.53125 -9.015625 L 1.515625 -9.015625 L 2.234375 -20.625 L 14.640625 -20.625 L 14.640625 -17.5625 L 5.96875 -17.5625 L 5.640625 -12.359375 C 6.628906 -13.234375 7.875 -13.671875 9.375 -13.671875 C 11.332031 -13.671875 12.898438 -13.0625 14.078125 -11.84375 C 15.253906 -10.625 15.84375 -8.960938 15.84375 -6.859375 Z M 15.84375 -6.859375 "/></g></g></g><g clip-path="url(#91ba930869)"><g mask="url(#2c34f6c24e)"><g transform="matrix(1, 0, 0, 1, 466, 150)"><g clip-path="url(#a6d80fa736)"><g clip-path="url(#48c56c911f)"><path fill="#ffc000" d="M 0.984375 0.652344 L 187.636719 0.652344 L 187.636719 68.117188 L 0.984375 68.117188 Z M 0.984375 0.652344 " fill-opacity="1" fill-rule="nonzero"/></g></g></g></g></g><g fill="#808080" fill-opacity="1"><g transform="translate(552.124352, 194.128522)"><g><path d="M 1.046875 0 L 1.046875 -2.859375 C 1.578125 -4.035156 2.335938 -5.1875 3.328125 -6.3125 C 4.316406 -7.4375 5.566406 -8.609375 7.078125 -9.828125 C 8.515625 -10.992188 9.523438 -11.957031 10.109375 -12.71875 C 10.691406 -13.476562 10.984375 -14.226562 10.984375 -14.96875 C 10.984375 -16.757812 10.078125 -17.65625 8.265625 -17.65625 C 7.390625 -17.65625 6.71875 -17.414062 6.25 -16.9375 C 5.789062 -16.46875 5.492188 -15.757812 5.359375 -14.8125 L 1.21875 -15.046875 C 1.445312 -16.960938 2.160156 -18.421875 3.359375 -19.421875 C 4.554688 -20.429688 6.1875 -20.9375 8.25 -20.9375 C 10.46875 -20.9375 12.171875 -20.425781 13.359375 -19.40625 C 14.554688 -18.394531 15.15625 -16.972656 15.15625 -15.140625 C 15.15625 -14.171875 14.960938 -13.296875 14.578125 -12.515625 C 14.203125 -11.734375 13.710938 -11.015625 13.109375 -10.359375 C 12.515625 -9.703125 11.851562 -9.082031 11.125 -8.5 C 10.40625 -7.925781 9.703125 -7.363281 9.015625 -6.8125 C 8.335938 -6.269531 7.71875 -5.71875 7.15625 -5.15625 C 6.59375 -4.601562 6.175781 -4.007812 5.90625 -3.375 L 15.46875 -3.375 L 15.46875 0 Z M 1.046875 0 "/></g></g></g><g clip-path="url(#20bbee7791)"><path fill="#d9d9d9" d="M 75.332031 514.71875 L 261.988281 514.71875 L 261.988281 582.183594 L 75.332031 582.183594 Z M 75.332031 514.71875 " fill-opacity="1" fill-rule="nonzero"/></g><g clip-path="url(#4d54ebb57b)"><path fill="#d9d9d9" d="M 271.160156 439.355469 L 457.8125 439.355469 L 457.8125 506.820312 L 271.160156 506.820312 Z M 271.160156 439.355469 " fill-opacity="1" fill-rule="nonzero"/></g><g clip-path="url(#6b23c5b00d)"><path fill="#d9d9d9" d="M 75.332031 590.078125 L 261.988281 590.078125 L 261.988281 657.542969 L 75.332031 657.542969 Z M 75.332031 590.078125 " fill-opacity="1" fill-rule="nonzero"/></g><g clip-path="url(#d1c9d153b4)"><path fill="#f2f2f2" d="M 271.160156 590.078125 L 457.8125 590.078125 L 457.8125 657.542969 L 271.160156 657.542969 Z M 271.160156 590.078125 " fill-opacity="1" fill-rule="nonzero"/></g><g clip-path="url(#ce047bdee9)"><path fill="#d9d9d9" d="M 466.984375 439.355469 L 653.636719 439.355469 L 653.636719 506.820312 L 466.984375 506.820312 Z M 466.984375 439.355469 " fill-opacity="1" fill-rule="nonzero"/></g><g clip-path="url(#eaa5110138)"><path fill="#f2f2f2" d="M 466.984375 590.078125 L 653.636719 590.078125 L 653.636719 657.542969 L 466.984375 657.542969 Z M 466.984375 590.078125 " fill-opacity="1" fill-rule="nonzero"/></g><g clip-path="url(#092569d218)"><g mask="url(#6b7faa33fc)"><g transform="matrix(1, 0, 0, 1, 271, 514)"><g clip-path="url(#9faaa2c0d0)"><g clip-path="url(#b596801060)"><path fill="#ffc000" d="M 0.160156 0.71875 L 186.8125 0.71875 L 186.8125 68.183594 L 0.160156 68.183594 Z M 0.160156 0.71875 " fill-opacity="1" fill-rule="nonzero"/></g></g></g></g></g><g fill="#808080" fill-opacity="1"><g transform="translate(356.298662, 558.19453)"><g><path d="M 1.046875 0 L 1.046875 -2.859375 C 1.578125 -4.035156 2.335938 -5.1875 3.328125 -6.3125 C 4.316406 -7.4375 5.566406 -8.609375 7.078125 -9.828125 C 8.515625 -10.992188 9.523438 -11.957031 10.109375 -12.71875 C 10.691406 -13.476562 10.984375 -14.226562 10.984375 -14.96875 C 10.984375 -16.757812 10.078125 -17.65625 8.265625 -17.65625 C 7.390625 -17.65625 6.71875 -17.414062 6.25 -16.9375 C 5.789062 -16.46875 5.492188 -15.757812 5.359375 -14.8125 L 1.21875 -15.046875 C 1.445312 -16.960938 2.160156 -18.421875 3.359375 -19.421875 C 4.554688 -20.429688 6.1875 -20.9375 8.25 -20.9375 C 10.46875 -20.9375 12.171875 -20.425781 13.359375 -19.40625 C 14.554688 -18.394531 15.15625 -16.972656 15.15625 -15.140625 C 15.15625 -14.171875 14.960938 -13.296875 14.578125 -12.515625 C 14.203125 -11.734375 13.710938 -11.015625 13.109375 -10.359375 C 12.515625 -9.703125 11.851562 -9.082031 11.125 -8.5 C 10.40625 -7.925781 9.703125 -7.363281 9.015625 -6.8125 C 8.335938 -6.269531 7.71875 -5.71875 7.15625 -5.15625 C 6.59375 -4.601562 6.175781 -4.007812 5.90625 -3.375 L 15.46875 -3.375 L 15.46875 0 Z M 1.046875 0 "/></g></g></g><g clip-path="url(#ce4009d535)"><g mask="url(#0264c8d214)"><g transform="matrix(1, 0, 0, 1, 466, 514)"><g clip-path="url(#8988784fcc)"><g clip-path="url(#f3da1a53e7)"><path fill="#ffc000" d="M 0.984375 0.71875 L 187.636719 0.71875 L 187.636719 68.183594 L 0.984375 68.183594 Z M 0.984375 0.71875 " fill-opacity="1" fill-rule="nonzero"/></g></g></g></g></g><g fill="#808080" fill-opacity="1"><g transform="translate(552.124352, 558.19453)"><g><path d="M 15.59375 -5.71875 C 15.59375 -3.789062 14.957031 -2.296875 13.6875 -1.234375 C 12.414062 -0.179688 10.609375 0.34375 8.265625 0.34375 C 6.054688 0.34375 4.296875 -0.164062 2.984375 -1.1875 C 1.679688 -2.207031 0.914062 -3.679688 0.6875 -5.609375 L 4.875 -5.96875 C 5.132812 -3.988281 6.257812 -3 8.25 -3 C 9.238281 -3 10.003906 -3.242188 10.546875 -3.734375 C 11.097656 -4.222656 11.375 -4.96875 11.375 -5.96875 C 11.375 -6.882812 11.039062 -7.585938 10.375 -8.078125 C 9.71875 -8.566406 8.734375 -8.8125 7.421875 -8.8125 L 5.984375 -8.8125 L 5.984375 -12.140625 L 7.328125 -12.140625 C 8.515625 -12.140625 9.40625 -12.378906 10 -12.859375 C 10.59375 -13.347656 10.890625 -14.039062 10.890625 -14.9375 C 10.890625 -15.78125 10.648438 -16.441406 10.171875 -16.921875 C 9.703125 -17.410156 9.015625 -17.65625 8.109375 -17.65625 C 7.265625 -17.65625 6.578125 -17.421875 6.046875 -16.953125 C 5.523438 -16.484375 5.226562 -15.820312 5.15625 -14.96875 L 1.046875 -15.25 C 1.253906 -17.03125 1.988281 -18.421875 3.25 -19.421875 C 4.507812 -20.429688 6.15625 -20.9375 8.1875 -20.9375 C 10.34375 -20.9375 12.023438 -20.445312 13.234375 -19.46875 C 14.453125 -18.5 15.0625 -17.160156 15.0625 -15.453125 C 15.0625 -14.160156 14.679688 -13.097656 13.921875 -12.265625 C 13.171875 -11.441406 12.082031 -10.890625 10.65625 -10.609375 L 10.65625 -10.5625 C 12.238281 -10.375 13.457031 -9.851562 14.3125 -9 C 15.164062 -8.144531 15.59375 -7.050781 15.59375 -5.71875 Z M 15.59375 -5.71875 "/></g></g></g><g fill="#808080" fill-opacity="1"><g transform="translate(702.132637, 383.98451)"><g><path d="M 2.984375 -29.59375 L 2.984375 -37.421875 L 39.078125 -37.421875 L 39.078125 -29.59375 Z M 2.984375 -10.21875 L 2.984375 -18 L 39.078125 -18 L 39.078125 -10.21875 Z M 2.984375 -10.21875 "/></g></g></g></svg>