<svg xmlns="http://www.w3.org/2000/svg" xmlns:xlink="http://www.w3.org/1999/xlink" width="867" zoomAndPan="magnify" viewBox="0 0 650.25 449.249995" height="599" preserveAspectRatio="xMidYMid meet" version="1.0"><defs><filter x="0%" y="0%" width="100%" height="100%" id="374e199b47"><feColorMatrix values="0 0 0 0 1 0 0 0 0 1 0 0 0 0 1 0 0 0 1 0" color-interpolation-filters="sRGB"/></filter><g/><clipPath id="4a2d4ee1f4"><path d="M 119.4375 75.085938 L 234 75.085938 L 234 116.402344 L 119.4375 116.402344 Z M 119.4375 75.085938 " clip-rule="nonzero"/></clipPath><clipPath id="85daf7a44e"><path d="M 238.457031 75.085938 L 344.59375 75.085938 L 344.59375 116.402344 L 238.457031 116.402344 Z M 238.457031 75.085938 " clip-rule="nonzero"/></clipPath><clipPath id="000f8ebb8d"><path d="M 128.078125 120.980469 L 234.214844 120.980469 L 234.214844 159.191406 L 128.078125 159.191406 Z M 128.078125 120.980469 " clip-rule="nonzero"/></clipPath><mask id="ad5201c223"><g filter="url(#374e199b47)"><rect x="-65.025" width="780.3" fill="#000000" y="-44.924999" height="539.099994" fill-opacity="0.498"/></g></mask><clipPath id="cc3755ad59"><path d="M 0.078125 0.980469 L 106.214844 0.980469 L 106.214844 39.191406 L 0.078125 39.191406 Z M 0.078125 0.980469 " clip-rule="nonzero"/></clipPath><clipPath id="c91642229b"><rect x="0" width="107" y="0" height="40"/></clipPath><clipPath id="b88fed83d2"><path d="M 238.457031 120.980469 L 344.59375 120.980469 L 344.59375 159.191406 L 238.457031 159.191406 Z M 238.457031 120.980469 " clip-rule="nonzero"/></clipPath><mask id="460310183f"><g filter="url(#374e199b47)"><rect x="-65.025" width="780.3" fill="#000000" y="-44.924999" height="539.099994" fill-opacity="0.349"/></g></mask><clipPath id="65d8de32a4"><path d="M 0.457031 0.980469 L 106.59375 0.980469 L 106.59375 39.191406 L 0.457031 39.191406 Z M 0.457031 0.980469 " clip-rule="nonzero"/></clipPath><clipPath id="1997c6ec22"><rect x="0" width="107" y="0" height="40"/></clipPath><clipPath id="0cdd511347"><path d="M 348.835938 75.085938 L 454.972656 75.085938 L 454.972656 116.402344 L 348.835938 116.402344 Z M 348.835938 75.085938 " clip-rule="nonzero"/></clipPath><clipPath id="8694529417"><path d="M 459.21875 75.085938 L 573.992188 75.085938 L 573.992188 116.402344 L 459.21875 116.402344 Z M 459.21875 75.085938 " clip-rule="nonzero"/></clipPath><clipPath id="682622670d"><path d="M 348.835938 120.980469 L 454.972656 120.980469 L 454.972656 159.191406 L 348.835938 159.191406 Z M 348.835938 120.980469 " clip-rule="nonzero"/></clipPath><mask id="cfaa414303"><g filter="url(#374e199b47)"><rect x="-65.025" width="780.3" fill="#000000" y="-44.924999" height="539.099994" fill-opacity="0.349"/></g></mask><clipPath id="783930c74d"><path d="M 0.835938 0.980469 L 106.972656 0.980469 L 106.972656 39.191406 L 0.835938 39.191406 Z M 0.835938 0.980469 " clip-rule="nonzero"/></clipPath><clipPath id="17dc543558"><rect x="0" width="107" y="0" height="40"/></clipPath><clipPath id="24d10ac8d4"><path d="M 459.21875 120.980469 L 565.351562 120.980469 L 565.351562 159.191406 L 459.21875 159.191406 Z M 459.21875 120.980469 " clip-rule="nonzero"/></clipPath><mask id="55712c67db"><g filter="url(#374e199b47)"><rect x="-65.025" width="780.3" fill="#000000" y="-44.924999" height="539.099994" fill-opacity="0.349"/></g></mask><clipPath id="aee80f35d8"><path d="M 0.21875 0.980469 L 106.351562 0.980469 L 106.351562 39.191406 L 0.21875 39.191406 Z M 0.21875 0.980469 " clip-rule="nonzero"/></clipPath><clipPath id="ca2d2d8464"><rect x="0" width="107" y="0" height="40"/></clipPath><clipPath id="4a2c6e3386"><path d="M 128.078125 163.765625 L 234.214844 163.765625 L 234.214844 201.972656 L 128.078125 201.972656 Z M 128.078125 163.765625 " clip-rule="nonzero"/></clipPath><mask id="f6c5e62458"><g filter="url(#374e199b47)"><rect x="-65.025" width="780.3" fill="#000000" y="-44.924999" height="539.099994" fill-opacity="0.498"/></g></mask><clipPath id="17c26ceefe"><path d="M 0.078125 0.765625 L 106.214844 0.765625 L 106.214844 38.972656 L 0.078125 38.972656 Z M 0.078125 0.765625 " clip-rule="nonzero"/></clipPath><clipPath id="69213b0cf8"><rect x="0" width="107" y="0" height="39"/></clipPath><clipPath id="eee8a54987"><path d="M 238.457031 163.765625 L 344.59375 163.765625 L 344.59375 201.972656 L 238.457031 201.972656 Z M 238.457031 163.765625 " clip-rule="nonzero"/></clipPath><mask id="87ade2f750"><g filter="url(#374e199b47)"><rect x="-65.025" width="780.3" fill="#000000" y="-44.924999" height="539.099994" fill-opacity="0.349"/></g></mask><clipPath id="83e7f7277f"><path d="M 0.457031 0.765625 L 106.59375 0.765625 L 106.59375 38.972656 L 0.457031 38.972656 Z M 0.457031 0.765625 " clip-rule="nonzero"/></clipPath><clipPath id="3851fe66a6"><rect x="0" width="107" y="0" height="39"/></clipPath><clipPath id="2388440066"><path d="M 128.078125 206.546875 L 234.214844 206.546875 L 234.214844 244.757812 L 128.078125 244.757812 Z M 128.078125 206.546875 " clip-rule="nonzero"/></clipPath><mask id="7e98697f49"><g filter="url(#374e199b47)"><rect x="-65.025" width="780.3" fill="#000000" y="-44.924999" height="539.099994" fill-opacity="0.498"/></g></mask><clipPath id="7459117dd5"><path d="M 0.078125 0.546875 L 106.214844 0.546875 L 106.214844 38.757812 L 0.078125 38.757812 Z M 0.078125 0.546875 " clip-rule="nonzero"/></clipPath><clipPath id="b13e5f999d"><rect x="0" width="107" y="0" height="39"/></clipPath><clipPath id="4ab286bc48"><path d="M 238.457031 206.546875 L 344.59375 206.546875 L 344.59375 244.757812 L 238.457031 244.757812 Z M 238.457031 206.546875 " clip-rule="nonzero"/></clipPath><mask id="ffbaa2862e"><g filter="url(#374e199b47)"><rect x="-65.025" width="780.3" fill="#000000" y="-44.924999" height="539.099994" fill-opacity="0.349"/></g></mask><clipPath id="40c62ecf90"><path d="M 0.457031 0.546875 L 106.59375 0.546875 L 106.59375 38.757812 L 0.457031 38.757812 Z M 0.457031 0.546875 " clip-rule="nonzero"/></clipPath><clipPath id="c14447081f"><rect x="0" width="107" y="0" height="39"/></clipPath><clipPath id="3b59f7ab0b"><path d="M 348.835938 163.765625 L 454.972656 163.765625 L 454.972656 201.972656 L 348.835938 201.972656 Z M 348.835938 163.765625 " clip-rule="nonzero"/></clipPath><mask id="34cfe2e613"><g filter="url(#374e199b47)"><rect x="-65.025" width="780.3" fill="#000000" y="-44.924999" height="539.099994" fill-opacity="0.349"/></g></mask><clipPath id="2bfbc0cf55"><path d="M 0.835938 0.765625 L 106.972656 0.765625 L 106.972656 38.972656 L 0.835938 38.972656 Z M 0.835938 0.765625 " clip-rule="nonzero"/></clipPath><clipPath id="79ff6b2a9d"><rect x="0" width="107" y="0" height="39"/></clipPath><clipPath id="072d647962"><path d="M 459.21875 163.765625 L 565.351562 163.765625 L 565.351562 201.972656 L 459.21875 201.972656 Z M 459.21875 163.765625 " clip-rule="nonzero"/></clipPath><mask id="b68af592cd"><g filter="url(#374e199b47)"><rect x="-65.025" width="780.3" fill="#000000" y="-44.924999" height="539.099994" fill-opacity="0.349"/></g></mask><clipPath id="3addcc3d52"><path d="M 0.21875 0.765625 L 106.351562 0.765625 L 106.351562 38.972656 L 0.21875 38.972656 Z M 0.21875 0.765625 " clip-rule="nonzero"/></clipPath><clipPath id="a7e7d454a0"><rect x="0" width="107" y="0" height="39"/></clipPath><clipPath id="37b9dd374c"><path d="M 348.835938 206.546875 L 454.972656 206.546875 L 454.972656 244.757812 L 348.835938 244.757812 Z M 348.835938 206.546875 " clip-rule="nonzero"/></clipPath><mask id="8a1c39a3dd"><g filter="url(#374e199b47)"><rect x="-65.025" width="780.3" fill="#000000" y="-44.924999" height="539.099994" fill-opacity="0.349"/></g></mask><clipPath id="6832c1fcdd"><path d="M 0.835938 0.546875 L 106.972656 0.546875 L 106.972656 38.757812 L 0.835938 38.757812 Z M 0.835938 0.546875 " clip-rule="nonzero"/></clipPath><clipPath id="106fd00e8a"><rect x="0" width="107" y="0" height="39"/></clipPath><clipPath id="e757ab0bfb"><path d="M 459.21875 206.546875 L 565.351562 206.546875 L 565.351562 244.757812 L 459.21875 244.757812 Z M 459.21875 206.546875 " clip-rule="nonzero"/></clipPath><mask id="655a35adbf"><g filter="url(#374e199b47)"><rect x="-65.025" width="780.3" fill="#000000" y="-44.924999" height="539.099994" fill-opacity="0.349"/></g></mask><clipPath id="ba378ac553"><path d="M 0.21875 0.546875 L 106.351562 0.546875 L 106.351562 38.757812 L 0.21875 38.757812 Z M 0.21875 0.546875 " clip-rule="nonzero"/></clipPath><clipPath id="8b4d62e777"><rect x="0" width="107" y="0" height="39"/></clipPath><clipPath id="3c44a88f00"><path d="M 128.078125 249.332031 L 234.214844 249.332031 L 234.214844 287.542969 L 128.078125 287.542969 Z M 128.078125 249.332031 " clip-rule="nonzero"/></clipPath><clipPath id="e9289bd0ab"><path d="M 238.457031 249.332031 L 344.59375 249.332031 L 344.59375 287.542969 L 238.457031 287.542969 Z M 238.457031 249.332031 " clip-rule="nonzero"/></clipPath><clipPath id="c92d5164f5"><path d="M 348.835938 249.332031 L 454.972656 249.332031 L 454.972656 287.542969 L 348.835938 287.542969 Z M 348.835938 249.332031 " clip-rule="nonzero"/></clipPath><clipPath id="5fedb0522d"><path d="M 459.21875 249.332031 L 565.351562 249.332031 L 565.351562 287.542969 L 459.21875 287.542969 Z M 459.21875 249.332031 " clip-rule="nonzero"/></clipPath><clipPath id="79c8ac92fb"><path d="M 128.078125 292.117188 L 234.214844 292.117188 L 234.214844 330.324219 L 128.078125 330.324219 Z M 128.078125 292.117188 " clip-rule="nonzero"/></clipPath><clipPath id="5565a22fb3"><path d="M 238.457031 292.117188 L 344.59375 292.117188 L 344.59375 330.324219 L 238.457031 330.324219 Z M 238.457031 292.117188 " clip-rule="nonzero"/></clipPath><clipPath id="68180a84e6"><path d="M 348.835938 292.117188 L 454.972656 292.117188 L 454.972656 330.324219 L 348.835938 330.324219 Z M 348.835938 292.117188 " clip-rule="nonzero"/></clipPath><clipPath id="bb63d3b9e9"><path d="M 459.21875 292.117188 L 565.351562 292.117188 L 565.351562 330.324219 L 459.21875 330.324219 Z M 459.21875 292.117188 " clip-rule="nonzero"/></clipPath><clipPath id="f0d153c426"><path d="M 128.078125 334.898438 L 234.214844 334.898438 L 234.214844 373.109375 L 128.078125 373.109375 Z M 128.078125 334.898438 " clip-rule="nonzero"/></clipPath><clipPath id="23ed6b03cb"><path d="M 238.457031 334.898438 L 344.59375 334.898438 L 344.59375 373.109375 L 238.457031 373.109375 Z M 238.457031 334.898438 " clip-rule="nonzero"/></clipPath><clipPath id="aa1b6065d5"><path d="M 348.835938 334.898438 L 454.972656 334.898438 L 454.972656 373.109375 L 348.835938 373.109375 Z M 348.835938 334.898438 " clip-rule="nonzero"/></clipPath><clipPath id="04cd6f81b2"><path d="M 459.21875 334.898438 L 565.351562 334.898438 L 565.351562 373.109375 L 459.21875 373.109375 Z M 459.21875 334.898438 " clip-rule="nonzero"/></clipPath></defs><g clip-path="url(#4a2d4ee1f4)"><path fill="#d9d9d9" d="M 119.4375 75.085938 L 233.996094 75.085938 L 233.996094 116.269531 L 119.4375 116.269531 Z M 119.4375 75.085938 " fill-opacity="1" fill-rule="nonzero"/></g><g clip-path="url(#85daf7a44e)"><path fill="#d9d9d9" d="M 238.457031 75.085938 L 344.78125 75.085938 L 344.78125 116.269531 L 238.457031 116.269531 Z M 238.457031 75.085938 " fill-opacity="1" fill-rule="nonzero"/></g><g clip-path="url(#000f8ebb8d)"><g mask="url(#ad5201c223)"><g transform="matrix(1, 0, 0, 1, 128, 120)"><g clip-path="url(#c91642229b)"><g clip-path="url(#cc3755ad59)"><path fill="#03e313" d="M 0.078125 0.980469 L 106.402344 0.980469 L 106.402344 39.167969 L 0.078125 39.167969 Z M 0.078125 0.980469 " fill-opacity="1" fill-rule="nonzero"/></g></g></g></g></g><g clip-path="url(#b88fed83d2)"><g mask="url(#460310183f)"><g transform="matrix(1, 0, 0, 1, 238, 120)"><g clip-path="url(#1997c6ec22)"><g clip-path="url(#65d8de32a4)"><path fill="#03e313" d="M 0.457031 0.980469 L 106.78125 0.980469 L 106.78125 39.167969 L 0.457031 39.167969 Z M 0.457031 0.980469 " fill-opacity="1" fill-rule="nonzero"/></g></g></g></g></g><g clip-path="url(#0cdd511347)"><path fill="#d9d9d9" d="M 348.835938 75.085938 L 455.160156 75.085938 L 455.160156 116.269531 L 348.835938 116.269531 Z M 348.835938 75.085938 " fill-opacity="1" fill-rule="nonzero"/></g><g clip-path="url(#8694529417)"><path fill="#d9d9d9" d="M 459.21875 75.085938 L 573.777344 75.085938 L 573.777344 116.269531 L 459.21875 116.269531 Z M 459.21875 75.085938 " fill-opacity="1" fill-rule="nonzero"/></g><g clip-path="url(#682622670d)"><g mask="url(#cfaa414303)"><g transform="matrix(1, 0, 0, 1, 348, 120)"><g clip-path="url(#17dc543558)"><g clip-path="url(#783930c74d)"><path fill="#03e313" d="M 0.835938 0.980469 L 107.160156 0.980469 L 107.160156 39.167969 L 0.835938 39.167969 Z M 0.835938 0.980469 " fill-opacity="1" fill-rule="nonzero"/></g></g></g></g></g><g clip-path="url(#24d10ac8d4)"><g mask="url(#55712c67db)"><g transform="matrix(1, 0, 0, 1, 459, 120)"><g clip-path="url(#ca2d2d8464)"><g clip-path="url(#aee80f35d8)"><path fill="#03e313" d="M 0.21875 0.980469 L 106.539062 0.980469 L 106.539062 39.167969 L 0.21875 39.167969 Z M 0.21875 0.980469 " fill-opacity="1" fill-rule="nonzero"/></g></g></g></g></g><g clip-path="url(#4a2c6e3386)"><g mask="url(#f6c5e62458)"><g transform="matrix(1, 0, 0, 1, 128, 163)"><g clip-path="url(#69213b0cf8)"><g clip-path="url(#17c26ceefe)"><path fill="#03e313" d="M 0.078125 0.765625 L 106.402344 0.765625 L 106.402344 38.953125 L 0.078125 38.953125 Z M 0.078125 0.765625 " fill-opacity="1" fill-rule="nonzero"/></g></g></g></g></g><g clip-path="url(#eee8a54987)"><g mask="url(#87ade2f750)"><g transform="matrix(1, 0, 0, 1, 238, 163)"><g clip-path="url(#3851fe66a6)"><g clip-path="url(#83e7f7277f)"><path fill="#03e313" d="M 0.457031 0.765625 L 106.78125 0.765625 L 106.78125 38.953125 L 0.457031 38.953125 Z M 0.457031 0.765625 " fill-opacity="1" fill-rule="nonzero"/></g></g></g></g></g><g clip-path="url(#2388440066)"><g mask="url(#7e98697f49)"><g transform="matrix(1, 0, 0, 1, 128, 206)"><g clip-path="url(#b13e5f999d)"><g clip-path="url(#7459117dd5)"><path fill="#03e313" d="M 0.078125 0.546875 L 106.402344 0.546875 L 106.402344 38.734375 L 0.078125 38.734375 Z M 0.078125 0.546875 " fill-opacity="1" fill-rule="nonzero"/></g></g></g></g></g><g clip-path="url(#4ab286bc48)"><g mask="url(#ffbaa2862e)"><g transform="matrix(1, 0, 0, 1, 238, 206)"><g clip-path="url(#c14447081f)"><g clip-path="url(#40c62ecf90)"><path fill="#03e313" d="M 0.457031 0.546875 L 106.78125 0.546875 L 106.78125 38.734375 L 0.457031 38.734375 Z M 0.457031 0.546875 " fill-opacity="1" fill-rule="nonzero"/></g></g></g></g></g><g clip-path="url(#3b59f7ab0b)"><g mask="url(#34cfe2e613)"><g transform="matrix(1, 0, 0, 1, 348, 163)"><g clip-path="url(#79ff6b2a9d)"><g clip-path="url(#2bfbc0cf55)"><path fill="#03e313" d="M 0.835938 0.765625 L 107.160156 0.765625 L 107.160156 38.953125 L 0.835938 38.953125 Z M 0.835938 0.765625 " fill-opacity="1" fill-rule="nonzero"/></g></g></g></g></g><g clip-path="url(#072d647962)"><g mask="url(#b68af592cd)"><g transform="matrix(1, 0, 0, 1, 459, 163)"><g clip-path="url(#a7e7d454a0)"><g clip-path="url(#3addcc3d52)"><path fill="#03e313" d="M 0.21875 0.765625 L 106.539062 0.765625 L 106.539062 38.953125 L 0.21875 38.953125 Z M 0.21875 0.765625 " fill-opacity="1" fill-rule="nonzero"/></g></g></g></g></g><g clip-path="url(#37b9dd374c)"><g mask="url(#8a1c39a3dd)"><g transform="matrix(1, 0, 0, 1, 348, 206)"><g clip-path="url(#106fd00e8a)"><g clip-path="url(#6832c1fcdd)"><path fill="#03e313" d="M 0.835938 0.546875 L 107.160156 0.546875 L 107.160156 38.734375 L 0.835938 38.734375 Z M 0.835938 0.546875 " fill-opacity="1" fill-rule="nonzero"/></g></g></g></g></g><g clip-path="url(#e757ab0bfb)"><g mask="url(#655a35adbf)"><g transform="matrix(1, 0, 0, 1, 459, 206)"><g clip-path="url(#8b4d62e777)"><g clip-path="url(#ba378ac553)"><path fill="#03e313" d="M 0.21875 0.546875 L 106.539062 0.546875 L 106.539062 38.734375 L 0.21875 38.734375 Z M 0.21875 0.546875 " fill-opacity="1" fill-rule="nonzero"/></g></g></g></g></g><g clip-path="url(#3c44a88f00)"><path fill="#d9d9d9" d="M 128.078125 249.332031 L 234.402344 249.332031 L 234.402344 287.519531 L 128.078125 287.519531 Z M 128.078125 249.332031 " fill-opacity="1" fill-rule="nonzero"/></g><g clip-path="url(#e9289bd0ab)"><path fill="#f2f2f2" d="M 238.457031 249.332031 L 344.78125 249.332031 L 344.78125 287.519531 L 238.457031 287.519531 Z M 238.457031 249.332031 " fill-opacity="1" fill-rule="nonzero"/></g><g clip-path="url(#c92d5164f5)"><path fill="#f2f2f2" d="M 348.835938 249.332031 L 455.160156 249.332031 L 455.160156 287.519531 L 348.835938 287.519531 Z M 348.835938 249.332031 " fill-opacity="1" fill-rule="nonzero"/></g><g clip-path="url(#5fedb0522d)"><path fill="#f2f2f2" d="M 459.21875 249.332031 L 565.539062 249.332031 L 565.539062 287.519531 L 459.21875 287.519531 Z M 459.21875 249.332031 " fill-opacity="1" fill-rule="nonzero"/></g><g clip-path="url(#79c8ac92fb)"><path fill="#d9d9d9" d="M 128.078125 292.117188 L 234.402344 292.117188 L 234.402344 330.300781 L 128.078125 330.300781 Z M 128.078125 292.117188 " fill-opacity="1" fill-rule="nonzero"/></g><g clip-path="url(#5565a22fb3)"><path fill="#f2f2f2" d="M 238.457031 292.117188 L 344.78125 292.117188 L 344.78125 330.300781 L 238.457031 330.300781 Z M 238.457031 292.117188 " fill-opacity="1" fill-rule="nonzero"/></g><g clip-path="url(#68180a84e6)"><path fill="#f2f2f2" d="M 348.835938 292.117188 L 455.160156 292.117188 L 455.160156 330.300781 L 348.835938 330.300781 Z M 348.835938 292.117188 " fill-opacity="1" fill-rule="nonzero"/></g><g clip-path="url(#bb63d3b9e9)"><path fill="#f2f2f2" d="M 459.21875 292.117188 L 565.539062 292.117188 L 565.539062 330.300781 L 459.21875 330.300781 Z M 459.21875 292.117188 " fill-opacity="1" fill-rule="nonzero"/></g><g clip-path="url(#f0d153c426)"><path fill="#d9d9d9" d="M 128.078125 334.898438 L 234.402344 334.898438 L 234.402344 373.085938 L 128.078125 373.085938 Z M 128.078125 334.898438 " fill-opacity="1" fill-rule="nonzero"/></g><g clip-path="url(#23ed6b03cb)"><path fill="#f2f2f2" d="M 238.457031 334.898438 L 344.78125 334.898438 L 344.78125 373.085938 L 238.457031 373.085938 Z M 238.457031 334.898438 " fill-opacity="1" fill-rule="nonzero"/></g><g clip-path="url(#aa1b6065d5)"><path fill="#f2f2f2" d="M 348.835938 334.898438 L 455.160156 334.898438 L 455.160156 373.085938 L 348.835938 373.085938 Z M 348.835938 334.898438 " fill-opacity="1" fill-rule="nonzero"/></g><g clip-path="url(#04cd6f81b2)"><path fill="#f2f2f2" d="M 459.21875 334.898438 L 565.539062 334.898438 L 565.539062 373.085938 L 459.21875 373.085938 Z M 459.21875 334.898438 " fill-opacity="1" fill-rule="nonzero"/></g><g fill="#808080" fill-opacity="1"><g transform="translate(75.402822, 196.066256)"><g><path d="M 16.890625 0 L 16.890625 -14.046875 C 16.890625 -15.503906 16.742188 -16.632812 16.453125 -17.4375 C 16.171875 -18.25 15.71875 -18.832031 15.09375 -19.1875 C 14.46875 -19.539062 13.546875 -19.71875 12.328125 -19.71875 C 10.554688 -19.71875 9.15625 -19.109375 8.125 -17.890625 C 7.101562 -16.679688 6.59375 -15 6.59375 -12.84375 L 6.59375 0 L 2.90625 0 L 2.90625 -17.421875 C 2.90625 -20.003906 2.863281 -21.582031 2.78125 -22.15625 L 6.265625 -22.15625 C 6.273438 -22.082031 6.285156 -21.894531 6.296875 -21.59375 C 6.316406 -21.300781 6.335938 -20.957031 6.359375 -20.5625 C 6.378906 -20.175781 6.40625 -19.445312 6.4375 -18.375 L 6.484375 -18.375 C 7.335938 -19.894531 8.316406 -20.972656 9.421875 -21.609375 C 10.535156 -22.242188 11.921875 -22.5625 13.578125 -22.5625 C 16.003906 -22.5625 17.78125 -21.957031 18.90625 -20.75 C 20.03125 -19.539062 20.59375 -17.546875 20.59375 -14.765625 L 20.59375 0 Z M 16.890625 0 "/></g></g></g></svg>