<svg xmlns="http://www.w3.org/2000/svg" xmlns:xlink="http://www.w3.org/1999/xlink" width="1810" zoomAndPan="magnify" viewBox="0 0 1357.5 368.999991" height="492" preserveAspectRatio="xMidYMid meet" version="1.0"><defs><filter x="0%" y="0%" width="100%" height="100%" id="6a64ba1d21"><feColorMatrix values="0 0 0 0 1 0 0 0 0 1 0 0 0 0 1 0 0 0 1 0" color-interpolation-filters="sRGB"/></filter><g/><clipPath id="6bb35ebcdb"><path d="M 574.28125 160.753906 L 672.53125 160.753906 L 672.53125 223 L 574.28125 223 Z M 574.28125 160.753906 " clip-rule="nonzero"/></clipPath><clipPath id="6a753a5d61"><path d="M 574.28125 176.203125 L 641.1875 176.203125 L 641.1875 160.753906 L 672.085938 191.652344 L 641.1875 222.554688 L 641.1875 207.101562 L 574.28125 207.101562 L 574.28125 176.203125 " clip-rule="nonzero"/></clipPath><mask id="f0530c27a3"><g filter="url(#6a64ba1d21)"><rect x="-135.75" width="1629" fill="#000000" y="-36.899999" height="442.799989" fill-opacity="0.4"/></g></mask><clipPath id="ed6845a285"><path d="M 0.28125 0.753906 L 98 0.753906 L 98 62.707031 L 0.28125 62.707031 Z M 0.28125 0.753906 " clip-rule="nonzero"/></clipPath><clipPath id="e484605394"><path d="M 0.28125 16.203125 L 67.1875 16.203125 L 67.1875 0.753906 L 98.085938 31.652344 L 67.1875 62.554688 L 67.1875 47.101562 L 0.28125 47.101562 L 0.28125 16.203125 " clip-rule="nonzero"/></clipPath><clipPath id="55bbdb34e4"><rect x="0" width="99" y="0" height="63"/></clipPath><clipPath id="ce4bed02f1"><path d="M 214.632812 75.625 L 401.675781 75.625 L 401.675781 293.761719 L 214.632812 293.761719 Z M 214.632812 75.625 " clip-rule="nonzero"/></clipPath><mask id="3c5fcaa767"><g filter="url(#6a64ba1d21)"><rect x="-135.75" width="1629" fill="#000000" y="-36.899999" height="442.799989" fill-opacity="0.498"/></g></mask><clipPath id="2bca271337"><path d="M 0.632812 0.625 L 187.675781 0.625 L 187.675781 218.761719 L 0.632812 218.761719 Z M 0.632812 0.625 " clip-rule="nonzero"/></clipPath><clipPath id="a9ea96f6a0"><rect x="0" width="188" y="0" height="219"/></clipPath><clipPath id="f50ce2d928"><path d="M 349.171875 75.414062 L 401.671875 75.414062 L 401.671875 127.914062 L 349.171875 127.914062 Z M 349.171875 75.414062 " clip-rule="nonzero"/></clipPath><clipPath id="024df30efe"><path d="M 401.671875 75.734375 L 401.671875 127.914062 L 349.496094 75.734375 L 401.671875 75.734375 " clip-rule="nonzero"/></clipPath><clipPath id="67b9baeb7b"><path d="M 349.5 75.269531 L 402 75.269531 L 402 127.769531 L 349.5 127.769531 Z M 349.5 75.269531 " clip-rule="nonzero"/></clipPath><clipPath id="3cdda524a0"><path d="M 349.5 127.445312 L 349.5 75.269531 L 401.679688 127.445312 L 349.5 127.445312 " clip-rule="nonzero"/></clipPath><clipPath id="de065843b2"><path d="M 702.960938 150.550781 L 890 150.550781 L 890 217.886719 L 702.960938 217.886719 Z M 702.960938 150.550781 " clip-rule="nonzero"/></clipPath><clipPath id="56078f3361"><path d="M 898.886719 75.152344 L 1085.929688 75.152344 L 1085.929688 142.488281 L 898.886719 142.488281 Z M 898.886719 75.152344 " clip-rule="nonzero"/></clipPath><clipPath id="4e4b4ab91f"><path d="M 702.960938 225.953125 L 890 225.953125 L 890 293.285156 L 702.960938 293.285156 Z M 702.960938 225.953125 " clip-rule="nonzero"/></clipPath><clipPath id="4e83555099"><path d="M 898.886719 225.953125 L 1085.929688 225.953125 L 1085.929688 293.285156 L 898.886719 293.285156 Z M 898.886719 225.953125 " clip-rule="nonzero"/></clipPath><mask id="bfd1ae722e"><g filter="url(#6a64ba1d21)"><rect x="-135.75" width="1629" fill="#000000" y="-36.899999" height="442.799989" fill-opacity="0.498"/></g></mask><clipPath id="2097f299c2"><path d="M 0.886719 0.953125 L 187.929688 0.953125 L 187.929688 68.285156 L 0.886719 68.285156 Z M 0.886719 0.953125 " clip-rule="nonzero"/></clipPath><clipPath id="d04889e2b7"><rect x="0" width="188" y="0" height="69"/></clipPath><clipPath id="0991c374b5"><path d="M 1094.816406 75.152344 L 1281.859375 75.152344 L 1281.859375 142.488281 L 1094.816406 142.488281 Z M 1094.816406 75.152344 " clip-rule="nonzero"/></clipPath><clipPath id="7502437356"><path d="M 1094.816406 225.953125 L 1281.859375 225.953125 L 1281.859375 293.285156 L 1094.816406 293.285156 Z M 1094.816406 225.953125 " clip-rule="nonzero"/></clipPath><mask id="dd41875d42"><g filter="url(#6a64ba1d21)"><rect x="-135.75" width="1629" fill="#000000" y="-36.899999" height="442.799989" fill-opacity="0.498"/></g></mask><clipPath id="c0213f8f3d"><path d="M 0.816406 0.953125 L 187.859375 0.953125 L 187.859375 68.285156 L 0.816406 68.285156 Z M 0.816406 0.953125 " clip-rule="nonzero"/></clipPath><clipPath id="7104278ee7"><rect x="0" width="188" y="0" height="69"/></clipPath><clipPath id="fd60cc1e3b"><path d="M 898.886719 150.550781 L 1085.929688 150.550781 L 1085.929688 217.886719 L 898.886719 217.886719 Z M 898.886719 150.550781 " clip-rule="nonzero"/></clipPath><mask id="8803cd7e8c"><g filter="url(#6a64ba1d21)"><rect x="-135.75" width="1629" fill="#000000" y="-36.899999" height="442.799989" fill-opacity="0.498"/></g></mask><clipPath id="3e56a9f065"><path d="M 0.886719 0.550781 L 187.929688 0.550781 L 187.929688 67.886719 L 0.886719 67.886719 Z M 0.886719 0.550781 " clip-rule="nonzero"/></clipPath><clipPath id="ddd7370183"><rect x="0" width="188" y="0" height="68"/></clipPath><clipPath id="5ba326b3e1"><path d="M 1094.816406 150.550781 L 1281.859375 150.550781 L 1281.859375 217.886719 L 1094.816406 217.886719 Z M 1094.816406 150.550781 " clip-rule="nonzero"/></clipPath><mask id="f9535330e1"><g filter="url(#6a64ba1d21)"><rect x="-135.75" width="1629" fill="#000000" y="-36.899999" height="442.799989" fill-opacity="0.498"/></g></mask><clipPath id="1f6e194670"><path d="M 0.816406 0.550781 L 187.859375 0.550781 L 187.859375 67.886719 L 0.816406 67.886719 Z M 0.816406 0.550781 " clip-rule="nonzero"/></clipPath><clipPath id="3bf49153cb"><rect x="0" width="188" y="0" height="68"/></clipPath><clipPath id="71bf61097a"><path d="M 920.175781 175.519531 L 1067.539062 175.519531 L 1067.539062 193.894531 L 920.175781 193.894531 Z M 920.175781 175.519531 " clip-rule="nonzero"/></clipPath><clipPath id="56a70b7e86"><path d="M 920.585938 249.175781 L 993.855469 249.175781 L 993.855469 267.550781 L 920.585938 267.550781 Z M 920.585938 249.175781 " clip-rule="nonzero"/></clipPath><clipPath id="3adeac4970"><path d="M 1113.652344 175.519531 L 1193 175.519531 L 1193 193.894531 L 1113.652344 193.894531 Z M 1113.652344 175.519531 " clip-rule="nonzero"/></clipPath><clipPath id="e530724443"><path d="M 1114.0625 249.175781 L 1261.015625 249.175781 L 1261.015625 267.550781 L 1114.0625 267.550781 Z M 1114.0625 249.175781 " clip-rule="nonzero"/></clipPath></defs><g clip-path="url(#6bb35ebcdb)"><g clip-path="url(#6a753a5d61)"><g mask="url(#f0530c27a3)"><g transform="matrix(1, 0, 0, 1, 574, 160)"><g clip-path="url(#55bbdb34e4)"><g clip-path="url(#ed6845a285)"><g clip-path="url(#e484605394)"><path fill="#03e313" d="M 0.28125 0.753906 L 97.78125 0.753906 L 97.78125 62.253906 L 0.28125 62.253906 Z M 0.28125 0.753906 " fill-opacity="1" fill-rule="nonzero"/></g></g></g></g></g></g></g><g clip-path="url(#ce4bed02f1)"><g mask="url(#3c5fcaa767)"><g transform="matrix(1, 0, 0, 1, 214, 75)"><g clip-path="url(#a9ea96f6a0)"><g clip-path="url(#2bca271337)"><path fill="#03e313" d="M 0.632812 0.625 L 187.382812 0.625 L 187.382812 218.875 L 0.632812 218.875 Z M 0.632812 0.625 " fill-opacity="1" fill-rule="nonzero"/></g></g></g></g></g><g fill="#808080" fill-opacity="1"><g transform="translate(231.128581, 205.103517)"><g><path d="M 4.484375 0 L 4.484375 -9.828125 L 13.796875 -9.828125 L 13.796875 0 Z M 4.484375 0 "/></g></g><g transform="translate(249.465495, 205.103517)"><g><path d="M 25.625 -6.828125 C 31.351562 -6.828125 35.335938 -9.707031 37.578125 -15.46875 L 45.859375 -12.34375 C 44.078125 -7.957031 41.460938 -4.695312 38.015625 -2.5625 C 34.566406 -0.425781 30.4375 0.640625 25.625 0.640625 C 18.3125 0.640625 12.660156 -1.425781 8.671875 -5.5625 C 4.691406 -9.695312 2.703125 -15.476562 2.703125 -22.90625 C 2.703125 -30.363281 4.625 -36.085938 8.46875 -40.078125 C 12.320312 -44.078125 17.898438 -46.078125 25.203125 -46.078125 C 30.523438 -46.078125 34.863281 -45.007812 38.21875 -42.875 C 41.570312 -40.738281 43.925781 -37.597656 45.28125 -33.453125 L 36.90625 -31.15625 C 36.195312 -33.4375 34.800781 -35.25 32.71875 -36.59375 C 30.644531 -37.9375 28.203125 -38.609375 25.390625 -38.609375 C 21.097656 -38.609375 17.835938 -37.273438 15.609375 -34.609375 C 13.390625 -31.941406 12.28125 -28.039062 12.28125 -22.90625 C 12.28125 -17.6875 13.421875 -13.703125 15.703125 -10.953125 C 17.992188 -8.203125 21.300781 -6.828125 25.625 -6.828125 Z M 25.625 -6.828125 "/></g></g><g transform="translate(297.12858, 205.103517)"><g><path d="M 41.4375 -13.078125 C 41.4375 -8.628906 39.785156 -5.226562 36.484375 -2.875 C 33.191406 -0.53125 28.359375 0.640625 21.984375 0.640625 C 16.160156 0.640625 11.59375 -0.390625 8.28125 -2.453125 C 4.96875 -4.515625 2.84375 -7.640625 1.90625 -11.828125 L 11.09375 -13.34375 C 11.707031 -10.9375 12.914062 -9.191406 14.71875 -8.109375 C 16.53125 -7.023438 19.035156 -6.484375 22.234375 -6.484375 C 28.867188 -6.484375 32.1875 -8.5 32.1875 -12.53125 C 32.1875 -13.820312 31.804688 -14.882812 31.046875 -15.71875 C 30.285156 -16.5625 29.210938 -17.257812 27.828125 -17.8125 C 26.441406 -18.375 23.785156 -19.054688 19.859375 -19.859375 C 16.460938 -20.648438 14.097656 -21.285156 12.765625 -21.765625 C 11.429688 -22.253906 10.226562 -22.820312 9.15625 -23.46875 C 8.082031 -24.125 7.164062 -24.914062 6.40625 -25.84375 C 5.65625 -26.769531 5.070312 -27.851562 4.65625 -29.09375 C 4.238281 -30.34375 4.03125 -31.773438 4.03125 -33.390625 C 4.03125 -37.492188 5.570312 -40.632812 8.65625 -42.8125 C 11.738281 -44.988281 16.222656 -46.078125 22.109375 -46.078125 C 27.734375 -46.078125 31.957031 -45.195312 34.78125 -43.4375 C 37.613281 -41.675781 39.4375 -38.765625 40.25 -34.703125 L 31.03125 -33.453125 C 30.5625 -35.410156 29.597656 -36.878906 28.140625 -37.859375 C 26.691406 -38.847656 24.617188 -39.34375 21.921875 -39.34375 C 16.160156 -39.34375 13.28125 -37.539062 13.28125 -33.9375 C 13.28125 -32.75 13.582031 -31.78125 14.1875 -31.03125 C 14.800781 -30.28125 15.707031 -29.640625 16.90625 -29.109375 C 18.113281 -28.585938 20.554688 -27.929688 24.234375 -27.140625 C 28.597656 -26.210938 31.71875 -25.351562 33.59375 -24.5625 C 35.476562 -23.78125 36.96875 -22.867188 38.0625 -21.828125 C 39.15625 -20.785156 39.988281 -19.539062 40.5625 -18.09375 C 41.144531 -16.644531 41.4375 -14.972656 41.4375 -13.078125 Z M 41.4375 -13.078125 "/></g></g><g transform="translate(341.150064, 205.103517)"><g><path d="M 26.875 0 L 17.234375 0 L 0.453125 -45.40625 L 10.375 -45.40625 L 19.71875 -16.25 C 20.300781 -14.351562 21.097656 -11.492188 22.109375 -7.671875 L 22.78125 -10.4375 L 24.421875 -16.25 L 33.734375 -45.40625 L 43.578125 -45.40625 Z M 26.875 0 "/></g></g></g><g clip-path="url(#f50ce2d928)"><g clip-path="url(#024df30efe)"><path fill="#ffffff" d="M 401.671875 127.914062 L 349.171875 127.914062 L 349.171875 75.414062 L 401.671875 75.414062 Z M 401.671875 127.914062 " fill-opacity="1" fill-rule="nonzero"/></g></g><g clip-path="url(#67b9baeb7b)"><g clip-path="url(#3cdda524a0)"><path fill="#7f7f7f" d="M 349.5 75.269531 L 402 75.269531 L 402 127.769531 L 349.5 127.769531 Z M 349.5 75.269531 " fill-opacity="1" fill-rule="nonzero"/></g></g><g clip-path="url(#de065843b2)"><path fill="#d9d9d9" d="M 702.960938 150.550781 L 889.710938 150.550781 L 889.710938 218.050781 L 702.960938 218.050781 Z M 702.960938 150.550781 " fill-opacity="1" fill-rule="nonzero"/></g><g clip-path="url(#56078f3361)"><path fill="#d9d9d9" d="M 898.886719 75.152344 L 1085.636719 75.152344 L 1085.636719 142.652344 L 898.886719 142.652344 Z M 898.886719 75.152344 " fill-opacity="1" fill-rule="nonzero"/></g><g clip-path="url(#4e4b4ab91f)"><path fill="#d9d9d9" d="M 702.960938 225.953125 L 889.710938 225.953125 L 889.710938 293.453125 L 702.960938 293.453125 Z M 702.960938 225.953125 " fill-opacity="1" fill-rule="nonzero"/></g><g clip-path="url(#4e83555099)"><g mask="url(#bfd1ae722e)"><g transform="matrix(1, 0, 0, 1, 898, 225)"><g clip-path="url(#d04889e2b7)"><g clip-path="url(#2097f299c2)"><path fill="#ffc000" d="M 0.886719 0.953125 L 187.636719 0.953125 L 187.636719 68.453125 L 0.886719 68.453125 Z M 0.886719 0.953125 " fill-opacity="1" fill-rule="nonzero"/></g></g></g></g></g><g clip-path="url(#0991c374b5)"><path fill="#d9d9d9" d="M 1094.816406 75.152344 L 1281.566406 75.152344 L 1281.566406 142.652344 L 1094.816406 142.652344 Z M 1094.816406 75.152344 " fill-opacity="1" fill-rule="nonzero"/></g><g clip-path="url(#7502437356)"><g mask="url(#dd41875d42)"><g transform="matrix(1, 0, 0, 1, 1094, 225)"><g clip-path="url(#7104278ee7)"><g clip-path="url(#c0213f8f3d)"><path fill="#ffc000" d="M 0.816406 0.953125 L 187.566406 0.953125 L 187.566406 68.453125 L 0.816406 68.453125 Z M 0.816406 0.953125 " fill-opacity="1" fill-rule="nonzero"/></g></g></g></g></g><g clip-path="url(#fd60cc1e3b)"><g mask="url(#8803cd7e8c)"><g transform="matrix(1, 0, 0, 1, 898, 150)"><g clip-path="url(#ddd7370183)"><g clip-path="url(#3e56a9f065)"><path fill="#ffc000" d="M 0.886719 0.550781 L 187.636719 0.550781 L 187.636719 68.050781 L 0.886719 68.050781 Z M 0.886719 0.550781 " fill-opacity="1" fill-rule="nonzero"/></g></g></g></g></g><g clip-path="url(#5ba326b3e1)"><g mask="url(#f9535330e1)"><g transform="matrix(1, 0, 0, 1, 1094, 150)"><g clip-path="url(#3bf49153cb)"><g clip-path="url(#1f6e194670)"><path fill="#ffc000" d="M 0.816406 0.550781 L 187.566406 0.550781 L 187.566406 68.050781 L 0.816406 68.050781 Z M 0.816406 0.550781 " fill-opacity="1" fill-rule="nonzero"/></g></g></g></g></g><g clip-path="url(#71bf61097a)"><path fill="#f2f2f2" d="M 920.175781 175.519531 L 1067.175781 175.519531 L 1067.175781 193.519531 L 920.175781 193.519531 Z M 920.175781 175.519531 " fill-opacity="1" fill-rule="nonzero"/></g><g clip-path="url(#56a70b7e86)"><path fill="#f2f2f2" d="M 920.585938 249.175781 L 994.085938 249.175781 L 994.085938 267.175781 L 920.585938 267.175781 Z M 920.585938 249.175781 " fill-opacity="1" fill-rule="nonzero"/></g><g clip-path="url(#3adeac4970)"><path fill="#f2f2f2" d="M 1113.652344 175.519531 L 1193.152344 175.519531 L 1193.152344 193.519531 L 1113.652344 193.519531 Z M 1113.652344 175.519531 " fill-opacity="1" fill-rule="nonzero"/></g><g clip-path="url(#e530724443)"><path fill="#f2f2f2" d="M 1114.0625 249.175781 L 1261.0625 249.175781 L 1261.0625 267.175781 L 1114.0625 267.175781 Z M 1114.0625 249.175781 " fill-opacity="1" fill-rule="nonzero"/></g></svg>