<svg xmlns="http://www.w3.org/2000/svg" xmlns:xlink="http://www.w3.org/1999/xlink" width="1919" zoomAndPan="magnify" viewBox="0 0 1439.25 569.249982" height="759" preserveAspectRatio="xMidYMid meet" version="1.0"><defs><filter x="0%" y="0%" width="100%" height="100%" id="8b566b8f78"><feColorMatrix values="0 0 0 0 1 0 0 0 0 1 0 0 0 0 1 0 0 0 1 0" color-interpolation-filters="sRGB"/></filter><g/><clipPath id="8d1840913f"><path d="M 75.847656 275.074219 L 262.644531 275.074219 L 262.644531 342.320312 L 75.847656 342.320312 Z M 75.847656 275.074219 " clip-rule="nonzero"/></clipPath><clipPath id="316de42df7"><path d="M 271.515625 199.773438 L 458.3125 199.773438 L 458.3125 267.019531 L 271.515625 267.019531 Z M 271.515625 199.773438 " clip-rule="nonzero"/></clipPath><clipPath id="0dc744ac70"><path d="M 75.847656 350.375 L 262.644531 350.375 L 262.644531 417.621094 L 75.847656 417.621094 Z M 75.847656 350.375 " clip-rule="nonzero"/></clipPath><clipPath id="dd1b176d34"><path d="M 271.515625 350.375 L 458.3125 350.375 L 458.3125 417.621094 L 271.515625 417.621094 Z M 271.515625 350.375 " clip-rule="nonzero"/></clipPath><mask id="1a6d0de0fa"><g filter="url(#8b566b8f78)"><rect x="-143.925" width="1727.1" fill="#000000" y="-56.924998" height="683.099978" fill-opacity="0.498"/></g></mask><clipPath id="e50de155b5"><path d="M 0.515625 0.375 L 187.3125 0.375 L 187.3125 67.621094 L 0.515625 67.621094 Z M 0.515625 0.375 " clip-rule="nonzero"/></clipPath><clipPath id="1e5ce149e2"><rect x="0" width="188" y="0" height="68"/></clipPath><clipPath id="05ca5640e6"><path d="M 467.1875 199.773438 L 653.984375 199.773438 L 653.984375 267.019531 L 467.1875 267.019531 Z M 467.1875 199.773438 " clip-rule="nonzero"/></clipPath><clipPath id="7638a0e186"><path d="M 467.1875 350.375 L 653.984375 350.375 L 653.984375 417.621094 L 467.1875 417.621094 Z M 467.1875 350.375 " clip-rule="nonzero"/></clipPath><mask id="c03ddf2f2c"><g filter="url(#8b566b8f78)"><rect x="-143.925" width="1727.1" fill="#000000" y="-56.924998" height="683.099978" fill-opacity="0.498"/></g></mask><clipPath id="bad60e7e88"><path d="M 0.1875 0.375 L 186.984375 0.375 L 186.984375 67.621094 L 0.1875 67.621094 Z M 0.1875 0.375 " clip-rule="nonzero"/></clipPath><clipPath id="d26f100227"><rect x="0" width="187" y="0" height="68"/></clipPath><clipPath id="a96d2ba4d1"><path d="M 670.71875 275.074219 L 768.839844 275.074219 L 768.839844 337 L 670.71875 337 Z M 670.71875 275.074219 " clip-rule="nonzero"/></clipPath><clipPath id="aa73aed797"><path d="M 670.71875 290.503906 L 737.539062 290.503906 L 737.539062 275.074219 L 768.398438 305.933594 L 737.539062 336.792969 L 737.539062 321.363281 L 670.71875 321.363281 L 670.71875 290.503906 " clip-rule="nonzero"/></clipPath><mask id="d1c976f201"><g filter="url(#8b566b8f78)"><rect x="-143.925" width="1727.1" fill="#000000" y="-56.924998" height="683.099978" fill-opacity="0.4"/></g></mask><clipPath id="adc5a83d56"><path d="M 0.71875 0.0742188 L 98.519531 0.0742188 L 98.519531 61.996094 L 0.71875 61.996094 Z M 0.71875 0.0742188 " clip-rule="nonzero"/></clipPath><clipPath id="30823f97e2"><path d="M 0.71875 15.503906 L 67.539062 15.503906 L 67.539062 0.0742188 L 98.398438 30.933594 L 67.539062 61.792969 L 67.539062 46.363281 L 0.71875 46.363281 L 0.71875 15.503906 " clip-rule="nonzero"/></clipPath><clipPath id="1dff44be48"><rect x="0" width="99" y="0" height="62"/></clipPath><clipPath id="14ffb08702"><path d="M 784.652344 271.742188 L 971.449219 271.742188 L 971.449219 338.988281 L 784.652344 338.988281 Z M 784.652344 271.742188 " clip-rule="nonzero"/></clipPath><clipPath id="3583dd4ac4"><path d="M 980.320312 196.441406 L 1167 196.441406 L 1167 263.6875 L 980.320312 263.6875 Z M 980.320312 196.441406 " clip-rule="nonzero"/></clipPath><clipPath id="9308c0d7ec"><path d="M 980.320312 271.742188 L 1167.117188 271.742188 L 1167.117188 338.988281 L 980.320312 338.988281 Z M 980.320312 271.742188 " clip-rule="nonzero"/></clipPath><mask id="7563333d65"><g filter="url(#8b566b8f78)"><rect x="-143.925" width="1727.1" fill="#000000" y="-56.924998" height="683.099978" fill-opacity="0.498"/></g></mask><clipPath id="7f9a594daa"><path d="M 0.320312 0.742188 L 187 0.742188 L 187 67.988281 L 0.320312 67.988281 Z M 0.320312 0.742188 " clip-rule="nonzero"/></clipPath><clipPath id="40fd6092d5"><rect x="0" width="188" y="0" height="68"/></clipPath><clipPath id="cef4bc59b7"><path d="M 784.652344 347.042969 L 971.449219 347.042969 L 971.449219 414.289062 L 784.652344 414.289062 Z M 784.652344 347.042969 " clip-rule="nonzero"/></clipPath><clipPath id="8f2cb82f83"><path d="M 980.320312 347.042969 L 1167.117188 347.042969 L 1167.117188 414.289062 L 980.320312 414.289062 Z M 980.320312 347.042969 " clip-rule="nonzero"/></clipPath><mask id="7b53d89c47"><g filter="url(#8b566b8f78)"><rect x="-143.925" width="1727.1" fill="#000000" y="-56.924998" height="683.099978" fill-opacity="0.498"/></g></mask><clipPath id="70bcf33500"><path d="M 0.320312 0.0429688 L 187 0.0429688 L 187 67.289062 L 0.320312 67.289062 Z M 0.320312 0.0429688 " clip-rule="nonzero"/></clipPath><clipPath id="786fded0f2"><rect x="0" width="188" y="0" height="68"/></clipPath><clipPath id="469cd8a0ad"><path d="M 1175.992188 196.441406 L 1362.789062 196.441406 L 1362.789062 263.6875 L 1175.992188 263.6875 Z M 1175.992188 196.441406 " clip-rule="nonzero"/></clipPath><clipPath id="9fe8655de6"><path d="M 1175.992188 271.742188 L 1362.789062 271.742188 L 1362.789062 338.988281 L 1175.992188 338.988281 Z M 1175.992188 271.742188 " clip-rule="nonzero"/></clipPath><mask id="b5f4e095f4"><g filter="url(#8b566b8f78)"><rect x="-143.925" width="1727.1" fill="#000000" y="-56.924998" height="683.099978" fill-opacity="0.498"/></g></mask><clipPath id="0a280a1a6d"><path d="M 0.992188 0.742188 L 187.789062 0.742188 L 187.789062 67.988281 L 0.992188 67.988281 Z M 0.992188 0.742188 " clip-rule="nonzero"/></clipPath><clipPath id="ba3485a0b0"><rect x="0" width="188" y="0" height="68"/></clipPath><clipPath id="d07881bb43"><path d="M 1175.992188 347.042969 L 1362.789062 347.042969 L 1362.789062 414.289062 L 1175.992188 414.289062 Z M 1175.992188 347.042969 " clip-rule="nonzero"/></clipPath><mask id="73ff3e1afd"><g filter="url(#8b566b8f78)"><rect x="-143.925" width="1727.1" fill="#000000" y="-56.924998" height="683.099978" fill-opacity="0.498"/></g></mask><clipPath id="017b6b266d"><path d="M 0.992188 0.0429688 L 187.789062 0.0429688 L 187.789062 67.289062 L 0.992188 67.289062 Z M 0.992188 0.0429688 " clip-rule="nonzero"/></clipPath><clipPath id="3b2e5399ff"><rect x="0" width="188" y="0" height="68"/></clipPath><clipPath id="4144b4c708"><path d="M 271.515625 275.074219 L 458.3125 275.074219 L 458.3125 342.320312 L 271.515625 342.320312 Z M 271.515625 275.074219 " clip-rule="nonzero"/></clipPath><mask id="99258582b0"><g filter="url(#8b566b8f78)"><rect x="-143.925" width="1727.1" fill="#000000" y="-56.924998" height="683.099978" fill-opacity="0.498"/></g></mask><clipPath id="50505d2a5f"><path d="M 0.515625 0.0742188 L 187.3125 0.0742188 L 187.3125 67.320312 L 0.515625 67.320312 Z M 0.515625 0.0742188 " clip-rule="nonzero"/></clipPath><clipPath id="b423fd105e"><rect x="0" width="188" y="0" height="68"/></clipPath><clipPath id="83eb15a9a6"><path d="M 979.828125 422.34375 L 1166.625 422.34375 L 1166.625 489.589844 L 979.828125 489.589844 Z M 979.828125 422.34375 " clip-rule="nonzero"/></clipPath><clipPath id="748dca8c56"><path d="M 467.1875 275.074219 L 653.984375 275.074219 L 653.984375 342.320312 L 467.1875 342.320312 Z M 467.1875 275.074219 " clip-rule="nonzero"/></clipPath><mask id="d38f8083fc"><g filter="url(#8b566b8f78)"><rect x="-143.925" width="1727.1" fill="#000000" y="-56.924998" height="683.099978" fill-opacity="0.498"/></g></mask><clipPath id="5d472eb270"><path d="M 0.1875 0.0742188 L 186.984375 0.0742188 L 186.984375 67.320312 L 0.1875 67.320312 Z M 0.1875 0.0742188 " clip-rule="nonzero"/></clipPath><clipPath id="88fc97efe5"><rect x="0" width="187" y="0" height="68"/></clipPath><clipPath id="e48c3097ca"><path d="M 1175.992188 422.34375 L 1362.789062 422.34375 L 1362.789062 489.589844 L 1175.992188 489.589844 Z M 1175.992188 422.34375 " clip-rule="nonzero"/></clipPath><clipPath id="88824d5aba"><path d="M 75.847656 425.675781 L 262.644531 425.675781 L 262.644531 492.921875 L 75.847656 492.921875 Z M 75.847656 425.675781 " clip-rule="nonzero"/></clipPath><clipPath id="46e3153fda"><path d="M 271.515625 425.675781 L 458.3125 425.675781 L 458.3125 492.921875 L 271.515625 492.921875 Z M 271.515625 425.675781 " clip-rule="nonzero"/></clipPath><mask id="ab6b56890a"><g filter="url(#8b566b8f78)"><rect x="-143.925" width="1727.1" fill="#000000" y="-56.924998" height="683.099978" fill-opacity="0.498"/></g></mask><clipPath id="70d4a41d9d"><path d="M 0.515625 0.675781 L 187.3125 0.675781 L 187.3125 67.921875 L 0.515625 67.921875 Z M 0.515625 0.675781 " clip-rule="nonzero"/></clipPath><clipPath id="422ecd9e06"><rect x="0" width="188" y="0" height="68"/></clipPath><clipPath id="dcdb37f398"><path d="M 467.1875 425.675781 L 653.984375 425.675781 L 653.984375 492.921875 L 467.1875 492.921875 Z M 467.1875 425.675781 " clip-rule="nonzero"/></clipPath><mask id="757d6c52b8"><g filter="url(#8b566b8f78)"><rect x="-143.925" width="1727.1" fill="#000000" y="-56.924998" height="683.099978" fill-opacity="0.498"/></g></mask><clipPath id="eaacf1cf62"><path d="M 0.1875 0.675781 L 186.984375 0.675781 L 186.984375 67.921875 L 0.1875 67.921875 Z M 0.1875 0.675781 " clip-rule="nonzero"/></clipPath><clipPath id="76dac4488c"><rect x="0" width="187" y="0" height="68"/></clipPath><clipPath id="f40c53feec"><path d="M 784.652344 422.34375 L 971.449219 422.34375 L 971.449219 489.589844 L 784.652344 489.589844 Z M 784.652344 422.34375 " clip-rule="nonzero"/></clipPath></defs><g clip-path="url(#8d1840913f)"><path fill="#d9d9d9" d="M 75.847656 275.074219 L 262.351562 275.074219 L 262.351562 342.484375 L 75.847656 342.484375 Z M 75.847656 275.074219 " fill-opacity="1" fill-rule="nonzero"/></g><g clip-path="url(#316de42df7)"><path fill="#d9d9d9" d="M 271.515625 199.773438 L 458.019531 199.773438 L 458.019531 267.183594 L 271.515625 267.183594 Z M 271.515625 199.773438 " fill-opacity="1" fill-rule="nonzero"/></g><g clip-path="url(#0dc744ac70)"><path fill="#d9d9d9" d="M 75.847656 350.375 L 262.351562 350.375 L 262.351562 417.785156 L 75.847656 417.785156 Z M 75.847656 350.375 " fill-opacity="1" fill-rule="nonzero"/></g><g clip-path="url(#dd1b176d34)"><g mask="url(#1a6d0de0fa)"><g transform="matrix(1, 0, 0, 1, 271, 350)"><g clip-path="url(#1e5ce149e2)"><g clip-path="url(#e50de155b5)"><path fill="#ffc000" d="M 0.515625 0.375 L 187.019531 0.375 L 187.019531 67.785156 L 0.515625 67.785156 Z M 0.515625 0.375 " fill-opacity="1" fill-rule="nonzero"/></g></g></g></g></g><g fill="#808080" fill-opacity="1"><g transform="translate(319.137115, 393.816109)"><g><path d="M 2 0 L 2 -20.609375 L 6.3125 -20.609375 L 6.3125 0 Z M 2 0 "/></g></g><g transform="translate(327.461108, 393.816109)"><g><path d="M 6.140625 0.265625 C 4.929688 0.265625 4 -0.0625 3.34375 -0.71875 C 2.695312 -1.382812 2.375 -2.382812 2.375 -3.71875 L 2.375 -13.046875 L 0.359375 -13.046875 L 0.359375 -15.828125 L 2.578125 -15.828125 L 3.859375 -19.546875 L 6.4375 -19.546875 L 6.4375 -15.828125 L 9.4375 -15.828125 L 9.4375 -13.046875 L 6.4375 -13.046875 L 6.4375 -4.828125 C 6.4375 -4.054688 6.582031 -3.488281 6.875 -3.125 C 7.164062 -2.757812 7.617188 -2.578125 8.234375 -2.578125 C 8.554688 -2.578125 9.015625 -2.644531 9.609375 -2.78125 L 9.609375 -0.234375 C 8.597656 0.0976562 7.441406 0.265625 6.140625 0.265625 Z M 6.140625 0.265625 "/></g></g><g transform="translate(337.438197, 393.816109)"><g><path d="M 8.578125 0.296875 C 6.191406 0.296875 4.359375 -0.40625 3.078125 -1.8125 C 1.804688 -3.226562 1.171875 -5.285156 1.171875 -7.984375 C 1.171875 -10.597656 1.816406 -12.609375 3.109375 -14.015625 C 4.410156 -15.421875 6.25 -16.125 8.625 -16.125 C 10.894531 -16.125 12.628906 -15.367188 13.828125 -13.859375 C 15.035156 -12.347656 15.640625 -10.140625 15.640625 -7.234375 L 15.640625 -7.125 L 5.484375 -7.125 C 5.484375 -5.582031 5.769531 -4.414062 6.34375 -3.625 C 6.914062 -2.84375 7.726562 -2.453125 8.78125 -2.453125 C 10.226562 -2.453125 11.144531 -3.082031 11.53125 -4.34375 L 15.40625 -4 C 14.28125 -1.132812 12.003906 0.296875 8.578125 0.296875 Z M 8.578125 -13.53125 C 7.609375 -13.53125 6.863281 -13.191406 6.34375 -12.515625 C 5.820312 -11.847656 5.546875 -10.910156 5.515625 -9.703125 L 11.65625 -9.703125 C 11.582031 -10.972656 11.273438 -11.925781 10.734375 -12.5625 C 10.203125 -13.207031 9.484375 -13.53125 8.578125 -13.53125 Z M 8.578125 -13.53125 "/></g></g><g transform="translate(354.100812, 393.816109)"><g><path d="M 11.40625 0 L 11.40625 -8.875 C 11.40625 -11.65625 10.609375 -13.046875 9.015625 -13.046875 C 8.179688 -13.046875 7.503906 -12.617188 6.984375 -11.765625 C 6.460938 -10.921875 6.203125 -9.828125 6.203125 -8.484375 L 6.203125 0 L 2.09375 0 L 2.09375 -12.28125 C 2.09375 -13.132812 2.078125 -13.832031 2.046875 -14.375 C 2.023438 -14.914062 2 -15.398438 1.96875 -15.828125 L 5.890625 -15.828125 C 5.921875 -15.640625 5.957031 -15.144531 6 -14.34375 C 6.050781 -13.539062 6.078125 -12.988281 6.078125 -12.6875 L 6.140625 -12.6875 C 6.648438 -13.894531 7.28125 -14.769531 8.03125 -15.3125 C 8.789062 -15.851562 9.695312 -16.125 10.75 -16.125 C 13.164062 -16.125 14.632812 -14.976562 15.15625 -12.6875 L 15.234375 -12.6875 C 15.773438 -13.90625 16.421875 -14.78125 17.171875 -15.3125 C 17.921875 -15.851562 18.875 -16.125 20.03125 -16.125 C 21.570312 -16.125 22.75 -15.597656 23.5625 -14.546875 C 24.375 -13.503906 24.78125 -12.003906 24.78125 -10.046875 L 24.78125 0 L 20.6875 0 L 20.6875 -8.875 C 20.6875 -11.65625 19.890625 -13.046875 18.296875 -13.046875 C 17.492188 -13.046875 16.835938 -12.65625 16.328125 -11.875 C 15.816406 -11.101562 15.535156 -10.035156 15.484375 -8.671875 L 15.484375 0 Z M 11.40625 0 "/></g></g><g transform="translate(380.740517, 393.816109)"><g/></g><g transform="translate(389.06451, 393.816109)"><g><path d="M 16.578125 0 L 14.75 -5.265625 L 6.890625 -5.265625 L 5.0625 0 L 0.75 0 L 8.265625 -20.609375 L 13.359375 -20.609375 L 20.84375 0 Z M 10.8125 -17.4375 L 10.71875 -17.109375 C 10.625 -16.753906 10.507812 -16.351562 10.375 -15.90625 C 10.238281 -15.457031 9.398438 -12.992188 7.859375 -8.515625 L 13.78125 -8.515625 L 11.75 -14.4375 L 11.109375 -16.421875 Z M 10.8125 -17.4375 "/></g></g></g><g fill="#808080" fill-opacity="1"><g transform="translate(563.938863, 115.158586)"><g><path d="M 2.109375 -14.5625 C 2.109375 -19.238281 3.363281 -22.859375 5.875 -25.421875 C 8.382812 -27.992188 11.914062 -29.28125 16.46875 -29.28125 C 19.65625 -29.28125 22.242188 -28.738281 24.234375 -27.65625 C 26.234375 -26.582031 27.773438 -24.859375 28.859375 -22.484375 L 25.125 -21.375 C 24.300781 -23.007812 23.171875 -24.203125 21.734375 -24.953125 C 20.296875 -25.710938 18.503906 -26.09375 16.359375 -26.09375 C 13.023438 -26.09375 10.476562 -25.082031 8.71875 -23.0625 C 6.957031 -21.050781 6.078125 -18.21875 6.078125 -14.5625 C 6.078125 -10.914062 7.007812 -8.035156 8.875 -5.921875 C 10.75 -3.816406 13.335938 -2.765625 16.640625 -2.765625 C 18.523438 -2.765625 20.285156 -3.050781 21.921875 -3.625 C 23.554688 -4.195312 24.878906 -4.972656 25.890625 -5.953125 L 25.890625 -11.15625 L 17.265625 -11.15625 L 17.265625 -14.4375 L 29.484375 -14.4375 L 29.484375 -4.484375 C 27.953125 -2.929688 26.078125 -1.726562 23.859375 -0.875 C 21.640625 -0.0195312 19.234375 0.40625 16.640625 0.40625 C 13.628906 0.40625 11.03125 -0.191406 8.84375 -1.390625 C 6.65625 -2.585938 4.984375 -4.316406 3.828125 -6.578125 C 2.679688 -8.835938 2.109375 -11.5 2.109375 -14.5625 Z M 2.109375 -14.5625 "/></g></g><g transform="translate(596.56482, 115.158586)"><g><path d="M 2.90625 0 L 2.90625 -17 C 2.90625 -18.550781 2.863281 -20.269531 2.78125 -22.15625 L 6.265625 -22.15625 C 6.378906 -19.644531 6.4375 -18.132812 6.4375 -17.625 L 6.515625 -17.625 C 7.097656 -19.53125 7.769531 -20.828125 8.53125 -21.515625 C 9.300781 -22.210938 10.382812 -22.5625 11.78125 -22.5625 C 12.269531 -22.5625 12.765625 -22.492188 13.265625 -22.359375 L 13.265625 -18.984375 C 12.773438 -19.117188 12.117188 -19.1875 11.296875 -19.1875 C 9.773438 -19.1875 8.609375 -18.523438 7.796875 -17.203125 C 6.992188 -15.890625 6.59375 -14.003906 6.59375 -11.546875 L 6.59375 0 Z M 2.90625 0 "/></g></g><g transform="translate(610.532744, 115.158586)"><g><path d="M 21.5625 -11.09375 C 21.5625 -7.21875 20.707031 -4.332031 19 -2.4375 C 17.289062 -0.539062 14.8125 0.40625 11.5625 0.40625 C 8.332031 0.40625 5.890625 -0.578125 4.234375 -2.546875 C 2.585938 -4.523438 1.765625 -7.375 1.765625 -11.09375 C 1.765625 -18.738281 5.070312 -22.5625 11.6875 -22.5625 C 15.070312 -22.5625 17.5625 -21.628906 19.15625 -19.765625 C 20.757812 -17.898438 21.5625 -15.007812 21.5625 -11.09375 Z M 17.6875 -11.09375 C 17.6875 -14.15625 17.234375 -16.378906 16.328125 -17.765625 C 15.421875 -19.148438 13.894531 -19.84375 11.75 -19.84375 C 9.59375 -19.84375 8.03125 -19.132812 7.0625 -17.71875 C 6.101562 -16.3125 5.625 -14.101562 5.625 -11.09375 C 5.625 -8.175781 6.097656 -5.984375 7.046875 -4.515625 C 8.003906 -3.046875 9.5 -2.3125 11.53125 -2.3125 C 13.738281 -2.3125 15.316406 -3.019531 16.265625 -4.4375 C 17.210938 -5.863281 17.6875 -8.082031 17.6875 -11.09375 Z M 17.6875 -11.09375 "/></g></g><g transform="translate(633.860406, 115.158586)"><g><path d="M 6.4375 -22.15625 L 6.4375 -8.109375 C 6.4375 -6.648438 6.578125 -5.515625 6.859375 -4.703125 C 7.148438 -3.898438 7.609375 -3.320312 8.234375 -2.96875 C 8.859375 -2.613281 9.78125 -2.4375 11 -2.4375 C 12.769531 -2.4375 14.164062 -3.039062 15.1875 -4.25 C 16.21875 -5.46875 16.734375 -7.15625 16.734375 -9.3125 L 16.734375 -22.15625 L 20.421875 -22.15625 L 20.421875 -4.734375 C 20.421875 -2.148438 20.457031 -0.570312 20.53125 0 L 17.0625 0 C 17.039062 -0.0703125 17.023438 -0.253906 17.015625 -0.546875 C 17.003906 -0.847656 16.988281 -1.191406 16.96875 -1.578125 C 16.945312 -1.972656 16.921875 -2.707031 16.890625 -3.78125 L 16.828125 -3.78125 C 15.984375 -2.257812 15.003906 -1.179688 13.890625 -0.546875 C 12.773438 0.0859375 11.394531 0.40625 9.75 0.40625 C 7.320312 0.40625 5.539062 -0.195312 4.40625 -1.40625 C 3.28125 -2.613281 2.71875 -4.609375 2.71875 -7.390625 L 2.71875 -22.15625 Z M 6.4375 -22.15625 "/></g></g><g transform="translate(657.188068, 115.158586)"><g><path d="M 21.5625 -11.1875 C 21.5625 -3.457031 18.84375 0.40625 13.40625 0.40625 C 10 0.40625 7.707031 -0.875 6.53125 -3.4375 L 6.4375 -3.4375 C 6.488281 -3.332031 6.515625 -2.171875 6.515625 0.046875 L 6.515625 8.703125 L 2.828125 8.703125 L 2.828125 -17.625 C 2.828125 -19.90625 2.785156 -21.414062 2.703125 -22.15625 L 6.265625 -22.15625 C 6.273438 -22.101562 6.296875 -21.910156 6.328125 -21.578125 C 6.359375 -21.242188 6.390625 -20.726562 6.421875 -20.03125 C 6.453125 -19.332031 6.46875 -18.851562 6.46875 -18.59375 L 6.546875 -18.59375 C 7.203125 -19.957031 8.066406 -20.957031 9.140625 -21.59375 C 10.222656 -22.226562 11.644531 -22.546875 13.40625 -22.546875 C 16.144531 -22.546875 18.1875 -21.628906 19.53125 -19.796875 C 20.882812 -17.972656 21.5625 -15.101562 21.5625 -11.1875 Z M 17.6875 -11.09375 C 17.6875 -14.1875 17.269531 -16.394531 16.4375 -17.71875 C 15.601562 -19.039062 14.28125 -19.703125 12.46875 -19.703125 C 11.007812 -19.703125 9.863281 -19.394531 9.03125 -18.78125 C 8.207031 -18.164062 7.582031 -17.203125 7.15625 -15.890625 C 6.726562 -14.585938 6.515625 -12.894531 6.515625 -10.8125 C 6.515625 -7.90625 6.976562 -5.757812 7.90625 -4.375 C 8.832031 -3 10.34375 -2.3125 12.4375 -2.3125 C 14.257812 -2.3125 15.585938 -2.984375 16.421875 -4.328125 C 17.265625 -5.671875 17.6875 -7.925781 17.6875 -11.09375 Z M 17.6875 -11.09375 "/></g></g><g transform="translate(680.51573, 115.158586)"><g/></g><g transform="translate(692.16932, 115.158586)"><g><path d="M 25.765625 -8.125 C 25.765625 -5.5625 24.828125 -3.566406 22.953125 -2.140625 C 21.085938 -0.710938 18.488281 0 15.15625 0 L 3.4375 0 L 3.4375 -28.859375 L 13.921875 -28.859375 C 20.691406 -28.859375 24.078125 -26.519531 24.078125 -21.84375 C 24.078125 -20.144531 23.597656 -18.710938 22.640625 -17.546875 C 21.691406 -16.390625 20.34375 -15.613281 18.59375 -15.21875 C 20.882812 -14.945312 22.648438 -14.175781 23.890625 -12.90625 C 25.140625 -11.644531 25.765625 -10.050781 25.765625 -8.125 Z M 20.15625 -21.375 C 20.15625 -22.9375 19.617188 -24.050781 18.546875 -24.71875 C 17.484375 -25.382812 15.941406 -25.71875 13.921875 -25.71875 L 7.34375 -25.71875 L 7.34375 -16.59375 L 13.921875 -16.59375 C 16.015625 -16.59375 17.578125 -16.984375 18.609375 -17.765625 C 19.640625 -18.546875 20.15625 -19.75 20.15625 -21.375 Z M 21.8125 -8.4375 C 21.8125 -11.832031 19.421875 -13.53125 14.640625 -13.53125 L 7.34375 -13.53125 L 7.34375 -3.140625 L 14.953125 -3.140625 C 17.335938 -3.140625 19.078125 -3.582031 20.171875 -4.46875 C 21.265625 -5.351562 21.8125 -6.675781 21.8125 -8.4375 Z M 21.8125 -8.4375 "/></g></g><g transform="translate(720.14613, 115.158586)"><g><path d="M 3.90625 8.703125 C 2.894531 8.703125 2.050781 8.628906 1.375 8.484375 L 1.375 5.71875 C 1.894531 5.800781 2.46875 5.84375 3.09375 5.84375 C 5.382812 5.84375 7.195312 4.15625 8.53125 0.78125 L 8.890625 -0.109375 L 0.109375 -22.15625 L 4.03125 -22.15625 L 8.703125 -9.90625 C 8.773438 -9.71875 8.859375 -9.488281 8.953125 -9.21875 C 9.046875 -8.957031 9.347656 -8.066406 9.859375 -6.546875 C 10.378906 -5.035156 10.660156 -4.191406 10.703125 -4.015625 L 12.140625 -8.046875 L 17 -22.15625 L 20.890625 -22.15625 L 12.375 0 C 11.457031 2.363281 10.601562 4.117188 9.8125 5.265625 C 9.019531 6.421875 8.140625 7.28125 7.171875 7.84375 C 6.210938 8.414062 5.125 8.703125 3.90625 8.703125 Z M 3.90625 8.703125 "/></g></g><g transform="translate(741.118497, 115.158586)"><g/></g><g transform="translate(752.772087, 115.158586)"><g><path d="M 13.734375 -12.453125 L 13.734375 -3.6875 L 10.734375 -3.6875 L 10.734375 -12.453125 L 2.046875 -12.453125 L 2.046875 -15.4375 L 10.734375 -15.4375 L 10.734375 -24.203125 L 13.734375 -24.203125 L 13.734375 -15.4375 L 22.421875 -15.4375 L 22.421875 -12.453125 Z M 13.734375 -12.453125 "/></g></g><g transform="translate(777.267157, 115.158586)"><g/></g><g transform="translate(788.920747, 115.158586)"><g><path d="M 26.046875 -7.96875 C 26.046875 -5.300781 25.003906 -3.238281 22.921875 -1.78125 C 20.835938 -0.320312 17.90625 0.40625 14.125 0.40625 C 7.09375 0.40625 3.019531 -2.035156 1.90625 -6.921875 L 5.6875 -7.671875 C 6.125 -5.941406 7.050781 -4.671875 8.46875 -3.859375 C 9.894531 -3.046875 11.828125 -2.640625 14.265625 -2.640625 C 16.796875 -2.640625 18.742188 -3.070312 20.109375 -3.9375 C 21.484375 -4.8125 22.171875 -6.085938 22.171875 -7.765625 C 22.171875 -8.703125 21.957031 -9.460938 21.53125 -10.046875 C 21.101562 -10.640625 20.5 -11.125 19.71875 -11.5 C 18.9375 -11.882812 18.003906 -12.207031 16.921875 -12.46875 C 15.847656 -12.726562 14.65625 -13.007812 13.34375 -13.3125 C 11.070312 -13.8125 9.34375 -14.3125 8.15625 -14.8125 C 6.976562 -15.320312 6.046875 -15.890625 5.359375 -16.515625 C 4.679688 -17.140625 4.160156 -17.863281 3.796875 -18.6875 C 3.429688 -19.519531 3.25 -20.476562 3.25 -21.5625 C 3.25 -24.03125 4.191406 -25.929688 6.078125 -27.265625 C 7.972656 -28.609375 10.6875 -29.28125 14.21875 -29.28125 C 17.488281 -29.28125 19.988281 -28.773438 21.71875 -27.765625 C 23.457031 -26.765625 24.675781 -25.054688 25.375 -22.640625 L 21.515625 -21.96875 C 21.097656 -23.5 20.296875 -24.609375 19.109375 -25.296875 C 17.921875 -25.984375 16.273438 -26.328125 14.171875 -26.328125 C 11.859375 -26.328125 10.09375 -25.945312 8.875 -25.1875 C 7.664062 -24.425781 7.0625 -23.285156 7.0625 -21.765625 C 7.0625 -20.878906 7.296875 -20.144531 7.765625 -19.5625 C 8.242188 -18.988281 8.925781 -18.5 9.8125 -18.09375 C 10.695312 -17.6875 12.460938 -17.191406 15.109375 -16.609375 C 15.992188 -16.398438 16.875 -16.191406 17.75 -15.984375 C 18.632812 -15.773438 19.476562 -15.519531 20.28125 -15.21875 C 21.09375 -14.925781 21.847656 -14.582031 22.546875 -14.1875 C 23.253906 -13.789062 23.867188 -13.304688 24.390625 -12.734375 C 24.910156 -12.160156 25.316406 -11.484375 25.609375 -10.703125 C 25.898438 -9.929688 26.046875 -9.019531 26.046875 -7.96875 Z M 26.046875 -7.96875 "/></g></g><g transform="translate(816.897557, 115.158586)"><g><path d="M 6.4375 -22.15625 L 6.4375 -8.109375 C 6.4375 -6.648438 6.578125 -5.515625 6.859375 -4.703125 C 7.148438 -3.898438 7.609375 -3.320312 8.234375 -2.96875 C 8.859375 -2.613281 9.78125 -2.4375 11 -2.4375 C 12.769531 -2.4375 14.164062 -3.039062 15.1875 -4.25 C 16.21875 -5.46875 16.734375 -7.15625 16.734375 -9.3125 L 16.734375 -22.15625 L 20.421875 -22.15625 L 20.421875 -4.734375 C 20.421875 -2.148438 20.457031 -0.570312 20.53125 0 L 17.0625 0 C 17.039062 -0.0703125 17.023438 -0.253906 17.015625 -0.546875 C 17.003906 -0.847656 16.988281 -1.191406 16.96875 -1.578125 C 16.945312 -1.972656 16.921875 -2.707031 16.890625 -3.78125 L 16.828125 -3.78125 C 15.984375 -2.257812 15.003906 -1.179688 13.890625 -0.546875 C 12.773438 0.0859375 11.394531 0.40625 9.75 0.40625 C 7.320312 0.40625 5.539062 -0.195312 4.40625 -1.40625 C 3.28125 -2.613281 2.71875 -4.609375 2.71875 -7.390625 L 2.71875 -22.15625 Z M 6.4375 -22.15625 "/></g></g><g transform="translate(840.225219, 115.158586)"><g><path d="M 15.734375 0 L 15.734375 -14.046875 C 15.734375 -16.191406 15.4375 -17.671875 14.84375 -18.484375 C 14.257812 -19.304688 13.203125 -19.71875 11.671875 -19.71875 C 10.097656 -19.71875 8.851562 -19.113281 7.9375 -17.90625 C 7.03125 -16.707031 6.578125 -15.019531 6.578125 -12.84375 L 6.578125 0 L 2.90625 0 L 2.90625 -17.421875 C 2.90625 -20.003906 2.863281 -21.582031 2.78125 -22.15625 L 6.265625 -22.15625 C 6.273438 -22.082031 6.285156 -21.894531 6.296875 -21.59375 C 6.316406 -21.300781 6.335938 -20.957031 6.359375 -20.5625 C 6.378906 -20.175781 6.40625 -19.445312 6.4375 -18.375 L 6.484375 -18.375 C 7.273438 -19.9375 8.179688 -21.023438 9.203125 -21.640625 C 10.234375 -22.253906 11.488281 -22.5625 12.96875 -22.5625 C 14.644531 -22.5625 15.96875 -22.226562 16.9375 -21.5625 C 17.914062 -20.894531 18.597656 -19.832031 18.984375 -18.375 L 19.046875 -18.375 C 19.804688 -19.851562 20.726562 -20.921875 21.8125 -21.578125 C 22.90625 -22.234375 24.222656 -22.5625 25.765625 -22.5625 C 28.003906 -22.5625 29.628906 -21.953125 30.640625 -20.734375 C 31.660156 -19.523438 32.171875 -17.535156 32.171875 -14.765625 L 32.171875 0 L 28.53125 0 L 28.53125 -14.046875 C 28.53125 -16.191406 28.234375 -17.671875 27.640625 -18.484375 C 27.054688 -19.304688 26 -19.71875 24.46875 -19.71875 C 22.851562 -19.71875 21.597656 -19.117188 20.703125 -17.921875 C 19.816406 -16.734375 19.375 -15.039062 19.375 -12.84375 L 19.375 0 Z M 15.734375 0 "/></g></g></g><g clip-path="url(#05ca5640e6)"><path fill="#d9d9d9" d="M 467.1875 199.773438 L 653.691406 199.773438 L 653.691406 267.183594 L 467.1875 267.183594 Z M 467.1875 199.773438 " fill-opacity="1" fill-rule="nonzero"/></g><g clip-path="url(#7638a0e186)"><g mask="url(#c03ddf2f2c)"><g transform="matrix(1, 0, 0, 1, 467, 350)"><g clip-path="url(#d26f100227)"><g clip-path="url(#bad60e7e88)"><path fill="#ffc000" d="M 0.1875 0.375 L 186.691406 0.375 L 186.691406 67.785156 L 0.1875 67.785156 Z M 0.1875 0.375 " fill-opacity="1" fill-rule="nonzero"/></g></g></g></g></g><g fill="#808080" fill-opacity="1"><g transform="translate(552.257582, 393.816109)"><g><path d="M 15.34375 -17.34375 C 14.414062 -15.882812 13.539062 -14.46875 12.71875 -13.09375 C 11.894531 -11.71875 11.175781 -10.332031 10.5625 -8.9375 C 9.945312 -7.550781 9.460938 -6.125 9.109375 -4.65625 C 8.753906 -3.1875 8.578125 -1.632812 8.578125 0 L 4.28125 0 C 4.28125 -1.71875 4.503906 -3.378906 4.953125 -4.984375 C 5.398438 -6.585938 6.046875 -8.21875 6.890625 -9.875 C 7.742188 -11.539062 9.289062 -13.992188 11.53125 -17.234375 L 1.28125 -17.234375 L 1.28125 -20.609375 L 15.34375 -20.609375 Z M 15.34375 -17.34375 "/></g></g></g><g clip-path="url(#a96d2ba4d1)"><g clip-path="url(#aa73aed797)"><g mask="url(#d1c976f201)"><g transform="matrix(1, 0, 0, 1, 670, 275)"><g clip-path="url(#1dff44be48)"><g clip-path="url(#adc5a83d56)"><g clip-path="url(#30823f97e2)"><path fill="#03e313" d="M 0.71875 0.0742188 L 98.089844 0.0742188 L 98.089844 61.492188 L 0.71875 61.492188 Z M 0.71875 0.0742188 " fill-opacity="1" fill-rule="nonzero"/></g></g></g></g></g></g></g><g clip-path="url(#14ffb08702)"><path fill="#d9d9d9" d="M 784.652344 271.742188 L 971.15625 271.742188 L 971.15625 339.152344 L 784.652344 339.152344 Z M 784.652344 271.742188 " fill-opacity="1" fill-rule="nonzero"/></g><g clip-path="url(#3583dd4ac4)"><path fill="#d9d9d9" d="M 980.320312 196.441406 L 1166.824219 196.441406 L 1166.824219 263.851562 L 980.320312 263.851562 Z M 980.320312 196.441406 " fill-opacity="1" fill-rule="nonzero"/></g><g clip-path="url(#9308c0d7ec)"><g mask="url(#7563333d65)"><g transform="matrix(1, 0, 0, 1, 980, 271)"><g clip-path="url(#40fd6092d5)"><g clip-path="url(#7f9a594daa)"><path fill="#03e313" d="M 0.320312 0.742188 L 186.824219 0.742188 L 186.824219 68.152344 L 0.320312 68.152344 Z M 0.320312 0.742188 " fill-opacity="1" fill-rule="nonzero"/></g></g></g></g></g><g fill="#808080" fill-opacity="1"><g transform="translate(1030.423272, 315.184714)"><g><path d="M 2 0 L 2 -20.609375 L 6.3125 -20.609375 L 6.3125 0 Z M 2 0 "/></g></g><g transform="translate(1038.747265, 315.184714)"><g><path d="M 6.140625 0.265625 C 4.929688 0.265625 4 -0.0625 3.34375 -0.71875 C 2.695312 -1.382812 2.375 -2.382812 2.375 -3.71875 L 2.375 -13.046875 L 0.359375 -13.046875 L 0.359375 -15.828125 L 2.578125 -15.828125 L 3.859375 -19.546875 L 6.4375 -19.546875 L 6.4375 -15.828125 L 9.4375 -15.828125 L 9.4375 -13.046875 L 6.4375 -13.046875 L 6.4375 -4.828125 C 6.4375 -4.054688 6.582031 -3.488281 6.875 -3.125 C 7.164062 -2.757812 7.617188 -2.578125 8.234375 -2.578125 C 8.554688 -2.578125 9.015625 -2.644531 9.609375 -2.78125 L 9.609375 -0.234375 C 8.597656 0.0976562 7.441406 0.265625 6.140625 0.265625 Z M 6.140625 0.265625 "/></g></g><g transform="translate(1048.724354, 315.184714)"><g><path d="M 8.578125 0.296875 C 6.191406 0.296875 4.359375 -0.40625 3.078125 -1.8125 C 1.804688 -3.226562 1.171875 -5.285156 1.171875 -7.984375 C 1.171875 -10.597656 1.816406 -12.609375 3.109375 -14.015625 C 4.410156 -15.421875 6.25 -16.125 8.625 -16.125 C 10.894531 -16.125 12.628906 -15.367188 13.828125 -13.859375 C 15.035156 -12.347656 15.640625 -10.140625 15.640625 -7.234375 L 15.640625 -7.125 L 5.484375 -7.125 C 5.484375 -5.582031 5.769531 -4.414062 6.34375 -3.625 C 6.914062 -2.84375 7.726562 -2.453125 8.78125 -2.453125 C 10.226562 -2.453125 11.144531 -3.082031 11.53125 -4.34375 L 15.40625 -4 C 14.28125 -1.132812 12.003906 0.296875 8.578125 0.296875 Z M 8.578125 -13.53125 C 7.609375 -13.53125 6.863281 -13.191406 6.34375 -12.515625 C 5.820312 -11.847656 5.546875 -10.910156 5.515625 -9.703125 L 11.65625 -9.703125 C 11.582031 -10.972656 11.273438 -11.925781 10.734375 -12.5625 C 10.203125 -13.207031 9.484375 -13.53125 8.578125 -13.53125 Z M 8.578125 -13.53125 "/></g></g><g transform="translate(1065.386969, 315.184714)"><g><path d="M 11.40625 0 L 11.40625 -8.875 C 11.40625 -11.65625 10.609375 -13.046875 9.015625 -13.046875 C 8.179688 -13.046875 7.503906 -12.617188 6.984375 -11.765625 C 6.460938 -10.921875 6.203125 -9.828125 6.203125 -8.484375 L 6.203125 0 L 2.09375 0 L 2.09375 -12.28125 C 2.09375 -13.132812 2.078125 -13.832031 2.046875 -14.375 C 2.023438 -14.914062 2 -15.398438 1.96875 -15.828125 L 5.890625 -15.828125 C 5.921875 -15.640625 5.957031 -15.144531 6 -14.34375 C 6.050781 -13.539062 6.078125 -12.988281 6.078125 -12.6875 L 6.140625 -12.6875 C 6.648438 -13.894531 7.28125 -14.769531 8.03125 -15.3125 C 8.789062 -15.851562 9.695312 -16.125 10.75 -16.125 C 13.164062 -16.125 14.632812 -14.976562 15.15625 -12.6875 L 15.234375 -12.6875 C 15.773438 -13.90625 16.421875 -14.78125 17.171875 -15.3125 C 17.921875 -15.851562 18.875 -16.125 20.03125 -16.125 C 21.570312 -16.125 22.75 -15.597656 23.5625 -14.546875 C 24.375 -13.503906 24.78125 -12.003906 24.78125 -10.046875 L 24.78125 0 L 20.6875 0 L 20.6875 -8.875 C 20.6875 -11.65625 19.890625 -13.046875 18.296875 -13.046875 C 17.492188 -13.046875 16.835938 -12.65625 16.328125 -11.875 C 15.816406 -11.101562 15.535156 -10.035156 15.484375 -8.671875 L 15.484375 0 Z M 11.40625 0 "/></g></g><g transform="translate(1092.026674, 315.184714)"><g/></g><g transform="translate(1100.350667, 315.184714)"><g><path d="M 1.890625 0 L 1.890625 -3.0625 L 6.984375 -3.0625 L 6.984375 -17.109375 L 2.046875 -14.03125 L 2.046875 -17.265625 L 7.203125 -20.609375 L 11.09375 -20.609375 L 11.09375 -3.0625 L 15.828125 -3.0625 L 15.828125 0 Z M 1.890625 0 "/></g></g></g><g clip-path="url(#cef4bc59b7)"><path fill="#d9d9d9" d="M 784.652344 347.042969 L 971.15625 347.042969 L 971.15625 414.453125 L 784.652344 414.453125 Z M 784.652344 347.042969 " fill-opacity="1" fill-rule="nonzero"/></g><g clip-path="url(#8f2cb82f83)"><g mask="url(#7b53d89c47)"><g transform="matrix(1, 0, 0, 1, 980, 347)"><g clip-path="url(#786fded0f2)"><g clip-path="url(#70bcf33500)"><path fill="#03e313" d="M 0.320312 0.0429688 L 186.824219 0.0429688 L 186.824219 67.453125 L 0.320312 67.453125 Z M 0.320312 0.0429688 " fill-opacity="1" fill-rule="nonzero"/></g></g></g></g></g><g fill="#808080" fill-opacity="1"><g transform="translate(1030.423272, 390.485312)"><g><path d="M 2 0 L 2 -20.609375 L 6.3125 -20.609375 L 6.3125 0 Z M 2 0 "/></g></g><g transform="translate(1038.747265, 390.485312)"><g><path d="M 6.140625 0.265625 C 4.929688 0.265625 4 -0.0625 3.34375 -0.71875 C 2.695312 -1.382812 2.375 -2.382812 2.375 -3.71875 L 2.375 -13.046875 L 0.359375 -13.046875 L 0.359375 -15.828125 L 2.578125 -15.828125 L 3.859375 -19.546875 L 6.4375 -19.546875 L 6.4375 -15.828125 L 9.4375 -15.828125 L 9.4375 -13.046875 L 6.4375 -13.046875 L 6.4375 -4.828125 C 6.4375 -4.054688 6.582031 -3.488281 6.875 -3.125 C 7.164062 -2.757812 7.617188 -2.578125 8.234375 -2.578125 C 8.554688 -2.578125 9.015625 -2.644531 9.609375 -2.78125 L 9.609375 -0.234375 C 8.597656 0.0976562 7.441406 0.265625 6.140625 0.265625 Z M 6.140625 0.265625 "/></g></g><g transform="translate(1048.724354, 390.485312)"><g><path d="M 8.578125 0.296875 C 6.191406 0.296875 4.359375 -0.40625 3.078125 -1.8125 C 1.804688 -3.226562 1.171875 -5.285156 1.171875 -7.984375 C 1.171875 -10.597656 1.816406 -12.609375 3.109375 -14.015625 C 4.410156 -15.421875 6.25 -16.125 8.625 -16.125 C 10.894531 -16.125 12.628906 -15.367188 13.828125 -13.859375 C 15.035156 -12.347656 15.640625 -10.140625 15.640625 -7.234375 L 15.640625 -7.125 L 5.484375 -7.125 C 5.484375 -5.582031 5.769531 -4.414062 6.34375 -3.625 C 6.914062 -2.84375 7.726562 -2.453125 8.78125 -2.453125 C 10.226562 -2.453125 11.144531 -3.082031 11.53125 -4.34375 L 15.40625 -4 C 14.28125 -1.132812 12.003906 0.296875 8.578125 0.296875 Z M 8.578125 -13.53125 C 7.609375 -13.53125 6.863281 -13.191406 6.34375 -12.515625 C 5.820312 -11.847656 5.546875 -10.910156 5.515625 -9.703125 L 11.65625 -9.703125 C 11.582031 -10.972656 11.273438 -11.925781 10.734375 -12.5625 C 10.203125 -13.207031 9.484375 -13.53125 8.578125 -13.53125 Z M 8.578125 -13.53125 "/></g></g><g transform="translate(1065.386969, 390.485312)"><g><path d="M 11.40625 0 L 11.40625 -8.875 C 11.40625 -11.65625 10.609375 -13.046875 9.015625 -13.046875 C 8.179688 -13.046875 7.503906 -12.617188 6.984375 -11.765625 C 6.460938 -10.921875 6.203125 -9.828125 6.203125 -8.484375 L 6.203125 0 L 2.09375 0 L 2.09375 -12.28125 C 2.09375 -13.132812 2.078125 -13.832031 2.046875 -14.375 C 2.023438 -14.914062 2 -15.398438 1.96875 -15.828125 L 5.890625 -15.828125 C 5.921875 -15.640625 5.957031 -15.144531 6 -14.34375 C 6.050781 -13.539062 6.078125 -12.988281 6.078125 -12.6875 L 6.140625 -12.6875 C 6.648438 -13.894531 7.28125 -14.769531 8.03125 -15.3125 C 8.789062 -15.851562 9.695312 -16.125 10.75 -16.125 C 13.164062 -16.125 14.632812 -14.976562 15.15625 -12.6875 L 15.234375 -12.6875 C 15.773438 -13.90625 16.421875 -14.78125 17.171875 -15.3125 C 17.921875 -15.851562 18.875 -16.125 20.03125 -16.125 C 21.570312 -16.125 22.75 -15.597656 23.5625 -14.546875 C 24.375 -13.503906 24.78125 -12.003906 24.78125 -10.046875 L 24.78125 0 L 20.6875 0 L 20.6875 -8.875 C 20.6875 -11.65625 19.890625 -13.046875 18.296875 -13.046875 C 17.492188 -13.046875 16.835938 -12.65625 16.328125 -11.875 C 15.816406 -11.101562 15.535156 -10.035156 15.484375 -8.671875 L 15.484375 0 Z M 11.40625 0 "/></g></g><g transform="translate(1092.026674, 390.485312)"><g/></g><g transform="translate(1100.350667, 390.485312)"><g><path d="M 1.03125 0 L 1.03125 -2.859375 C 1.570312 -4.035156 2.335938 -5.179688 3.328125 -6.296875 C 4.316406 -7.421875 5.5625 -8.59375 7.0625 -9.8125 C 8.507812 -10.976562 9.519531 -11.941406 10.09375 -12.703125 C 10.675781 -13.460938 10.96875 -14.210938 10.96875 -14.953125 C 10.96875 -16.742188 10.066406 -17.640625 8.265625 -17.640625 C 7.390625 -17.640625 6.71875 -17.398438 6.25 -16.921875 C 5.789062 -16.453125 5.492188 -15.742188 5.359375 -14.796875 L 1.21875 -15.03125 C 1.445312 -16.945312 2.15625 -18.40625 3.34375 -19.40625 C 4.539062 -20.414062 6.171875 -20.921875 8.234375 -20.921875 C 10.453125 -20.921875 12.15625 -20.410156 13.34375 -19.390625 C 14.539062 -18.378906 15.140625 -16.957031 15.140625 -15.125 C 15.140625 -14.15625 14.945312 -13.28125 14.5625 -12.5 C 14.1875 -11.71875 13.703125 -11 13.109375 -10.34375 C 12.515625 -9.6875 11.851562 -9.070312 11.125 -8.5 C 10.394531 -7.925781 9.6875 -7.363281 9 -6.8125 C 8.320312 -6.269531 7.703125 -5.71875 7.140625 -5.15625 C 6.578125 -4.601562 6.160156 -4.007812 5.890625 -3.375 L 15.453125 -3.375 L 15.453125 0 Z M 1.03125 0 "/></g></g></g><g clip-path="url(#469cd8a0ad)"><path fill="#d9d9d9" d="M 1175.992188 196.441406 L 1362.496094 196.441406 L 1362.496094 263.851562 L 1175.992188 263.851562 Z M 1175.992188 196.441406 " fill-opacity="1" fill-rule="nonzero"/></g><g clip-path="url(#9fe8655de6)"><g mask="url(#b5f4e095f4)"><g transform="matrix(1, 0, 0, 1, 1175, 271)"><g clip-path="url(#ba3485a0b0)"><g clip-path="url(#0a280a1a6d)"><path fill="#03e313" d="M 0.992188 0.742188 L 187.496094 0.742188 L 187.496094 68.152344 L 0.992188 68.152344 Z M 0.992188 0.742188 " fill-opacity="1" fill-rule="nonzero"/></g></g></g></g></g><g fill="#808080" fill-opacity="1"><g transform="translate(1252.729789, 315.184714)"><g><path d="M 15.578125 -5.71875 C 15.578125 -3.789062 14.941406 -2.296875 13.671875 -1.234375 C 12.410156 -0.179688 10.609375 0.34375 8.265625 0.34375 C 6.046875 0.34375 4.285156 -0.164062 2.984375 -1.1875 C 1.679688 -2.207031 0.914062 -3.679688 0.6875 -5.609375 L 4.875 -5.96875 C 5.132812 -3.988281 6.257812 -3 8.25 -3 C 9.226562 -3 9.988281 -3.238281 10.53125 -3.71875 C 11.082031 -4.207031 11.359375 -4.957031 11.359375 -5.96875 C 11.359375 -6.882812 11.023438 -7.582031 10.359375 -8.0625 C 9.703125 -8.550781 8.722656 -8.796875 7.421875 -8.796875 L 5.984375 -8.796875 L 5.984375 -12.125 L 7.328125 -12.125 C 8.503906 -12.125 9.390625 -12.363281 9.984375 -12.84375 C 10.578125 -13.332031 10.875 -14.023438 10.875 -14.921875 C 10.875 -15.765625 10.640625 -16.425781 10.171875 -16.90625 C 9.703125 -17.394531 9.015625 -17.640625 8.109375 -17.640625 C 7.253906 -17.640625 6.566406 -17.40625 6.046875 -16.9375 C 5.523438 -16.46875 5.222656 -15.804688 5.140625 -14.953125 L 1.03125 -15.234375 C 1.25 -17.015625 1.988281 -18.40625 3.25 -19.40625 C 4.507812 -20.414062 6.148438 -20.921875 8.171875 -20.921875 C 10.328125 -20.921875 12.007812 -20.429688 13.21875 -19.453125 C 14.4375 -18.484375 15.046875 -17.144531 15.046875 -15.4375 C 15.046875 -14.144531 14.664062 -13.082031 13.90625 -12.25 C 13.15625 -11.425781 12.066406 -10.878906 10.640625 -10.609375 L 10.640625 -10.546875 C 12.222656 -10.359375 13.441406 -9.835938 14.296875 -8.984375 C 15.148438 -8.128906 15.578125 -7.039062 15.578125 -5.71875 Z M 15.578125 -5.71875 "/></g></g><g transform="translate(1269.392404, 315.184714)"><g><path d="M 15.734375 -5.8125 C 15.734375 -3.875 15.09375 -2.367188 13.8125 -1.296875 C 12.539062 -0.234375 10.71875 0.296875 8.34375 0.296875 C 6 0.296875 4.179688 -0.234375 2.890625 -1.296875 C 1.597656 -2.359375 0.953125 -3.851562 0.953125 -5.78125 C 0.953125 -7.09375 1.332031 -8.195312 2.09375 -9.09375 C 2.851562 -10 3.867188 -10.5625 5.140625 -10.78125 L 5.140625 -10.84375 C 4.035156 -11.082031 3.140625 -11.628906 2.453125 -12.484375 C 1.773438 -13.347656 1.4375 -14.335938 1.4375 -15.453125 C 1.4375 -17.140625 2.03125 -18.472656 3.21875 -19.453125 C 4.414062 -20.429688 6.109375 -20.921875 8.296875 -20.921875 C 10.523438 -20.921875 12.234375 -20.441406 13.421875 -19.484375 C 14.617188 -18.535156 15.21875 -17.1875 15.21875 -15.4375 C 15.21875 -14.3125 14.878906 -13.320312 14.203125 -12.46875 C 13.523438 -11.625 12.617188 -11.085938 11.484375 -10.859375 L 11.484375 -10.8125 C 12.804688 -10.59375 13.84375 -10.046875 14.59375 -9.171875 C 15.351562 -8.304688 15.734375 -7.1875 15.734375 -5.8125 Z M 11 -15.203125 C 11 -16.179688 10.773438 -16.894531 10.328125 -17.34375 C 9.878906 -17.800781 9.203125 -18.03125 8.296875 -18.03125 C 6.515625 -18.03125 5.625 -17.085938 5.625 -15.203125 C 5.625 -13.234375 6.523438 -12.25 8.328125 -12.25 C 9.222656 -12.25 9.890625 -12.476562 10.328125 -12.9375 C 10.773438 -13.394531 11 -14.148438 11 -15.203125 Z M 11.484375 -6.140625 C 11.484375 -8.296875 10.410156 -9.375 8.265625 -9.375 C 7.265625 -9.375 6.5 -9.085938 5.96875 -8.515625 C 5.4375 -7.953125 5.171875 -7.140625 5.171875 -6.078125 C 5.171875 -4.867188 5.429688 -3.988281 5.953125 -3.4375 C 6.484375 -2.882812 7.289062 -2.609375 8.375 -2.609375 C 9.4375 -2.609375 10.21875 -2.882812 10.71875 -3.4375 C 11.226562 -3.988281 11.484375 -4.890625 11.484375 -6.140625 Z M 11.484375 -6.140625 "/></g></g></g><g clip-path="url(#d07881bb43)"><g mask="url(#73ff3e1afd)"><g transform="matrix(1, 0, 0, 1, 1175, 347)"><g clip-path="url(#3b2e5399ff)"><g clip-path="url(#017b6b266d)"><path fill="#03e313" d="M 0.992188 0.0429688 L 187.496094 0.0429688 L 187.496094 67.453125 L 0.992188 67.453125 Z M 0.992188 0.0429688 " fill-opacity="1" fill-rule="nonzero"/></g></g></g></g></g><g fill="#808080" fill-opacity="1"><g transform="translate(1252.729789, 390.485312)"><g><path d="M 1.03125 0 L 1.03125 -2.859375 C 1.570312 -4.035156 2.335938 -5.179688 3.328125 -6.296875 C 4.316406 -7.421875 5.5625 -8.59375 7.0625 -9.8125 C 8.507812 -10.976562 9.519531 -11.941406 10.09375 -12.703125 C 10.675781 -13.460938 10.96875 -14.210938 10.96875 -14.953125 C 10.96875 -16.742188 10.066406 -17.640625 8.265625 -17.640625 C 7.390625 -17.640625 6.71875 -17.398438 6.25 -16.921875 C 5.789062 -16.453125 5.492188 -15.742188 5.359375 -14.796875 L 1.21875 -15.03125 C 1.445312 -16.945312 2.15625 -18.40625 3.34375 -19.40625 C 4.539062 -20.414062 6.171875 -20.921875 8.234375 -20.921875 C 10.453125 -20.921875 12.15625 -20.410156 13.34375 -19.390625 C 14.539062 -18.378906 15.140625 -16.957031 15.140625 -15.125 C 15.140625 -14.15625 14.945312 -13.28125 14.5625 -12.5 C 14.1875 -11.71875 13.703125 -11 13.109375 -10.34375 C 12.515625 -9.6875 11.851562 -9.070312 11.125 -8.5 C 10.394531 -7.925781 9.6875 -7.363281 9 -6.8125 C 8.320312 -6.269531 7.703125 -5.71875 7.140625 -5.15625 C 6.578125 -4.601562 6.160156 -4.007812 5.890625 -3.375 L 15.453125 -3.375 L 15.453125 0 Z M 1.03125 0 "/></g></g><g transform="translate(1269.392404, 390.485312)"><g><path d="M 15.34375 -17.34375 C 14.414062 -15.882812 13.539062 -14.46875 12.71875 -13.09375 C 11.894531 -11.71875 11.175781 -10.332031 10.5625 -8.9375 C 9.945312 -7.550781 9.460938 -6.125 9.109375 -4.65625 C 8.753906 -3.1875 8.578125 -1.632812 8.578125 0 L 4.28125 0 C 4.28125 -1.71875 4.503906 -3.378906 4.953125 -4.984375 C 5.398438 -6.585938 6.046875 -8.21875 6.890625 -9.875 C 7.742188 -11.539062 9.289062 -13.992188 11.53125 -17.234375 L 1.28125 -17.234375 L 1.28125 -20.609375 L 15.34375 -20.609375 Z M 15.34375 -17.34375 "/></g></g></g><g clip-path="url(#4144b4c708)"><g mask="url(#99258582b0)"><g transform="matrix(1, 0, 0, 1, 271, 275)"><g clip-path="url(#b423fd105e)"><g clip-path="url(#50505d2a5f)"><path fill="#ffc000" d="M 0.515625 0.0742188 L 187.019531 0.0742188 L 187.019531 67.484375 L 0.515625 67.484375 Z M 0.515625 0.0742188 " fill-opacity="1" fill-rule="nonzero"/></g></g></g></g></g><g fill="#808080" fill-opacity="1"><g transform="translate(319.136997, 318.515511)"><g><path d="M 2 0 L 2 -20.609375 L 6.3125 -20.609375 L 6.3125 0 Z M 2 0 "/></g></g><g transform="translate(327.460991, 318.515511)"><g><path d="M 6.140625 0.265625 C 4.929688 0.265625 4 -0.0625 3.34375 -0.71875 C 2.695312 -1.382812 2.375 -2.382812 2.375 -3.71875 L 2.375 -13.046875 L 0.359375 -13.046875 L 0.359375 -15.828125 L 2.578125 -15.828125 L 3.859375 -19.546875 L 6.4375 -19.546875 L 6.4375 -15.828125 L 9.4375 -15.828125 L 9.4375 -13.046875 L 6.4375 -13.046875 L 6.4375 -4.828125 C 6.4375 -4.054688 6.582031 -3.488281 6.875 -3.125 C 7.164062 -2.757812 7.617188 -2.578125 8.234375 -2.578125 C 8.554688 -2.578125 9.015625 -2.644531 9.609375 -2.78125 L 9.609375 -0.234375 C 8.597656 0.0976562 7.441406 0.265625 6.140625 0.265625 Z M 6.140625 0.265625 "/></g></g><g transform="translate(337.438079, 318.515511)"><g><path d="M 8.578125 0.296875 C 6.191406 0.296875 4.359375 -0.40625 3.078125 -1.8125 C 1.804688 -3.226562 1.171875 -5.285156 1.171875 -7.984375 C 1.171875 -10.597656 1.816406 -12.609375 3.109375 -14.015625 C 4.410156 -15.421875 6.25 -16.125 8.625 -16.125 C 10.894531 -16.125 12.628906 -15.367188 13.828125 -13.859375 C 15.035156 -12.347656 15.640625 -10.140625 15.640625 -7.234375 L 15.640625 -7.125 L 5.484375 -7.125 C 5.484375 -5.582031 5.769531 -4.414062 6.34375 -3.625 C 6.914062 -2.84375 7.726562 -2.453125 8.78125 -2.453125 C 10.226562 -2.453125 11.144531 -3.082031 11.53125 -4.34375 L 15.40625 -4 C 14.28125 -1.132812 12.003906 0.296875 8.578125 0.296875 Z M 8.578125 -13.53125 C 7.609375 -13.53125 6.863281 -13.191406 6.34375 -12.515625 C 5.820312 -11.847656 5.546875 -10.910156 5.515625 -9.703125 L 11.65625 -9.703125 C 11.582031 -10.972656 11.273438 -11.925781 10.734375 -12.5625 C 10.203125 -13.207031 9.484375 -13.53125 8.578125 -13.53125 Z M 8.578125 -13.53125 "/></g></g><g transform="translate(354.100695, 318.515511)"><g><path d="M 11.40625 0 L 11.40625 -8.875 C 11.40625 -11.65625 10.609375 -13.046875 9.015625 -13.046875 C 8.179688 -13.046875 7.503906 -12.617188 6.984375 -11.765625 C 6.460938 -10.921875 6.203125 -9.828125 6.203125 -8.484375 L 6.203125 0 L 2.09375 0 L 2.09375 -12.28125 C 2.09375 -13.132812 2.078125 -13.832031 2.046875 -14.375 C 2.023438 -14.914062 2 -15.398438 1.96875 -15.828125 L 5.890625 -15.828125 C 5.921875 -15.640625 5.957031 -15.144531 6 -14.34375 C 6.050781 -13.539062 6.078125 -12.988281 6.078125 -12.6875 L 6.140625 -12.6875 C 6.648438 -13.894531 7.28125 -14.769531 8.03125 -15.3125 C 8.789062 -15.851562 9.695312 -16.125 10.75 -16.125 C 13.164062 -16.125 14.632812 -14.976562 15.15625 -12.6875 L 15.234375 -12.6875 C 15.773438 -13.90625 16.421875 -14.78125 17.171875 -15.3125 C 17.921875 -15.851562 18.875 -16.125 20.03125 -16.125 C 21.570312 -16.125 22.75 -15.597656 23.5625 -14.546875 C 24.375 -13.503906 24.78125 -12.003906 24.78125 -10.046875 L 24.78125 0 L 20.6875 0 L 20.6875 -8.875 C 20.6875 -11.65625 19.890625 -13.046875 18.296875 -13.046875 C 17.492188 -13.046875 16.835938 -12.65625 16.328125 -11.875 C 15.816406 -11.101562 15.535156 -10.035156 15.484375 -8.671875 L 15.484375 0 Z M 11.40625 0 "/></g></g><g transform="translate(380.740399, 318.515511)"><g/></g><g transform="translate(389.064392, 318.515511)"><g><path d="M 16.578125 0 L 14.75 -5.265625 L 6.890625 -5.265625 L 5.0625 0 L 0.75 0 L 8.265625 -20.609375 L 13.359375 -20.609375 L 20.84375 0 Z M 10.8125 -17.4375 L 10.71875 -17.109375 C 10.625 -16.753906 10.507812 -16.351562 10.375 -15.90625 C 10.238281 -15.457031 9.398438 -12.992188 7.859375 -8.515625 L 13.78125 -8.515625 L 11.75 -14.4375 L 11.109375 -16.421875 Z M 10.8125 -17.4375 "/></g></g></g><g clip-path="url(#83eb15a9a6)"><path fill="#f2f2f2" d="M 979.828125 422.34375 L 1166.332031 422.34375 L 1166.332031 489.753906 L 979.828125 489.753906 Z M 979.828125 422.34375 " fill-opacity="1" fill-rule="nonzero"/></g><g clip-path="url(#748dca8c56)"><g mask="url(#d38f8083fc)"><g transform="matrix(1, 0, 0, 1, 467, 275)"><g clip-path="url(#88fc97efe5)"><g clip-path="url(#5d472eb270)"><path fill="#ffc000" d="M 0.1875 0.0742188 L 186.691406 0.0742188 L 186.691406 67.484375 L 0.1875 67.484375 Z M 0.1875 0.0742188 " fill-opacity="1" fill-rule="nonzero"/></g></g></g></g></g><g fill="#808080" fill-opacity="1"><g transform="translate(543.924812, 318.515511)"><g><path d="M 15.578125 -5.71875 C 15.578125 -3.789062 14.941406 -2.296875 13.671875 -1.234375 C 12.410156 -0.179688 10.609375 0.34375 8.265625 0.34375 C 6.046875 0.34375 4.285156 -0.164062 2.984375 -1.1875 C 1.679688 -2.207031 0.914062 -3.679688 0.6875 -5.609375 L 4.875 -5.96875 C 5.132812 -3.988281 6.257812 -3 8.25 -3 C 9.226562 -3 9.988281 -3.238281 10.53125 -3.71875 C 11.082031 -4.207031 11.359375 -4.957031 11.359375 -5.96875 C 11.359375 -6.882812 11.023438 -7.582031 10.359375 -8.0625 C 9.703125 -8.550781 8.722656 -8.796875 7.421875 -8.796875 L 5.984375 -8.796875 L 5.984375 -12.125 L 7.328125 -12.125 C 8.503906 -12.125 9.390625 -12.363281 9.984375 -12.84375 C 10.578125 -13.332031 10.875 -14.023438 10.875 -14.921875 C 10.875 -15.765625 10.640625 -16.425781 10.171875 -16.90625 C 9.703125 -17.394531 9.015625 -17.640625 8.109375 -17.640625 C 7.253906 -17.640625 6.566406 -17.40625 6.046875 -16.9375 C 5.523438 -16.46875 5.222656 -15.804688 5.140625 -14.953125 L 1.03125 -15.234375 C 1.25 -17.015625 1.988281 -18.40625 3.25 -19.40625 C 4.507812 -20.414062 6.148438 -20.921875 8.171875 -20.921875 C 10.328125 -20.921875 12.007812 -20.429688 13.21875 -19.453125 C 14.4375 -18.484375 15.046875 -17.144531 15.046875 -15.4375 C 15.046875 -14.144531 14.664062 -13.082031 13.90625 -12.25 C 13.15625 -11.425781 12.066406 -10.878906 10.640625 -10.609375 L 10.640625 -10.546875 C 12.222656 -10.359375 13.441406 -9.835938 14.296875 -8.984375 C 15.148438 -8.128906 15.578125 -7.039062 15.578125 -5.71875 Z M 15.578125 -5.71875 "/></g></g><g transform="translate(560.587427, 318.515511)"><g><path d="M 1.890625 0 L 1.890625 -3.0625 L 6.984375 -3.0625 L 6.984375 -17.109375 L 2.046875 -14.03125 L 2.046875 -17.265625 L 7.203125 -20.609375 L 11.09375 -20.609375 L 11.09375 -3.0625 L 15.828125 -3.0625 L 15.828125 0 Z M 1.890625 0 "/></g></g></g><g clip-path="url(#e48c3097ca)"><path fill="#f2f2f2" d="M 1175.992188 422.34375 L 1362.496094 422.34375 L 1362.496094 489.753906 L 1175.992188 489.753906 Z M 1175.992188 422.34375 " fill-opacity="1" fill-rule="nonzero"/></g><g clip-path="url(#88824d5aba)"><path fill="#d9d9d9" d="M 75.847656 425.675781 L 262.351562 425.675781 L 262.351562 493.085938 L 75.847656 493.085938 Z M 75.847656 425.675781 " fill-opacity="1" fill-rule="nonzero"/></g><g clip-path="url(#46e3153fda)"><g mask="url(#ab6b56890a)"><g transform="matrix(1, 0, 0, 1, 271, 425)"><g clip-path="url(#422ecd9e06)"><g clip-path="url(#70d4a41d9d)"><path fill="#ffc000" d="M 0.515625 0.675781 L 187.019531 0.675781 L 187.019531 68.085938 L 0.515625 68.085938 Z M 0.515625 0.675781 " fill-opacity="1" fill-rule="nonzero"/></g></g></g></g></g><g fill="#808080" fill-opacity="1"><g transform="translate(319.137115, 469.116686)"><g><path d="M 2 0 L 2 -20.609375 L 6.3125 -20.609375 L 6.3125 0 Z M 2 0 "/></g></g><g transform="translate(327.461108, 469.116686)"><g><path d="M 6.140625 0.265625 C 4.929688 0.265625 4 -0.0625 3.34375 -0.71875 C 2.695312 -1.382812 2.375 -2.382812 2.375 -3.71875 L 2.375 -13.046875 L 0.359375 -13.046875 L 0.359375 -15.828125 L 2.578125 -15.828125 L 3.859375 -19.546875 L 6.4375 -19.546875 L 6.4375 -15.828125 L 9.4375 -15.828125 L 9.4375 -13.046875 L 6.4375 -13.046875 L 6.4375 -4.828125 C 6.4375 -4.054688 6.582031 -3.488281 6.875 -3.125 C 7.164062 -2.757812 7.617188 -2.578125 8.234375 -2.578125 C 8.554688 -2.578125 9.015625 -2.644531 9.609375 -2.78125 L 9.609375 -0.234375 C 8.597656 0.0976562 7.441406 0.265625 6.140625 0.265625 Z M 6.140625 0.265625 "/></g></g><g transform="translate(337.438197, 469.116686)"><g><path d="M 8.578125 0.296875 C 6.191406 0.296875 4.359375 -0.40625 3.078125 -1.8125 C 1.804688 -3.226562 1.171875 -5.285156 1.171875 -7.984375 C 1.171875 -10.597656 1.816406 -12.609375 3.109375 -14.015625 C 4.410156 -15.421875 6.25 -16.125 8.625 -16.125 C 10.894531 -16.125 12.628906 -15.367188 13.828125 -13.859375 C 15.035156 -12.347656 15.640625 -10.140625 15.640625 -7.234375 L 15.640625 -7.125 L 5.484375 -7.125 C 5.484375 -5.582031 5.769531 -4.414062 6.34375 -3.625 C 6.914062 -2.84375 7.726562 -2.453125 8.78125 -2.453125 C 10.226562 -2.453125 11.144531 -3.082031 11.53125 -4.34375 L 15.40625 -4 C 14.28125 -1.132812 12.003906 0.296875 8.578125 0.296875 Z M 8.578125 -13.53125 C 7.609375 -13.53125 6.863281 -13.191406 6.34375 -12.515625 C 5.820312 -11.847656 5.546875 -10.910156 5.515625 -9.703125 L 11.65625 -9.703125 C 11.582031 -10.972656 11.273438 -11.925781 10.734375 -12.5625 C 10.203125 -13.207031 9.484375 -13.53125 8.578125 -13.53125 Z M 8.578125 -13.53125 "/></g></g><g transform="translate(354.100812, 469.116686)"><g><path d="M 11.40625 0 L 11.40625 -8.875 C 11.40625 -11.65625 10.609375 -13.046875 9.015625 -13.046875 C 8.179688 -13.046875 7.503906 -12.617188 6.984375 -11.765625 C 6.460938 -10.921875 6.203125 -9.828125 6.203125 -8.484375 L 6.203125 0 L 2.09375 0 L 2.09375 -12.28125 C 2.09375 -13.132812 2.078125 -13.832031 2.046875 -14.375 C 2.023438 -14.914062 2 -15.398438 1.96875 -15.828125 L 5.890625 -15.828125 C 5.921875 -15.640625 5.957031 -15.144531 6 -14.34375 C 6.050781 -13.539062 6.078125 -12.988281 6.078125 -12.6875 L 6.140625 -12.6875 C 6.648438 -13.894531 7.28125 -14.769531 8.03125 -15.3125 C 8.789062 -15.851562 9.695312 -16.125 10.75 -16.125 C 13.164062 -16.125 14.632812 -14.976562 15.15625 -12.6875 L 15.234375 -12.6875 C 15.773438 -13.90625 16.421875 -14.78125 17.171875 -15.3125 C 17.921875 -15.851562 18.875 -16.125 20.03125 -16.125 C 21.570312 -16.125 22.75 -15.597656 23.5625 -14.546875 C 24.375 -13.503906 24.78125 -12.003906 24.78125 -10.046875 L 24.78125 0 L 20.6875 0 L 20.6875 -8.875 C 20.6875 -11.65625 19.890625 -13.046875 18.296875 -13.046875 C 17.492188 -13.046875 16.835938 -12.65625 16.328125 -11.875 C 15.816406 -11.101562 15.535156 -10.035156 15.484375 -8.671875 L 15.484375 0 Z M 11.40625 0 "/></g></g><g transform="translate(380.740517, 469.116686)"><g/></g><g transform="translate(389.06451, 469.116686)"><g><path d="M 20.265625 -5.875 C 20.265625 -4.007812 19.5625 -2.5625 18.15625 -1.53125 C 16.757812 -0.507812 14.8125 0 12.3125 0 L 2 0 L 2 -20.609375 L 11.4375 -20.609375 C 13.945312 -20.609375 15.847656 -20.171875 17.140625 -19.296875 C 18.441406 -18.421875 19.09375 -17.132812 19.09375 -15.4375 C 19.09375 -14.257812 18.765625 -13.269531 18.109375 -12.46875 C 17.460938 -11.664062 16.476562 -11.125 15.15625 -10.84375 C 16.820312 -10.644531 18.085938 -10.117188 18.953125 -9.265625 C 19.828125 -8.410156 20.265625 -7.28125 20.265625 -5.875 Z M 14.75 -14.84375 C 14.75 -15.769531 14.453125 -16.425781 13.859375 -16.8125 C 13.265625 -17.207031 12.390625 -17.40625 11.234375 -17.40625 L 6.3125 -17.40625 L 6.3125 -12.296875 L 11.265625 -12.296875 C 12.484375 -12.296875 13.367188 -12.507812 13.921875 -12.9375 C 14.472656 -13.363281 14.75 -14 14.75 -14.84375 Z M 15.9375 -6.21875 C 15.9375 -8.144531 14.550781 -9.109375 11.78125 -9.109375 L 6.3125 -9.109375 L 6.3125 -3.203125 L 11.953125 -3.203125 C 13.335938 -3.203125 14.347656 -3.453125 14.984375 -3.953125 C 15.617188 -4.453125 15.9375 -5.207031 15.9375 -6.21875 Z M 15.9375 -6.21875 "/></g></g></g><g clip-path="url(#dcdb37f398)"><g mask="url(#757d6c52b8)"><g transform="matrix(1, 0, 0, 1, 467, 425)"><g clip-path="url(#76dac4488c)"><g clip-path="url(#eaacf1cf62)"><path fill="#ffc000" d="M 0.1875 0.675781 L 186.691406 0.675781 L 186.691406 68.085938 L 0.1875 68.085938 Z M 0.1875 0.675781 " fill-opacity="1" fill-rule="nonzero"/></g></g></g></g></g><g fill="#808080" fill-opacity="1"><g transform="translate(543.924812, 469.116686)"><g><path d="M 1.03125 0 L 1.03125 -2.859375 C 1.570312 -4.035156 2.335938 -5.179688 3.328125 -6.296875 C 4.316406 -7.421875 5.5625 -8.59375 7.0625 -9.8125 C 8.507812 -10.976562 9.519531 -11.941406 10.09375 -12.703125 C 10.675781 -13.460938 10.96875 -14.210938 10.96875 -14.953125 C 10.96875 -16.742188 10.066406 -17.640625 8.265625 -17.640625 C 7.390625 -17.640625 6.71875 -17.398438 6.25 -16.921875 C 5.789062 -16.453125 5.492188 -15.742188 5.359375 -14.796875 L 1.21875 -15.03125 C 1.445312 -16.945312 2.15625 -18.40625 3.34375 -19.40625 C 4.539062 -20.414062 6.171875 -20.921875 8.234375 -20.921875 C 10.453125 -20.921875 12.15625 -20.410156 13.34375 -19.390625 C 14.539062 -18.378906 15.140625 -16.957031 15.140625 -15.125 C 15.140625 -14.15625 14.945312 -13.28125 14.5625 -12.5 C 14.1875 -11.71875 13.703125 -11 13.109375 -10.34375 C 12.515625 -9.6875 11.851562 -9.070312 11.125 -8.5 C 10.394531 -7.925781 9.6875 -7.363281 9 -6.8125 C 8.320312 -6.269531 7.703125 -5.71875 7.140625 -5.15625 C 6.578125 -4.601562 6.160156 -4.007812 5.890625 -3.375 L 15.453125 -3.375 L 15.453125 0 Z M 1.03125 0 "/></g></g><g transform="translate(560.587427, 469.116686)"><g><path d="M 15.34375 -17.34375 C 14.414062 -15.882812 13.539062 -14.46875 12.71875 -13.09375 C 11.894531 -11.71875 11.175781 -10.332031 10.5625 -8.9375 C 9.945312 -7.550781 9.460938 -6.125 9.109375 -4.65625 C 8.753906 -3.1875 8.578125 -1.632812 8.578125 0 L 4.28125 0 C 4.28125 -1.71875 4.503906 -3.378906 4.953125 -4.984375 C 5.398438 -6.585938 6.046875 -8.21875 6.890625 -9.875 C 7.742188 -11.539062 9.289062 -13.992188 11.53125 -17.234375 L 1.28125 -17.234375 L 1.28125 -20.609375 L 15.34375 -20.609375 Z M 15.34375 -17.34375 "/></g></g></g><g clip-path="url(#f40c53feec)"><path fill="#d9d9d9" d="M 784.652344 422.34375 L 971.15625 422.34375 L 971.15625 489.753906 L 784.652344 489.753906 Z M 784.652344 422.34375 " fill-opacity="1" fill-rule="nonzero"/></g></svg>