<svg xmlns="http://www.w3.org/2000/svg" xmlns:xlink="http://www.w3.org/1999/xlink" width="1919" zoomAndPan="magnify" viewBox="0 0 1439.25 443.999984" height="592" preserveAspectRatio="xMidYMid meet" version="1.0"><defs><filter x="0%" y="0%" width="100%" height="100%" id="2f382ffe44"><feColorMatrix values="0 0 0 0 1 0 0 0 0 1 0 0 0 0 1 0 0 0 1 0" color-interpolation-filters="sRGB"/></filter><g/><clipPath id="5a09c99640"><path d="M 75.332031 153.96875 L 262 153.96875 L 262 221.269531 L 75.332031 221.269531 Z M 75.332031 153.96875 " clip-rule="nonzero"/></clipPath><clipPath id="8be80483c5"><path d="M 271.160156 78.609375 L 458 78.609375 L 458 145.910156 L 271.160156 145.910156 Z M 271.160156 78.609375 " clip-rule="nonzero"/></clipPath><clipPath id="b568070336"><path d="M 75.332031 229.332031 L 262 229.332031 L 262 296.632812 L 75.332031 296.632812 Z M 75.332031 229.332031 " clip-rule="nonzero"/></clipPath><clipPath id="93fcf6646e"><path d="M 271.160156 229.332031 L 458.105469 229.332031 L 458.105469 296.632812 L 271.160156 296.632812 Z M 271.160156 229.332031 " clip-rule="nonzero"/></clipPath><mask id="8db10051d0"><g filter="url(#2f382ffe44)"><rect x="-143.925" width="1727.1" fill="#000000" y="-44.399998" height="532.79998" fill-opacity="0.498"/></g></mask><clipPath id="8e26265f7f"><path d="M 0.160156 0.332031 L 187 0.332031 L 187 67.632812 L 0.160156 67.632812 Z M 0.160156 0.332031 " clip-rule="nonzero"/></clipPath><clipPath id="a5384ed603"><rect x="0" width="188" y="0" height="68"/></clipPath><clipPath id="09e888c4b2"><path d="M 466.984375 78.609375 L 653.929688 78.609375 L 653.929688 145.910156 L 466.984375 145.910156 Z M 466.984375 78.609375 " clip-rule="nonzero"/></clipPath><clipPath id="c290c005f3"><path d="M 466.984375 229.332031 L 653.929688 229.332031 L 653.929688 296.632812 L 466.984375 296.632812 Z M 466.984375 229.332031 " clip-rule="nonzero"/></clipPath><mask id="12da259762"><g filter="url(#2f382ffe44)"><rect x="-143.925" width="1727.1" fill="#000000" y="-44.399998" height="532.79998" fill-opacity="0.498"/></g></mask><clipPath id="65eb63f69f"><path d="M 0.984375 0.332031 L 187.929688 0.332031 L 187.929688 67.632812 L 0.984375 67.632812 Z M 0.984375 0.332031 " clip-rule="nonzero"/></clipPath><clipPath id="dbf2427edf"><rect x="0" width="188" y="0" height="68"/></clipPath><clipPath id="e0fddd5311"><path d="M 670.679688 153.96875 L 768.878906 153.96875 L 768.878906 216 L 670.679688 216 Z M 670.679688 153.96875 " clip-rule="nonzero"/></clipPath><clipPath id="f025ec9c3d"><path d="M 670.679688 169.414062 L 737.554688 169.414062 L 737.554688 153.96875 L 768.4375 184.855469 L 737.554688 215.738281 L 737.554688 200.296875 L 670.679688 200.296875 L 670.679688 169.414062 " clip-rule="nonzero"/></clipPath><mask id="a5922ed8a8"><g filter="url(#2f382ffe44)"><rect x="-143.925" width="1727.1" fill="#000000" y="-44.399998" height="532.79998" fill-opacity="0.4"/></g></mask><clipPath id="7e5e8f7ecb"><path d="M 0.679688 0.96875 L 98.558594 0.96875 L 98.558594 62.761719 L 0.679688 62.761719 Z M 0.679688 0.96875 " clip-rule="nonzero"/></clipPath><clipPath id="0a0059e5b4"><path d="M 0.679688 16.414062 L 67.554688 16.414062 L 67.554688 0.96875 L 98.4375 31.855469 L 67.554688 62.738281 L 67.554688 47.296875 L 0.679688 47.296875 L 0.679688 16.414062 " clip-rule="nonzero"/></clipPath><clipPath id="84b858dd39"><rect x="0" width="99" y="0" height="63"/></clipPath><clipPath id="1eb8487c66"><path d="M 784.703125 150.636719 L 971.648438 150.636719 L 971.648438 217.9375 L 784.703125 217.9375 Z M 784.703125 150.636719 " clip-rule="nonzero"/></clipPath><clipPath id="585af4f08b"><path d="M 980.527344 75.277344 L 1167.472656 75.277344 L 1167.472656 142.578125 L 980.527344 142.578125 Z M 980.527344 75.277344 " clip-rule="nonzero"/></clipPath><clipPath id="f1b06f632d"><path d="M 980.527344 150.636719 L 1167.472656 150.636719 L 1167.472656 217.9375 L 980.527344 217.9375 Z M 980.527344 150.636719 " clip-rule="nonzero"/></clipPath><clipPath id="bd23fae8a4"><path d="M 784.703125 225.996094 L 971.648438 225.996094 L 971.648438 293.296875 L 784.703125 293.296875 Z M 784.703125 225.996094 " clip-rule="nonzero"/></clipPath><clipPath id="327485c3ba"><path d="M 980.527344 225.996094 L 1167.472656 225.996094 L 1167.472656 293.296875 L 980.527344 293.296875 Z M 980.527344 225.996094 " clip-rule="nonzero"/></clipPath><clipPath id="2fe7a97572"><path d="M 1176.355469 75.277344 L 1363.300781 75.277344 L 1363.300781 142.578125 L 1176.355469 142.578125 Z M 1176.355469 75.277344 " clip-rule="nonzero"/></clipPath><clipPath id="5ec189b662"><path d="M 1176.355469 150.636719 L 1363.300781 150.636719 L 1363.300781 217.9375 L 1176.355469 217.9375 Z M 1176.355469 150.636719 " clip-rule="nonzero"/></clipPath><clipPath id="6e7d2a34be"><path d="M 1176.355469 225.996094 L 1363.300781 225.996094 L 1363.300781 293.296875 L 1176.355469 293.296875 Z M 1176.355469 225.996094 " clip-rule="nonzero"/></clipPath><clipPath id="ef2fe7f000"><path d="M 271.160156 153.96875 L 458.105469 153.96875 L 458.105469 221.269531 L 271.160156 221.269531 Z M 271.160156 153.96875 " clip-rule="nonzero"/></clipPath><mask id="f97f42ab82"><g filter="url(#2f382ffe44)"><rect x="-143.925" width="1727.1" fill="#000000" y="-44.399998" height="532.79998" fill-opacity="0.498"/></g></mask><clipPath id="9cd38f78af"><path d="M 0.160156 0.96875 L 187 0.96875 L 187 68.269531 L 0.160156 68.269531 Z M 0.160156 0.96875 " clip-rule="nonzero"/></clipPath><clipPath id="486c8d030f"><rect x="0" width="188" y="0" height="69"/></clipPath><clipPath id="6876387d65"><path d="M 980.035156 301.359375 L 1166.980469 301.359375 L 1166.980469 368.65625 L 980.035156 368.65625 Z M 980.035156 301.359375 " clip-rule="nonzero"/></clipPath><mask id="4111a61391"><g filter="url(#2f382ffe44)"><rect x="-143.925" width="1727.1" fill="#000000" y="-44.399998" height="532.79998" fill-opacity="0.498"/></g></mask><clipPath id="e8551b24b5"><path d="M 0.0351562 0.359375 L 186.980469 0.359375 L 186.980469 67.65625 L 0.0351562 67.65625 Z M 0.0351562 0.359375 " clip-rule="nonzero"/></clipPath><clipPath id="0f3db6b74b"><rect x="0" width="187" y="0" height="68"/></clipPath><clipPath id="7b308c1e4c"><path d="M 466.984375 153.96875 L 653.929688 153.96875 L 653.929688 221.269531 L 466.984375 221.269531 Z M 466.984375 153.96875 " clip-rule="nonzero"/></clipPath><mask id="3bda631efd"><g filter="url(#2f382ffe44)"><rect x="-143.925" width="1727.1" fill="#000000" y="-44.399998" height="532.79998" fill-opacity="0.498"/></g></mask><clipPath id="24cc2ca708"><path d="M 0.984375 0.96875 L 187.929688 0.96875 L 187.929688 68.269531 L 0.984375 68.269531 Z M 0.984375 0.96875 " clip-rule="nonzero"/></clipPath><clipPath id="927eb6ce08"><rect x="0" width="188" y="0" height="69"/></clipPath><clipPath id="43f5df318a"><path d="M 1176.355469 301.359375 L 1363.300781 301.359375 L 1363.300781 368.65625 L 1176.355469 368.65625 Z M 1176.355469 301.359375 " clip-rule="nonzero"/></clipPath><mask id="5dd5fa6a9e"><g filter="url(#2f382ffe44)"><rect x="-143.925" width="1727.1" fill="#000000" y="-44.399998" height="532.79998" fill-opacity="0.498"/></g></mask><clipPath id="aca3b62f14"><path d="M 0.355469 0.359375 L 187.300781 0.359375 L 187.300781 67.65625 L 0.355469 67.65625 Z M 0.355469 0.359375 " clip-rule="nonzero"/></clipPath><clipPath id="b5db6a0587"><rect x="0" width="188" y="0" height="68"/></clipPath></defs><g clip-path="url(#5a09c99640)"><path fill="#d9d9d9" d="M 75.332031 153.96875 L 261.988281 153.96875 L 261.988281 221.433594 L 75.332031 221.433594 Z M 75.332031 153.96875 " fill-opacity="1" fill-rule="nonzero"/></g><g clip-path="url(#8be80483c5)"><path fill="#d9d9d9" d="M 271.160156 78.609375 L 457.8125 78.609375 L 457.8125 146.074219 L 271.160156 146.074219 Z M 271.160156 78.609375 " fill-opacity="1" fill-rule="nonzero"/></g><g clip-path="url(#b568070336)"><path fill="#d9d9d9" d="M 75.332031 229.332031 L 261.988281 229.332031 L 261.988281 296.796875 L 75.332031 296.796875 Z M 75.332031 229.332031 " fill-opacity="1" fill-rule="nonzero"/></g><g clip-path="url(#93fcf6646e)"><g mask="url(#8db10051d0)"><g transform="matrix(1, 0, 0, 1, 271, 229)"><g clip-path="url(#a5384ed603)"><g clip-path="url(#8e26265f7f)"><path fill="#ffc000" d="M 0.160156 0.332031 L 186.8125 0.332031 L 186.8125 67.796875 L 0.160156 67.796875 Z M 0.160156 0.332031 " fill-opacity="1" fill-rule="nonzero"/></g></g></g></g></g><g fill="#808080" fill-opacity="1"><g transform="translate(337.125178, 272.808504)"><g><path d="M 20.390625 -10.46875 C 20.390625 -8.34375 19.972656 -6.484375 19.140625 -4.890625 C 18.304688 -3.304688 17.125 -2.09375 15.59375 -1.25 C 14.070312 -0.414062 12.320312 0 10.34375 0 L 2 0 L 2 -20.625 L 9.46875 -20.625 C 12.945312 -20.625 15.632812 -19.75 17.53125 -18 C 19.4375 -16.25 20.390625 -13.738281 20.390625 -10.46875 Z M 16.046875 -10.46875 C 16.046875 -12.6875 15.46875 -14.378906 14.3125 -15.546875 C 13.164062 -16.710938 11.523438 -17.296875 9.390625 -17.296875 L 6.328125 -17.296875 L 6.328125 -3.34375 L 9.984375 -3.34375 C 11.835938 -3.34375 13.3125 -3.976562 14.40625 -5.25 C 15.5 -6.53125 16.046875 -8.269531 16.046875 -10.46875 Z M 16.046875 -10.46875 "/></g></g><g transform="translate(358.778932, 272.808504)"><g><path d="M 5.75 0.296875 C 4.21875 0.296875 3.019531 -0.117188 2.15625 -0.953125 C 1.300781 -1.785156 0.875 -2.960938 0.875 -4.484375 C 0.875 -6.117188 1.40625 -7.363281 2.46875 -8.21875 C 3.539062 -9.082031 5.09375 -9.523438 7.125 -9.546875 L 10.546875 -9.609375 L 10.546875 -10.40625 C 10.546875 -11.445312 10.363281 -12.21875 10 -12.71875 C 9.632812 -13.21875 9.046875 -13.46875 8.234375 -13.46875 C 7.472656 -13.46875 6.910156 -13.296875 6.546875 -12.953125 C 6.191406 -12.609375 5.972656 -12.035156 5.890625 -11.234375 L 1.59375 -11.4375 C 1.851562 -12.976562 2.554688 -14.144531 3.703125 -14.9375 C 4.859375 -15.738281 6.425781 -16.140625 8.40625 -16.140625 C 10.40625 -16.140625 11.945312 -15.644531 13.03125 -14.65625 C 14.113281 -13.664062 14.65625 -12.265625 14.65625 -10.453125 L 14.65625 -4.6875 C 14.65625 -3.800781 14.753906 -3.1875 14.953125 -2.84375 C 15.148438 -2.507812 15.484375 -2.34375 15.953125 -2.34375 C 16.265625 -2.34375 16.566406 -2.375 16.859375 -2.4375 L 16.859375 -0.203125 C 16.617188 -0.140625 16.398438 -0.0820312 16.203125 -0.03125 C 16.015625 0.0078125 15.820312 0.0390625 15.625 0.0625 C 15.425781 0.09375 15.21875 0.117188 15 0.140625 C 14.78125 0.160156 14.523438 0.171875 14.234375 0.171875 C 13.191406 0.171875 12.425781 -0.078125 11.9375 -0.578125 C 11.445312 -1.085938 11.148438 -1.835938 11.046875 -2.828125 L 10.96875 -2.828125 C 9.8125 -0.742188 8.070312 0.296875 5.75 0.296875 Z M 10.546875 -7.328125 L 8.4375 -7.3125 C 7.476562 -7.269531 6.796875 -7.160156 6.390625 -6.984375 C 5.992188 -6.816406 5.691406 -6.554688 5.484375 -6.203125 C 5.273438 -5.859375 5.171875 -5.390625 5.171875 -4.796875 C 5.171875 -4.046875 5.34375 -3.488281 5.6875 -3.125 C 6.03125 -2.757812 6.492188 -2.578125 7.078125 -2.578125 C 7.710938 -2.578125 8.296875 -2.75 8.828125 -3.09375 C 9.367188 -3.445312 9.789062 -3.929688 10.09375 -4.546875 C 10.394531 -5.171875 10.546875 -5.832031 10.546875 -6.53125 Z M 10.546875 -7.328125 "/></g></g><g transform="translate(375.454812, 272.808504)"><g><path d="M 4.140625 6.21875 C 3.160156 6.21875 2.296875 6.15625 1.546875 6.03125 L 1.546875 3.109375 C 2.066406 3.179688 2.539062 3.21875 2.96875 3.21875 C 3.550781 3.21875 4.035156 3.125 4.421875 2.9375 C 4.804688 2.757812 5.148438 2.453125 5.453125 2.015625 C 5.765625 1.585938 6.113281 0.863281 6.5 -0.15625 L 0.234375 -15.84375 L 4.578125 -15.84375 L 7.078125 -8.421875 C 7.460938 -7.359375 7.953125 -5.726562 8.546875 -3.53125 L 8.921875 -4.921875 L 9.875 -8.359375 L 12.203125 -15.84375 L 16.515625 -15.84375 L 10.25 0.828125 C 9.40625 2.859375 8.53125 4.265625 7.625 5.046875 C 6.726562 5.828125 5.566406 6.21875 4.140625 6.21875 Z M 4.140625 6.21875 "/></g></g></g><g clip-path="url(#09e888c4b2)"><path fill="#d9d9d9" d="M 466.984375 78.609375 L 653.636719 78.609375 L 653.636719 146.074219 L 466.984375 146.074219 Z M 466.984375 78.609375 " fill-opacity="1" fill-rule="nonzero"/></g><g clip-path="url(#c290c005f3)"><g mask="url(#12da259762)"><g transform="matrix(1, 0, 0, 1, 466, 229)"><g clip-path="url(#dbf2427edf)"><g clip-path="url(#65eb63f69f)"><path fill="#ffc000" d="M 0.984375 0.332031 L 187.636719 0.332031 L 187.636719 67.796875 L 0.984375 67.796875 Z M 0.984375 0.332031 " fill-opacity="1" fill-rule="nonzero"/></g></g></g></g></g><g fill="#808080" fill-opacity="1"><g transform="translate(533.805774, 272.808504)"><g><path d="M 2 0 L 2 -20.625 L 6.328125 -20.625 L 6.328125 -3.34375 L 17.390625 -3.34375 L 17.390625 0 Z M 2 0 "/></g></g><g transform="translate(552.121424, 272.808504)"><g><path d="M 2.09375 -18.703125 L 2.09375 -21.734375 L 6.203125 -21.734375 L 6.203125 -18.703125 Z M 2.09375 0 L 2.09375 -15.84375 L 6.203125 -15.84375 L 6.203125 0 Z M 2.09375 0 "/></g></g><g transform="translate(560.452043, 272.808504)"><g><path d="M 6.921875 -13.0625 L 6.921875 0 L 2.828125 0 L 2.828125 -13.0625 L 0.515625 -13.0625 L 0.515625 -15.84375 L 2.828125 -15.84375 L 2.828125 -17.5 C 2.828125 -18.925781 3.207031 -19.988281 3.96875 -20.6875 C 4.726562 -21.382812 5.882812 -21.734375 7.4375 -21.734375 C 8.207031 -21.734375 9.078125 -21.65625 10.046875 -21.5 L 10.046875 -18.84375 C 9.640625 -18.925781 9.238281 -18.96875 8.84375 -18.96875 C 8.132812 -18.96875 7.632812 -18.828125 7.34375 -18.546875 C 7.0625 -18.273438 6.921875 -17.785156 6.921875 -17.078125 L 6.921875 -15.84375 L 10.046875 -15.84375 L 10.046875 -13.0625 Z M 6.921875 -13.0625 "/></g></g><g transform="translate(570.437074, 272.808504)"><g><path d="M 8.578125 0.296875 C 6.191406 0.296875 4.359375 -0.40625 3.078125 -1.8125 C 1.804688 -3.226562 1.171875 -5.289062 1.171875 -8 C 1.171875 -10.613281 1.816406 -12.625 3.109375 -14.03125 C 4.410156 -15.4375 6.253906 -16.140625 8.640625 -16.140625 C 10.910156 -16.140625 12.644531 -15.382812 13.84375 -13.875 C 15.050781 -12.363281 15.65625 -10.15625 15.65625 -7.25 L 15.65625 -7.125 L 5.484375 -7.125 C 5.484375 -5.582031 5.769531 -4.414062 6.34375 -3.625 C 6.914062 -2.84375 7.726562 -2.453125 8.78125 -2.453125 C 10.238281 -2.453125 11.15625 -3.082031 11.53125 -4.34375 L 15.421875 -4.015625 C 14.296875 -1.140625 12.015625 0.296875 8.578125 0.296875 Z M 8.578125 -13.546875 C 7.609375 -13.546875 6.863281 -13.207031 6.34375 -12.53125 C 5.820312 -11.851562 5.546875 -10.910156 5.515625 -9.703125 L 11.671875 -9.703125 C 11.585938 -10.984375 11.273438 -11.941406 10.734375 -12.578125 C 10.203125 -13.222656 9.484375 -13.546875 8.578125 -13.546875 Z M 8.578125 -13.546875 "/></g></g></g><g clip-path="url(#e0fddd5311)"><g clip-path="url(#f025ec9c3d)"><g mask="url(#a5922ed8a8)"><g transform="matrix(1, 0, 0, 1, 670, 153)"><g clip-path="url(#84b858dd39)"><g clip-path="url(#7e5e8f7ecb)"><g clip-path="url(#0a0059e5b4)"><path fill="#03e313" d="M 0.679688 0.96875 L 98.128906 0.96875 L 98.128906 62.4375 L 0.679688 62.4375 Z M 0.679688 0.96875 " fill-opacity="1" fill-rule="nonzero"/></g></g></g></g></g></g></g><g clip-path="url(#1eb8487c66)"><path fill="#d9d9d9" d="M 784.703125 150.636719 L 971.355469 150.636719 L 971.355469 218.101562 L 784.703125 218.101562 Z M 784.703125 150.636719 " fill-opacity="1" fill-rule="nonzero"/></g><g clip-path="url(#585af4f08b)"><path fill="#d9d9d9" d="M 980.527344 75.277344 L 1167.179688 75.277344 L 1167.179688 142.742188 L 980.527344 142.742188 Z M 980.527344 75.277344 " fill-opacity="1" fill-rule="nonzero"/></g><g clip-path="url(#f1b06f632d)"><path fill="#f2f2f2" d="M 980.527344 150.636719 L 1167.179688 150.636719 L 1167.179688 218.101562 L 980.527344 218.101562 Z M 980.527344 150.636719 " fill-opacity="1" fill-rule="nonzero"/></g><g fill="#808080" fill-opacity="1"><g transform="translate(1034.84038, 194.114515)"><g><path d="M 11.796875 -3.09375 C 12.921875 -3.09375 14.007812 -3.253906 15.0625 -3.578125 C 16.113281 -3.898438 16.929688 -4.316406 17.515625 -4.828125 L 17.515625 -7.6875 L 12.46875 -7.6875 L 12.46875 -10.875 L 21.46875 -10.875 L 21.46875 -3.296875 C 20.375 -2.171875 18.945312 -1.289062 17.1875 -0.65625 C 15.4375 -0.0195312 13.601562 0.296875 11.6875 0.296875 C 8.320312 0.296875 5.738281 -0.628906 3.9375 -2.484375 C 2.132812 -4.347656 1.234375 -6.988281 1.234375 -10.40625 C 1.234375 -13.800781 2.140625 -16.40625 3.953125 -18.21875 C 5.765625 -20.03125 8.375 -20.9375 11.78125 -20.9375 C 16.625 -20.9375 19.707031 -19.144531 21.03125 -15.5625 L 17.046875 -14.359375 C 16.609375 -15.398438 15.929688 -16.191406 15.015625 -16.734375 C 14.097656 -17.273438 13.019531 -17.546875 11.78125 -17.546875 C 9.75 -17.546875 8.207031 -16.925781 7.15625 -15.6875 C 6.101562 -14.457031 5.578125 -12.695312 5.578125 -10.40625 C 5.578125 -8.070312 6.117188 -6.269531 7.203125 -5 C 8.296875 -3.726562 9.828125 -3.09375 11.796875 -3.09375 Z M 11.796875 -3.09375 "/></g></g><g transform="translate(1058.163187, 194.114515)"><g><path d="M 2.09375 0 L 2.09375 -12.125 C 2.09375 -12.988281 2.078125 -13.710938 2.046875 -14.296875 C 2.023438 -14.878906 2 -15.394531 1.96875 -15.84375 L 5.90625 -15.84375 C 5.925781 -15.664062 5.960938 -15.128906 6.015625 -14.234375 C 6.066406 -13.347656 6.09375 -12.753906 6.09375 -12.453125 L 6.15625 -12.453125 C 6.550781 -13.566406 6.90625 -14.347656 7.21875 -14.796875 C 7.53125 -15.253906 7.898438 -15.59375 8.328125 -15.8125 C 8.753906 -16.039062 9.289062 -16.15625 9.9375 -16.15625 C 10.46875 -16.15625 10.894531 -16.078125 11.21875 -15.921875 L 11.21875 -12.484375 C 10.550781 -12.628906 9.960938 -12.703125 9.453125 -12.703125 C 8.429688 -12.703125 7.632812 -12.285156 7.0625 -11.453125 C 6.488281 -10.628906 6.203125 -9.40625 6.203125 -7.78125 L 6.203125 0 Z M 2.09375 0 "/></g></g><g transform="translate(1069.83191, 194.114515)"><g><path d="M 8.578125 0.296875 C 6.191406 0.296875 4.359375 -0.40625 3.078125 -1.8125 C 1.804688 -3.226562 1.171875 -5.289062 1.171875 -8 C 1.171875 -10.613281 1.816406 -12.625 3.109375 -14.03125 C 4.410156 -15.4375 6.253906 -16.140625 8.640625 -16.140625 C 10.910156 -16.140625 12.644531 -15.382812 13.84375 -13.875 C 15.050781 -12.363281 15.65625 -10.15625 15.65625 -7.25 L 15.65625 -7.125 L 5.484375 -7.125 C 5.484375 -5.582031 5.769531 -4.414062 6.34375 -3.625 C 6.914062 -2.84375 7.726562 -2.453125 8.78125 -2.453125 C 10.238281 -2.453125 11.15625 -3.082031 11.53125 -4.34375 L 15.421875 -4.015625 C 14.296875 -1.140625 12.015625 0.296875 8.578125 0.296875 Z M 8.578125 -13.546875 C 7.609375 -13.546875 6.863281 -13.207031 6.34375 -12.53125 C 5.820312 -11.851562 5.546875 -10.910156 5.515625 -9.703125 L 11.671875 -9.703125 C 11.585938 -10.984375 11.273438 -11.941406 10.734375 -12.578125 C 10.203125 -13.222656 9.484375 -13.546875 8.578125 -13.546875 Z M 8.578125 -13.546875 "/></g></g><g transform="translate(1086.50779, 194.114515)"><g><path d="M 5.75 0.296875 C 4.21875 0.296875 3.019531 -0.117188 2.15625 -0.953125 C 1.300781 -1.785156 0.875 -2.960938 0.875 -4.484375 C 0.875 -6.117188 1.40625 -7.363281 2.46875 -8.21875 C 3.539062 -9.082031 5.09375 -9.523438 7.125 -9.546875 L 10.546875 -9.609375 L 10.546875 -10.40625 C 10.546875 -11.445312 10.363281 -12.21875 10 -12.71875 C 9.632812 -13.21875 9.046875 -13.46875 8.234375 -13.46875 C 7.472656 -13.46875 6.910156 -13.296875 6.546875 -12.953125 C 6.191406 -12.609375 5.972656 -12.035156 5.890625 -11.234375 L 1.59375 -11.4375 C 1.851562 -12.976562 2.554688 -14.144531 3.703125 -14.9375 C 4.859375 -15.738281 6.425781 -16.140625 8.40625 -16.140625 C 10.40625 -16.140625 11.945312 -15.644531 13.03125 -14.65625 C 14.113281 -13.664062 14.65625 -12.265625 14.65625 -10.453125 L 14.65625 -4.6875 C 14.65625 -3.800781 14.753906 -3.1875 14.953125 -2.84375 C 15.148438 -2.507812 15.484375 -2.34375 15.953125 -2.34375 C 16.265625 -2.34375 16.566406 -2.375 16.859375 -2.4375 L 16.859375 -0.203125 C 16.617188 -0.140625 16.398438 -0.0820312 16.203125 -0.03125 C 16.015625 0.0078125 15.820312 0.0390625 15.625 0.0625 C 15.425781 0.09375 15.21875 0.117188 15 0.140625 C 14.78125 0.160156 14.523438 0.171875 14.234375 0.171875 C 13.191406 0.171875 12.425781 -0.078125 11.9375 -0.578125 C 11.445312 -1.085938 11.148438 -1.835938 11.046875 -2.828125 L 10.96875 -2.828125 C 9.8125 -0.742188 8.070312 0.296875 5.75 0.296875 Z M 10.546875 -7.328125 L 8.4375 -7.3125 C 7.476562 -7.269531 6.796875 -7.160156 6.390625 -6.984375 C 5.992188 -6.816406 5.691406 -6.554688 5.484375 -6.203125 C 5.273438 -5.859375 5.171875 -5.390625 5.171875 -4.796875 C 5.171875 -4.046875 5.34375 -3.488281 5.6875 -3.125 C 6.03125 -2.757812 6.492188 -2.578125 7.078125 -2.578125 C 7.710938 -2.578125 8.296875 -2.75 8.828125 -3.09375 C 9.367188 -3.445312 9.789062 -3.929688 10.09375 -4.546875 C 10.394531 -5.171875 10.546875 -5.832031 10.546875 -6.53125 Z M 10.546875 -7.328125 "/></g></g><g transform="translate(1103.18367, 194.114515)"><g><path d="M 6.15625 0.265625 C 4.9375 0.265625 4 -0.0625 3.34375 -0.71875 C 2.695312 -1.382812 2.375 -2.382812 2.375 -3.71875 L 2.375 -13.0625 L 0.359375 -13.0625 L 0.359375 -15.84375 L 2.578125 -15.84375 L 3.859375 -19.5625 L 6.4375 -19.5625 L 6.4375 -15.84375 L 9.4375 -15.84375 L 9.4375 -13.0625 L 6.4375 -13.0625 L 6.4375 -4.828125 C 6.4375 -4.054688 6.582031 -3.488281 6.875 -3.125 C 7.175781 -2.757812 7.632812 -2.578125 8.25 -2.578125 C 8.5625 -2.578125 9.019531 -2.644531 9.625 -2.78125 L 9.625 -0.234375 C 8.601562 0.0976562 7.445312 0.265625 6.15625 0.265625 Z M 6.15625 0.265625 "/></g></g></g><g clip-path="url(#bd23fae8a4)"><path fill="#d9d9d9" d="M 784.703125 225.996094 L 971.355469 225.996094 L 971.355469 293.460938 L 784.703125 293.460938 Z M 784.703125 225.996094 " fill-opacity="1" fill-rule="nonzero"/></g><g clip-path="url(#327485c3ba)"><path fill="#f2f2f2" d="M 980.527344 225.996094 L 1167.179688 225.996094 L 1167.179688 293.460938 L 980.527344 293.460938 Z M 980.527344 225.996094 " fill-opacity="1" fill-rule="nonzero"/></g><g fill="#808080" fill-opacity="1"><g transform="translate(1046.494463, 269.47504)"><g><path d="M 20.390625 -10.46875 C 20.390625 -8.34375 19.972656 -6.484375 19.140625 -4.890625 C 18.304688 -3.304688 17.125 -2.09375 15.59375 -1.25 C 14.070312 -0.414062 12.320312 0 10.34375 0 L 2 0 L 2 -20.625 L 9.46875 -20.625 C 12.945312 -20.625 15.632812 -19.75 17.53125 -18 C 19.4375 -16.25 20.390625 -13.738281 20.390625 -10.46875 Z M 16.046875 -10.46875 C 16.046875 -12.6875 15.46875 -14.378906 14.3125 -15.546875 C 13.164062 -16.710938 11.523438 -17.296875 9.390625 -17.296875 L 6.328125 -17.296875 L 6.328125 -3.34375 L 9.984375 -3.34375 C 11.835938 -3.34375 13.3125 -3.976562 14.40625 -5.25 C 15.5 -6.53125 16.046875 -8.269531 16.046875 -10.46875 Z M 16.046875 -10.46875 "/></g></g><g transform="translate(1068.148217, 269.47504)"><g><path d="M 5.75 0.296875 C 4.21875 0.296875 3.019531 -0.117188 2.15625 -0.953125 C 1.300781 -1.785156 0.875 -2.960938 0.875 -4.484375 C 0.875 -6.117188 1.40625 -7.363281 2.46875 -8.21875 C 3.539062 -9.082031 5.09375 -9.523438 7.125 -9.546875 L 10.546875 -9.609375 L 10.546875 -10.40625 C 10.546875 -11.445312 10.363281 -12.21875 10 -12.71875 C 9.632812 -13.21875 9.046875 -13.46875 8.234375 -13.46875 C 7.472656 -13.46875 6.910156 -13.296875 6.546875 -12.953125 C 6.191406 -12.609375 5.972656 -12.035156 5.890625 -11.234375 L 1.59375 -11.4375 C 1.851562 -12.976562 2.554688 -14.144531 3.703125 -14.9375 C 4.859375 -15.738281 6.425781 -16.140625 8.40625 -16.140625 C 10.40625 -16.140625 11.945312 -15.644531 13.03125 -14.65625 C 14.113281 -13.664062 14.65625 -12.265625 14.65625 -10.453125 L 14.65625 -4.6875 C 14.65625 -3.800781 14.753906 -3.1875 14.953125 -2.84375 C 15.148438 -2.507812 15.484375 -2.34375 15.953125 -2.34375 C 16.265625 -2.34375 16.566406 -2.375 16.859375 -2.4375 L 16.859375 -0.203125 C 16.617188 -0.140625 16.398438 -0.0820312 16.203125 -0.03125 C 16.015625 0.0078125 15.820312 0.0390625 15.625 0.0625 C 15.425781 0.09375 15.21875 0.117188 15 0.140625 C 14.78125 0.160156 14.523438 0.171875 14.234375 0.171875 C 13.191406 0.171875 12.425781 -0.078125 11.9375 -0.578125 C 11.445312 -1.085938 11.148438 -1.835938 11.046875 -2.828125 L 10.96875 -2.828125 C 9.8125 -0.742188 8.070312 0.296875 5.75 0.296875 Z M 10.546875 -7.328125 L 8.4375 -7.3125 C 7.476562 -7.269531 6.796875 -7.160156 6.390625 -6.984375 C 5.992188 -6.816406 5.691406 -6.554688 5.484375 -6.203125 C 5.273438 -5.859375 5.171875 -5.390625 5.171875 -4.796875 C 5.171875 -4.046875 5.34375 -3.488281 5.6875 -3.125 C 6.03125 -2.757812 6.492188 -2.578125 7.078125 -2.578125 C 7.710938 -2.578125 8.296875 -2.75 8.828125 -3.09375 C 9.367188 -3.445312 9.789062 -3.929688 10.09375 -4.546875 C 10.394531 -5.171875 10.546875 -5.832031 10.546875 -6.53125 Z M 10.546875 -7.328125 "/></g></g><g transform="translate(1084.824097, 269.47504)"><g><path d="M 4.140625 6.21875 C 3.160156 6.21875 2.296875 6.15625 1.546875 6.03125 L 1.546875 3.109375 C 2.066406 3.179688 2.539062 3.21875 2.96875 3.21875 C 3.550781 3.21875 4.035156 3.125 4.421875 2.9375 C 4.804688 2.757812 5.148438 2.453125 5.453125 2.015625 C 5.765625 1.585938 6.113281 0.863281 6.5 -0.15625 L 0.234375 -15.84375 L 4.578125 -15.84375 L 7.078125 -8.421875 C 7.460938 -7.359375 7.953125 -5.726562 8.546875 -3.53125 L 8.921875 -4.921875 L 9.875 -8.359375 L 12.203125 -15.84375 L 16.515625 -15.84375 L 10.25 0.828125 C 9.40625 2.859375 8.53125 4.265625 7.625 5.046875 C 6.726562 5.828125 5.566406 6.21875 4.140625 6.21875 Z M 4.140625 6.21875 "/></g></g></g><g clip-path="url(#2fe7a97572)"><path fill="#d9d9d9" d="M 1176.355469 75.277344 L 1363.007812 75.277344 L 1363.007812 142.742188 L 1176.355469 142.742188 Z M 1176.355469 75.277344 " fill-opacity="1" fill-rule="nonzero"/></g><g clip-path="url(#5ec189b662)"><path fill="#f2f2f2" d="M 1176.355469 150.636719 L 1363.007812 150.636719 L 1363.007812 218.101562 L 1176.355469 218.101562 Z M 1176.355469 150.636719 " fill-opacity="1" fill-rule="nonzero"/></g><g fill="#808080" fill-opacity="1"><g transform="translate(1224.013096, 194.114515)"><g><path d="M 15.3125 0 L 15.3125 -8.84375 L 6.328125 -8.84375 L 6.328125 0 L 2 0 L 2 -20.625 L 6.328125 -20.625 L 6.328125 -12.421875 L 15.3125 -12.421875 L 15.3125 -20.625 L 19.640625 -20.625 L 19.640625 0 Z M 15.3125 0 "/></g></g><g transform="translate(1245.66685, 194.114515)"><g><path d="M 5.75 0.296875 C 4.21875 0.296875 3.019531 -0.117188 2.15625 -0.953125 C 1.300781 -1.785156 0.875 -2.960938 0.875 -4.484375 C 0.875 -6.117188 1.40625 -7.363281 2.46875 -8.21875 C 3.539062 -9.082031 5.09375 -9.523438 7.125 -9.546875 L 10.546875 -9.609375 L 10.546875 -10.40625 C 10.546875 -11.445312 10.363281 -12.21875 10 -12.71875 C 9.632812 -13.21875 9.046875 -13.46875 8.234375 -13.46875 C 7.472656 -13.46875 6.910156 -13.296875 6.546875 -12.953125 C 6.191406 -12.609375 5.972656 -12.035156 5.890625 -11.234375 L 1.59375 -11.4375 C 1.851562 -12.976562 2.554688 -14.144531 3.703125 -14.9375 C 4.859375 -15.738281 6.425781 -16.140625 8.40625 -16.140625 C 10.40625 -16.140625 11.945312 -15.644531 13.03125 -14.65625 C 14.113281 -13.664062 14.65625 -12.265625 14.65625 -10.453125 L 14.65625 -4.6875 C 14.65625 -3.800781 14.753906 -3.1875 14.953125 -2.84375 C 15.148438 -2.507812 15.484375 -2.34375 15.953125 -2.34375 C 16.265625 -2.34375 16.566406 -2.375 16.859375 -2.4375 L 16.859375 -0.203125 C 16.617188 -0.140625 16.398438 -0.0820312 16.203125 -0.03125 C 16.015625 0.0078125 15.820312 0.0390625 15.625 0.0625 C 15.425781 0.09375 15.21875 0.117188 15 0.140625 C 14.78125 0.160156 14.523438 0.171875 14.234375 0.171875 C 13.191406 0.171875 12.425781 -0.078125 11.9375 -0.578125 C 11.445312 -1.085938 11.148438 -1.835938 11.046875 -2.828125 L 10.96875 -2.828125 C 9.8125 -0.742188 8.070312 0.296875 5.75 0.296875 Z M 10.546875 -7.328125 L 8.4375 -7.3125 C 7.476562 -7.269531 6.796875 -7.160156 6.390625 -6.984375 C 5.992188 -6.816406 5.691406 -6.554688 5.484375 -6.203125 C 5.273438 -5.859375 5.171875 -5.390625 5.171875 -4.796875 C 5.171875 -4.046875 5.34375 -3.488281 5.6875 -3.125 C 6.03125 -2.757812 6.492188 -2.578125 7.078125 -2.578125 C 7.710938 -2.578125 8.296875 -2.75 8.828125 -3.09375 C 9.367188 -3.445312 9.789062 -3.929688 10.09375 -4.546875 C 10.394531 -5.171875 10.546875 -5.832031 10.546875 -6.53125 Z M 10.546875 -7.328125 "/></g></g><g transform="translate(1262.34273, 194.114515)"><g><path d="M 17.078125 -8 C 17.078125 -5.351562 16.546875 -3.304688 15.484375 -1.859375 C 14.429688 -0.421875 12.941406 0.296875 11.015625 0.296875 C 9.898438 0.296875 8.925781 0.0546875 8.09375 -0.421875 C 7.269531 -0.910156 6.640625 -1.609375 6.203125 -2.515625 L 6.125 -2.515625 C 6.175781 -2.222656 6.203125 -1.335938 6.203125 0.140625 L 6.203125 6.21875 L 2.09375 6.21875 L 2.09375 -12.203125 C 2.09375 -13.691406 2.050781 -14.90625 1.96875 -15.84375 L 5.96875 -15.84375 C 6.019531 -15.664062 6.0625 -15.316406 6.09375 -14.796875 C 6.132812 -14.285156 6.15625 -13.773438 6.15625 -13.265625 L 6.203125 -13.265625 C 7.128906 -15.203125 8.816406 -16.171875 11.265625 -16.171875 C 13.117188 -16.171875 14.550781 -15.460938 15.5625 -14.046875 C 16.570312 -12.628906 17.078125 -10.613281 17.078125 -8 Z M 12.796875 -8 C 12.796875 -11.550781 11.707031 -13.328125 9.53125 -13.328125 C 8.4375 -13.328125 7.597656 -12.847656 7.015625 -11.890625 C 6.441406 -10.929688 6.15625 -9.59375 6.15625 -7.875 C 6.15625 -6.164062 6.441406 -4.84375 7.015625 -3.90625 C 7.597656 -2.976562 8.425781 -2.515625 9.5 -2.515625 C 11.695312 -2.515625 12.796875 -4.34375 12.796875 -8 Z M 12.796875 -8 "/></g></g><g transform="translate(1280.65838, 194.114515)"><g><path d="M 17.078125 -8 C 17.078125 -5.351562 16.546875 -3.304688 15.484375 -1.859375 C 14.429688 -0.421875 12.941406 0.296875 11.015625 0.296875 C 9.898438 0.296875 8.925781 0.0546875 8.09375 -0.421875 C 7.269531 -0.910156 6.640625 -1.609375 6.203125 -2.515625 L 6.125 -2.515625 C 6.175781 -2.222656 6.203125 -1.335938 6.203125 0.140625 L 6.203125 6.21875 L 2.09375 6.21875 L 2.09375 -12.203125 C 2.09375 -13.691406 2.050781 -14.90625 1.96875 -15.84375 L 5.96875 -15.84375 C 6.019531 -15.664062 6.0625 -15.316406 6.09375 -14.796875 C 6.132812 -14.285156 6.15625 -13.773438 6.15625 -13.265625 L 6.203125 -13.265625 C 7.128906 -15.203125 8.816406 -16.171875 11.265625 -16.171875 C 13.117188 -16.171875 14.550781 -15.460938 15.5625 -14.046875 C 16.570312 -12.628906 17.078125 -10.613281 17.078125 -8 Z M 12.796875 -8 C 12.796875 -11.550781 11.707031 -13.328125 9.53125 -13.328125 C 8.4375 -13.328125 7.597656 -12.847656 7.015625 -11.890625 C 6.441406 -10.929688 6.15625 -9.59375 6.15625 -7.875 C 6.15625 -6.164062 6.441406 -4.84375 7.015625 -3.90625 C 7.597656 -2.976562 8.425781 -2.515625 9.5 -2.515625 C 11.695312 -2.515625 12.796875 -4.34375 12.796875 -8 Z M 12.796875 -8 "/></g></g><g transform="translate(1298.97403, 194.114515)"><g><path d="M 4.140625 6.21875 C 3.160156 6.21875 2.296875 6.15625 1.546875 6.03125 L 1.546875 3.109375 C 2.066406 3.179688 2.539062 3.21875 2.96875 3.21875 C 3.550781 3.21875 4.035156 3.125 4.421875 2.9375 C 4.804688 2.757812 5.148438 2.453125 5.453125 2.015625 C 5.765625 1.585938 6.113281 0.863281 6.5 -0.15625 L 0.234375 -15.84375 L 4.578125 -15.84375 L 7.078125 -8.421875 C 7.460938 -7.359375 7.953125 -5.726562 8.546875 -3.53125 L 8.921875 -4.921875 L 9.875 -8.359375 L 12.203125 -15.84375 L 16.515625 -15.84375 L 10.25 0.828125 C 9.40625 2.859375 8.53125 4.265625 7.625 5.046875 C 6.726562 5.828125 5.566406 6.21875 4.140625 6.21875 Z M 4.140625 6.21875 "/></g></g></g><g clip-path="url(#6e7d2a34be)"><path fill="#f2f2f2" d="M 1176.355469 225.996094 L 1363.007812 225.996094 L 1363.007812 293.460938 L 1176.355469 293.460938 Z M 1176.355469 225.996094 " fill-opacity="1" fill-rule="nonzero"/></g><g fill="#808080" fill-opacity="1"><g transform="translate(1243.174985, 269.47504)"><g><path d="M 2 0 L 2 -20.625 L 6.328125 -20.625 L 6.328125 -3.34375 L 17.390625 -3.34375 L 17.390625 0 Z M 2 0 "/></g></g><g transform="translate(1261.490635, 269.47504)"><g><path d="M 2.09375 -18.703125 L 2.09375 -21.734375 L 6.203125 -21.734375 L 6.203125 -18.703125 Z M 2.09375 0 L 2.09375 -15.84375 L 6.203125 -15.84375 L 6.203125 0 Z M 2.09375 0 "/></g></g><g transform="translate(1269.821254, 269.47504)"><g><path d="M 6.921875 -13.0625 L 6.921875 0 L 2.828125 0 L 2.828125 -13.0625 L 0.515625 -13.0625 L 0.515625 -15.84375 L 2.828125 -15.84375 L 2.828125 -17.5 C 2.828125 -18.925781 3.207031 -19.988281 3.96875 -20.6875 C 4.726562 -21.382812 5.882812 -21.734375 7.4375 -21.734375 C 8.207031 -21.734375 9.078125 -21.65625 10.046875 -21.5 L 10.046875 -18.84375 C 9.640625 -18.925781 9.238281 -18.96875 8.84375 -18.96875 C 8.132812 -18.96875 7.632812 -18.828125 7.34375 -18.546875 C 7.0625 -18.273438 6.921875 -17.785156 6.921875 -17.078125 L 6.921875 -15.84375 L 10.046875 -15.84375 L 10.046875 -13.0625 Z M 6.921875 -13.0625 "/></g></g><g transform="translate(1279.806285, 269.47504)"><g><path d="M 8.578125 0.296875 C 6.191406 0.296875 4.359375 -0.40625 3.078125 -1.8125 C 1.804688 -3.226562 1.171875 -5.289062 1.171875 -8 C 1.171875 -10.613281 1.816406 -12.625 3.109375 -14.03125 C 4.410156 -15.4375 6.253906 -16.140625 8.640625 -16.140625 C 10.910156 -16.140625 12.644531 -15.382812 13.84375 -13.875 C 15.050781 -12.363281 15.65625 -10.15625 15.65625 -7.25 L 15.65625 -7.125 L 5.484375 -7.125 C 5.484375 -5.582031 5.769531 -4.414062 6.34375 -3.625 C 6.914062 -2.84375 7.726562 -2.453125 8.78125 -2.453125 C 10.238281 -2.453125 11.15625 -3.082031 11.53125 -4.34375 L 15.421875 -4.015625 C 14.296875 -1.140625 12.015625 0.296875 8.578125 0.296875 Z M 8.578125 -13.546875 C 7.609375 -13.546875 6.863281 -13.207031 6.34375 -12.53125 C 5.820312 -11.851562 5.546875 -10.910156 5.515625 -9.703125 L 11.671875 -9.703125 C 11.585938 -10.984375 11.273438 -11.941406 10.734375 -12.578125 C 10.203125 -13.222656 9.484375 -13.546875 8.578125 -13.546875 Z M 8.578125 -13.546875 "/></g></g></g><g clip-path="url(#ef2fe7f000)"><g mask="url(#f97f42ab82)"><g transform="matrix(1, 0, 0, 1, 271, 153)"><g clip-path="url(#486c8d030f)"><g clip-path="url(#9cd38f78af)"><path fill="#ffc000" d="M 0.160156 0.96875 L 186.8125 0.96875 L 186.8125 68.433594 L 0.160156 68.433594 Z M 0.160156 0.96875 " fill-opacity="1" fill-rule="nonzero"/></g></g></g></g></g><g fill="#808080" fill-opacity="1"><g transform="translate(325.470978, 197.447979)"><g><path d="M 11.796875 -3.09375 C 12.921875 -3.09375 14.007812 -3.253906 15.0625 -3.578125 C 16.113281 -3.898438 16.929688 -4.316406 17.515625 -4.828125 L 17.515625 -7.6875 L 12.46875 -7.6875 L 12.46875 -10.875 L 21.46875 -10.875 L 21.46875 -3.296875 C 20.375 -2.171875 18.945312 -1.289062 17.1875 -0.65625 C 15.4375 -0.0195312 13.601562 0.296875 11.6875 0.296875 C 8.320312 0.296875 5.738281 -0.628906 3.9375 -2.484375 C 2.132812 -4.347656 1.234375 -6.988281 1.234375 -10.40625 C 1.234375 -13.800781 2.140625 -16.40625 3.953125 -18.21875 C 5.765625 -20.03125 8.375 -20.9375 11.78125 -20.9375 C 16.625 -20.9375 19.707031 -19.144531 21.03125 -15.5625 L 17.046875 -14.359375 C 16.609375 -15.398438 15.929688 -16.191406 15.015625 -16.734375 C 14.097656 -17.273438 13.019531 -17.546875 11.78125 -17.546875 C 9.75 -17.546875 8.207031 -16.925781 7.15625 -15.6875 C 6.101562 -14.457031 5.578125 -12.695312 5.578125 -10.40625 C 5.578125 -8.070312 6.117188 -6.269531 7.203125 -5 C 8.296875 -3.726562 9.828125 -3.09375 11.796875 -3.09375 Z M 11.796875 -3.09375 "/></g></g><g transform="translate(348.793784, 197.447979)"><g><path d="M 2.09375 0 L 2.09375 -12.125 C 2.09375 -12.988281 2.078125 -13.710938 2.046875 -14.296875 C 2.023438 -14.878906 2 -15.394531 1.96875 -15.84375 L 5.90625 -15.84375 C 5.925781 -15.664062 5.960938 -15.128906 6.015625 -14.234375 C 6.066406 -13.347656 6.09375 -12.753906 6.09375 -12.453125 L 6.15625 -12.453125 C 6.550781 -13.566406 6.90625 -14.347656 7.21875 -14.796875 C 7.53125 -15.253906 7.898438 -15.59375 8.328125 -15.8125 C 8.753906 -16.039062 9.289062 -16.15625 9.9375 -16.15625 C 10.46875 -16.15625 10.894531 -16.078125 11.21875 -15.921875 L 11.21875 -12.484375 C 10.550781 -12.628906 9.960938 -12.703125 9.453125 -12.703125 C 8.429688 -12.703125 7.632812 -12.285156 7.0625 -11.453125 C 6.488281 -10.628906 6.203125 -9.40625 6.203125 -7.78125 L 6.203125 0 Z M 2.09375 0 "/></g></g><g transform="translate(360.462508, 197.447979)"><g><path d="M 8.578125 0.296875 C 6.191406 0.296875 4.359375 -0.40625 3.078125 -1.8125 C 1.804688 -3.226562 1.171875 -5.289062 1.171875 -8 C 1.171875 -10.613281 1.816406 -12.625 3.109375 -14.03125 C 4.410156 -15.4375 6.253906 -16.140625 8.640625 -16.140625 C 10.910156 -16.140625 12.644531 -15.382812 13.84375 -13.875 C 15.050781 -12.363281 15.65625 -10.15625 15.65625 -7.25 L 15.65625 -7.125 L 5.484375 -7.125 C 5.484375 -5.582031 5.769531 -4.414062 6.34375 -3.625 C 6.914062 -2.84375 7.726562 -2.453125 8.78125 -2.453125 C 10.238281 -2.453125 11.15625 -3.082031 11.53125 -4.34375 L 15.421875 -4.015625 C 14.296875 -1.140625 12.015625 0.296875 8.578125 0.296875 Z M 8.578125 -13.546875 C 7.609375 -13.546875 6.863281 -13.207031 6.34375 -12.53125 C 5.820312 -11.851562 5.546875 -10.910156 5.515625 -9.703125 L 11.671875 -9.703125 C 11.585938 -10.984375 11.273438 -11.941406 10.734375 -12.578125 C 10.203125 -13.222656 9.484375 -13.546875 8.578125 -13.546875 Z M 8.578125 -13.546875 "/></g></g><g transform="translate(377.138387, 197.447979)"><g><path d="M 5.75 0.296875 C 4.21875 0.296875 3.019531 -0.117188 2.15625 -0.953125 C 1.300781 -1.785156 0.875 -2.960938 0.875 -4.484375 C 0.875 -6.117188 1.40625 -7.363281 2.46875 -8.21875 C 3.539062 -9.082031 5.09375 -9.523438 7.125 -9.546875 L 10.546875 -9.609375 L 10.546875 -10.40625 C 10.546875 -11.445312 10.363281 -12.21875 10 -12.71875 C 9.632812 -13.21875 9.046875 -13.46875 8.234375 -13.46875 C 7.472656 -13.46875 6.910156 -13.296875 6.546875 -12.953125 C 6.191406 -12.609375 5.972656 -12.035156 5.890625 -11.234375 L 1.59375 -11.4375 C 1.851562 -12.976562 2.554688 -14.144531 3.703125 -14.9375 C 4.859375 -15.738281 6.425781 -16.140625 8.40625 -16.140625 C 10.40625 -16.140625 11.945312 -15.644531 13.03125 -14.65625 C 14.113281 -13.664062 14.65625 -12.265625 14.65625 -10.453125 L 14.65625 -4.6875 C 14.65625 -3.800781 14.753906 -3.1875 14.953125 -2.84375 C 15.148438 -2.507812 15.484375 -2.34375 15.953125 -2.34375 C 16.265625 -2.34375 16.566406 -2.375 16.859375 -2.4375 L 16.859375 -0.203125 C 16.617188 -0.140625 16.398438 -0.0820312 16.203125 -0.03125 C 16.015625 0.0078125 15.820312 0.0390625 15.625 0.0625 C 15.425781 0.09375 15.21875 0.117188 15 0.140625 C 14.78125 0.160156 14.523438 0.171875 14.234375 0.171875 C 13.191406 0.171875 12.425781 -0.078125 11.9375 -0.578125 C 11.445312 -1.085938 11.148438 -1.835938 11.046875 -2.828125 L 10.96875 -2.828125 C 9.8125 -0.742188 8.070312 0.296875 5.75 0.296875 Z M 10.546875 -7.328125 L 8.4375 -7.3125 C 7.476562 -7.269531 6.796875 -7.160156 6.390625 -6.984375 C 5.992188 -6.816406 5.691406 -6.554688 5.484375 -6.203125 C 5.273438 -5.859375 5.171875 -5.390625 5.171875 -4.796875 C 5.171875 -4.046875 5.34375 -3.488281 5.6875 -3.125 C 6.03125 -2.757812 6.492188 -2.578125 7.078125 -2.578125 C 7.710938 -2.578125 8.296875 -2.75 8.828125 -3.09375 C 9.367188 -3.445312 9.789062 -3.929688 10.09375 -4.546875 C 10.394531 -5.171875 10.546875 -5.832031 10.546875 -6.53125 Z M 10.546875 -7.328125 "/></g></g><g transform="translate(393.814267, 197.447979)"><g><path d="M 6.15625 0.265625 C 4.9375 0.265625 4 -0.0625 3.34375 -0.71875 C 2.695312 -1.382812 2.375 -2.382812 2.375 -3.71875 L 2.375 -13.0625 L 0.359375 -13.0625 L 0.359375 -15.84375 L 2.578125 -15.84375 L 3.859375 -19.5625 L 6.4375 -19.5625 L 6.4375 -15.84375 L 9.4375 -15.84375 L 9.4375 -13.0625 L 6.4375 -13.0625 L 6.4375 -4.828125 C 6.4375 -4.054688 6.582031 -3.488281 6.875 -3.125 C 7.175781 -2.757812 7.632812 -2.578125 8.25 -2.578125 C 8.5625 -2.578125 9.019531 -2.644531 9.625 -2.78125 L 9.625 -0.234375 C 8.601562 0.0976562 7.445312 0.265625 6.15625 0.265625 Z M 6.15625 0.265625 "/></g></g></g><g clip-path="url(#6876387d65)"><g mask="url(#4111a61391)"><g transform="matrix(1, 0, 0, 1, 980, 301)"><g clip-path="url(#0f3db6b74b)"><g clip-path="url(#e8551b24b5)"><path fill="#03e313" d="M 0.0351562 0.359375 L 186.6875 0.359375 L 186.6875 67.824219 L 0.0351562 67.824219 Z M 0.0351562 0.359375 " fill-opacity="1" fill-rule="nonzero"/></g></g></g></g></g><g fill="#808080" fill-opacity="1"><g transform="translate(1002.674595, 344.835568)"><g><path d="M 11.796875 -3.09375 C 12.921875 -3.09375 14.007812 -3.253906 15.0625 -3.578125 C 16.113281 -3.898438 16.929688 -4.316406 17.515625 -4.828125 L 17.515625 -7.6875 L 12.46875 -7.6875 L 12.46875 -10.875 L 21.46875 -10.875 L 21.46875 -3.296875 C 20.375 -2.171875 18.945312 -1.289062 17.1875 -0.65625 C 15.4375 -0.0195312 13.601562 0.296875 11.6875 0.296875 C 8.320312 0.296875 5.738281 -0.628906 3.9375 -2.484375 C 2.132812 -4.347656 1.234375 -6.988281 1.234375 -10.40625 C 1.234375 -13.800781 2.140625 -16.40625 3.953125 -18.21875 C 5.765625 -20.03125 8.375 -20.9375 11.78125 -20.9375 C 16.625 -20.9375 19.707031 -19.144531 21.03125 -15.5625 L 17.046875 -14.359375 C 16.609375 -15.398438 15.929688 -16.191406 15.015625 -16.734375 C 14.097656 -17.273438 13.019531 -17.546875 11.78125 -17.546875 C 9.75 -17.546875 8.207031 -16.925781 7.15625 -15.6875 C 6.101562 -14.457031 5.578125 -12.695312 5.578125 -10.40625 C 5.578125 -8.070312 6.117188 -6.269531 7.203125 -5 C 8.296875 -3.726562 9.828125 -3.09375 11.796875 -3.09375 Z M 11.796875 -3.09375 "/></g></g><g transform="translate(1025.997402, 344.835568)"><g><path d="M 2.09375 0 L 2.09375 -12.125 C 2.09375 -12.988281 2.078125 -13.710938 2.046875 -14.296875 C 2.023438 -14.878906 2 -15.394531 1.96875 -15.84375 L 5.90625 -15.84375 C 5.925781 -15.664062 5.960938 -15.128906 6.015625 -14.234375 C 6.066406 -13.347656 6.09375 -12.753906 6.09375 -12.453125 L 6.15625 -12.453125 C 6.550781 -13.566406 6.90625 -14.347656 7.21875 -14.796875 C 7.53125 -15.253906 7.898438 -15.59375 8.328125 -15.8125 C 8.753906 -16.039062 9.289062 -16.15625 9.9375 -16.15625 C 10.46875 -16.15625 10.894531 -16.078125 11.21875 -15.921875 L 11.21875 -12.484375 C 10.550781 -12.628906 9.960938 -12.703125 9.453125 -12.703125 C 8.429688 -12.703125 7.632812 -12.285156 7.0625 -11.453125 C 6.488281 -10.628906 6.203125 -9.40625 6.203125 -7.78125 L 6.203125 0 Z M 2.09375 0 "/></g></g><g transform="translate(1037.666125, 344.835568)"><g><path d="M 8.578125 0.296875 C 6.191406 0.296875 4.359375 -0.40625 3.078125 -1.8125 C 1.804688 -3.226562 1.171875 -5.289062 1.171875 -8 C 1.171875 -10.613281 1.816406 -12.625 3.109375 -14.03125 C 4.410156 -15.4375 6.253906 -16.140625 8.640625 -16.140625 C 10.910156 -16.140625 12.644531 -15.382812 13.84375 -13.875 C 15.050781 -12.363281 15.65625 -10.15625 15.65625 -7.25 L 15.65625 -7.125 L 5.484375 -7.125 C 5.484375 -5.582031 5.769531 -4.414062 6.34375 -3.625 C 6.914062 -2.84375 7.726562 -2.453125 8.78125 -2.453125 C 10.238281 -2.453125 11.15625 -3.082031 11.53125 -4.34375 L 15.421875 -4.015625 C 14.296875 -1.140625 12.015625 0.296875 8.578125 0.296875 Z M 8.578125 -13.546875 C 7.609375 -13.546875 6.863281 -13.207031 6.34375 -12.53125 C 5.820312 -11.851562 5.546875 -10.910156 5.515625 -9.703125 L 11.671875 -9.703125 C 11.585938 -10.984375 11.273438 -11.941406 10.734375 -12.578125 C 10.203125 -13.222656 9.484375 -13.546875 8.578125 -13.546875 Z M 8.578125 -13.546875 "/></g></g><g transform="translate(1054.342005, 344.835568)"><g><path d="M 5.75 0.296875 C 4.21875 0.296875 3.019531 -0.117188 2.15625 -0.953125 C 1.300781 -1.785156 0.875 -2.960938 0.875 -4.484375 C 0.875 -6.117188 1.40625 -7.363281 2.46875 -8.21875 C 3.539062 -9.082031 5.09375 -9.523438 7.125 -9.546875 L 10.546875 -9.609375 L 10.546875 -10.40625 C 10.546875 -11.445312 10.363281 -12.21875 10 -12.71875 C 9.632812 -13.21875 9.046875 -13.46875 8.234375 -13.46875 C 7.472656 -13.46875 6.910156 -13.296875 6.546875 -12.953125 C 6.191406 -12.609375 5.972656 -12.035156 5.890625 -11.234375 L 1.59375 -11.4375 C 1.851562 -12.976562 2.554688 -14.144531 3.703125 -14.9375 C 4.859375 -15.738281 6.425781 -16.140625 8.40625 -16.140625 C 10.40625 -16.140625 11.945312 -15.644531 13.03125 -14.65625 C 14.113281 -13.664062 14.65625 -12.265625 14.65625 -10.453125 L 14.65625 -4.6875 C 14.65625 -3.800781 14.753906 -3.1875 14.953125 -2.84375 C 15.148438 -2.507812 15.484375 -2.34375 15.953125 -2.34375 C 16.265625 -2.34375 16.566406 -2.375 16.859375 -2.4375 L 16.859375 -0.203125 C 16.617188 -0.140625 16.398438 -0.0820312 16.203125 -0.03125 C 16.015625 0.0078125 15.820312 0.0390625 15.625 0.0625 C 15.425781 0.09375 15.21875 0.117188 15 0.140625 C 14.78125 0.160156 14.523438 0.171875 14.234375 0.171875 C 13.191406 0.171875 12.425781 -0.078125 11.9375 -0.578125 C 11.445312 -1.085938 11.148438 -1.835938 11.046875 -2.828125 L 10.96875 -2.828125 C 9.8125 -0.742188 8.070312 0.296875 5.75 0.296875 Z M 10.546875 -7.328125 L 8.4375 -7.3125 C 7.476562 -7.269531 6.796875 -7.160156 6.390625 -6.984375 C 5.992188 -6.816406 5.691406 -6.554688 5.484375 -6.203125 C 5.273438 -5.859375 5.171875 -5.390625 5.171875 -4.796875 C 5.171875 -4.046875 5.34375 -3.488281 5.6875 -3.125 C 6.03125 -2.757812 6.492188 -2.578125 7.078125 -2.578125 C 7.710938 -2.578125 8.296875 -2.75 8.828125 -3.09375 C 9.367188 -3.445312 9.789062 -3.929688 10.09375 -4.546875 C 10.394531 -5.171875 10.546875 -5.832031 10.546875 -6.53125 Z M 10.546875 -7.328125 "/></g></g><g transform="translate(1071.017885, 344.835568)"><g><path d="M 6.15625 0.265625 C 4.9375 0.265625 4 -0.0625 3.34375 -0.71875 C 2.695312 -1.382812 2.375 -2.382812 2.375 -3.71875 L 2.375 -13.0625 L 0.359375 -13.0625 L 0.359375 -15.84375 L 2.578125 -15.84375 L 3.859375 -19.5625 L 6.4375 -19.5625 L 6.4375 -15.84375 L 9.4375 -15.84375 L 9.4375 -13.0625 L 6.4375 -13.0625 L 6.4375 -4.828125 C 6.4375 -4.054688 6.582031 -3.488281 6.875 -3.125 C 7.175781 -2.757812 7.632812 -2.578125 8.25 -2.578125 C 8.5625 -2.578125 9.019531 -2.644531 9.625 -2.78125 L 9.625 -0.234375 C 8.601562 0.0976562 7.445312 0.265625 6.15625 0.265625 Z M 6.15625 0.265625 "/></g></g><g transform="translate(1081.002915, 344.835568)"><g/></g><g transform="translate(1089.333535, 344.835568)"><g><path d="M 20.390625 -10.46875 C 20.390625 -8.34375 19.972656 -6.484375 19.140625 -4.890625 C 18.304688 -3.304688 17.125 -2.09375 15.59375 -1.25 C 14.070312 -0.414062 12.320312 0 10.34375 0 L 2 0 L 2 -20.625 L 9.46875 -20.625 C 12.945312 -20.625 15.632812 -19.75 17.53125 -18 C 19.4375 -16.25 20.390625 -13.738281 20.390625 -10.46875 Z M 16.046875 -10.46875 C 16.046875 -12.6875 15.46875 -14.378906 14.3125 -15.546875 C 13.164062 -16.710938 11.523438 -17.296875 9.390625 -17.296875 L 6.328125 -17.296875 L 6.328125 -3.34375 L 9.984375 -3.34375 C 11.835938 -3.34375 13.3125 -3.976562 14.40625 -5.25 C 15.5 -6.53125 16.046875 -8.269531 16.046875 -10.46875 Z M 16.046875 -10.46875 "/></g></g><g transform="translate(1110.987289, 344.835568)"><g><path d="M 5.75 0.296875 C 4.21875 0.296875 3.019531 -0.117188 2.15625 -0.953125 C 1.300781 -1.785156 0.875 -2.960938 0.875 -4.484375 C 0.875 -6.117188 1.40625 -7.363281 2.46875 -8.21875 C 3.539062 -9.082031 5.09375 -9.523438 7.125 -9.546875 L 10.546875 -9.609375 L 10.546875 -10.40625 C 10.546875 -11.445312 10.363281 -12.21875 10 -12.71875 C 9.632812 -13.21875 9.046875 -13.46875 8.234375 -13.46875 C 7.472656 -13.46875 6.910156 -13.296875 6.546875 -12.953125 C 6.191406 -12.609375 5.972656 -12.035156 5.890625 -11.234375 L 1.59375 -11.4375 C 1.851562 -12.976562 2.554688 -14.144531 3.703125 -14.9375 C 4.859375 -15.738281 6.425781 -16.140625 8.40625 -16.140625 C 10.40625 -16.140625 11.945312 -15.644531 13.03125 -14.65625 C 14.113281 -13.664062 14.65625 -12.265625 14.65625 -10.453125 L 14.65625 -4.6875 C 14.65625 -3.800781 14.753906 -3.1875 14.953125 -2.84375 C 15.148438 -2.507812 15.484375 -2.34375 15.953125 -2.34375 C 16.265625 -2.34375 16.566406 -2.375 16.859375 -2.4375 L 16.859375 -0.203125 C 16.617188 -0.140625 16.398438 -0.0820312 16.203125 -0.03125 C 16.015625 0.0078125 15.820312 0.0390625 15.625 0.0625 C 15.425781 0.09375 15.21875 0.117188 15 0.140625 C 14.78125 0.160156 14.523438 0.171875 14.234375 0.171875 C 13.191406 0.171875 12.425781 -0.078125 11.9375 -0.578125 C 11.445312 -1.085938 11.148438 -1.835938 11.046875 -2.828125 L 10.96875 -2.828125 C 9.8125 -0.742188 8.070312 0.296875 5.75 0.296875 Z M 10.546875 -7.328125 L 8.4375 -7.3125 C 7.476562 -7.269531 6.796875 -7.160156 6.390625 -6.984375 C 5.992188 -6.816406 5.691406 -6.554688 5.484375 -6.203125 C 5.273438 -5.859375 5.171875 -5.390625 5.171875 -4.796875 C 5.171875 -4.046875 5.34375 -3.488281 5.6875 -3.125 C 6.03125 -2.757812 6.492188 -2.578125 7.078125 -2.578125 C 7.710938 -2.578125 8.296875 -2.75 8.828125 -3.09375 C 9.367188 -3.445312 9.789062 -3.929688 10.09375 -4.546875 C 10.394531 -5.171875 10.546875 -5.832031 10.546875 -6.53125 Z M 10.546875 -7.328125 "/></g></g><g transform="translate(1127.663169, 344.835568)"><g><path d="M 4.140625 6.21875 C 3.160156 6.21875 2.296875 6.15625 1.546875 6.03125 L 1.546875 3.109375 C 2.066406 3.179688 2.539062 3.21875 2.96875 3.21875 C 3.550781 3.21875 4.035156 3.125 4.421875 2.9375 C 4.804688 2.757812 5.148438 2.453125 5.453125 2.015625 C 5.765625 1.585938 6.113281 0.863281 6.5 -0.15625 L 0.234375 -15.84375 L 4.578125 -15.84375 L 7.078125 -8.421875 C 7.460938 -7.359375 7.953125 -5.726562 8.546875 -3.53125 L 8.921875 -4.921875 L 9.875 -8.359375 L 12.203125 -15.84375 L 16.515625 -15.84375 L 10.25 0.828125 C 9.40625 2.859375 8.53125 4.265625 7.625 5.046875 C 6.726562 5.828125 5.566406 6.21875 4.140625 6.21875 Z M 4.140625 6.21875 "/></g></g></g><g clip-path="url(#7b308c1e4c)"><g mask="url(#3bda631efd)"><g transform="matrix(1, 0, 0, 1, 466, 153)"><g clip-path="url(#927eb6ce08)"><g clip-path="url(#24cc2ca708)"><path fill="#ffc000" d="M 0.984375 0.96875 L 187.636719 0.96875 L 187.636719 68.433594 L 0.984375 68.433594 Z M 0.984375 0.96875 " fill-opacity="1" fill-rule="nonzero"/></g></g></g></g></g><g fill="#808080" fill-opacity="1"><g transform="translate(514.643885, 197.447979)"><g><path d="M 15.3125 0 L 15.3125 -8.84375 L 6.328125 -8.84375 L 6.328125 0 L 2 0 L 2 -20.625 L 6.328125 -20.625 L 6.328125 -12.421875 L 15.3125 -12.421875 L 15.3125 -20.625 L 19.640625 -20.625 L 19.640625 0 Z M 15.3125 0 "/></g></g><g transform="translate(536.297639, 197.447979)"><g><path d="M 5.75 0.296875 C 4.21875 0.296875 3.019531 -0.117188 2.15625 -0.953125 C 1.300781 -1.785156 0.875 -2.960938 0.875 -4.484375 C 0.875 -6.117188 1.40625 -7.363281 2.46875 -8.21875 C 3.539062 -9.082031 5.09375 -9.523438 7.125 -9.546875 L 10.546875 -9.609375 L 10.546875 -10.40625 C 10.546875 -11.445312 10.363281 -12.21875 10 -12.71875 C 9.632812 -13.21875 9.046875 -13.46875 8.234375 -13.46875 C 7.472656 -13.46875 6.910156 -13.296875 6.546875 -12.953125 C 6.191406 -12.609375 5.972656 -12.035156 5.890625 -11.234375 L 1.59375 -11.4375 C 1.851562 -12.976562 2.554688 -14.144531 3.703125 -14.9375 C 4.859375 -15.738281 6.425781 -16.140625 8.40625 -16.140625 C 10.40625 -16.140625 11.945312 -15.644531 13.03125 -14.65625 C 14.113281 -13.664062 14.65625 -12.265625 14.65625 -10.453125 L 14.65625 -4.6875 C 14.65625 -3.800781 14.753906 -3.1875 14.953125 -2.84375 C 15.148438 -2.507812 15.484375 -2.34375 15.953125 -2.34375 C 16.265625 -2.34375 16.566406 -2.375 16.859375 -2.4375 L 16.859375 -0.203125 C 16.617188 -0.140625 16.398438 -0.0820312 16.203125 -0.03125 C 16.015625 0.0078125 15.820312 0.0390625 15.625 0.0625 C 15.425781 0.09375 15.21875 0.117188 15 0.140625 C 14.78125 0.160156 14.523438 0.171875 14.234375 0.171875 C 13.191406 0.171875 12.425781 -0.078125 11.9375 -0.578125 C 11.445312 -1.085938 11.148438 -1.835938 11.046875 -2.828125 L 10.96875 -2.828125 C 9.8125 -0.742188 8.070312 0.296875 5.75 0.296875 Z M 10.546875 -7.328125 L 8.4375 -7.3125 C 7.476562 -7.269531 6.796875 -7.160156 6.390625 -6.984375 C 5.992188 -6.816406 5.691406 -6.554688 5.484375 -6.203125 C 5.273438 -5.859375 5.171875 -5.390625 5.171875 -4.796875 C 5.171875 -4.046875 5.34375 -3.488281 5.6875 -3.125 C 6.03125 -2.757812 6.492188 -2.578125 7.078125 -2.578125 C 7.710938 -2.578125 8.296875 -2.75 8.828125 -3.09375 C 9.367188 -3.445312 9.789062 -3.929688 10.09375 -4.546875 C 10.394531 -5.171875 10.546875 -5.832031 10.546875 -6.53125 Z M 10.546875 -7.328125 "/></g></g><g transform="translate(552.973519, 197.447979)"><g><path d="M 17.078125 -8 C 17.078125 -5.351562 16.546875 -3.304688 15.484375 -1.859375 C 14.429688 -0.421875 12.941406 0.296875 11.015625 0.296875 C 9.898438 0.296875 8.925781 0.0546875 8.09375 -0.421875 C 7.269531 -0.910156 6.640625 -1.609375 6.203125 -2.515625 L 6.125 -2.515625 C 6.175781 -2.222656 6.203125 -1.335938 6.203125 0.140625 L 6.203125 6.21875 L 2.09375 6.21875 L 2.09375 -12.203125 C 2.09375 -13.691406 2.050781 -14.90625 1.96875 -15.84375 L 5.96875 -15.84375 C 6.019531 -15.664062 6.0625 -15.316406 6.09375 -14.796875 C 6.132812 -14.285156 6.15625 -13.773438 6.15625 -13.265625 L 6.203125 -13.265625 C 7.128906 -15.203125 8.816406 -16.171875 11.265625 -16.171875 C 13.117188 -16.171875 14.550781 -15.460938 15.5625 -14.046875 C 16.570312 -12.628906 17.078125 -10.613281 17.078125 -8 Z M 12.796875 -8 C 12.796875 -11.550781 11.707031 -13.328125 9.53125 -13.328125 C 8.4375 -13.328125 7.597656 -12.847656 7.015625 -11.890625 C 6.441406 -10.929688 6.15625 -9.59375 6.15625 -7.875 C 6.15625 -6.164062 6.441406 -4.84375 7.015625 -3.90625 C 7.597656 -2.976562 8.425781 -2.515625 9.5 -2.515625 C 11.695312 -2.515625 12.796875 -4.34375 12.796875 -8 Z M 12.796875 -8 "/></g></g><g transform="translate(571.289169, 197.447979)"><g><path d="M 17.078125 -8 C 17.078125 -5.351562 16.546875 -3.304688 15.484375 -1.859375 C 14.429688 -0.421875 12.941406 0.296875 11.015625 0.296875 C 9.898438 0.296875 8.925781 0.0546875 8.09375 -0.421875 C 7.269531 -0.910156 6.640625 -1.609375 6.203125 -2.515625 L 6.125 -2.515625 C 6.175781 -2.222656 6.203125 -1.335938 6.203125 0.140625 L 6.203125 6.21875 L 2.09375 6.21875 L 2.09375 -12.203125 C 2.09375 -13.691406 2.050781 -14.90625 1.96875 -15.84375 L 5.96875 -15.84375 C 6.019531 -15.664062 6.0625 -15.316406 6.09375 -14.796875 C 6.132812 -14.285156 6.15625 -13.773438 6.15625 -13.265625 L 6.203125 -13.265625 C 7.128906 -15.203125 8.816406 -16.171875 11.265625 -16.171875 C 13.117188 -16.171875 14.550781 -15.460938 15.5625 -14.046875 C 16.570312 -12.628906 17.078125 -10.613281 17.078125 -8 Z M 12.796875 -8 C 12.796875 -11.550781 11.707031 -13.328125 9.53125 -13.328125 C 8.4375 -13.328125 7.597656 -12.847656 7.015625 -11.890625 C 6.441406 -10.929688 6.15625 -9.59375 6.15625 -7.875 C 6.15625 -6.164062 6.441406 -4.84375 7.015625 -3.90625 C 7.597656 -2.976562 8.425781 -2.515625 9.5 -2.515625 C 11.695312 -2.515625 12.796875 -4.34375 12.796875 -8 Z M 12.796875 -8 "/></g></g><g transform="translate(589.604819, 197.447979)"><g><path d="M 4.140625 6.21875 C 3.160156 6.21875 2.296875 6.15625 1.546875 6.03125 L 1.546875 3.109375 C 2.066406 3.179688 2.539062 3.21875 2.96875 3.21875 C 3.550781 3.21875 4.035156 3.125 4.421875 2.9375 C 4.804688 2.757812 5.148438 2.453125 5.453125 2.015625 C 5.765625 1.585938 6.113281 0.863281 6.5 -0.15625 L 0.234375 -15.84375 L 4.578125 -15.84375 L 7.078125 -8.421875 C 7.460938 -7.359375 7.953125 -5.726562 8.546875 -3.53125 L 8.921875 -4.921875 L 9.875 -8.359375 L 12.203125 -15.84375 L 16.515625 -15.84375 L 10.25 0.828125 C 9.40625 2.859375 8.53125 4.265625 7.625 5.046875 C 6.726562 5.828125 5.566406 6.21875 4.140625 6.21875 Z M 4.140625 6.21875 "/></g></g></g><g clip-path="url(#43f5df318a)"><g mask="url(#5dd5fa6a9e)"><g transform="matrix(1, 0, 0, 1, 1176, 301)"><g clip-path="url(#b5db6a0587)"><g clip-path="url(#aca3b62f14)"><path fill="#03e313" d="M 0.355469 0.359375 L 187.007812 0.359375 L 187.007812 67.824219 L 0.355469 67.824219 Z M 0.355469 0.359375 " fill-opacity="1" fill-rule="nonzero"/></g></g></g></g></g><g fill="#808080" fill-opacity="1"><g transform="translate(1193.185411, 344.835568)"><g><path d="M 15.3125 0 L 15.3125 -8.84375 L 6.328125 -8.84375 L 6.328125 0 L 2 0 L 2 -20.625 L 6.328125 -20.625 L 6.328125 -12.421875 L 15.3125 -12.421875 L 15.3125 -20.625 L 19.640625 -20.625 L 19.640625 0 Z M 15.3125 0 "/></g></g><g transform="translate(1214.839166, 344.835568)"><g><path d="M 5.75 0.296875 C 4.21875 0.296875 3.019531 -0.117188 2.15625 -0.953125 C 1.300781 -1.785156 0.875 -2.960938 0.875 -4.484375 C 0.875 -6.117188 1.40625 -7.363281 2.46875 -8.21875 C 3.539062 -9.082031 5.09375 -9.523438 7.125 -9.546875 L 10.546875 -9.609375 L 10.546875 -10.40625 C 10.546875 -11.445312 10.363281 -12.21875 10 -12.71875 C 9.632812 -13.21875 9.046875 -13.46875 8.234375 -13.46875 C 7.472656 -13.46875 6.910156 -13.296875 6.546875 -12.953125 C 6.191406 -12.609375 5.972656 -12.035156 5.890625 -11.234375 L 1.59375 -11.4375 C 1.851562 -12.976562 2.554688 -14.144531 3.703125 -14.9375 C 4.859375 -15.738281 6.425781 -16.140625 8.40625 -16.140625 C 10.40625 -16.140625 11.945312 -15.644531 13.03125 -14.65625 C 14.113281 -13.664062 14.65625 -12.265625 14.65625 -10.453125 L 14.65625 -4.6875 C 14.65625 -3.800781 14.753906 -3.1875 14.953125 -2.84375 C 15.148438 -2.507812 15.484375 -2.34375 15.953125 -2.34375 C 16.265625 -2.34375 16.566406 -2.375 16.859375 -2.4375 L 16.859375 -0.203125 C 16.617188 -0.140625 16.398438 -0.0820312 16.203125 -0.03125 C 16.015625 0.0078125 15.820312 0.0390625 15.625 0.0625 C 15.425781 0.09375 15.21875 0.117188 15 0.140625 C 14.78125 0.160156 14.523438 0.171875 14.234375 0.171875 C 13.191406 0.171875 12.425781 -0.078125 11.9375 -0.578125 C 11.445312 -1.085938 11.148438 -1.835938 11.046875 -2.828125 L 10.96875 -2.828125 C 9.8125 -0.742188 8.070312 0.296875 5.75 0.296875 Z M 10.546875 -7.328125 L 8.4375 -7.3125 C 7.476562 -7.269531 6.796875 -7.160156 6.390625 -6.984375 C 5.992188 -6.816406 5.691406 -6.554688 5.484375 -6.203125 C 5.273438 -5.859375 5.171875 -5.390625 5.171875 -4.796875 C 5.171875 -4.046875 5.34375 -3.488281 5.6875 -3.125 C 6.03125 -2.757812 6.492188 -2.578125 7.078125 -2.578125 C 7.710938 -2.578125 8.296875 -2.75 8.828125 -3.09375 C 9.367188 -3.445312 9.789062 -3.929688 10.09375 -4.546875 C 10.394531 -5.171875 10.546875 -5.832031 10.546875 -6.53125 Z M 10.546875 -7.328125 "/></g></g><g transform="translate(1231.515045, 344.835568)"><g><path d="M 17.078125 -8 C 17.078125 -5.351562 16.546875 -3.304688 15.484375 -1.859375 C 14.429688 -0.421875 12.941406 0.296875 11.015625 0.296875 C 9.898438 0.296875 8.925781 0.0546875 8.09375 -0.421875 C 7.269531 -0.910156 6.640625 -1.609375 6.203125 -2.515625 L 6.125 -2.515625 C 6.175781 -2.222656 6.203125 -1.335938 6.203125 0.140625 L 6.203125 6.21875 L 2.09375 6.21875 L 2.09375 -12.203125 C 2.09375 -13.691406 2.050781 -14.90625 1.96875 -15.84375 L 5.96875 -15.84375 C 6.019531 -15.664062 6.0625 -15.316406 6.09375 -14.796875 C 6.132812 -14.285156 6.15625 -13.773438 6.15625 -13.265625 L 6.203125 -13.265625 C 7.128906 -15.203125 8.816406 -16.171875 11.265625 -16.171875 C 13.117188 -16.171875 14.550781 -15.460938 15.5625 -14.046875 C 16.570312 -12.628906 17.078125 -10.613281 17.078125 -8 Z M 12.796875 -8 C 12.796875 -11.550781 11.707031 -13.328125 9.53125 -13.328125 C 8.4375 -13.328125 7.597656 -12.847656 7.015625 -11.890625 C 6.441406 -10.929688 6.15625 -9.59375 6.15625 -7.875 C 6.15625 -6.164062 6.441406 -4.84375 7.015625 -3.90625 C 7.597656 -2.976562 8.425781 -2.515625 9.5 -2.515625 C 11.695312 -2.515625 12.796875 -4.34375 12.796875 -8 Z M 12.796875 -8 "/></g></g><g transform="translate(1249.830695, 344.835568)"><g><path d="M 17.078125 -8 C 17.078125 -5.351562 16.546875 -3.304688 15.484375 -1.859375 C 14.429688 -0.421875 12.941406 0.296875 11.015625 0.296875 C 9.898438 0.296875 8.925781 0.0546875 8.09375 -0.421875 C 7.269531 -0.910156 6.640625 -1.609375 6.203125 -2.515625 L 6.125 -2.515625 C 6.175781 -2.222656 6.203125 -1.335938 6.203125 0.140625 L 6.203125 6.21875 L 2.09375 6.21875 L 2.09375 -12.203125 C 2.09375 -13.691406 2.050781 -14.90625 1.96875 -15.84375 L 5.96875 -15.84375 C 6.019531 -15.664062 6.0625 -15.316406 6.09375 -14.796875 C 6.132812 -14.285156 6.15625 -13.773438 6.15625 -13.265625 L 6.203125 -13.265625 C 7.128906 -15.203125 8.816406 -16.171875 11.265625 -16.171875 C 13.117188 -16.171875 14.550781 -15.460938 15.5625 -14.046875 C 16.570312 -12.628906 17.078125 -10.613281 17.078125 -8 Z M 12.796875 -8 C 12.796875 -11.550781 11.707031 -13.328125 9.53125 -13.328125 C 8.4375 -13.328125 7.597656 -12.847656 7.015625 -11.890625 C 6.441406 -10.929688 6.15625 -9.59375 6.15625 -7.875 C 6.15625 -6.164062 6.441406 -4.84375 7.015625 -3.90625 C 7.597656 -2.976562 8.425781 -2.515625 9.5 -2.515625 C 11.695312 -2.515625 12.796875 -4.34375 12.796875 -8 Z M 12.796875 -8 "/></g></g><g transform="translate(1268.146346, 344.835568)"><g><path d="M 4.140625 6.21875 C 3.160156 6.21875 2.296875 6.15625 1.546875 6.03125 L 1.546875 3.109375 C 2.066406 3.179688 2.539062 3.21875 2.96875 3.21875 C 3.550781 3.21875 4.035156 3.125 4.421875 2.9375 C 4.804688 2.757812 5.148438 2.453125 5.453125 2.015625 C 5.765625 1.585938 6.113281 0.863281 6.5 -0.15625 L 0.234375 -15.84375 L 4.578125 -15.84375 L 7.078125 -8.421875 C 7.460938 -7.359375 7.953125 -5.726562 8.546875 -3.53125 L 8.921875 -4.921875 L 9.875 -8.359375 L 12.203125 -15.84375 L 16.515625 -15.84375 L 10.25 0.828125 C 9.40625 2.859375 8.53125 4.265625 7.625 5.046875 C 6.726562 5.828125 5.566406 6.21875 4.140625 6.21875 Z M 4.140625 6.21875 "/></g></g><g transform="translate(1284.822225, 344.835568)"><g/></g><g transform="translate(1293.152845, 344.835568)"><g><path d="M 2 0 L 2 -20.625 L 6.328125 -20.625 L 6.328125 -3.34375 L 17.390625 -3.34375 L 17.390625 0 Z M 2 0 "/></g></g><g transform="translate(1311.468495, 344.835568)"><g><path d="M 2.09375 -18.703125 L 2.09375 -21.734375 L 6.203125 -21.734375 L 6.203125 -18.703125 Z M 2.09375 0 L 2.09375 -15.84375 L 6.203125 -15.84375 L 6.203125 0 Z M 2.09375 0 "/></g></g><g transform="translate(1319.799114, 344.835568)"><g><path d="M 6.921875 -13.0625 L 6.921875 0 L 2.828125 0 L 2.828125 -13.0625 L 0.515625 -13.0625 L 0.515625 -15.84375 L 2.828125 -15.84375 L 2.828125 -17.5 C 2.828125 -18.925781 3.207031 -19.988281 3.96875 -20.6875 C 4.726562 -21.382812 5.882812 -21.734375 7.4375 -21.734375 C 8.207031 -21.734375 9.078125 -21.65625 10.046875 -21.5 L 10.046875 -18.84375 C 9.640625 -18.925781 9.238281 -18.96875 8.84375 -18.96875 C 8.132812 -18.96875 7.632812 -18.828125 7.34375 -18.546875 C 7.0625 -18.273438 6.921875 -17.785156 6.921875 -17.078125 L 6.921875 -15.84375 L 10.046875 -15.84375 L 10.046875 -13.0625 Z M 6.921875 -13.0625 "/></g></g><g transform="translate(1329.784145, 344.835568)"><g><path d="M 8.578125 0.296875 C 6.191406 0.296875 4.359375 -0.40625 3.078125 -1.8125 C 1.804688 -3.226562 1.171875 -5.289062 1.171875 -8 C 1.171875 -10.613281 1.816406 -12.625 3.109375 -14.03125 C 4.410156 -15.4375 6.253906 -16.140625 8.640625 -16.140625 C 10.910156 -16.140625 12.644531 -15.382812 13.84375 -13.875 C 15.050781 -12.363281 15.65625 -10.15625 15.65625 -7.25 L 15.65625 -7.125 L 5.484375 -7.125 C 5.484375 -5.582031 5.769531 -4.414062 6.34375 -3.625 C 6.914062 -2.84375 7.726562 -2.453125 8.78125 -2.453125 C 10.238281 -2.453125 11.15625 -3.082031 11.53125 -4.34375 L 15.421875 -4.015625 C 14.296875 -1.140625 12.015625 0.296875 8.578125 0.296875 Z M 8.578125 -13.546875 C 7.609375 -13.546875 6.863281 -13.207031 6.34375 -12.53125 C 5.820312 -11.851562 5.546875 -10.910156 5.515625 -9.703125 L 11.671875 -9.703125 C 11.585938 -10.984375 11.273438 -11.941406 10.734375 -12.578125 C 10.203125 -13.222656 9.484375 -13.546875 8.578125 -13.546875 Z M 8.578125 -13.546875 "/></g></g></g></svg>