<svg xmlns="http://www.w3.org/2000/svg" xmlns:xlink="http://www.w3.org/1999/xlink" width="1983" zoomAndPan="magnify" viewBox="0 0 1487.25 675.000002" height="900" preserveAspectRatio="xMidYMid meet" version="1.0"><defs><filter x="0%" y="0%" width="100%" height="100%" id="2540fec989"><feColorMatrix values="0 0 0 0 1 0 0 0 0 1 0 0 0 0 1 0 0 0 1 0" color-interpolation-filters="sRGB"/></filter><g/><clipPath id="76f7c6a269"><path d="M 76.230469 143.253906 L 244 143.253906 L 244 203.773438 L 76.230469 203.773438 Z M 76.230469 143.253906 " clip-rule="nonzero"/></clipPath><clipPath id="30d4d01d92"><path d="M 252.324219 75.488281 L 420.4375 75.488281 L 420.4375 136.003906 L 252.324219 136.003906 Z M 252.324219 75.488281 " clip-rule="nonzero"/></clipPath><clipPath id="a7ae5e27d8"><path d="M 76.230469 211.023438 L 244 211.023438 L 244 271.539062 L 76.230469 271.539062 Z M 76.230469 211.023438 " clip-rule="nonzero"/></clipPath><clipPath id="0187dbd66f"><path d="M 252.324219 211.023438 L 420.4375 211.023438 L 420.4375 271.539062 L 252.324219 271.539062 Z M 252.324219 211.023438 " clip-rule="nonzero"/></clipPath><clipPath id="f0e6a4b1c4"><path d="M 428.421875 75.488281 L 596.53125 75.488281 L 596.53125 136.003906 L 428.421875 136.003906 Z M 428.421875 75.488281 " clip-rule="nonzero"/></clipPath><clipPath id="3f2356fa8c"><path d="M 428.421875 211.023438 L 596.53125 211.023438 L 596.53125 271.539062 L 428.421875 271.539062 Z M 428.421875 211.023438 " clip-rule="nonzero"/></clipPath><clipPath id="d348210307"><path d="M 714.128906 279.363281 L 882 279.363281 L 882 339.878906 L 714.128906 339.878906 Z M 714.128906 279.363281 " clip-rule="nonzero"/></clipPath><clipPath id="20492f2ab7"><path d="M 890.226562 211.59375 L 1058 211.59375 L 1058 272.113281 L 890.226562 272.113281 Z M 890.226562 211.59375 " clip-rule="nonzero"/></clipPath><clipPath id="f2b43fd707"><path d="M 890.226562 279.363281 L 1058.335938 279.363281 L 1058.335938 339.878906 L 890.226562 339.878906 Z M 890.226562 279.363281 " clip-rule="nonzero"/></clipPath><mask id="8cac46699e"><g filter="url(#2540fec989)"><rect x="-148.725" width="1784.7" fill="#000000" y="-67.5" height="810.000002" fill-opacity="0.4"/></g></mask><clipPath id="085c80ce7c"><path d="M 0.226562 0.363281 L 168 0.363281 L 168 60.878906 L 0.226562 60.878906 Z M 0.226562 0.363281 " clip-rule="nonzero"/></clipPath><clipPath id="2c9f14c9f6"><rect x="0" width="169" y="0" height="61"/></clipPath><clipPath id="887037f91b"><path d="M 714.128906 347.128906 L 882 347.128906 L 882 407.648438 L 714.128906 407.648438 Z M 714.128906 347.128906 " clip-rule="nonzero"/></clipPath><clipPath id="3ddc65c259"><path d="M 890.226562 347.128906 L 1058 347.128906 L 1058 407.648438 L 890.226562 407.648438 Z M 890.226562 347.128906 " clip-rule="nonzero"/></clipPath><clipPath id="4084b0e028"><path d="M 1066.320312 211.59375 L 1234.429688 211.59375 L 1234.429688 272.113281 L 1066.320312 272.113281 Z M 1066.320312 211.59375 " clip-rule="nonzero"/></clipPath><clipPath id="b169269236"><path d="M 1066.320312 279.363281 L 1234.429688 279.363281 L 1234.429688 339.878906 L 1066.320312 339.878906 Z M 1066.320312 279.363281 " clip-rule="nonzero"/></clipPath><mask id="cbd0df0882"><g filter="url(#2540fec989)"><rect x="-148.725" width="1784.7" fill="#000000" y="-67.5" height="810.000002" fill-opacity="0.4"/></g></mask><clipPath id="c84a17c279"><path d="M 0.320312 0.363281 L 168.429688 0.363281 L 168.429688 60.878906 L 0.320312 60.878906 Z M 0.320312 0.363281 " clip-rule="nonzero"/></clipPath><clipPath id="c4a46661a4"><rect x="0" width="169" y="0" height="61"/></clipPath><clipPath id="9fe5492c13"><path d="M 1066.320312 347.128906 L 1234.429688 347.128906 L 1234.429688 407.648438 L 1066.320312 407.648438 Z M 1066.320312 347.128906 " clip-rule="nonzero"/></clipPath><clipPath id="eedda32696"><path d="M 252.324219 143.253906 L 420.4375 143.253906 L 420.4375 203.773438 L 252.324219 203.773438 Z M 252.324219 143.253906 " clip-rule="nonzero"/></clipPath><mask id="1de95dfd55"><g filter="url(#2540fec989)"><rect x="-148.725" width="1784.7" fill="#000000" y="-67.5" height="810.000002" fill-opacity="0.498"/></g></mask><clipPath id="1dbfa17a04"><path d="M 0.324219 0.253906 L 168.4375 0.253906 L 168.4375 60.773438 L 0.324219 60.773438 Z M 0.324219 0.253906 " clip-rule="nonzero"/></clipPath><clipPath id="4761940059"><rect x="0" width="169" y="0" height="61"/></clipPath><clipPath id="bb0aaff8d6"><path d="M 428.421875 143.253906 L 596.53125 143.253906 L 596.53125 203.773438 L 428.421875 203.773438 Z M 428.421875 143.253906 " clip-rule="nonzero"/></clipPath><mask id="c76d2aa6b7"><g filter="url(#2540fec989)"><rect x="-148.725" width="1784.7" fill="#000000" y="-67.5" height="810.000002" fill-opacity="0.498"/></g></mask><clipPath id="07bc5668ab"><path d="M 0.421875 0.253906 L 168.53125 0.253906 L 168.53125 60.773438 L 0.421875 60.773438 Z M 0.421875 0.253906 " clip-rule="nonzero"/></clipPath><clipPath id="353d62cd0a"><rect x="0" width="169" y="0" height="61"/></clipPath><clipPath id="2af16378b5"><path d="M 76.230469 470.640625 L 244 470.640625 L 244 531.15625 L 76.230469 531.15625 Z M 76.230469 470.640625 " clip-rule="nonzero"/></clipPath><clipPath id="59c47105a4"><path d="M 252.324219 402.871094 L 420.4375 402.871094 L 420.4375 463.390625 L 252.324219 463.390625 Z M 252.324219 402.871094 " clip-rule="nonzero"/></clipPath><clipPath id="4ebb0d374a"><path d="M 76.230469 538.40625 L 244 538.40625 L 244 598.925781 L 76.230469 598.925781 Z M 76.230469 538.40625 " clip-rule="nonzero"/></clipPath><clipPath id="f87648c1b5"><path d="M 252.324219 538.40625 L 420.4375 538.40625 L 420.4375 598.925781 L 252.324219 598.925781 Z M 252.324219 538.40625 " clip-rule="nonzero"/></clipPath><clipPath id="becd7b0cf0"><path d="M 428.421875 402.871094 L 596.53125 402.871094 L 596.53125 463.390625 L 428.421875 463.390625 Z M 428.421875 402.871094 " clip-rule="nonzero"/></clipPath><clipPath id="033e8b4d87"><path d="M 428.421875 538.40625 L 596.53125 538.40625 L 596.53125 598.925781 L 428.421875 598.925781 Z M 428.421875 538.40625 " clip-rule="nonzero"/></clipPath><clipPath id="96689474b6"><path d="M 252.324219 470.640625 L 420.4375 470.640625 L 420.4375 531.15625 L 252.324219 531.15625 Z M 252.324219 470.640625 " clip-rule="nonzero"/></clipPath><mask id="722f0f698b"><g filter="url(#2540fec989)"><rect x="-148.725" width="1784.7" fill="#000000" y="-67.5" height="810.000002" fill-opacity="0.498"/></g></mask><clipPath id="eab528cfff"><path d="M 0.324219 0.640625 L 168.4375 0.640625 L 168.4375 61.15625 L 0.324219 61.15625 Z M 0.324219 0.640625 " clip-rule="nonzero"/></clipPath><clipPath id="2c3c9afff2"><rect x="0" width="169" y="0" height="62"/></clipPath><clipPath id="85f6354beb"><path d="M 428.421875 470.640625 L 596.53125 470.640625 L 596.53125 531.15625 L 428.421875 531.15625 Z M 428.421875 470.640625 " clip-rule="nonzero"/></clipPath><mask id="782db01fc5"><g filter="url(#2540fec989)"><rect x="-148.725" width="1784.7" fill="#000000" y="-67.5" height="810.000002" fill-opacity="0.498"/></g></mask><clipPath id="2e34ffbf9b"><path d="M 0.421875 0.640625 L 168.53125 0.640625 L 168.53125 61.15625 L 0.421875 61.15625 Z M 0.421875 0.640625 " clip-rule="nonzero"/></clipPath><clipPath id="8d7cd15747"><rect x="0" width="169" y="0" height="62"/></clipPath><clipPath id="518101acab"><path d="M 1242.414062 210.824219 L 1410.527344 210.824219 L 1410.527344 271.34375 L 1242.414062 271.34375 Z M 1242.414062 210.824219 " clip-rule="nonzero"/></clipPath><clipPath id="0ac5893f23"><path d="M 1242.414062 278.59375 L 1410.527344 278.59375 L 1410.527344 339.109375 L 1242.414062 339.109375 Z M 1242.414062 278.59375 " clip-rule="nonzero"/></clipPath><mask id="aee051a108"><g filter="url(#2540fec989)"><rect x="-148.725" width="1784.7" fill="#000000" y="-67.5" height="810.000002" fill-opacity="0.4"/></g></mask><clipPath id="9567fb471f"><path d="M 0.414062 0.59375 L 168.527344 0.59375 L 168.527344 61.109375 L 0.414062 61.109375 Z M 0.414062 0.59375 " clip-rule="nonzero"/></clipPath><clipPath id="beaa896a83"><rect x="0" width="169" y="0" height="62"/></clipPath><clipPath id="584284f759"><path d="M 1242.414062 346.359375 L 1410.527344 346.359375 L 1410.527344 406.878906 L 1242.414062 406.878906 Z M 1242.414062 346.359375 " clip-rule="nonzero"/></clipPath></defs><g clip-path="url(#76f7c6a269)"><path fill="#d9d9d9" d="M 76.230469 143.253906 L 243.980469 143.253906 L 243.980469 203.914062 L 76.230469 203.914062 Z M 76.230469 143.253906 " fill-opacity="1" fill-rule="nonzero"/></g><g clip-path="url(#30d4d01d92)"><path fill="#d9d9d9" d="M 252.324219 75.488281 L 420.078125 75.488281 L 420.078125 136.148438 L 252.324219 136.148438 Z M 252.324219 75.488281 " fill-opacity="1" fill-rule="nonzero"/></g><g fill="#808080" fill-opacity="1"><g transform="translate(325.565299, 115.177968)"><g><path d="M 16.578125 0 L 14.75 -5.265625 L 6.890625 -5.265625 L 5.0625 0 L 0.75 0 L 8.265625 -20.609375 L 13.359375 -20.609375 L 20.84375 0 Z M 10.8125 -17.4375 L 10.71875 -17.109375 C 10.625 -16.753906 10.507812 -16.351562 10.375 -15.90625 C 10.238281 -15.457031 9.398438 -12.992188 7.859375 -8.515625 L 13.78125 -8.515625 L 11.75 -14.4375 L 11.109375 -16.421875 Z M 10.8125 -17.4375 "/></g></g></g><g clip-path="url(#a7ae5e27d8)"><path fill="#d9d9d9" d="M 76.230469 211.023438 L 243.980469 211.023438 L 243.980469 271.683594 L 76.230469 271.683594 Z M 76.230469 211.023438 " fill-opacity="1" fill-rule="nonzero"/></g><g clip-path="url(#0187dbd66f)"><path fill="#f2f2f2" d="M 252.324219 211.023438 L 420.078125 211.023438 L 420.078125 271.683594 L 252.324219 271.683594 Z M 252.324219 211.023438 " fill-opacity="1" fill-rule="nonzero"/></g><g fill="#808080" fill-opacity="1"><g transform="translate(277.445418, 360.170453)"><g><path d="M 18.390625 0.703125 C 13.265625 0.703125 9.328125 -0.40625 6.578125 -2.625 C 3.828125 -4.851562 2 -8.445312 1.09375 -13.40625 L 11.375 -14.921875 C 11.789062 -12.367188 12.570312 -10.476562 13.71875 -9.25 C 14.863281 -8.019531 16.445312 -7.40625 18.46875 -7.40625 C 20.519531 -7.40625 22.078125 -8.09375 23.140625 -9.46875 C 24.210938 -10.851562 24.75 -12.832031 24.75 -15.40625 L 24.75 -41.34375 L 14.890625 -41.34375 L 14.890625 -49.453125 L 35.0625 -49.453125 L 35.0625 -15.65625 C 35.0625 -10.507812 33.597656 -6.492188 30.671875 -3.609375 C 27.753906 -0.734375 23.660156 0.703125 18.390625 0.703125 Z M 18.390625 0.703125 "/></g></g><g transform="translate(317.42915, 360.170453)"><g><path d="M 41.109375 -19.03125 C 41.109375 -12.875 39.398438 -8.046875 35.984375 -4.546875 C 32.566406 -1.046875 27.835938 0.703125 21.796875 0.703125 C 15.878906 0.703125 11.234375 -1.050781 7.859375 -4.5625 C 4.492188 -8.070312 2.8125 -12.894531 2.8125 -19.03125 C 2.8125 -25.132812 4.492188 -29.9375 7.859375 -33.4375 C 11.234375 -36.9375 15.953125 -38.6875 22.015625 -38.6875 C 28.210938 -38.6875 32.941406 -36.992188 36.203125 -33.609375 C 39.472656 -30.222656 41.109375 -25.363281 41.109375 -19.03125 Z M 30.78125 -19.03125 C 30.78125 -23.539062 30.039062 -26.8125 28.5625 -28.84375 C 27.09375 -30.882812 24.957031 -31.90625 22.15625 -31.90625 C 16.15625 -31.90625 13.15625 -27.613281 13.15625 -19.03125 C 13.15625 -14.789062 13.882812 -11.5625 15.34375 -9.34375 C 16.8125 -7.132812 18.925781 -6.03125 21.6875 -6.03125 C 27.75 -6.03125 30.78125 -10.363281 30.78125 -19.03125 Z M 30.78125 -19.03125 "/></g></g><g transform="translate(361.344556, 360.170453)"><g><path d="M 5.015625 -44.828125 L 5.015625 -52.09375 L 14.890625 -52.09375 L 14.890625 -44.828125 Z M 5.015625 0 L 5.015625 -37.984375 L 14.890625 -37.984375 L 14.890625 0 Z M 5.015625 0 "/></g></g><g transform="translate(381.31887, 360.170453)"><g><path d="M 29.625 0 L 29.625 -21.3125 C 29.625 -27.976562 27.367188 -31.3125 22.859375 -31.3125 C 20.460938 -31.3125 18.535156 -30.285156 17.078125 -28.234375 C 15.617188 -26.191406 14.890625 -23.566406 14.890625 -20.359375 L 14.890625 0 L 5.015625 0 L 5.015625 -29.484375 C 5.015625 -31.523438 4.984375 -33.191406 4.921875 -34.484375 C 4.867188 -35.785156 4.804688 -36.953125 4.734375 -37.984375 L 14.140625 -37.984375 C 14.210938 -37.535156 14.304688 -36.34375 14.421875 -34.40625 C 14.546875 -32.476562 14.609375 -31.15625 14.609375 -30.4375 L 14.75 -30.4375 C 16.082031 -33.332031 17.753906 -35.4375 19.765625 -36.75 C 21.773438 -38.0625 24.171875 -38.71875 26.953125 -38.71875 C 30.984375 -38.71875 34.070312 -37.476562 36.21875 -35 C 38.375 -32.519531 39.453125 -28.890625 39.453125 -24.109375 L 39.453125 0 Z M 29.625 0 "/></g></g></g><g clip-path="url(#f0e6a4b1c4)"><path fill="#d9d9d9" d="M 428.421875 75.488281 L 596.171875 75.488281 L 596.171875 136.148438 L 428.421875 136.148438 Z M 428.421875 75.488281 " fill-opacity="1" fill-rule="nonzero"/></g><g fill="#808080" fill-opacity="1"><g transform="translate(501.660996, 115.177968)"><g><path d="M 20.265625 -5.875 C 20.265625 -4.007812 19.5625 -2.5625 18.15625 -1.53125 C 16.757812 -0.507812 14.8125 0 12.3125 0 L 2 0 L 2 -20.609375 L 11.4375 -20.609375 C 13.945312 -20.609375 15.847656 -20.171875 17.140625 -19.296875 C 18.441406 -18.421875 19.09375 -17.132812 19.09375 -15.4375 C 19.09375 -14.257812 18.765625 -13.269531 18.109375 -12.46875 C 17.460938 -11.664062 16.476562 -11.125 15.15625 -10.84375 C 16.820312 -10.644531 18.085938 -10.117188 18.953125 -9.265625 C 19.828125 -8.410156 20.265625 -7.28125 20.265625 -5.875 Z M 14.75 -14.84375 C 14.75 -15.769531 14.453125 -16.425781 13.859375 -16.8125 C 13.265625 -17.207031 12.390625 -17.40625 11.234375 -17.40625 L 6.3125 -17.40625 L 6.3125 -12.296875 L 11.265625 -12.296875 C 12.484375 -12.296875 13.367188 -12.507812 13.921875 -12.9375 C 14.472656 -13.363281 14.75 -14 14.75 -14.84375 Z M 15.9375 -6.21875 C 15.9375 -8.144531 14.550781 -9.109375 11.78125 -9.109375 L 6.3125 -9.109375 L 6.3125 -3.203125 L 11.953125 -3.203125 C 13.335938 -3.203125 14.347656 -3.453125 14.984375 -3.953125 C 15.617188 -4.453125 15.9375 -5.207031 15.9375 -6.21875 Z M 15.9375 -6.21875 "/></g></g></g><g clip-path="url(#3f2356fa8c)"><path fill="#f2f2f2" d="M 428.421875 211.023438 L 596.171875 211.023438 L 596.171875 271.683594 L 428.421875 271.683594 Z M 428.421875 211.023438 " fill-opacity="1" fill-rule="nonzero"/></g><g clip-path="url(#d348210307)"><path fill="#d9d9d9" d="M 714.128906 279.363281 L 881.878906 279.363281 L 881.878906 340.023438 L 714.128906 340.023438 Z M 714.128906 279.363281 " fill-opacity="1" fill-rule="nonzero"/></g><g clip-path="url(#20492f2ab7)"><path fill="#d9d9d9" d="M 890.226562 211.59375 L 1057.976562 211.59375 L 1057.976562 272.253906 L 890.226562 272.253906 Z M 890.226562 211.59375 " fill-opacity="1" fill-rule="nonzero"/></g><g fill="#808080" fill-opacity="1"><g transform="translate(963.463834, 251.285666)"><g><path d="M 16.578125 0 L 14.75 -5.265625 L 6.890625 -5.265625 L 5.0625 0 L 0.75 0 L 8.265625 -20.609375 L 13.359375 -20.609375 L 20.84375 0 Z M 10.8125 -17.4375 L 10.71875 -17.109375 C 10.625 -16.753906 10.507812 -16.351562 10.375 -15.90625 C 10.238281 -15.457031 9.398438 -12.992188 7.859375 -8.515625 L 13.78125 -8.515625 L 11.75 -14.4375 L 11.109375 -16.421875 Z M 10.8125 -17.4375 "/></g></g></g><g clip-path="url(#f2b43fd707)"><g mask="url(#8cac46699e)"><g transform="matrix(1, 0, 0, 1, 890, 279)"><g clip-path="url(#2c9f14c9f6)"><g clip-path="url(#085c80ce7c)"><path fill="#03e313" d="M 0.226562 0.363281 L 167.976562 0.363281 L 167.976562 61.023438 L 0.226562 61.023438 Z M 0.226562 0.363281 " fill-opacity="1" fill-rule="nonzero"/></g></g></g></g></g><g fill="#808080" fill-opacity="1"><g transform="translate(957.613127, 319.053352)"><g><path d="M 1.03125 0 L 1.03125 -2.859375 C 1.570312 -4.035156 2.335938 -5.179688 3.328125 -6.296875 C 4.316406 -7.421875 5.5625 -8.59375 7.0625 -9.8125 C 8.507812 -10.976562 9.519531 -11.941406 10.09375 -12.703125 C 10.675781 -13.460938 10.96875 -14.210938 10.96875 -14.953125 C 10.96875 -16.742188 10.066406 -17.640625 8.265625 -17.640625 C 7.390625 -17.640625 6.71875 -17.398438 6.25 -16.921875 C 5.789062 -16.453125 5.492188 -15.742188 5.359375 -14.796875 L 1.21875 -15.03125 C 1.445312 -16.945312 2.15625 -18.40625 3.34375 -19.40625 C 4.539062 -20.414062 6.171875 -20.921875 8.234375 -20.921875 C 10.453125 -20.921875 12.15625 -20.410156 13.34375 -19.390625 C 14.539062 -18.378906 15.140625 -16.957031 15.140625 -15.125 C 15.140625 -14.15625 14.945312 -13.28125 14.5625 -12.5 C 14.1875 -11.71875 13.703125 -11 13.109375 -10.34375 C 12.515625 -9.6875 11.851562 -9.070312 11.125 -8.5 C 10.394531 -7.925781 9.6875 -7.363281 9 -6.8125 C 8.320312 -6.269531 7.703125 -5.71875 7.140625 -5.15625 C 6.578125 -4.601562 6.160156 -4.007812 5.890625 -3.375 L 15.453125 -3.375 L 15.453125 0 Z M 1.03125 0 "/></g></g><g transform="translate(974.273015, 319.053352)"><g><path d="M 1.890625 0 L 1.890625 -3.0625 L 6.984375 -3.0625 L 6.984375 -17.109375 L 2.046875 -14.03125 L 2.046875 -17.265625 L 7.203125 -20.609375 L 11.09375 -20.609375 L 11.09375 -3.0625 L 15.828125 -3.0625 L 15.828125 0 Z M 1.890625 0 "/></g></g></g><g clip-path="url(#887037f91b)"><path fill="#d9d9d9" d="M 714.128906 347.128906 L 881.878906 347.128906 L 881.878906 407.789062 L 714.128906 407.789062 Z M 714.128906 347.128906 " fill-opacity="1" fill-rule="nonzero"/></g><g clip-path="url(#3ddc65c259)"><path fill="#f2f2f2" d="M 890.226562 347.128906 L 1057.976562 347.128906 L 1057.976562 407.789062 L 890.226562 407.789062 Z M 890.226562 347.128906 " fill-opacity="1" fill-rule="nonzero"/></g><g clip-path="url(#4084b0e028)"><path fill="#d9d9d9" d="M 1066.320312 211.59375 L 1234.070312 211.59375 L 1234.070312 272.253906 L 1066.320312 272.253906 Z M 1066.320312 211.59375 " fill-opacity="1" fill-rule="nonzero"/></g><g fill="#808080" fill-opacity="1"><g transform="translate(1139.559528, 251.285666)"><g><path d="M 20.265625 -5.875 C 20.265625 -4.007812 19.5625 -2.5625 18.15625 -1.53125 C 16.757812 -0.507812 14.8125 0 12.3125 0 L 2 0 L 2 -20.609375 L 11.4375 -20.609375 C 13.945312 -20.609375 15.847656 -20.171875 17.140625 -19.296875 C 18.441406 -18.421875 19.09375 -17.132812 19.09375 -15.4375 C 19.09375 -14.257812 18.765625 -13.269531 18.109375 -12.46875 C 17.460938 -11.664062 16.476562 -11.125 15.15625 -10.84375 C 16.820312 -10.644531 18.085938 -10.117188 18.953125 -9.265625 C 19.828125 -8.410156 20.265625 -7.28125 20.265625 -5.875 Z M 14.75 -14.84375 C 14.75 -15.769531 14.453125 -16.425781 13.859375 -16.8125 C 13.265625 -17.207031 12.390625 -17.40625 11.234375 -17.40625 L 6.3125 -17.40625 L 6.3125 -12.296875 L 11.265625 -12.296875 C 12.484375 -12.296875 13.367188 -12.507812 13.921875 -12.9375 C 14.472656 -13.363281 14.75 -14 14.75 -14.84375 Z M 15.9375 -6.21875 C 15.9375 -8.144531 14.550781 -9.109375 11.78125 -9.109375 L 6.3125 -9.109375 L 6.3125 -3.203125 L 11.953125 -3.203125 C 13.335938 -3.203125 14.347656 -3.453125 14.984375 -3.953125 C 15.617188 -4.453125 15.9375 -5.207031 15.9375 -6.21875 Z M 15.9375 -6.21875 "/></g></g></g><g clip-path="url(#b169269236)"><g mask="url(#cbd0df0882)"><g transform="matrix(1, 0, 0, 1, 1066, 279)"><g clip-path="url(#c4a46661a4)"><g clip-path="url(#c84a17c279)"><path fill="#03e313" d="M 0.320312 0.363281 L 168.070312 0.363281 L 168.070312 61.023438 L 0.320312 61.023438 Z M 0.320312 0.363281 " fill-opacity="1" fill-rule="nonzero"/></g></g></g></g></g><g fill="#808080" fill-opacity="1"><g transform="translate(1121.258517, 319.053352)"><g><path d="M 20.265625 -5.875 C 20.265625 -4.007812 19.5625 -2.5625 18.15625 -1.53125 C 16.757812 -0.507812 14.8125 0 12.3125 0 L 2 0 L 2 -20.609375 L 11.4375 -20.609375 C 13.945312 -20.609375 15.847656 -20.171875 17.140625 -19.296875 C 18.441406 -18.421875 19.09375 -17.132812 19.09375 -15.4375 C 19.09375 -14.257812 18.765625 -13.269531 18.109375 -12.46875 C 17.460938 -11.664062 16.476562 -11.125 15.15625 -10.84375 C 16.820312 -10.644531 18.085938 -10.117188 18.953125 -9.265625 C 19.828125 -8.410156 20.265625 -7.28125 20.265625 -5.875 Z M 14.75 -14.84375 C 14.75 -15.769531 14.453125 -16.425781 13.859375 -16.8125 C 13.265625 -17.207031 12.390625 -17.40625 11.234375 -17.40625 L 6.3125 -17.40625 L 6.3125 -12.296875 L 11.265625 -12.296875 C 12.484375 -12.296875 13.367188 -12.507812 13.921875 -12.9375 C 14.472656 -13.363281 14.75 -14 14.75 -14.84375 Z M 15.9375 -6.21875 C 15.9375 -8.144531 14.550781 -9.109375 11.78125 -9.109375 L 6.3125 -9.109375 L 6.3125 -3.203125 L 11.953125 -3.203125 C 13.335938 -3.203125 14.347656 -3.453125 14.984375 -3.953125 C 15.617188 -4.453125 15.9375 -5.207031 15.9375 -6.21875 Z M 15.9375 -6.21875 "/></g></g><g transform="translate(1142.891506, 319.053352)"><g><path d="M 17.125 -7.921875 C 17.125 -5.359375 16.410156 -3.347656 14.984375 -1.890625 C 13.566406 -0.429688 11.597656 0.296875 9.078125 0.296875 C 6.609375 0.296875 4.671875 -0.429688 3.265625 -1.890625 C 1.867188 -3.359375 1.171875 -5.367188 1.171875 -7.921875 C 1.171875 -10.472656 1.867188 -12.476562 3.265625 -13.9375 C 4.671875 -15.394531 6.640625 -16.125 9.171875 -16.125 C 11.753906 -16.125 13.722656 -15.414062 15.078125 -14 C 16.441406 -12.59375 17.125 -10.566406 17.125 -7.921875 Z M 12.828125 -7.921875 C 12.828125 -9.804688 12.519531 -11.171875 11.90625 -12.015625 C 11.289062 -12.867188 10.398438 -13.296875 9.234375 -13.296875 C 6.734375 -13.296875 5.484375 -11.503906 5.484375 -7.921875 C 5.484375 -6.160156 5.785156 -4.816406 6.390625 -3.890625 C 7.003906 -2.972656 7.882812 -2.515625 9.03125 -2.515625 C 11.5625 -2.515625 12.828125 -4.316406 12.828125 -7.921875 Z M 12.828125 -7.921875 "/></g></g><g transform="translate(1161.189592, 319.053352)"><g><path d="M 17.0625 -7.96875 C 17.0625 -5.351562 16.535156 -3.320312 15.484375 -1.875 C 14.441406 -0.425781 12.945312 0.296875 11 0.296875 C 9.875 0.296875 8.898438 0.0507812 8.078125 -0.4375 C 7.265625 -0.925781 6.640625 -1.628906 6.203125 -2.546875 L 6.171875 -2.546875 C 6.171875 -2.203125 6.148438 -1.734375 6.109375 -1.140625 C 6.066406 -0.546875 6.019531 -0.164062 5.96875 0 L 1.96875 0 C 2.050781 -0.90625 2.09375 -2.109375 2.09375 -3.609375 L 2.09375 -21.703125 L 6.203125 -21.703125 L 6.203125 -15.65625 L 6.140625 -13.078125 L 6.203125 -13.078125 C 7.128906 -15.109375 8.816406 -16.125 11.265625 -16.125 C 13.128906 -16.125 14.5625 -15.410156 15.5625 -13.984375 C 16.5625 -12.566406 17.0625 -10.5625 17.0625 -7.96875 Z M 12.78125 -7.96875 C 12.78125 -9.757812 12.515625 -11.085938 11.984375 -11.953125 C 11.460938 -12.828125 10.648438 -13.265625 9.546875 -13.265625 C 8.441406 -13.265625 7.597656 -12.796875 7.015625 -11.859375 C 6.429688 -10.929688 6.140625 -9.59375 6.140625 -7.84375 C 6.140625 -6.164062 6.425781 -4.859375 7 -3.921875 C 7.570312 -2.984375 8.410156 -2.515625 9.515625 -2.515625 C 11.691406 -2.515625 12.78125 -4.332031 12.78125 -7.96875 Z M 12.78125 -7.96875 "/></g></g></g><g clip-path="url(#9fe5492c13)"><path fill="#f2f2f2" d="M 1066.320312 347.128906 L 1234.070312 347.128906 L 1234.070312 407.789062 L 1066.320312 407.789062 Z M 1066.320312 347.128906 " fill-opacity="1" fill-rule="nonzero"/></g><g clip-path="url(#eedda32696)"><g mask="url(#1de95dfd55)"><g transform="matrix(1, 0, 0, 1, 252, 143)"><g clip-path="url(#4761940059)"><g clip-path="url(#1dbfa17a04)"><path fill="#ffc000" d="M 0.324219 0.253906 L 168.078125 0.253906 L 168.078125 60.914062 L 0.324219 60.914062 Z M 0.324219 0.253906 " fill-opacity="1" fill-rule="nonzero"/></g></g></g></g></g><g fill="#808080" fill-opacity="1"><g transform="translate(319.714505, 182.945618)"><g><path d="M 1.03125 0 L 1.03125 -2.859375 C 1.570312 -4.035156 2.335938 -5.179688 3.328125 -6.296875 C 4.316406 -7.421875 5.5625 -8.59375 7.0625 -9.8125 C 8.507812 -10.976562 9.519531 -11.941406 10.09375 -12.703125 C 10.675781 -13.460938 10.96875 -14.210938 10.96875 -14.953125 C 10.96875 -16.742188 10.066406 -17.640625 8.265625 -17.640625 C 7.390625 -17.640625 6.71875 -17.398438 6.25 -16.921875 C 5.789062 -16.453125 5.492188 -15.742188 5.359375 -14.796875 L 1.21875 -15.03125 C 1.445312 -16.945312 2.15625 -18.40625 3.34375 -19.40625 C 4.539062 -20.414062 6.171875 -20.921875 8.234375 -20.921875 C 10.453125 -20.921875 12.15625 -20.410156 13.34375 -19.390625 C 14.539062 -18.378906 15.140625 -16.957031 15.140625 -15.125 C 15.140625 -14.15625 14.945312 -13.28125 14.5625 -12.5 C 14.1875 -11.71875 13.703125 -11 13.109375 -10.34375 C 12.515625 -9.6875 11.851562 -9.070312 11.125 -8.5 C 10.394531 -7.925781 9.6875 -7.363281 9 -6.8125 C 8.320312 -6.269531 7.703125 -5.71875 7.140625 -5.15625 C 6.578125 -4.601562 6.160156 -4.007812 5.890625 -3.375 L 15.453125 -3.375 L 15.453125 0 Z M 1.03125 0 "/></g></g><g transform="translate(336.374394, 182.945618)"><g><path d="M 1.890625 0 L 1.890625 -3.0625 L 6.984375 -3.0625 L 6.984375 -17.109375 L 2.046875 -14.03125 L 2.046875 -17.265625 L 7.203125 -20.609375 L 11.09375 -20.609375 L 11.09375 -3.0625 L 15.828125 -3.0625 L 15.828125 0 Z M 1.890625 0 "/></g></g></g><g clip-path="url(#bb0aaff8d6)"><g mask="url(#c76d2aa6b7)"><g transform="matrix(1, 0, 0, 1, 428, 143)"><g clip-path="url(#353d62cd0a)"><g clip-path="url(#07bc5668ab)"><path fill="#ffc000" d="M 0.421875 0.253906 L 168.171875 0.253906 L 168.171875 60.914062 L 0.421875 60.914062 Z M 0.421875 0.253906 " fill-opacity="1" fill-rule="nonzero"/></g></g></g></g></g><g fill="#808080" fill-opacity="1"><g transform="translate(483.359984, 182.945618)"><g><path d="M 20.265625 -5.875 C 20.265625 -4.007812 19.5625 -2.5625 18.15625 -1.53125 C 16.757812 -0.507812 14.8125 0 12.3125 0 L 2 0 L 2 -20.609375 L 11.4375 -20.609375 C 13.945312 -20.609375 15.847656 -20.171875 17.140625 -19.296875 C 18.441406 -18.421875 19.09375 -17.132812 19.09375 -15.4375 C 19.09375 -14.257812 18.765625 -13.269531 18.109375 -12.46875 C 17.460938 -11.664062 16.476562 -11.125 15.15625 -10.84375 C 16.820312 -10.644531 18.085938 -10.117188 18.953125 -9.265625 C 19.828125 -8.410156 20.265625 -7.28125 20.265625 -5.875 Z M 14.75 -14.84375 C 14.75 -15.769531 14.453125 -16.425781 13.859375 -16.8125 C 13.265625 -17.207031 12.390625 -17.40625 11.234375 -17.40625 L 6.3125 -17.40625 L 6.3125 -12.296875 L 11.265625 -12.296875 C 12.484375 -12.296875 13.367188 -12.507812 13.921875 -12.9375 C 14.472656 -13.363281 14.75 -14 14.75 -14.84375 Z M 15.9375 -6.21875 C 15.9375 -8.144531 14.550781 -9.109375 11.78125 -9.109375 L 6.3125 -9.109375 L 6.3125 -3.203125 L 11.953125 -3.203125 C 13.335938 -3.203125 14.347656 -3.453125 14.984375 -3.953125 C 15.617188 -4.453125 15.9375 -5.207031 15.9375 -6.21875 Z M 15.9375 -6.21875 "/></g></g><g transform="translate(504.992974, 182.945618)"><g><path d="M 17.125 -7.921875 C 17.125 -5.359375 16.410156 -3.347656 14.984375 -1.890625 C 13.566406 -0.429688 11.597656 0.296875 9.078125 0.296875 C 6.609375 0.296875 4.671875 -0.429688 3.265625 -1.890625 C 1.867188 -3.359375 1.171875 -5.367188 1.171875 -7.921875 C 1.171875 -10.472656 1.867188 -12.476562 3.265625 -13.9375 C 4.671875 -15.394531 6.640625 -16.125 9.171875 -16.125 C 11.753906 -16.125 13.722656 -15.414062 15.078125 -14 C 16.441406 -12.59375 17.125 -10.566406 17.125 -7.921875 Z M 12.828125 -7.921875 C 12.828125 -9.804688 12.519531 -11.171875 11.90625 -12.015625 C 11.289062 -12.867188 10.398438 -13.296875 9.234375 -13.296875 C 6.734375 -13.296875 5.484375 -11.503906 5.484375 -7.921875 C 5.484375 -6.160156 5.785156 -4.816406 6.390625 -3.890625 C 7.003906 -2.972656 7.882812 -2.515625 9.03125 -2.515625 C 11.5625 -2.515625 12.828125 -4.316406 12.828125 -7.921875 Z M 12.828125 -7.921875 "/></g></g><g transform="translate(523.29106, 182.945618)"><g><path d="M 17.0625 -7.96875 C 17.0625 -5.351562 16.535156 -3.320312 15.484375 -1.875 C 14.441406 -0.425781 12.945312 0.296875 11 0.296875 C 9.875 0.296875 8.898438 0.0507812 8.078125 -0.4375 C 7.265625 -0.925781 6.640625 -1.628906 6.203125 -2.546875 L 6.171875 -2.546875 C 6.171875 -2.203125 6.148438 -1.734375 6.109375 -1.140625 C 6.066406 -0.546875 6.019531 -0.164062 5.96875 0 L 1.96875 0 C 2.050781 -0.90625 2.09375 -2.109375 2.09375 -3.609375 L 2.09375 -21.703125 L 6.203125 -21.703125 L 6.203125 -15.65625 L 6.140625 -13.078125 L 6.203125 -13.078125 C 7.128906 -15.109375 8.816406 -16.125 11.265625 -16.125 C 13.128906 -16.125 14.5625 -15.410156 15.5625 -13.984375 C 16.5625 -12.566406 17.0625 -10.5625 17.0625 -7.96875 Z M 12.78125 -7.96875 C 12.78125 -9.757812 12.515625 -11.085938 11.984375 -11.953125 C 11.460938 -12.828125 10.648438 -13.265625 9.546875 -13.265625 C 8.441406 -13.265625 7.597656 -12.796875 7.015625 -11.859375 C 6.429688 -10.929688 6.140625 -9.59375 6.140625 -7.84375 C 6.140625 -6.164062 6.425781 -4.859375 7 -3.921875 C 7.570312 -2.984375 8.410156 -2.515625 9.515625 -2.515625 C 11.691406 -2.515625 12.78125 -4.332031 12.78125 -7.96875 Z M 12.78125 -7.96875 "/></g></g></g><g clip-path="url(#2af16378b5)"><path fill="#d9d9d9" d="M 76.230469 470.640625 L 243.980469 470.640625 L 243.980469 531.300781 L 76.230469 531.300781 Z M 76.230469 470.640625 " fill-opacity="1" fill-rule="nonzero"/></g><g clip-path="url(#59c47105a4)"><path fill="#d9d9d9" d="M 252.324219 402.871094 L 420.078125 402.871094 L 420.078125 463.53125 L 252.324219 463.53125 Z M 252.324219 402.871094 " fill-opacity="1" fill-rule="nonzero"/></g><g fill="#808080" fill-opacity="1"><g transform="translate(325.565299, 442.563417)"><g><path d="M 16.578125 0 L 14.75 -5.265625 L 6.890625 -5.265625 L 5.0625 0 L 0.75 0 L 8.265625 -20.609375 L 13.359375 -20.609375 L 20.84375 0 Z M 10.8125 -17.4375 L 10.71875 -17.109375 C 10.625 -16.753906 10.507812 -16.351562 10.375 -15.90625 C 10.238281 -15.457031 9.398438 -12.992188 7.859375 -8.515625 L 13.78125 -8.515625 L 11.75 -14.4375 L 11.109375 -16.421875 Z M 10.8125 -17.4375 "/></g></g></g><g clip-path="url(#4ebb0d374a)"><path fill="#d9d9d9" d="M 76.230469 538.40625 L 243.980469 538.40625 L 243.980469 599.066406 L 76.230469 599.066406 Z M 76.230469 538.40625 " fill-opacity="1" fill-rule="nonzero"/></g><g clip-path="url(#f87648c1b5)"><path fill="#f2f2f2" d="M 252.324219 538.40625 L 420.078125 538.40625 L 420.078125 599.066406 L 252.324219 599.066406 Z M 252.324219 538.40625 " fill-opacity="1" fill-rule="nonzero"/></g><g clip-path="url(#becd7b0cf0)"><path fill="#d9d9d9" d="M 428.421875 402.871094 L 596.171875 402.871094 L 596.171875 463.53125 L 428.421875 463.53125 Z M 428.421875 402.871094 " fill-opacity="1" fill-rule="nonzero"/></g><g fill="#808080" fill-opacity="1"><g transform="translate(501.660996, 442.563417)"><g><path d="M 11.625 -3.09375 C 14.226562 -3.09375 16.035156 -4.398438 17.046875 -7.015625 L 20.8125 -5.609375 C 20 -3.617188 18.8125 -2.132812 17.25 -1.15625 C 15.6875 -0.1875 13.8125 0.296875 11.625 0.296875 C 8.3125 0.296875 5.75 -0.640625 3.9375 -2.515625 C 2.132812 -4.398438 1.234375 -7.03125 1.234375 -10.40625 C 1.234375 -13.78125 2.101562 -16.375 3.84375 -18.1875 C 5.59375 -20.007812 8.125 -20.921875 11.4375 -20.921875 C 13.851562 -20.921875 15.820312 -20.429688 17.34375 -19.453125 C 18.863281 -18.484375 19.929688 -17.0625 20.546875 -15.1875 L 16.75 -14.140625 C 16.425781 -15.171875 15.789062 -15.988281 14.84375 -16.59375 C 13.90625 -17.207031 12.800781 -17.515625 11.53125 -17.515625 C 9.570312 -17.515625 8.085938 -16.910156 7.078125 -15.703125 C 6.078125 -14.492188 5.578125 -12.726562 5.578125 -10.40625 C 5.578125 -8.03125 6.09375 -6.21875 7.125 -4.96875 C 8.164062 -3.71875 9.664062 -3.09375 11.625 -3.09375 Z M 11.625 -3.09375 "/></g></g></g><g clip-path="url(#033e8b4d87)"><path fill="#f2f2f2" d="M 428.421875 538.40625 L 596.171875 538.40625 L 596.171875 599.066406 L 428.421875 599.066406 Z M 428.421875 538.40625 " fill-opacity="1" fill-rule="nonzero"/></g><g clip-path="url(#96689474b6)"><g mask="url(#722f0f698b)"><g transform="matrix(1, 0, 0, 1, 252, 470)"><g clip-path="url(#2c3c9afff2)"><g clip-path="url(#eab528cfff)"><path fill="#ffc000" d="M 0.324219 0.640625 L 168.078125 0.640625 L 168.078125 61.300781 L 0.324219 61.300781 Z M 0.324219 0.640625 " fill-opacity="1" fill-rule="nonzero"/></g></g></g></g></g><g fill="#808080" fill-opacity="1"><g transform="translate(319.714505, 510.331034)"><g><path d="M 1.03125 0 L 1.03125 -2.859375 C 1.570312 -4.035156 2.335938 -5.179688 3.328125 -6.296875 C 4.316406 -7.421875 5.5625 -8.59375 7.0625 -9.8125 C 8.507812 -10.976562 9.519531 -11.941406 10.09375 -12.703125 C 10.675781 -13.460938 10.96875 -14.210938 10.96875 -14.953125 C 10.96875 -16.742188 10.066406 -17.640625 8.265625 -17.640625 C 7.390625 -17.640625 6.71875 -17.398438 6.25 -16.921875 C 5.789062 -16.453125 5.492188 -15.742188 5.359375 -14.796875 L 1.21875 -15.03125 C 1.445312 -16.945312 2.15625 -18.40625 3.34375 -19.40625 C 4.539062 -20.414062 6.171875 -20.921875 8.234375 -20.921875 C 10.453125 -20.921875 12.15625 -20.410156 13.34375 -19.390625 C 14.539062 -18.378906 15.140625 -16.957031 15.140625 -15.125 C 15.140625 -14.15625 14.945312 -13.28125 14.5625 -12.5 C 14.1875 -11.71875 13.703125 -11 13.109375 -10.34375 C 12.515625 -9.6875 11.851562 -9.070312 11.125 -8.5 C 10.394531 -7.925781 9.6875 -7.363281 9 -6.8125 C 8.320312 -6.269531 7.703125 -5.71875 7.140625 -5.15625 C 6.578125 -4.601562 6.160156 -4.007812 5.890625 -3.375 L 15.453125 -3.375 L 15.453125 0 Z M 1.03125 0 "/></g></g><g transform="translate(336.374394, 510.331034)"><g><path d="M 1.890625 0 L 1.890625 -3.0625 L 6.984375 -3.0625 L 6.984375 -17.109375 L 2.046875 -14.03125 L 2.046875 -17.265625 L 7.203125 -20.609375 L 11.09375 -20.609375 L 11.09375 -3.0625 L 15.828125 -3.0625 L 15.828125 0 Z M 1.890625 0 "/></g></g></g><g clip-path="url(#85f6354beb)"><g mask="url(#782db01fc5)"><g transform="matrix(1, 0, 0, 1, 428, 470)"><g clip-path="url(#8d7cd15747)"><g clip-path="url(#2e34ffbf9b)"><path fill="#ffc000" d="M 0.421875 0.640625 L 168.171875 0.640625 L 168.171875 61.300781 L 0.421875 61.300781 Z M 0.421875 0.640625 " fill-opacity="1" fill-rule="nonzero"/></g></g></g></g></g><g fill="#808080" fill-opacity="1"><g transform="translate(475.847676, 510.331034)"><g><path d="M 16.15625 0 L 11.375 -7.828125 L 6.3125 -7.828125 L 6.3125 0 L 2 0 L 2 -20.609375 L 12.296875 -20.609375 C 14.753906 -20.609375 16.648438 -20.078125 17.984375 -19.015625 C 19.328125 -17.960938 20 -16.445312 20 -14.46875 C 20 -13.019531 19.585938 -11.769531 18.765625 -10.71875 C 17.941406 -9.675781 16.832031 -8.988281 15.4375 -8.65625 L 21.015625 0 Z M 15.65625 -14.296875 C 15.65625 -16.273438 14.382812 -17.265625 11.84375 -17.265625 L 6.3125 -17.265625 L 6.3125 -11.171875 L 11.96875 -11.171875 C 13.175781 -11.171875 14.09375 -11.441406 14.71875 -11.984375 C 15.34375 -12.535156 15.65625 -13.304688 15.65625 -14.296875 Z M 15.65625 -14.296875 "/></g></g><g transform="translate(497.480666, 510.331034)"><g><path d="M 17.125 -7.921875 C 17.125 -5.359375 16.410156 -3.347656 14.984375 -1.890625 C 13.566406 -0.429688 11.597656 0.296875 9.078125 0.296875 C 6.609375 0.296875 4.671875 -0.429688 3.265625 -1.890625 C 1.867188 -3.359375 1.171875 -5.367188 1.171875 -7.921875 C 1.171875 -10.472656 1.867188 -12.476562 3.265625 -13.9375 C 4.671875 -15.394531 6.640625 -16.125 9.171875 -16.125 C 11.753906 -16.125 13.722656 -15.414062 15.078125 -14 C 16.441406 -12.59375 17.125 -10.566406 17.125 -7.921875 Z M 12.828125 -7.921875 C 12.828125 -9.804688 12.519531 -11.171875 11.90625 -12.015625 C 11.289062 -12.867188 10.398438 -13.296875 9.234375 -13.296875 C 6.734375 -13.296875 5.484375 -11.503906 5.484375 -7.921875 C 5.484375 -6.160156 5.785156 -4.816406 6.390625 -3.890625 C 7.003906 -2.972656 7.882812 -2.515625 9.03125 -2.515625 C 11.5625 -2.515625 12.828125 -4.316406 12.828125 -7.921875 Z M 12.828125 -7.921875 "/></g></g><g transform="translate(515.778752, 510.331034)"><g><path d="M 15.4375 -4.625 C 15.4375 -3.09375 14.804688 -1.890625 13.546875 -1.015625 C 12.296875 -0.140625 10.5625 0.296875 8.34375 0.296875 C 6.175781 0.296875 4.515625 -0.046875 3.359375 -0.734375 C 2.203125 -1.421875 1.429688 -2.492188 1.046875 -3.953125 L 4.671875 -4.484375 C 4.867188 -3.734375 5.21875 -3.203125 5.71875 -2.890625 C 6.226562 -2.578125 7.101562 -2.421875 8.34375 -2.421875 C 9.5 -2.421875 10.335938 -2.566406 10.859375 -2.859375 C 11.390625 -3.160156 11.65625 -3.617188 11.65625 -4.234375 C 11.65625 -4.742188 11.441406 -5.144531 11.015625 -5.4375 C 10.597656 -5.738281 9.878906 -5.992188 8.859375 -6.203125 C 6.535156 -6.660156 4.96875 -7.085938 4.15625 -7.484375 C 3.351562 -7.878906 2.738281 -8.390625 2.3125 -9.015625 C 1.894531 -9.640625 1.6875 -10.410156 1.6875 -11.328125 C 1.6875 -12.847656 2.265625 -14.023438 3.421875 -14.859375 C 4.585938 -15.703125 6.238281 -16.125 8.375 -16.125 C 10.257812 -16.125 11.773438 -15.757812 12.921875 -15.03125 C 14.066406 -14.300781 14.78125 -13.242188 15.0625 -11.859375 L 11.421875 -11.484375 C 11.304688 -12.128906 11.019531 -12.609375 10.5625 -12.921875 C 10.101562 -13.234375 9.375 -13.390625 8.375 -13.390625 C 7.40625 -13.390625 6.675781 -13.265625 6.1875 -13.015625 C 5.695312 -12.773438 5.453125 -12.363281 5.453125 -11.78125 C 5.453125 -11.320312 5.640625 -10.957031 6.015625 -10.6875 C 6.390625 -10.414062 7.019531 -10.191406 7.90625 -10.015625 C 9.144531 -9.765625 10.242188 -9.503906 11.203125 -9.234375 C 12.171875 -8.960938 12.941406 -8.640625 13.515625 -8.265625 C 14.097656 -7.898438 14.5625 -7.425781 14.90625 -6.84375 C 15.257812 -6.269531 15.4375 -5.53125 15.4375 -4.625 Z M 15.4375 -4.625 "/></g></g><g transform="translate(532.43864, 510.331034)"><g><path d="M 15.4375 -4.625 C 15.4375 -3.09375 14.804688 -1.890625 13.546875 -1.015625 C 12.296875 -0.140625 10.5625 0.296875 8.34375 0.296875 C 6.175781 0.296875 4.515625 -0.046875 3.359375 -0.734375 C 2.203125 -1.421875 1.429688 -2.492188 1.046875 -3.953125 L 4.671875 -4.484375 C 4.867188 -3.734375 5.21875 -3.203125 5.71875 -2.890625 C 6.226562 -2.578125 7.101562 -2.421875 8.34375 -2.421875 C 9.5 -2.421875 10.335938 -2.566406 10.859375 -2.859375 C 11.390625 -3.160156 11.65625 -3.617188 11.65625 -4.234375 C 11.65625 -4.742188 11.441406 -5.144531 11.015625 -5.4375 C 10.597656 -5.738281 9.878906 -5.992188 8.859375 -6.203125 C 6.535156 -6.660156 4.96875 -7.085938 4.15625 -7.484375 C 3.351562 -7.878906 2.738281 -8.390625 2.3125 -9.015625 C 1.894531 -9.640625 1.6875 -10.410156 1.6875 -11.328125 C 1.6875 -12.847656 2.265625 -14.023438 3.421875 -14.859375 C 4.585938 -15.703125 6.238281 -16.125 8.375 -16.125 C 10.257812 -16.125 11.773438 -15.757812 12.921875 -15.03125 C 14.066406 -14.300781 14.78125 -13.242188 15.0625 -11.859375 L 11.421875 -11.484375 C 11.304688 -12.128906 11.019531 -12.609375 10.5625 -12.921875 C 10.101562 -13.234375 9.375 -13.390625 8.375 -13.390625 C 7.40625 -13.390625 6.675781 -13.265625 6.1875 -13.015625 C 5.695312 -12.773438 5.453125 -12.363281 5.453125 -11.78125 C 5.453125 -11.320312 5.640625 -10.957031 6.015625 -10.6875 C 6.390625 -10.414062 7.019531 -10.191406 7.90625 -10.015625 C 9.144531 -9.765625 10.242188 -9.503906 11.203125 -9.234375 C 12.171875 -8.960938 12.941406 -8.640625 13.515625 -8.265625 C 14.097656 -7.898438 14.5625 -7.425781 14.90625 -6.84375 C 15.257812 -6.269531 15.4375 -5.53125 15.4375 -4.625 Z M 15.4375 -4.625 "/></g></g></g><g fill="#808080" fill-opacity="1"><g transform="translate(634.338621, 360.170453)"><g><path d="M 2.984375 -29.5625 L 2.984375 -37.390625 L 39.03125 -37.390625 L 39.03125 -29.5625 Z M 2.984375 -10.21875 L 2.984375 -17.96875 L 39.03125 -17.96875 L 39.03125 -10.21875 Z M 2.984375 -10.21875 "/></g></g></g><g clip-path="url(#518101acab)"><path fill="#d9d9d9" d="M 1242.414062 210.824219 L 1410.167969 210.824219 L 1410.167969 271.484375 L 1242.414062 271.484375 Z M 1242.414062 210.824219 " fill-opacity="1" fill-rule="nonzero"/></g><g fill="#808080" fill-opacity="1"><g transform="translate(1315.655031, 250.515727)"><g><path d="M 11.625 -3.09375 C 14.226562 -3.09375 16.035156 -4.398438 17.046875 -7.015625 L 20.8125 -5.609375 C 20 -3.617188 18.8125 -2.132812 17.25 -1.15625 C 15.6875 -0.1875 13.8125 0.296875 11.625 0.296875 C 8.3125 0.296875 5.75 -0.640625 3.9375 -2.515625 C 2.132812 -4.398438 1.234375 -7.03125 1.234375 -10.40625 C 1.234375 -13.78125 2.101562 -16.375 3.84375 -18.1875 C 5.59375 -20.007812 8.125 -20.921875 11.4375 -20.921875 C 13.851562 -20.921875 15.820312 -20.429688 17.34375 -19.453125 C 18.863281 -18.484375 19.929688 -17.0625 20.546875 -15.1875 L 16.75 -14.140625 C 16.425781 -15.171875 15.789062 -15.988281 14.84375 -16.59375 C 13.90625 -17.207031 12.800781 -17.515625 11.53125 -17.515625 C 9.570312 -17.515625 8.085938 -16.910156 7.078125 -15.703125 C 6.078125 -14.492188 5.578125 -12.726562 5.578125 -10.40625 C 5.578125 -8.03125 6.09375 -6.21875 7.125 -4.96875 C 8.164062 -3.71875 9.664062 -3.09375 11.625 -3.09375 Z M 11.625 -3.09375 "/></g></g></g><g clip-path="url(#0ac5893f23)"><g mask="url(#aee051a108)"><g transform="matrix(1, 0, 0, 1, 1242, 278)"><g clip-path="url(#beaa896a83)"><g clip-path="url(#9567fb471f)"><path fill="#03e313" d="M 0.414062 0.59375 L 168.167969 0.59375 L 168.167969 61.253906 L 0.414062 61.253906 Z M 0.414062 0.59375 " fill-opacity="1" fill-rule="nonzero"/></g></g></g></g></g><g fill="#808080" fill-opacity="1"><g transform="translate(1289.841712, 318.28337)"><g><path d="M 16.15625 0 L 11.375 -7.828125 L 6.3125 -7.828125 L 6.3125 0 L 2 0 L 2 -20.609375 L 12.296875 -20.609375 C 14.753906 -20.609375 16.648438 -20.078125 17.984375 -19.015625 C 19.328125 -17.960938 20 -16.445312 20 -14.46875 C 20 -13.019531 19.585938 -11.769531 18.765625 -10.71875 C 17.941406 -9.675781 16.832031 -8.988281 15.4375 -8.65625 L 21.015625 0 Z M 15.65625 -14.296875 C 15.65625 -16.273438 14.382812 -17.265625 11.84375 -17.265625 L 6.3125 -17.265625 L 6.3125 -11.171875 L 11.96875 -11.171875 C 13.175781 -11.171875 14.09375 -11.441406 14.71875 -11.984375 C 15.34375 -12.535156 15.65625 -13.304688 15.65625 -14.296875 Z M 15.65625 -14.296875 "/></g></g><g transform="translate(1311.474701, 318.28337)"><g><path d="M 17.125 -7.921875 C 17.125 -5.359375 16.410156 -3.347656 14.984375 -1.890625 C 13.566406 -0.429688 11.597656 0.296875 9.078125 0.296875 C 6.609375 0.296875 4.671875 -0.429688 3.265625 -1.890625 C 1.867188 -3.359375 1.171875 -5.367188 1.171875 -7.921875 C 1.171875 -10.472656 1.867188 -12.476562 3.265625 -13.9375 C 4.671875 -15.394531 6.640625 -16.125 9.171875 -16.125 C 11.753906 -16.125 13.722656 -15.414062 15.078125 -14 C 16.441406 -12.59375 17.125 -10.566406 17.125 -7.921875 Z M 12.828125 -7.921875 C 12.828125 -9.804688 12.519531 -11.171875 11.90625 -12.015625 C 11.289062 -12.867188 10.398438 -13.296875 9.234375 -13.296875 C 6.734375 -13.296875 5.484375 -11.503906 5.484375 -7.921875 C 5.484375 -6.160156 5.785156 -4.816406 6.390625 -3.890625 C 7.003906 -2.972656 7.882812 -2.515625 9.03125 -2.515625 C 11.5625 -2.515625 12.828125 -4.316406 12.828125 -7.921875 Z M 12.828125 -7.921875 "/></g></g><g transform="translate(1329.772787, 318.28337)"><g><path d="M 15.4375 -4.625 C 15.4375 -3.09375 14.804688 -1.890625 13.546875 -1.015625 C 12.296875 -0.140625 10.5625 0.296875 8.34375 0.296875 C 6.175781 0.296875 4.515625 -0.046875 3.359375 -0.734375 C 2.203125 -1.421875 1.429688 -2.492188 1.046875 -3.953125 L 4.671875 -4.484375 C 4.867188 -3.734375 5.21875 -3.203125 5.71875 -2.890625 C 6.226562 -2.578125 7.101562 -2.421875 8.34375 -2.421875 C 9.5 -2.421875 10.335938 -2.566406 10.859375 -2.859375 C 11.390625 -3.160156 11.65625 -3.617188 11.65625 -4.234375 C 11.65625 -4.742188 11.441406 -5.144531 11.015625 -5.4375 C 10.597656 -5.738281 9.878906 -5.992188 8.859375 -6.203125 C 6.535156 -6.660156 4.96875 -7.085938 4.15625 -7.484375 C 3.351562 -7.878906 2.738281 -8.390625 2.3125 -9.015625 C 1.894531 -9.640625 1.6875 -10.410156 1.6875 -11.328125 C 1.6875 -12.847656 2.265625 -14.023438 3.421875 -14.859375 C 4.585938 -15.703125 6.238281 -16.125 8.375 -16.125 C 10.257812 -16.125 11.773438 -15.757812 12.921875 -15.03125 C 14.066406 -14.300781 14.78125 -13.242188 15.0625 -11.859375 L 11.421875 -11.484375 C 11.304688 -12.128906 11.019531 -12.609375 10.5625 -12.921875 C 10.101562 -13.234375 9.375 -13.390625 8.375 -13.390625 C 7.40625 -13.390625 6.675781 -13.265625 6.1875 -13.015625 C 5.695312 -12.773438 5.453125 -12.363281 5.453125 -11.78125 C 5.453125 -11.320312 5.640625 -10.957031 6.015625 -10.6875 C 6.390625 -10.414062 7.019531 -10.191406 7.90625 -10.015625 C 9.144531 -9.765625 10.242188 -9.503906 11.203125 -9.234375 C 12.171875 -8.960938 12.941406 -8.640625 13.515625 -8.265625 C 14.097656 -7.898438 14.5625 -7.425781 14.90625 -6.84375 C 15.257812 -6.269531 15.4375 -5.53125 15.4375 -4.625 Z M 15.4375 -4.625 "/></g></g><g transform="translate(1346.432675, 318.28337)"><g><path d="M 15.4375 -4.625 C 15.4375 -3.09375 14.804688 -1.890625 13.546875 -1.015625 C 12.296875 -0.140625 10.5625 0.296875 8.34375 0.296875 C 6.175781 0.296875 4.515625 -0.046875 3.359375 -0.734375 C 2.203125 -1.421875 1.429688 -2.492188 1.046875 -3.953125 L 4.671875 -4.484375 C 4.867188 -3.734375 5.21875 -3.203125 5.71875 -2.890625 C 6.226562 -2.578125 7.101562 -2.421875 8.34375 -2.421875 C 9.5 -2.421875 10.335938 -2.566406 10.859375 -2.859375 C 11.390625 -3.160156 11.65625 -3.617188 11.65625 -4.234375 C 11.65625 -4.742188 11.441406 -5.144531 11.015625 -5.4375 C 10.597656 -5.738281 9.878906 -5.992188 8.859375 -6.203125 C 6.535156 -6.660156 4.96875 -7.085938 4.15625 -7.484375 C 3.351562 -7.878906 2.738281 -8.390625 2.3125 -9.015625 C 1.894531 -9.640625 1.6875 -10.410156 1.6875 -11.328125 C 1.6875 -12.847656 2.265625 -14.023438 3.421875 -14.859375 C 4.585938 -15.703125 6.238281 -16.125 8.375 -16.125 C 10.257812 -16.125 11.773438 -15.757812 12.921875 -15.03125 C 14.066406 -14.300781 14.78125 -13.242188 15.0625 -11.859375 L 11.421875 -11.484375 C 11.304688 -12.128906 11.019531 -12.609375 10.5625 -12.921875 C 10.101562 -13.234375 9.375 -13.390625 8.375 -13.390625 C 7.40625 -13.390625 6.675781 -13.265625 6.1875 -13.015625 C 5.695312 -12.773438 5.453125 -12.363281 5.453125 -11.78125 C 5.453125 -11.320312 5.640625 -10.957031 6.015625 -10.6875 C 6.390625 -10.414062 7.019531 -10.191406 7.90625 -10.015625 C 9.144531 -9.765625 10.242188 -9.503906 11.203125 -9.234375 C 12.171875 -8.960938 12.941406 -8.640625 13.515625 -8.265625 C 14.097656 -7.898438 14.5625 -7.425781 14.90625 -6.84375 C 15.257812 -6.269531 15.4375 -5.53125 15.4375 -4.625 Z M 15.4375 -4.625 "/></g></g></g><g clip-path="url(#584284f759)"><path fill="#f2f2f2" d="M 1242.414062 346.359375 L 1410.167969 346.359375 L 1410.167969 407.019531 L 1242.414062 407.019531 Z M 1242.414062 346.359375 " fill-opacity="1" fill-rule="nonzero"/></g></svg>