<svg xmlns="http://www.w3.org/2000/svg" xmlns:xlink="http://www.w3.org/1999/xlink" width="835" zoomAndPan="magnify" viewBox="0 0 626.25 449.249995" height="599" preserveAspectRatio="xMidYMid meet" version="1.0"><defs><filter x="0%" y="0%" width="100%" height="100%" id="5447bd31a1"><feColorMatrix values="0 0 0 0 1 0 0 0 0 1 0 0 0 0 1 0 0 0 1 0" color-interpolation-filters="sRGB"/></filter><g/><clipPath id="65e66c883d"><path d="M 95.457031 75.085938 L 210.234375 75.085938 L 210.234375 116.402344 L 95.457031 116.402344 Z M 95.457031 75.085938 " clip-rule="nonzero"/></clipPath><clipPath id="cbb6763f25"><path d="M 214.480469 75.085938 L 320.613281 75.085938 L 320.613281 116.402344 L 214.480469 116.402344 Z M 214.480469 75.085938 " clip-rule="nonzero"/></clipPath><clipPath id="9df1157b6d"><path d="M 104.097656 120.980469 L 210.234375 120.980469 L 210.234375 159.191406 L 104.097656 159.191406 Z M 104.097656 120.980469 " clip-rule="nonzero"/></clipPath><clipPath id="7cc85c9c16"><path d="M 214.480469 120.980469 L 320.613281 120.980469 L 320.613281 159.191406 L 214.480469 159.191406 Z M 214.480469 120.980469 " clip-rule="nonzero"/></clipPath><clipPath id="49bbc0016b"><path d="M 324.859375 75.085938 L 430.992188 75.085938 L 430.992188 116.402344 L 324.859375 116.402344 Z M 324.859375 75.085938 " clip-rule="nonzero"/></clipPath><clipPath id="542ff4c29a"><path d="M 435.238281 75.085938 L 550 75.085938 L 550 116.402344 L 435.238281 116.402344 Z M 435.238281 75.085938 " clip-rule="nonzero"/></clipPath><clipPath id="251785c004"><path d="M 324.859375 120.980469 L 430.992188 120.980469 L 430.992188 159.191406 L 324.859375 159.191406 Z M 324.859375 120.980469 " clip-rule="nonzero"/></clipPath><clipPath id="cc6ef08233"><path d="M 435.238281 120.980469 L 541.371094 120.980469 L 541.371094 159.191406 L 435.238281 159.191406 Z M 435.238281 120.980469 " clip-rule="nonzero"/></clipPath><clipPath id="5d884c2c33"><path d="M 104.097656 163.765625 L 210.234375 163.765625 L 210.234375 201.972656 L 104.097656 201.972656 Z M 104.097656 163.765625 " clip-rule="nonzero"/></clipPath><clipPath id="c07adb33a0"><path d="M 214.480469 163.765625 L 320.613281 163.765625 L 320.613281 201.972656 L 214.480469 201.972656 Z M 214.480469 163.765625 " clip-rule="nonzero"/></clipPath><clipPath id="c30db87028"><path d="M 104.097656 206.546875 L 210.234375 206.546875 L 210.234375 244.757812 L 104.097656 244.757812 Z M 104.097656 206.546875 " clip-rule="nonzero"/></clipPath><clipPath id="86674e6eae"><path d="M 214.480469 206.546875 L 320.613281 206.546875 L 320.613281 244.757812 L 214.480469 244.757812 Z M 214.480469 206.546875 " clip-rule="nonzero"/></clipPath><clipPath id="5d0d0cb3ca"><path d="M 324.859375 163.765625 L 430.992188 163.765625 L 430.992188 201.972656 L 324.859375 201.972656 Z M 324.859375 163.765625 " clip-rule="nonzero"/></clipPath><clipPath id="63c4866769"><path d="M 435.238281 163.765625 L 541.371094 163.765625 L 541.371094 201.972656 L 435.238281 201.972656 Z M 435.238281 163.765625 " clip-rule="nonzero"/></clipPath><clipPath id="3cb2420a47"><path d="M 324.859375 206.546875 L 430.992188 206.546875 L 430.992188 244.757812 L 324.859375 244.757812 Z M 324.859375 206.546875 " clip-rule="nonzero"/></clipPath><clipPath id="acb6ecbe75"><path d="M 435.238281 206.546875 L 541.371094 206.546875 L 541.371094 244.757812 L 435.238281 244.757812 Z M 435.238281 206.546875 " clip-rule="nonzero"/></clipPath><clipPath id="6dd082c3a3"><path d="M 104.097656 249.332031 L 210.234375 249.332031 L 210.234375 287.542969 L 104.097656 287.542969 Z M 104.097656 249.332031 " clip-rule="nonzero"/></clipPath><mask id="e5f365c50a"><g filter="url(#5447bd31a1)"><rect x="-62.625" width="751.5" fill="#000000" y="-44.924999" height="539.099994" fill-opacity="0.498"/></g></mask><clipPath id="d809877cfb"><path d="M 0.0976562 0.332031 L 106.234375 0.332031 L 106.234375 38.542969 L 0.0976562 38.542969 Z M 0.0976562 0.332031 " clip-rule="nonzero"/></clipPath><clipPath id="019e9c1d0b"><rect x="0" width="107" y="0" height="39"/></clipPath><clipPath id="f13497e139"><path d="M 214.480469 249.332031 L 320.613281 249.332031 L 320.613281 287.542969 L 214.480469 287.542969 Z M 214.480469 249.332031 " clip-rule="nonzero"/></clipPath><mask id="cbb2ea06da"><g filter="url(#5447bd31a1)"><rect x="-62.625" width="751.5" fill="#000000" y="-44.924999" height="539.099994" fill-opacity="0.349"/></g></mask><clipPath id="327adf0fdb"><path d="M 0.480469 0.332031 L 106.613281 0.332031 L 106.613281 38.542969 L 0.480469 38.542969 Z M 0.480469 0.332031 " clip-rule="nonzero"/></clipPath><clipPath id="358cc804c9"><rect x="0" width="107" y="0" height="39"/></clipPath><clipPath id="5fc3ebdbfb"><path d="M 324.859375 249.332031 L 430.992188 249.332031 L 430.992188 287.542969 L 324.859375 287.542969 Z M 324.859375 249.332031 " clip-rule="nonzero"/></clipPath><mask id="c6c43b7560"><g filter="url(#5447bd31a1)"><rect x="-62.625" width="751.5" fill="#000000" y="-44.924999" height="539.099994" fill-opacity="0.349"/></g></mask><clipPath id="f2facaca66"><path d="M 0.859375 0.332031 L 106.992188 0.332031 L 106.992188 38.542969 L 0.859375 38.542969 Z M 0.859375 0.332031 " clip-rule="nonzero"/></clipPath><clipPath id="4801d233a4"><rect x="0" width="107" y="0" height="39"/></clipPath><clipPath id="f984b70d87"><path d="M 435.238281 249.332031 L 541.371094 249.332031 L 541.371094 287.542969 L 435.238281 287.542969 Z M 435.238281 249.332031 " clip-rule="nonzero"/></clipPath><mask id="c68d978db7"><g filter="url(#5447bd31a1)"><rect x="-62.625" width="751.5" fill="#000000" y="-44.924999" height="539.099994" fill-opacity="0.349"/></g></mask><clipPath id="788597a1ad"><path d="M 0.238281 0.332031 L 106.371094 0.332031 L 106.371094 38.542969 L 0.238281 38.542969 Z M 0.238281 0.332031 " clip-rule="nonzero"/></clipPath><clipPath id="ebd51fc6c5"><rect x="0" width="107" y="0" height="39"/></clipPath><clipPath id="a994067e4f"><path d="M 104.097656 292.117188 L 210.234375 292.117188 L 210.234375 330.324219 L 104.097656 330.324219 Z M 104.097656 292.117188 " clip-rule="nonzero"/></clipPath><mask id="52ab4d68d6"><g filter="url(#5447bd31a1)"><rect x="-62.625" width="751.5" fill="#000000" y="-44.924999" height="539.099994" fill-opacity="0.498"/></g></mask><clipPath id="8c5d66acf9"><path d="M 0.0976562 0.117188 L 106.234375 0.117188 L 106.234375 38.324219 L 0.0976562 38.324219 Z M 0.0976562 0.117188 " clip-rule="nonzero"/></clipPath><clipPath id="0792362ef0"><rect x="0" width="107" y="0" height="39"/></clipPath><clipPath id="a9b5942e4a"><path d="M 214.480469 292.117188 L 320.613281 292.117188 L 320.613281 330.324219 L 214.480469 330.324219 Z M 214.480469 292.117188 " clip-rule="nonzero"/></clipPath><mask id="ab56d7ef44"><g filter="url(#5447bd31a1)"><rect x="-62.625" width="751.5" fill="#000000" y="-44.924999" height="539.099994" fill-opacity="0.349"/></g></mask><clipPath id="9b5ad9e43b"><path d="M 0.480469 0.117188 L 106.613281 0.117188 L 106.613281 38.324219 L 0.480469 38.324219 Z M 0.480469 0.117188 " clip-rule="nonzero"/></clipPath><clipPath id="326e9b0b30"><rect x="0" width="107" y="0" height="39"/></clipPath><clipPath id="d89fb14a30"><path d="M 324.859375 292.117188 L 430.992188 292.117188 L 430.992188 330.324219 L 324.859375 330.324219 Z M 324.859375 292.117188 " clip-rule="nonzero"/></clipPath><mask id="58010465a8"><g filter="url(#5447bd31a1)"><rect x="-62.625" width="751.5" fill="#000000" y="-44.924999" height="539.099994" fill-opacity="0.349"/></g></mask><clipPath id="2c4ad99a49"><path d="M 0.859375 0.117188 L 106.992188 0.117188 L 106.992188 38.324219 L 0.859375 38.324219 Z M 0.859375 0.117188 " clip-rule="nonzero"/></clipPath><clipPath id="da30c8d5db"><rect x="0" width="107" y="0" height="39"/></clipPath><clipPath id="aeba440b9a"><path d="M 435.238281 292.117188 L 541.371094 292.117188 L 541.371094 330.324219 L 435.238281 330.324219 Z M 435.238281 292.117188 " clip-rule="nonzero"/></clipPath><mask id="27160a3a1a"><g filter="url(#5447bd31a1)"><rect x="-62.625" width="751.5" fill="#000000" y="-44.924999" height="539.099994" fill-opacity="0.349"/></g></mask><clipPath id="a9815e98dc"><path d="M 0.238281 0.117188 L 106.371094 0.117188 L 106.371094 38.324219 L 0.238281 38.324219 Z M 0.238281 0.117188 " clip-rule="nonzero"/></clipPath><clipPath id="2445e1a732"><rect x="0" width="107" y="0" height="39"/></clipPath><clipPath id="bf0d5661bc"><path d="M 104.097656 334.898438 L 210.234375 334.898438 L 210.234375 373.109375 L 104.097656 373.109375 Z M 104.097656 334.898438 " clip-rule="nonzero"/></clipPath><mask id="bcccb9b0c8"><g filter="url(#5447bd31a1)"><rect x="-62.625" width="751.5" fill="#000000" y="-44.924999" height="539.099994" fill-opacity="0.498"/></g></mask><clipPath id="5c09718243"><path d="M 0.0976562 0.898438 L 106.234375 0.898438 L 106.234375 39.109375 L 0.0976562 39.109375 Z M 0.0976562 0.898438 " clip-rule="nonzero"/></clipPath><clipPath id="5d75ecca85"><rect x="0" width="107" y="0" height="40"/></clipPath><clipPath id="16a68b3a0e"><path d="M 214.480469 334.898438 L 320.613281 334.898438 L 320.613281 373.109375 L 214.480469 373.109375 Z M 214.480469 334.898438 " clip-rule="nonzero"/></clipPath><mask id="cf921de448"><g filter="url(#5447bd31a1)"><rect x="-62.625" width="751.5" fill="#000000" y="-44.924999" height="539.099994" fill-opacity="0.349"/></g></mask><clipPath id="94edc655a1"><path d="M 0.480469 0.898438 L 106.613281 0.898438 L 106.613281 39.109375 L 0.480469 39.109375 Z M 0.480469 0.898438 " clip-rule="nonzero"/></clipPath><clipPath id="fe2df5186a"><rect x="0" width="107" y="0" height="40"/></clipPath><clipPath id="4856cc457f"><path d="M 324.859375 334.898438 L 430.992188 334.898438 L 430.992188 373.109375 L 324.859375 373.109375 Z M 324.859375 334.898438 " clip-rule="nonzero"/></clipPath><mask id="cee306bf67"><g filter="url(#5447bd31a1)"><rect x="-62.625" width="751.5" fill="#000000" y="-44.924999" height="539.099994" fill-opacity="0.349"/></g></mask><clipPath id="1b59651de4"><path d="M 0.859375 0.898438 L 106.992188 0.898438 L 106.992188 39.109375 L 0.859375 39.109375 Z M 0.859375 0.898438 " clip-rule="nonzero"/></clipPath><clipPath id="903407542e"><rect x="0" width="107" y="0" height="40"/></clipPath><clipPath id="8a281ae839"><path d="M 435.238281 334.898438 L 541.371094 334.898438 L 541.371094 373.109375 L 435.238281 373.109375 Z M 435.238281 334.898438 " clip-rule="nonzero"/></clipPath><mask id="25924dc388"><g filter="url(#5447bd31a1)"><rect x="-62.625" width="751.5" fill="#000000" y="-44.924999" height="539.099994" fill-opacity="0.349"/></g></mask><clipPath id="7ff63caebe"><path d="M 0.238281 0.898438 L 106.371094 0.898438 L 106.371094 39.109375 L 0.238281 39.109375 Z M 0.238281 0.898438 " clip-rule="nonzero"/></clipPath><clipPath id="d5ba6fae33"><rect x="0" width="107" y="0" height="40"/></clipPath></defs><g clip-path="url(#65e66c883d)"><path fill="#d9d9d9" d="M 95.457031 75.085938 L 210.015625 75.085938 L 210.015625 116.269531 L 95.457031 116.269531 Z M 95.457031 75.085938 " fill-opacity="1" fill-rule="nonzero"/></g><g clip-path="url(#cbb6763f25)"><path fill="#d9d9d9" d="M 214.480469 75.085938 L 320.800781 75.085938 L 320.800781 116.269531 L 214.480469 116.269531 Z M 214.480469 75.085938 " fill-opacity="1" fill-rule="nonzero"/></g><g clip-path="url(#9df1157b6d)"><path fill="#d9d9d9" d="M 104.097656 120.980469 L 210.421875 120.980469 L 210.421875 159.167969 L 104.097656 159.167969 Z M 104.097656 120.980469 " fill-opacity="1" fill-rule="nonzero"/></g><g clip-path="url(#7cc85c9c16)"><path fill="#f2f2f2" d="M 214.480469 120.980469 L 320.800781 120.980469 L 320.800781 159.167969 L 214.480469 159.167969 Z M 214.480469 120.980469 " fill-opacity="1" fill-rule="nonzero"/></g><g clip-path="url(#49bbc0016b)"><path fill="#d9d9d9" d="M 324.859375 75.085938 L 431.179688 75.085938 L 431.179688 116.269531 L 324.859375 116.269531 Z M 324.859375 75.085938 " fill-opacity="1" fill-rule="nonzero"/></g><g clip-path="url(#542ff4c29a)"><path fill="#d9d9d9" d="M 435.238281 75.085938 L 549.796875 75.085938 L 549.796875 116.269531 L 435.238281 116.269531 Z M 435.238281 75.085938 " fill-opacity="1" fill-rule="nonzero"/></g><g clip-path="url(#251785c004)"><path fill="#f2f2f2" d="M 324.859375 120.980469 L 431.179688 120.980469 L 431.179688 159.167969 L 324.859375 159.167969 Z M 324.859375 120.980469 " fill-opacity="1" fill-rule="nonzero"/></g><g clip-path="url(#cc6ef08233)"><path fill="#f2f2f2" d="M 435.238281 120.980469 L 541.558594 120.980469 L 541.558594 159.167969 L 435.238281 159.167969 Z M 435.238281 120.980469 " fill-opacity="1" fill-rule="nonzero"/></g><g clip-path="url(#5d884c2c33)"><path fill="#d9d9d9" d="M 104.097656 163.765625 L 210.421875 163.765625 L 210.421875 201.953125 L 104.097656 201.953125 Z M 104.097656 163.765625 " fill-opacity="1" fill-rule="nonzero"/></g><g clip-path="url(#c07adb33a0)"><path fill="#f2f2f2" d="M 214.480469 163.765625 L 320.800781 163.765625 L 320.800781 201.953125 L 214.480469 201.953125 Z M 214.480469 163.765625 " fill-opacity="1" fill-rule="nonzero"/></g><g clip-path="url(#c30db87028)"><path fill="#d9d9d9" d="M 104.097656 206.546875 L 210.421875 206.546875 L 210.421875 244.734375 L 104.097656 244.734375 Z M 104.097656 206.546875 " fill-opacity="1" fill-rule="nonzero"/></g><g clip-path="url(#86674e6eae)"><path fill="#f2f2f2" d="M 214.480469 206.546875 L 320.800781 206.546875 L 320.800781 244.734375 L 214.480469 244.734375 Z M 214.480469 206.546875 " fill-opacity="1" fill-rule="nonzero"/></g><g clip-path="url(#5d0d0cb3ca)"><path fill="#f2f2f2" d="M 324.859375 163.765625 L 431.179688 163.765625 L 431.179688 201.953125 L 324.859375 201.953125 Z M 324.859375 163.765625 " fill-opacity="1" fill-rule="nonzero"/></g><g clip-path="url(#63c4866769)"><path fill="#f2f2f2" d="M 435.238281 163.765625 L 541.558594 163.765625 L 541.558594 201.953125 L 435.238281 201.953125 Z M 435.238281 163.765625 " fill-opacity="1" fill-rule="nonzero"/></g><g clip-path="url(#3cb2420a47)"><path fill="#f2f2f2" d="M 324.859375 206.546875 L 431.179688 206.546875 L 431.179688 244.734375 L 324.859375 244.734375 Z M 324.859375 206.546875 " fill-opacity="1" fill-rule="nonzero"/></g><g clip-path="url(#acb6ecbe75)"><path fill="#f2f2f2" d="M 435.238281 206.546875 L 541.558594 206.546875 L 541.558594 244.734375 L 435.238281 244.734375 Z M 435.238281 206.546875 " fill-opacity="1" fill-rule="nonzero"/></g><g clip-path="url(#6dd082c3a3)"><g mask="url(#e5f365c50a)"><g transform="matrix(1, 0, 0, 1, 104, 249)"><g clip-path="url(#019e9c1d0b)"><g clip-path="url(#d809877cfb)"><path fill="#03e313" d="M 0.0976562 0.332031 L 106.421875 0.332031 L 106.421875 38.519531 L 0.0976562 38.519531 Z M 0.0976562 0.332031 " fill-opacity="1" fill-rule="nonzero"/></g></g></g></g></g><g clip-path="url(#f13497e139)"><g mask="url(#cbb2ea06da)"><g transform="matrix(1, 0, 0, 1, 214, 249)"><g clip-path="url(#358cc804c9)"><g clip-path="url(#327adf0fdb)"><path fill="#03e313" d="M 0.480469 0.332031 L 106.800781 0.332031 L 106.800781 38.519531 L 0.480469 38.519531 Z M 0.480469 0.332031 " fill-opacity="1" fill-rule="nonzero"/></g></g></g></g></g><g clip-path="url(#5fc3ebdbfb)"><g mask="url(#c6c43b7560)"><g transform="matrix(1, 0, 0, 1, 324, 249)"><g clip-path="url(#4801d233a4)"><g clip-path="url(#f2facaca66)"><path fill="#03e313" d="M 0.859375 0.332031 L 107.179688 0.332031 L 107.179688 38.519531 L 0.859375 38.519531 Z M 0.859375 0.332031 " fill-opacity="1" fill-rule="nonzero"/></g></g></g></g></g><g clip-path="url(#f984b70d87)"><g mask="url(#c68d978db7)"><g transform="matrix(1, 0, 0, 1, 435, 249)"><g clip-path="url(#ebd51fc6c5)"><g clip-path="url(#788597a1ad)"><path fill="#03e313" d="M 0.238281 0.332031 L 106.558594 0.332031 L 106.558594 38.519531 L 0.238281 38.519531 Z M 0.238281 0.332031 " fill-opacity="1" fill-rule="nonzero"/></g></g></g></g></g><g clip-path="url(#a994067e4f)"><g mask="url(#52ab4d68d6)"><g transform="matrix(1, 0, 0, 1, 104, 292)"><g clip-path="url(#0792362ef0)"><g clip-path="url(#8c5d66acf9)"><path fill="#03e313" d="M 0.0976562 0.117188 L 106.421875 0.117188 L 106.421875 38.300781 L 0.0976562 38.300781 Z M 0.0976562 0.117188 " fill-opacity="1" fill-rule="nonzero"/></g></g></g></g></g><g clip-path="url(#a9b5942e4a)"><g mask="url(#ab56d7ef44)"><g transform="matrix(1, 0, 0, 1, 214, 292)"><g clip-path="url(#326e9b0b30)"><g clip-path="url(#9b5ad9e43b)"><path fill="#03e313" d="M 0.480469 0.117188 L 106.800781 0.117188 L 106.800781 38.300781 L 0.480469 38.300781 Z M 0.480469 0.117188 " fill-opacity="1" fill-rule="nonzero"/></g></g></g></g></g><g clip-path="url(#d89fb14a30)"><g mask="url(#58010465a8)"><g transform="matrix(1, 0, 0, 1, 324, 292)"><g clip-path="url(#da30c8d5db)"><g clip-path="url(#2c4ad99a49)"><path fill="#03e313" d="M 0.859375 0.117188 L 107.179688 0.117188 L 107.179688 38.300781 L 0.859375 38.300781 Z M 0.859375 0.117188 " fill-opacity="1" fill-rule="nonzero"/></g></g></g></g></g><g clip-path="url(#aeba440b9a)"><g mask="url(#27160a3a1a)"><g transform="matrix(1, 0, 0, 1, 435, 292)"><g clip-path="url(#2445e1a732)"><g clip-path="url(#a9815e98dc)"><path fill="#03e313" d="M 0.238281 0.117188 L 106.558594 0.117188 L 106.558594 38.300781 L 0.238281 38.300781 Z M 0.238281 0.117188 " fill-opacity="1" fill-rule="nonzero"/></g></g></g></g></g><g clip-path="url(#bf0d5661bc)"><g mask="url(#bcccb9b0c8)"><g transform="matrix(1, 0, 0, 1, 104, 334)"><g clip-path="url(#5d75ecca85)"><g clip-path="url(#5c09718243)"><path fill="#03e313" d="M 0.0976562 0.898438 L 106.421875 0.898438 L 106.421875 39.085938 L 0.0976562 39.085938 Z M 0.0976562 0.898438 " fill-opacity="1" fill-rule="nonzero"/></g></g></g></g></g><g clip-path="url(#16a68b3a0e)"><g mask="url(#cf921de448)"><g transform="matrix(1, 0, 0, 1, 214, 334)"><g clip-path="url(#fe2df5186a)"><g clip-path="url(#94edc655a1)"><path fill="#03e313" d="M 0.480469 0.898438 L 106.800781 0.898438 L 106.800781 39.085938 L 0.480469 39.085938 Z M 0.480469 0.898438 " fill-opacity="1" fill-rule="nonzero"/></g></g></g></g></g><g clip-path="url(#4856cc457f)"><g mask="url(#cee306bf67)"><g transform="matrix(1, 0, 0, 1, 324, 334)"><g clip-path="url(#903407542e)"><g clip-path="url(#1b59651de4)"><path fill="#03e313" d="M 0.859375 0.898438 L 107.179688 0.898438 L 107.179688 39.085938 L 0.859375 39.085938 Z M 0.859375 0.898438 " fill-opacity="1" fill-rule="nonzero"/></g></g></g></g></g><g clip-path="url(#8a281ae839)"><g mask="url(#25924dc388)"><g transform="matrix(1, 0, 0, 1, 435, 334)"><g clip-path="url(#d5ba6fae33)"><g clip-path="url(#7ff63caebe)"><path fill="#03e313" d="M 0.238281 0.898438 L 106.558594 0.898438 L 106.558594 39.085938 L 0.238281 39.085938 Z M 0.238281 0.898438 " fill-opacity="1" fill-rule="nonzero"/></g></g></g></g></g><g fill="#808080" fill-opacity="1"><g transform="translate(75.660101, 321.228571)"><g><path d="M 14.34375 0 L 14.34375 -11.921875 C 14.34375 -13.160156 14.21875 -14.117188 13.96875 -14.796875 C 13.726562 -15.484375 13.34375 -15.976562 12.8125 -16.28125 C 12.28125 -16.582031 11.5 -16.734375 10.46875 -16.734375 C 8.957031 -16.734375 7.765625 -16.21875 6.890625 -15.1875 C 6.023438 -14.15625 5.59375 -12.722656 5.59375 -10.890625 L 5.59375 0 L 2.46875 0 L 2.46875 -14.796875 C 2.46875 -16.984375 2.429688 -18.320312 2.359375 -18.8125 L 5.3125 -18.8125 C 5.320312 -18.75 5.332031 -18.585938 5.34375 -18.328125 C 5.363281 -18.078125 5.378906 -17.785156 5.390625 -17.453125 C 5.410156 -17.128906 5.429688 -16.507812 5.453125 -15.59375 L 5.515625 -15.59375 C 6.234375 -16.882812 7.0625 -17.800781 8 -18.34375 C 8.945312 -18.882812 10.117188 -19.15625 11.515625 -19.15625 C 13.578125 -19.15625 15.085938 -18.640625 16.046875 -17.609375 C 17.003906 -16.585938 17.484375 -14.894531 17.484375 -12.53125 L 17.484375 0 Z M 14.34375 0 "/></g></g></g></svg>