<svg width="688" height="410" xmlns="http://www.w3.org/2000/svg" xmlns:xlink="http://www.w3.org/1999/xlink" overflow="hidden"><defs><clipPath id="clip0"><rect x="295" y="157" width="688" height="410"/></clipPath></defs><g clip-path="url(#clip0)" transform="translate(-295 -157)"><path d="M777.856 564C729.013 564 684.216 546.69 649.274 517.873L639 508.542 643.081 504.836C679.662 468.281 702.288 417.781 702.288 362 702.288 306.219 679.662 255.719 643.081 219.164L639 215.458 649.274 206.127C684.216 177.311 729.013 160 777.856 160 889.497 160 980 250.438 980 362 980 473.562 889.497 564 777.856 564Z" stroke="#000000" stroke-width="4" stroke-miterlimit="8" fill="none" fill-rule="evenodd"/><text fill="#FFFFFF" font-family="DengXian,DengXian_MSFontService,sans-serif" font-weight="400" font-size="48" transform="matrix(-1 1.22465e-16 -1.22465e-16 -1 847.538 374)">Left<tspan x="-19" y="57">Table</tspan></text><path d="M639 509 634.937 505.282C598.523 468.613 576 417.955 576 362 576 306.045 598.523 255.387 634.937 218.718L639 215 643.063 218.718C679.477 255.387 702 306.045 702 362 702 417.955 679.477 468.613 643.063 505.282Z" stroke="#000000" stroke-width="4" stroke-miterlimit="8" fill="#0275D8" fill-rule="evenodd"/><path d="M500.144 160C548.987 160 593.784 177.311 628.726 206.127L639 215.458 634.919 219.164C598.338 255.719 575.712 306.219 575.712 362 575.712 417.781 598.338 468.281 634.919 504.836L639 508.542 628.726 517.873C593.784 546.689 548.987 564 500.144 564 388.503 564 298 473.562 298 362 298 250.438 388.503 160 500.144 160Z" stroke="#000000" stroke-width="4" stroke-miterlimit="8" fill="#0275D8" fill-rule="evenodd"/></g></svg>