<svg width="688" height="410" xmlns="http://www.w3.org/2000/svg" xmlns:xlink="http://www.w3.org/1999/xlink" overflow="hidden"><defs><clipPath id="clip0"><rect x="295" y="157" width="688" height="410"/></clipPath></defs><g clip-path="url(#clip0)" transform="translate(-295 -157)"><path d="M777.856 564C729.013 564 684.216 546.69 649.274 517.873L639 508.542 643.081 504.836C679.662 468.281 702.288 417.781 702.288 362 702.288 306.219 679.662 255.719 643.081 219.164L639 215.458 649.274 206.127C684.216 177.311 729.013 160 777.856 160 889.497 160 980 250.438 980 362 980 473.562 889.497 564 777.856 564Z" stroke="#000000" stroke-width="4" stroke-miterlimit="8" fill="none" fill-rule="evenodd"/><path d="M637.5 508 633.405 504.282C596.702 467.613 574 416.955 574 361 574 305.045 596.702 254.387 633.405 217.718L637.5 214 641.595 217.718C678.298 254.387 701 305.045 701 361 701 416.955 678.298 467.613 641.595 504.282Z" stroke="#000000" stroke-width="4" stroke-miterlimit="8" fill="#0D6EFD" fill-rule="evenodd"/><path d="M500.144 160C548.987 160 593.784 177.311 628.726 206.127L639 215.458 634.919 219.164C598.338 255.719 575.712 306.219 575.712 362 575.712 417.781 598.338 468.281 634.919 504.836L639 508.542 628.726 517.873C593.784 546.689 548.987 564 500.144 564 388.503 564 298 473.562 298 362 298 250.438 388.503 160 500.144 160Z" stroke="#000000" stroke-width="4" stroke-miterlimit="8" fill="#0D6EFD" fill-rule="evenodd"/></g></svg>