<svg xmlns="http://www.w3.org/2000/svg" xmlns:xlink="http://www.w3.org/1999/xlink" width="1919" zoomAndPan="magnify" viewBox="0 0 1439.25 371.999986" height="496" preserveAspectRatio="xMidYMid meet" version="1.0"><defs><filter x="0%" y="0%" width="100%" height="100%" id="7444f06a4a"><feColorMatrix values="0 0 0 0 1 0 0 0 0 1 0 0 0 0 1 0 0 0 1 0" color-interpolation-filters="sRGB"/></filter><g/><clipPath id="c0ae7c50f7"><path d="M 75.332031 153.953125 L 262 153.953125 L 262 221.25 L 75.332031 221.25 Z M 75.332031 153.953125 " clip-rule="nonzero"/></clipPath><clipPath id="e9b456bf21"><path d="M 271.160156 78.589844 L 458 78.589844 L 458 145.890625 L 271.160156 145.890625 Z M 271.160156 78.589844 " clip-rule="nonzero"/></clipPath><clipPath id="c6ff3c13f1"><path d="M 75.332031 229.3125 L 262 229.3125 L 262 296.613281 L 75.332031 296.613281 Z M 75.332031 229.3125 " clip-rule="nonzero"/></clipPath><clipPath id="a4c9fa6ee0"><path d="M 271.160156 229.3125 L 458 229.3125 L 458 296.613281 L 271.160156 296.613281 Z M 271.160156 229.3125 " clip-rule="nonzero"/></clipPath><clipPath id="f7d653b207"><path d="M 466.984375 78.589844 L 653.929688 78.589844 L 653.929688 145.890625 L 466.984375 145.890625 Z M 466.984375 78.589844 " clip-rule="nonzero"/></clipPath><clipPath id="66e3f7acf4"><path d="M 466.984375 153.953125 L 653.929688 153.953125 L 653.929688 221.25 L 466.984375 221.25 Z M 466.984375 153.953125 " clip-rule="nonzero"/></clipPath><mask id="eb368db1a9"><g filter="url(#7444f06a4a)"><rect x="-143.925" width="1727.1" fill="#000000" y="-37.199999" height="446.399983" fill-opacity="0.498"/></g></mask><clipPath id="08b2ec29cf"><path d="M 0.984375 0.953125 L 187.929688 0.953125 L 187.929688 68.25 L 0.984375 68.25 Z M 0.984375 0.953125 " clip-rule="nonzero"/></clipPath><clipPath id="46860c3540"><rect x="0" width="188" y="0" height="69"/></clipPath><clipPath id="15cc347f29"><path d="M 466.984375 229.3125 L 653.929688 229.3125 L 653.929688 296.613281 L 466.984375 296.613281 Z M 466.984375 229.3125 " clip-rule="nonzero"/></clipPath><clipPath id="2faf414db1"><path d="M 670.679688 153.953125 L 768.878906 153.953125 L 768.878906 216 L 670.679688 216 Z M 670.679688 153.953125 " clip-rule="nonzero"/></clipPath><clipPath id="3207dbd560"><path d="M 670.679688 169.394531 L 737.554688 169.394531 L 737.554688 153.953125 L 768.4375 184.835938 L 737.554688 215.71875 L 737.554688 200.277344 L 670.679688 200.277344 L 670.679688 169.394531 " clip-rule="nonzero"/></clipPath><mask id="4953458ebf"><g filter="url(#7444f06a4a)"><rect x="-143.925" width="1727.1" fill="#000000" y="-37.199999" height="446.399983" fill-opacity="0.4"/></g></mask><clipPath id="c26591a987"><path d="M 0.679688 0.953125 L 98.558594 0.953125 L 98.558594 62.746094 L 0.679688 62.746094 Z M 0.679688 0.953125 " clip-rule="nonzero"/></clipPath><clipPath id="1b66cd5d16"><path d="M 0.679688 16.394531 L 67.554688 16.394531 L 67.554688 0.953125 L 98.4375 31.835938 L 67.554688 62.71875 L 67.554688 47.277344 L 0.679688 47.277344 L 0.679688 16.394531 " clip-rule="nonzero"/></clipPath><clipPath id="d02bdbc28a"><rect x="0" width="99" y="0" height="63"/></clipPath><clipPath id="311654c1c4"><path d="M 784.703125 150.617188 L 971.648438 150.617188 L 971.648438 217.917969 L 784.703125 217.917969 Z M 784.703125 150.617188 " clip-rule="nonzero"/></clipPath><clipPath id="a677cab0d8"><path d="M 980.527344 75.257812 L 1167.472656 75.257812 L 1167.472656 142.558594 L 980.527344 142.558594 Z M 980.527344 75.257812 " clip-rule="nonzero"/></clipPath><clipPath id="76fa1cfc7a"><path d="M 980.527344 150.617188 L 1167.472656 150.617188 L 1167.472656 217.917969 L 980.527344 217.917969 Z M 980.527344 150.617188 " clip-rule="nonzero"/></clipPath><mask id="7af45cce63"><g filter="url(#7444f06a4a)"><rect x="-143.925" width="1727.1" fill="#000000" y="-37.199999" height="446.399983" fill-opacity="0.498"/></g></mask><clipPath id="f49247fc2e"><path d="M 0.527344 0.617188 L 187.472656 0.617188 L 187.472656 67.917969 L 0.527344 67.917969 Z M 0.527344 0.617188 " clip-rule="nonzero"/></clipPath><clipPath id="a2637b109a"><rect x="0" width="188" y="0" height="68"/></clipPath><clipPath id="5ab982473c"><path d="M 784.703125 225.980469 L 971.648438 225.980469 L 971.648438 293.277344 L 784.703125 293.277344 Z M 784.703125 225.980469 " clip-rule="nonzero"/></clipPath><clipPath id="df008c563c"><path d="M 980.527344 225.980469 L 1167.472656 225.980469 L 1167.472656 293.277344 L 980.527344 293.277344 Z M 980.527344 225.980469 " clip-rule="nonzero"/></clipPath><clipPath id="e98b2ef4b3"><path d="M 1176.355469 75.257812 L 1363.300781 75.257812 L 1363.300781 142.558594 L 1176.355469 142.558594 Z M 1176.355469 75.257812 " clip-rule="nonzero"/></clipPath><clipPath id="56d31b6d98"><path d="M 1176.355469 150.617188 L 1363.300781 150.617188 L 1363.300781 217.917969 L 1176.355469 217.917969 Z M 1176.355469 150.617188 " clip-rule="nonzero"/></clipPath><mask id="e180d007bb"><g filter="url(#7444f06a4a)"><rect x="-143.925" width="1727.1" fill="#000000" y="-37.199999" height="446.399983" fill-opacity="0.498"/></g></mask><clipPath id="e737fbee3d"><path d="M 0.355469 0.617188 L 187.300781 0.617188 L 187.300781 67.917969 L 0.355469 67.917969 Z M 0.355469 0.617188 " clip-rule="nonzero"/></clipPath><clipPath id="abc8776b83"><rect x="0" width="188" y="0" height="68"/></clipPath><clipPath id="a6d8c120e3"><path d="M 1176.355469 225.980469 L 1363.300781 225.980469 L 1363.300781 293.277344 L 1176.355469 293.277344 Z M 1176.355469 225.980469 " clip-rule="nonzero"/></clipPath><clipPath id="31bfd9f1bd"><path d="M 271.160156 153.953125 L 458.105469 153.953125 L 458.105469 221.25 L 271.160156 221.25 Z M 271.160156 153.953125 " clip-rule="nonzero"/></clipPath><mask id="1dad40ad11"><g filter="url(#7444f06a4a)"><rect x="-143.925" width="1727.1" fill="#000000" y="-37.199999" height="446.399983" fill-opacity="0.498"/></g></mask><clipPath id="36d2ff1f87"><path d="M 0.160156 0.953125 L 187 0.953125 L 187 68.25 L 0.160156 68.25 Z M 0.160156 0.953125 " clip-rule="nonzero"/></clipPath><clipPath id="9116d4aa48"><rect x="0" width="188" y="0" height="69"/></clipPath></defs><g clip-path="url(#c0ae7c50f7)"><path fill="#d9d9d9" d="M 75.332031 153.953125 L 261.988281 153.953125 L 261.988281 221.417969 L 75.332031 221.417969 Z M 75.332031 153.953125 " fill-opacity="1" fill-rule="nonzero"/></g><g clip-path="url(#e9b456bf21)"><path fill="#d9d9d9" d="M 271.160156 78.589844 L 457.8125 78.589844 L 457.8125 146.054688 L 271.160156 146.054688 Z M 271.160156 78.589844 " fill-opacity="1" fill-rule="nonzero"/></g><g clip-path="url(#c6ff3c13f1)"><path fill="#d9d9d9" d="M 75.332031 229.3125 L 261.988281 229.3125 L 261.988281 296.777344 L 75.332031 296.777344 Z M 75.332031 229.3125 " fill-opacity="1" fill-rule="nonzero"/></g><g clip-path="url(#a4c9fa6ee0)"><path fill="#f2f2f2" d="M 271.160156 229.3125 L 457.8125 229.3125 L 457.8125 296.777344 L 271.160156 296.777344 Z M 271.160156 229.3125 " fill-opacity="1" fill-rule="nonzero"/></g><g clip-path="url(#f7d653b207)"><path fill="#d9d9d9" d="M 466.984375 78.589844 L 653.636719 78.589844 L 653.636719 146.054688 L 466.984375 146.054688 Z M 466.984375 78.589844 " fill-opacity="1" fill-rule="nonzero"/></g><g clip-path="url(#66e3f7acf4)"><g mask="url(#eb368db1a9)"><g transform="matrix(1, 0, 0, 1, 466, 153)"><g clip-path="url(#46860c3540)"><g clip-path="url(#08b2ec29cf)"><path fill="#ffc000" d="M 0.984375 0.953125 L 187.636719 0.953125 L 187.636719 68.417969 L 0.984375 68.417969 Z M 0.984375 0.953125 " fill-opacity="1" fill-rule="nonzero"/></g></g></g></g></g><g fill="#808080" fill-opacity="1"><g transform="translate(525.46637, 197.42923)"><g><path d="M 2 0 L 2 -20.625 L 6.328125 -20.625 L 6.328125 -3.34375 L 17.390625 -3.34375 L 17.390625 0 Z M 2 0 "/></g></g><g transform="translate(543.78202, 197.42923)"><g><path d="M 17.140625 -7.9375 C 17.140625 -5.363281 16.425781 -3.347656 15 -1.890625 C 13.582031 -0.429688 11.613281 0.296875 9.09375 0.296875 C 6.625 0.296875 4.6875 -0.429688 3.28125 -1.890625 C 1.875 -3.359375 1.171875 -5.375 1.171875 -7.9375 C 1.171875 -10.476562 1.875 -12.476562 3.28125 -13.9375 C 4.6875 -15.40625 6.65625 -16.140625 9.1875 -16.140625 C 11.769531 -16.140625 13.738281 -15.429688 15.09375 -14.015625 C 16.457031 -12.609375 17.140625 -10.582031 17.140625 -7.9375 Z M 12.84375 -7.9375 C 12.84375 -9.820312 12.535156 -11.1875 11.921875 -12.03125 C 11.304688 -12.882812 10.410156 -13.3125 9.234375 -13.3125 C 6.734375 -13.3125 5.484375 -11.519531 5.484375 -7.9375 C 5.484375 -6.164062 5.789062 -4.816406 6.40625 -3.890625 C 7.019531 -2.972656 7.898438 -2.515625 9.046875 -2.515625 C 11.578125 -2.515625 12.84375 -4.320312 12.84375 -7.9375 Z M 12.84375 -7.9375 "/></g></g><g transform="translate(562.09767, 197.42923)"><g><path d="M 10.703125 0 L 5.78125 0 L 0.109375 -15.84375 L 4.46875 -15.84375 L 7.234375 -6.984375 C 7.378906 -6.492188 7.722656 -5.273438 8.265625 -3.328125 C 8.367188 -3.722656 8.570312 -4.421875 8.875 -5.421875 C 9.175781 -6.429688 10.296875 -9.90625 12.234375 -15.84375 L 16.546875 -15.84375 Z M 10.703125 0 "/></g></g><g transform="translate(578.77355, 197.42923)"><g><path d="M 8.578125 0.296875 C 6.191406 0.296875 4.359375 -0.40625 3.078125 -1.8125 C 1.804688 -3.226562 1.171875 -5.289062 1.171875 -8 C 1.171875 -10.613281 1.816406 -12.625 3.109375 -14.03125 C 4.410156 -15.4375 6.253906 -16.140625 8.640625 -16.140625 C 10.910156 -16.140625 12.644531 -15.382812 13.84375 -13.875 C 15.050781 -12.363281 15.65625 -10.15625 15.65625 -7.25 L 15.65625 -7.125 L 5.484375 -7.125 C 5.484375 -5.582031 5.769531 -4.414062 6.34375 -3.625 C 6.914062 -2.84375 7.726562 -2.453125 8.78125 -2.453125 C 10.238281 -2.453125 11.15625 -3.082031 11.53125 -4.34375 L 15.421875 -4.015625 C 14.296875 -1.140625 12.015625 0.296875 8.578125 0.296875 Z M 8.578125 -13.546875 C 7.609375 -13.546875 6.863281 -13.207031 6.34375 -12.53125 C 5.820312 -11.851562 5.546875 -10.910156 5.515625 -9.703125 L 11.671875 -9.703125 C 11.585938 -10.984375 11.273438 -11.941406 10.734375 -12.578125 C 10.203125 -13.222656 9.484375 -13.546875 8.578125 -13.546875 Z M 8.578125 -13.546875 "/></g></g></g><g clip-path="url(#15cc347f29)"><path fill="#f2f2f2" d="M 466.984375 229.3125 L 653.636719 229.3125 L 653.636719 296.777344 L 466.984375 296.777344 Z M 466.984375 229.3125 " fill-opacity="1" fill-rule="nonzero"/></g><g clip-path="url(#2faf414db1)"><g clip-path="url(#3207dbd560)"><g mask="url(#4953458ebf)"><g transform="matrix(1, 0, 0, 1, 670, 153)"><g clip-path="url(#d02bdbc28a)"><g clip-path="url(#c26591a987)"><g clip-path="url(#1b66cd5d16)"><path fill="#03e313" d="M 0.679688 0.953125 L 98.128906 0.953125 L 98.128906 62.417969 L 0.679688 62.417969 Z M 0.679688 0.953125 " fill-opacity="1" fill-rule="nonzero"/></g></g></g></g></g></g></g><g clip-path="url(#311654c1c4)"><path fill="#d9d9d9" d="M 784.703125 150.617188 L 971.355469 150.617188 L 971.355469 218.082031 L 784.703125 218.082031 Z M 784.703125 150.617188 " fill-opacity="1" fill-rule="nonzero"/></g><g clip-path="url(#a677cab0d8)"><path fill="#d9d9d9" d="M 980.527344 75.257812 L 1167.179688 75.257812 L 1167.179688 142.722656 L 980.527344 142.722656 Z M 980.527344 75.257812 " fill-opacity="1" fill-rule="nonzero"/></g><g clip-path="url(#76fa1cfc7a)"><g mask="url(#7af45cce63)"><g transform="matrix(1, 0, 0, 1, 980, 150)"><g clip-path="url(#a2637b109a)"><g clip-path="url(#f49247fc2e)"><path fill="#03e313" d="M 0.527344 0.617188 L 187.179688 0.617188 L 187.179688 68.082031 L 0.527344 68.082031 Z M 0.527344 0.617188 " fill-opacity="1" fill-rule="nonzero"/></g></g></g></g></g><g fill="#808080" fill-opacity="1"><g transform="translate(1046.506176, 194.095766)"><g><path d="M 2 0 L 2 -20.625 L 18.234375 -20.625 L 18.234375 -17.296875 L 6.328125 -17.296875 L 6.328125 -12.109375 L 17.328125 -12.109375 L 17.328125 -8.765625 L 6.328125 -8.765625 L 6.328125 -3.34375 L 18.828125 -3.34375 L 18.828125 0 Z M 2 0 "/></g></g><g transform="translate(1066.505519, 194.095766)"><g><path d="M 12.359375 0 L 12.359375 -8.890625 C 12.359375 -11.671875 11.414062 -13.0625 9.53125 -13.0625 C 8.53125 -13.0625 7.722656 -12.632812 7.109375 -11.78125 C 6.503906 -10.925781 6.203125 -9.828125 6.203125 -8.484375 L 6.203125 0 L 2.09375 0 L 2.09375 -12.296875 C 2.09375 -13.148438 2.078125 -13.847656 2.046875 -14.390625 C 2.023438 -14.929688 2 -15.414062 1.96875 -15.84375 L 5.90625 -15.84375 C 5.925781 -15.65625 5.960938 -15.15625 6.015625 -14.34375 C 6.066406 -13.539062 6.09375 -12.988281 6.09375 -12.6875 L 6.15625 -12.6875 C 6.707031 -13.90625 7.398438 -14.785156 8.234375 -15.328125 C 9.078125 -15.878906 10.082031 -16.15625 11.25 -16.15625 C 12.925781 -16.15625 14.210938 -15.632812 15.109375 -14.59375 C 16.003906 -13.5625 16.453125 -12.050781 16.453125 -10.0625 L 16.453125 0 Z M 12.359375 0 "/></g></g><g transform="translate(1084.821169, 194.095766)"><g><path d="M 8.578125 0.296875 C 6.191406 0.296875 4.359375 -0.40625 3.078125 -1.8125 C 1.804688 -3.226562 1.171875 -5.289062 1.171875 -8 C 1.171875 -10.613281 1.816406 -12.625 3.109375 -14.03125 C 4.410156 -15.4375 6.253906 -16.140625 8.640625 -16.140625 C 10.910156 -16.140625 12.644531 -15.382812 13.84375 -13.875 C 15.050781 -12.363281 15.65625 -10.15625 15.65625 -7.25 L 15.65625 -7.125 L 5.484375 -7.125 C 5.484375 -5.582031 5.769531 -4.414062 6.34375 -3.625 C 6.914062 -2.84375 7.726562 -2.453125 8.78125 -2.453125 C 10.238281 -2.453125 11.15625 -3.082031 11.53125 -4.34375 L 15.421875 -4.015625 C 14.296875 -1.140625 12.015625 0.296875 8.578125 0.296875 Z M 8.578125 -13.546875 C 7.609375 -13.546875 6.863281 -13.207031 6.34375 -12.53125 C 5.820312 -11.851562 5.546875 -10.910156 5.515625 -9.703125 L 11.671875 -9.703125 C 11.585938 -10.984375 11.273438 -11.941406 10.734375 -12.578125 C 10.203125 -13.222656 9.484375 -13.546875 8.578125 -13.546875 Z M 8.578125 -13.546875 "/></g></g></g><g clip-path="url(#5ab982473c)"><path fill="#d9d9d9" d="M 784.703125 225.980469 L 971.355469 225.980469 L 971.355469 293.445312 L 784.703125 293.445312 Z M 784.703125 225.980469 " fill-opacity="1" fill-rule="nonzero"/></g><g clip-path="url(#df008c563c)"><path fill="#f2f2f2" d="M 980.527344 225.980469 L 1167.179688 225.980469 L 1167.179688 293.445312 L 980.527344 293.445312 Z M 980.527344 225.980469 " fill-opacity="1" fill-rule="nonzero"/></g><g clip-path="url(#e98b2ef4b3)"><path fill="#d9d9d9" d="M 1176.355469 75.257812 L 1363.007812 75.257812 L 1363.007812 142.722656 L 1176.355469 142.722656 Z M 1176.355469 75.257812 " fill-opacity="1" fill-rule="nonzero"/></g><g clip-path="url(#56d31b6d98)"><g mask="url(#e180d007bb)"><g transform="matrix(1, 0, 0, 1, 1176, 150)"><g clip-path="url(#abc8776b83)"><g clip-path="url(#e737fbee3d)"><path fill="#03e313" d="M 0.355469 0.617188 L 187.007812 0.617188 L 187.007812 68.082031 L 0.355469 68.082031 Z M 0.355469 0.617188 " fill-opacity="1" fill-rule="nonzero"/></g></g></g></g></g><g fill="#808080" fill-opacity="1"><g transform="translate(1243.174985, 194.095766)"><g><path d="M 2 0 L 2 -20.625 L 6.328125 -20.625 L 6.328125 -3.34375 L 17.390625 -3.34375 L 17.390625 0 Z M 2 0 "/></g></g><g transform="translate(1261.490635, 194.095766)"><g><path d="M 17.140625 -7.9375 C 17.140625 -5.363281 16.425781 -3.347656 15 -1.890625 C 13.582031 -0.429688 11.613281 0.296875 9.09375 0.296875 C 6.625 0.296875 4.6875 -0.429688 3.28125 -1.890625 C 1.875 -3.359375 1.171875 -5.375 1.171875 -7.9375 C 1.171875 -10.476562 1.875 -12.476562 3.28125 -13.9375 C 4.6875 -15.40625 6.65625 -16.140625 9.1875 -16.140625 C 11.769531 -16.140625 13.738281 -15.429688 15.09375 -14.015625 C 16.457031 -12.609375 17.140625 -10.582031 17.140625 -7.9375 Z M 12.84375 -7.9375 C 12.84375 -9.820312 12.535156 -11.1875 11.921875 -12.03125 C 11.304688 -12.882812 10.410156 -13.3125 9.234375 -13.3125 C 6.734375 -13.3125 5.484375 -11.519531 5.484375 -7.9375 C 5.484375 -6.164062 5.789062 -4.816406 6.40625 -3.890625 C 7.019531 -2.972656 7.898438 -2.515625 9.046875 -2.515625 C 11.578125 -2.515625 12.84375 -4.320312 12.84375 -7.9375 Z M 12.84375 -7.9375 "/></g></g><g transform="translate(1279.806285, 194.095766)"><g><path d="M 10.703125 0 L 5.78125 0 L 0.109375 -15.84375 L 4.46875 -15.84375 L 7.234375 -6.984375 C 7.378906 -6.492188 7.722656 -5.273438 8.265625 -3.328125 C 8.367188 -3.722656 8.570312 -4.421875 8.875 -5.421875 C 9.175781 -6.429688 10.296875 -9.90625 12.234375 -15.84375 L 16.546875 -15.84375 Z M 10.703125 0 "/></g></g></g><g clip-path="url(#a6d8c120e3)"><path fill="#f2f2f2" d="M 1176.355469 225.980469 L 1363.007812 225.980469 L 1363.007812 293.445312 L 1176.355469 293.445312 Z M 1176.355469 225.980469 " fill-opacity="1" fill-rule="nonzero"/></g><g clip-path="url(#31bfd9f1bd)"><g mask="url(#1dad40ad11)"><g transform="matrix(1, 0, 0, 1, 271, 153)"><g clip-path="url(#9116d4aa48)"><g clip-path="url(#36d2ff1f87)"><path fill="#ffc000" d="M 0.160156 0.953125 L 186.8125 0.953125 L 186.8125 68.417969 L 0.160156 68.417969 Z M 0.160156 0.953125 " fill-opacity="1" fill-rule="nonzero"/></g></g></g></g></g><g fill="#808080" fill-opacity="1"><g transform="translate(313.805182, 197.42923)"><g><path d="M 2 0 L 2 -20.625 L 18.234375 -20.625 L 18.234375 -17.296875 L 6.328125 -17.296875 L 6.328125 -12.109375 L 17.328125 -12.109375 L 17.328125 -8.765625 L 6.328125 -8.765625 L 6.328125 -3.34375 L 18.828125 -3.34375 L 18.828125 0 Z M 2 0 "/></g></g><g transform="translate(333.804525, 197.42923)"><g><path d="M 12.359375 0 L 12.359375 -8.890625 C 12.359375 -11.671875 11.414062 -13.0625 9.53125 -13.0625 C 8.53125 -13.0625 7.722656 -12.632812 7.109375 -11.78125 C 6.503906 -10.925781 6.203125 -9.828125 6.203125 -8.484375 L 6.203125 0 L 2.09375 0 L 2.09375 -12.296875 C 2.09375 -13.148438 2.078125 -13.847656 2.046875 -14.390625 C 2.023438 -14.929688 2 -15.414062 1.96875 -15.84375 L 5.90625 -15.84375 C 5.925781 -15.65625 5.960938 -15.15625 6.015625 -14.34375 C 6.066406 -13.539062 6.09375 -12.988281 6.09375 -12.6875 L 6.15625 -12.6875 C 6.707031 -13.90625 7.398438 -14.785156 8.234375 -15.328125 C 9.078125 -15.878906 10.082031 -16.15625 11.25 -16.15625 C 12.925781 -16.15625 14.210938 -15.632812 15.109375 -14.59375 C 16.003906 -13.5625 16.453125 -12.050781 16.453125 -10.0625 L 16.453125 0 Z M 12.359375 0 "/></g></g><g transform="translate(352.120175, 197.42923)"><g><path d="M 8.578125 0.296875 C 6.191406 0.296875 4.359375 -0.40625 3.078125 -1.8125 C 1.804688 -3.226562 1.171875 -5.289062 1.171875 -8 C 1.171875 -10.613281 1.816406 -12.625 3.109375 -14.03125 C 4.410156 -15.4375 6.253906 -16.140625 8.640625 -16.140625 C 10.910156 -16.140625 12.644531 -15.382812 13.84375 -13.875 C 15.050781 -12.363281 15.65625 -10.15625 15.65625 -7.25 L 15.65625 -7.125 L 5.484375 -7.125 C 5.484375 -5.582031 5.769531 -4.414062 6.34375 -3.625 C 6.914062 -2.84375 7.726562 -2.453125 8.78125 -2.453125 C 10.238281 -2.453125 11.15625 -3.082031 11.53125 -4.34375 L 15.421875 -4.015625 C 14.296875 -1.140625 12.015625 0.296875 8.578125 0.296875 Z M 8.578125 -13.546875 C 7.609375 -13.546875 6.863281 -13.207031 6.34375 -12.53125 C 5.820312 -11.851562 5.546875 -10.910156 5.515625 -9.703125 L 11.671875 -9.703125 C 11.585938 -10.984375 11.273438 -11.941406 10.734375 -12.578125 C 10.203125 -13.222656 9.484375 -13.546875 8.578125 -13.546875 Z M 8.578125 -13.546875 "/></g></g><g transform="translate(368.796055, 197.42923)"><g><path d="M 2.09375 0 L 2.09375 -12.125 C 2.09375 -12.988281 2.078125 -13.710938 2.046875 -14.296875 C 2.023438 -14.878906 2 -15.394531 1.96875 -15.84375 L 5.90625 -15.84375 C 5.925781 -15.664062 5.960938 -15.128906 6.015625 -14.234375 C 6.066406 -13.347656 6.09375 -12.753906 6.09375 -12.453125 L 6.15625 -12.453125 C 6.550781 -13.566406 6.90625 -14.347656 7.21875 -14.796875 C 7.53125 -15.253906 7.898438 -15.59375 8.328125 -15.8125 C 8.753906 -16.039062 9.289062 -16.15625 9.9375 -16.15625 C 10.46875 -16.15625 10.894531 -16.078125 11.21875 -15.921875 L 11.21875 -12.484375 C 10.550781 -12.628906 9.960938 -12.703125 9.453125 -12.703125 C 8.429688 -12.703125 7.632812 -12.285156 7.0625 -11.453125 C 6.488281 -10.628906 6.203125 -9.40625 6.203125 -7.78125 L 6.203125 0 Z M 2.09375 0 "/></g></g><g transform="translate(380.464779, 197.42923)"><g><path d="M 8.71875 6.359375 C 6.789062 6.359375 5.238281 5.988281 4.0625 5.25 C 2.882812 4.507812 2.160156 3.457031 1.890625 2.09375 L 6 1.609375 C 6.144531 2.242188 6.457031 2.738281 6.9375 3.09375 C 7.425781 3.457031 8.0625 3.640625 8.84375 3.640625 C 9.988281 3.640625 10.820312 3.285156 11.34375 2.578125 C 11.875 1.878906 12.140625 0.835938 12.140625 -0.546875 L 12.140625 -1.375 L 12.171875 -2.9375 L 12.140625 -2.9375 C 11.234375 -1 9.535156 -0.03125 7.046875 -0.03125 C 5.203125 -0.03125 3.769531 -0.722656 2.75 -2.109375 C 1.738281 -3.492188 1.234375 -5.472656 1.234375 -8.046875 C 1.234375 -10.640625 1.753906 -12.640625 2.796875 -14.046875 C 3.835938 -15.453125 5.351562 -16.15625 7.34375 -16.15625 C 9.65625 -16.15625 11.253906 -15.203125 12.140625 -13.296875 L 12.203125 -13.296875 C 12.203125 -13.640625 12.222656 -14.101562 12.265625 -14.6875 C 12.316406 -15.269531 12.367188 -15.65625 12.421875 -15.84375 L 16.3125 -15.84375 C 16.25 -14.789062 16.21875 -13.570312 16.21875 -12.1875 L 16.21875 -0.484375 C 16.21875 1.773438 15.578125 3.476562 14.296875 4.625 C 13.023438 5.78125 11.164062 6.359375 8.71875 6.359375 Z M 12.171875 -8.140625 C 12.171875 -9.765625 11.878906 -11.035156 11.296875 -11.953125 C 10.710938 -12.867188 9.882812 -13.328125 8.8125 -13.328125 C 6.613281 -13.328125 5.515625 -11.566406 5.515625 -8.046875 C 5.515625 -4.609375 6.601562 -2.890625 8.78125 -2.890625 C 9.875 -2.890625 10.710938 -3.34375 11.296875 -4.25 C 11.878906 -5.164062 12.171875 -6.460938 12.171875 -8.140625 Z M 12.171875 -8.140625 "/></g></g><g transform="translate(398.780429, 197.42923)"><g><path d="M 4.140625 6.21875 C 3.160156 6.21875 2.296875 6.15625 1.546875 6.03125 L 1.546875 3.109375 C 2.066406 3.179688 2.539062 3.21875 2.96875 3.21875 C 3.550781 3.21875 4.035156 3.125 4.421875 2.9375 C 4.804688 2.757812 5.148438 2.453125 5.453125 2.015625 C 5.765625 1.585938 6.113281 0.863281 6.5 -0.15625 L 0.234375 -15.84375 L 4.578125 -15.84375 L 7.078125 -8.421875 C 7.460938 -7.359375 7.953125 -5.726562 8.546875 -3.53125 L 8.921875 -4.921875 L 9.875 -8.359375 L 12.203125 -15.84375 L 16.515625 -15.84375 L 10.25 0.828125 C 9.40625 2.859375 8.53125 4.265625 7.625 5.046875 C 6.726562 5.828125 5.566406 6.21875 4.140625 6.21875 Z M 4.140625 6.21875 "/></g></g></g></svg>