<svg xmlns="http://www.w3.org/2000/svg" xmlns:xlink="http://www.w3.org/1999/xlink" width="1919" zoomAndPan="magnify" viewBox="0 0 1439.25 371.999986" height="496" preserveAspectRatio="xMidYMid meet" version="1.0"><defs><filter x="0%" y="0%" width="100%" height="100%" id="951d5a16aa"><feColorMatrix values="0 0 0 0 1 0 0 0 0 1 0 0 0 0 1 0 0 0 1 0" color-interpolation-filters="sRGB"/></filter><g/><clipPath id="2227458df9"><path d="M 75.332031 153.953125 L 262 153.953125 L 262 221.25 L 75.332031 221.25 Z M 75.332031 153.953125 " clip-rule="nonzero"/></clipPath><clipPath id="1423f7c04d"><path d="M 271.160156 78.589844 L 458 78.589844 L 458 145.890625 L 271.160156 145.890625 Z M 271.160156 78.589844 " clip-rule="nonzero"/></clipPath><clipPath id="99853600ca"><path d="M 75.332031 229.3125 L 262 229.3125 L 262 296.613281 L 75.332031 296.613281 Z M 75.332031 229.3125 " clip-rule="nonzero"/></clipPath><clipPath id="fd53bf417e"><path d="M 271.160156 229.3125 L 458 229.3125 L 458 296.613281 L 271.160156 296.613281 Z M 271.160156 229.3125 " clip-rule="nonzero"/></clipPath><clipPath id="256d0a5fa9"><path d="M 466.984375 78.589844 L 653.929688 78.589844 L 653.929688 145.890625 L 466.984375 145.890625 Z M 466.984375 78.589844 " clip-rule="nonzero"/></clipPath><clipPath id="a675ea8653"><path d="M 466.984375 153.953125 L 653.929688 153.953125 L 653.929688 221.25 L 466.984375 221.25 Z M 466.984375 153.953125 " clip-rule="nonzero"/></clipPath><mask id="4869f92ef3"><g filter="url(#951d5a16aa)"><rect x="-143.925" width="1727.1" fill="#000000" y="-37.199999" height="446.399983" fill-opacity="0.498"/></g></mask><clipPath id="4f8f015730"><path d="M 0.984375 0.953125 L 187.929688 0.953125 L 187.929688 68.25 L 0.984375 68.25 Z M 0.984375 0.953125 " clip-rule="nonzero"/></clipPath><clipPath id="fc1c6b13d7"><rect x="0" width="188" y="0" height="69"/></clipPath><clipPath id="c79dac8b1c"><path d="M 466.984375 229.3125 L 653.929688 229.3125 L 653.929688 296.613281 L 466.984375 296.613281 Z M 466.984375 229.3125 " clip-rule="nonzero"/></clipPath><clipPath id="f81cd38b49"><path d="M 670.679688 153.953125 L 768.878906 153.953125 L 768.878906 216 L 670.679688 216 Z M 670.679688 153.953125 " clip-rule="nonzero"/></clipPath><clipPath id="f4689555b4"><path d="M 670.679688 169.394531 L 737.554688 169.394531 L 737.554688 153.953125 L 768.4375 184.835938 L 737.554688 215.71875 L 737.554688 200.277344 L 670.679688 200.277344 L 670.679688 169.394531 " clip-rule="nonzero"/></clipPath><mask id="75b1c7ec54"><g filter="url(#951d5a16aa)"><rect x="-143.925" width="1727.1" fill="#000000" y="-37.199999" height="446.399983" fill-opacity="0.4"/></g></mask><clipPath id="69e2169d6c"><path d="M 0.679688 0.953125 L 98.558594 0.953125 L 98.558594 62.746094 L 0.679688 62.746094 Z M 0.679688 0.953125 " clip-rule="nonzero"/></clipPath><clipPath id="c217ea40d2"><path d="M 0.679688 16.394531 L 67.554688 16.394531 L 67.554688 0.953125 L 98.4375 31.835938 L 67.554688 62.71875 L 67.554688 47.277344 L 0.679688 47.277344 L 0.679688 16.394531 " clip-rule="nonzero"/></clipPath><clipPath id="9049a8c666"><rect x="0" width="99" y="0" height="63"/></clipPath><clipPath id="f75340eafd"><path d="M 784.703125 150.617188 L 971.648438 150.617188 L 971.648438 217.917969 L 784.703125 217.917969 Z M 784.703125 150.617188 " clip-rule="nonzero"/></clipPath><clipPath id="63cd83980f"><path d="M 980.527344 75.257812 L 1167.472656 75.257812 L 1167.472656 142.558594 L 980.527344 142.558594 Z M 980.527344 75.257812 " clip-rule="nonzero"/></clipPath><clipPath id="9d83f16c71"><path d="M 980.527344 150.617188 L 1167.472656 150.617188 L 1167.472656 217.917969 L 980.527344 217.917969 Z M 980.527344 150.617188 " clip-rule="nonzero"/></clipPath><mask id="af54ea7404"><g filter="url(#951d5a16aa)"><rect x="-143.925" width="1727.1" fill="#000000" y="-37.199999" height="446.399983" fill-opacity="0.498"/></g></mask><clipPath id="f7bc3862d9"><path d="M 0.527344 0.617188 L 187.472656 0.617188 L 187.472656 67.917969 L 0.527344 67.917969 Z M 0.527344 0.617188 " clip-rule="nonzero"/></clipPath><clipPath id="a64a24a055"><rect x="0" width="188" y="0" height="68"/></clipPath><clipPath id="ec469cc90e"><path d="M 784.703125 225.980469 L 971.648438 225.980469 L 971.648438 293.277344 L 784.703125 293.277344 Z M 784.703125 225.980469 " clip-rule="nonzero"/></clipPath><clipPath id="a10954ab0c"><path d="M 980.527344 225.980469 L 1167.472656 225.980469 L 1167.472656 293.277344 L 980.527344 293.277344 Z M 980.527344 225.980469 " clip-rule="nonzero"/></clipPath><clipPath id="952646e21f"><path d="M 1176.355469 75.257812 L 1363.300781 75.257812 L 1363.300781 142.558594 L 1176.355469 142.558594 Z M 1176.355469 75.257812 " clip-rule="nonzero"/></clipPath><clipPath id="61a77d798e"><path d="M 1176.355469 150.617188 L 1363.300781 150.617188 L 1363.300781 217.917969 L 1176.355469 217.917969 Z M 1176.355469 150.617188 " clip-rule="nonzero"/></clipPath><mask id="3c648219b4"><g filter="url(#951d5a16aa)"><rect x="-143.925" width="1727.1" fill="#000000" y="-37.199999" height="446.399983" fill-opacity="0.498"/></g></mask><clipPath id="ebca99f7c9"><path d="M 0.355469 0.617188 L 187.300781 0.617188 L 187.300781 67.917969 L 0.355469 67.917969 Z M 0.355469 0.617188 " clip-rule="nonzero"/></clipPath><clipPath id="a24b753883"><rect x="0" width="188" y="0" height="68"/></clipPath><clipPath id="8278ab8f73"><path d="M 1176.355469 225.980469 L 1363.300781 225.980469 L 1363.300781 293.277344 L 1176.355469 293.277344 Z M 1176.355469 225.980469 " clip-rule="nonzero"/></clipPath><clipPath id="d4c2480e33"><path d="M 271.160156 153.953125 L 458.105469 153.953125 L 458.105469 221.25 L 271.160156 221.25 Z M 271.160156 153.953125 " clip-rule="nonzero"/></clipPath><mask id="e816b6ae82"><g filter="url(#951d5a16aa)"><rect x="-143.925" width="1727.1" fill="#000000" y="-37.199999" height="446.399983" fill-opacity="0.498"/></g></mask><clipPath id="4ee27b67ee"><path d="M 0.160156 0.953125 L 187 0.953125 L 187 68.25 L 0.160156 68.25 Z M 0.160156 0.953125 " clip-rule="nonzero"/></clipPath><clipPath id="6f369b94c1"><rect x="0" width="188" y="0" height="69"/></clipPath></defs><g clip-path="url(#2227458df9)"><path fill="#d9d9d9" d="M 75.332031 153.953125 L 261.988281 153.953125 L 261.988281 221.417969 L 75.332031 221.417969 Z M 75.332031 153.953125 " fill-opacity="1" fill-rule="nonzero"/></g><g clip-path="url(#1423f7c04d)"><path fill="#d9d9d9" d="M 271.160156 78.589844 L 457.8125 78.589844 L 457.8125 146.054688 L 271.160156 146.054688 Z M 271.160156 78.589844 " fill-opacity="1" fill-rule="nonzero"/></g><g clip-path="url(#99853600ca)"><path fill="#d9d9d9" d="M 75.332031 229.3125 L 261.988281 229.3125 L 261.988281 296.777344 L 75.332031 296.777344 Z M 75.332031 229.3125 " fill-opacity="1" fill-rule="nonzero"/></g><g clip-path="url(#fd53bf417e)"><path fill="#f2f2f2" d="M 271.160156 229.3125 L 457.8125 229.3125 L 457.8125 296.777344 L 271.160156 296.777344 Z M 271.160156 229.3125 " fill-opacity="1" fill-rule="nonzero"/></g><g clip-path="url(#256d0a5fa9)"><path fill="#d9d9d9" d="M 466.984375 78.589844 L 653.636719 78.589844 L 653.636719 146.054688 L 466.984375 146.054688 Z M 466.984375 78.589844 " fill-opacity="1" fill-rule="nonzero"/></g><g clip-path="url(#a675ea8653)"><g mask="url(#4869f92ef3)"><g transform="matrix(1, 0, 0, 1, 466, 153)"><g clip-path="url(#fc1c6b13d7)"><g clip-path="url(#4f8f015730)"><path fill="#ffc000" d="M 0.984375 0.953125 L 187.636719 0.953125 L 187.636719 68.417969 L 0.984375 68.417969 Z M 0.984375 0.953125 " fill-opacity="1" fill-rule="nonzero"/></g></g></g></g></g><g fill="#808080" fill-opacity="1"><g transform="translate(511.317493, 197.42923)"><g><path d="M 2.09375 -18.703125 L 2.09375 -21.734375 L 6.203125 -21.734375 L 6.203125 -18.703125 Z M 2.09375 0 L 2.09375 -15.84375 L 6.203125 -15.84375 L 6.203125 0 Z M 2.09375 0 "/></g></g><g transform="translate(519.648113, 197.42923)"><g><path d="M 12.359375 0 L 12.359375 -8.890625 C 12.359375 -11.671875 11.414062 -13.0625 9.53125 -13.0625 C 8.53125 -13.0625 7.722656 -12.632812 7.109375 -11.78125 C 6.503906 -10.925781 6.203125 -9.828125 6.203125 -8.484375 L 6.203125 0 L 2.09375 0 L 2.09375 -12.296875 C 2.09375 -13.148438 2.078125 -13.847656 2.046875 -14.390625 C 2.023438 -14.929688 2 -15.414062 1.96875 -15.84375 L 5.90625 -15.84375 C 5.925781 -15.65625 5.960938 -15.15625 6.015625 -14.34375 C 6.066406 -13.539062 6.09375 -12.988281 6.09375 -12.6875 L 6.15625 -12.6875 C 6.707031 -13.90625 7.398438 -14.785156 8.234375 -15.328125 C 9.078125 -15.878906 10.082031 -16.15625 11.25 -16.15625 C 12.925781 -16.15625 14.210938 -15.632812 15.109375 -14.59375 C 16.003906 -13.5625 16.453125 -12.050781 16.453125 -10.0625 L 16.453125 0 Z M 12.359375 0 "/></g></g><g transform="translate(537.963763, 197.42923)"><g/></g><g transform="translate(546.294382, 197.42923)"><g><path d="M 10.578125 0.296875 C 7.742188 0.296875 5.570312 -0.394531 4.0625 -1.78125 C 2.550781 -3.164062 1.796875 -5.148438 1.796875 -7.734375 L 1.796875 -20.625 L 6.125 -20.625 L 6.125 -8.0625 C 6.125 -6.4375 6.507812 -5.203125 7.28125 -4.359375 C 8.0625 -3.515625 9.203125 -3.09375 10.703125 -3.09375 C 12.242188 -3.09375 13.425781 -3.53125 14.25 -4.40625 C 15.082031 -5.289062 15.5 -6.5625 15.5 -8.21875 L 15.5 -20.625 L 19.828125 -20.625 L 19.828125 -7.953125 C 19.828125 -5.335938 19.019531 -3.304688 17.40625 -1.859375 C 15.789062 -0.421875 13.515625 0.296875 10.578125 0.296875 Z M 10.578125 0.296875 "/></g></g><g transform="translate(567.948137, 197.42923)"><g><path d="M 18.828125 -5.9375 C 18.828125 -3.914062 18.078125 -2.367188 16.578125 -1.296875 C 15.078125 -0.234375 12.878906 0.296875 9.984375 0.296875 C 7.335938 0.296875 5.265625 -0.171875 3.765625 -1.109375 C 2.265625 -2.046875 1.296875 -3.46875 0.859375 -5.375 L 5.03125 -6.0625 C 5.320312 -4.96875 5.875 -4.171875 6.6875 -3.671875 C 7.507812 -3.179688 8.648438 -2.9375 10.109375 -2.9375 C 13.117188 -2.9375 14.625 -3.851562 14.625 -5.6875 C 14.625 -6.28125 14.453125 -6.765625 14.109375 -7.140625 C 13.765625 -7.523438 13.273438 -7.84375 12.640625 -8.09375 C 12.015625 -8.351562 10.804688 -8.660156 9.015625 -9.015625 C 7.472656 -9.378906 6.398438 -9.671875 5.796875 -9.890625 C 5.191406 -10.109375 4.644531 -10.363281 4.15625 -10.65625 C 3.664062 -10.957031 3.25 -11.316406 2.90625 -11.734375 C 2.570312 -12.160156 2.304688 -12.65625 2.109375 -13.21875 C 1.921875 -13.78125 1.828125 -14.429688 1.828125 -15.171875 C 1.828125 -17.035156 2.523438 -18.460938 3.921875 -19.453125 C 5.328125 -20.441406 7.367188 -20.9375 10.046875 -20.9375 C 12.597656 -20.9375 14.515625 -20.535156 15.796875 -19.734375 C 17.085938 -18.929688 17.914062 -17.609375 18.28125 -15.765625 L 14.09375 -15.203125 C 13.882812 -16.085938 13.445312 -16.753906 12.78125 -17.203125 C 12.125 -17.648438 11.179688 -17.875 9.953125 -17.875 C 7.335938 -17.875 6.03125 -17.054688 6.03125 -15.421875 C 6.03125 -14.878906 6.164062 -14.4375 6.4375 -14.09375 C 6.71875 -13.757812 7.128906 -13.472656 7.671875 -13.234375 C 8.222656 -12.992188 9.335938 -12.691406 11.015625 -12.328125 C 12.992188 -11.910156 14.410156 -11.519531 15.265625 -11.15625 C 16.117188 -10.800781 16.789062 -10.382812 17.28125 -9.90625 C 17.78125 -9.4375 18.160156 -8.875 18.421875 -8.21875 C 18.691406 -7.5625 18.828125 -6.800781 18.828125 -5.9375 Z M 18.828125 -5.9375 "/></g></g><g transform="translate(587.94748, 197.42923)"><g><path d="M 16.59375 0 L 14.765625 -5.265625 L 6.890625 -5.265625 L 5.0625 0 L 0.75 0 L 8.265625 -20.625 L 13.359375 -20.625 L 20.859375 0 Z M 10.8125 -17.453125 L 10.734375 -17.125 C 10.628906 -16.78125 10.507812 -16.378906 10.375 -15.921875 C 10.238281 -15.472656 9.398438 -13.003906 7.859375 -8.515625 L 13.796875 -8.515625 L 11.75 -14.453125 L 11.125 -16.4375 Z M 10.8125 -17.453125 "/></g></g></g><g clip-path="url(#c79dac8b1c)"><path fill="#f2f2f2" d="M 466.984375 229.3125 L 653.636719 229.3125 L 653.636719 296.777344 L 466.984375 296.777344 Z M 466.984375 229.3125 " fill-opacity="1" fill-rule="nonzero"/></g><g clip-path="url(#f81cd38b49)"><g clip-path="url(#f4689555b4)"><g mask="url(#75b1c7ec54)"><g transform="matrix(1, 0, 0, 1, 670, 153)"><g clip-path="url(#9049a8c666)"><g clip-path="url(#69e2169d6c)"><g clip-path="url(#c217ea40d2)"><path fill="#03e313" d="M 0.679688 0.953125 L 98.128906 0.953125 L 98.128906 62.417969 L 0.679688 62.417969 Z M 0.679688 0.953125 " fill-opacity="1" fill-rule="nonzero"/></g></g></g></g></g></g></g><g clip-path="url(#f75340eafd)"><path fill="#d9d9d9" d="M 784.703125 150.617188 L 971.355469 150.617188 L 971.355469 218.082031 L 784.703125 218.082031 Z M 784.703125 150.617188 " fill-opacity="1" fill-rule="nonzero"/></g><g clip-path="url(#63cd83980f)"><path fill="#d9d9d9" d="M 980.527344 75.257812 L 1167.179688 75.257812 L 1167.179688 142.722656 L 980.527344 142.722656 Z M 980.527344 75.257812 " fill-opacity="1" fill-rule="nonzero"/></g><g clip-path="url(#9d83f16c71)"><g mask="url(#af54ea7404)"><g transform="matrix(1, 0, 0, 1, 980, 150)"><g clip-path="url(#a64a24a055)"><g clip-path="url(#f7bc3862d9)"><path fill="#03e313" d="M 0.527344 0.617188 L 187.179688 0.617188 L 187.179688 68.082031 L 0.527344 68.082031 Z M 0.527344 0.617188 " fill-opacity="1" fill-rule="nonzero"/></g></g></g></g></g><g fill="#808080" fill-opacity="1"><g transform="translate(1014.003583, 194.095766)"><g><path d="M 12.359375 0 L 12.359375 -8.890625 C 12.359375 -11.671875 11.414062 -13.0625 9.53125 -13.0625 C 8.53125 -13.0625 7.722656 -12.632812 7.109375 -11.78125 C 6.503906 -10.925781 6.203125 -9.828125 6.203125 -8.484375 L 6.203125 0 L 2.09375 0 L 2.09375 -12.296875 C 2.09375 -13.148438 2.078125 -13.847656 2.046875 -14.390625 C 2.023438 -14.929688 2 -15.414062 1.96875 -15.84375 L 5.90625 -15.84375 C 5.925781 -15.65625 5.960938 -15.15625 6.015625 -14.34375 C 6.066406 -13.539062 6.09375 -12.988281 6.09375 -12.6875 L 6.15625 -12.6875 C 6.707031 -13.90625 7.398438 -14.785156 8.234375 -15.328125 C 9.078125 -15.878906 10.082031 -16.15625 11.25 -16.15625 C 12.925781 -16.15625 14.210938 -15.632812 15.109375 -14.59375 C 16.003906 -13.5625 16.453125 -12.050781 16.453125 -10.0625 L 16.453125 0 Z M 12.359375 0 "/></g></g><g transform="translate(1032.319233, 194.095766)"><g><path d="M 2.09375 -18.703125 L 2.09375 -21.734375 L 6.203125 -21.734375 L 6.203125 -18.703125 Z M 2.09375 0 L 2.09375 -15.84375 L 6.203125 -15.84375 L 6.203125 0 Z M 2.09375 0 "/></g></g><g transform="translate(1040.649853, 194.095766)"><g><path d="M 8.703125 0.296875 C 6.296875 0.296875 4.4375 -0.414062 3.125 -1.84375 C 1.820312 -3.28125 1.171875 -5.273438 1.171875 -7.828125 C 1.171875 -10.441406 1.828125 -12.476562 3.140625 -13.9375 C 4.460938 -15.40625 6.332031 -16.140625 8.75 -16.140625 C 10.613281 -16.140625 12.15625 -15.671875 13.375 -14.734375 C 14.601562 -13.796875 15.375 -12.5 15.6875 -10.84375 L 11.53125 -10.640625 C 11.414062 -11.453125 11.125 -12.097656 10.65625 -12.578125 C 10.1875 -13.066406 9.523438 -13.3125 8.671875 -13.3125 C 6.546875 -13.3125 5.484375 -11.539062 5.484375 -8 C 5.484375 -4.34375 6.5625 -2.515625 8.71875 -2.515625 C 9.5 -2.515625 10.15625 -2.757812 10.6875 -3.25 C 11.21875 -3.75 11.546875 -4.488281 11.671875 -5.46875 L 15.796875 -5.265625 C 15.648438 -4.179688 15.257812 -3.210938 14.625 -2.359375 C 14 -1.515625 13.171875 -0.859375 12.140625 -0.390625 C 11.117188 0.0664062 9.972656 0.296875 8.703125 0.296875 Z M 8.703125 0.296875 "/></g></g><g transform="translate(1057.325732, 194.095766)"><g><path d="M 8.578125 0.296875 C 6.191406 0.296875 4.359375 -0.40625 3.078125 -1.8125 C 1.804688 -3.226562 1.171875 -5.289062 1.171875 -8 C 1.171875 -10.613281 1.816406 -12.625 3.109375 -14.03125 C 4.410156 -15.4375 6.253906 -16.140625 8.640625 -16.140625 C 10.910156 -16.140625 12.644531 -15.382812 13.84375 -13.875 C 15.050781 -12.363281 15.65625 -10.15625 15.65625 -7.25 L 15.65625 -7.125 L 5.484375 -7.125 C 5.484375 -5.582031 5.769531 -4.414062 6.34375 -3.625 C 6.914062 -2.84375 7.726562 -2.453125 8.78125 -2.453125 C 10.238281 -2.453125 11.15625 -3.082031 11.53125 -4.34375 L 15.421875 -4.015625 C 14.296875 -1.140625 12.015625 0.296875 8.578125 0.296875 Z M 8.578125 -13.546875 C 7.609375 -13.546875 6.863281 -13.207031 6.34375 -12.53125 C 5.820312 -11.851562 5.546875 -10.910156 5.515625 -9.703125 L 11.671875 -9.703125 C 11.585938 -10.984375 11.273438 -11.941406 10.734375 -12.578125 C 10.203125 -13.222656 9.484375 -13.546875 8.578125 -13.546875 Z M 8.578125 -13.546875 "/></g></g><g transform="translate(1074.001612, 194.095766)"><g/></g><g transform="translate(1082.332231, 194.095766)"><g><path d="M 12.359375 0 C 12.316406 -0.144531 12.269531 -0.507812 12.21875 -1.09375 C 12.164062 -1.6875 12.140625 -2.179688 12.140625 -2.578125 L 12.078125 -2.578125 C 11.191406 -0.660156 9.503906 0.296875 7.015625 0.296875 C 5.171875 0.296875 3.742188 -0.421875 2.734375 -1.859375 C 1.734375 -3.304688 1.234375 -5.320312 1.234375 -7.90625 C 1.234375 -10.53125 1.757812 -12.554688 2.8125 -13.984375 C 3.875 -15.421875 5.378906 -16.140625 7.328125 -16.140625 C 8.441406 -16.140625 9.40625 -15.90625 10.21875 -15.4375 C 11.039062 -14.96875 11.671875 -14.269531 12.109375 -13.34375 L 12.140625 -13.34375 L 12.109375 -15.9375 L 12.109375 -21.734375 L 16.21875 -21.734375 L 16.21875 -3.453125 C 16.21875 -2.472656 16.257812 -1.320312 16.34375 0 Z M 12.171875 -8.015625 C 12.171875 -9.722656 11.882812 -11.035156 11.3125 -11.953125 C 10.738281 -12.878906 9.894531 -13.34375 8.78125 -13.34375 C 7.675781 -13.34375 6.851562 -12.894531 6.3125 -12 C 5.78125 -11.101562 5.515625 -9.738281 5.515625 -7.90625 C 5.515625 -4.3125 6.59375 -2.515625 8.75 -2.515625 C 9.832031 -2.515625 10.671875 -2.988281 11.265625 -3.9375 C 11.867188 -4.894531 12.171875 -6.253906 12.171875 -8.015625 Z M 12.171875 -8.015625 "/></g></g><g transform="translate(1100.647881, 194.095766)"><g><path d="M 5.75 0.296875 C 4.21875 0.296875 3.019531 -0.117188 2.15625 -0.953125 C 1.300781 -1.785156 0.875 -2.960938 0.875 -4.484375 C 0.875 -6.117188 1.40625 -7.363281 2.46875 -8.21875 C 3.539062 -9.082031 5.09375 -9.523438 7.125 -9.546875 L 10.546875 -9.609375 L 10.546875 -10.40625 C 10.546875 -11.445312 10.363281 -12.21875 10 -12.71875 C 9.632812 -13.21875 9.046875 -13.46875 8.234375 -13.46875 C 7.472656 -13.46875 6.910156 -13.296875 6.546875 -12.953125 C 6.191406 -12.609375 5.972656 -12.035156 5.890625 -11.234375 L 1.59375 -11.4375 C 1.851562 -12.976562 2.554688 -14.144531 3.703125 -14.9375 C 4.859375 -15.738281 6.425781 -16.140625 8.40625 -16.140625 C 10.40625 -16.140625 11.945312 -15.644531 13.03125 -14.65625 C 14.113281 -13.664062 14.65625 -12.265625 14.65625 -10.453125 L 14.65625 -4.6875 C 14.65625 -3.800781 14.753906 -3.1875 14.953125 -2.84375 C 15.148438 -2.507812 15.484375 -2.34375 15.953125 -2.34375 C 16.265625 -2.34375 16.566406 -2.375 16.859375 -2.4375 L 16.859375 -0.203125 C 16.617188 -0.140625 16.398438 -0.0820312 16.203125 -0.03125 C 16.015625 0.0078125 15.820312 0.0390625 15.625 0.0625 C 15.425781 0.09375 15.21875 0.117188 15 0.140625 C 14.78125 0.160156 14.523438 0.171875 14.234375 0.171875 C 13.191406 0.171875 12.425781 -0.078125 11.9375 -0.578125 C 11.445312 -1.085938 11.148438 -1.835938 11.046875 -2.828125 L 10.96875 -2.828125 C 9.8125 -0.742188 8.070312 0.296875 5.75 0.296875 Z M 10.546875 -7.328125 L 8.4375 -7.3125 C 7.476562 -7.269531 6.796875 -7.160156 6.390625 -6.984375 C 5.992188 -6.816406 5.691406 -6.554688 5.484375 -6.203125 C 5.273438 -5.859375 5.171875 -5.390625 5.171875 -4.796875 C 5.171875 -4.046875 5.34375 -3.488281 5.6875 -3.125 C 6.03125 -2.757812 6.492188 -2.578125 7.078125 -2.578125 C 7.710938 -2.578125 8.296875 -2.75 8.828125 -3.09375 C 9.367188 -3.445312 9.789062 -3.929688 10.09375 -4.546875 C 10.394531 -5.171875 10.546875 -5.832031 10.546875 -6.53125 Z M 10.546875 -7.328125 "/></g></g><g transform="translate(1117.323761, 194.095766)"><g><path d="M 4.140625 6.21875 C 3.160156 6.21875 2.296875 6.15625 1.546875 6.03125 L 1.546875 3.109375 C 2.066406 3.179688 2.539062 3.21875 2.96875 3.21875 C 3.550781 3.21875 4.035156 3.125 4.421875 2.9375 C 4.804688 2.757812 5.148438 2.453125 5.453125 2.015625 C 5.765625 1.585938 6.113281 0.863281 6.5 -0.15625 L 0.234375 -15.84375 L 4.578125 -15.84375 L 7.078125 -8.421875 C 7.460938 -7.359375 7.953125 -5.726562 8.546875 -3.53125 L 8.921875 -4.921875 L 9.875 -8.359375 L 12.203125 -15.84375 L 16.515625 -15.84375 L 10.25 0.828125 C 9.40625 2.859375 8.53125 4.265625 7.625 5.046875 C 6.726562 5.828125 5.566406 6.21875 4.140625 6.21875 Z M 4.140625 6.21875 "/></g></g></g><g clip-path="url(#ec469cc90e)"><path fill="#d9d9d9" d="M 784.703125 225.980469 L 971.355469 225.980469 L 971.355469 293.445312 L 784.703125 293.445312 Z M 784.703125 225.980469 " fill-opacity="1" fill-rule="nonzero"/></g><g clip-path="url(#a10954ab0c)"><path fill="#f2f2f2" d="M 980.527344 225.980469 L 1167.179688 225.980469 L 1167.179688 293.445312 L 980.527344 293.445312 Z M 980.527344 225.980469 " fill-opacity="1" fill-rule="nonzero"/></g><g clip-path="url(#952646e21f)"><path fill="#d9d9d9" d="M 1176.355469 75.257812 L 1363.007812 75.257812 L 1363.007812 142.722656 L 1176.355469 142.722656 Z M 1176.355469 75.257812 " fill-opacity="1" fill-rule="nonzero"/></g><g clip-path="url(#61a77d798e)"><g mask="url(#3c648219b4)"><g transform="matrix(1, 0, 0, 1, 1176, 150)"><g clip-path="url(#a24b753883)"><g clip-path="url(#ebca99f7c9)"><path fill="#03e313" d="M 0.355469 0.617188 L 187.007812 0.617188 L 187.007812 68.082031 L 0.355469 68.082031 Z M 0.355469 0.617188 " fill-opacity="1" fill-rule="nonzero"/></g></g></g></g></g><g fill="#808080" fill-opacity="1"><g transform="translate(1226.507889, 194.095766)"><g><path d="M 2.09375 -18.703125 L 2.09375 -21.734375 L 6.203125 -21.734375 L 6.203125 -18.703125 Z M 2.09375 0 L 2.09375 -15.84375 L 6.203125 -15.84375 L 6.203125 0 Z M 2.09375 0 "/></g></g><g transform="translate(1234.838509, 194.095766)"><g><path d="M 12.359375 0 L 12.359375 -8.890625 C 12.359375 -11.671875 11.414062 -13.0625 9.53125 -13.0625 C 8.53125 -13.0625 7.722656 -12.632812 7.109375 -11.78125 C 6.503906 -10.925781 6.203125 -9.828125 6.203125 -8.484375 L 6.203125 0 L 2.09375 0 L 2.09375 -12.296875 C 2.09375 -13.148438 2.078125 -13.847656 2.046875 -14.390625 C 2.023438 -14.929688 2 -15.414062 1.96875 -15.84375 L 5.90625 -15.84375 C 5.925781 -15.65625 5.960938 -15.15625 6.015625 -14.34375 C 6.066406 -13.539062 6.09375 -12.988281 6.09375 -12.6875 L 6.15625 -12.6875 C 6.707031 -13.90625 7.398438 -14.785156 8.234375 -15.328125 C 9.078125 -15.878906 10.082031 -16.15625 11.25 -16.15625 C 12.925781 -16.15625 14.210938 -15.632812 15.109375 -14.59375 C 16.003906 -13.5625 16.453125 -12.050781 16.453125 -10.0625 L 16.453125 0 Z M 12.359375 0 "/></g></g><g transform="translate(1253.154159, 194.095766)"><g/></g><g transform="translate(1261.484778, 194.095766)"><g><path d="M 5.96875 -15.84375 L 5.96875 -6.953125 C 5.96875 -4.171875 6.90625 -2.78125 8.78125 -2.78125 C 9.78125 -2.78125 10.582031 -3.207031 11.1875 -4.0625 C 11.800781 -4.914062 12.109375 -6.007812 12.109375 -7.34375 L 12.109375 -15.84375 L 16.21875 -15.84375 L 16.21875 -3.546875 C 16.21875 -2.191406 16.257812 -1.007812 16.34375 0 L 12.421875 0 C 12.296875 -1.40625 12.234375 -2.453125 12.234375 -3.140625 L 12.171875 -3.140625 C 11.617188 -1.941406 10.921875 -1.066406 10.078125 -0.515625 C 9.234375 0.0234375 8.234375 0.296875 7.078125 0.296875 C 5.390625 0.296875 4.097656 -0.21875 3.203125 -1.25 C 2.304688 -2.28125 1.859375 -3.789062 1.859375 -5.78125 L 1.859375 -15.84375 Z M 5.96875 -15.84375 "/></g></g><g transform="translate(1279.800428, 194.095766)"><g><path d="M 15.453125 -4.625 C 15.453125 -3.09375 14.820312 -1.890625 13.5625 -1.015625 C 12.3125 -0.140625 10.578125 0.296875 8.359375 0.296875 C 6.179688 0.296875 4.515625 -0.046875 3.359375 -0.734375 C 2.203125 -1.421875 1.429688 -2.492188 1.046875 -3.953125 L 4.671875 -4.5 C 4.878906 -3.75 5.234375 -3.21875 5.734375 -2.90625 C 6.234375 -2.59375 7.109375 -2.4375 8.359375 -2.4375 C 9.515625 -2.4375 10.351562 -2.582031 10.875 -2.875 C 11.40625 -3.164062 11.671875 -3.625 11.671875 -4.25 C 11.671875 -4.75 11.457031 -5.148438 11.03125 -5.453125 C 10.601562 -5.753906 9.882812 -6.003906 8.875 -6.203125 C 6.550781 -6.660156 4.984375 -7.085938 4.171875 -7.484375 C 3.359375 -7.878906 2.738281 -8.390625 2.3125 -9.015625 C 1.894531 -9.648438 1.6875 -10.425781 1.6875 -11.34375 C 1.6875 -12.851562 2.269531 -14.03125 3.4375 -14.875 C 4.601562 -15.726562 6.253906 -16.15625 8.390625 -16.15625 C 10.273438 -16.15625 11.789062 -15.785156 12.9375 -15.046875 C 14.082031 -14.316406 14.796875 -13.257812 15.078125 -11.875 L 11.4375 -11.5 C 11.320312 -12.132812 11.03125 -12.609375 10.5625 -12.921875 C 10.101562 -13.242188 9.378906 -13.40625 8.390625 -13.40625 C 7.410156 -13.40625 6.675781 -13.28125 6.1875 -13.03125 C 5.707031 -12.789062 5.46875 -12.375 5.46875 -11.78125 C 5.46875 -11.320312 5.65625 -10.957031 6.03125 -10.6875 C 6.40625 -10.425781 7.035156 -10.207031 7.921875 -10.03125 C 9.160156 -9.769531 10.257812 -9.503906 11.21875 -9.234375 C 12.1875 -8.972656 12.957031 -8.65625 13.53125 -8.28125 C 14.113281 -7.914062 14.578125 -7.441406 14.921875 -6.859375 C 15.273438 -6.273438 15.453125 -5.53125 15.453125 -4.625 Z M 15.453125 -4.625 "/></g></g><g transform="translate(1296.476308, 194.095766)"><g><path d="M 5.75 0.296875 C 4.21875 0.296875 3.019531 -0.117188 2.15625 -0.953125 C 1.300781 -1.785156 0.875 -2.960938 0.875 -4.484375 C 0.875 -6.117188 1.40625 -7.363281 2.46875 -8.21875 C 3.539062 -9.082031 5.09375 -9.523438 7.125 -9.546875 L 10.546875 -9.609375 L 10.546875 -10.40625 C 10.546875 -11.445312 10.363281 -12.21875 10 -12.71875 C 9.632812 -13.21875 9.046875 -13.46875 8.234375 -13.46875 C 7.472656 -13.46875 6.910156 -13.296875 6.546875 -12.953125 C 6.191406 -12.609375 5.972656 -12.035156 5.890625 -11.234375 L 1.59375 -11.4375 C 1.851562 -12.976562 2.554688 -14.144531 3.703125 -14.9375 C 4.859375 -15.738281 6.425781 -16.140625 8.40625 -16.140625 C 10.40625 -16.140625 11.945312 -15.644531 13.03125 -14.65625 C 14.113281 -13.664062 14.65625 -12.265625 14.65625 -10.453125 L 14.65625 -4.6875 C 14.65625 -3.800781 14.753906 -3.1875 14.953125 -2.84375 C 15.148438 -2.507812 15.484375 -2.34375 15.953125 -2.34375 C 16.265625 -2.34375 16.566406 -2.375 16.859375 -2.4375 L 16.859375 -0.203125 C 16.617188 -0.140625 16.398438 -0.0820312 16.203125 -0.03125 C 16.015625 0.0078125 15.820312 0.0390625 15.625 0.0625 C 15.425781 0.09375 15.21875 0.117188 15 0.140625 C 14.78125 0.160156 14.523438 0.171875 14.234375 0.171875 C 13.191406 0.171875 12.425781 -0.078125 11.9375 -0.578125 C 11.445312 -1.085938 11.148438 -1.835938 11.046875 -2.828125 L 10.96875 -2.828125 C 9.8125 -0.742188 8.070312 0.296875 5.75 0.296875 Z M 10.546875 -7.328125 L 8.4375 -7.3125 C 7.476562 -7.269531 6.796875 -7.160156 6.390625 -6.984375 C 5.992188 -6.816406 5.691406 -6.554688 5.484375 -6.203125 C 5.273438 -5.859375 5.171875 -5.390625 5.171875 -4.796875 C 5.171875 -4.046875 5.34375 -3.488281 5.6875 -3.125 C 6.03125 -2.757812 6.492188 -2.578125 7.078125 -2.578125 C 7.710938 -2.578125 8.296875 -2.75 8.828125 -3.09375 C 9.367188 -3.445312 9.789062 -3.929688 10.09375 -4.546875 C 10.394531 -5.171875 10.546875 -5.832031 10.546875 -6.53125 Z M 10.546875 -7.328125 "/></g></g></g><g clip-path="url(#8278ab8f73)"><path fill="#f2f2f2" d="M 1176.355469 225.980469 L 1363.007812 225.980469 L 1363.007812 293.445312 L 1176.355469 293.445312 Z M 1176.355469 225.980469 " fill-opacity="1" fill-rule="nonzero"/></g><g clip-path="url(#d4c2480e33)"><g mask="url(#e816b6ae82)"><g transform="matrix(1, 0, 0, 1, 271, 153)"><g clip-path="url(#6f369b94c1)"><g clip-path="url(#4ee27b67ee)"><path fill="#ffc000" d="M 0.160156 0.953125 L 186.8125 0.953125 L 186.8125 68.417969 L 0.160156 68.417969 Z M 0.160156 0.953125 " fill-opacity="1" fill-rule="nonzero"/></g></g></g></g></g><g fill="#808080" fill-opacity="1"><g transform="translate(302.959272, 197.42923)"><g><path d="M 14.5625 0 L 5.578125 -15.890625 C 5.753906 -14.347656 5.84375 -13.109375 5.84375 -12.171875 L 5.84375 0 L 2 0 L 2 -20.625 L 6.9375 -20.625 L 16.0625 -4.609375 C 15.882812 -6.085938 15.796875 -7.429688 15.796875 -8.640625 L 15.796875 -20.625 L 19.640625 -20.625 L 19.640625 0 Z M 14.5625 0 "/></g></g><g transform="translate(324.613026, 197.42923)"><g><path d="M 2.09375 -18.703125 L 2.09375 -21.734375 L 6.203125 -21.734375 L 6.203125 -18.703125 Z M 2.09375 0 L 2.09375 -15.84375 L 6.203125 -15.84375 L 6.203125 0 Z M 2.09375 0 "/></g></g><g transform="translate(332.943646, 197.42923)"><g><path d="M 8.703125 0.296875 C 6.296875 0.296875 4.4375 -0.414062 3.125 -1.84375 C 1.820312 -3.28125 1.171875 -5.273438 1.171875 -7.828125 C 1.171875 -10.441406 1.828125 -12.476562 3.140625 -13.9375 C 4.460938 -15.40625 6.332031 -16.140625 8.75 -16.140625 C 10.613281 -16.140625 12.15625 -15.671875 13.375 -14.734375 C 14.601562 -13.796875 15.375 -12.5 15.6875 -10.84375 L 11.53125 -10.640625 C 11.414062 -11.453125 11.125 -12.097656 10.65625 -12.578125 C 10.1875 -13.066406 9.523438 -13.3125 8.671875 -13.3125 C 6.546875 -13.3125 5.484375 -11.539062 5.484375 -8 C 5.484375 -4.34375 6.5625 -2.515625 8.71875 -2.515625 C 9.5 -2.515625 10.15625 -2.757812 10.6875 -3.25 C 11.21875 -3.75 11.546875 -4.488281 11.671875 -5.46875 L 15.796875 -5.265625 C 15.648438 -4.179688 15.257812 -3.210938 14.625 -2.359375 C 14 -1.515625 13.171875 -0.859375 12.140625 -0.390625 C 11.117188 0.0664062 9.972656 0.296875 8.703125 0.296875 Z M 8.703125 0.296875 "/></g></g><g transform="translate(349.619525, 197.42923)"><g><path d="M 8.578125 0.296875 C 6.191406 0.296875 4.359375 -0.40625 3.078125 -1.8125 C 1.804688 -3.226562 1.171875 -5.289062 1.171875 -8 C 1.171875 -10.613281 1.816406 -12.625 3.109375 -14.03125 C 4.410156 -15.4375 6.253906 -16.140625 8.640625 -16.140625 C 10.910156 -16.140625 12.644531 -15.382812 13.84375 -13.875 C 15.050781 -12.363281 15.65625 -10.15625 15.65625 -7.25 L 15.65625 -7.125 L 5.484375 -7.125 C 5.484375 -5.582031 5.769531 -4.414062 6.34375 -3.625 C 6.914062 -2.84375 7.726562 -2.453125 8.78125 -2.453125 C 10.238281 -2.453125 11.15625 -3.082031 11.53125 -4.34375 L 15.421875 -4.015625 C 14.296875 -1.140625 12.015625 0.296875 8.578125 0.296875 Z M 8.578125 -13.546875 C 7.609375 -13.546875 6.863281 -13.207031 6.34375 -12.53125 C 5.820312 -11.851562 5.546875 -10.910156 5.515625 -9.703125 L 11.671875 -9.703125 C 11.585938 -10.984375 11.273438 -11.941406 10.734375 -12.578125 C 10.203125 -13.222656 9.484375 -13.546875 8.578125 -13.546875 Z M 8.578125 -13.546875 "/></g></g><g transform="translate(366.295405, 197.42923)"><g/></g><g transform="translate(374.626025, 197.42923)"><g><path d="M 12.359375 0 C 12.316406 -0.144531 12.269531 -0.507812 12.21875 -1.09375 C 12.164062 -1.6875 12.140625 -2.179688 12.140625 -2.578125 L 12.078125 -2.578125 C 11.191406 -0.660156 9.503906 0.296875 7.015625 0.296875 C 5.171875 0.296875 3.742188 -0.421875 2.734375 -1.859375 C 1.734375 -3.304688 1.234375 -5.320312 1.234375 -7.90625 C 1.234375 -10.53125 1.757812 -12.554688 2.8125 -13.984375 C 3.875 -15.421875 5.378906 -16.140625 7.328125 -16.140625 C 8.441406 -16.140625 9.40625 -15.90625 10.21875 -15.4375 C 11.039062 -14.96875 11.671875 -14.269531 12.109375 -13.34375 L 12.140625 -13.34375 L 12.109375 -15.9375 L 12.109375 -21.734375 L 16.21875 -21.734375 L 16.21875 -3.453125 C 16.21875 -2.472656 16.257812 -1.320312 16.34375 0 Z M 12.171875 -8.015625 C 12.171875 -9.722656 11.882812 -11.035156 11.3125 -11.953125 C 10.738281 -12.878906 9.894531 -13.34375 8.78125 -13.34375 C 7.675781 -13.34375 6.851562 -12.894531 6.3125 -12 C 5.78125 -11.101562 5.515625 -9.738281 5.515625 -7.90625 C 5.515625 -4.3125 6.59375 -2.515625 8.75 -2.515625 C 9.832031 -2.515625 10.671875 -2.988281 11.265625 -3.9375 C 11.867188 -4.894531 12.171875 -6.253906 12.171875 -8.015625 Z M 12.171875 -8.015625 "/></g></g><g transform="translate(392.941675, 197.42923)"><g><path d="M 5.75 0.296875 C 4.21875 0.296875 3.019531 -0.117188 2.15625 -0.953125 C 1.300781 -1.785156 0.875 -2.960938 0.875 -4.484375 C 0.875 -6.117188 1.40625 -7.363281 2.46875 -8.21875 C 3.539062 -9.082031 5.09375 -9.523438 7.125 -9.546875 L 10.546875 -9.609375 L 10.546875 -10.40625 C 10.546875 -11.445312 10.363281 -12.21875 10 -12.71875 C 9.632812 -13.21875 9.046875 -13.46875 8.234375 -13.46875 C 7.472656 -13.46875 6.910156 -13.296875 6.546875 -12.953125 C 6.191406 -12.609375 5.972656 -12.035156 5.890625 -11.234375 L 1.59375 -11.4375 C 1.851562 -12.976562 2.554688 -14.144531 3.703125 -14.9375 C 4.859375 -15.738281 6.425781 -16.140625 8.40625 -16.140625 C 10.40625 -16.140625 11.945312 -15.644531 13.03125 -14.65625 C 14.113281 -13.664062 14.65625 -12.265625 14.65625 -10.453125 L 14.65625 -4.6875 C 14.65625 -3.800781 14.753906 -3.1875 14.953125 -2.84375 C 15.148438 -2.507812 15.484375 -2.34375 15.953125 -2.34375 C 16.265625 -2.34375 16.566406 -2.375 16.859375 -2.4375 L 16.859375 -0.203125 C 16.617188 -0.140625 16.398438 -0.0820312 16.203125 -0.03125 C 16.015625 0.0078125 15.820312 0.0390625 15.625 0.0625 C 15.425781 0.09375 15.21875 0.117188 15 0.140625 C 14.78125 0.160156 14.523438 0.171875 14.234375 0.171875 C 13.191406 0.171875 12.425781 -0.078125 11.9375 -0.578125 C 11.445312 -1.085938 11.148438 -1.835938 11.046875 -2.828125 L 10.96875 -2.828125 C 9.8125 -0.742188 8.070312 0.296875 5.75 0.296875 Z M 10.546875 -7.328125 L 8.4375 -7.3125 C 7.476562 -7.269531 6.796875 -7.160156 6.390625 -6.984375 C 5.992188 -6.816406 5.691406 -6.554688 5.484375 -6.203125 C 5.273438 -5.859375 5.171875 -5.390625 5.171875 -4.796875 C 5.171875 -4.046875 5.34375 -3.488281 5.6875 -3.125 C 6.03125 -2.757812 6.492188 -2.578125 7.078125 -2.578125 C 7.710938 -2.578125 8.296875 -2.75 8.828125 -3.09375 C 9.367188 -3.445312 9.789062 -3.929688 10.09375 -4.546875 C 10.394531 -5.171875 10.546875 -5.832031 10.546875 -6.53125 Z M 10.546875 -7.328125 "/></g></g><g transform="translate(409.617554, 197.42923)"><g><path d="M 4.140625 6.21875 C 3.160156 6.21875 2.296875 6.15625 1.546875 6.03125 L 1.546875 3.109375 C 2.066406 3.179688 2.539062 3.21875 2.96875 3.21875 C 3.550781 3.21875 4.035156 3.125 4.421875 2.9375 C 4.804688 2.757812 5.148438 2.453125 5.453125 2.015625 C 5.765625 1.585938 6.113281 0.863281 6.5 -0.15625 L 0.234375 -15.84375 L 4.578125 -15.84375 L 7.078125 -8.421875 C 7.460938 -7.359375 7.953125 -5.726562 8.546875 -3.53125 L 8.921875 -4.921875 L 9.875 -8.359375 L 12.203125 -15.84375 L 16.515625 -15.84375 L 10.25 0.828125 C 9.40625 2.859375 8.53125 4.265625 7.625 5.046875 C 6.726562 5.828125 5.566406 6.21875 4.140625 6.21875 Z M 4.140625 6.21875 "/></g></g></g></svg>