<svg xmlns="http://www.w3.org/2000/svg" xmlns:xlink="http://www.w3.org/1999/xlink" width="1919" zoomAndPan="magnify" viewBox="0 0 1439.25 443.999984" height="592" preserveAspectRatio="xMidYMid meet" version="1.0"><defs><filter x="0%" y="0%" width="100%" height="100%" id="7a00d74070"><feColorMatrix values="0 0 0 0 1 0 0 0 0 1 0 0 0 0 1 0 0 0 1 0" color-interpolation-filters="sRGB"/></filter><g/><clipPath id="4849c21a59"><path d="M 75.332031 153.96875 L 262 153.96875 L 262 221.269531 L 75.332031 221.269531 Z M 75.332031 153.96875 " clip-rule="nonzero"/></clipPath><clipPath id="f7a90a74ef"><path d="M 271.160156 78.609375 L 458 78.609375 L 458 145.910156 L 271.160156 145.910156 Z M 271.160156 78.609375 " clip-rule="nonzero"/></clipPath><clipPath id="d41ba34536"><path d="M 75.332031 229.332031 L 262 229.332031 L 262 296.632812 L 75.332031 296.632812 Z M 75.332031 229.332031 " clip-rule="nonzero"/></clipPath><clipPath id="3747ae542c"><path d="M 271.160156 229.332031 L 458.105469 229.332031 L 458.105469 296.632812 L 271.160156 296.632812 Z M 271.160156 229.332031 " clip-rule="nonzero"/></clipPath><mask id="cda29cefa8"><g filter="url(#7a00d74070)"><rect x="-143.925" width="1727.1" fill="#000000" y="-44.399998" height="532.79998" fill-opacity="0.498"/></g></mask><clipPath id="1dab43094f"><path d="M 0.160156 0.332031 L 187 0.332031 L 187 67.632812 L 0.160156 67.632812 Z M 0.160156 0.332031 " clip-rule="nonzero"/></clipPath><clipPath id="62d2e59782"><rect x="0" width="188" y="0" height="68"/></clipPath><clipPath id="0fb4490f76"><path d="M 466.984375 78.609375 L 653.929688 78.609375 L 653.929688 145.910156 L 466.984375 145.910156 Z M 466.984375 78.609375 " clip-rule="nonzero"/></clipPath><clipPath id="88f6f3c597"><path d="M 466.984375 229.332031 L 653.929688 229.332031 L 653.929688 296.632812 L 466.984375 296.632812 Z M 466.984375 229.332031 " clip-rule="nonzero"/></clipPath><mask id="692bcfa41e"><g filter="url(#7a00d74070)"><rect x="-143.925" width="1727.1" fill="#000000" y="-44.399998" height="532.79998" fill-opacity="0.498"/></g></mask><clipPath id="84cf0c2b18"><path d="M 0.984375 0.332031 L 187.929688 0.332031 L 187.929688 67.632812 L 0.984375 67.632812 Z M 0.984375 0.332031 " clip-rule="nonzero"/></clipPath><clipPath id="4fed1ea38e"><rect x="0" width="188" y="0" height="68"/></clipPath><clipPath id="a6c5e22342"><path d="M 670.679688 153.96875 L 768.878906 153.96875 L 768.878906 216 L 670.679688 216 Z M 670.679688 153.96875 " clip-rule="nonzero"/></clipPath><clipPath id="4a0ccce0c4"><path d="M 670.679688 169.414062 L 737.554688 169.414062 L 737.554688 153.96875 L 768.4375 184.855469 L 737.554688 215.738281 L 737.554688 200.296875 L 670.679688 200.296875 L 670.679688 169.414062 " clip-rule="nonzero"/></clipPath><mask id="f05ed5af66"><g filter="url(#7a00d74070)"><rect x="-143.925" width="1727.1" fill="#000000" y="-44.399998" height="532.79998" fill-opacity="0.4"/></g></mask><clipPath id="5bb7f0a255"><path d="M 0.679688 0.96875 L 98.558594 0.96875 L 98.558594 62.761719 L 0.679688 62.761719 Z M 0.679688 0.96875 " clip-rule="nonzero"/></clipPath><clipPath id="80ead5db14"><path d="M 0.679688 16.414062 L 67.554688 16.414062 L 67.554688 0.96875 L 98.4375 31.855469 L 67.554688 62.738281 L 67.554688 47.296875 L 0.679688 47.296875 L 0.679688 16.414062 " clip-rule="nonzero"/></clipPath><clipPath id="81203e35e8"><rect x="0" width="99" y="0" height="63"/></clipPath><clipPath id="1cfef43b24"><path d="M 784.703125 150.636719 L 971.648438 150.636719 L 971.648438 217.9375 L 784.703125 217.9375 Z M 784.703125 150.636719 " clip-rule="nonzero"/></clipPath><clipPath id="e64566d112"><path d="M 980.527344 75.277344 L 1167.472656 75.277344 L 1167.472656 142.578125 L 980.527344 142.578125 Z M 980.527344 75.277344 " clip-rule="nonzero"/></clipPath><clipPath id="5eea196adc"><path d="M 980.527344 150.636719 L 1167.472656 150.636719 L 1167.472656 217.9375 L 980.527344 217.9375 Z M 980.527344 150.636719 " clip-rule="nonzero"/></clipPath><clipPath id="f544d4302e"><path d="M 784.703125 225.996094 L 971.648438 225.996094 L 971.648438 293.296875 L 784.703125 293.296875 Z M 784.703125 225.996094 " clip-rule="nonzero"/></clipPath><clipPath id="04c8ce99b3"><path d="M 980.527344 225.996094 L 1167.472656 225.996094 L 1167.472656 293.296875 L 980.527344 293.296875 Z M 980.527344 225.996094 " clip-rule="nonzero"/></clipPath><clipPath id="2dc1ef2045"><path d="M 1176.355469 75.277344 L 1363.300781 75.277344 L 1363.300781 142.578125 L 1176.355469 142.578125 Z M 1176.355469 75.277344 " clip-rule="nonzero"/></clipPath><clipPath id="bc8aa1655d"><path d="M 1176.355469 150.636719 L 1363.300781 150.636719 L 1363.300781 217.9375 L 1176.355469 217.9375 Z M 1176.355469 150.636719 " clip-rule="nonzero"/></clipPath><clipPath id="fb796800c2"><path d="M 1176.355469 225.996094 L 1363.300781 225.996094 L 1363.300781 293.296875 L 1176.355469 293.296875 Z M 1176.355469 225.996094 " clip-rule="nonzero"/></clipPath><clipPath id="7335c992cc"><path d="M 271.160156 153.96875 L 458.105469 153.96875 L 458.105469 221.269531 L 271.160156 221.269531 Z M 271.160156 153.96875 " clip-rule="nonzero"/></clipPath><mask id="51e4dd4598"><g filter="url(#7a00d74070)"><rect x="-143.925" width="1727.1" fill="#000000" y="-44.399998" height="532.79998" fill-opacity="0.498"/></g></mask><clipPath id="29a595102e"><path d="M 0.160156 0.96875 L 187 0.96875 L 187 68.269531 L 0.160156 68.269531 Z M 0.160156 0.96875 " clip-rule="nonzero"/></clipPath><clipPath id="bf5cd95d69"><rect x="0" width="188" y="0" height="69"/></clipPath><clipPath id="a4ff9a9d18"><path d="M 980.035156 301.359375 L 1166.980469 301.359375 L 1166.980469 368.65625 L 980.035156 368.65625 Z M 980.035156 301.359375 " clip-rule="nonzero"/></clipPath><mask id="f42dfaf1f5"><g filter="url(#7a00d74070)"><rect x="-143.925" width="1727.1" fill="#000000" y="-44.399998" height="532.79998" fill-opacity="0.498"/></g></mask><clipPath id="4a3f7bf8b7"><path d="M 0.0351562 0.359375 L 186.980469 0.359375 L 186.980469 67.65625 L 0.0351562 67.65625 Z M 0.0351562 0.359375 " clip-rule="nonzero"/></clipPath><clipPath id="572c245cb9"><rect x="0" width="187" y="0" height="68"/></clipPath><clipPath id="195ce0414e"><path d="M 466.984375 153.96875 L 653.929688 153.96875 L 653.929688 221.269531 L 466.984375 221.269531 Z M 466.984375 153.96875 " clip-rule="nonzero"/></clipPath><mask id="f72375bbff"><g filter="url(#7a00d74070)"><rect x="-143.925" width="1727.1" fill="#000000" y="-44.399998" height="532.79998" fill-opacity="0.498"/></g></mask><clipPath id="732008a6f0"><path d="M 0.984375 0.96875 L 187.929688 0.96875 L 187.929688 68.269531 L 0.984375 68.269531 Z M 0.984375 0.96875 " clip-rule="nonzero"/></clipPath><clipPath id="08625c21dd"><rect x="0" width="188" y="0" height="69"/></clipPath><clipPath id="541da5023e"><path d="M 1176.355469 301.359375 L 1363.300781 301.359375 L 1363.300781 368.65625 L 1176.355469 368.65625 Z M 1176.355469 301.359375 " clip-rule="nonzero"/></clipPath><mask id="87b61b033c"><g filter="url(#7a00d74070)"><rect x="-143.925" width="1727.1" fill="#000000" y="-44.399998" height="532.79998" fill-opacity="0.498"/></g></mask><clipPath id="73d077636a"><path d="M 0.355469 0.359375 L 187.300781 0.359375 L 187.300781 67.65625 L 0.355469 67.65625 Z M 0.355469 0.359375 " clip-rule="nonzero"/></clipPath><clipPath id="751948a76b"><rect x="0" width="188" y="0" height="68"/></clipPath></defs><g clip-path="url(#4849c21a59)"><path fill="#d9d9d9" d="M 75.332031 153.96875 L 261.988281 153.96875 L 261.988281 221.433594 L 75.332031 221.433594 Z M 75.332031 153.96875 " fill-opacity="1" fill-rule="nonzero"/></g><g clip-path="url(#f7a90a74ef)"><path fill="#d9d9d9" d="M 271.160156 78.609375 L 457.8125 78.609375 L 457.8125 146.074219 L 271.160156 146.074219 Z M 271.160156 78.609375 " fill-opacity="1" fill-rule="nonzero"/></g><g clip-path="url(#d41ba34536)"><path fill="#d9d9d9" d="M 75.332031 229.332031 L 261.988281 229.332031 L 261.988281 296.796875 L 75.332031 296.796875 Z M 75.332031 229.332031 " fill-opacity="1" fill-rule="nonzero"/></g><g clip-path="url(#3747ae542c)"><g mask="url(#cda29cefa8)"><g transform="matrix(1, 0, 0, 1, 271, 229)"><g clip-path="url(#62d2e59782)"><g clip-path="url(#1dab43094f)"><path fill="#ffc000" d="M 0.160156 0.332031 L 186.8125 0.332031 L 186.8125 67.796875 L 0.160156 67.796875 Z M 0.160156 0.332031 " fill-opacity="1" fill-rule="nonzero"/></g></g></g></g></g><g fill="#808080" fill-opacity="1"><g transform="translate(347.959376, 272.808504)"><g><path d="M 1.890625 0 L 1.890625 -3.0625 L 7 -3.0625 L 7 -17.125 L 2.046875 -14.046875 L 2.046875 -17.28125 L 7.21875 -20.625 L 11.109375 -20.625 L 11.109375 -3.0625 L 15.84375 -3.0625 L 15.84375 0 Z M 1.890625 0 "/></g></g><g transform="translate(364.635255, 272.808504)"><g><path d="M 15.84375 -6.859375 C 15.84375 -4.679688 15.160156 -2.941406 13.796875 -1.640625 C 12.429688 -0.347656 10.566406 0.296875 8.203125 0.296875 C 6.128906 0.296875 4.46875 -0.164062 3.21875 -1.09375 C 1.976562 -2.03125 1.210938 -3.382812 0.921875 -5.15625 L 5.03125 -5.484375 C 5.25 -4.609375 5.628906 -3.96875 6.171875 -3.5625 C 6.722656 -3.164062 7.414062 -2.96875 8.25 -2.96875 C 9.269531 -2.96875 10.082031 -3.296875 10.6875 -3.953125 C 11.300781 -4.609375 11.609375 -5.550781 11.609375 -6.78125 C 11.609375 -7.863281 11.316406 -8.726562 10.734375 -9.375 C 10.160156 -10.019531 9.359375 -10.34375 8.328125 -10.34375 C 7.191406 -10.34375 6.257812 -9.898438 5.53125 -9.015625 L 1.515625 -9.015625 L 2.234375 -20.625 L 14.640625 -20.625 L 14.640625 -17.5625 L 5.96875 -17.5625 L 5.640625 -12.359375 C 6.628906 -13.234375 7.875 -13.671875 9.375 -13.671875 C 11.332031 -13.671875 12.898438 -13.0625 14.078125 -11.84375 C 15.253906 -10.625 15.84375 -8.960938 15.84375 -6.859375 Z M 15.84375 -6.859375 "/></g></g></g><g clip-path="url(#0fb4490f76)"><path fill="#d9d9d9" d="M 466.984375 78.609375 L 653.636719 78.609375 L 653.636719 146.074219 L 466.984375 146.074219 Z M 466.984375 78.609375 " fill-opacity="1" fill-rule="nonzero"/></g><g clip-path="url(#88f6f3c597)"><g mask="url(#692bcfa41e)"><g transform="matrix(1, 0, 0, 1, 466, 229)"><g clip-path="url(#4fed1ea38e)"><g clip-path="url(#84cf0c2b18)"><path fill="#ffc000" d="M 0.984375 0.332031 L 187.636719 0.332031 L 187.636719 67.796875 L 0.984375 67.796875 Z M 0.984375 0.332031 " fill-opacity="1" fill-rule="nonzero"/></g></g></g></g></g><g fill="#808080" fill-opacity="1"><g transform="translate(543.784948, 272.808504)"><g><path d="M 13.765625 -4.203125 L 13.765625 0 L 9.84375 0 L 9.84375 -4.203125 L 0.453125 -4.203125 L 0.453125 -7.296875 L 9.171875 -20.625 L 13.765625 -20.625 L 13.765625 -7.265625 L 16.515625 -7.265625 L 16.515625 -4.203125 Z M 9.84375 -14.015625 C 9.84375 -14.535156 9.859375 -15.101562 9.890625 -15.71875 C 9.921875 -16.332031 9.945312 -16.726562 9.96875 -16.90625 C 9.71875 -16.363281 9.257812 -15.570312 8.59375 -14.53125 L 3.8125 -7.265625 L 9.84375 -7.265625 Z M 9.84375 -14.015625 "/></g></g><g transform="translate(560.460828, 272.808504)"><g><path d="M 15.359375 -17.359375 C 14.429688 -15.898438 13.554688 -14.484375 12.734375 -13.109375 C 11.910156 -11.734375 11.1875 -10.347656 10.5625 -8.953125 C 9.945312 -7.554688 9.460938 -6.125 9.109375 -4.65625 C 8.753906 -3.1875 8.578125 -1.632812 8.578125 0 L 4.296875 0 C 4.296875 -1.71875 4.519531 -3.378906 4.96875 -4.984375 C 5.414062 -6.585938 6.0625 -8.222656 6.90625 -9.890625 C 7.757812 -11.554688 9.300781 -14.007812 11.53125 -17.25 L 1.28125 -17.25 L 1.28125 -20.625 L 15.359375 -20.625 Z M 15.359375 -17.359375 "/></g></g></g><g clip-path="url(#a6c5e22342)"><g clip-path="url(#4a0ccce0c4)"><g mask="url(#f05ed5af66)"><g transform="matrix(1, 0, 0, 1, 670, 153)"><g clip-path="url(#81203e35e8)"><g clip-path="url(#5bb7f0a255)"><g clip-path="url(#80ead5db14)"><path fill="#03e313" d="M 0.679688 0.96875 L 98.128906 0.96875 L 98.128906 62.4375 L 0.679688 62.4375 Z M 0.679688 0.96875 " fill-opacity="1" fill-rule="nonzero"/></g></g></g></g></g></g></g><g clip-path="url(#1cfef43b24)"><path fill="#d9d9d9" d="M 784.703125 150.636719 L 971.355469 150.636719 L 971.355469 218.101562 L 784.703125 218.101562 Z M 784.703125 150.636719 " fill-opacity="1" fill-rule="nonzero"/></g><g clip-path="url(#e64566d112)"><path fill="#d9d9d9" d="M 980.527344 75.277344 L 1167.179688 75.277344 L 1167.179688 142.742188 L 980.527344 142.742188 Z M 980.527344 75.277344 " fill-opacity="1" fill-rule="nonzero"/></g><g clip-path="url(#5eea196adc)"><path fill="#f2f2f2" d="M 980.527344 150.636719 L 1167.179688 150.636719 L 1167.179688 218.101562 L 980.527344 218.101562 Z M 980.527344 150.636719 " fill-opacity="1" fill-rule="nonzero"/></g><g fill="#808080" fill-opacity="1"><g transform="translate(1065.668065, 194.114515)"><g><path d="M 1.890625 0 L 1.890625 -3.0625 L 7 -3.0625 L 7 -17.125 L 2.046875 -14.046875 L 2.046875 -17.28125 L 7.21875 -20.625 L 11.109375 -20.625 L 11.109375 -3.0625 L 15.84375 -3.0625 L 15.84375 0 Z M 1.890625 0 "/></g></g></g><g clip-path="url(#f544d4302e)"><path fill="#d9d9d9" d="M 784.703125 225.996094 L 971.355469 225.996094 L 971.355469 293.460938 L 784.703125 293.460938 Z M 784.703125 225.996094 " fill-opacity="1" fill-rule="nonzero"/></g><g clip-path="url(#04c8ce99b3)"><path fill="#f2f2f2" d="M 980.527344 225.996094 L 1167.179688 225.996094 L 1167.179688 293.460938 L 980.527344 293.460938 Z M 980.527344 225.996094 " fill-opacity="1" fill-rule="nonzero"/></g><g fill="#808080" fill-opacity="1"><g transform="translate(1057.328661, 269.47504)"><g><path d="M 1.890625 0 L 1.890625 -3.0625 L 7 -3.0625 L 7 -17.125 L 2.046875 -14.046875 L 2.046875 -17.28125 L 7.21875 -20.625 L 11.109375 -20.625 L 11.109375 -3.0625 L 15.84375 -3.0625 L 15.84375 0 Z M 1.890625 0 "/></g></g><g transform="translate(1074.00454, 269.47504)"><g><path d="M 15.84375 -6.859375 C 15.84375 -4.679688 15.160156 -2.941406 13.796875 -1.640625 C 12.429688 -0.347656 10.566406 0.296875 8.203125 0.296875 C 6.128906 0.296875 4.46875 -0.164062 3.21875 -1.09375 C 1.976562 -2.03125 1.210938 -3.382812 0.921875 -5.15625 L 5.03125 -5.484375 C 5.25 -4.609375 5.628906 -3.96875 6.171875 -3.5625 C 6.722656 -3.164062 7.414062 -2.96875 8.25 -2.96875 C 9.269531 -2.96875 10.082031 -3.296875 10.6875 -3.953125 C 11.300781 -4.609375 11.609375 -5.550781 11.609375 -6.78125 C 11.609375 -7.863281 11.316406 -8.726562 10.734375 -9.375 C 10.160156 -10.019531 9.359375 -10.34375 8.328125 -10.34375 C 7.191406 -10.34375 6.257812 -9.898438 5.53125 -9.015625 L 1.515625 -9.015625 L 2.234375 -20.625 L 14.640625 -20.625 L 14.640625 -17.5625 L 5.96875 -17.5625 L 5.640625 -12.359375 C 6.628906 -13.234375 7.875 -13.671875 9.375 -13.671875 C 11.332031 -13.671875 12.898438 -13.0625 14.078125 -11.84375 C 15.253906 -10.625 15.84375 -8.960938 15.84375 -6.859375 Z M 15.84375 -6.859375 "/></g></g></g><g clip-path="url(#2dc1ef2045)"><path fill="#d9d9d9" d="M 1176.355469 75.277344 L 1363.007812 75.277344 L 1363.007812 142.742188 L 1176.355469 142.742188 Z M 1176.355469 75.277344 " fill-opacity="1" fill-rule="nonzero"/></g><g clip-path="url(#bc8aa1655d)"><path fill="#f2f2f2" d="M 1176.355469 150.636719 L 1363.007812 150.636719 L 1363.007812 218.101562 L 1176.355469 218.101562 Z M 1176.355469 150.636719 " fill-opacity="1" fill-rule="nonzero"/></g><g fill="#808080" fill-opacity="1"><g transform="translate(1253.154159, 194.114515)"><g><path d="M 15.59375 -5.71875 C 15.59375 -3.789062 14.957031 -2.296875 13.6875 -1.234375 C 12.414062 -0.179688 10.609375 0.34375 8.265625 0.34375 C 6.054688 0.34375 4.296875 -0.164062 2.984375 -1.1875 C 1.679688 -2.207031 0.914062 -3.679688 0.6875 -5.609375 L 4.875 -5.96875 C 5.132812 -3.988281 6.257812 -3 8.25 -3 C 9.238281 -3 10.003906 -3.242188 10.546875 -3.734375 C 11.097656 -4.222656 11.375 -4.96875 11.375 -5.96875 C 11.375 -6.882812 11.039062 -7.585938 10.375 -8.078125 C 9.71875 -8.566406 8.734375 -8.8125 7.421875 -8.8125 L 5.984375 -8.8125 L 5.984375 -12.140625 L 7.328125 -12.140625 C 8.515625 -12.140625 9.40625 -12.378906 10 -12.859375 C 10.59375 -13.347656 10.890625 -14.039062 10.890625 -14.9375 C 10.890625 -15.78125 10.648438 -16.441406 10.171875 -16.921875 C 9.703125 -17.410156 9.015625 -17.65625 8.109375 -17.65625 C 7.265625 -17.65625 6.578125 -17.421875 6.046875 -16.953125 C 5.523438 -16.484375 5.226562 -15.820312 5.15625 -14.96875 L 1.046875 -15.25 C 1.253906 -17.03125 1.988281 -18.421875 3.25 -19.421875 C 4.507812 -20.429688 6.15625 -20.9375 8.1875 -20.9375 C 10.34375 -20.9375 12.023438 -20.445312 13.234375 -19.46875 C 14.453125 -18.5 15.0625 -17.160156 15.0625 -15.453125 C 15.0625 -14.160156 14.679688 -13.097656 13.921875 -12.265625 C 13.171875 -11.441406 12.082031 -10.890625 10.65625 -10.609375 L 10.65625 -10.5625 C 12.238281 -10.375 13.457031 -9.851562 14.3125 -9 C 15.164062 -8.144531 15.59375 -7.050781 15.59375 -5.71875 Z M 15.59375 -5.71875 "/></g></g><g transform="translate(1269.830039, 194.114515)"><g><path d="M 1.890625 0 L 1.890625 -3.0625 L 7 -3.0625 L 7 -17.125 L 2.046875 -14.046875 L 2.046875 -17.28125 L 7.21875 -20.625 L 11.109375 -20.625 L 11.109375 -3.0625 L 15.84375 -3.0625 L 15.84375 0 Z M 1.890625 0 "/></g></g></g><g clip-path="url(#fb796800c2)"><path fill="#f2f2f2" d="M 1176.355469 225.996094 L 1363.007812 225.996094 L 1363.007812 293.460938 L 1176.355469 293.460938 Z M 1176.355469 225.996094 " fill-opacity="1" fill-rule="nonzero"/></g><g fill="#808080" fill-opacity="1"><g transform="translate(1253.154159, 269.47504)"><g><path d="M 13.765625 -4.203125 L 13.765625 0 L 9.84375 0 L 9.84375 -4.203125 L 0.453125 -4.203125 L 0.453125 -7.296875 L 9.171875 -20.625 L 13.765625 -20.625 L 13.765625 -7.265625 L 16.515625 -7.265625 L 16.515625 -4.203125 Z M 9.84375 -14.015625 C 9.84375 -14.535156 9.859375 -15.101562 9.890625 -15.71875 C 9.921875 -16.332031 9.945312 -16.726562 9.96875 -16.90625 C 9.71875 -16.363281 9.257812 -15.570312 8.59375 -14.53125 L 3.8125 -7.265625 L 9.84375 -7.265625 Z M 9.84375 -14.015625 "/></g></g><g transform="translate(1269.830039, 269.47504)"><g><path d="M 15.359375 -17.359375 C 14.429688 -15.898438 13.554688 -14.484375 12.734375 -13.109375 C 11.910156 -11.734375 11.1875 -10.347656 10.5625 -8.953125 C 9.945312 -7.554688 9.460938 -6.125 9.109375 -4.65625 C 8.753906 -3.1875 8.578125 -1.632812 8.578125 0 L 4.296875 0 C 4.296875 -1.71875 4.519531 -3.378906 4.96875 -4.984375 C 5.414062 -6.585938 6.0625 -8.222656 6.90625 -9.890625 C 7.757812 -11.554688 9.300781 -14.007812 11.53125 -17.25 L 1.28125 -17.25 L 1.28125 -20.625 L 15.359375 -20.625 Z M 15.359375 -17.359375 "/></g></g></g><g clip-path="url(#7335c992cc)"><g mask="url(#51e4dd4598)"><g transform="matrix(1, 0, 0, 1, 271, 153)"><g clip-path="url(#bf5cd95d69)"><g clip-path="url(#29a595102e)"><path fill="#ffc000" d="M 0.160156 0.96875 L 186.8125 0.96875 L 186.8125 68.433594 L 0.160156 68.433594 Z M 0.160156 0.96875 " fill-opacity="1" fill-rule="nonzero"/></g></g></g></g></g><g fill="#808080" fill-opacity="1"><g transform="translate(356.298662, 197.447979)"><g><path d="M 1.890625 0 L 1.890625 -3.0625 L 7 -3.0625 L 7 -17.125 L 2.046875 -14.046875 L 2.046875 -17.28125 L 7.21875 -20.625 L 11.109375 -20.625 L 11.109375 -3.0625 L 15.84375 -3.0625 L 15.84375 0 Z M 1.890625 0 "/></g></g></g><g clip-path="url(#a4ff9a9d18)"><g mask="url(#f42dfaf1f5)"><g transform="matrix(1, 0, 0, 1, 980, 301)"><g clip-path="url(#572c245cb9)"><g clip-path="url(#4a3f7bf8b7)"><path fill="#03e313" d="M 0.0351562 0.359375 L 186.6875 0.359375 L 186.6875 67.824219 L 0.0351562 67.824219 Z M 0.0351562 0.359375 " fill-opacity="1" fill-rule="nonzero"/></g></g></g></g></g><g fill="#808080" fill-opacity="1"><g transform="translate(1065.173275, 344.835568)"><g><path d="M 1.890625 0 L 1.890625 -3.0625 L 7 -3.0625 L 7 -17.125 L 2.046875 -14.046875 L 2.046875 -17.28125 L 7.21875 -20.625 L 11.109375 -20.625 L 11.109375 -3.0625 L 15.84375 -3.0625 L 15.84375 0 Z M 1.890625 0 "/></g></g></g><g clip-path="url(#195ce0414e)"><g mask="url(#f72375bbff)"><g transform="matrix(1, 0, 0, 1, 466, 153)"><g clip-path="url(#08625c21dd)"><g clip-path="url(#732008a6f0)"><path fill="#ffc000" d="M 0.984375 0.96875 L 187.636719 0.96875 L 187.636719 68.433594 L 0.984375 68.433594 Z M 0.984375 0.96875 " fill-opacity="1" fill-rule="nonzero"/></g></g></g></g></g><g fill="#808080" fill-opacity="1"><g transform="translate(543.784948, 197.447979)"><g><path d="M 15.59375 -5.71875 C 15.59375 -3.789062 14.957031 -2.296875 13.6875 -1.234375 C 12.414062 -0.179688 10.609375 0.34375 8.265625 0.34375 C 6.054688 0.34375 4.296875 -0.164062 2.984375 -1.1875 C 1.679688 -2.207031 0.914062 -3.679688 0.6875 -5.609375 L 4.875 -5.96875 C 5.132812 -3.988281 6.257812 -3 8.25 -3 C 9.238281 -3 10.003906 -3.242188 10.546875 -3.734375 C 11.097656 -4.222656 11.375 -4.96875 11.375 -5.96875 C 11.375 -6.882812 11.039062 -7.585938 10.375 -8.078125 C 9.71875 -8.566406 8.734375 -8.8125 7.421875 -8.8125 L 5.984375 -8.8125 L 5.984375 -12.140625 L 7.328125 -12.140625 C 8.515625 -12.140625 9.40625 -12.378906 10 -12.859375 C 10.59375 -13.347656 10.890625 -14.039062 10.890625 -14.9375 C 10.890625 -15.78125 10.648438 -16.441406 10.171875 -16.921875 C 9.703125 -17.410156 9.015625 -17.65625 8.109375 -17.65625 C 7.265625 -17.65625 6.578125 -17.421875 6.046875 -16.953125 C 5.523438 -16.484375 5.226562 -15.820312 5.15625 -14.96875 L 1.046875 -15.25 C 1.253906 -17.03125 1.988281 -18.421875 3.25 -19.421875 C 4.507812 -20.429688 6.15625 -20.9375 8.1875 -20.9375 C 10.34375 -20.9375 12.023438 -20.445312 13.234375 -19.46875 C 14.453125 -18.5 15.0625 -17.160156 15.0625 -15.453125 C 15.0625 -14.160156 14.679688 -13.097656 13.921875 -12.265625 C 13.171875 -11.441406 12.082031 -10.890625 10.65625 -10.609375 L 10.65625 -10.5625 C 12.238281 -10.375 13.457031 -9.851562 14.3125 -9 C 15.164062 -8.144531 15.59375 -7.050781 15.59375 -5.71875 Z M 15.59375 -5.71875 "/></g></g><g transform="translate(560.460828, 197.447979)"><g><path d="M 1.890625 0 L 1.890625 -3.0625 L 7 -3.0625 L 7 -17.125 L 2.046875 -14.046875 L 2.046875 -17.28125 L 7.21875 -20.625 L 11.109375 -20.625 L 11.109375 -3.0625 L 15.84375 -3.0625 L 15.84375 0 Z M 1.890625 0 "/></g></g></g><g clip-path="url(#541da5023e)"><g mask="url(#87b61b033c)"><g transform="matrix(1, 0, 0, 1, 1176, 301)"><g clip-path="url(#751948a76b)"><g clip-path="url(#73d077636a)"><path fill="#03e313" d="M 0.355469 0.359375 L 187.007812 0.359375 L 187.007812 67.824219 L 0.355469 67.824219 Z M 0.355469 0.359375 " fill-opacity="1" fill-rule="nonzero"/></g></g></g></g></g><g fill="#808080" fill-opacity="1"><g transform="translate(1253.154159, 344.835568)"><g><path d="M 15.59375 -5.71875 C 15.59375 -3.789062 14.957031 -2.296875 13.6875 -1.234375 C 12.414062 -0.179688 10.609375 0.34375 8.265625 0.34375 C 6.054688 0.34375 4.296875 -0.164062 2.984375 -1.1875 C 1.679688 -2.207031 0.914062 -3.679688 0.6875 -5.609375 L 4.875 -5.96875 C 5.132812 -3.988281 6.257812 -3 8.25 -3 C 9.238281 -3 10.003906 -3.242188 10.546875 -3.734375 C 11.097656 -4.222656 11.375 -4.96875 11.375 -5.96875 C 11.375 -6.882812 11.039062 -7.585938 10.375 -8.078125 C 9.71875 -8.566406 8.734375 -8.8125 7.421875 -8.8125 L 5.984375 -8.8125 L 5.984375 -12.140625 L 7.328125 -12.140625 C 8.515625 -12.140625 9.40625 -12.378906 10 -12.859375 C 10.59375 -13.347656 10.890625 -14.039062 10.890625 -14.9375 C 10.890625 -15.78125 10.648438 -16.441406 10.171875 -16.921875 C 9.703125 -17.410156 9.015625 -17.65625 8.109375 -17.65625 C 7.265625 -17.65625 6.578125 -17.421875 6.046875 -16.953125 C 5.523438 -16.484375 5.226562 -15.820312 5.15625 -14.96875 L 1.046875 -15.25 C 1.253906 -17.03125 1.988281 -18.421875 3.25 -19.421875 C 4.507812 -20.429688 6.15625 -20.9375 8.1875 -20.9375 C 10.34375 -20.9375 12.023438 -20.445312 13.234375 -19.46875 C 14.453125 -18.5 15.0625 -17.160156 15.0625 -15.453125 C 15.0625 -14.160156 14.679688 -13.097656 13.921875 -12.265625 C 13.171875 -11.441406 12.082031 -10.890625 10.65625 -10.609375 L 10.65625 -10.5625 C 12.238281 -10.375 13.457031 -9.851562 14.3125 -9 C 15.164062 -8.144531 15.59375 -7.050781 15.59375 -5.71875 Z M 15.59375 -5.71875 "/></g></g><g transform="translate(1269.830039, 344.835568)"><g><path d="M 1.890625 0 L 1.890625 -3.0625 L 7 -3.0625 L 7 -17.125 L 2.046875 -14.046875 L 2.046875 -17.28125 L 7.21875 -20.625 L 11.109375 -20.625 L 11.109375 -3.0625 L 15.84375 -3.0625 L 15.84375 0 Z M 1.890625 0 "/></g></g></g></svg>