<svg xmlns="http://www.w3.org/2000/svg" xmlns:xlink="http://www.w3.org/1999/xlink" width="877" zoomAndPan="magnify" viewBox="0 0 657.75 449.249995" height="599" preserveAspectRatio="xMidYMid meet" version="1.0"><defs><filter x="0%" y="0%" width="100%" height="100%" id="3361d77f57"><feColorMatrix values="0 0 0 0 1 0 0 0 0 1 0 0 0 0 1 0 0 0 1 0" color-interpolation-filters="sRGB"/></filter><g/><clipPath id="f7dcd95aa1"><path d="M 127.230469 75.117188 L 242 75.117188 L 242 116.445312 L 127.230469 116.445312 Z M 127.230469 75.117188 " clip-rule="nonzero"/></clipPath><clipPath id="896241840c"><path d="M 246.296875 75.117188 L 352.472656 75.117188 L 352.472656 116.445312 L 246.296875 116.445312 Z M 246.296875 75.117188 " clip-rule="nonzero"/></clipPath><clipPath id="b4e96980c0"><path d="M 135.875 121.027344 L 242.050781 121.027344 L 242.050781 159.25 L 135.875 159.25 Z M 135.875 121.027344 " clip-rule="nonzero"/></clipPath><mask id="7d6f7bbd33"><g filter="url(#3361d77f57)"><rect x="-65.775" width="789.3" fill="#000000" y="-44.924999" height="539.099994" fill-opacity="0.498"/></g></mask><clipPath id="190e451521"><path d="M 0.875 0.0273438 L 107.050781 0.0273438 L 107.050781 38.25 L 0.875 38.25 Z M 0.875 0.0273438 " clip-rule="nonzero"/></clipPath><clipPath id="92f6467b2e"><rect x="0" width="108" y="0" height="39"/></clipPath><clipPath id="85ecb41541"><path d="M 246.296875 121.027344 L 352.472656 121.027344 L 352.472656 159.25 L 246.296875 159.25 Z M 246.296875 121.027344 " clip-rule="nonzero"/></clipPath><mask id="13aff8e6d0"><g filter="url(#3361d77f57)"><rect x="-65.775" width="789.3" fill="#000000" y="-44.924999" height="539.099994" fill-opacity="0.349"/></g></mask><clipPath id="bc7f60838b"><path d="M 0.296875 0.0273438 L 106.472656 0.0273438 L 106.472656 38.25 L 0.296875 38.25 Z M 0.296875 0.0273438 " clip-rule="nonzero"/></clipPath><clipPath id="6b7cbd395d"><rect x="0" width="107" y="0" height="39"/></clipPath><clipPath id="a42b944249"><path d="M 356.714844 75.117188 L 462.890625 75.117188 L 462.890625 116.445312 L 356.714844 116.445312 Z M 356.714844 75.117188 " clip-rule="nonzero"/></clipPath><clipPath id="f8d14c38ee"><path d="M 467.136719 75.117188 L 581.957031 75.117188 L 581.957031 116.445312 L 467.136719 116.445312 Z M 467.136719 75.117188 " clip-rule="nonzero"/></clipPath><clipPath id="e3cfee5b5d"><path d="M 356.714844 121.027344 L 462.890625 121.027344 L 462.890625 159.25 L 356.714844 159.25 Z M 356.714844 121.027344 " clip-rule="nonzero"/></clipPath><mask id="83316bc035"><g filter="url(#3361d77f57)"><rect x="-65.775" width="789.3" fill="#000000" y="-44.924999" height="539.099994" fill-opacity="0.349"/></g></mask><clipPath id="d9a60ba4a8"><path d="M 0.714844 0.0273438 L 106.890625 0.0273438 L 106.890625 38.25 L 0.714844 38.25 Z M 0.714844 0.0273438 " clip-rule="nonzero"/></clipPath><clipPath id="3e7e2dab08"><rect x="0" width="107" y="0" height="39"/></clipPath><clipPath id="82f7ab1a62"><path d="M 467.136719 121.027344 L 573.3125 121.027344 L 573.3125 159.25 L 467.136719 159.25 Z M 467.136719 121.027344 " clip-rule="nonzero"/></clipPath><mask id="1157710128"><g filter="url(#3361d77f57)"><rect x="-65.775" width="789.3" fill="#000000" y="-44.924999" height="539.099994" fill-opacity="0.349"/></g></mask><clipPath id="f3cb85a1f4"><path d="M 0.136719 0.0273438 L 106.3125 0.0273438 L 106.3125 38.25 L 0.136719 38.25 Z M 0.136719 0.0273438 " clip-rule="nonzero"/></clipPath><clipPath id="2689e8c96b"><rect x="0" width="107" y="0" height="39"/></clipPath><clipPath id="5e17303e1b"><path d="M 135.875 163.828125 L 242.050781 163.828125 L 242.050781 202.050781 L 135.875 202.050781 Z M 135.875 163.828125 " clip-rule="nonzero"/></clipPath><clipPath id="12bcc39161"><path d="M 246.296875 163.828125 L 352.472656 163.828125 L 352.472656 202.050781 L 246.296875 202.050781 Z M 246.296875 163.828125 " clip-rule="nonzero"/></clipPath><clipPath id="5f39d91453"><path d="M 135.875 206.628906 L 242.050781 206.628906 L 242.050781 244.851562 L 135.875 244.851562 Z M 135.875 206.628906 " clip-rule="nonzero"/></clipPath><clipPath id="7c67f2ece0"><path d="M 246.296875 206.628906 L 352.472656 206.628906 L 352.472656 244.851562 L 246.296875 244.851562 Z M 246.296875 206.628906 " clip-rule="nonzero"/></clipPath><clipPath id="12b7f19289"><path d="M 356.714844 163.828125 L 462.890625 163.828125 L 462.890625 202.050781 L 356.714844 202.050781 Z M 356.714844 163.828125 " clip-rule="nonzero"/></clipPath><clipPath id="05aa416564"><path d="M 467.136719 163.828125 L 573.3125 163.828125 L 573.3125 202.050781 L 467.136719 202.050781 Z M 467.136719 163.828125 " clip-rule="nonzero"/></clipPath><clipPath id="f32d22f9e4"><path d="M 356.714844 206.628906 L 462.890625 206.628906 L 462.890625 244.851562 L 356.714844 244.851562 Z M 356.714844 206.628906 " clip-rule="nonzero"/></clipPath><clipPath id="329dbe1e34"><path d="M 467.136719 206.628906 L 573.3125 206.628906 L 573.3125 244.851562 L 467.136719 244.851562 Z M 467.136719 206.628906 " clip-rule="nonzero"/></clipPath><clipPath id="2256c18748"><path d="M 135.875 249.425781 L 242.050781 249.425781 L 242.050781 287.648438 L 135.875 287.648438 Z M 135.875 249.425781 " clip-rule="nonzero"/></clipPath><clipPath id="25be50e919"><path d="M 246.296875 249.425781 L 352.472656 249.425781 L 352.472656 287.648438 L 246.296875 287.648438 Z M 246.296875 249.425781 " clip-rule="nonzero"/></clipPath><clipPath id="5b390e35db"><path d="M 356.714844 249.425781 L 462.890625 249.425781 L 462.890625 287.648438 L 356.714844 287.648438 Z M 356.714844 249.425781 " clip-rule="nonzero"/></clipPath><clipPath id="be65184dea"><path d="M 467.136719 249.425781 L 573.3125 249.425781 L 573.3125 287.648438 L 467.136719 287.648438 Z M 467.136719 249.425781 " clip-rule="nonzero"/></clipPath><clipPath id="ddab8d4e72"><path d="M 135.875 292.226562 L 242.050781 292.226562 L 242.050781 330.449219 L 135.875 330.449219 Z M 135.875 292.226562 " clip-rule="nonzero"/></clipPath><mask id="ce2f645d81"><g filter="url(#3361d77f57)"><rect x="-65.775" width="789.3" fill="#000000" y="-44.924999" height="539.099994" fill-opacity="0.498"/></g></mask><clipPath id="7d2aca6040"><path d="M 0.875 0.226562 L 107.050781 0.226562 L 107.050781 38.449219 L 0.875 38.449219 Z M 0.875 0.226562 " clip-rule="nonzero"/></clipPath><clipPath id="90961d415d"><rect x="0" width="108" y="0" height="39"/></clipPath><clipPath id="55a7e32320"><path d="M 246.296875 292.226562 L 352.472656 292.226562 L 352.472656 330.449219 L 246.296875 330.449219 Z M 246.296875 292.226562 " clip-rule="nonzero"/></clipPath><mask id="f2b8a7a5aa"><g filter="url(#3361d77f57)"><rect x="-65.775" width="789.3" fill="#000000" y="-44.924999" height="539.099994" fill-opacity="0.349"/></g></mask><clipPath id="429fcc2e6f"><path d="M 0.296875 0.226562 L 106.472656 0.226562 L 106.472656 38.449219 L 0.296875 38.449219 Z M 0.296875 0.226562 " clip-rule="nonzero"/></clipPath><clipPath id="52a319d331"><rect x="0" width="107" y="0" height="39"/></clipPath><clipPath id="3165829e97"><path d="M 356.714844 292.226562 L 462.890625 292.226562 L 462.890625 330.449219 L 356.714844 330.449219 Z M 356.714844 292.226562 " clip-rule="nonzero"/></clipPath><mask id="e8f5e1ba1e"><g filter="url(#3361d77f57)"><rect x="-65.775" width="789.3" fill="#000000" y="-44.924999" height="539.099994" fill-opacity="0.349"/></g></mask><clipPath id="4703ed4e6c"><path d="M 0.714844 0.226562 L 106.890625 0.226562 L 106.890625 38.449219 L 0.714844 38.449219 Z M 0.714844 0.226562 " clip-rule="nonzero"/></clipPath><clipPath id="50031afd55"><rect x="0" width="107" y="0" height="39"/></clipPath><clipPath id="bb3323f86f"><path d="M 467.136719 292.226562 L 573.3125 292.226562 L 573.3125 330.449219 L 467.136719 330.449219 Z M 467.136719 292.226562 " clip-rule="nonzero"/></clipPath><mask id="7691745732"><g filter="url(#3361d77f57)"><rect x="-65.775" width="789.3" fill="#000000" y="-44.924999" height="539.099994" fill-opacity="0.349"/></g></mask><clipPath id="e967f25295"><path d="M 0.136719 0.226562 L 106.3125 0.226562 L 106.3125 38.449219 L 0.136719 38.449219 Z M 0.136719 0.226562 " clip-rule="nonzero"/></clipPath><clipPath id="d0a3bcf0be"><rect x="0" width="107" y="0" height="39"/></clipPath><clipPath id="30fba14fa7"><path d="M 135.875 335.027344 L 242.050781 335.027344 L 242.050781 373.25 L 135.875 373.25 Z M 135.875 335.027344 " clip-rule="nonzero"/></clipPath><clipPath id="19d7c157be"><path d="M 246.296875 335.027344 L 352.472656 335.027344 L 352.472656 373.25 L 246.296875 373.25 Z M 246.296875 335.027344 " clip-rule="nonzero"/></clipPath><clipPath id="54b0731917"><path d="M 356.714844 335.027344 L 462.890625 335.027344 L 462.890625 373.25 L 356.714844 373.25 Z M 356.714844 335.027344 " clip-rule="nonzero"/></clipPath><clipPath id="0d3b39077d"><path d="M 467.136719 335.027344 L 573.3125 335.027344 L 573.3125 373.25 L 467.136719 373.25 Z M 467.136719 335.027344 " clip-rule="nonzero"/></clipPath></defs><g clip-path="url(#f7dcd95aa1)"><path fill="#d9d9d9" d="M 127.230469 75.117188 L 241.832031 75.117188 L 241.832031 116.3125 L 127.230469 116.3125 Z M 127.230469 75.117188 " fill-opacity="1" fill-rule="nonzero"/></g><g clip-path="url(#896241840c)"><path fill="#d9d9d9" d="M 246.296875 75.117188 L 352.660156 75.117188 L 352.660156 116.3125 L 246.296875 116.3125 Z M 246.296875 75.117188 " fill-opacity="1" fill-rule="nonzero"/></g><g clip-path="url(#b4e96980c0)"><g mask="url(#7d6f7bbd33)"><g transform="matrix(1, 0, 0, 1, 135, 121)"><g clip-path="url(#92f6467b2e)"><g clip-path="url(#190e451521)"><path fill="#03e313" d="M 0.875 0.0273438 L 107.238281 0.0273438 L 107.238281 38.226562 L 0.875 38.226562 Z M 0.875 0.0273438 " fill-opacity="1" fill-rule="nonzero"/></g></g></g></g></g><g clip-path="url(#85ecb41541)"><g mask="url(#13aff8e6d0)"><g transform="matrix(1, 0, 0, 1, 246, 121)"><g clip-path="url(#6b7cbd395d)"><g clip-path="url(#bc7f60838b)"><path fill="#03e313" d="M 0.296875 0.0273438 L 106.660156 0.0273438 L 106.660156 38.226562 L 0.296875 38.226562 Z M 0.296875 0.0273438 " fill-opacity="1" fill-rule="nonzero"/></g></g></g></g></g><g clip-path="url(#a42b944249)"><path fill="#d9d9d9" d="M 356.714844 75.117188 L 463.078125 75.117188 L 463.078125 116.3125 L 356.714844 116.3125 Z M 356.714844 75.117188 " fill-opacity="1" fill-rule="nonzero"/></g><g clip-path="url(#f8d14c38ee)"><path fill="#d9d9d9" d="M 467.136719 75.117188 L 581.738281 75.117188 L 581.738281 116.3125 L 467.136719 116.3125 Z M 467.136719 75.117188 " fill-opacity="1" fill-rule="nonzero"/></g><g clip-path="url(#e3cfee5b5d)"><g mask="url(#83316bc035)"><g transform="matrix(1, 0, 0, 1, 356, 121)"><g clip-path="url(#3e7e2dab08)"><g clip-path="url(#d9a60ba4a8)"><path fill="#03e313" d="M 0.714844 0.0273438 L 107.078125 0.0273438 L 107.078125 38.226562 L 0.714844 38.226562 Z M 0.714844 0.0273438 " fill-opacity="1" fill-rule="nonzero"/></g></g></g></g></g><g clip-path="url(#82f7ab1a62)"><g mask="url(#1157710128)"><g transform="matrix(1, 0, 0, 1, 467, 121)"><g clip-path="url(#2689e8c96b)"><g clip-path="url(#f3cb85a1f4)"><path fill="#03e313" d="M 0.136719 0.0273438 L 106.5 0.0273438 L 106.5 38.226562 L 0.136719 38.226562 Z M 0.136719 0.0273438 " fill-opacity="1" fill-rule="nonzero"/></g></g></g></g></g><g clip-path="url(#5e17303e1b)"><path fill="#d9d9d9" d="M 135.875 163.828125 L 242.238281 163.828125 L 242.238281 202.027344 L 135.875 202.027344 Z M 135.875 163.828125 " fill-opacity="1" fill-rule="nonzero"/></g><g clip-path="url(#12bcc39161)"><path fill="#f2f2f2" d="M 246.296875 163.828125 L 352.660156 163.828125 L 352.660156 202.027344 L 246.296875 202.027344 Z M 246.296875 163.828125 " fill-opacity="1" fill-rule="nonzero"/></g><g clip-path="url(#5f39d91453)"><path fill="#d9d9d9" d="M 135.875 206.628906 L 242.238281 206.628906 L 242.238281 244.828125 L 135.875 244.828125 Z M 135.875 206.628906 " fill-opacity="1" fill-rule="nonzero"/></g><g clip-path="url(#7c67f2ece0)"><path fill="#f2f2f2" d="M 246.296875 206.628906 L 352.660156 206.628906 L 352.660156 244.828125 L 246.296875 244.828125 Z M 246.296875 206.628906 " fill-opacity="1" fill-rule="nonzero"/></g><g clip-path="url(#12b7f19289)"><path fill="#f2f2f2" d="M 356.714844 163.828125 L 463.078125 163.828125 L 463.078125 202.027344 L 356.714844 202.027344 Z M 356.714844 163.828125 " fill-opacity="1" fill-rule="nonzero"/></g><g clip-path="url(#05aa416564)"><path fill="#f2f2f2" d="M 467.136719 163.828125 L 573.5 163.828125 L 573.5 202.027344 L 467.136719 202.027344 Z M 467.136719 163.828125 " fill-opacity="1" fill-rule="nonzero"/></g><g clip-path="url(#f32d22f9e4)"><path fill="#f2f2f2" d="M 356.714844 206.628906 L 463.078125 206.628906 L 463.078125 244.828125 L 356.714844 244.828125 Z M 356.714844 206.628906 " fill-opacity="1" fill-rule="nonzero"/></g><g clip-path="url(#329dbe1e34)"><path fill="#f2f2f2" d="M 467.136719 206.628906 L 573.5 206.628906 L 573.5 244.828125 L 467.136719 244.828125 Z M 467.136719 206.628906 " fill-opacity="1" fill-rule="nonzero"/></g><g clip-path="url(#2256c18748)"><path fill="#d9d9d9" d="M 135.875 249.425781 L 242.238281 249.425781 L 242.238281 287.628906 L 135.875 287.628906 Z M 135.875 249.425781 " fill-opacity="1" fill-rule="nonzero"/></g><g clip-path="url(#25be50e919)"><path fill="#f2f2f2" d="M 246.296875 249.425781 L 352.660156 249.425781 L 352.660156 287.628906 L 246.296875 287.628906 Z M 246.296875 249.425781 " fill-opacity="1" fill-rule="nonzero"/></g><g clip-path="url(#5b390e35db)"><path fill="#f2f2f2" d="M 356.714844 249.425781 L 463.078125 249.425781 L 463.078125 287.628906 L 356.714844 287.628906 Z M 356.714844 249.425781 " fill-opacity="1" fill-rule="nonzero"/></g><g clip-path="url(#be65184dea)"><path fill="#f2f2f2" d="M 467.136719 249.425781 L 573.5 249.425781 L 573.5 287.628906 L 467.136719 287.628906 Z M 467.136719 249.425781 " fill-opacity="1" fill-rule="nonzero"/></g><g clip-path="url(#ddab8d4e72)"><g mask="url(#ce2f645d81)"><g transform="matrix(1, 0, 0, 1, 135, 292)"><g clip-path="url(#90961d415d)"><g clip-path="url(#7d2aca6040)"><path fill="#03e313" d="M 0.875 0.226562 L 107.238281 0.226562 L 107.238281 38.425781 L 0.875 38.425781 Z M 0.875 0.226562 " fill-opacity="1" fill-rule="nonzero"/></g></g></g></g></g><g clip-path="url(#55a7e32320)"><g mask="url(#f2b8a7a5aa)"><g transform="matrix(1, 0, 0, 1, 246, 292)"><g clip-path="url(#52a319d331)"><g clip-path="url(#429fcc2e6f)"><path fill="#03e313" d="M 0.296875 0.226562 L 106.660156 0.226562 L 106.660156 38.425781 L 0.296875 38.425781 Z M 0.296875 0.226562 " fill-opacity="1" fill-rule="nonzero"/></g></g></g></g></g><g clip-path="url(#3165829e97)"><g mask="url(#e8f5e1ba1e)"><g transform="matrix(1, 0, 0, 1, 356, 292)"><g clip-path="url(#50031afd55)"><g clip-path="url(#4703ed4e6c)"><path fill="#03e313" d="M 0.714844 0.226562 L 107.078125 0.226562 L 107.078125 38.425781 L 0.714844 38.425781 Z M 0.714844 0.226562 " fill-opacity="1" fill-rule="nonzero"/></g></g></g></g></g><g clip-path="url(#bb3323f86f)"><g mask="url(#7691745732)"><g transform="matrix(1, 0, 0, 1, 467, 292)"><g clip-path="url(#d0a3bcf0be)"><g clip-path="url(#e967f25295)"><path fill="#03e313" d="M 0.136719 0.226562 L 106.5 0.226562 L 106.5 38.425781 L 0.136719 38.425781 Z M 0.136719 0.226562 " fill-opacity="1" fill-rule="nonzero"/></g></g></g></g></g><g clip-path="url(#30fba14fa7)"><path fill="#d9d9d9" d="M 135.875 335.027344 L 242.238281 335.027344 L 242.238281 373.226562 L 135.875 373.226562 Z M 135.875 335.027344 " fill-opacity="1" fill-rule="nonzero"/></g><g clip-path="url(#19d7c157be)"><path fill="#f2f2f2" d="M 246.296875 335.027344 L 352.660156 335.027344 L 352.660156 373.226562 L 246.296875 373.226562 Z M 246.296875 335.027344 " fill-opacity="1" fill-rule="nonzero"/></g><g clip-path="url(#54b0731917)"><path fill="#f2f2f2" d="M 356.714844 335.027344 L 463.078125 335.027344 L 463.078125 373.226562 L 356.714844 373.226562 Z M 356.714844 335.027344 " fill-opacity="1" fill-rule="nonzero"/></g><g clip-path="url(#0d3b39077d)"><path fill="#f2f2f2" d="M 467.136719 335.027344 L 573.5 335.027344 L 573.5 373.226562 L 467.136719 373.226562 Z M 467.136719 335.027344 " fill-opacity="1" fill-rule="nonzero"/></g><g fill="#767171" fill-opacity="1"><g transform="translate(75.953505, 147.418621)"><g><path d="M 5.96875 -10.453125 C 6.3125 -10.453125 6.570312 -10.171875 6.75 -9.609375 C 7.09375 -8.554688 7.34375 -8.03125 7.5 -8.03125 C 7.601562 -8.03125 7.71875 -8.117188 7.84375 -8.296875 C 10.3125 -11.921875 12.597656 -14.5 14.703125 -16.03125 C 15.585938 -16.6875 16.453125 -17.015625 17.296875 -17.015625 C 18.410156 -17.015625 19.082031 -16.976562 19.3125 -16.90625 C 19.40625 -16.882812 19.453125 -16.773438 19.453125 -16.578125 C 19.453125 -16.421875 19.347656 -16.222656 19.140625 -15.984375 C 13.492188 -9.503906 10.132812 -5.289062 9.0625 -3.34375 C 8.6875 -2.675781 7.832031 -2.34375 6.5 -2.34375 C 6.0625 -2.34375 5.601562 -2.457031 5.125 -2.6875 C 4.914062 -2.789062 4.5625 -3.460938 4.0625 -4.703125 C 3.4375 -6.265625 3.125 -7.632812 3.125 -8.8125 C 3.125 -9.238281 3.429688 -9.59375 4.046875 -9.875 C 4.890625 -10.257812 5.519531 -10.453125 5.9375 -10.453125 Z M 5.96875 -10.453125 "/></g></g></g><g fill="#767171" fill-opacity="1"><g transform="translate(75.953387, 321.289491)"><g><path d="M 5.96875 -10.453125 C 6.3125 -10.453125 6.570312 -10.171875 6.75 -9.609375 C 7.09375 -8.554688 7.34375 -8.03125 7.5 -8.03125 C 7.601562 -8.03125 7.71875 -8.117188 7.84375 -8.296875 C 10.3125 -11.921875 12.597656 -14.5 14.703125 -16.03125 C 15.585938 -16.6875 16.453125 -17.015625 17.296875 -17.015625 C 18.410156 -17.015625 19.082031 -16.976562 19.3125 -16.90625 C 19.40625 -16.882812 19.453125 -16.773438 19.453125 -16.578125 C 19.453125 -16.421875 19.347656 -16.222656 19.140625 -15.984375 C 13.492188 -9.503906 10.132812 -5.289062 9.0625 -3.34375 C 8.6875 -2.675781 7.832031 -2.34375 6.5 -2.34375 C 6.0625 -2.34375 5.601562 -2.457031 5.125 -2.6875 C 4.914062 -2.789062 4.5625 -3.460938 4.0625 -4.703125 C 3.4375 -6.265625 3.125 -7.632812 3.125 -8.8125 C 3.125 -9.238281 3.429688 -9.59375 4.046875 -9.875 C 4.890625 -10.257812 5.519531 -10.453125 5.9375 -10.453125 Z M 5.96875 -10.453125 "/></g></g></g></svg>