<svg xmlns="http://www.w3.org/2000/svg" xmlns:xlink="http://www.w3.org/1999/xlink" width="877" zoomAndPan="magnify" viewBox="0 0 657.75 450.749984" height="601" preserveAspectRatio="xMidYMid meet" version="1.0"><defs><filter x="0%" y="0%" width="100%" height="100%" id="c214fe3304"><feColorMatrix values="0 0 0 0 1 0 0 0 0 1 0 0 0 0 1 0 0 0 1 0" color-interpolation-filters="sRGB"/></filter><g/><clipPath id="cc2e3eca58"><path d="M 127.003906 75.199219 L 241.953125 75.199219 L 241.953125 116.578125 L 127.003906 116.578125 Z M 127.003906 75.199219 " clip-rule="nonzero"/></clipPath><clipPath id="85dec18b9f"><path d="M 246.203125 75.199219 L 352.496094 75.199219 L 352.496094 116.578125 L 246.203125 116.578125 Z M 246.203125 75.199219 " clip-rule="nonzero"/></clipPath><clipPath id="a00dacce62"><path d="M 135.660156 121.164062 L 241.953125 121.164062 L 241.953125 159.429688 L 135.660156 159.429688 Z M 135.660156 121.164062 " clip-rule="nonzero"/></clipPath><clipPath id="f1111c170e"><path d="M 246.203125 121.164062 L 352.496094 121.164062 L 352.496094 159.429688 L 246.203125 159.429688 Z M 246.203125 121.164062 " clip-rule="nonzero"/></clipPath><clipPath id="5e153db1f1"><path d="M 356.746094 75.199219 L 463.042969 75.199219 L 463.042969 116.578125 L 356.746094 116.578125 Z M 356.746094 75.199219 " clip-rule="nonzero"/></clipPath><clipPath id="7789594768"><path d="M 467.292969 75.199219 L 582.238281 75.199219 L 582.238281 116.578125 L 467.292969 116.578125 Z M 467.292969 75.199219 " clip-rule="nonzero"/></clipPath><clipPath id="f7b60d3f64"><path d="M 356.746094 121.164062 L 463.042969 121.164062 L 463.042969 159.429688 L 356.746094 159.429688 Z M 356.746094 121.164062 " clip-rule="nonzero"/></clipPath><clipPath id="d7adad16e4"><path d="M 467.292969 121.164062 L 573.585938 121.164062 L 573.585938 159.429688 L 467.292969 159.429688 Z M 467.292969 121.164062 " clip-rule="nonzero"/></clipPath><clipPath id="9cdab436a1"><path d="M 135.660156 164.011719 L 241.953125 164.011719 L 241.953125 202.277344 L 135.660156 202.277344 Z M 135.660156 164.011719 " clip-rule="nonzero"/></clipPath><mask id="ffb87586ab"><g filter="url(#c214fe3304)"><rect x="-65.775" width="789.3" fill="#000000" y="-45.074998" height="540.89998" fill-opacity="0.498"/></g></mask><clipPath id="cf09028da4"><path d="M 0.660156 0.0117188 L 106.953125 0.0117188 L 106.953125 38.277344 L 0.660156 38.277344 Z M 0.660156 0.0117188 " clip-rule="nonzero"/></clipPath><clipPath id="2ca2fd2513"><rect x="0" width="107" y="0" height="39"/></clipPath><clipPath id="d3bd9380a2"><path d="M 246.203125 164.011719 L 352.496094 164.011719 L 352.496094 202.277344 L 246.203125 202.277344 Z M 246.203125 164.011719 " clip-rule="nonzero"/></clipPath><mask id="7c7c04c041"><g filter="url(#c214fe3304)"><rect x="-65.775" width="789.3" fill="#000000" y="-45.074998" height="540.89998" fill-opacity="0.349"/></g></mask><clipPath id="05b324c9ab"><path d="M 0.203125 0.0117188 L 106.496094 0.0117188 L 106.496094 38.277344 L 0.203125 38.277344 Z M 0.203125 0.0117188 " clip-rule="nonzero"/></clipPath><clipPath id="c7cbdcfe8d"><rect x="0" width="107" y="0" height="39"/></clipPath><clipPath id="bd56410f1d"><path d="M 135.660156 206.859375 L 241.953125 206.859375 L 241.953125 245.125 L 135.660156 245.125 Z M 135.660156 206.859375 " clip-rule="nonzero"/></clipPath><clipPath id="f64a52e1af"><path d="M 246.203125 206.859375 L 352.496094 206.859375 L 352.496094 245.125 L 246.203125 245.125 Z M 246.203125 206.859375 " clip-rule="nonzero"/></clipPath><clipPath id="dc8023048a"><path d="M 356.746094 164.011719 L 463.042969 164.011719 L 463.042969 202.277344 L 356.746094 202.277344 Z M 356.746094 164.011719 " clip-rule="nonzero"/></clipPath><mask id="a807e32aba"><g filter="url(#c214fe3304)"><rect x="-65.775" width="789.3" fill="#000000" y="-45.074998" height="540.89998" fill-opacity="0.349"/></g></mask><clipPath id="1449ede8bd"><path d="M 0.746094 0.0117188 L 107.042969 0.0117188 L 107.042969 38.277344 L 0.746094 38.277344 Z M 0.746094 0.0117188 " clip-rule="nonzero"/></clipPath><clipPath id="0f68894e14"><rect x="0" width="108" y="0" height="39"/></clipPath><clipPath id="dd7d229c4b"><path d="M 467.292969 164.011719 L 573.585938 164.011719 L 573.585938 202.277344 L 467.292969 202.277344 Z M 467.292969 164.011719 " clip-rule="nonzero"/></clipPath><mask id="821e5fc75b"><g filter="url(#c214fe3304)"><rect x="-65.775" width="789.3" fill="#000000" y="-45.074998" height="540.89998" fill-opacity="0.349"/></g></mask><clipPath id="11ad849067"><path d="M 0.292969 0.0117188 L 106.585938 0.0117188 L 106.585938 38.277344 L 0.292969 38.277344 Z M 0.292969 0.0117188 " clip-rule="nonzero"/></clipPath><clipPath id="542d834c42"><rect x="0" width="107" y="0" height="39"/></clipPath><clipPath id="c11882c8c1"><path d="M 356.746094 206.859375 L 463.042969 206.859375 L 463.042969 245.125 L 356.746094 245.125 Z M 356.746094 206.859375 " clip-rule="nonzero"/></clipPath><clipPath id="1dbac63796"><path d="M 467.292969 206.859375 L 573.585938 206.859375 L 573.585938 245.125 L 467.292969 245.125 Z M 467.292969 206.859375 " clip-rule="nonzero"/></clipPath><clipPath id="b404a72063"><path d="M 135.660156 249.703125 L 241.953125 249.703125 L 241.953125 287.972656 L 135.660156 287.972656 Z M 135.660156 249.703125 " clip-rule="nonzero"/></clipPath><mask id="b20091373b"><g filter="url(#c214fe3304)"><rect x="-65.775" width="789.3" fill="#000000" y="-45.074998" height="540.89998" fill-opacity="0.498"/></g></mask><clipPath id="b8f35a17d5"><path d="M 0.660156 0.703125 L 106.953125 0.703125 L 106.953125 38.972656 L 0.660156 38.972656 Z M 0.660156 0.703125 " clip-rule="nonzero"/></clipPath><clipPath id="f27459692c"><rect x="0" width="107" y="0" height="39"/></clipPath><clipPath id="5de8a2441b"><path d="M 246.203125 249.703125 L 352.496094 249.703125 L 352.496094 287.972656 L 246.203125 287.972656 Z M 246.203125 249.703125 " clip-rule="nonzero"/></clipPath><mask id="972f2083c3"><g filter="url(#c214fe3304)"><rect x="-65.775" width="789.3" fill="#000000" y="-45.074998" height="540.89998" fill-opacity="0.349"/></g></mask><clipPath id="7de40530fb"><path d="M 0.203125 0.703125 L 106.496094 0.703125 L 106.496094 38.972656 L 0.203125 38.972656 Z M 0.203125 0.703125 " clip-rule="nonzero"/></clipPath><clipPath id="85c3c1bb28"><rect x="0" width="107" y="0" height="39"/></clipPath><clipPath id="6affea185e"><path d="M 356.746094 249.703125 L 463.042969 249.703125 L 463.042969 287.972656 L 356.746094 287.972656 Z M 356.746094 249.703125 " clip-rule="nonzero"/></clipPath><mask id="d9e3f55508"><g filter="url(#c214fe3304)"><rect x="-65.775" width="789.3" fill="#000000" y="-45.074998" height="540.89998" fill-opacity="0.349"/></g></mask><clipPath id="9b170f88c5"><path d="M 0.746094 0.703125 L 107.042969 0.703125 L 107.042969 38.972656 L 0.746094 38.972656 Z M 0.746094 0.703125 " clip-rule="nonzero"/></clipPath><clipPath id="5242d8caef"><rect x="0" width="108" y="0" height="39"/></clipPath><clipPath id="844030dd24"><path d="M 467.292969 249.703125 L 573.585938 249.703125 L 573.585938 287.972656 L 467.292969 287.972656 Z M 467.292969 249.703125 " clip-rule="nonzero"/></clipPath><mask id="1590c25b37"><g filter="url(#c214fe3304)"><rect x="-65.775" width="789.3" fill="#000000" y="-45.074998" height="540.89998" fill-opacity="0.349"/></g></mask><clipPath id="03f4fac654"><path d="M 0.292969 0.703125 L 106.585938 0.703125 L 106.585938 38.972656 L 0.292969 38.972656 Z M 0.292969 0.703125 " clip-rule="nonzero"/></clipPath><clipPath id="1e066ffaf8"><rect x="0" width="107" y="0" height="39"/></clipPath><clipPath id="6f4eb7844e"><path d="M 135.660156 292.550781 L 241.953125 292.550781 L 241.953125 330.816406 L 135.660156 330.816406 Z M 135.660156 292.550781 " clip-rule="nonzero"/></clipPath><clipPath id="4b29b0fdb9"><path d="M 246.203125 292.550781 L 352.496094 292.550781 L 352.496094 330.816406 L 246.203125 330.816406 Z M 246.203125 292.550781 " clip-rule="nonzero"/></clipPath><clipPath id="0eabc71cdd"><path d="M 356.746094 292.550781 L 463.042969 292.550781 L 463.042969 330.816406 L 356.746094 330.816406 Z M 356.746094 292.550781 " clip-rule="nonzero"/></clipPath><clipPath id="43928543e8"><path d="M 467.292969 292.550781 L 573.585938 292.550781 L 573.585938 330.816406 L 467.292969 330.816406 Z M 467.292969 292.550781 " clip-rule="nonzero"/></clipPath><clipPath id="c2aa4b91ba"><path d="M 135.660156 335.398438 L 241.953125 335.398438 L 241.953125 373.664062 L 135.660156 373.664062 Z M 135.660156 335.398438 " clip-rule="nonzero"/></clipPath><mask id="d94d85940f"><g filter="url(#c214fe3304)"><rect x="-65.775" width="789.3" fill="#000000" y="-45.074998" height="540.89998" fill-opacity="0.498"/></g></mask><clipPath id="482ad45d65"><path d="M 0.660156 0.398438 L 106.953125 0.398438 L 106.953125 38.664062 L 0.660156 38.664062 Z M 0.660156 0.398438 " clip-rule="nonzero"/></clipPath><clipPath id="e5a2fc66bc"><rect x="0" width="107" y="0" height="39"/></clipPath><clipPath id="5a145b880b"><path d="M 246.203125 335.398438 L 352.496094 335.398438 L 352.496094 373.664062 L 246.203125 373.664062 Z M 246.203125 335.398438 " clip-rule="nonzero"/></clipPath><mask id="6a2801c813"><g filter="url(#c214fe3304)"><rect x="-65.775" width="789.3" fill="#000000" y="-45.074998" height="540.89998" fill-opacity="0.349"/></g></mask><clipPath id="9c6023b89f"><path d="M 0.203125 0.398438 L 106.496094 0.398438 L 106.496094 38.664062 L 0.203125 38.664062 Z M 0.203125 0.398438 " clip-rule="nonzero"/></clipPath><clipPath id="9be6b966bd"><rect x="0" width="107" y="0" height="39"/></clipPath><clipPath id="8017bb8f38"><path d="M 356.746094 335.398438 L 463.042969 335.398438 L 463.042969 373.664062 L 356.746094 373.664062 Z M 356.746094 335.398438 " clip-rule="nonzero"/></clipPath><mask id="7e38de6805"><g filter="url(#c214fe3304)"><rect x="-65.775" width="789.3" fill="#000000" y="-45.074998" height="540.89998" fill-opacity="0.349"/></g></mask><clipPath id="a68af06ec7"><path d="M 0.746094 0.398438 L 107.042969 0.398438 L 107.042969 38.664062 L 0.746094 38.664062 Z M 0.746094 0.398438 " clip-rule="nonzero"/></clipPath><clipPath id="d389f69a7e"><rect x="0" width="108" y="0" height="39"/></clipPath><clipPath id="672b87783b"><path d="M 467.292969 335.398438 L 573.585938 335.398438 L 573.585938 373.664062 L 467.292969 373.664062 Z M 467.292969 335.398438 " clip-rule="nonzero"/></clipPath><mask id="83fb7f996d"><g filter="url(#c214fe3304)"><rect x="-65.775" width="789.3" fill="#000000" y="-45.074998" height="540.89998" fill-opacity="0.349"/></g></mask><clipPath id="8cc9fab553"><path d="M 0.292969 0.398438 L 106.585938 0.398438 L 106.585938 38.664062 L 0.292969 38.664062 Z M 0.292969 0.398438 " clip-rule="nonzero"/></clipPath><clipPath id="8972f57e58"><rect x="0" width="107" y="0" height="39"/></clipPath></defs><g clip-path="url(#cc2e3eca58)"><path fill="#d9d9d9" d="M 127.003906 75.199219 L 241.734375 75.199219 L 241.734375 116.441406 L 127.003906 116.441406 Z M 127.003906 75.199219 " fill-opacity="1" fill-rule="nonzero"/></g><g clip-path="url(#85dec18b9f)"><path fill="#d9d9d9" d="M 246.203125 75.199219 L 352.683594 75.199219 L 352.683594 116.441406 L 246.203125 116.441406 Z M 246.203125 75.199219 " fill-opacity="1" fill-rule="nonzero"/></g><g clip-path="url(#a00dacce62)"><path fill="#d9d9d9" d="M 135.660156 121.164062 L 242.140625 121.164062 L 242.140625 159.40625 L 135.660156 159.40625 Z M 135.660156 121.164062 " fill-opacity="1" fill-rule="nonzero"/></g><g clip-path="url(#f1111c170e)"><path fill="#f2f2f2" d="M 246.203125 121.164062 L 352.683594 121.164062 L 352.683594 159.40625 L 246.203125 159.40625 Z M 246.203125 121.164062 " fill-opacity="1" fill-rule="nonzero"/></g><g clip-path="url(#5e153db1f1)"><path fill="#d9d9d9" d="M 356.746094 75.199219 L 463.230469 75.199219 L 463.230469 116.441406 L 356.746094 116.441406 Z M 356.746094 75.199219 " fill-opacity="1" fill-rule="nonzero"/></g><g clip-path="url(#7789594768)"><path fill="#d9d9d9" d="M 467.292969 75.199219 L 582.023438 75.199219 L 582.023438 116.441406 L 467.292969 116.441406 Z M 467.292969 75.199219 " fill-opacity="1" fill-rule="nonzero"/></g><g clip-path="url(#f7b60d3f64)"><path fill="#f2f2f2" d="M 356.746094 121.164062 L 463.230469 121.164062 L 463.230469 159.40625 L 356.746094 159.40625 Z M 356.746094 121.164062 " fill-opacity="1" fill-rule="nonzero"/></g><g clip-path="url(#d7adad16e4)"><path fill="#f2f2f2" d="M 467.292969 121.164062 L 573.773438 121.164062 L 573.773438 159.40625 L 467.292969 159.40625 Z M 467.292969 121.164062 " fill-opacity="1" fill-rule="nonzero"/></g><g clip-path="url(#9cdab436a1)"><g mask="url(#ffb87586ab)"><g transform="matrix(1, 0, 0, 1, 135, 164)"><g clip-path="url(#2ca2fd2513)"><g clip-path="url(#cf09028da4)"><path fill="#03e313" d="M 0.660156 0.0117188 L 107.140625 0.0117188 L 107.140625 38.253906 L 0.660156 38.253906 Z M 0.660156 0.0117188 " fill-opacity="1" fill-rule="nonzero"/></g></g></g></g></g><g fill="#808080" fill-opacity="1"><g transform="translate(181.295797, 192.504987)"><g><path d="M 0.9375 0 L 0.9375 -2.578125 C 1.414062 -3.640625 2.101562 -4.675781 3 -5.6875 C 3.894531 -6.695312 5.019531 -7.75 6.375 -8.84375 C 7.664062 -9.894531 8.570312 -10.765625 9.09375 -11.453125 C 9.625 -12.140625 9.890625 -12.8125 9.890625 -13.46875 C 9.890625 -15.09375 9.078125 -15.90625 7.453125 -15.90625 C 6.660156 -15.90625 6.054688 -15.691406 5.640625 -15.265625 C 5.222656 -14.835938 4.953125 -14.195312 4.828125 -13.34375 L 1.09375 -13.546875 C 1.300781 -15.273438 1.941406 -16.59375 3.015625 -17.5 C 4.097656 -18.40625 5.566406 -18.859375 7.421875 -18.859375 C 9.421875 -18.859375 10.957031 -18.398438 12.03125 -17.484375 C 13.101562 -16.566406 13.640625 -15.28125 13.640625 -13.625 C 13.640625 -12.757812 13.46875 -11.972656 13.125 -11.265625 C 12.78125 -10.566406 12.34375 -9.921875 11.8125 -9.328125 C 11.28125 -8.734375 10.6875 -8.175781 10.03125 -7.65625 C 9.375 -7.132812 8.738281 -6.628906 8.125 -6.140625 C 7.507812 -5.648438 6.945312 -5.15625 6.4375 -4.65625 C 5.9375 -4.15625 5.5625 -3.617188 5.3125 -3.046875 L 13.9375 -3.046875 L 13.9375 0 Z M 0.9375 0 "/></g></g></g><g clip-path="url(#d3bd9380a2)"><g mask="url(#7c7c04c041)"><g transform="matrix(1, 0, 0, 1, 246, 164)"><g clip-path="url(#c7cbdcfe8d)"><g clip-path="url(#05b324c9ab)"><path fill="#03e313" d="M 0.203125 0.0117188 L 106.683594 0.0117188 L 106.683594 38.253906 L 0.203125 38.253906 Z M 0.203125 0.0117188 " fill-opacity="1" fill-rule="nonzero"/></g></g></g></g></g><g clip-path="url(#bd56410f1d)"><path fill="#d9d9d9" d="M 135.660156 206.859375 L 242.140625 206.859375 L 242.140625 245.101562 L 135.660156 245.101562 Z M 135.660156 206.859375 " fill-opacity="1" fill-rule="nonzero"/></g><g clip-path="url(#f64a52e1af)"><path fill="#f2f2f2" d="M 246.203125 206.859375 L 352.683594 206.859375 L 352.683594 245.101562 L 246.203125 245.101562 Z M 246.203125 206.859375 " fill-opacity="1" fill-rule="nonzero"/></g><g clip-path="url(#dc8023048a)"><g mask="url(#a807e32aba)"><g transform="matrix(1, 0, 0, 1, 356, 164)"><g clip-path="url(#0f68894e14)"><g clip-path="url(#1449ede8bd)"><path fill="#03e313" d="M 0.746094 0.0117188 L 107.230469 0.0117188 L 107.230469 38.253906 L 0.746094 38.253906 Z M 0.746094 0.0117188 " fill-opacity="1" fill-rule="nonzero"/></g></g></g></g></g><g clip-path="url(#dd7d229c4b)"><g mask="url(#821e5fc75b)"><g transform="matrix(1, 0, 0, 1, 467, 164)"><g clip-path="url(#542d834c42)"><g clip-path="url(#11ad849067)"><path fill="#03e313" d="M 0.292969 0.0117188 L 106.773438 0.0117188 L 106.773438 38.253906 L 0.292969 38.253906 Z M 0.292969 0.0117188 " fill-opacity="1" fill-rule="nonzero"/></g></g></g></g></g><g clip-path="url(#c11882c8c1)"><path fill="#f2f2f2" d="M 356.746094 206.859375 L 463.230469 206.859375 L 463.230469 245.101562 L 356.746094 245.101562 Z M 356.746094 206.859375 " fill-opacity="1" fill-rule="nonzero"/></g><g clip-path="url(#1dbac63796)"><path fill="#f2f2f2" d="M 467.292969 206.859375 L 573.773438 206.859375 L 573.773438 245.101562 L 467.292969 245.101562 Z M 467.292969 206.859375 " fill-opacity="1" fill-rule="nonzero"/></g><g clip-path="url(#b404a72063)"><g mask="url(#b20091373b)"><g transform="matrix(1, 0, 0, 1, 135, 249)"><g clip-path="url(#f27459692c)"><g clip-path="url(#b8f35a17d5)"><path fill="#03e313" d="M 0.660156 0.703125 L 107.140625 0.703125 L 107.140625 38.949219 L 0.660156 38.949219 Z M 0.660156 0.703125 " fill-opacity="1" fill-rule="nonzero"/></g></g></g></g></g><g fill="#808080" fill-opacity="1"><g transform="translate(181.295797, 278.200029)"><g><path d="M 12.390625 -3.78125 L 12.390625 0 L 8.859375 0 L 8.859375 -3.78125 L 0.40625 -3.78125 L 0.40625 -6.5625 L 8.25 -18.578125 L 12.390625 -18.578125 L 12.390625 -6.546875 L 14.875 -6.546875 L 14.875 -3.78125 Z M 8.859375 -12.609375 C 8.859375 -13.085938 8.875 -13.601562 8.90625 -14.15625 C 8.9375 -14.707031 8.960938 -15.066406 8.984375 -15.234375 C 8.753906 -14.734375 8.335938 -14.019531 7.734375 -13.09375 L 3.421875 -6.546875 L 8.859375 -6.546875 Z M 8.859375 -12.609375 "/></g></g></g><g clip-path="url(#5de8a2441b)"><g mask="url(#972f2083c3)"><g transform="matrix(1, 0, 0, 1, 246, 249)"><g clip-path="url(#85c3c1bb28)"><g clip-path="url(#7de40530fb)"><path fill="#03e313" d="M 0.203125 0.703125 L 106.683594 0.703125 L 106.683594 38.949219 L 0.203125 38.949219 Z M 0.203125 0.703125 " fill-opacity="1" fill-rule="nonzero"/></g></g></g></g></g><g clip-path="url(#6affea185e)"><g mask="url(#d9e3f55508)"><g transform="matrix(1, 0, 0, 1, 356, 249)"><g clip-path="url(#5242d8caef)"><g clip-path="url(#9b170f88c5)"><path fill="#03e313" d="M 0.746094 0.703125 L 107.230469 0.703125 L 107.230469 38.949219 L 0.746094 38.949219 Z M 0.746094 0.703125 " fill-opacity="1" fill-rule="nonzero"/></g></g></g></g></g><g clip-path="url(#844030dd24)"><g mask="url(#1590c25b37)"><g transform="matrix(1, 0, 0, 1, 467, 249)"><g clip-path="url(#1e066ffaf8)"><g clip-path="url(#03f4fac654)"><path fill="#03e313" d="M 0.292969 0.703125 L 106.773438 0.703125 L 106.773438 38.949219 L 0.292969 38.949219 Z M 0.292969 0.703125 " fill-opacity="1" fill-rule="nonzero"/></g></g></g></g></g><g clip-path="url(#6f4eb7844e)"><path fill="#d9d9d9" d="M 135.660156 292.550781 L 242.140625 292.550781 L 242.140625 330.796875 L 135.660156 330.796875 Z M 135.660156 292.550781 " fill-opacity="1" fill-rule="nonzero"/></g><g clip-path="url(#4b29b0fdb9)"><path fill="#f2f2f2" d="M 246.203125 292.550781 L 352.683594 292.550781 L 352.683594 330.796875 L 246.203125 330.796875 Z M 246.203125 292.550781 " fill-opacity="1" fill-rule="nonzero"/></g><g clip-path="url(#0eabc71cdd)"><path fill="#f2f2f2" d="M 356.746094 292.550781 L 463.230469 292.550781 L 463.230469 330.796875 L 356.746094 330.796875 Z M 356.746094 292.550781 " fill-opacity="1" fill-rule="nonzero"/></g><g clip-path="url(#43928543e8)"><path fill="#f2f2f2" d="M 467.292969 292.550781 L 573.773438 292.550781 L 573.773438 330.796875 L 467.292969 330.796875 Z M 467.292969 292.550781 " fill-opacity="1" fill-rule="nonzero"/></g><g clip-path="url(#c2aa4b91ba)"><g mask="url(#d94d85940f)"><g transform="matrix(1, 0, 0, 1, 135, 335)"><g clip-path="url(#e5a2fc66bc)"><g clip-path="url(#482ad45d65)"><path fill="#03e313" d="M 0.660156 0.398438 L 107.140625 0.398438 L 107.140625 38.644531 L 0.660156 38.644531 Z M 0.660156 0.398438 " fill-opacity="1" fill-rule="nonzero"/></g></g></g></g></g><g fill="#808080" fill-opacity="1"><g transform="translate(181.295797, 363.89507)"><g><path d="M 14.046875 -6.078125 C 14.046875 -4.097656 13.488281 -2.546875 12.375 -1.421875 C 11.269531 -0.296875 9.742188 0.265625 7.796875 0.265625 C 5.609375 0.265625 3.925781 -0.5 2.75 -2.03125 C 1.570312 -3.570312 0.984375 -5.847656 0.984375 -8.859375 C 0.984375 -12.171875 1.578125 -14.664062 2.765625 -16.34375 C 3.960938 -18.019531 5.671875 -18.859375 7.890625 -18.859375 C 9.460938 -18.859375 10.703125 -18.507812 11.609375 -17.8125 C 12.515625 -17.113281 13.160156 -16.035156 13.546875 -14.578125 L 10.046875 -14.09375 C 9.710938 -15.3125 8.96875 -15.921875 7.8125 -15.921875 C 6.8125 -15.921875 6.023438 -15.425781 5.453125 -14.4375 C 4.890625 -13.445312 4.609375 -11.941406 4.609375 -9.921875 C 5.003906 -10.578125 5.550781 -11.078125 6.25 -11.421875 C 6.957031 -11.773438 7.757812 -11.953125 8.65625 -11.953125 C 10.3125 -11.953125 11.625 -11.425781 12.59375 -10.375 C 13.5625 -9.320312 14.046875 -7.890625 14.046875 -6.078125 Z M 10.328125 -5.96875 C 10.328125 -7.019531 10.082031 -7.828125 9.59375 -8.390625 C 9.101562 -8.953125 8.429688 -9.234375 7.578125 -9.234375 C 6.765625 -9.234375 6.109375 -8.96875 5.609375 -8.4375 C 5.117188 -7.914062 4.875 -7.226562 4.875 -6.375 C 4.875 -5.289062 5.128906 -4.394531 5.640625 -3.6875 C 6.160156 -2.976562 6.835938 -2.625 7.671875 -2.625 C 8.503906 -2.625 9.15625 -2.921875 9.625 -3.515625 C 10.09375 -4.109375 10.328125 -4.925781 10.328125 -5.96875 Z M 10.328125 -5.96875 "/></g></g></g><g clip-path="url(#5a145b880b)"><g mask="url(#6a2801c813)"><g transform="matrix(1, 0, 0, 1, 246, 335)"><g clip-path="url(#9be6b966bd)"><g clip-path="url(#9c6023b89f)"><path fill="#03e313" d="M 0.203125 0.398438 L 106.683594 0.398438 L 106.683594 38.644531 L 0.203125 38.644531 Z M 0.203125 0.398438 " fill-opacity="1" fill-rule="nonzero"/></g></g></g></g></g><g clip-path="url(#8017bb8f38)"><g mask="url(#7e38de6805)"><g transform="matrix(1, 0, 0, 1, 356, 335)"><g clip-path="url(#d389f69a7e)"><g clip-path="url(#a68af06ec7)"><path fill="#03e313" d="M 0.746094 0.398438 L 107.230469 0.398438 L 107.230469 38.644531 L 0.746094 38.644531 Z M 0.746094 0.398438 " fill-opacity="1" fill-rule="nonzero"/></g></g></g></g></g><g clip-path="url(#672b87783b)"><g mask="url(#83fb7f996d)"><g transform="matrix(1, 0, 0, 1, 467, 335)"><g clip-path="url(#8972f57e58)"><g clip-path="url(#8cc9fab553)"><path fill="#03e313" d="M 0.292969 0.398438 L 106.773438 0.398438 L 106.773438 38.644531 L 0.292969 38.644531 Z M 0.292969 0.398438 " fill-opacity="1" fill-rule="nonzero"/></g></g></g></g></g><g fill="#767171" fill-opacity="1"><g transform="translate(76.034953, 192.788512)"><g><path d="M 5.96875 -10.46875 C 6.3125 -10.46875 6.570312 -10.1875 6.75 -9.625 C 7.101562 -8.570312 7.351562 -8.046875 7.5 -8.046875 C 7.613281 -8.046875 7.734375 -8.132812 7.859375 -8.3125 C 10.328125 -11.9375 12.613281 -14.519531 14.71875 -16.0625 C 15.601562 -16.707031 16.46875 -17.03125 17.3125 -17.03125 C 18.425781 -17.03125 19.097656 -16.992188 19.328125 -16.921875 C 19.421875 -16.898438 19.46875 -16.789062 19.46875 -16.59375 C 19.46875 -16.4375 19.367188 -16.238281 19.171875 -16 C 13.515625 -9.519531 10.148438 -5.300781 9.078125 -3.34375 C 8.703125 -2.675781 7.847656 -2.34375 6.515625 -2.34375 C 6.078125 -2.34375 5.613281 -2.457031 5.125 -2.6875 C 4.925781 -2.789062 4.578125 -3.460938 4.078125 -4.703125 C 3.441406 -6.265625 3.125 -7.632812 3.125 -8.8125 C 3.125 -9.25 3.429688 -9.609375 4.046875 -9.890625 C 4.890625 -10.273438 5.523438 -10.46875 5.953125 -10.46875 Z M 5.96875 -10.46875 "/></g></g></g><g fill="#767171" fill-opacity="1"><g transform="translate(75.50378, 364.494975)"><g><path d="M 5.96875 -10.46875 C 6.3125 -10.46875 6.570312 -10.1875 6.75 -9.625 C 7.101562 -8.570312 7.351562 -8.046875 7.5 -8.046875 C 7.613281 -8.046875 7.734375 -8.132812 7.859375 -8.3125 C 10.328125 -11.9375 12.613281 -14.519531 14.71875 -16.0625 C 15.601562 -16.707031 16.46875 -17.03125 17.3125 -17.03125 C 18.425781 -17.03125 19.097656 -16.992188 19.328125 -16.921875 C 19.421875 -16.898438 19.46875 -16.789062 19.46875 -16.59375 C 19.46875 -16.4375 19.367188 -16.238281 19.171875 -16 C 13.515625 -9.519531 10.148438 -5.300781 9.078125 -3.34375 C 8.703125 -2.675781 7.847656 -2.34375 6.515625 -2.34375 C 6.078125 -2.34375 5.613281 -2.457031 5.125 -2.6875 C 4.925781 -2.789062 4.578125 -3.460938 4.078125 -4.703125 C 3.441406 -6.265625 3.125 -7.632812 3.125 -8.8125 C 3.125 -9.25 3.429688 -9.609375 4.046875 -9.890625 C 4.890625 -10.273438 5.523438 -10.46875 5.953125 -10.46875 Z M 5.96875 -10.46875 "/></g></g></g><g fill="#767171" fill-opacity="1"><g transform="translate(75.335856, 278.991575)"><g><path d="M 5.96875 -10.46875 C 6.3125 -10.46875 6.570312 -10.1875 6.75 -9.625 C 7.101562 -8.570312 7.351562 -8.046875 7.5 -8.046875 C 7.613281 -8.046875 7.734375 -8.132812 7.859375 -8.3125 C 10.328125 -11.9375 12.613281 -14.519531 14.71875 -16.0625 C 15.601562 -16.707031 16.46875 -17.03125 17.3125 -17.03125 C 18.425781 -17.03125 19.097656 -16.992188 19.328125 -16.921875 C 19.421875 -16.898438 19.46875 -16.789062 19.46875 -16.59375 C 19.46875 -16.4375 19.367188 -16.238281 19.171875 -16 C 13.515625 -9.519531 10.148438 -5.300781 9.078125 -3.34375 C 8.703125 -2.675781 7.847656 -2.34375 6.515625 -2.34375 C 6.078125 -2.34375 5.613281 -2.457031 5.125 -2.6875 C 4.925781 -2.789062 4.578125 -3.460938 4.078125 -4.703125 C 3.441406 -6.265625 3.125 -7.632812 3.125 -8.8125 C 3.125 -9.25 3.429688 -9.609375 4.046875 -9.890625 C 4.890625 -10.273438 5.523438 -10.46875 5.953125 -10.46875 Z M 5.96875 -10.46875 "/></g></g></g></svg>