<svg xmlns="http://www.w3.org/2000/svg" xmlns:xlink="http://www.w3.org/1999/xlink" width="1919" zoomAndPan="magnify" viewBox="0 0 1439.25 447.749989" height="597" preserveAspectRatio="xMidYMid meet" version="1.0"><defs><filter x="0%" y="0%" width="100%" height="100%" id="63acd6cb44"><feColorMatrix values="0 0 0 0 1 0 0 0 0 1 0 0 0 0 1 0 0 0 1 0" color-interpolation-filters="sRGB"/></filter><g/><clipPath id="6fbcae6c42"><path d="M 75.359375 153.847656 L 262.296875 153.847656 L 262.296875 221.148438 L 75.359375 221.148438 Z M 75.359375 153.847656 " clip-rule="nonzero"/></clipPath><clipPath id="23c75136b4"><path d="M 271.175781 78.492188 L 458 78.492188 L 458 145.789062 L 271.175781 145.789062 Z M 271.175781 78.492188 " clip-rule="nonzero"/></clipPath><clipPath id="81d9d46279"><path d="M 75.359375 229.207031 L 262.296875 229.207031 L 262.296875 296.503906 L 75.359375 296.503906 Z M 75.359375 229.207031 " clip-rule="nonzero"/></clipPath><clipPath id="da6a39dd34"><path d="M 271.175781 229.207031 L 458.113281 229.207031 L 458.113281 296.503906 L 271.175781 296.503906 Z M 271.175781 229.207031 " clip-rule="nonzero"/></clipPath><mask id="d46c573485"><g filter="url(#63acd6cb44)"><rect x="-143.925" width="1727.1" fill="#000000" y="-44.774999" height="537.299986" fill-opacity="0.498"/></g></mask><clipPath id="c5181dbc1d"><path d="M 0.175781 0.207031 L 187 0.207031 L 187 67.503906 L 0.175781 67.503906 Z M 0.175781 0.207031 " clip-rule="nonzero"/></clipPath><clipPath id="53dbb82b3b"><rect x="0" width="188" y="0" height="68"/></clipPath><clipPath id="d029aae613"><path d="M 466.996094 78.492188 L 653.933594 78.492188 L 653.933594 145.789062 L 466.996094 145.789062 Z M 466.996094 78.492188 " clip-rule="nonzero"/></clipPath><clipPath id="e2d0a25fac"><path d="M 466.996094 229.207031 L 653.933594 229.207031 L 653.933594 296.503906 L 466.996094 296.503906 Z M 466.996094 229.207031 " clip-rule="nonzero"/></clipPath><mask id="9e42538252"><g filter="url(#63acd6cb44)"><rect x="-143.925" width="1727.1" fill="#000000" y="-44.774999" height="537.299986" fill-opacity="0.498"/></g></mask><clipPath id="05d29d1aab"><path d="M 0.996094 0.207031 L 187.933594 0.207031 L 187.933594 67.503906 L 0.996094 67.503906 Z M 0.996094 0.207031 " clip-rule="nonzero"/></clipPath><clipPath id="467f9d2418"><rect x="0" width="188" y="0" height="68"/></clipPath><clipPath id="aec8d22a10"><path d="M 670.683594 153.847656 L 768.878906 153.847656 L 768.878906 216 L 670.683594 216 Z M 670.683594 153.847656 " clip-rule="nonzero"/></clipPath><clipPath id="00699a6057"><path d="M 670.683594 169.289062 L 737.554688 169.289062 L 737.554688 153.847656 L 768.4375 184.730469 L 737.554688 215.613281 L 737.554688 200.171875 L 670.683594 200.171875 L 670.683594 169.289062 " clip-rule="nonzero"/></clipPath><mask id="4b0bc61ddd"><g filter="url(#63acd6cb44)"><rect x="-143.925" width="1727.1" fill="#000000" y="-44.774999" height="537.299986" fill-opacity="0.4"/></g></mask><clipPath id="a063932536"><path d="M 0.683594 0.847656 L 98.558594 0.847656 L 98.558594 62.640625 L 0.683594 62.640625 Z M 0.683594 0.847656 " clip-rule="nonzero"/></clipPath><clipPath id="c5d7687122"><path d="M 0.683594 16.289062 L 67.554688 16.289062 L 67.554688 0.847656 L 98.4375 31.730469 L 67.554688 62.613281 L 67.554688 47.171875 L 0.683594 47.171875 L 0.683594 16.289062 " clip-rule="nonzero"/></clipPath><clipPath id="8a8b9a2cf6"><rect x="0" width="99" y="0" height="63"/></clipPath><clipPath id="ec80482bce"><path d="M 784.699219 150.515625 L 971.640625 150.515625 L 971.640625 217.8125 L 784.699219 217.8125 Z M 784.699219 150.515625 " clip-rule="nonzero"/></clipPath><clipPath id="cab4b94259"><path d="M 980.519531 75.160156 L 1167.457031 75.160156 L 1167.457031 142.457031 L 980.519531 142.457031 Z M 980.519531 75.160156 " clip-rule="nonzero"/></clipPath><clipPath id="134ff8feeb"><path d="M 980.519531 150.515625 L 1167.457031 150.515625 L 1167.457031 217.8125 L 980.519531 217.8125 Z M 980.519531 150.515625 " clip-rule="nonzero"/></clipPath><mask id="3258eadca8"><g filter="url(#63acd6cb44)"><rect x="-143.925" width="1727.1" fill="#000000" y="-44.774999" height="537.299986" fill-opacity="0.498"/></g></mask><clipPath id="f8d465dcdd"><path d="M 0.519531 0.515625 L 187.457031 0.515625 L 187.457031 67.8125 L 0.519531 67.8125 Z M 0.519531 0.515625 " clip-rule="nonzero"/></clipPath><clipPath id="59e4e7b4fb"><rect x="0" width="188" y="0" height="68"/></clipPath><clipPath id="ac857e128b"><path d="M 784.699219 225.875 L 971.640625 225.875 L 971.640625 293.171875 L 784.699219 293.171875 Z M 784.699219 225.875 " clip-rule="nonzero"/></clipPath><clipPath id="a932595033"><path d="M 980.519531 225.875 L 1167.457031 225.875 L 1167.457031 293.171875 L 980.519531 293.171875 Z M 980.519531 225.875 " clip-rule="nonzero"/></clipPath><mask id="9e52a6cbb4"><g filter="url(#63acd6cb44)"><rect x="-143.925" width="1727.1" fill="#000000" y="-44.774999" height="537.299986" fill-opacity="0.498"/></g></mask><clipPath id="14cf02a208"><path d="M 0.519531 0.875 L 187.457031 0.875 L 187.457031 68.171875 L 0.519531 68.171875 Z M 0.519531 0.875 " clip-rule="nonzero"/></clipPath><clipPath id="e8aaa5328c"><rect x="0" width="188" y="0" height="69"/></clipPath><clipPath id="edcfffbf29"><path d="M 1176.335938 75.160156 L 1363 75.160156 L 1363 142.457031 L 1176.335938 142.457031 Z M 1176.335938 75.160156 " clip-rule="nonzero"/></clipPath><clipPath id="cf75637ab8"><path d="M 1176.335938 150.515625 L 1363.277344 150.515625 L 1363.277344 217.8125 L 1176.335938 217.8125 Z M 1176.335938 150.515625 " clip-rule="nonzero"/></clipPath><mask id="544f84b09a"><g filter="url(#63acd6cb44)"><rect x="-143.925" width="1727.1" fill="#000000" y="-44.774999" height="537.299986" fill-opacity="0.498"/></g></mask><clipPath id="3af2c947e8"><path d="M 0.335938 0.515625 L 187 0.515625 L 187 67.8125 L 0.335938 67.8125 Z M 0.335938 0.515625 " clip-rule="nonzero"/></clipPath><clipPath id="4266b052b6"><rect x="0" width="188" y="0" height="68"/></clipPath><clipPath id="468b7eb2b3"><path d="M 1176.335938 225.875 L 1363.277344 225.875 L 1363.277344 293.171875 L 1176.335938 293.171875 Z M 1176.335938 225.875 " clip-rule="nonzero"/></clipPath><mask id="87dac469e6"><g filter="url(#63acd6cb44)"><rect x="-143.925" width="1727.1" fill="#000000" y="-44.774999" height="537.299986" fill-opacity="0.498"/></g></mask><clipPath id="d81ccc5928"><path d="M 0.335938 0.875 L 187 0.875 L 187 68.171875 L 0.335938 68.171875 Z M 0.335938 0.875 " clip-rule="nonzero"/></clipPath><clipPath id="727ad51775"><rect x="0" width="188" y="0" height="69"/></clipPath><clipPath id="95380bc664"><path d="M 271.175781 153.847656 L 458.113281 153.847656 L 458.113281 221.148438 L 271.175781 221.148438 Z M 271.175781 153.847656 " clip-rule="nonzero"/></clipPath><mask id="9b063ec0b4"><g filter="url(#63acd6cb44)"><rect x="-143.925" width="1727.1" fill="#000000" y="-44.774999" height="537.299986" fill-opacity="0.498"/></g></mask><clipPath id="2547fb1922"><path d="M 0.175781 0.847656 L 187 0.847656 L 187 68.148438 L 0.175781 68.148438 Z M 0.175781 0.847656 " clip-rule="nonzero"/></clipPath><clipPath id="78edfed9f5"><rect x="0" width="188" y="0" height="69"/></clipPath><clipPath id="7316407f12"><path d="M 980.023438 301.230469 L 1166.960938 301.230469 L 1166.960938 368.527344 L 980.023438 368.527344 Z M 980.023438 301.230469 " clip-rule="nonzero"/></clipPath><mask id="bb154124f5"><g filter="url(#63acd6cb44)"><rect x="-143.925" width="1727.1" fill="#000000" y="-44.774999" height="537.299986" fill-opacity="0.498"/></g></mask><clipPath id="9f8bb1dad1"><path d="M 0.0234375 0.230469 L 186.960938 0.230469 L 186.960938 67.527344 L 0.0234375 67.527344 Z M 0.0234375 0.230469 " clip-rule="nonzero"/></clipPath><clipPath id="685b2e527b"><rect x="0" width="187" y="0" height="68"/></clipPath><clipPath id="8a1bccd77e"><path d="M 466.996094 153.847656 L 653.933594 153.847656 L 653.933594 221.148438 L 466.996094 221.148438 Z M 466.996094 153.847656 " clip-rule="nonzero"/></clipPath><mask id="256cd6d644"><g filter="url(#63acd6cb44)"><rect x="-143.925" width="1727.1" fill="#000000" y="-44.774999" height="537.299986" fill-opacity="0.498"/></g></mask><clipPath id="1af39c6df2"><path d="M 0.996094 0.847656 L 187.933594 0.847656 L 187.933594 68.148438 L 0.996094 68.148438 Z M 0.996094 0.847656 " clip-rule="nonzero"/></clipPath><clipPath id="0f7f6f0956"><rect x="0" width="188" y="0" height="69"/></clipPath><clipPath id="02ed788ed6"><path d="M 1176.335938 301.230469 L 1363.277344 301.230469 L 1363.277344 368.527344 L 1176.335938 368.527344 Z M 1176.335938 301.230469 " clip-rule="nonzero"/></clipPath><mask id="4af1d90119"><g filter="url(#63acd6cb44)"><rect x="-143.925" width="1727.1" fill="#000000" y="-44.774999" height="537.299986" fill-opacity="0.498"/></g></mask><clipPath id="6d07a17b6c"><path d="M 0.335938 0.230469 L 187 0.230469 L 187 67.527344 L 0.335938 67.527344 Z M 0.335938 0.230469 " clip-rule="nonzero"/></clipPath><clipPath id="aa57c9098f"><rect x="0" width="188" y="0" height="68"/></clipPath><clipPath id="e3cdd1b4c0"><path d="M 75.359375 304.566406 L 262.296875 304.566406 L 262.296875 371.863281 L 75.359375 371.863281 Z M 75.359375 304.566406 " clip-rule="nonzero"/></clipPath><clipPath id="05005d61aa"><path d="M 271.175781 304.566406 L 458.113281 304.566406 L 458.113281 371.863281 L 271.175781 371.863281 Z M 271.175781 304.566406 " clip-rule="nonzero"/></clipPath><mask id="b70ca1df01"><g filter="url(#63acd6cb44)"><rect x="-143.925" width="1727.1" fill="#000000" y="-44.774999" height="537.299986" fill-opacity="0.498"/></g></mask><clipPath id="0077d0caa6"><path d="M 0.175781 0.566406 L 187 0.566406 L 187 67.863281 L 0.175781 67.863281 Z M 0.175781 0.566406 " clip-rule="nonzero"/></clipPath><clipPath id="c2b1138d2e"><rect x="0" width="188" y="0" height="68"/></clipPath><clipPath id="ba3cc14b68"><path d="M 466.996094 304.566406 L 653.933594 304.566406 L 653.933594 371.863281 L 466.996094 371.863281 Z M 466.996094 304.566406 " clip-rule="nonzero"/></clipPath><mask id="5feb3111f7"><g filter="url(#63acd6cb44)"><rect x="-143.925" width="1727.1" fill="#000000" y="-44.774999" height="537.299986" fill-opacity="0.498"/></g></mask><clipPath id="0f2d110d05"><path d="M 0.996094 0.566406 L 187.933594 0.566406 L 187.933594 67.863281 L 0.996094 67.863281 Z M 0.996094 0.566406 " clip-rule="nonzero"/></clipPath><clipPath id="b54102e163"><rect x="0" width="188" y="0" height="68"/></clipPath><clipPath id="d69465d76a"><path d="M 784.699219 301.230469 L 971.640625 301.230469 L 971.640625 368.527344 L 784.699219 368.527344 Z M 784.699219 301.230469 " clip-rule="nonzero"/></clipPath></defs><g clip-path="url(#6fbcae6c42)"><path fill="#d9d9d9" d="M 75.359375 153.847656 L 262.003906 153.847656 L 262.003906 221.3125 L 75.359375 221.3125 Z M 75.359375 153.847656 " fill-opacity="1" fill-rule="nonzero"/></g><g clip-path="url(#23c75136b4)"><path fill="#d9d9d9" d="M 271.175781 78.492188 L 457.820312 78.492188 L 457.820312 145.953125 L 271.175781 145.953125 Z M 271.175781 78.492188 " fill-opacity="1" fill-rule="nonzero"/></g><g clip-path="url(#81d9d46279)"><path fill="#d9d9d9" d="M 75.359375 229.207031 L 262.003906 229.207031 L 262.003906 296.667969 L 75.359375 296.667969 Z M 75.359375 229.207031 " fill-opacity="1" fill-rule="nonzero"/></g><g clip-path="url(#da6a39dd34)"><g mask="url(#d46c573485)"><g transform="matrix(1, 0, 0, 1, 271, 229)"><g clip-path="url(#53dbb82b3b)"><g clip-path="url(#c5181dbc1d)"><path fill="#ffc000" d="M 0.175781 0.207031 L 186.820312 0.207031 L 186.820312 67.667969 L 0.175781 67.667969 Z M 0.175781 0.207031 " fill-opacity="1" fill-rule="nonzero"/></g></g></g></g></g><g fill="#808080" fill-opacity="1"><g transform="translate(356.312312, 272.68273)"><g><path d="M 15.5625 -10.640625 C 15.5625 -6.984375 14.890625 -4.242188 13.546875 -2.421875 C 12.210938 -0.609375 10.316406 0.296875 7.859375 0.296875 C 6.046875 0.296875 4.625 -0.0859375 3.59375 -0.859375 C 2.5625 -1.640625 1.832031 -2.867188 1.40625 -4.546875 L 5.265625 -5.09375 C 5.648438 -3.65625 6.53125 -2.9375 7.90625 -2.9375 C 9.0625 -2.9375 9.945312 -3.488281 10.5625 -4.59375 C 11.1875 -5.695312 11.503906 -7.332031 11.515625 -9.5 C 11.148438 -8.769531 10.546875 -8.195312 9.703125 -7.78125 C 8.859375 -7.363281 7.945312 -7.15625 6.96875 -7.15625 C 5.15625 -7.15625 3.710938 -7.769531 2.640625 -9 C 1.578125 -10.238281 1.046875 -11.914062 1.046875 -14.03125 C 1.046875 -16.195312 1.671875 -17.890625 2.921875 -19.109375 C 4.171875 -20.328125 5.945312 -20.9375 8.25 -20.9375 C 10.71875 -20.9375 12.550781 -20.078125 13.75 -18.359375 C 14.957031 -16.648438 15.5625 -14.078125 15.5625 -10.640625 Z M 11.21875 -13.53125 C 11.21875 -14.8125 10.9375 -15.828125 10.375 -16.578125 C 9.8125 -17.335938 9.066406 -17.71875 8.140625 -17.71875 C 7.234375 -17.71875 6.519531 -17.382812 6 -16.71875 C 5.476562 -16.0625 5.21875 -15.15625 5.21875 -14 C 5.21875 -12.851562 5.472656 -11.9375 5.984375 -11.25 C 6.503906 -10.5625 7.226562 -10.21875 8.15625 -10.21875 C 9.03125 -10.21875 9.757812 -10.515625 10.34375 -11.109375 C 10.925781 -11.710938 11.21875 -12.519531 11.21875 -13.53125 Z M 11.21875 -13.53125 "/></g></g></g><g clip-path="url(#d029aae613)"><path fill="#d9d9d9" d="M 466.996094 78.492188 L 653.640625 78.492188 L 653.640625 145.953125 L 466.996094 145.953125 Z M 466.996094 78.492188 " fill-opacity="1" fill-rule="nonzero"/></g><g clip-path="url(#e2d0a25fac)"><g mask="url(#9e42538252)"><g transform="matrix(1, 0, 0, 1, 466, 229)"><g clip-path="url(#467f9d2418)"><g clip-path="url(#05d29d1aab)"><path fill="#ffc000" d="M 0.996094 0.207031 L 187.640625 0.207031 L 187.640625 67.667969 L 0.996094 67.667969 Z M 0.996094 0.207031 " fill-opacity="1" fill-rule="nonzero"/></g></g></g></g></g><g fill="#808080" fill-opacity="1"><g transform="translate(543.791498, 272.68273)"><g><path d="M 13.765625 -4.203125 L 13.765625 0 L 9.84375 0 L 9.84375 -4.203125 L 0.453125 -4.203125 L 0.453125 -7.296875 L 9.171875 -20.625 L 13.765625 -20.625 L 13.765625 -7.265625 L 16.515625 -7.265625 L 16.515625 -4.203125 Z M 9.84375 -14.015625 C 9.84375 -14.535156 9.859375 -15.101562 9.890625 -15.71875 C 9.921875 -16.332031 9.945312 -16.726562 9.96875 -16.90625 C 9.71875 -16.363281 9.257812 -15.570312 8.59375 -14.53125 L 3.8125 -7.265625 L 9.84375 -7.265625 Z M 9.84375 -14.015625 "/></g></g><g transform="translate(560.466756, 272.68273)"><g><path d="M 15.359375 -17.359375 C 14.429688 -15.898438 13.554688 -14.484375 12.734375 -13.109375 C 11.910156 -11.734375 11.1875 -10.347656 10.5625 -8.953125 C 9.945312 -7.554688 9.460938 -6.125 9.109375 -4.65625 C 8.753906 -3.1875 8.578125 -1.632812 8.578125 0 L 4.296875 0 C 4.296875 -1.71875 4.519531 -3.378906 4.96875 -4.984375 C 5.414062 -6.585938 6.0625 -8.222656 6.90625 -9.890625 C 7.757812 -11.554688 9.300781 -14.007812 11.53125 -17.25 L 1.28125 -17.25 L 1.28125 -20.625 L 15.359375 -20.625 Z M 15.359375 -17.359375 "/></g></g></g><g clip-path="url(#aec8d22a10)"><g clip-path="url(#00699a6057)"><g mask="url(#4b0bc61ddd)"><g transform="matrix(1, 0, 0, 1, 670, 153)"><g clip-path="url(#8a8b9a2cf6)"><g clip-path="url(#a063932536)"><g clip-path="url(#c5d7687122)"><path fill="#03e313" d="M 0.683594 0.847656 L 98.128906 0.847656 L 98.128906 62.316406 L 0.683594 62.316406 Z M 0.683594 0.847656 " fill-opacity="1" fill-rule="nonzero"/></g></g></g></g></g></g></g><g clip-path="url(#ec80482bce)"><path fill="#d9d9d9" d="M 784.699219 150.515625 L 971.347656 150.515625 L 971.347656 217.976562 L 784.699219 217.976562 Z M 784.699219 150.515625 " fill-opacity="1" fill-rule="nonzero"/></g><g clip-path="url(#cab4b94259)"><path fill="#d9d9d9" d="M 980.519531 75.160156 L 1167.164062 75.160156 L 1167.164062 142.621094 L 980.519531 142.621094 Z M 980.519531 75.160156 " fill-opacity="1" fill-rule="nonzero"/></g><g clip-path="url(#134ff8feeb)"><g mask="url(#3258eadca8)"><g transform="matrix(1, 0, 0, 1, 980, 150)"><g clip-path="url(#59e4e7b4fb)"><g clip-path="url(#f8d465dcdd)"><path fill="#03e313" d="M 0.519531 0.515625 L 187.164062 0.515625 L 187.164062 67.976562 L 0.519531 67.976562 Z M 0.519531 0.515625 " fill-opacity="1" fill-rule="nonzero"/></g></g></g></g></g><g fill="#808080" fill-opacity="1"><g transform="translate(1043.987587, 193.991672)"><g><path d="M 15.59375 -6.75 C 15.59375 -4.550781 14.976562 -2.828125 13.75 -1.578125 C 12.519531 -0.328125 10.820312 0.296875 8.65625 0.296875 C 6.21875 0.296875 4.347656 -0.550781 3.046875 -2.25 C 1.742188 -3.957031 1.09375 -6.488281 1.09375 -9.84375 C 1.09375 -13.519531 1.753906 -16.285156 3.078125 -18.140625 C 4.398438 -20.003906 6.289062 -20.9375 8.75 -20.9375 C 10.5 -20.9375 11.878906 -20.550781 12.890625 -19.78125 C 13.898438 -19.007812 14.613281 -17.8125 15.03125 -16.1875 L 11.15625 -15.65625 C 10.78125 -17.007812 9.953125 -17.6875 8.671875 -17.6875 C 7.566406 -17.6875 6.695312 -17.132812 6.0625 -16.03125 C 5.4375 -14.925781 5.125 -13.253906 5.125 -11.015625 C 5.5625 -11.742188 6.171875 -12.300781 6.953125 -12.6875 C 7.734375 -13.082031 8.617188 -13.28125 9.609375 -13.28125 C 11.453125 -13.28125 12.910156 -12.691406 13.984375 -11.515625 C 15.054688 -10.347656 15.59375 -8.757812 15.59375 -6.75 Z M 11.46875 -6.625 C 11.46875 -7.800781 11.195312 -8.695312 10.65625 -9.3125 C 10.113281 -9.9375 9.367188 -10.25 8.421875 -10.25 C 7.515625 -10.25 6.785156 -9.957031 6.234375 -9.375 C 5.691406 -8.789062 5.421875 -8.023438 5.421875 -7.078125 C 5.421875 -5.867188 5.703125 -4.867188 6.265625 -4.078125 C 6.835938 -3.296875 7.585938 -2.90625 8.515625 -2.90625 C 9.441406 -2.90625 10.164062 -3.234375 10.6875 -3.890625 C 11.207031 -4.554688 11.46875 -5.46875 11.46875 -6.625 Z M 11.46875 -6.625 "/></g></g><g transform="translate(1060.662846, 193.991672)"><g><path d="M 15.59375 -6.75 C 15.59375 -4.550781 14.976562 -2.828125 13.75 -1.578125 C 12.519531 -0.328125 10.820312 0.296875 8.65625 0.296875 C 6.21875 0.296875 4.347656 -0.550781 3.046875 -2.25 C 1.742188 -3.957031 1.09375 -6.488281 1.09375 -9.84375 C 1.09375 -13.519531 1.753906 -16.285156 3.078125 -18.140625 C 4.398438 -20.003906 6.289062 -20.9375 8.75 -20.9375 C 10.5 -20.9375 11.878906 -20.550781 12.890625 -19.78125 C 13.898438 -19.007812 14.613281 -17.8125 15.03125 -16.1875 L 11.15625 -15.65625 C 10.78125 -17.007812 9.953125 -17.6875 8.671875 -17.6875 C 7.566406 -17.6875 6.695312 -17.132812 6.0625 -16.03125 C 5.4375 -14.925781 5.125 -13.253906 5.125 -11.015625 C 5.5625 -11.742188 6.171875 -12.300781 6.953125 -12.6875 C 7.734375 -13.082031 8.617188 -13.28125 9.609375 -13.28125 C 11.453125 -13.28125 12.910156 -12.691406 13.984375 -11.515625 C 15.054688 -10.347656 15.59375 -8.757812 15.59375 -6.75 Z M 11.46875 -6.625 C 11.46875 -7.800781 11.195312 -8.695312 10.65625 -9.3125 C 10.113281 -9.9375 9.367188 -10.25 8.421875 -10.25 C 7.515625 -10.25 6.785156 -9.957031 6.234375 -9.375 C 5.691406 -8.789062 5.421875 -8.023438 5.421875 -7.078125 C 5.421875 -5.867188 5.703125 -4.867188 6.265625 -4.078125 C 6.835938 -3.296875 7.585938 -2.90625 8.515625 -2.90625 C 9.441406 -2.90625 10.164062 -3.234375 10.6875 -3.890625 C 11.207031 -4.554688 11.46875 -5.46875 11.46875 -6.625 Z M 11.46875 -6.625 "/></g></g><g transform="translate(1077.338104, 193.991672)"><g><path d="M 25.875 -6.328125 C 25.875 -4.203125 25.429688 -2.578125 24.546875 -1.453125 C 23.671875 -0.328125 22.382812 0.234375 20.6875 0.234375 C 18.96875 0.234375 17.671875 -0.320312 16.796875 -1.4375 C 15.929688 -2.550781 15.5 -4.179688 15.5 -6.328125 C 15.5 -8.515625 15.914062 -10.15625 16.75 -11.25 C 17.59375 -12.351562 18.925781 -12.90625 20.75 -12.90625 C 22.5 -12.90625 23.789062 -12.347656 24.625 -11.234375 C 25.457031 -10.128906 25.875 -8.492188 25.875 -6.328125 Z M 8.078125 0 L 5.0625 0 L 18.53125 -20.625 L 21.59375 -20.625 Z M 5.96875 -20.859375 C 7.71875 -20.859375 9.015625 -20.304688 9.859375 -19.203125 C 10.703125 -18.097656 11.125 -16.460938 11.125 -14.296875 C 11.125 -12.171875 10.679688 -10.546875 9.796875 -9.421875 C 8.921875 -8.296875 7.625 -7.734375 5.90625 -7.734375 C 4.207031 -7.734375 2.921875 -8.289062 2.046875 -9.40625 C 1.179688 -10.519531 0.75 -12.148438 0.75 -14.296875 C 0.75 -16.515625 1.164062 -18.160156 2 -19.234375 C 2.84375 -20.316406 4.164062 -20.859375 5.96875 -20.859375 Z M 22.71875 -6.328125 C 22.71875 -7.878906 22.566406 -8.984375 22.265625 -9.640625 C 21.972656 -10.304688 21.46875 -10.640625 20.75 -10.640625 C 19.96875 -10.640625 19.425781 -10.300781 19.125 -9.625 C 18.832031 -8.957031 18.6875 -7.859375 18.6875 -6.328125 C 18.6875 -4.765625 18.84375 -3.660156 19.15625 -3.015625 C 19.46875 -2.378906 19.988281 -2.0625 20.71875 -2.0625 C 21.425781 -2.0625 21.9375 -2.394531 22.25 -3.0625 C 22.5625 -3.726562 22.71875 -4.816406 22.71875 -6.328125 Z M 7.953125 -14.296875 C 7.953125 -15.835938 7.800781 -16.9375 7.5 -17.59375 C 7.207031 -18.257812 6.695312 -18.59375 5.96875 -18.59375 C 5.1875 -18.59375 4.644531 -18.265625 4.34375 -17.609375 C 4.039062 -16.953125 3.890625 -15.847656 3.890625 -14.296875 C 3.890625 -12.753906 4.046875 -11.65625 4.359375 -11 C 4.679688 -10.34375 5.207031 -10.015625 5.9375 -10.015625 C 6.664062 -10.015625 7.179688 -10.34375 7.484375 -11 C 7.796875 -11.664062 7.953125 -12.765625 7.953125 -14.296875 Z M 7.953125 -14.296875 "/></g></g></g><g clip-path="url(#ac857e128b)"><path fill="#d9d9d9" d="M 784.699219 225.875 L 971.347656 225.875 L 971.347656 293.335938 L 784.699219 293.335938 Z M 784.699219 225.875 " fill-opacity="1" fill-rule="nonzero"/></g><g clip-path="url(#a932595033)"><g mask="url(#9e52a6cbb4)"><g transform="matrix(1, 0, 0, 1, 980, 225)"><g clip-path="url(#e8aaa5328c)"><g clip-path="url(#14cf02a208)"><path fill="#03e313" d="M 0.519531 0.875 L 187.164062 0.875 L 187.164062 68.335938 L 0.519531 68.335938 Z M 0.519531 0.875 " fill-opacity="1" fill-rule="nonzero"/></g></g></g></g></g><g fill="#808080" fill-opacity="1"><g transform="translate(1043.987587, 269.349391)"><g><path d="M 15.59375 -5.71875 C 15.59375 -3.789062 14.957031 -2.296875 13.6875 -1.234375 C 12.414062 -0.179688 10.609375 0.34375 8.265625 0.34375 C 6.054688 0.34375 4.296875 -0.164062 2.984375 -1.1875 C 1.679688 -2.207031 0.914062 -3.679688 0.6875 -5.609375 L 4.875 -5.96875 C 5.132812 -3.988281 6.257812 -3 8.25 -3 C 9.238281 -3 10.003906 -3.242188 10.546875 -3.734375 C 11.097656 -4.222656 11.375 -4.96875 11.375 -5.96875 C 11.375 -6.882812 11.039062 -7.585938 10.375 -8.078125 C 9.71875 -8.566406 8.734375 -8.8125 7.421875 -8.8125 L 5.984375 -8.8125 L 5.984375 -12.140625 L 7.328125 -12.140625 C 8.515625 -12.140625 9.40625 -12.378906 10 -12.859375 C 10.59375 -13.347656 10.890625 -14.039062 10.890625 -14.9375 C 10.890625 -15.78125 10.648438 -16.441406 10.171875 -16.921875 C 9.703125 -17.410156 9.015625 -17.65625 8.109375 -17.65625 C 7.265625 -17.65625 6.578125 -17.421875 6.046875 -16.953125 C 5.523438 -16.484375 5.226562 -15.820312 5.15625 -14.96875 L 1.046875 -15.25 C 1.253906 -17.03125 1.988281 -18.421875 3.25 -19.421875 C 4.507812 -20.429688 6.15625 -20.9375 8.1875 -20.9375 C 10.34375 -20.9375 12.023438 -20.445312 13.234375 -19.46875 C 14.453125 -18.5 15.0625 -17.160156 15.0625 -15.453125 C 15.0625 -14.160156 14.679688 -13.097656 13.921875 -12.265625 C 13.171875 -11.441406 12.082031 -10.890625 10.65625 -10.609375 L 10.65625 -10.5625 C 12.238281 -10.375 13.457031 -9.851562 14.3125 -9 C 15.164062 -8.144531 15.59375 -7.050781 15.59375 -5.71875 Z M 15.59375 -5.71875 "/></g></g><g transform="translate(1060.662846, 269.349391)"><g><path d="M 15.59375 -5.71875 C 15.59375 -3.789062 14.957031 -2.296875 13.6875 -1.234375 C 12.414062 -0.179688 10.609375 0.34375 8.265625 0.34375 C 6.054688 0.34375 4.296875 -0.164062 2.984375 -1.1875 C 1.679688 -2.207031 0.914062 -3.679688 0.6875 -5.609375 L 4.875 -5.96875 C 5.132812 -3.988281 6.257812 -3 8.25 -3 C 9.238281 -3 10.003906 -3.242188 10.546875 -3.734375 C 11.097656 -4.222656 11.375 -4.96875 11.375 -5.96875 C 11.375 -6.882812 11.039062 -7.585938 10.375 -8.078125 C 9.71875 -8.566406 8.734375 -8.8125 7.421875 -8.8125 L 5.984375 -8.8125 L 5.984375 -12.140625 L 7.328125 -12.140625 C 8.515625 -12.140625 9.40625 -12.378906 10 -12.859375 C 10.59375 -13.347656 10.890625 -14.039062 10.890625 -14.9375 C 10.890625 -15.78125 10.648438 -16.441406 10.171875 -16.921875 C 9.703125 -17.410156 9.015625 -17.65625 8.109375 -17.65625 C 7.265625 -17.65625 6.578125 -17.421875 6.046875 -16.953125 C 5.523438 -16.484375 5.226562 -15.820312 5.15625 -14.96875 L 1.046875 -15.25 C 1.253906 -17.03125 1.988281 -18.421875 3.25 -19.421875 C 4.507812 -20.429688 6.15625 -20.9375 8.1875 -20.9375 C 10.34375 -20.9375 12.023438 -20.445312 13.234375 -19.46875 C 14.453125 -18.5 15.0625 -17.160156 15.0625 -15.453125 C 15.0625 -14.160156 14.679688 -13.097656 13.921875 -12.265625 C 13.171875 -11.441406 12.082031 -10.890625 10.65625 -10.609375 L 10.65625 -10.5625 C 12.238281 -10.375 13.457031 -9.851562 14.3125 -9 C 15.164062 -8.144531 15.59375 -7.050781 15.59375 -5.71875 Z M 15.59375 -5.71875 "/></g></g><g transform="translate(1077.338104, 269.349391)"><g><path d="M 25.875 -6.328125 C 25.875 -4.203125 25.429688 -2.578125 24.546875 -1.453125 C 23.671875 -0.328125 22.382812 0.234375 20.6875 0.234375 C 18.96875 0.234375 17.671875 -0.320312 16.796875 -1.4375 C 15.929688 -2.550781 15.5 -4.179688 15.5 -6.328125 C 15.5 -8.515625 15.914062 -10.15625 16.75 -11.25 C 17.59375 -12.351562 18.925781 -12.90625 20.75 -12.90625 C 22.5 -12.90625 23.789062 -12.347656 24.625 -11.234375 C 25.457031 -10.128906 25.875 -8.492188 25.875 -6.328125 Z M 8.078125 0 L 5.0625 0 L 18.53125 -20.625 L 21.59375 -20.625 Z M 5.96875 -20.859375 C 7.71875 -20.859375 9.015625 -20.304688 9.859375 -19.203125 C 10.703125 -18.097656 11.125 -16.460938 11.125 -14.296875 C 11.125 -12.171875 10.679688 -10.546875 9.796875 -9.421875 C 8.921875 -8.296875 7.625 -7.734375 5.90625 -7.734375 C 4.207031 -7.734375 2.921875 -8.289062 2.046875 -9.40625 C 1.179688 -10.519531 0.75 -12.148438 0.75 -14.296875 C 0.75 -16.515625 1.164062 -18.160156 2 -19.234375 C 2.84375 -20.316406 4.164062 -20.859375 5.96875 -20.859375 Z M 22.71875 -6.328125 C 22.71875 -7.878906 22.566406 -8.984375 22.265625 -9.640625 C 21.972656 -10.304688 21.46875 -10.640625 20.75 -10.640625 C 19.96875 -10.640625 19.425781 -10.300781 19.125 -9.625 C 18.832031 -8.957031 18.6875 -7.859375 18.6875 -6.328125 C 18.6875 -4.765625 18.84375 -3.660156 19.15625 -3.015625 C 19.46875 -2.378906 19.988281 -2.0625 20.71875 -2.0625 C 21.425781 -2.0625 21.9375 -2.394531 22.25 -3.0625 C 22.5625 -3.726562 22.71875 -4.816406 22.71875 -6.328125 Z M 7.953125 -14.296875 C 7.953125 -15.835938 7.800781 -16.9375 7.5 -17.59375 C 7.207031 -18.257812 6.695312 -18.59375 5.96875 -18.59375 C 5.1875 -18.59375 4.644531 -18.265625 4.34375 -17.609375 C 4.039062 -16.953125 3.890625 -15.847656 3.890625 -14.296875 C 3.890625 -12.753906 4.046875 -11.65625 4.359375 -11 C 4.679688 -10.34375 5.207031 -10.015625 5.9375 -10.015625 C 6.664062 -10.015625 7.179688 -10.34375 7.484375 -11 C 7.796875 -11.664062 7.953125 -12.765625 7.953125 -14.296875 Z M 7.953125 -14.296875 "/></g></g></g><g clip-path="url(#edcfffbf29)"><path fill="#d9d9d9" d="M 1176.335938 75.160156 L 1362.984375 75.160156 L 1362.984375 142.621094 L 1176.335938 142.621094 Z M 1176.335938 75.160156 " fill-opacity="1" fill-rule="nonzero"/></g><g clip-path="url(#cf75637ab8)"><g mask="url(#544f84b09a)"><g transform="matrix(1, 0, 0, 1, 1176, 150)"><g clip-path="url(#4266b052b6)"><g clip-path="url(#3af2c947e8)"><path fill="#03e313" d="M 0.335938 0.515625 L 186.984375 0.515625 L 186.984375 67.976562 L 0.335938 67.976562 Z M 0.335938 0.515625 " fill-opacity="1" fill-rule="nonzero"/></g></g></g></g></g><g fill="#808080" fill-opacity="1"><g transform="translate(1239.805792, 193.991672)"><g><path d="M 15.59375 -6.75 C 15.59375 -4.550781 14.976562 -2.828125 13.75 -1.578125 C 12.519531 -0.328125 10.820312 0.296875 8.65625 0.296875 C 6.21875 0.296875 4.347656 -0.550781 3.046875 -2.25 C 1.742188 -3.957031 1.09375 -6.488281 1.09375 -9.84375 C 1.09375 -13.519531 1.753906 -16.285156 3.078125 -18.140625 C 4.398438 -20.003906 6.289062 -20.9375 8.75 -20.9375 C 10.5 -20.9375 11.878906 -20.550781 12.890625 -19.78125 C 13.898438 -19.007812 14.613281 -17.8125 15.03125 -16.1875 L 11.15625 -15.65625 C 10.78125 -17.007812 9.953125 -17.6875 8.671875 -17.6875 C 7.566406 -17.6875 6.695312 -17.132812 6.0625 -16.03125 C 5.4375 -14.925781 5.125 -13.253906 5.125 -11.015625 C 5.5625 -11.742188 6.171875 -12.300781 6.953125 -12.6875 C 7.734375 -13.082031 8.617188 -13.28125 9.609375 -13.28125 C 11.453125 -13.28125 12.910156 -12.691406 13.984375 -11.515625 C 15.054688 -10.347656 15.59375 -8.757812 15.59375 -6.75 Z M 11.46875 -6.625 C 11.46875 -7.800781 11.195312 -8.695312 10.65625 -9.3125 C 10.113281 -9.9375 9.367188 -10.25 8.421875 -10.25 C 7.515625 -10.25 6.785156 -9.957031 6.234375 -9.375 C 5.691406 -8.789062 5.421875 -8.023438 5.421875 -7.078125 C 5.421875 -5.867188 5.703125 -4.867188 6.265625 -4.078125 C 6.835938 -3.296875 7.585938 -2.90625 8.515625 -2.90625 C 9.441406 -2.90625 10.164062 -3.234375 10.6875 -3.890625 C 11.207031 -4.554688 11.46875 -5.46875 11.46875 -6.625 Z M 11.46875 -6.625 "/></g></g><g transform="translate(1256.48105, 193.991672)"><g><path d="M 15.59375 -6.75 C 15.59375 -4.550781 14.976562 -2.828125 13.75 -1.578125 C 12.519531 -0.328125 10.820312 0.296875 8.65625 0.296875 C 6.21875 0.296875 4.347656 -0.550781 3.046875 -2.25 C 1.742188 -3.957031 1.09375 -6.488281 1.09375 -9.84375 C 1.09375 -13.519531 1.753906 -16.285156 3.078125 -18.140625 C 4.398438 -20.003906 6.289062 -20.9375 8.75 -20.9375 C 10.5 -20.9375 11.878906 -20.550781 12.890625 -19.78125 C 13.898438 -19.007812 14.613281 -17.8125 15.03125 -16.1875 L 11.15625 -15.65625 C 10.78125 -17.007812 9.953125 -17.6875 8.671875 -17.6875 C 7.566406 -17.6875 6.695312 -17.132812 6.0625 -16.03125 C 5.4375 -14.925781 5.125 -13.253906 5.125 -11.015625 C 5.5625 -11.742188 6.171875 -12.300781 6.953125 -12.6875 C 7.734375 -13.082031 8.617188 -13.28125 9.609375 -13.28125 C 11.453125 -13.28125 12.910156 -12.691406 13.984375 -11.515625 C 15.054688 -10.347656 15.59375 -8.757812 15.59375 -6.75 Z M 11.46875 -6.625 C 11.46875 -7.800781 11.195312 -8.695312 10.65625 -9.3125 C 10.113281 -9.9375 9.367188 -10.25 8.421875 -10.25 C 7.515625 -10.25 6.785156 -9.957031 6.234375 -9.375 C 5.691406 -8.789062 5.421875 -8.023438 5.421875 -7.078125 C 5.421875 -5.867188 5.703125 -4.867188 6.265625 -4.078125 C 6.835938 -3.296875 7.585938 -2.90625 8.515625 -2.90625 C 9.441406 -2.90625 10.164062 -3.234375 10.6875 -3.890625 C 11.207031 -4.554688 11.46875 -5.46875 11.46875 -6.625 Z M 11.46875 -6.625 "/></g></g><g transform="translate(1273.156309, 193.991672)"><g><path d="M 25.875 -6.328125 C 25.875 -4.203125 25.429688 -2.578125 24.546875 -1.453125 C 23.671875 -0.328125 22.382812 0.234375 20.6875 0.234375 C 18.96875 0.234375 17.671875 -0.320312 16.796875 -1.4375 C 15.929688 -2.550781 15.5 -4.179688 15.5 -6.328125 C 15.5 -8.515625 15.914062 -10.15625 16.75 -11.25 C 17.59375 -12.351562 18.925781 -12.90625 20.75 -12.90625 C 22.5 -12.90625 23.789062 -12.347656 24.625 -11.234375 C 25.457031 -10.128906 25.875 -8.492188 25.875 -6.328125 Z M 8.078125 0 L 5.0625 0 L 18.53125 -20.625 L 21.59375 -20.625 Z M 5.96875 -20.859375 C 7.71875 -20.859375 9.015625 -20.304688 9.859375 -19.203125 C 10.703125 -18.097656 11.125 -16.460938 11.125 -14.296875 C 11.125 -12.171875 10.679688 -10.546875 9.796875 -9.421875 C 8.921875 -8.296875 7.625 -7.734375 5.90625 -7.734375 C 4.207031 -7.734375 2.921875 -8.289062 2.046875 -9.40625 C 1.179688 -10.519531 0.75 -12.148438 0.75 -14.296875 C 0.75 -16.515625 1.164062 -18.160156 2 -19.234375 C 2.84375 -20.316406 4.164062 -20.859375 5.96875 -20.859375 Z M 22.71875 -6.328125 C 22.71875 -7.878906 22.566406 -8.984375 22.265625 -9.640625 C 21.972656 -10.304688 21.46875 -10.640625 20.75 -10.640625 C 19.96875 -10.640625 19.425781 -10.300781 19.125 -9.625 C 18.832031 -8.957031 18.6875 -7.859375 18.6875 -6.328125 C 18.6875 -4.765625 18.84375 -3.660156 19.15625 -3.015625 C 19.46875 -2.378906 19.988281 -2.0625 20.71875 -2.0625 C 21.425781 -2.0625 21.9375 -2.394531 22.25 -3.0625 C 22.5625 -3.726562 22.71875 -4.816406 22.71875 -6.328125 Z M 7.953125 -14.296875 C 7.953125 -15.835938 7.800781 -16.9375 7.5 -17.59375 C 7.207031 -18.257812 6.695312 -18.59375 5.96875 -18.59375 C 5.1875 -18.59375 4.644531 -18.265625 4.34375 -17.609375 C 4.039062 -16.953125 3.890625 -15.847656 3.890625 -14.296875 C 3.890625 -12.753906 4.046875 -11.65625 4.359375 -11 C 4.679688 -10.34375 5.207031 -10.015625 5.9375 -10.015625 C 6.664062 -10.015625 7.179688 -10.34375 7.484375 -11 C 7.796875 -11.664062 7.953125 -12.765625 7.953125 -14.296875 Z M 7.953125 -14.296875 "/></g></g></g><g clip-path="url(#468b7eb2b3)"><g mask="url(#87dac469e6)"><g transform="matrix(1, 0, 0, 1, 1176, 225)"><g clip-path="url(#727ad51775)"><g clip-path="url(#d81ccc5928)"><path fill="#03e313" d="M 0.335938 0.875 L 186.984375 0.875 L 186.984375 68.335938 L 0.335938 68.335938 Z M 0.335938 0.875 " fill-opacity="1" fill-rule="nonzero"/></g></g></g></g></g><g fill="#808080" fill-opacity="1"><g transform="translate(1231.466698, 269.349391)"><g><path d="M 1.890625 0 L 1.890625 -3.0625 L 7 -3.0625 L 7 -17.125 L 2.046875 -14.046875 L 2.046875 -17.28125 L 7.21875 -20.625 L 11.109375 -20.625 L 11.109375 -3.0625 L 15.84375 -3.0625 L 15.84375 0 Z M 1.890625 0 "/></g></g><g transform="translate(1248.141957, 269.349391)"><g><path d="M 15.453125 -10.328125 C 15.453125 -6.835938 14.851562 -4.191406 13.65625 -2.390625 C 12.457031 -0.597656 10.660156 0.296875 8.265625 0.296875 C 3.546875 0.296875 1.1875 -3.242188 1.1875 -10.328125 C 1.1875 -12.796875 1.441406 -14.8125 1.953125 -16.375 C 2.472656 -17.9375 3.25 -19.085938 4.28125 -19.828125 C 5.320312 -20.566406 6.691406 -20.9375 8.390625 -20.9375 C 10.828125 -20.9375 12.613281 -20.050781 13.75 -18.28125 C 14.882812 -16.519531 15.453125 -13.867188 15.453125 -10.328125 Z M 11.3125 -10.328125 C 11.3125 -12.222656 11.21875 -13.695312 11.03125 -14.75 C 10.851562 -15.8125 10.554688 -16.570312 10.140625 -17.03125 C 9.734375 -17.488281 9.140625 -17.71875 8.359375 -17.71875 C 7.523438 -17.71875 6.894531 -17.484375 6.46875 -17.015625 C 6.050781 -16.554688 5.75 -15.800781 5.5625 -14.75 C 5.382812 -13.695312 5.296875 -12.222656 5.296875 -10.328125 C 5.296875 -8.441406 5.390625 -6.96875 5.578125 -5.90625 C 5.773438 -4.84375 6.078125 -4.082031 6.484375 -3.625 C 6.898438 -3.164062 7.503906 -2.9375 8.296875 -2.9375 C 9.078125 -2.9375 9.679688 -3.175781 10.109375 -3.65625 C 10.535156 -4.144531 10.84375 -4.921875 11.03125 -5.984375 C 11.21875 -7.046875 11.3125 -8.492188 11.3125 -10.328125 Z M 11.3125 -10.328125 "/></g></g><g transform="translate(1264.817215, 269.349391)"><g><path d="M 15.453125 -10.328125 C 15.453125 -6.835938 14.851562 -4.191406 13.65625 -2.390625 C 12.457031 -0.597656 10.660156 0.296875 8.265625 0.296875 C 3.546875 0.296875 1.1875 -3.242188 1.1875 -10.328125 C 1.1875 -12.796875 1.441406 -14.8125 1.953125 -16.375 C 2.472656 -17.9375 3.25 -19.085938 4.28125 -19.828125 C 5.320312 -20.566406 6.691406 -20.9375 8.390625 -20.9375 C 10.828125 -20.9375 12.613281 -20.050781 13.75 -18.28125 C 14.882812 -16.519531 15.453125 -13.867188 15.453125 -10.328125 Z M 11.3125 -10.328125 C 11.3125 -12.222656 11.21875 -13.695312 11.03125 -14.75 C 10.851562 -15.8125 10.554688 -16.570312 10.140625 -17.03125 C 9.734375 -17.488281 9.140625 -17.71875 8.359375 -17.71875 C 7.523438 -17.71875 6.894531 -17.484375 6.46875 -17.015625 C 6.050781 -16.554688 5.75 -15.800781 5.5625 -14.75 C 5.382812 -13.695312 5.296875 -12.222656 5.296875 -10.328125 C 5.296875 -8.441406 5.390625 -6.96875 5.578125 -5.90625 C 5.773438 -4.84375 6.078125 -4.082031 6.484375 -3.625 C 6.898438 -3.164062 7.503906 -2.9375 8.296875 -2.9375 C 9.078125 -2.9375 9.679688 -3.175781 10.109375 -3.65625 C 10.535156 -4.144531 10.84375 -4.921875 11.03125 -5.984375 C 11.21875 -7.046875 11.3125 -8.492188 11.3125 -10.328125 Z M 11.3125 -10.328125 "/></g></g><g transform="translate(1281.492474, 269.349391)"><g><path d="M 25.875 -6.328125 C 25.875 -4.203125 25.429688 -2.578125 24.546875 -1.453125 C 23.671875 -0.328125 22.382812 0.234375 20.6875 0.234375 C 18.96875 0.234375 17.671875 -0.320312 16.796875 -1.4375 C 15.929688 -2.550781 15.5 -4.179688 15.5 -6.328125 C 15.5 -8.515625 15.914062 -10.15625 16.75 -11.25 C 17.59375 -12.351562 18.925781 -12.90625 20.75 -12.90625 C 22.5 -12.90625 23.789062 -12.347656 24.625 -11.234375 C 25.457031 -10.128906 25.875 -8.492188 25.875 -6.328125 Z M 8.078125 0 L 5.0625 0 L 18.53125 -20.625 L 21.59375 -20.625 Z M 5.96875 -20.859375 C 7.71875 -20.859375 9.015625 -20.304688 9.859375 -19.203125 C 10.703125 -18.097656 11.125 -16.460938 11.125 -14.296875 C 11.125 -12.171875 10.679688 -10.546875 9.796875 -9.421875 C 8.921875 -8.296875 7.625 -7.734375 5.90625 -7.734375 C 4.207031 -7.734375 2.921875 -8.289062 2.046875 -9.40625 C 1.179688 -10.519531 0.75 -12.148438 0.75 -14.296875 C 0.75 -16.515625 1.164062 -18.160156 2 -19.234375 C 2.84375 -20.316406 4.164062 -20.859375 5.96875 -20.859375 Z M 22.71875 -6.328125 C 22.71875 -7.878906 22.566406 -8.984375 22.265625 -9.640625 C 21.972656 -10.304688 21.46875 -10.640625 20.75 -10.640625 C 19.96875 -10.640625 19.425781 -10.300781 19.125 -9.625 C 18.832031 -8.957031 18.6875 -7.859375 18.6875 -6.328125 C 18.6875 -4.765625 18.84375 -3.660156 19.15625 -3.015625 C 19.46875 -2.378906 19.988281 -2.0625 20.71875 -2.0625 C 21.425781 -2.0625 21.9375 -2.394531 22.25 -3.0625 C 22.5625 -3.726562 22.71875 -4.816406 22.71875 -6.328125 Z M 7.953125 -14.296875 C 7.953125 -15.835938 7.800781 -16.9375 7.5 -17.59375 C 7.207031 -18.257812 6.695312 -18.59375 5.96875 -18.59375 C 5.1875 -18.59375 4.644531 -18.265625 4.34375 -17.609375 C 4.039062 -16.953125 3.890625 -15.847656 3.890625 -14.296875 C 3.890625 -12.753906 4.046875 -11.65625 4.359375 -11 C 4.679688 -10.34375 5.207031 -10.015625 5.9375 -10.015625 C 6.664062 -10.015625 7.179688 -10.34375 7.484375 -11 C 7.796875 -11.664062 7.953125 -12.765625 7.953125 -14.296875 Z M 7.953125 -14.296875 "/></g></g></g><g clip-path="url(#95380bc664)"><g mask="url(#9b063ec0b4)"><g transform="matrix(1, 0, 0, 1, 271, 153)"><g clip-path="url(#78edfed9f5)"><g clip-path="url(#2547fb1922)"><path fill="#ffc000" d="M 0.175781 0.847656 L 186.820312 0.847656 L 186.820312 68.3125 L 0.175781 68.3125 Z M 0.175781 0.847656 " fill-opacity="1" fill-rule="nonzero"/></g></g></g></g></g><g fill="#808080" fill-opacity="1"><g transform="translate(347.973102, 197.325012)"><g><path d="M 1.046875 0 L 1.046875 -2.859375 C 1.578125 -4.035156 2.335938 -5.1875 3.328125 -6.3125 C 4.316406 -7.4375 5.566406 -8.609375 7.078125 -9.828125 C 8.515625 -10.992188 9.523438 -11.957031 10.109375 -12.71875 C 10.691406 -13.476562 10.984375 -14.226562 10.984375 -14.96875 C 10.984375 -16.757812 10.078125 -17.65625 8.265625 -17.65625 C 7.390625 -17.65625 6.71875 -17.414062 6.25 -16.9375 C 5.789062 -16.46875 5.492188 -15.757812 5.359375 -14.8125 L 1.21875 -15.046875 C 1.445312 -16.960938 2.160156 -18.421875 3.359375 -19.421875 C 4.554688 -20.429688 6.1875 -20.9375 8.25 -20.9375 C 10.46875 -20.9375 12.171875 -20.425781 13.359375 -19.40625 C 14.554688 -18.394531 15.15625 -16.972656 15.15625 -15.140625 C 15.15625 -14.171875 14.960938 -13.296875 14.578125 -12.515625 C 14.203125 -11.734375 13.710938 -11.015625 13.109375 -10.359375 C 12.515625 -9.703125 11.851562 -9.082031 11.125 -8.5 C 10.40625 -7.925781 9.703125 -7.363281 9.015625 -6.8125 C 8.335938 -6.269531 7.71875 -5.71875 7.15625 -5.15625 C 6.59375 -4.601562 6.175781 -4.007812 5.90625 -3.375 L 15.46875 -3.375 L 15.46875 0 Z M 1.046875 0 "/></g></g><g transform="translate(364.64836, 197.325012)"><g><path d="M 15.59375 -5.71875 C 15.59375 -3.789062 14.957031 -2.296875 13.6875 -1.234375 C 12.414062 -0.179688 10.609375 0.34375 8.265625 0.34375 C 6.054688 0.34375 4.296875 -0.164062 2.984375 -1.1875 C 1.679688 -2.207031 0.914062 -3.679688 0.6875 -5.609375 L 4.875 -5.96875 C 5.132812 -3.988281 6.257812 -3 8.25 -3 C 9.238281 -3 10.003906 -3.242188 10.546875 -3.734375 C 11.097656 -4.222656 11.375 -4.96875 11.375 -5.96875 C 11.375 -6.882812 11.039062 -7.585938 10.375 -8.078125 C 9.71875 -8.566406 8.734375 -8.8125 7.421875 -8.8125 L 5.984375 -8.8125 L 5.984375 -12.140625 L 7.328125 -12.140625 C 8.515625 -12.140625 9.40625 -12.378906 10 -12.859375 C 10.59375 -13.347656 10.890625 -14.039062 10.890625 -14.9375 C 10.890625 -15.78125 10.648438 -16.441406 10.171875 -16.921875 C 9.703125 -17.410156 9.015625 -17.65625 8.109375 -17.65625 C 7.265625 -17.65625 6.578125 -17.421875 6.046875 -16.953125 C 5.523438 -16.484375 5.226562 -15.820312 5.15625 -14.96875 L 1.046875 -15.25 C 1.253906 -17.03125 1.988281 -18.421875 3.25 -19.421875 C 4.507812 -20.429688 6.15625 -20.9375 8.1875 -20.9375 C 10.34375 -20.9375 12.023438 -20.445312 13.234375 -19.46875 C 14.453125 -18.5 15.0625 -17.160156 15.0625 -15.453125 C 15.0625 -14.160156 14.679688 -13.097656 13.921875 -12.265625 C 13.171875 -11.441406 12.082031 -10.890625 10.65625 -10.609375 L 10.65625 -10.5625 C 12.238281 -10.375 13.457031 -9.851562 14.3125 -9 C 15.164062 -8.144531 15.59375 -7.050781 15.59375 -5.71875 Z M 15.59375 -5.71875 "/></g></g></g><g clip-path="url(#7316407f12)"><g mask="url(#bb154124f5)"><g transform="matrix(1, 0, 0, 1, 980, 301)"><g clip-path="url(#685b2e527b)"><g clip-path="url(#9f8bb1dad1)"><path fill="#03e313" d="M 0.0234375 0.230469 L 186.671875 0.230469 L 186.671875 67.695312 L 0.0234375 67.695312 Z M 0.0234375 0.230469 " fill-opacity="1" fill-rule="nonzero"/></g></g></g></g></g><g fill="#808080" fill-opacity="1"><g transform="translate(1035.153722, 344.707111)"><g><path d="M 1.890625 0 L 1.890625 -3.0625 L 7 -3.0625 L 7 -17.125 L 2.046875 -14.046875 L 2.046875 -17.28125 L 7.21875 -20.625 L 11.109375 -20.625 L 11.109375 -3.0625 L 15.84375 -3.0625 L 15.84375 0 Z M 1.890625 0 "/></g></g><g transform="translate(1051.828981, 344.707111)"><g><path d="M 15.453125 -10.328125 C 15.453125 -6.835938 14.851562 -4.191406 13.65625 -2.390625 C 12.457031 -0.597656 10.660156 0.296875 8.265625 0.296875 C 3.546875 0.296875 1.1875 -3.242188 1.1875 -10.328125 C 1.1875 -12.796875 1.441406 -14.8125 1.953125 -16.375 C 2.472656 -17.9375 3.25 -19.085938 4.28125 -19.828125 C 5.320312 -20.566406 6.691406 -20.9375 8.390625 -20.9375 C 10.828125 -20.9375 12.613281 -20.050781 13.75 -18.28125 C 14.882812 -16.519531 15.453125 -13.867188 15.453125 -10.328125 Z M 11.3125 -10.328125 C 11.3125 -12.222656 11.21875 -13.695312 11.03125 -14.75 C 10.851562 -15.8125 10.554688 -16.570312 10.140625 -17.03125 C 9.734375 -17.488281 9.140625 -17.71875 8.359375 -17.71875 C 7.523438 -17.71875 6.894531 -17.484375 6.46875 -17.015625 C 6.050781 -16.554688 5.75 -15.800781 5.5625 -14.75 C 5.382812 -13.695312 5.296875 -12.222656 5.296875 -10.328125 C 5.296875 -8.441406 5.390625 -6.96875 5.578125 -5.90625 C 5.773438 -4.84375 6.078125 -4.082031 6.484375 -3.625 C 6.898438 -3.164062 7.503906 -2.9375 8.296875 -2.9375 C 9.078125 -2.9375 9.679688 -3.175781 10.109375 -3.65625 C 10.535156 -4.144531 10.84375 -4.921875 11.03125 -5.984375 C 11.21875 -7.046875 11.3125 -8.492188 11.3125 -10.328125 Z M 11.3125 -10.328125 "/></g></g><g transform="translate(1068.504239, 344.707111)"><g><path d="M 15.453125 -10.328125 C 15.453125 -6.835938 14.851562 -4.191406 13.65625 -2.390625 C 12.457031 -0.597656 10.660156 0.296875 8.265625 0.296875 C 3.546875 0.296875 1.1875 -3.242188 1.1875 -10.328125 C 1.1875 -12.796875 1.441406 -14.8125 1.953125 -16.375 C 2.472656 -17.9375 3.25 -19.085938 4.28125 -19.828125 C 5.320312 -20.566406 6.691406 -20.9375 8.390625 -20.9375 C 10.828125 -20.9375 12.613281 -20.050781 13.75 -18.28125 C 14.882812 -16.519531 15.453125 -13.867188 15.453125 -10.328125 Z M 11.3125 -10.328125 C 11.3125 -12.222656 11.21875 -13.695312 11.03125 -14.75 C 10.851562 -15.8125 10.554688 -16.570312 10.140625 -17.03125 C 9.734375 -17.488281 9.140625 -17.71875 8.359375 -17.71875 C 7.523438 -17.71875 6.894531 -17.484375 6.46875 -17.015625 C 6.050781 -16.554688 5.75 -15.800781 5.5625 -14.75 C 5.382812 -13.695312 5.296875 -12.222656 5.296875 -10.328125 C 5.296875 -8.441406 5.390625 -6.96875 5.578125 -5.90625 C 5.773438 -4.84375 6.078125 -4.082031 6.484375 -3.625 C 6.898438 -3.164062 7.503906 -2.9375 8.296875 -2.9375 C 9.078125 -2.9375 9.679688 -3.175781 10.109375 -3.65625 C 10.535156 -4.144531 10.84375 -4.921875 11.03125 -5.984375 C 11.21875 -7.046875 11.3125 -8.492188 11.3125 -10.328125 Z M 11.3125 -10.328125 "/></g></g><g transform="translate(1085.179498, 344.707111)"><g><path d="M 25.875 -6.328125 C 25.875 -4.203125 25.429688 -2.578125 24.546875 -1.453125 C 23.671875 -0.328125 22.382812 0.234375 20.6875 0.234375 C 18.96875 0.234375 17.671875 -0.320312 16.796875 -1.4375 C 15.929688 -2.550781 15.5 -4.179688 15.5 -6.328125 C 15.5 -8.515625 15.914062 -10.15625 16.75 -11.25 C 17.59375 -12.351562 18.925781 -12.90625 20.75 -12.90625 C 22.5 -12.90625 23.789062 -12.347656 24.625 -11.234375 C 25.457031 -10.128906 25.875 -8.492188 25.875 -6.328125 Z M 8.078125 0 L 5.0625 0 L 18.53125 -20.625 L 21.59375 -20.625 Z M 5.96875 -20.859375 C 7.71875 -20.859375 9.015625 -20.304688 9.859375 -19.203125 C 10.703125 -18.097656 11.125 -16.460938 11.125 -14.296875 C 11.125 -12.171875 10.679688 -10.546875 9.796875 -9.421875 C 8.921875 -8.296875 7.625 -7.734375 5.90625 -7.734375 C 4.207031 -7.734375 2.921875 -8.289062 2.046875 -9.40625 C 1.179688 -10.519531 0.75 -12.148438 0.75 -14.296875 C 0.75 -16.515625 1.164062 -18.160156 2 -19.234375 C 2.84375 -20.316406 4.164062 -20.859375 5.96875 -20.859375 Z M 22.71875 -6.328125 C 22.71875 -7.878906 22.566406 -8.984375 22.265625 -9.640625 C 21.972656 -10.304688 21.46875 -10.640625 20.75 -10.640625 C 19.96875 -10.640625 19.425781 -10.300781 19.125 -9.625 C 18.832031 -8.957031 18.6875 -7.859375 18.6875 -6.328125 C 18.6875 -4.765625 18.84375 -3.660156 19.15625 -3.015625 C 19.46875 -2.378906 19.988281 -2.0625 20.71875 -2.0625 C 21.425781 -2.0625 21.9375 -2.394531 22.25 -3.0625 C 22.5625 -3.726562 22.71875 -4.816406 22.71875 -6.328125 Z M 7.953125 -14.296875 C 7.953125 -15.835938 7.800781 -16.9375 7.5 -17.59375 C 7.207031 -18.257812 6.695312 -18.59375 5.96875 -18.59375 C 5.1875 -18.59375 4.644531 -18.265625 4.34375 -17.609375 C 4.039062 -16.953125 3.890625 -15.847656 3.890625 -14.296875 C 3.890625 -12.753906 4.046875 -11.65625 4.359375 -11 C 4.679688 -10.34375 5.207031 -10.015625 5.9375 -10.015625 C 6.664062 -10.015625 7.179688 -10.34375 7.484375 -11 C 7.796875 -11.664062 7.953125 -12.765625 7.953125 -14.296875 Z M 7.953125 -14.296875 "/></g></g></g><g clip-path="url(#8a1bccd77e)"><g mask="url(#256cd6d644)"><g transform="matrix(1, 0, 0, 1, 466, 153)"><g clip-path="url(#0f7f6f0956)"><g clip-path="url(#1af39c6df2)"><path fill="#ffc000" d="M 0.996094 0.847656 L 187.640625 0.847656 L 187.640625 68.3125 L 0.996094 68.3125 Z M 0.996094 0.847656 " fill-opacity="1" fill-rule="nonzero"/></g></g></g></g></g><g fill="#808080" fill-opacity="1"><g transform="translate(543.791498, 197.325012)"><g><path d="M 15.59375 -5.71875 C 15.59375 -3.789062 14.957031 -2.296875 13.6875 -1.234375 C 12.414062 -0.179688 10.609375 0.34375 8.265625 0.34375 C 6.054688 0.34375 4.296875 -0.164062 2.984375 -1.1875 C 1.679688 -2.207031 0.914062 -3.679688 0.6875 -5.609375 L 4.875 -5.96875 C 5.132812 -3.988281 6.257812 -3 8.25 -3 C 9.238281 -3 10.003906 -3.242188 10.546875 -3.734375 C 11.097656 -4.222656 11.375 -4.96875 11.375 -5.96875 C 11.375 -6.882812 11.039062 -7.585938 10.375 -8.078125 C 9.71875 -8.566406 8.734375 -8.8125 7.421875 -8.8125 L 5.984375 -8.8125 L 5.984375 -12.140625 L 7.328125 -12.140625 C 8.515625 -12.140625 9.40625 -12.378906 10 -12.859375 C 10.59375 -13.347656 10.890625 -14.039062 10.890625 -14.9375 C 10.890625 -15.78125 10.648438 -16.441406 10.171875 -16.921875 C 9.703125 -17.410156 9.015625 -17.65625 8.109375 -17.65625 C 7.265625 -17.65625 6.578125 -17.421875 6.046875 -16.953125 C 5.523438 -16.484375 5.226562 -15.820312 5.15625 -14.96875 L 1.046875 -15.25 C 1.253906 -17.03125 1.988281 -18.421875 3.25 -19.421875 C 4.507812 -20.429688 6.15625 -20.9375 8.1875 -20.9375 C 10.34375 -20.9375 12.023438 -20.445312 13.234375 -19.46875 C 14.453125 -18.5 15.0625 -17.160156 15.0625 -15.453125 C 15.0625 -14.160156 14.679688 -13.097656 13.921875 -12.265625 C 13.171875 -11.441406 12.082031 -10.890625 10.65625 -10.609375 L 10.65625 -10.5625 C 12.238281 -10.375 13.457031 -9.851562 14.3125 -9 C 15.164062 -8.144531 15.59375 -7.050781 15.59375 -5.71875 Z M 15.59375 -5.71875 "/></g></g><g transform="translate(560.466756, 197.325012)"><g><path d="M 1.890625 0 L 1.890625 -3.0625 L 7 -3.0625 L 7 -17.125 L 2.046875 -14.046875 L 2.046875 -17.28125 L 7.21875 -20.625 L 11.109375 -20.625 L 11.109375 -3.0625 L 15.84375 -3.0625 L 15.84375 0 Z M 1.890625 0 "/></g></g></g><g clip-path="url(#02ed788ed6)"><g mask="url(#4af1d90119)"><g transform="matrix(1, 0, 0, 1, 1176, 301)"><g clip-path="url(#aa57c9098f)"><g clip-path="url(#6d07a17b6c)"><path fill="#03e313" d="M 0.335938 0.230469 L 186.984375 0.230469 L 186.984375 67.695312 L 0.335938 67.695312 Z M 0.335938 0.230469 " fill-opacity="1" fill-rule="nonzero"/></g></g></g></g></g><g fill="#808080" fill-opacity="1"><g transform="translate(1239.805792, 344.707111)"><g><path d="M 15.59375 -5.71875 C 15.59375 -3.789062 14.957031 -2.296875 13.6875 -1.234375 C 12.414062 -0.179688 10.609375 0.34375 8.265625 0.34375 C 6.054688 0.34375 4.296875 -0.164062 2.984375 -1.1875 C 1.679688 -2.207031 0.914062 -3.679688 0.6875 -5.609375 L 4.875 -5.96875 C 5.132812 -3.988281 6.257812 -3 8.25 -3 C 9.238281 -3 10.003906 -3.242188 10.546875 -3.734375 C 11.097656 -4.222656 11.375 -4.96875 11.375 -5.96875 C 11.375 -6.882812 11.039062 -7.585938 10.375 -8.078125 C 9.71875 -8.566406 8.734375 -8.8125 7.421875 -8.8125 L 5.984375 -8.8125 L 5.984375 -12.140625 L 7.328125 -12.140625 C 8.515625 -12.140625 9.40625 -12.378906 10 -12.859375 C 10.59375 -13.347656 10.890625 -14.039062 10.890625 -14.9375 C 10.890625 -15.78125 10.648438 -16.441406 10.171875 -16.921875 C 9.703125 -17.410156 9.015625 -17.65625 8.109375 -17.65625 C 7.265625 -17.65625 6.578125 -17.421875 6.046875 -16.953125 C 5.523438 -16.484375 5.226562 -15.820312 5.15625 -14.96875 L 1.046875 -15.25 C 1.253906 -17.03125 1.988281 -18.421875 3.25 -19.421875 C 4.507812 -20.429688 6.15625 -20.9375 8.1875 -20.9375 C 10.34375 -20.9375 12.023438 -20.445312 13.234375 -19.46875 C 14.453125 -18.5 15.0625 -17.160156 15.0625 -15.453125 C 15.0625 -14.160156 14.679688 -13.097656 13.921875 -12.265625 C 13.171875 -11.441406 12.082031 -10.890625 10.65625 -10.609375 L 10.65625 -10.5625 C 12.238281 -10.375 13.457031 -9.851562 14.3125 -9 C 15.164062 -8.144531 15.59375 -7.050781 15.59375 -5.71875 Z M 15.59375 -5.71875 "/></g></g><g transform="translate(1256.48105, 344.707111)"><g><path d="M 15.59375 -5.71875 C 15.59375 -3.789062 14.957031 -2.296875 13.6875 -1.234375 C 12.414062 -0.179688 10.609375 0.34375 8.265625 0.34375 C 6.054688 0.34375 4.296875 -0.164062 2.984375 -1.1875 C 1.679688 -2.207031 0.914062 -3.679688 0.6875 -5.609375 L 4.875 -5.96875 C 5.132812 -3.988281 6.257812 -3 8.25 -3 C 9.238281 -3 10.003906 -3.242188 10.546875 -3.734375 C 11.097656 -4.222656 11.375 -4.96875 11.375 -5.96875 C 11.375 -6.882812 11.039062 -7.585938 10.375 -8.078125 C 9.71875 -8.566406 8.734375 -8.8125 7.421875 -8.8125 L 5.984375 -8.8125 L 5.984375 -12.140625 L 7.328125 -12.140625 C 8.515625 -12.140625 9.40625 -12.378906 10 -12.859375 C 10.59375 -13.347656 10.890625 -14.039062 10.890625 -14.9375 C 10.890625 -15.78125 10.648438 -16.441406 10.171875 -16.921875 C 9.703125 -17.410156 9.015625 -17.65625 8.109375 -17.65625 C 7.265625 -17.65625 6.578125 -17.421875 6.046875 -16.953125 C 5.523438 -16.484375 5.226562 -15.820312 5.15625 -14.96875 L 1.046875 -15.25 C 1.253906 -17.03125 1.988281 -18.421875 3.25 -19.421875 C 4.507812 -20.429688 6.15625 -20.9375 8.1875 -20.9375 C 10.34375 -20.9375 12.023438 -20.445312 13.234375 -19.46875 C 14.453125 -18.5 15.0625 -17.160156 15.0625 -15.453125 C 15.0625 -14.160156 14.679688 -13.097656 13.921875 -12.265625 C 13.171875 -11.441406 12.082031 -10.890625 10.65625 -10.609375 L 10.65625 -10.5625 C 12.238281 -10.375 13.457031 -9.851562 14.3125 -9 C 15.164062 -8.144531 15.59375 -7.050781 15.59375 -5.71875 Z M 15.59375 -5.71875 "/></g></g><g transform="translate(1273.156309, 344.707111)"><g><path d="M 25.875 -6.328125 C 25.875 -4.203125 25.429688 -2.578125 24.546875 -1.453125 C 23.671875 -0.328125 22.382812 0.234375 20.6875 0.234375 C 18.96875 0.234375 17.671875 -0.320312 16.796875 -1.4375 C 15.929688 -2.550781 15.5 -4.179688 15.5 -6.328125 C 15.5 -8.515625 15.914062 -10.15625 16.75 -11.25 C 17.59375 -12.351562 18.925781 -12.90625 20.75 -12.90625 C 22.5 -12.90625 23.789062 -12.347656 24.625 -11.234375 C 25.457031 -10.128906 25.875 -8.492188 25.875 -6.328125 Z M 8.078125 0 L 5.0625 0 L 18.53125 -20.625 L 21.59375 -20.625 Z M 5.96875 -20.859375 C 7.71875 -20.859375 9.015625 -20.304688 9.859375 -19.203125 C 10.703125 -18.097656 11.125 -16.460938 11.125 -14.296875 C 11.125 -12.171875 10.679688 -10.546875 9.796875 -9.421875 C 8.921875 -8.296875 7.625 -7.734375 5.90625 -7.734375 C 4.207031 -7.734375 2.921875 -8.289062 2.046875 -9.40625 C 1.179688 -10.519531 0.75 -12.148438 0.75 -14.296875 C 0.75 -16.515625 1.164062 -18.160156 2 -19.234375 C 2.84375 -20.316406 4.164062 -20.859375 5.96875 -20.859375 Z M 22.71875 -6.328125 C 22.71875 -7.878906 22.566406 -8.984375 22.265625 -9.640625 C 21.972656 -10.304688 21.46875 -10.640625 20.75 -10.640625 C 19.96875 -10.640625 19.425781 -10.300781 19.125 -9.625 C 18.832031 -8.957031 18.6875 -7.859375 18.6875 -6.328125 C 18.6875 -4.765625 18.84375 -3.660156 19.15625 -3.015625 C 19.46875 -2.378906 19.988281 -2.0625 20.71875 -2.0625 C 21.425781 -2.0625 21.9375 -2.394531 22.25 -3.0625 C 22.5625 -3.726562 22.71875 -4.816406 22.71875 -6.328125 Z M 7.953125 -14.296875 C 7.953125 -15.835938 7.800781 -16.9375 7.5 -17.59375 C 7.207031 -18.257812 6.695312 -18.59375 5.96875 -18.59375 C 5.1875 -18.59375 4.644531 -18.265625 4.34375 -17.609375 C 4.039062 -16.953125 3.890625 -15.847656 3.890625 -14.296875 C 3.890625 -12.753906 4.046875 -11.65625 4.359375 -11 C 4.679688 -10.34375 5.207031 -10.015625 5.9375 -10.015625 C 6.664062 -10.015625 7.179688 -10.34375 7.484375 -11 C 7.796875 -11.664062 7.953125 -12.765625 7.953125 -14.296875 Z M 7.953125 -14.296875 "/></g></g></g><g clip-path="url(#e3cdd1b4c0)"><path fill="#d9d9d9" d="M 75.359375 304.566406 L 262.003906 304.566406 L 262.003906 372.027344 L 75.359375 372.027344 Z M 75.359375 304.566406 " fill-opacity="1" fill-rule="nonzero"/></g><g clip-path="url(#05005d61aa)"><g mask="url(#b70ca1df01)"><g transform="matrix(1, 0, 0, 1, 271, 304)"><g clip-path="url(#c2b1138d2e)"><g clip-path="url(#0077d0caa6)"><path fill="#ffc000" d="M 0.175781 0.566406 L 186.820312 0.566406 L 186.820312 68.027344 L 0.175781 68.027344 Z M 0.175781 0.566406 " fill-opacity="1" fill-rule="nonzero"/></g></g></g></g></g><g fill="#808080" fill-opacity="1"><g transform="translate(347.973219, 348.040463)"><g><path d="M 15.84375 -6.859375 C 15.84375 -4.679688 15.160156 -2.941406 13.796875 -1.640625 C 12.429688 -0.347656 10.566406 0.296875 8.203125 0.296875 C 6.128906 0.296875 4.46875 -0.164062 3.21875 -1.09375 C 1.976562 -2.03125 1.210938 -3.382812 0.921875 -5.15625 L 5.03125 -5.484375 C 5.25 -4.609375 5.628906 -3.96875 6.171875 -3.5625 C 6.722656 -3.164062 7.414062 -2.96875 8.25 -2.96875 C 9.269531 -2.96875 10.082031 -3.296875 10.6875 -3.953125 C 11.300781 -4.609375 11.609375 -5.550781 11.609375 -6.78125 C 11.609375 -7.863281 11.316406 -8.726562 10.734375 -9.375 C 10.160156 -10.019531 9.359375 -10.34375 8.328125 -10.34375 C 7.191406 -10.34375 6.257812 -9.898438 5.53125 -9.015625 L 1.515625 -9.015625 L 2.234375 -20.625 L 14.640625 -20.625 L 14.640625 -17.5625 L 5.96875 -17.5625 L 5.640625 -12.359375 C 6.628906 -13.234375 7.875 -13.671875 9.375 -13.671875 C 11.332031 -13.671875 12.898438 -13.0625 14.078125 -11.84375 C 15.253906 -10.625 15.84375 -8.960938 15.84375 -6.859375 Z M 15.84375 -6.859375 "/></g></g><g transform="translate(364.648478, 348.040463)"><g><path d="M 15.84375 -6.859375 C 15.84375 -4.679688 15.160156 -2.941406 13.796875 -1.640625 C 12.429688 -0.347656 10.566406 0.296875 8.203125 0.296875 C 6.128906 0.296875 4.46875 -0.164062 3.21875 -1.09375 C 1.976562 -2.03125 1.210938 -3.382812 0.921875 -5.15625 L 5.03125 -5.484375 C 5.25 -4.609375 5.628906 -3.96875 6.171875 -3.5625 C 6.722656 -3.164062 7.414062 -2.96875 8.25 -2.96875 C 9.269531 -2.96875 10.082031 -3.296875 10.6875 -3.953125 C 11.300781 -4.609375 11.609375 -5.550781 11.609375 -6.78125 C 11.609375 -7.863281 11.316406 -8.726562 10.734375 -9.375 C 10.160156 -10.019531 9.359375 -10.34375 8.328125 -10.34375 C 7.191406 -10.34375 6.257812 -9.898438 5.53125 -9.015625 L 1.515625 -9.015625 L 2.234375 -20.625 L 14.640625 -20.625 L 14.640625 -17.5625 L 5.96875 -17.5625 L 5.640625 -12.359375 C 6.628906 -13.234375 7.875 -13.671875 9.375 -13.671875 C 11.332031 -13.671875 12.898438 -13.0625 14.078125 -11.84375 C 15.253906 -10.625 15.84375 -8.960938 15.84375 -6.859375 Z M 15.84375 -6.859375 "/></g></g></g><g clip-path="url(#ba3cc14b68)"><g mask="url(#5feb3111f7)"><g transform="matrix(1, 0, 0, 1, 466, 304)"><g clip-path="url(#b54102e163)"><g clip-path="url(#0f2d110d05)"><path fill="#ffc000" d="M 0.996094 0.566406 L 187.640625 0.566406 L 187.640625 68.027344 L 0.996094 68.027344 Z M 0.996094 0.566406 " fill-opacity="1" fill-rule="nonzero"/></g></g></g></g></g><g fill="#808080" fill-opacity="1"><g transform="translate(552.130591, 348.040463)"><g><path d="M 15.59375 -6.75 C 15.59375 -4.550781 14.976562 -2.828125 13.75 -1.578125 C 12.519531 -0.328125 10.820312 0.296875 8.65625 0.296875 C 6.21875 0.296875 4.347656 -0.550781 3.046875 -2.25 C 1.742188 -3.957031 1.09375 -6.488281 1.09375 -9.84375 C 1.09375 -13.519531 1.753906 -16.285156 3.078125 -18.140625 C 4.398438 -20.003906 6.289062 -20.9375 8.75 -20.9375 C 10.5 -20.9375 11.878906 -20.550781 12.890625 -19.78125 C 13.898438 -19.007812 14.613281 -17.8125 15.03125 -16.1875 L 11.15625 -15.65625 C 10.78125 -17.007812 9.953125 -17.6875 8.671875 -17.6875 C 7.566406 -17.6875 6.695312 -17.132812 6.0625 -16.03125 C 5.4375 -14.925781 5.125 -13.253906 5.125 -11.015625 C 5.5625 -11.742188 6.171875 -12.300781 6.953125 -12.6875 C 7.734375 -13.082031 8.617188 -13.28125 9.609375 -13.28125 C 11.453125 -13.28125 12.910156 -12.691406 13.984375 -11.515625 C 15.054688 -10.347656 15.59375 -8.757812 15.59375 -6.75 Z M 11.46875 -6.625 C 11.46875 -7.800781 11.195312 -8.695312 10.65625 -9.3125 C 10.113281 -9.9375 9.367188 -10.25 8.421875 -10.25 C 7.515625 -10.25 6.785156 -9.957031 6.234375 -9.375 C 5.691406 -8.789062 5.421875 -8.023438 5.421875 -7.078125 C 5.421875 -5.867188 5.703125 -4.867188 6.265625 -4.078125 C 6.835938 -3.296875 7.585938 -2.90625 8.515625 -2.90625 C 9.441406 -2.90625 10.164062 -3.234375 10.6875 -3.890625 C 11.207031 -4.554688 11.46875 -5.46875 11.46875 -6.625 Z M 11.46875 -6.625 "/></g></g></g><g clip-path="url(#d69465d76a)"><path fill="#d9d9d9" d="M 784.699219 301.230469 L 971.347656 301.230469 L 971.347656 368.695312 L 784.699219 368.695312 Z M 784.699219 301.230469 " fill-opacity="1" fill-rule="nonzero"/></g></svg>