<svg xmlns="http://www.w3.org/2000/svg" xmlns:xlink="http://www.w3.org/1999/xlink" width="1127" zoomAndPan="magnify" viewBox="0 0 845.25 583.499966" height="778" preserveAspectRatio="xMidYMid meet" version="1.0"><defs><filter x="0%" y="0%" width="100%" height="100%" id="8c5f058f79"><feColorMatrix values="0 0 0 0 1 0 0 0 0 1 0 0 0 0 1 0 0 0 1 0" color-interpolation-filters="sRGB"/></filter><g/><clipPath id="9aa420c296"><path d="M 319.839844 193.253906 L 426.058594 193.253906 L 426.058594 231.492188 L 319.839844 231.492188 Z M 319.839844 193.253906 " clip-rule="nonzero"/></clipPath><clipPath id="521d33619e"><path d="M 430.308594 193.253906 L 536.523438 193.253906 L 536.523438 231.492188 L 430.308594 231.492188 Z M 430.308594 193.253906 " clip-rule="nonzero"/></clipPath><clipPath id="34ec2caba4"><path d="M 319.839844 236.074219 L 426.058594 236.074219 L 426.058594 274.3125 L 319.839844 274.3125 Z M 319.839844 236.074219 " clip-rule="nonzero"/></clipPath><clipPath id="1b08b5979e"><path d="M 430.308594 236.074219 L 536.523438 236.074219 L 536.523438 274.3125 L 430.308594 274.3125 Z M 430.308594 236.074219 " clip-rule="nonzero"/></clipPath><mask id="da64683bbe"><g filter="url(#8c5f058f79)"><rect x="-84.525" width="1014.3" fill="#000000" y="-58.349997" height="700.199959" fill-opacity="0.498"/></g></mask><clipPath id="1f7f106f9e"><path d="M 0.308594 0.0742188 L 106.523438 0.0742188 L 106.523438 38.3125 L 0.308594 38.3125 Z M 0.308594 0.0742188 " clip-rule="nonzero"/></clipPath><clipPath id="3491e995bd"><rect x="0" width="107" y="0" height="39"/></clipPath><clipPath id="9f2ca89bde"><path d="M 540.773438 193.253906 L 646.992188 193.253906 L 646.992188 231.492188 L 540.773438 231.492188 Z M 540.773438 193.253906 " clip-rule="nonzero"/></clipPath><clipPath id="314661e20e"><path d="M 651.238281 193.253906 L 757.457031 193.253906 L 757.457031 231.492188 L 651.238281 231.492188 Z M 651.238281 193.253906 " clip-rule="nonzero"/></clipPath><clipPath id="32c9babb7e"><path d="M 540.773438 236.074219 L 646.992188 236.074219 L 646.992188 274.3125 L 540.773438 274.3125 Z M 540.773438 236.074219 " clip-rule="nonzero"/></clipPath><mask id="0c183a6ca1"><g filter="url(#8c5f058f79)"><rect x="-84.525" width="1014.3" fill="#000000" y="-58.349997" height="700.199959" fill-opacity="0.498"/></g></mask><clipPath id="71ac0412e2"><path d="M 0.773438 0.0742188 L 106.992188 0.0742188 L 106.992188 38.3125 L 0.773438 38.3125 Z M 0.773438 0.0742188 " clip-rule="nonzero"/></clipPath><clipPath id="c5967a9925"><rect x="0" width="107" y="0" height="39"/></clipPath><clipPath id="96f87a7cbc"><path d="M 651.238281 236.074219 L 757.457031 236.074219 L 757.457031 274.3125 L 651.238281 274.3125 Z M 651.238281 236.074219 " clip-rule="nonzero"/></clipPath><mask id="1ab19932e0"><g filter="url(#8c5f058f79)"><rect x="-84.525" width="1014.3" fill="#000000" y="-58.349997" height="700.199959" fill-opacity="0.498"/></g></mask><clipPath id="5d900327ff"><path d="M 0.238281 0.0742188 L 106.457031 0.0742188 L 106.457031 38.3125 L 0.238281 38.3125 Z M 0.238281 0.0742188 " clip-rule="nonzero"/></clipPath><clipPath id="7297003b47"><rect x="0" width="107" y="0" height="39"/></clipPath><clipPath id="917b510bdf"><path d="M 319.839844 278.890625 L 426.058594 278.890625 L 426.058594 317.128906 L 319.839844 317.128906 Z M 319.839844 278.890625 " clip-rule="nonzero"/></clipPath><clipPath id="7e2b01d50a"><path d="M 430.308594 278.890625 L 536.523438 278.890625 L 536.523438 317.128906 L 430.308594 317.128906 Z M 430.308594 278.890625 " clip-rule="nonzero"/></clipPath><mask id="9b3270dd8a"><g filter="url(#8c5f058f79)"><rect x="-84.525" width="1014.3" fill="#000000" y="-58.349997" height="700.199959" fill-opacity="0.498"/></g></mask><clipPath id="12ea113138"><path d="M 0.308594 0.890625 L 106.523438 0.890625 L 106.523438 39.128906 L 0.308594 39.128906 Z M 0.308594 0.890625 " clip-rule="nonzero"/></clipPath><clipPath id="a16a8fbe99"><rect x="0" width="107" y="0" height="40"/></clipPath><clipPath id="9c2631c1c8"><path d="M 319.839844 321.707031 L 426.058594 321.707031 L 426.058594 359.945312 L 319.839844 359.945312 Z M 319.839844 321.707031 " clip-rule="nonzero"/></clipPath><clipPath id="7d8de0f992"><path d="M 430.308594 321.707031 L 536.523438 321.707031 L 536.523438 359.945312 L 430.308594 359.945312 Z M 430.308594 321.707031 " clip-rule="nonzero"/></clipPath><mask id="045269e907"><g filter="url(#8c5f058f79)"><rect x="-84.525" width="1014.3" fill="#000000" y="-58.349997" height="700.199959" fill-opacity="0.498"/></g></mask><clipPath id="3833731b3c"><path d="M 0.308594 0.707031 L 106.523438 0.707031 L 106.523438 38.945312 L 0.308594 38.945312 Z M 0.308594 0.707031 " clip-rule="nonzero"/></clipPath><clipPath id="3fcfb4e09a"><rect x="0" width="107" y="0" height="39"/></clipPath><clipPath id="4f4c1e51fa"><path d="M 540.773438 278.890625 L 646.992188 278.890625 L 646.992188 317.128906 L 540.773438 317.128906 Z M 540.773438 278.890625 " clip-rule="nonzero"/></clipPath><mask id="66f3411ea7"><g filter="url(#8c5f058f79)"><rect x="-84.525" width="1014.3" fill="#000000" y="-58.349997" height="700.199959" fill-opacity="0.498"/></g></mask><clipPath id="ea69de53e7"><path d="M 0.773438 0.890625 L 106.992188 0.890625 L 106.992188 39.128906 L 0.773438 39.128906 Z M 0.773438 0.890625 " clip-rule="nonzero"/></clipPath><clipPath id="14429e6661"><rect x="0" width="107" y="0" height="40"/></clipPath><clipPath id="89086acec6"><path d="M 651.238281 278.890625 L 757.457031 278.890625 L 757.457031 317.128906 L 651.238281 317.128906 Z M 651.238281 278.890625 " clip-rule="nonzero"/></clipPath><mask id="bef9e7e3bd"><g filter="url(#8c5f058f79)"><rect x="-84.525" width="1014.3" fill="#000000" y="-58.349997" height="700.199959" fill-opacity="0.498"/></g></mask><clipPath id="cf6fdc41b1"><path d="M 0.238281 0.890625 L 106.457031 0.890625 L 106.457031 39.128906 L 0.238281 39.128906 Z M 0.238281 0.890625 " clip-rule="nonzero"/></clipPath><clipPath id="514212c26e"><rect x="0" width="107" y="0" height="40"/></clipPath><clipPath id="f96407852f"><path d="M 540.773438 321.707031 L 646.992188 321.707031 L 646.992188 359.945312 L 540.773438 359.945312 Z M 540.773438 321.707031 " clip-rule="nonzero"/></clipPath><mask id="f7e554a332"><g filter="url(#8c5f058f79)"><rect x="-84.525" width="1014.3" fill="#000000" y="-58.349997" height="700.199959" fill-opacity="0.498"/></g></mask><clipPath id="400ef1c1a0"><path d="M 0.773438 0.707031 L 106.992188 0.707031 L 106.992188 38.945312 L 0.773438 38.945312 Z M 0.773438 0.707031 " clip-rule="nonzero"/></clipPath><clipPath id="2671bdadf9"><rect x="0" width="107" y="0" height="39"/></clipPath><clipPath id="47f6e714c1"><path d="M 651.238281 321.707031 L 757.457031 321.707031 L 757.457031 359.945312 L 651.238281 359.945312 Z M 651.238281 321.707031 " clip-rule="nonzero"/></clipPath><mask id="f121595256"><g filter="url(#8c5f058f79)"><rect x="-84.525" width="1014.3" fill="#000000" y="-58.349997" height="700.199959" fill-opacity="0.498"/></g></mask><clipPath id="c6f366f25a"><path d="M 0.238281 0.707031 L 106.457031 0.707031 L 106.457031 38.945312 L 0.238281 38.945312 Z M 0.238281 0.707031 " clip-rule="nonzero"/></clipPath><clipPath id="097934c6d1"><rect x="0" width="107" y="0" height="39"/></clipPath><clipPath id="dd9f4ec5dd"><path d="M 319.839844 364.523438 L 426.058594 364.523438 L 426.058594 402.761719 L 319.839844 402.761719 Z M 319.839844 364.523438 " clip-rule="nonzero"/></clipPath><clipPath id="8b8ac92b5f"><path d="M 430.308594 364.523438 L 536.523438 364.523438 L 536.523438 402.761719 L 430.308594 402.761719 Z M 430.308594 364.523438 " clip-rule="nonzero"/></clipPath><mask id="614858a567"><g filter="url(#8c5f058f79)"><rect x="-84.525" width="1014.3" fill="#000000" y="-58.349997" height="700.199959" fill-opacity="0.498"/></g></mask><clipPath id="7675680581"><path d="M 0.308594 0.523438 L 106.523438 0.523438 L 106.523438 38.761719 L 0.308594 38.761719 Z M 0.308594 0.523438 " clip-rule="nonzero"/></clipPath><clipPath id="ae54176288"><rect x="0" width="107" y="0" height="39"/></clipPath><clipPath id="a5de060eb8"><path d="M 540.773438 364.523438 L 646.992188 364.523438 L 646.992188 402.761719 L 540.773438 402.761719 Z M 540.773438 364.523438 " clip-rule="nonzero"/></clipPath><mask id="a50544f57c"><g filter="url(#8c5f058f79)"><rect x="-84.525" width="1014.3" fill="#000000" y="-58.349997" height="700.199959" fill-opacity="0.498"/></g></mask><clipPath id="fbdff664f7"><path d="M 0.773438 0.523438 L 106.992188 0.523438 L 106.992188 38.761719 L 0.773438 38.761719 Z M 0.773438 0.523438 " clip-rule="nonzero"/></clipPath><clipPath id="68d5fca3b2"><rect x="0" width="107" y="0" height="39"/></clipPath><clipPath id="92176bbd42"><path d="M 651.238281 364.523438 L 757.457031 364.523438 L 757.457031 402.761719 L 651.238281 402.761719 Z M 651.238281 364.523438 " clip-rule="nonzero"/></clipPath><mask id="49463a686c"><g filter="url(#8c5f058f79)"><rect x="-84.525" width="1014.3" fill="#000000" y="-58.349997" height="700.199959" fill-opacity="0.498"/></g></mask><clipPath id="8ab14d2458"><path d="M 0.238281 0.523438 L 106.457031 0.523438 L 106.457031 38.761719 L 0.238281 38.761719 Z M 0.238281 0.523438 " clip-rule="nonzero"/></clipPath><clipPath id="2995605e43"><rect x="0" width="107" y="0" height="39"/></clipPath><clipPath id="b1a7073784"><path d="M 259.984375 193.984375 L 299 193.984375 L 299 403.800781 L 259.984375 403.800781 Z M 259.984375 193.984375 " clip-rule="nonzero"/></clipPath><clipPath id="4b7c3364a0"><path d="M 298.597656 403.34375 C 288.371094 403.34375 279.109375 402 279.109375 399.730469 L 279.109375 301.90625 L 279.484375 301.90625 L 279.109375 301.90625 C 279.109375 300.601562 271.253906 299.042969 260.367188 299.042969 L 260.367188 298.292969 C 271.261719 298.292969 279.109375 296.734375 279.109375 295.429688 L 279.484375 295.429688 L 279.109375 295.429688 L 279.109375 197.597656 L 279.484375 197.597656 L 279.109375 197.597656 L 279.484375 197.597656 L 279.109375 197.597656 C 279.101562 195.328125 288.371094 193.984375 298.597656 193.984375 C 298.808594 193.984375 298.972656 194.148438 298.972656 194.359375 L 298.972656 402.96875 C 298.972656 403.066406 298.9375 403.160156 298.859375 403.230469 C 298.785156 403.296875 298.695312 403.34375 298.597656 403.34375 M 298.597656 402.59375 L 298.597656 402.96875 L 298.222656 402.96875 L 298.222656 194.359375 L 298.597656 194.359375 L 298.597656 194.734375 C 287.703125 194.734375 279.851562 196.292969 279.851562 197.597656 L 279.851562 295.429688 C 279.851562 297.699219 270.582031 299.042969 260.359375 299.042969 C 260.152344 299.042969 259.984375 298.878906 259.984375 298.667969 C 259.984375 298.457031 260.152344 298.292969 260.359375 298.292969 C 270.589844 298.292969 279.851562 299.632812 279.851562 301.90625 L 279.851562 399.730469 L 279.476562 399.730469 L 279.851562 399.730469 C 279.851562 401.035156 287.703125 402.59375 298.589844 402.59375 L 298.597656 402.59375 " clip-rule="nonzero"/></clipPath><clipPath id="fc50e05a6a"><path d="M 320 130.300781 L 756.386719 130.300781 L 756.386719 170 L 320 170 Z M 320 130.300781 " clip-rule="nonzero"/></clipPath><clipPath id="72754f0e1e"><path d="M 319.9375 168.914062 C 319.9375 158.6875 321.277344 149.425781 323.558594 149.425781 L 534.921875 149.425781 L 534.921875 149.800781 L 534.921875 149.425781 C 536.226562 149.425781 537.792969 141.570312 537.792969 130.683594 L 538.542969 130.683594 C 538.542969 141.578125 540.105469 149.425781 541.410156 149.425781 L 541.410156 149.800781 L 541.410156 149.425781 L 752.769531 149.425781 L 752.769531 149.800781 L 752.769531 149.425781 L 752.769531 149.800781 L 752.769531 149.425781 C 755.046875 149.417969 756.386719 158.6875 756.386719 168.914062 C 756.386719 169.125 756.222656 169.289062 756.011719 169.289062 L 320.3125 169.289062 C 320.214844 169.289062 320.117188 169.25 320.050781 169.175781 C 319.984375 169.101562 319.9375 169.011719 319.9375 168.914062 M 320.6875 168.914062 L 320.3125 168.914062 L 320.3125 168.539062 L 756.011719 168.539062 L 756.011719 168.914062 L 755.636719 168.914062 C 755.636719 158.019531 754.074219 150.167969 752.769531 150.167969 L 541.402344 150.167969 C 539.125 150.167969 537.785156 140.898438 537.785156 130.675781 C 537.785156 130.464844 537.949219 130.300781 538.160156 130.300781 C 538.367188 130.300781 538.535156 130.464844 538.535156 130.675781 C 538.535156 140.90625 537.191406 150.167969 534.914062 150.167969 L 323.558594 150.167969 L 323.558594 149.792969 L 323.558594 150.167969 C 322.253906 150.167969 320.6875 158.019531 320.6875 168.90625 L 320.6875 168.914062 " clip-rule="nonzero"/></clipPath><clipPath id="e3d6ad03d4"><path d="M 652.144531 418.039062 L 756 418.039062 L 756 457.753906 L 652.144531 457.753906 Z M 652.144531 418.039062 " clip-rule="nonzero"/></clipPath><clipPath id="17a616f3e1"><path d="M 755.769531 419.140625 C 755.769531 429.367188 754.433594 438.628906 752.171875 438.628906 L 707.183594 438.628906 L 707.183594 438.253906 L 707.183594 438.628906 C 705.886719 438.628906 704.335938 446.484375 704.335938 457.371094 L 703.585938 457.371094 C 703.585938 446.476562 702.027344 438.628906 700.738281 438.628906 L 700.738281 438.253906 L 700.738281 438.628906 L 655.742188 438.628906 L 655.742188 438.253906 L 655.742188 438.628906 L 655.742188 438.253906 L 655.742188 438.628906 C 653.476562 438.636719 652.144531 429.367188 652.144531 419.140625 C 652.144531 418.929688 652.308594 418.765625 652.519531 418.765625 L 755.394531 418.765625 C 755.492188 418.765625 755.589844 418.800781 755.65625 418.878906 C 755.722656 418.953125 755.769531 419.042969 755.769531 419.140625 M 755.019531 419.140625 L 755.394531 419.140625 L 755.394531 419.515625 L 652.519531 419.515625 L 652.519531 419.140625 L 652.894531 419.140625 C 652.894531 430.035156 654.453125 437.886719 655.742188 437.886719 L 700.730469 437.886719 C 703 437.886719 704.328125 447.15625 704.328125 457.378906 C 704.328125 457.585938 704.164062 457.753906 703.953125 457.753906 C 703.742188 457.753906 703.578125 457.585938 703.578125 457.378906 C 703.578125 447.148438 704.910156 437.886719 707.175781 437.886719 L 752.164062 437.886719 L 752.164062 438.261719 L 752.164062 437.886719 C 753.460938 437.886719 755.011719 430.035156 755.011719 419.148438 L 755.019531 419.140625 " clip-rule="nonzero"/></clipPath></defs><g fill="#808080" fill-opacity="1"><g transform="translate(95.274485, 311.215706)"><g><path d="M 16.90625 0 L 16.90625 -14.0625 C 16.90625 -15.519531 16.757812 -16.648438 16.46875 -17.453125 C 16.1875 -18.265625 15.726562 -18.847656 15.09375 -19.203125 C 14.46875 -19.554688 13.550781 -19.734375 12.34375 -19.734375 C 10.5625 -19.734375 9.15625 -19.125 8.125 -17.90625 C 7.101562 -16.695312 6.59375 -15.007812 6.59375 -12.84375 L 6.59375 0 L 2.90625 0 L 2.90625 -17.4375 C 2.90625 -20.019531 2.863281 -21.597656 2.78125 -22.171875 L 6.265625 -22.171875 C 6.285156 -22.109375 6.300781 -21.925781 6.3125 -21.625 C 6.320312 -21.320312 6.335938 -20.972656 6.359375 -20.578125 C 6.378906 -20.191406 6.40625 -19.457031 6.4375 -18.375 L 6.5 -18.375 C 7.34375 -19.90625 8.320312 -20.988281 9.4375 -21.625 C 10.550781 -22.257812 11.9375 -22.578125 13.59375 -22.578125 C 16.019531 -22.578125 17.796875 -21.972656 18.921875 -20.765625 C 20.046875 -19.554688 20.609375 -17.5625 20.609375 -14.78125 L 20.609375 0 Z M 16.90625 0 "/></g></g><g transform="translate(118.612175, 311.215706)"><g/></g><g transform="translate(130.270775, 311.215706)"><g><path d="M 23.859375 0 L 16.359375 -11.984375 L 7.359375 -11.984375 L 7.359375 0 L 3.4375 0 L 3.4375 -28.875 L 17.03125 -28.875 C 20.28125 -28.875 22.789062 -28.144531 24.5625 -26.6875 C 26.332031 -25.238281 27.21875 -23.210938 27.21875 -20.609375 C 27.21875 -18.460938 26.59375 -16.660156 25.34375 -15.203125 C 24.09375 -13.742188 22.367188 -12.820312 20.171875 -12.4375 L 28.359375 0 Z M 23.28125 -20.578125 C 23.28125 -22.253906 22.707031 -23.53125 21.5625 -24.40625 C 20.425781 -25.289062 18.785156 -25.734375 16.640625 -25.734375 L 7.359375 -25.734375 L 7.359375 -15.078125 L 16.796875 -15.078125 C 18.859375 -15.078125 20.453125 -15.554688 21.578125 -16.515625 C 22.710938 -17.484375 23.28125 -18.835938 23.28125 -20.578125 Z M 23.28125 -20.578125 "/></g></g><g transform="translate(160.574939, 311.215706)"><g><path d="M 21.578125 -11.109375 C 21.578125 -7.222656 20.722656 -4.332031 19.015625 -2.4375 C 17.304688 -0.539062 14.828125 0.40625 11.578125 0.40625 C 8.335938 0.40625 5.890625 -0.578125 4.234375 -2.546875 C 2.585938 -4.523438 1.765625 -7.378906 1.765625 -11.109375 C 1.765625 -18.753906 5.078125 -22.578125 11.703125 -22.578125 C 15.085938 -22.578125 17.578125 -21.644531 19.171875 -19.78125 C 20.773438 -17.914062 21.578125 -15.023438 21.578125 -11.109375 Z M 17.703125 -11.109375 C 17.703125 -14.171875 17.25 -16.394531 16.34375 -17.78125 C 15.4375 -19.164062 13.910156 -19.859375 11.765625 -19.859375 C 9.609375 -19.859375 8.046875 -19.148438 7.078125 -17.734375 C 6.117188 -16.316406 5.640625 -14.109375 5.640625 -11.109375 C 5.640625 -8.179688 6.113281 -5.984375 7.0625 -4.515625 C 8.007812 -3.046875 9.5 -2.3125 11.53125 -2.3125 C 13.75 -2.3125 15.332031 -3.019531 16.28125 -4.4375 C 17.226562 -5.863281 17.703125 -8.085938 17.703125 -11.109375 Z M 17.703125 -11.109375 "/></g></g><g transform="translate(183.912628, 311.215706)"><g><path d="M 24.0625 0 L 19.78125 0 L 15.90625 -15.671875 L 15.171875 -19.140625 C 15.046875 -18.523438 14.851562 -17.640625 14.59375 -16.484375 C 14.332031 -15.328125 12.9375 -9.832031 10.40625 0 L 6.140625 0 L -0.0625 -22.171875 L 3.59375 -22.171875 L 7.34375 -7.109375 C 7.4375 -6.785156 7.726562 -5.429688 8.21875 -3.046875 L 8.5625 -4.5625 L 13.203125 -22.171875 L 17.15625 -22.171875 L 21.03125 -6.953125 L 21.96875 -3.046875 L 22.609375 -5.90625 L 26.796875 -22.171875 L 30.40625 -22.171875 Z M 24.0625 0 "/></g></g><g transform="translate(214.216793, 311.215706)"><g><path d="M 19.46875 -6.125 C 19.46875 -4.03125 18.675781 -2.414062 17.09375 -1.28125 C 15.519531 -0.15625 13.3125 0.40625 10.46875 0.40625 C 7.707031 0.40625 5.578125 -0.046875 4.078125 -0.953125 C 2.585938 -1.859375 1.617188 -3.273438 1.171875 -5.203125 L 4.421875 -5.84375 C 4.734375 -4.65625 5.378906 -3.78125 6.359375 -3.21875 C 7.347656 -2.664062 8.71875 -2.390625 10.46875 -2.390625 C 12.34375 -2.390625 13.710938 -2.675781 14.578125 -3.25 C 15.441406 -3.832031 15.875 -4.695312 15.875 -5.84375 C 15.875 -6.71875 15.570312 -7.425781 14.96875 -7.96875 C 14.375 -8.519531 13.40625 -8.972656 12.0625 -9.328125 L 9.421875 -10.015625 C 7.304688 -10.566406 5.800781 -11.101562 4.90625 -11.625 C 4.007812 -12.15625 3.304688 -12.796875 2.796875 -13.546875 C 2.296875 -14.296875 2.046875 -15.21875 2.046875 -16.3125 C 2.046875 -18.332031 2.765625 -19.867188 4.203125 -20.921875 C 5.648438 -21.984375 7.753906 -22.515625 10.515625 -22.515625 C 12.960938 -22.515625 14.90625 -22.082031 16.34375 -21.21875 C 17.78125 -20.363281 18.691406 -18.988281 19.078125 -17.09375 L 15.765625 -16.6875 C 15.554688 -17.664062 15.003906 -18.414062 14.109375 -18.9375 C 13.210938 -19.46875 12.015625 -19.734375 10.515625 -19.734375 C 8.847656 -19.734375 7.617188 -19.476562 6.828125 -18.96875 C 6.035156 -18.46875 5.640625 -17.707031 5.640625 -16.6875 C 5.640625 -16.050781 5.800781 -15.53125 6.125 -15.125 C 6.457031 -14.71875 6.941406 -14.367188 7.578125 -14.078125 C 8.222656 -13.785156 9.578125 -13.390625 11.640625 -12.890625 C 13.585938 -12.398438 14.992188 -11.945312 15.859375 -11.53125 C 16.722656 -11.113281 17.398438 -10.648438 17.890625 -10.140625 C 18.390625 -9.640625 18.773438 -9.054688 19.046875 -8.390625 C 19.328125 -7.722656 19.46875 -6.96875 19.46875 -6.125 Z M 19.46875 -6.125 "/></g></g></g><g clip-path="url(#9aa420c296)"><path fill="#d9d9d9" d="M 319.839844 193.253906 L 426.246094 193.253906 L 426.246094 231.472656 L 319.839844 231.472656 Z M 319.839844 193.253906 " fill-opacity="1" fill-rule="nonzero"/></g><g clip-path="url(#521d33619e)"><path fill="#d9d9d9" d="M 430.308594 193.253906 L 536.710938 193.253906 L 536.710938 231.472656 L 430.308594 231.472656 Z M 430.308594 193.253906 " fill-opacity="1" fill-rule="nonzero"/></g><g clip-path="url(#34ec2caba4)"><path fill="#d9d9d9" d="M 319.839844 236.074219 L 426.246094 236.074219 L 426.246094 274.289062 L 319.839844 274.289062 Z M 319.839844 236.074219 " fill-opacity="1" fill-rule="nonzero"/></g><g clip-path="url(#1b08b5979e)"><g mask="url(#da64683bbe)"><g transform="matrix(1, 0, 0, 1, 430, 236)"><g clip-path="url(#3491e995bd)"><g clip-path="url(#1f7f106f9e)"><path fill="#03e313" d="M 0.308594 0.0742188 L 106.710938 0.0742188 L 106.710938 38.289062 L 0.308594 38.289062 Z M 0.308594 0.0742188 " fill-opacity="1" fill-rule="nonzero"/></g></g></g></g></g><g fill="#808080" fill-opacity="1"><g transform="translate(458.407207, 265.296452)"><g><path d="M 2.28125 0 L 2.28125 -2.234375 L 7.53125 -2.234375 L 7.53125 -18.09375 L 2.875 -14.78125 L 2.875 -17.265625 L 7.75 -20.625 L 10.1875 -20.625 L 10.1875 -2.234375 L 15.203125 -2.234375 L 15.203125 0 Z M 2.28125 0 "/></g></g><g transform="translate(475.076985, 265.296452)"><g><path d="M 1.5 0 L 1.5 -1.859375 C 2 -3.003906 2.609375 -4.007812 3.328125 -4.875 C 4.046875 -5.75 4.800781 -6.539062 5.59375 -7.25 C 6.382812 -7.957031 7.164062 -8.613281 7.9375 -9.21875 C 8.71875 -9.820312 9.414062 -10.425781 10.03125 -11.03125 C 10.65625 -11.632812 11.160156 -12.269531 11.546875 -12.9375 C 11.929688 -13.601562 12.125 -14.351562 12.125 -15.1875 C 12.125 -16.320312 11.789062 -17.203125 11.125 -17.828125 C 10.46875 -18.453125 9.550781 -18.765625 8.375 -18.765625 C 7.25 -18.765625 6.320312 -18.457031 5.59375 -17.84375 C 4.863281 -17.238281 4.4375 -16.382812 4.3125 -15.28125 L 1.625 -15.53125 C 1.820312 -17.175781 2.519531 -18.484375 3.71875 -19.453125 C 4.925781 -20.429688 6.476562 -20.921875 8.375 -20.921875 C 10.445312 -20.921875 12.039062 -20.429688 13.15625 -19.453125 C 14.28125 -18.472656 14.84375 -17.082031 14.84375 -15.28125 C 14.84375 -14.476562 14.65625 -13.679688 14.28125 -12.890625 C 13.914062 -12.097656 13.375 -11.304688 12.65625 -10.515625 C 11.9375 -9.734375 10.554688 -8.507812 8.515625 -6.84375 C 7.390625 -5.925781 6.492188 -5.097656 5.828125 -4.359375 C 5.171875 -3.628906 4.695312 -2.921875 4.40625 -2.234375 L 15.15625 -2.234375 L 15.15625 0 Z M 1.5 0 "/></g></g><g transform="translate(491.746763, 265.296452)"><g><path d="M 2.28125 0 L 2.28125 -2.234375 L 7.53125 -2.234375 L 7.53125 -18.09375 L 2.875 -14.78125 L 2.875 -17.265625 L 7.75 -20.625 L 10.1875 -20.625 L 10.1875 -2.234375 L 15.203125 -2.234375 L 15.203125 0 Z M 2.28125 0 "/></g></g></g><g clip-path="url(#9f2ca89bde)"><path fill="#d9d9d9" d="M 540.773438 193.253906 L 647.179688 193.253906 L 647.179688 231.472656 L 540.773438 231.472656 Z M 540.773438 193.253906 " fill-opacity="1" fill-rule="nonzero"/></g><g clip-path="url(#314661e20e)"><path fill="#d9d9d9" d="M 651.238281 193.253906 L 757.644531 193.253906 L 757.644531 231.472656 L 651.238281 231.472656 Z M 651.238281 193.253906 " fill-opacity="1" fill-rule="nonzero"/></g><g clip-path="url(#32c9babb7e)"><g mask="url(#0c183a6ca1)"><g transform="matrix(1, 0, 0, 1, 540, 236)"><g clip-path="url(#c5967a9925)"><g clip-path="url(#71ac0412e2)"><path fill="#03e313" d="M 0.773438 0.0742188 L 107.179688 0.0742188 L 107.179688 38.289062 L 0.773438 38.289062 Z M 0.773438 0.0742188 " fill-opacity="1" fill-rule="nonzero"/></g></g></g></g></g><g fill="#808080" fill-opacity="1"><g transform="translate(568.872649, 265.296452)"><g><path d="M 1.5 0 L 1.5 -1.859375 C 2 -3.003906 2.609375 -4.007812 3.328125 -4.875 C 4.046875 -5.75 4.800781 -6.539062 5.59375 -7.25 C 6.382812 -7.957031 7.164062 -8.613281 7.9375 -9.21875 C 8.71875 -9.820312 9.414062 -10.425781 10.03125 -11.03125 C 10.65625 -11.632812 11.160156 -12.269531 11.546875 -12.9375 C 11.929688 -13.601562 12.125 -14.351562 12.125 -15.1875 C 12.125 -16.320312 11.789062 -17.203125 11.125 -17.828125 C 10.46875 -18.453125 9.550781 -18.765625 8.375 -18.765625 C 7.25 -18.765625 6.320312 -18.457031 5.59375 -17.84375 C 4.863281 -17.238281 4.4375 -16.382812 4.3125 -15.28125 L 1.625 -15.53125 C 1.820312 -17.175781 2.519531 -18.484375 3.71875 -19.453125 C 4.925781 -20.429688 6.476562 -20.921875 8.375 -20.921875 C 10.445312 -20.921875 12.039062 -20.429688 13.15625 -19.453125 C 14.28125 -18.472656 14.84375 -17.082031 14.84375 -15.28125 C 14.84375 -14.476562 14.65625 -13.679688 14.28125 -12.890625 C 13.914062 -12.097656 13.375 -11.304688 12.65625 -10.515625 C 11.9375 -9.734375 10.554688 -8.507812 8.515625 -6.84375 C 7.390625 -5.925781 6.492188 -5.097656 5.828125 -4.359375 C 5.171875 -3.628906 4.695312 -2.921875 4.40625 -2.234375 L 15.15625 -2.234375 L 15.15625 0 Z M 1.5 0 "/></g></g><g transform="translate(585.542427, 265.296452)"><g><path d="M 15.359375 -5.75 C 15.359375 -3.84375 14.753906 -2.359375 13.546875 -1.296875 C 12.335938 -0.234375 10.601562 0.296875 8.34375 0.296875 C 6.132812 0.296875 4.40625 -0.222656 3.15625 -1.265625 C 1.914062 -2.316406 1.296875 -3.800781 1.296875 -5.71875 C 1.296875 -7.0625 1.679688 -8.191406 2.453125 -9.109375 C 3.222656 -10.023438 4.210938 -10.582031 5.421875 -10.78125 L 5.421875 -10.84375 C 4.296875 -11.101562 3.40625 -11.671875 2.75 -12.546875 C 2.101562 -13.429688 1.78125 -14.460938 1.78125 -15.640625 C 1.78125 -17.210938 2.367188 -18.484375 3.546875 -19.453125 C 4.722656 -20.429688 6.300781 -20.921875 8.28125 -20.921875 C 10.3125 -20.921875 11.914062 -20.441406 13.09375 -19.484375 C 14.269531 -18.535156 14.859375 -17.242188 14.859375 -15.609375 C 14.859375 -14.429688 14.53125 -13.398438 13.875 -12.515625 C 13.21875 -11.640625 12.320312 -11.09375 11.1875 -10.875 L 11.1875 -10.8125 C 12.507812 -10.59375 13.535156 -10.03125 14.265625 -9.125 C 14.992188 -8.226562 15.359375 -7.101562 15.359375 -5.75 Z M 12.109375 -15.46875 C 12.109375 -17.800781 10.832031 -18.96875 8.28125 -18.96875 C 7.039062 -18.96875 6.097656 -18.671875 5.453125 -18.078125 C 4.804688 -17.492188 4.484375 -16.625 4.484375 -15.46875 C 4.484375 -14.289062 4.816406 -13.390625 5.484375 -12.765625 C 6.148438 -12.148438 7.09375 -11.84375 8.3125 -11.84375 C 9.550781 -11.84375 10.492188 -12.125 11.140625 -12.6875 C 11.785156 -13.257812 12.109375 -14.1875 12.109375 -15.46875 Z M 12.625 -6 C 12.625 -7.28125 12.242188 -8.242188 11.484375 -8.890625 C 10.722656 -9.535156 9.65625 -9.859375 8.28125 -9.859375 C 6.945312 -9.859375 5.90625 -9.507812 5.15625 -8.8125 C 4.40625 -8.113281 4.03125 -7.15625 4.03125 -5.9375 C 4.03125 -3.101562 5.476562 -1.6875 8.375 -1.6875 C 9.800781 -1.6875 10.863281 -2.03125 11.5625 -2.71875 C 12.269531 -3.40625 12.625 -4.5 12.625 -6 Z M 12.625 -6 "/></g></g><g transform="translate(602.212206, 265.296452)"><g><path d="M 15.15625 -18.484375 C 13.050781 -15.265625 11.5625 -12.742188 10.6875 -10.921875 C 9.820312 -9.097656 9.171875 -7.296875 8.734375 -5.515625 C 8.304688 -3.742188 8.09375 -1.90625 8.09375 0 L 5.34375 0 C 5.34375 -2.632812 5.898438 -5.40625 7.015625 -8.3125 C 8.128906 -11.226562 9.992188 -14.582031 12.609375 -18.375 L 1.53125 -18.375 L 1.53125 -20.625 L 15.15625 -20.625 Z M 15.15625 -18.484375 "/></g></g></g><g clip-path="url(#96f87a7cbc)"><g mask="url(#1ab19932e0)"><g transform="matrix(1, 0, 0, 1, 651, 236)"><g clip-path="url(#7297003b47)"><g clip-path="url(#5d900327ff)"><path fill="#03e313" d="M 0.238281 0.0742188 L 106.644531 0.0742188 L 106.644531 38.289062 L 0.238281 38.289062 Z M 0.238281 0.0742188 " fill-opacity="1" fill-rule="nonzero"/></g></g></g></g></g><g fill="#808080" fill-opacity="1"><g transform="translate(679.338115, 265.296452)"><g><path d="M 1.5 0 L 1.5 -1.859375 C 2 -3.003906 2.609375 -4.007812 3.328125 -4.875 C 4.046875 -5.75 4.800781 -6.539062 5.59375 -7.25 C 6.382812 -7.957031 7.164062 -8.613281 7.9375 -9.21875 C 8.71875 -9.820312 9.414062 -10.425781 10.03125 -11.03125 C 10.65625 -11.632812 11.160156 -12.269531 11.546875 -12.9375 C 11.929688 -13.601562 12.125 -14.351562 12.125 -15.1875 C 12.125 -16.320312 11.789062 -17.203125 11.125 -17.828125 C 10.46875 -18.453125 9.550781 -18.765625 8.375 -18.765625 C 7.25 -18.765625 6.320312 -18.457031 5.59375 -17.84375 C 4.863281 -17.238281 4.4375 -16.382812 4.3125 -15.28125 L 1.625 -15.53125 C 1.820312 -17.175781 2.519531 -18.484375 3.71875 -19.453125 C 4.925781 -20.429688 6.476562 -20.921875 8.375 -20.921875 C 10.445312 -20.921875 12.039062 -20.429688 13.15625 -19.453125 C 14.28125 -18.472656 14.84375 -17.082031 14.84375 -15.28125 C 14.84375 -14.476562 14.65625 -13.679688 14.28125 -12.890625 C 13.914062 -12.097656 13.375 -11.304688 12.65625 -10.515625 C 11.9375 -9.734375 10.554688 -8.507812 8.515625 -6.84375 C 7.390625 -5.925781 6.492188 -5.097656 5.828125 -4.359375 C 5.171875 -3.628906 4.695312 -2.921875 4.40625 -2.234375 L 15.15625 -2.234375 L 15.15625 0 Z M 1.5 0 "/></g></g><g transform="translate(696.007893, 265.296452)"><g><path d="M 1.5 0 L 1.5 -1.859375 C 2 -3.003906 2.609375 -4.007812 3.328125 -4.875 C 4.046875 -5.75 4.800781 -6.539062 5.59375 -7.25 C 6.382812 -7.957031 7.164062 -8.613281 7.9375 -9.21875 C 8.71875 -9.820312 9.414062 -10.425781 10.03125 -11.03125 C 10.65625 -11.632812 11.160156 -12.269531 11.546875 -12.9375 C 11.929688 -13.601562 12.125 -14.351562 12.125 -15.1875 C 12.125 -16.320312 11.789062 -17.203125 11.125 -17.828125 C 10.46875 -18.453125 9.550781 -18.765625 8.375 -18.765625 C 7.25 -18.765625 6.320312 -18.457031 5.59375 -17.84375 C 4.863281 -17.238281 4.4375 -16.382812 4.3125 -15.28125 L 1.625 -15.53125 C 1.820312 -17.175781 2.519531 -18.484375 3.71875 -19.453125 C 4.925781 -20.429688 6.476562 -20.921875 8.375 -20.921875 C 10.445312 -20.921875 12.039062 -20.429688 13.15625 -19.453125 C 14.28125 -18.472656 14.84375 -17.082031 14.84375 -15.28125 C 14.84375 -14.476562 14.65625 -13.679688 14.28125 -12.890625 C 13.914062 -12.097656 13.375 -11.304688 12.65625 -10.515625 C 11.9375 -9.734375 10.554688 -8.507812 8.515625 -6.84375 C 7.390625 -5.925781 6.492188 -5.097656 5.828125 -4.359375 C 5.171875 -3.628906 4.695312 -2.921875 4.40625 -2.234375 L 15.15625 -2.234375 L 15.15625 0 Z M 1.5 0 "/></g></g><g transform="translate(712.677672, 265.296452)"><g><path d="M 2.28125 0 L 2.28125 -2.234375 L 7.53125 -2.234375 L 7.53125 -18.09375 L 2.875 -14.78125 L 2.875 -17.265625 L 7.75 -20.625 L 10.1875 -20.625 L 10.1875 -2.234375 L 15.203125 -2.234375 L 15.203125 0 Z M 2.28125 0 "/></g></g></g><g clip-path="url(#917b510bdf)"><path fill="#d9d9d9" d="M 319.839844 278.890625 L 426.246094 278.890625 L 426.246094 317.105469 L 319.839844 317.105469 Z M 319.839844 278.890625 " fill-opacity="1" fill-rule="nonzero"/></g><g clip-path="url(#7e2b01d50a)"><g mask="url(#9b3270dd8a)"><g transform="matrix(1, 0, 0, 1, 430, 278)"><g clip-path="url(#a16a8fbe99)"><g clip-path="url(#12ea113138)"><path fill="#03e313" d="M 0.308594 0.890625 L 106.710938 0.890625 L 106.710938 39.105469 L 0.308594 39.105469 Z M 0.308594 0.890625 " fill-opacity="1" fill-rule="nonzero"/></g></g></g></g></g><g fill="#808080" fill-opacity="1"><g transform="translate(458.407207, 308.113459)"><g><path d="M 15.34375 -6.75 C 15.34375 -4.570312 14.753906 -2.851562 13.578125 -1.59375 C 12.398438 -0.332031 10.769531 0.296875 8.6875 0.296875 C 6.363281 0.296875 4.585938 -0.566406 3.359375 -2.296875 C 2.128906 -4.023438 1.515625 -6.535156 1.515625 -9.828125 C 1.515625 -13.398438 2.15625 -16.140625 3.4375 -18.046875 C 4.71875 -19.960938 6.535156 -20.921875 8.890625 -20.921875 C 12.003906 -20.921875 13.96875 -19.519531 14.78125 -16.71875 L 12.265625 -16.265625 C 11.742188 -17.941406 10.613281 -18.78125 8.875 -18.78125 C 7.363281 -18.78125 6.195312 -18.082031 5.375 -16.6875 C 4.550781 -15.289062 4.140625 -13.265625 4.140625 -10.609375 C 4.617188 -11.492188 5.289062 -12.164062 6.15625 -12.625 C 7.03125 -13.09375 8.023438 -13.328125 9.140625 -13.328125 C 11.046875 -13.328125 12.554688 -12.734375 13.671875 -11.546875 C 14.785156 -10.359375 15.34375 -8.757812 15.34375 -6.75 Z M 12.671875 -6.625 C 12.671875 -8.125 12.304688 -9.273438 11.578125 -10.078125 C 10.847656 -10.890625 9.828125 -11.296875 8.515625 -11.296875 C 7.285156 -11.296875 6.289062 -10.9375 5.53125 -10.21875 C 4.78125 -9.5 4.40625 -8.515625 4.40625 -7.265625 C 4.40625 -5.671875 4.796875 -4.363281 5.578125 -3.34375 C 6.367188 -2.332031 7.378906 -1.828125 8.609375 -1.828125 C 9.867188 -1.828125 10.859375 -2.253906 11.578125 -3.109375 C 12.304688 -3.960938 12.671875 -5.132812 12.671875 -6.625 Z M 12.671875 -6.625 "/></g></g><g transform="translate(475.076985, 308.113459)"><g><path d="M 15.25 -10.71875 C 15.25 -7.1875 14.601562 -4.46875 13.3125 -2.5625 C 12.019531 -0.65625 10.175781 0.296875 7.78125 0.296875 C 6.175781 0.296875 4.882812 -0.0390625 3.90625 -0.71875 C 2.9375 -1.394531 2.242188 -2.492188 1.828125 -4.015625 L 4.34375 -4.40625 C 4.875 -2.6875 6.035156 -1.828125 7.828125 -1.828125 C 9.335938 -1.828125 10.503906 -2.53125 11.328125 -3.9375 C 12.160156 -5.34375 12.597656 -7.347656 12.640625 -9.953125 C 12.253906 -9.078125 11.585938 -8.367188 10.640625 -7.828125 C 9.691406 -7.296875 8.648438 -7.03125 7.515625 -7.03125 C 5.660156 -7.03125 4.175781 -7.664062 3.0625 -8.9375 C 1.957031 -10.207031 1.40625 -11.890625 1.40625 -13.984375 C 1.40625 -16.140625 2.007812 -17.832031 3.21875 -19.0625 C 4.425781 -20.300781 6.109375 -20.921875 8.265625 -20.921875 C 10.554688 -20.921875 12.289062 -20.070312 13.46875 -18.375 C 14.65625 -16.675781 15.25 -14.125 15.25 -10.71875 Z M 12.375 -13.265625 C 12.375 -14.929688 11.992188 -16.265625 11.234375 -17.265625 C 10.472656 -18.273438 9.457031 -18.78125 8.1875 -18.78125 C 6.914062 -18.78125 5.910156 -18.347656 5.171875 -17.484375 C 4.441406 -16.628906 4.078125 -15.460938 4.078125 -13.984375 C 4.078125 -12.484375 4.441406 -11.296875 5.171875 -10.421875 C 5.910156 -9.546875 6.90625 -9.109375 8.15625 -9.109375 C 8.914062 -9.109375 9.617188 -9.28125 10.265625 -9.625 C 10.921875 -9.976562 11.4375 -10.472656 11.8125 -11.109375 C 12.1875 -11.742188 12.375 -12.460938 12.375 -13.265625 Z M 12.375 -13.265625 "/></g></g><g transform="translate(491.746763, 308.113459)"><g><path d="M 1.5 0 L 1.5 -1.859375 C 2 -3.003906 2.609375 -4.007812 3.328125 -4.875 C 4.046875 -5.75 4.800781 -6.539062 5.59375 -7.25 C 6.382812 -7.957031 7.164062 -8.613281 7.9375 -9.21875 C 8.71875 -9.820312 9.414062 -10.425781 10.03125 -11.03125 C 10.65625 -11.632812 11.160156 -12.269531 11.546875 -12.9375 C 11.929688 -13.601562 12.125 -14.351562 12.125 -15.1875 C 12.125 -16.320312 11.789062 -17.203125 11.125 -17.828125 C 10.46875 -18.453125 9.550781 -18.765625 8.375 -18.765625 C 7.25 -18.765625 6.320312 -18.457031 5.59375 -17.84375 C 4.863281 -17.238281 4.4375 -16.382812 4.3125 -15.28125 L 1.625 -15.53125 C 1.820312 -17.175781 2.519531 -18.484375 3.71875 -19.453125 C 4.925781 -20.429688 6.476562 -20.921875 8.375 -20.921875 C 10.445312 -20.921875 12.039062 -20.429688 13.15625 -19.453125 C 14.28125 -18.472656 14.84375 -17.082031 14.84375 -15.28125 C 14.84375 -14.476562 14.65625 -13.679688 14.28125 -12.890625 C 13.914062 -12.097656 13.375 -11.304688 12.65625 -10.515625 C 11.9375 -9.734375 10.554688 -8.507812 8.515625 -6.84375 C 7.390625 -5.925781 6.492188 -5.097656 5.828125 -4.359375 C 5.171875 -3.628906 4.695312 -2.921875 4.40625 -2.234375 L 15.15625 -2.234375 L 15.15625 0 Z M 1.5 0 "/></g></g></g><g clip-path="url(#9c2631c1c8)"><path fill="#d9d9d9" d="M 319.839844 321.707031 L 426.246094 321.707031 L 426.246094 359.921875 L 319.839844 359.921875 Z M 319.839844 321.707031 " fill-opacity="1" fill-rule="nonzero"/></g><g clip-path="url(#7d8de0f992)"><g mask="url(#045269e907)"><g transform="matrix(1, 0, 0, 1, 430, 321)"><g clip-path="url(#3fcfb4e09a)"><g clip-path="url(#3833731b3c)"><path fill="#03e313" d="M 0.308594 0.707031 L 106.710938 0.707031 L 106.710938 38.921875 L 0.308594 38.921875 Z M 0.308594 0.707031 " fill-opacity="1" fill-rule="nonzero"/></g></g></g></g></g><g fill="#808080" fill-opacity="1"><g transform="translate(458.407207, 350.930465)"><g><path d="M 15.25 -10.71875 C 15.25 -7.1875 14.601562 -4.46875 13.3125 -2.5625 C 12.019531 -0.65625 10.175781 0.296875 7.78125 0.296875 C 6.175781 0.296875 4.882812 -0.0390625 3.90625 -0.71875 C 2.9375 -1.394531 2.242188 -2.492188 1.828125 -4.015625 L 4.34375 -4.40625 C 4.875 -2.6875 6.035156 -1.828125 7.828125 -1.828125 C 9.335938 -1.828125 10.503906 -2.53125 11.328125 -3.9375 C 12.160156 -5.34375 12.597656 -7.347656 12.640625 -9.953125 C 12.253906 -9.078125 11.585938 -8.367188 10.640625 -7.828125 C 9.691406 -7.296875 8.648438 -7.03125 7.515625 -7.03125 C 5.660156 -7.03125 4.175781 -7.664062 3.0625 -8.9375 C 1.957031 -10.207031 1.40625 -11.890625 1.40625 -13.984375 C 1.40625 -16.140625 2.007812 -17.832031 3.21875 -19.0625 C 4.425781 -20.300781 6.109375 -20.921875 8.265625 -20.921875 C 10.554688 -20.921875 12.289062 -20.070312 13.46875 -18.375 C 14.65625 -16.675781 15.25 -14.125 15.25 -10.71875 Z M 12.375 -13.265625 C 12.375 -14.929688 11.992188 -16.265625 11.234375 -17.265625 C 10.472656 -18.273438 9.457031 -18.78125 8.1875 -18.78125 C 6.914062 -18.78125 5.910156 -18.347656 5.171875 -17.484375 C 4.441406 -16.628906 4.078125 -15.460938 4.078125 -13.984375 C 4.078125 -12.484375 4.441406 -11.296875 5.171875 -10.421875 C 5.910156 -9.546875 6.90625 -9.109375 8.15625 -9.109375 C 8.914062 -9.109375 9.617188 -9.28125 10.265625 -9.625 C 10.921875 -9.976562 11.4375 -10.472656 11.8125 -11.109375 C 12.1875 -11.742188 12.375 -12.460938 12.375 -13.265625 Z M 12.375 -13.265625 "/></g></g><g transform="translate(475.076985, 350.930465)"><g><path d="M 15.40625 -6.71875 C 15.40625 -4.539062 14.757812 -2.828125 13.46875 -1.578125 C 12.175781 -0.328125 10.382812 0.296875 8.09375 0.296875 C 6.164062 0.296875 4.613281 -0.117188 3.4375 -0.953125 C 2.257812 -1.796875 1.515625 -3.015625 1.203125 -4.609375 L 3.859375 -4.921875 C 4.421875 -2.878906 5.851562 -1.859375 8.15625 -1.859375 C 9.5625 -1.859375 10.664062 -2.285156 11.46875 -3.140625 C 12.269531 -3.992188 12.671875 -5.164062 12.671875 -6.65625 C 12.671875 -7.957031 12.269531 -9.003906 11.46875 -9.796875 C 10.664062 -10.597656 9.578125 -11 8.203125 -11 C 7.492188 -11 6.832031 -10.882812 6.21875 -10.65625 C 5.601562 -10.4375 4.988281 -10.0625 4.375 -9.53125 L 1.796875 -9.53125 L 2.484375 -20.625 L 14.203125 -20.625 L 14.203125 -18.375 L 4.890625 -18.375 L 4.5 -11.84375 C 5.632812 -12.71875 7.050781 -13.15625 8.75 -13.15625 C 10.78125 -13.15625 12.394531 -12.554688 13.59375 -11.359375 C 14.800781 -10.171875 15.40625 -8.625 15.40625 -6.71875 Z M 15.40625 -6.71875 "/></g></g><g transform="translate(491.746763, 350.930465)"><g><path d="M 15.40625 -6.71875 C 15.40625 -4.539062 14.757812 -2.828125 13.46875 -1.578125 C 12.175781 -0.328125 10.382812 0.296875 8.09375 0.296875 C 6.164062 0.296875 4.613281 -0.117188 3.4375 -0.953125 C 2.257812 -1.796875 1.515625 -3.015625 1.203125 -4.609375 L 3.859375 -4.921875 C 4.421875 -2.878906 5.851562 -1.859375 8.15625 -1.859375 C 9.5625 -1.859375 10.664062 -2.285156 11.46875 -3.140625 C 12.269531 -3.992188 12.671875 -5.164062 12.671875 -6.65625 C 12.671875 -7.957031 12.269531 -9.003906 11.46875 -9.796875 C 10.664062 -10.597656 9.578125 -11 8.203125 -11 C 7.492188 -11 6.832031 -10.882812 6.21875 -10.65625 C 5.601562 -10.4375 4.988281 -10.0625 4.375 -9.53125 L 1.796875 -9.53125 L 2.484375 -20.625 L 14.203125 -20.625 L 14.203125 -18.375 L 4.890625 -18.375 L 4.5 -11.84375 C 5.632812 -12.71875 7.050781 -13.15625 8.75 -13.15625 C 10.78125 -13.15625 12.394531 -12.554688 13.59375 -11.359375 C 14.800781 -10.171875 15.40625 -8.625 15.40625 -6.71875 Z M 15.40625 -6.71875 "/></g></g></g><g clip-path="url(#4f4c1e51fa)"><g mask="url(#66f3411ea7)"><g transform="matrix(1, 0, 0, 1, 540, 278)"><g clip-path="url(#14429e6661)"><g clip-path="url(#ea69de53e7)"><path fill="#03e313" d="M 0.773438 0.890625 L 107.179688 0.890625 L 107.179688 39.105469 L 0.773438 39.105469 Z M 0.773438 0.890625 " fill-opacity="1" fill-rule="nonzero"/></g></g></g></g></g><g fill="#808080" fill-opacity="1"><g transform="translate(568.872649, 308.113459)"><g><path d="M 15.34375 -5.6875 C 15.34375 -3.789062 14.738281 -2.316406 13.53125 -1.265625 C 12.320312 -0.222656 10.597656 0.296875 8.359375 0.296875 C 6.265625 0.296875 4.597656 -0.171875 3.359375 -1.109375 C 2.117188 -2.054688 1.378906 -3.453125 1.140625 -5.296875 L 3.859375 -5.546875 C 4.210938 -3.109375 5.710938 -1.890625 8.359375 -1.890625 C 9.679688 -1.890625 10.71875 -2.210938 11.46875 -2.859375 C 12.226562 -3.515625 12.609375 -4.488281 12.609375 -5.78125 C 12.609375 -6.90625 12.175781 -7.78125 11.3125 -8.40625 C 10.457031 -9.03125 9.210938 -9.34375 7.578125 -9.34375 L 6.09375 -9.34375 L 6.09375 -11.640625 L 7.515625 -11.640625 C 8.960938 -11.640625 10.082031 -11.953125 10.875 -12.578125 C 11.675781 -13.203125 12.078125 -14.070312 12.078125 -15.1875 C 12.078125 -16.289062 11.75 -17.160156 11.09375 -17.796875 C 10.445312 -18.441406 9.484375 -18.765625 8.203125 -18.765625 C 7.046875 -18.765625 6.109375 -18.460938 5.390625 -17.859375 C 4.671875 -17.265625 4.253906 -16.425781 4.140625 -15.34375 L 1.5 -15.5625 C 1.6875 -17.25 2.382812 -18.5625 3.59375 -19.5 C 4.800781 -20.445312 6.347656 -20.921875 8.234375 -20.921875 C 10.304688 -20.921875 11.914062 -20.441406 13.0625 -19.484375 C 14.207031 -18.523438 14.78125 -17.1875 14.78125 -15.46875 C 14.78125 -14.144531 14.410156 -13.070312 13.671875 -12.25 C 12.929688 -11.425781 11.863281 -10.867188 10.46875 -10.578125 L 10.46875 -10.515625 C 12.007812 -10.347656 13.207031 -9.832031 14.0625 -8.96875 C 14.914062 -8.101562 15.34375 -7.007812 15.34375 -5.6875 Z M 15.34375 -5.6875 "/></g></g><g transform="translate(585.542427, 308.113459)"><g><path d="M 15.40625 -6.71875 C 15.40625 -4.539062 14.757812 -2.828125 13.46875 -1.578125 C 12.175781 -0.328125 10.382812 0.296875 8.09375 0.296875 C 6.164062 0.296875 4.613281 -0.117188 3.4375 -0.953125 C 2.257812 -1.796875 1.515625 -3.015625 1.203125 -4.609375 L 3.859375 -4.921875 C 4.421875 -2.878906 5.851562 -1.859375 8.15625 -1.859375 C 9.5625 -1.859375 10.664062 -2.285156 11.46875 -3.140625 C 12.269531 -3.992188 12.671875 -5.164062 12.671875 -6.65625 C 12.671875 -7.957031 12.269531 -9.003906 11.46875 -9.796875 C 10.664062 -10.597656 9.578125 -11 8.203125 -11 C 7.492188 -11 6.832031 -10.882812 6.21875 -10.65625 C 5.601562 -10.4375 4.988281 -10.0625 4.375 -9.53125 L 1.796875 -9.53125 L 2.484375 -20.625 L 14.203125 -20.625 L 14.203125 -18.375 L 4.890625 -18.375 L 4.5 -11.84375 C 5.632812 -12.71875 7.050781 -13.15625 8.75 -13.15625 C 10.78125 -13.15625 12.394531 -12.554688 13.59375 -11.359375 C 14.800781 -10.171875 15.40625 -8.625 15.40625 -6.71875 Z M 15.40625 -6.71875 "/></g></g><g transform="translate(602.212206, 308.113459)"><g><path d="M 15.34375 -6.75 C 15.34375 -4.570312 14.753906 -2.851562 13.578125 -1.59375 C 12.398438 -0.332031 10.769531 0.296875 8.6875 0.296875 C 6.363281 0.296875 4.585938 -0.566406 3.359375 -2.296875 C 2.128906 -4.023438 1.515625 -6.535156 1.515625 -9.828125 C 1.515625 -13.398438 2.15625 -16.140625 3.4375 -18.046875 C 4.71875 -19.960938 6.535156 -20.921875 8.890625 -20.921875 C 12.003906 -20.921875 13.96875 -19.519531 14.78125 -16.71875 L 12.265625 -16.265625 C 11.742188 -17.941406 10.613281 -18.78125 8.875 -18.78125 C 7.363281 -18.78125 6.195312 -18.082031 5.375 -16.6875 C 4.550781 -15.289062 4.140625 -13.265625 4.140625 -10.609375 C 4.617188 -11.492188 5.289062 -12.164062 6.15625 -12.625 C 7.03125 -13.09375 8.023438 -13.328125 9.140625 -13.328125 C 11.046875 -13.328125 12.554688 -12.734375 13.671875 -11.546875 C 14.785156 -10.359375 15.34375 -8.757812 15.34375 -6.75 Z M 12.671875 -6.625 C 12.671875 -8.125 12.304688 -9.273438 11.578125 -10.078125 C 10.847656 -10.890625 9.828125 -11.296875 8.515625 -11.296875 C 7.285156 -11.296875 6.289062 -10.9375 5.53125 -10.21875 C 4.78125 -9.5 4.40625 -8.515625 4.40625 -7.265625 C 4.40625 -5.671875 4.796875 -4.363281 5.578125 -3.34375 C 6.367188 -2.332031 7.378906 -1.828125 8.609375 -1.828125 C 9.867188 -1.828125 10.859375 -2.253906 11.578125 -3.109375 C 12.304688 -3.960938 12.671875 -5.132812 12.671875 -6.625 Z M 12.671875 -6.625 "/></g></g></g><g clip-path="url(#89086acec6)"><g mask="url(#bef9e7e3bd)"><g transform="matrix(1, 0, 0, 1, 651, 278)"><g clip-path="url(#514212c26e)"><g clip-path="url(#cf6fdc41b1)"><path fill="#03e313" d="M 0.238281 0.890625 L 106.644531 0.890625 L 106.644531 39.105469 L 0.238281 39.105469 Z M 0.238281 0.890625 " fill-opacity="1" fill-rule="nonzero"/></g></g></g></g></g><g fill="#808080" fill-opacity="1"><g transform="translate(679.338115, 308.113459)"><g><path d="M 1.5 0 L 1.5 -1.859375 C 2 -3.003906 2.609375 -4.007812 3.328125 -4.875 C 4.046875 -5.75 4.800781 -6.539062 5.59375 -7.25 C 6.382812 -7.957031 7.164062 -8.613281 7.9375 -9.21875 C 8.71875 -9.820312 9.414062 -10.425781 10.03125 -11.03125 C 10.65625 -11.632812 11.160156 -12.269531 11.546875 -12.9375 C 11.929688 -13.601562 12.125 -14.351562 12.125 -15.1875 C 12.125 -16.320312 11.789062 -17.203125 11.125 -17.828125 C 10.46875 -18.453125 9.550781 -18.765625 8.375 -18.765625 C 7.25 -18.765625 6.320312 -18.457031 5.59375 -17.84375 C 4.863281 -17.238281 4.4375 -16.382812 4.3125 -15.28125 L 1.625 -15.53125 C 1.820312 -17.175781 2.519531 -18.484375 3.71875 -19.453125 C 4.925781 -20.429688 6.476562 -20.921875 8.375 -20.921875 C 10.445312 -20.921875 12.039062 -20.429688 13.15625 -19.453125 C 14.28125 -18.472656 14.84375 -17.082031 14.84375 -15.28125 C 14.84375 -14.476562 14.65625 -13.679688 14.28125 -12.890625 C 13.914062 -12.097656 13.375 -11.304688 12.65625 -10.515625 C 11.9375 -9.734375 10.554688 -8.507812 8.515625 -6.84375 C 7.390625 -5.925781 6.492188 -5.097656 5.828125 -4.359375 C 5.171875 -3.628906 4.695312 -2.921875 4.40625 -2.234375 L 15.15625 -2.234375 L 15.15625 0 Z M 1.5 0 "/></g></g><g transform="translate(696.007893, 308.113459)"><g><path d="M 2.28125 0 L 2.28125 -2.234375 L 7.53125 -2.234375 L 7.53125 -18.09375 L 2.875 -14.78125 L 2.875 -17.265625 L 7.75 -20.625 L 10.1875 -20.625 L 10.1875 -2.234375 L 15.203125 -2.234375 L 15.203125 0 Z M 2.28125 0 "/></g></g><g transform="translate(712.677672, 308.113459)"><g><path d="M 15.40625 -6.71875 C 15.40625 -4.539062 14.757812 -2.828125 13.46875 -1.578125 C 12.175781 -0.328125 10.382812 0.296875 8.09375 0.296875 C 6.164062 0.296875 4.613281 -0.117188 3.4375 -0.953125 C 2.257812 -1.796875 1.515625 -3.015625 1.203125 -4.609375 L 3.859375 -4.921875 C 4.421875 -2.878906 5.851562 -1.859375 8.15625 -1.859375 C 9.5625 -1.859375 10.664062 -2.285156 11.46875 -3.140625 C 12.269531 -3.992188 12.671875 -5.164062 12.671875 -6.65625 C 12.671875 -7.957031 12.269531 -9.003906 11.46875 -9.796875 C 10.664062 -10.597656 9.578125 -11 8.203125 -11 C 7.492188 -11 6.832031 -10.882812 6.21875 -10.65625 C 5.601562 -10.4375 4.988281 -10.0625 4.375 -9.53125 L 1.796875 -9.53125 L 2.484375 -20.625 L 14.203125 -20.625 L 14.203125 -18.375 L 4.890625 -18.375 L 4.5 -11.84375 C 5.632812 -12.71875 7.050781 -13.15625 8.75 -13.15625 C 10.78125 -13.15625 12.394531 -12.554688 13.59375 -11.359375 C 14.800781 -10.171875 15.40625 -8.625 15.40625 -6.71875 Z M 15.40625 -6.71875 "/></g></g></g><g clip-path="url(#f96407852f)"><g mask="url(#f7e554a332)"><g transform="matrix(1, 0, 0, 1, 540, 321)"><g clip-path="url(#2671bdadf9)"><g clip-path="url(#400ef1c1a0)"><path fill="#03e313" d="M 0.773438 0.707031 L 107.179688 0.707031 L 107.179688 38.921875 L 0.773438 38.921875 Z M 0.773438 0.707031 " fill-opacity="1" fill-rule="nonzero"/></g></g></g></g></g><g fill="#808080" fill-opacity="1"><g transform="translate(568.872649, 350.930465)"><g><path d="M 12.890625 -4.671875 L 12.890625 0 L 10.40625 0 L 10.40625 -4.671875 L 0.6875 -4.671875 L 0.6875 -6.71875 L 10.125 -20.625 L 12.890625 -20.625 L 12.890625 -6.75 L 15.796875 -6.75 L 15.796875 -4.671875 Z M 10.40625 -17.640625 C 10.382812 -17.585938 10.242188 -17.332031 9.984375 -16.875 C 9.734375 -16.414062 9.546875 -16.09375 9.421875 -15.90625 L 4.140625 -8.125 L 3.34375 -7.03125 L 3.109375 -6.75 L 10.40625 -6.75 Z M 10.40625 -17.640625 "/></g></g><g transform="translate(585.542427, 350.930465)"><g><path d="M 15.25 -10.71875 C 15.25 -7.1875 14.601562 -4.46875 13.3125 -2.5625 C 12.019531 -0.65625 10.175781 0.296875 7.78125 0.296875 C 6.175781 0.296875 4.882812 -0.0390625 3.90625 -0.71875 C 2.9375 -1.394531 2.242188 -2.492188 1.828125 -4.015625 L 4.34375 -4.40625 C 4.875 -2.6875 6.035156 -1.828125 7.828125 -1.828125 C 9.335938 -1.828125 10.503906 -2.53125 11.328125 -3.9375 C 12.160156 -5.34375 12.597656 -7.347656 12.640625 -9.953125 C 12.253906 -9.078125 11.585938 -8.367188 10.640625 -7.828125 C 9.691406 -7.296875 8.648438 -7.03125 7.515625 -7.03125 C 5.660156 -7.03125 4.175781 -7.664062 3.0625 -8.9375 C 1.957031 -10.207031 1.40625 -11.890625 1.40625 -13.984375 C 1.40625 -16.140625 2.007812 -17.832031 3.21875 -19.0625 C 4.425781 -20.300781 6.109375 -20.921875 8.265625 -20.921875 C 10.554688 -20.921875 12.289062 -20.070312 13.46875 -18.375 C 14.65625 -16.675781 15.25 -14.125 15.25 -10.71875 Z M 12.375 -13.265625 C 12.375 -14.929688 11.992188 -16.265625 11.234375 -17.265625 C 10.472656 -18.273438 9.457031 -18.78125 8.1875 -18.78125 C 6.914062 -18.78125 5.910156 -18.347656 5.171875 -17.484375 C 4.441406 -16.628906 4.078125 -15.460938 4.078125 -13.984375 C 4.078125 -12.484375 4.441406 -11.296875 5.171875 -10.421875 C 5.910156 -9.546875 6.90625 -9.109375 8.15625 -9.109375 C 8.914062 -9.109375 9.617188 -9.28125 10.265625 -9.625 C 10.921875 -9.976562 11.4375 -10.472656 11.8125 -11.109375 C 12.1875 -11.742188 12.375 -12.460938 12.375 -13.265625 Z M 12.375 -13.265625 "/></g></g><g transform="translate(602.212206, 350.930465)"><g><path d="M 15.5 -10.3125 C 15.5 -6.875 14.890625 -4.242188 13.671875 -2.421875 C 12.460938 -0.609375 10.671875 0.296875 8.296875 0.296875 C 5.921875 0.296875 4.140625 -0.601562 2.953125 -2.40625 C 1.765625 -4.21875 1.171875 -6.851562 1.171875 -10.3125 C 1.171875 -13.851562 1.75 -16.503906 2.90625 -18.265625 C 4.0625 -20.035156 5.890625 -20.921875 8.390625 -20.921875 C 10.816406 -20.921875 12.609375 -20.023438 13.765625 -18.234375 C 14.921875 -16.453125 15.5 -13.8125 15.5 -10.3125 Z M 12.8125 -10.3125 C 12.8125 -13.289062 12.46875 -15.445312 11.78125 -16.78125 C 11.09375 -18.113281 9.960938 -18.78125 8.390625 -18.78125 C 6.765625 -18.78125 5.597656 -18.125 4.890625 -16.8125 C 4.179688 -15.5 3.828125 -13.332031 3.828125 -10.3125 C 3.828125 -7.382812 4.1875 -5.242188 4.90625 -3.890625 C 5.625 -2.535156 6.765625 -1.859375 8.328125 -1.859375 C 9.878906 -1.859375 11.015625 -2.550781 11.734375 -3.9375 C 12.453125 -5.320312 12.8125 -7.445312 12.8125 -10.3125 Z M 12.8125 -10.3125 "/></g></g></g><g clip-path="url(#47f6e714c1)"><g mask="url(#f121595256)"><g transform="matrix(1, 0, 0, 1, 651, 321)"><g clip-path="url(#097934c6d1)"><g clip-path="url(#c6f366f25a)"><path fill="#03e313" d="M 0.238281 0.707031 L 106.644531 0.707031 L 106.644531 38.921875 L 0.238281 38.921875 Z M 0.238281 0.707031 " fill-opacity="1" fill-rule="nonzero"/></g></g></g></g></g><g fill="#808080" fill-opacity="1"><g transform="translate(679.338115, 350.930465)"><g><path d="M 12.890625 -4.671875 L 12.890625 0 L 10.40625 0 L 10.40625 -4.671875 L 0.6875 -4.671875 L 0.6875 -6.71875 L 10.125 -20.625 L 12.890625 -20.625 L 12.890625 -6.75 L 15.796875 -6.75 L 15.796875 -4.671875 Z M 10.40625 -17.640625 C 10.382812 -17.585938 10.242188 -17.332031 9.984375 -16.875 C 9.734375 -16.414062 9.546875 -16.09375 9.421875 -15.90625 L 4.140625 -8.125 L 3.34375 -7.03125 L 3.109375 -6.75 L 10.40625 -6.75 Z M 10.40625 -17.640625 "/></g></g><g transform="translate(696.007893, 350.930465)"><g><path d="M 12.890625 -4.671875 L 12.890625 0 L 10.40625 0 L 10.40625 -4.671875 L 0.6875 -4.671875 L 0.6875 -6.71875 L 10.125 -20.625 L 12.890625 -20.625 L 12.890625 -6.75 L 15.796875 -6.75 L 15.796875 -4.671875 Z M 10.40625 -17.640625 C 10.382812 -17.585938 10.242188 -17.332031 9.984375 -16.875 C 9.734375 -16.414062 9.546875 -16.09375 9.421875 -15.90625 L 4.140625 -8.125 L 3.34375 -7.03125 L 3.109375 -6.75 L 10.40625 -6.75 Z M 10.40625 -17.640625 "/></g></g><g transform="translate(712.677672, 350.930465)"><g><path d="M 15.40625 -6.71875 C 15.40625 -4.539062 14.757812 -2.828125 13.46875 -1.578125 C 12.175781 -0.328125 10.382812 0.296875 8.09375 0.296875 C 6.164062 0.296875 4.613281 -0.117188 3.4375 -0.953125 C 2.257812 -1.796875 1.515625 -3.015625 1.203125 -4.609375 L 3.859375 -4.921875 C 4.421875 -2.878906 5.851562 -1.859375 8.15625 -1.859375 C 9.5625 -1.859375 10.664062 -2.285156 11.46875 -3.140625 C 12.269531 -3.992188 12.671875 -5.164062 12.671875 -6.65625 C 12.671875 -7.957031 12.269531 -9.003906 11.46875 -9.796875 C 10.664062 -10.597656 9.578125 -11 8.203125 -11 C 7.492188 -11 6.832031 -10.882812 6.21875 -10.65625 C 5.601562 -10.4375 4.988281 -10.0625 4.375 -9.53125 L 1.796875 -9.53125 L 2.484375 -20.625 L 14.203125 -20.625 L 14.203125 -18.375 L 4.890625 -18.375 L 4.5 -11.84375 C 5.632812 -12.71875 7.050781 -13.15625 8.75 -13.15625 C 10.78125 -13.15625 12.394531 -12.554688 13.59375 -11.359375 C 14.800781 -10.171875 15.40625 -8.625 15.40625 -6.71875 Z M 15.40625 -6.71875 "/></g></g></g><g clip-path="url(#dd9f4ec5dd)"><path fill="#d9d9d9" d="M 319.839844 364.523438 L 426.246094 364.523438 L 426.246094 402.738281 L 319.839844 402.738281 Z M 319.839844 364.523438 " fill-opacity="1" fill-rule="nonzero"/></g><g clip-path="url(#8b8ac92b5f)"><g mask="url(#614858a567)"><g transform="matrix(1, 0, 0, 1, 430, 364)"><g clip-path="url(#ae54176288)"><g clip-path="url(#7675680581)"><path fill="#03e313" d="M 0.308594 0.523438 L 106.710938 0.523438 L 106.710938 38.738281 L 0.308594 38.738281 Z M 0.308594 0.523438 " fill-opacity="1" fill-rule="nonzero"/></g></g></g></g></g><g fill="#808080" fill-opacity="1"><g transform="translate(458.407207, 393.747471)"><g><path d="M 15.34375 -5.6875 C 15.34375 -3.789062 14.738281 -2.316406 13.53125 -1.265625 C 12.320312 -0.222656 10.597656 0.296875 8.359375 0.296875 C 6.265625 0.296875 4.597656 -0.171875 3.359375 -1.109375 C 2.117188 -2.054688 1.378906 -3.453125 1.140625 -5.296875 L 3.859375 -5.546875 C 4.210938 -3.109375 5.710938 -1.890625 8.359375 -1.890625 C 9.679688 -1.890625 10.71875 -2.210938 11.46875 -2.859375 C 12.226562 -3.515625 12.609375 -4.488281 12.609375 -5.78125 C 12.609375 -6.90625 12.175781 -7.78125 11.3125 -8.40625 C 10.457031 -9.03125 9.210938 -9.34375 7.578125 -9.34375 L 6.09375 -9.34375 L 6.09375 -11.640625 L 7.515625 -11.640625 C 8.960938 -11.640625 10.082031 -11.953125 10.875 -12.578125 C 11.675781 -13.203125 12.078125 -14.070312 12.078125 -15.1875 C 12.078125 -16.289062 11.75 -17.160156 11.09375 -17.796875 C 10.445312 -18.441406 9.484375 -18.765625 8.203125 -18.765625 C 7.046875 -18.765625 6.109375 -18.460938 5.390625 -17.859375 C 4.671875 -17.265625 4.253906 -16.425781 4.140625 -15.34375 L 1.5 -15.5625 C 1.6875 -17.25 2.382812 -18.5625 3.59375 -19.5 C 4.800781 -20.445312 6.347656 -20.921875 8.234375 -20.921875 C 10.304688 -20.921875 11.914062 -20.441406 13.0625 -19.484375 C 14.207031 -18.523438 14.78125 -17.1875 14.78125 -15.46875 C 14.78125 -14.144531 14.410156 -13.070312 13.671875 -12.25 C 12.929688 -11.425781 11.863281 -10.867188 10.46875 -10.578125 L 10.46875 -10.515625 C 12.007812 -10.347656 13.207031 -9.832031 14.0625 -8.96875 C 14.914062 -8.101562 15.34375 -7.007812 15.34375 -5.6875 Z M 15.34375 -5.6875 "/></g></g><g transform="translate(475.076985, 393.747471)"><g><path d="M 2.28125 0 L 2.28125 -2.234375 L 7.53125 -2.234375 L 7.53125 -18.09375 L 2.875 -14.78125 L 2.875 -17.265625 L 7.75 -20.625 L 10.1875 -20.625 L 10.1875 -2.234375 L 15.203125 -2.234375 L 15.203125 0 Z M 2.28125 0 "/></g></g><g transform="translate(491.746763, 393.747471)"><g><path d="M 2.28125 0 L 2.28125 -2.234375 L 7.53125 -2.234375 L 7.53125 -18.09375 L 2.875 -14.78125 L 2.875 -17.265625 L 7.75 -20.625 L 10.1875 -20.625 L 10.1875 -2.234375 L 15.203125 -2.234375 L 15.203125 0 Z M 2.28125 0 "/></g></g></g><g clip-path="url(#a5de060eb8)"><g mask="url(#a50544f57c)"><g transform="matrix(1, 0, 0, 1, 540, 364)"><g clip-path="url(#68d5fca3b2)"><g clip-path="url(#fbdff664f7)"><path fill="#03e313" d="M 0.773438 0.523438 L 107.179688 0.523438 L 107.179688 38.738281 L 0.773438 38.738281 Z M 0.773438 0.523438 " fill-opacity="1" fill-rule="nonzero"/></g></g></g></g></g><g fill="#808080" fill-opacity="1"><g transform="translate(568.872649, 393.747471)"><g><path d="M 15.40625 -6.71875 C 15.40625 -4.539062 14.757812 -2.828125 13.46875 -1.578125 C 12.175781 -0.328125 10.382812 0.296875 8.09375 0.296875 C 6.164062 0.296875 4.613281 -0.117188 3.4375 -0.953125 C 2.257812 -1.796875 1.515625 -3.015625 1.203125 -4.609375 L 3.859375 -4.921875 C 4.421875 -2.878906 5.851562 -1.859375 8.15625 -1.859375 C 9.5625 -1.859375 10.664062 -2.285156 11.46875 -3.140625 C 12.269531 -3.992188 12.671875 -5.164062 12.671875 -6.65625 C 12.671875 -7.957031 12.269531 -9.003906 11.46875 -9.796875 C 10.664062 -10.597656 9.578125 -11 8.203125 -11 C 7.492188 -11 6.832031 -10.882812 6.21875 -10.65625 C 5.601562 -10.4375 4.988281 -10.0625 4.375 -9.53125 L 1.796875 -9.53125 L 2.484375 -20.625 L 14.203125 -20.625 L 14.203125 -18.375 L 4.890625 -18.375 L 4.5 -11.84375 C 5.632812 -12.71875 7.050781 -13.15625 8.75 -13.15625 C 10.78125 -13.15625 12.394531 -12.554688 13.59375 -11.359375 C 14.800781 -10.171875 15.40625 -8.625 15.40625 -6.71875 Z M 15.40625 -6.71875 "/></g></g><g transform="translate(585.542427, 393.747471)"><g><path d="M 15.40625 -6.71875 C 15.40625 -4.539062 14.757812 -2.828125 13.46875 -1.578125 C 12.175781 -0.328125 10.382812 0.296875 8.09375 0.296875 C 6.164062 0.296875 4.613281 -0.117188 3.4375 -0.953125 C 2.257812 -1.796875 1.515625 -3.015625 1.203125 -4.609375 L 3.859375 -4.921875 C 4.421875 -2.878906 5.851562 -1.859375 8.15625 -1.859375 C 9.5625 -1.859375 10.664062 -2.285156 11.46875 -3.140625 C 12.269531 -3.992188 12.671875 -5.164062 12.671875 -6.65625 C 12.671875 -7.957031 12.269531 -9.003906 11.46875 -9.796875 C 10.664062 -10.597656 9.578125 -11 8.203125 -11 C 7.492188 -11 6.832031 -10.882812 6.21875 -10.65625 C 5.601562 -10.4375 4.988281 -10.0625 4.375 -9.53125 L 1.796875 -9.53125 L 2.484375 -20.625 L 14.203125 -20.625 L 14.203125 -18.375 L 4.890625 -18.375 L 4.5 -11.84375 C 5.632812 -12.71875 7.050781 -13.15625 8.75 -13.15625 C 10.78125 -13.15625 12.394531 -12.554688 13.59375 -11.359375 C 14.800781 -10.171875 15.40625 -8.625 15.40625 -6.71875 Z M 15.40625 -6.71875 "/></g></g><g transform="translate(602.212206, 393.747471)"><g><path d="M 15.34375 -6.75 C 15.34375 -4.570312 14.753906 -2.851562 13.578125 -1.59375 C 12.398438 -0.332031 10.769531 0.296875 8.6875 0.296875 C 6.363281 0.296875 4.585938 -0.566406 3.359375 -2.296875 C 2.128906 -4.023438 1.515625 -6.535156 1.515625 -9.828125 C 1.515625 -13.398438 2.15625 -16.140625 3.4375 -18.046875 C 4.71875 -19.960938 6.535156 -20.921875 8.890625 -20.921875 C 12.003906 -20.921875 13.96875 -19.519531 14.78125 -16.71875 L 12.265625 -16.265625 C 11.742188 -17.941406 10.613281 -18.78125 8.875 -18.78125 C 7.363281 -18.78125 6.195312 -18.082031 5.375 -16.6875 C 4.550781 -15.289062 4.140625 -13.265625 4.140625 -10.609375 C 4.617188 -11.492188 5.289062 -12.164062 6.15625 -12.625 C 7.03125 -13.09375 8.023438 -13.328125 9.140625 -13.328125 C 11.046875 -13.328125 12.554688 -12.734375 13.671875 -11.546875 C 14.785156 -10.359375 15.34375 -8.757812 15.34375 -6.75 Z M 12.671875 -6.625 C 12.671875 -8.125 12.304688 -9.273438 11.578125 -10.078125 C 10.847656 -10.890625 9.828125 -11.296875 8.515625 -11.296875 C 7.285156 -11.296875 6.289062 -10.9375 5.53125 -10.21875 C 4.78125 -9.5 4.40625 -8.515625 4.40625 -7.265625 C 4.40625 -5.671875 4.796875 -4.363281 5.578125 -3.34375 C 6.367188 -2.332031 7.378906 -1.828125 8.609375 -1.828125 C 9.867188 -1.828125 10.859375 -2.253906 11.578125 -3.109375 C 12.304688 -3.960938 12.671875 -5.132812 12.671875 -6.625 Z M 12.671875 -6.625 "/></g></g></g><g clip-path="url(#92176bbd42)"><g mask="url(#49463a686c)"><g transform="matrix(1, 0, 0, 1, 651, 364)"><g clip-path="url(#2995605e43)"><g clip-path="url(#8ab14d2458)"><path fill="#03e313" d="M 0.238281 0.523438 L 106.644531 0.523438 L 106.644531 38.738281 L 0.238281 38.738281 Z M 0.238281 0.523438 " fill-opacity="1" fill-rule="nonzero"/></g></g></g></g></g><g fill="#808080" fill-opacity="1"><g transform="translate(679.338115, 393.747471)"><g><path d="M 15.34375 -6.75 C 15.34375 -4.570312 14.753906 -2.851562 13.578125 -1.59375 C 12.398438 -0.332031 10.769531 0.296875 8.6875 0.296875 C 6.363281 0.296875 4.585938 -0.566406 3.359375 -2.296875 C 2.128906 -4.023438 1.515625 -6.535156 1.515625 -9.828125 C 1.515625 -13.398438 2.15625 -16.140625 3.4375 -18.046875 C 4.71875 -19.960938 6.535156 -20.921875 8.890625 -20.921875 C 12.003906 -20.921875 13.96875 -19.519531 14.78125 -16.71875 L 12.265625 -16.265625 C 11.742188 -17.941406 10.613281 -18.78125 8.875 -18.78125 C 7.363281 -18.78125 6.195312 -18.082031 5.375 -16.6875 C 4.550781 -15.289062 4.140625 -13.265625 4.140625 -10.609375 C 4.617188 -11.492188 5.289062 -12.164062 6.15625 -12.625 C 7.03125 -13.09375 8.023438 -13.328125 9.140625 -13.328125 C 11.046875 -13.328125 12.554688 -12.734375 13.671875 -11.546875 C 14.785156 -10.359375 15.34375 -8.757812 15.34375 -6.75 Z M 12.671875 -6.625 C 12.671875 -8.125 12.304688 -9.273438 11.578125 -10.078125 C 10.847656 -10.890625 9.828125 -11.296875 8.515625 -11.296875 C 7.285156 -11.296875 6.289062 -10.9375 5.53125 -10.21875 C 4.78125 -9.5 4.40625 -8.515625 4.40625 -7.265625 C 4.40625 -5.671875 4.796875 -4.363281 5.578125 -3.34375 C 6.367188 -2.332031 7.378906 -1.828125 8.609375 -1.828125 C 9.867188 -1.828125 10.859375 -2.253906 11.578125 -3.109375 C 12.304688 -3.960938 12.671875 -5.132812 12.671875 -6.625 Z M 12.671875 -6.625 "/></g></g><g transform="translate(696.007893, 393.747471)"><g><path d="M 1.5 0 L 1.5 -1.859375 C 2 -3.003906 2.609375 -4.007812 3.328125 -4.875 C 4.046875 -5.75 4.800781 -6.539062 5.59375 -7.25 C 6.382812 -7.957031 7.164062 -8.613281 7.9375 -9.21875 C 8.71875 -9.820312 9.414062 -10.425781 10.03125 -11.03125 C 10.65625 -11.632812 11.160156 -12.269531 11.546875 -12.9375 C 11.929688 -13.601562 12.125 -14.351562 12.125 -15.1875 C 12.125 -16.320312 11.789062 -17.203125 11.125 -17.828125 C 10.46875 -18.453125 9.550781 -18.765625 8.375 -18.765625 C 7.25 -18.765625 6.320312 -18.457031 5.59375 -17.84375 C 4.863281 -17.238281 4.4375 -16.382812 4.3125 -15.28125 L 1.625 -15.53125 C 1.820312 -17.175781 2.519531 -18.484375 3.71875 -19.453125 C 4.925781 -20.429688 6.476562 -20.921875 8.375 -20.921875 C 10.445312 -20.921875 12.039062 -20.429688 13.15625 -19.453125 C 14.28125 -18.472656 14.84375 -17.082031 14.84375 -15.28125 C 14.84375 -14.476562 14.65625 -13.679688 14.28125 -12.890625 C 13.914062 -12.097656 13.375 -11.304688 12.65625 -10.515625 C 11.9375 -9.734375 10.554688 -8.507812 8.515625 -6.84375 C 7.390625 -5.925781 6.492188 -5.097656 5.828125 -4.359375 C 5.171875 -3.628906 4.695312 -2.921875 4.40625 -2.234375 L 15.15625 -2.234375 L 15.15625 0 Z M 1.5 0 "/></g></g><g transform="translate(712.677672, 393.747471)"><g><path d="M 1.5 0 L 1.5 -1.859375 C 2 -3.003906 2.609375 -4.007812 3.328125 -4.875 C 4.046875 -5.75 4.800781 -6.539062 5.59375 -7.25 C 6.382812 -7.957031 7.164062 -8.613281 7.9375 -9.21875 C 8.71875 -9.820312 9.414062 -10.425781 10.03125 -11.03125 C 10.65625 -11.632812 11.160156 -12.269531 11.546875 -12.9375 C 11.929688 -13.601562 12.125 -14.351562 12.125 -15.1875 C 12.125 -16.320312 11.789062 -17.203125 11.125 -17.828125 C 10.46875 -18.453125 9.550781 -18.765625 8.375 -18.765625 C 7.25 -18.765625 6.320312 -18.457031 5.59375 -17.84375 C 4.863281 -17.238281 4.4375 -16.382812 4.3125 -15.28125 L 1.625 -15.53125 C 1.820312 -17.175781 2.519531 -18.484375 3.71875 -19.453125 C 4.925781 -20.429688 6.476562 -20.921875 8.375 -20.921875 C 10.445312 -20.921875 12.039062 -20.429688 13.15625 -19.453125 C 14.28125 -18.472656 14.84375 -17.082031 14.84375 -15.28125 C 14.84375 -14.476562 14.65625 -13.679688 14.28125 -12.890625 C 13.914062 -12.097656 13.375 -11.304688 12.65625 -10.515625 C 11.9375 -9.734375 10.554688 -8.507812 8.515625 -6.84375 C 7.390625 -5.925781 6.492188 -5.097656 5.828125 -4.359375 C 5.171875 -3.628906 4.695312 -2.921875 4.40625 -2.234375 L 15.15625 -2.234375 L 15.15625 0 Z M 1.5 0 "/></g></g></g><g clip-path="url(#b1a7073784)"><g clip-path="url(#4b7c3364a0)"><path fill="#4472c4" d="M 259.984375 193.984375 L 298.949219 193.984375 L 298.949219 403.050781 L 259.984375 403.050781 Z M 259.984375 193.984375 " fill-opacity="1" fill-rule="nonzero"/></g></g><g fill="#808080" fill-opacity="1"><g transform="translate(434.570426, 115.314563)"><g><path d="M 15.734375 0 L 15.734375 -14.0625 C 15.734375 -16.207031 15.4375 -17.6875 14.84375 -18.5 C 14.257812 -19.320312 13.207031 -19.734375 11.6875 -19.734375 C 10.113281 -19.734375 8.867188 -19.128906 7.953125 -17.921875 C 7.035156 -16.722656 6.578125 -15.03125 6.578125 -12.84375 L 6.578125 0 L 2.90625 0 L 2.90625 -17.4375 C 2.90625 -20.019531 2.863281 -21.597656 2.78125 -22.171875 L 6.265625 -22.171875 C 6.285156 -22.109375 6.300781 -21.925781 6.3125 -21.625 C 6.320312 -21.320312 6.335938 -20.972656 6.359375 -20.578125 C 6.378906 -20.191406 6.40625 -19.457031 6.4375 -18.375 L 6.5 -18.375 C 7.289062 -19.945312 8.195312 -21.039062 9.21875 -21.65625 C 10.25 -22.269531 11.5 -22.578125 12.96875 -22.578125 C 14.65625 -22.578125 15.984375 -22.242188 16.953125 -21.578125 C 17.929688 -20.910156 18.613281 -19.84375 19 -18.375 L 19.0625 -18.375 C 19.820312 -19.863281 20.742188 -20.9375 21.828125 -21.59375 C 22.921875 -22.25 24.238281 -22.578125 25.78125 -22.578125 C 28.019531 -22.578125 29.644531 -21.96875 30.65625 -20.75 C 31.675781 -19.539062 32.1875 -17.550781 32.1875 -14.78125 L 32.1875 0 L 28.546875 0 L 28.546875 -14.0625 C 28.546875 -16.207031 28.25 -17.6875 27.65625 -18.5 C 27.070312 -19.320312 26.015625 -19.734375 24.484375 -19.734375 C 22.878906 -19.734375 21.628906 -19.132812 20.734375 -17.9375 C 19.835938 -16.738281 19.390625 -15.039062 19.390625 -12.84375 L 19.390625 0 Z M 15.734375 0 "/></g></g><g transform="translate(469.525736, 115.314563)"><g/></g><g transform="translate(481.184336, 115.314563)"><g><path d="M 16.234375 -26.109375 C 13.035156 -26.109375 10.546875 -25.078125 8.765625 -23.015625 C 6.992188 -20.960938 6.109375 -18.144531 6.109375 -14.5625 C 6.109375 -11.03125 7.03125 -8.1875 8.875 -6.03125 C 10.726562 -3.882812 13.234375 -2.8125 16.390625 -2.8125 C 20.429688 -2.8125 23.472656 -4.8125 25.515625 -8.8125 L 28.703125 -7.21875 C 27.515625 -4.726562 25.84375 -2.832031 23.6875 -1.53125 C 21.539062 -0.238281 19.046875 0.40625 16.203125 0.40625 C 13.296875 0.40625 10.78125 -0.195312 8.65625 -1.40625 C 6.53125 -2.613281 4.910156 -4.335938 3.796875 -6.578125 C 2.679688 -8.828125 2.125 -11.488281 2.125 -14.5625 C 2.125 -19.164062 3.367188 -22.769531 5.859375 -25.375 C 8.347656 -27.988281 11.789062 -29.296875 16.1875 -29.296875 C 19.257812 -29.296875 21.828125 -28.695312 23.890625 -27.5 C 25.953125 -26.300781 27.46875 -24.519531 28.4375 -22.15625 L 24.734375 -20.921875 C 24.066406 -22.597656 22.988281 -23.878906 21.5 -24.765625 C 20.019531 -25.660156 18.265625 -26.109375 16.234375 -26.109375 Z M 16.234375 -26.109375 "/></g></g><g transform="translate(511.4885, 115.314563)"><g><path d="M 21.578125 -11.109375 C 21.578125 -7.222656 20.722656 -4.332031 19.015625 -2.4375 C 17.304688 -0.539062 14.828125 0.40625 11.578125 0.40625 C 8.335938 0.40625 5.890625 -0.578125 4.234375 -2.546875 C 2.585938 -4.523438 1.765625 -7.378906 1.765625 -11.109375 C 1.765625 -18.753906 5.078125 -22.578125 11.703125 -22.578125 C 15.085938 -22.578125 17.578125 -21.644531 19.171875 -19.78125 C 20.773438 -17.914062 21.578125 -15.023438 21.578125 -11.109375 Z M 17.703125 -11.109375 C 17.703125 -14.171875 17.25 -16.394531 16.34375 -17.78125 C 15.4375 -19.164062 13.910156 -19.859375 11.765625 -19.859375 C 9.609375 -19.859375 8.046875 -19.148438 7.078125 -17.734375 C 6.117188 -16.316406 5.640625 -14.109375 5.640625 -11.109375 C 5.640625 -8.179688 6.113281 -5.984375 7.0625 -4.515625 C 8.007812 -3.046875 9.5 -2.3125 11.53125 -2.3125 C 13.75 -2.3125 15.332031 -3.019531 16.28125 -4.4375 C 17.226562 -5.863281 17.703125 -8.085938 17.703125 -11.109375 Z M 17.703125 -11.109375 "/></g></g><g transform="translate(534.82619, 115.314563)"><g><path d="M 2.828125 0 L 2.828125 -30.40625 L 6.515625 -30.40625 L 6.515625 0 Z M 2.828125 0 "/></g></g><g transform="translate(544.148972, 115.314563)"><g><path d="M 6.4375 -22.171875 L 6.4375 -8.109375 C 6.4375 -6.648438 6.578125 -5.515625 6.859375 -4.703125 C 7.148438 -3.898438 7.609375 -3.320312 8.234375 -2.96875 C 8.867188 -2.613281 9.789062 -2.4375 11 -2.4375 C 12.78125 -2.4375 14.179688 -3.046875 15.203125 -4.265625 C 16.234375 -5.484375 16.75 -7.171875 16.75 -9.328125 L 16.75 -22.171875 L 20.4375 -22.171875 L 20.4375 -4.734375 C 20.4375 -2.148438 20.472656 -0.570312 20.546875 0 L 17.0625 0 C 17.050781 -0.0703125 17.039062 -0.253906 17.03125 -0.546875 C 17.019531 -0.847656 17.003906 -1.191406 16.984375 -1.578125 C 16.960938 -1.972656 16.9375 -2.710938 16.90625 -3.796875 L 16.84375 -3.796875 C 16 -2.265625 15.019531 -1.179688 13.90625 -0.546875 C 12.789062 0.0859375 11.40625 0.40625 9.75 0.40625 C 7.320312 0.40625 5.539062 -0.195312 4.40625 -1.40625 C 3.28125 -2.613281 2.71875 -4.609375 2.71875 -7.390625 L 2.71875 -22.171875 Z M 6.4375 -22.171875 "/></g></g><g transform="translate(567.486661, 115.314563)"><g><path d="M 15.734375 0 L 15.734375 -14.0625 C 15.734375 -16.207031 15.4375 -17.6875 14.84375 -18.5 C 14.257812 -19.320312 13.207031 -19.734375 11.6875 -19.734375 C 10.113281 -19.734375 8.867188 -19.128906 7.953125 -17.921875 C 7.035156 -16.722656 6.578125 -15.03125 6.578125 -12.84375 L 6.578125 0 L 2.90625 0 L 2.90625 -17.4375 C 2.90625 -20.019531 2.863281 -21.597656 2.78125 -22.171875 L 6.265625 -22.171875 C 6.285156 -22.109375 6.300781 -21.925781 6.3125 -21.625 C 6.320312 -21.320312 6.335938 -20.972656 6.359375 -20.578125 C 6.378906 -20.191406 6.40625 -19.457031 6.4375 -18.375 L 6.5 -18.375 C 7.289062 -19.945312 8.195312 -21.039062 9.21875 -21.65625 C 10.25 -22.269531 11.5 -22.578125 12.96875 -22.578125 C 14.65625 -22.578125 15.984375 -22.242188 16.953125 -21.578125 C 17.929688 -20.910156 18.613281 -19.84375 19 -18.375 L 19.0625 -18.375 C 19.820312 -19.863281 20.742188 -20.9375 21.828125 -21.59375 C 22.921875 -22.25 24.238281 -22.578125 25.78125 -22.578125 C 28.019531 -22.578125 29.644531 -21.96875 30.65625 -20.75 C 31.675781 -19.539062 32.1875 -17.550781 32.1875 -14.78125 L 32.1875 0 L 28.546875 0 L 28.546875 -14.0625 C 28.546875 -16.207031 28.25 -17.6875 27.65625 -18.5 C 27.070312 -19.320312 26.015625 -19.734375 24.484375 -19.734375 C 22.878906 -19.734375 21.628906 -19.132812 20.734375 -17.9375 C 19.835938 -16.738281 19.390625 -15.039062 19.390625 -12.84375 L 19.390625 0 Z M 15.734375 0 "/></g></g><g transform="translate(602.441972, 115.314563)"><g><path d="M 16.90625 0 L 16.90625 -14.0625 C 16.90625 -15.519531 16.757812 -16.648438 16.46875 -17.453125 C 16.1875 -18.265625 15.726562 -18.847656 15.09375 -19.203125 C 14.46875 -19.554688 13.550781 -19.734375 12.34375 -19.734375 C 10.5625 -19.734375 9.15625 -19.125 8.125 -17.90625 C 7.101562 -16.695312 6.59375 -15.007812 6.59375 -12.84375 L 6.59375 0 L 2.90625 0 L 2.90625 -17.4375 C 2.90625 -20.019531 2.863281 -21.597656 2.78125 -22.171875 L 6.265625 -22.171875 C 6.285156 -22.109375 6.300781 -21.925781 6.3125 -21.625 C 6.320312 -21.320312 6.335938 -20.972656 6.359375 -20.578125 C 6.378906 -20.191406 6.40625 -19.457031 6.4375 -18.375 L 6.5 -18.375 C 7.34375 -19.90625 8.320312 -20.988281 9.4375 -21.625 C 10.550781 -22.257812 11.9375 -22.578125 13.59375 -22.578125 C 16.019531 -22.578125 17.796875 -21.972656 18.921875 -20.765625 C 20.046875 -19.554688 20.609375 -17.5625 20.609375 -14.78125 L 20.609375 0 Z M 16.90625 0 "/></g></g></g><g clip-path="url(#fc50e05a6a)"><g clip-path="url(#72754f0e1e)"><path fill="#4472c4" d="M 756.386719 130.300781 L 756.386719 169.265625 L 320.273438 169.265625 L 320.273438 130.300781 Z M 756.386719 130.300781 " fill-opacity="1" fill-rule="nonzero"/></g></g><g fill="#808080" fill-opacity="1"><g transform="translate(620.441069, 497.477542)"><g><path d="M 16.421875 0 L 10.453125 -9.09375 L 4.453125 0 L 0.46875 0 L 8.359375 -11.390625 L 0.84375 -22.171875 L 4.921875 -22.171875 L 10.453125 -13.546875 L 15.9375 -22.171875 L 20.0625 -22.171875 L 12.546875 -11.4375 L 20.53125 0 Z M 16.421875 0 "/></g></g><g transform="translate(641.422451, 497.477542)"><g/></g><g transform="translate(653.081051, 497.477542)"><g><path d="M 28.296875 -14.734375 C 28.296875 -11.753906 27.710938 -9.144531 26.546875 -6.90625 C 25.390625 -4.675781 23.742188 -2.96875 21.609375 -1.78125 C 19.484375 -0.59375 17.03125 0 14.25 0 L 3.4375 0 L 3.4375 -28.875 L 13 -28.875 C 17.882812 -28.875 21.65625 -27.644531 24.3125 -25.1875 C 26.96875 -22.738281 28.296875 -19.253906 28.296875 -14.734375 Z M 24.359375 -14.734375 C 24.359375 -18.316406 23.378906 -21.046875 21.421875 -22.921875 C 19.460938 -24.796875 16.625 -25.734375 12.90625 -25.734375 L 7.359375 -25.734375 L 7.359375 -3.140625 L 13.796875 -3.140625 C 15.910156 -3.140625 17.769531 -3.601562 19.375 -4.53125 C 20.976562 -5.457031 22.207031 -6.796875 23.0625 -8.546875 C 23.925781 -10.296875 24.359375 -12.359375 24.359375 -14.734375 Z M 24.359375 -14.734375 "/></g></g><g transform="translate(683.385215, 497.477542)"><g><path d="M 2.8125 -26.890625 L 2.8125 -30.40625 L 6.5 -30.40625 L 6.5 -26.890625 Z M 2.8125 0 L 2.8125 -22.171875 L 6.5 -22.171875 L 6.5 0 Z M 2.8125 0 "/></g></g><g transform="translate(692.707998, 497.477542)"><g><path d="M 11.234375 8.703125 C 8.816406 8.703125 6.890625 8.226562 5.453125 7.28125 C 4.015625 6.332031 3.09375 4.984375 2.6875 3.234375 L 6.390625 2.703125 C 6.640625 3.722656 7.179688 4.507812 8.015625 5.0625 C 8.859375 5.625 9.960938 5.90625 11.328125 5.90625 C 15.003906 5.90625 16.84375 3.753906 16.84375 -0.546875 L 16.84375 -4.125 L 16.796875 -4.125 C 16.109375 -2.695312 15.15625 -1.625 13.9375 -0.90625 C 12.71875 -0.195312 11.296875 0.15625 9.671875 0.15625 C 6.953125 0.15625 4.953125 -0.742188 3.671875 -2.546875 C 2.398438 -4.347656 1.765625 -7.179688 1.765625 -11.046875 C 1.765625 -14.960938 2.445312 -17.851562 3.8125 -19.71875 C 5.1875 -21.582031 7.273438 -22.515625 10.078125 -22.515625 C 11.648438 -22.515625 13.015625 -22.15625 14.171875 -21.4375 C 15.328125 -20.726562 16.21875 -19.707031 16.84375 -18.375 L 16.890625 -18.375 C 16.890625 -18.789062 16.914062 -19.503906 16.96875 -20.515625 C 17.019531 -21.523438 17.070312 -22.078125 17.125 -22.171875 L 20.640625 -22.171875 C 20.554688 -21.429688 20.515625 -19.898438 20.515625 -17.578125 L 20.515625 -0.640625 C 20.515625 5.585938 17.421875 8.703125 11.234375 8.703125 Z M 16.84375 -11.09375 C 16.84375 -12.894531 16.597656 -14.445312 16.109375 -15.75 C 15.617188 -17.050781 14.925781 -18.046875 14.03125 -18.734375 C 13.132812 -19.429688 12.117188 -19.78125 10.984375 -19.78125 C 9.097656 -19.78125 7.722656 -19.09375 6.859375 -17.71875 C 6.003906 -16.351562 5.578125 -14.144531 5.578125 -11.09375 C 5.578125 -8.050781 5.976562 -5.867188 6.78125 -4.546875 C 7.582031 -3.222656 8.960938 -2.5625 10.921875 -2.5625 C 12.085938 -2.5625 13.117188 -2.898438 14.015625 -3.578125 C 14.921875 -4.265625 15.617188 -5.242188 16.109375 -6.515625 C 16.597656 -7.796875 16.84375 -9.320312 16.84375 -11.09375 Z M 16.84375 -11.09375 "/></g></g><g transform="translate(716.045687, 497.477542)"><g><path d="M 2.8125 -26.890625 L 2.8125 -30.40625 L 6.5 -30.40625 L 6.5 -26.890625 Z M 2.8125 0 L 2.8125 -22.171875 L 6.5 -22.171875 L 6.5 0 Z M 2.8125 0 "/></g></g><g transform="translate(725.368469, 497.477542)"><g><path d="M 11.359375 -0.15625 C 10.140625 0.164062 8.894531 0.328125 7.625 0.328125 C 4.675781 0.328125 3.203125 -1.34375 3.203125 -4.6875 L 3.203125 -19.484375 L 0.640625 -19.484375 L 0.640625 -22.171875 L 3.34375 -22.171875 L 4.421875 -27.125 L 6.890625 -27.125 L 6.890625 -22.171875 L 10.984375 -22.171875 L 10.984375 -19.484375 L 6.890625 -19.484375 L 6.890625 -5.484375 C 6.890625 -4.421875 7.0625 -3.675781 7.40625 -3.25 C 7.757812 -2.820312 8.363281 -2.609375 9.21875 -2.609375 C 9.707031 -2.609375 10.421875 -2.703125 11.359375 -2.890625 Z M 11.359375 -0.15625 "/></g></g><g transform="translate(737.027069, 497.477542)"><g><path d="M 19.46875 -6.125 C 19.46875 -4.03125 18.675781 -2.414062 17.09375 -1.28125 C 15.519531 -0.15625 13.3125 0.40625 10.46875 0.40625 C 7.707031 0.40625 5.578125 -0.046875 4.078125 -0.953125 C 2.585938 -1.859375 1.617188 -3.273438 1.171875 -5.203125 L 4.421875 -5.84375 C 4.734375 -4.65625 5.378906 -3.78125 6.359375 -3.21875 C 7.347656 -2.664062 8.71875 -2.390625 10.46875 -2.390625 C 12.34375 -2.390625 13.710938 -2.675781 14.578125 -3.25 C 15.441406 -3.832031 15.875 -4.695312 15.875 -5.84375 C 15.875 -6.71875 15.570312 -7.425781 14.96875 -7.96875 C 14.375 -8.519531 13.40625 -8.972656 12.0625 -9.328125 L 9.421875 -10.015625 C 7.304688 -10.566406 5.800781 -11.101562 4.90625 -11.625 C 4.007812 -12.15625 3.304688 -12.796875 2.796875 -13.546875 C 2.296875 -14.296875 2.046875 -15.21875 2.046875 -16.3125 C 2.046875 -18.332031 2.765625 -19.867188 4.203125 -20.921875 C 5.648438 -21.984375 7.753906 -22.515625 10.515625 -22.515625 C 12.960938 -22.515625 14.90625 -22.082031 16.34375 -21.21875 C 17.78125 -20.363281 18.691406 -18.988281 19.078125 -17.09375 L 15.765625 -16.6875 C 15.554688 -17.664062 15.003906 -18.414062 14.109375 -18.9375 C 13.210938 -19.46875 12.015625 -19.734375 10.515625 -19.734375 C 8.847656 -19.734375 7.617188 -19.476562 6.828125 -18.96875 C 6.035156 -18.46875 5.640625 -17.707031 5.640625 -16.6875 C 5.640625 -16.050781 5.800781 -15.53125 6.125 -15.125 C 6.457031 -14.71875 6.941406 -14.367188 7.578125 -14.078125 C 8.222656 -13.785156 9.578125 -13.390625 11.640625 -12.890625 C 13.585938 -12.398438 14.992188 -11.945312 15.859375 -11.53125 C 16.722656 -11.113281 17.398438 -10.648438 17.890625 -10.140625 C 18.390625 -9.640625 18.773438 -9.054688 19.046875 -8.390625 C 19.328125 -7.722656 19.46875 -6.96875 19.46875 -6.125 Z M 19.46875 -6.125 "/></g></g></g><g clip-path="url(#e3d6ad03d4)"><g clip-path="url(#17a616f3e1)"><path fill="#4472c4" d="M 652.144531 457.753906 L 652.144531 418.789062 L 755.550781 418.789062 L 755.550781 457.753906 Z M 652.144531 457.753906 " fill-opacity="1" fill-rule="nonzero"/></g></g></svg>