<svg xmlns="http://www.w3.org/2000/svg" xmlns:xlink="http://www.w3.org/1999/xlink" width="1919" zoomAndPan="magnify" viewBox="0 0 1439.25 447.749989" height="597" preserveAspectRatio="xMidYMid meet" version="1.0"><defs><filter x="0%" y="0%" width="100%" height="100%" id="08e2ba481f"><feColorMatrix values="0 0 0 0 1 0 0 0 0 1 0 0 0 0 1 0 0 0 1 0" color-interpolation-filters="sRGB"/></filter><g/><clipPath id="6a0f2ed48d"><path d="M 75.359375 153.847656 L 262.296875 153.847656 L 262.296875 221.148438 L 75.359375 221.148438 Z M 75.359375 153.847656 " clip-rule="nonzero"/></clipPath><clipPath id="a488f8e155"><path d="M 271.175781 78.492188 L 458 78.492188 L 458 145.789062 L 271.175781 145.789062 Z M 271.175781 78.492188 " clip-rule="nonzero"/></clipPath><clipPath id="c509faf99e"><path d="M 75.359375 229.207031 L 262.296875 229.207031 L 262.296875 296.503906 L 75.359375 296.503906 Z M 75.359375 229.207031 " clip-rule="nonzero"/></clipPath><clipPath id="bc6d053198"><path d="M 271.175781 229.207031 L 458.113281 229.207031 L 458.113281 296.503906 L 271.175781 296.503906 Z M 271.175781 229.207031 " clip-rule="nonzero"/></clipPath><mask id="38b65180a0"><g filter="url(#08e2ba481f)"><rect x="-143.925" width="1727.1" fill="#000000" y="-44.774999" height="537.299986" fill-opacity="0.498"/></g></mask><clipPath id="6116a573dc"><path d="M 0.175781 0.207031 L 187 0.207031 L 187 67.503906 L 0.175781 67.503906 Z M 0.175781 0.207031 " clip-rule="nonzero"/></clipPath><clipPath id="455818e173"><rect x="0" width="188" y="0" height="68"/></clipPath><clipPath id="873366113c"><path d="M 466.996094 78.492188 L 653.933594 78.492188 L 653.933594 145.789062 L 466.996094 145.789062 Z M 466.996094 78.492188 " clip-rule="nonzero"/></clipPath><clipPath id="05e3bc5bb1"><path d="M 466.996094 229.207031 L 653.933594 229.207031 L 653.933594 296.503906 L 466.996094 296.503906 Z M 466.996094 229.207031 " clip-rule="nonzero"/></clipPath><mask id="3cfd2291dc"><g filter="url(#08e2ba481f)"><rect x="-143.925" width="1727.1" fill="#000000" y="-44.774999" height="537.299986" fill-opacity="0.498"/></g></mask><clipPath id="9960da2c27"><path d="M 0.996094 0.207031 L 187.933594 0.207031 L 187.933594 67.503906 L 0.996094 67.503906 Z M 0.996094 0.207031 " clip-rule="nonzero"/></clipPath><clipPath id="293399d0cb"><rect x="0" width="188" y="0" height="68"/></clipPath><clipPath id="4bd34ba9c4"><path d="M 670.683594 153.847656 L 768.878906 153.847656 L 768.878906 216 L 670.683594 216 Z M 670.683594 153.847656 " clip-rule="nonzero"/></clipPath><clipPath id="31fbd77e67"><path d="M 670.683594 169.289062 L 737.554688 169.289062 L 737.554688 153.847656 L 768.4375 184.730469 L 737.554688 215.613281 L 737.554688 200.171875 L 670.683594 200.171875 L 670.683594 169.289062 " clip-rule="nonzero"/></clipPath><mask id="d71215c7ac"><g filter="url(#08e2ba481f)"><rect x="-143.925" width="1727.1" fill="#000000" y="-44.774999" height="537.299986" fill-opacity="0.4"/></g></mask><clipPath id="2708e65f13"><path d="M 0.683594 0.847656 L 98.558594 0.847656 L 98.558594 62.640625 L 0.683594 62.640625 Z M 0.683594 0.847656 " clip-rule="nonzero"/></clipPath><clipPath id="4f44c67a9d"><path d="M 0.683594 16.289062 L 67.554688 16.289062 L 67.554688 0.847656 L 98.4375 31.730469 L 67.554688 62.613281 L 67.554688 47.171875 L 0.683594 47.171875 L 0.683594 16.289062 " clip-rule="nonzero"/></clipPath><clipPath id="73b6f2adbf"><rect x="0" width="99" y="0" height="63"/></clipPath><clipPath id="50cf563512"><path d="M 784.699219 150.515625 L 971.640625 150.515625 L 971.640625 217.8125 L 784.699219 217.8125 Z M 784.699219 150.515625 " clip-rule="nonzero"/></clipPath><clipPath id="47c0e88424"><path d="M 980.519531 75.160156 L 1167.457031 75.160156 L 1167.457031 142.457031 L 980.519531 142.457031 Z M 980.519531 75.160156 " clip-rule="nonzero"/></clipPath><clipPath id="cc80d1820b"><path d="M 980.519531 150.515625 L 1167.457031 150.515625 L 1167.457031 217.8125 L 980.519531 217.8125 Z M 980.519531 150.515625 " clip-rule="nonzero"/></clipPath><mask id="bedf69f373"><g filter="url(#08e2ba481f)"><rect x="-143.925" width="1727.1" fill="#000000" y="-44.774999" height="537.299986" fill-opacity="0.498"/></g></mask><clipPath id="d4102efc81"><path d="M 0.519531 0.515625 L 187.457031 0.515625 L 187.457031 67.8125 L 0.519531 67.8125 Z M 0.519531 0.515625 " clip-rule="nonzero"/></clipPath><clipPath id="1ea502316e"><rect x="0" width="188" y="0" height="68"/></clipPath><clipPath id="e4fe275c9a"><path d="M 784.699219 225.875 L 971.640625 225.875 L 971.640625 293.171875 L 784.699219 293.171875 Z M 784.699219 225.875 " clip-rule="nonzero"/></clipPath><clipPath id="f03f8a8321"><path d="M 980.519531 225.875 L 1167.457031 225.875 L 1167.457031 293.171875 L 980.519531 293.171875 Z M 980.519531 225.875 " clip-rule="nonzero"/></clipPath><mask id="cde5331c94"><g filter="url(#08e2ba481f)"><rect x="-143.925" width="1727.1" fill="#000000" y="-44.774999" height="537.299986" fill-opacity="0.498"/></g></mask><clipPath id="30070160c3"><path d="M 0.519531 0.875 L 187.457031 0.875 L 187.457031 68.171875 L 0.519531 68.171875 Z M 0.519531 0.875 " clip-rule="nonzero"/></clipPath><clipPath id="78978d4612"><rect x="0" width="188" y="0" height="69"/></clipPath><clipPath id="9963839dae"><path d="M 1176.335938 75.160156 L 1363 75.160156 L 1363 142.457031 L 1176.335938 142.457031 Z M 1176.335938 75.160156 " clip-rule="nonzero"/></clipPath><clipPath id="e389c68071"><path d="M 1176.335938 150.515625 L 1363.277344 150.515625 L 1363.277344 217.8125 L 1176.335938 217.8125 Z M 1176.335938 150.515625 " clip-rule="nonzero"/></clipPath><mask id="4b78b59dc5"><g filter="url(#08e2ba481f)"><rect x="-143.925" width="1727.1" fill="#000000" y="-44.774999" height="537.299986" fill-opacity="0.498"/></g></mask><clipPath id="da8ffe31ad"><path d="M 0.335938 0.515625 L 187 0.515625 L 187 67.8125 L 0.335938 67.8125 Z M 0.335938 0.515625 " clip-rule="nonzero"/></clipPath><clipPath id="55c0a25cf5"><rect x="0" width="188" y="0" height="68"/></clipPath><clipPath id="d302541182"><path d="M 1176.335938 225.875 L 1363.277344 225.875 L 1363.277344 293.171875 L 1176.335938 293.171875 Z M 1176.335938 225.875 " clip-rule="nonzero"/></clipPath><mask id="d0a70afacb"><g filter="url(#08e2ba481f)"><rect x="-143.925" width="1727.1" fill="#000000" y="-44.774999" height="537.299986" fill-opacity="0.498"/></g></mask><clipPath id="6adf75d37b"><path d="M 0.335938 0.875 L 187 0.875 L 187 68.171875 L 0.335938 68.171875 Z M 0.335938 0.875 " clip-rule="nonzero"/></clipPath><clipPath id="aa6542f1af"><rect x="0" width="188" y="0" height="69"/></clipPath><clipPath id="7878b666c0"><path d="M 271.175781 153.847656 L 458.113281 153.847656 L 458.113281 221.148438 L 271.175781 221.148438 Z M 271.175781 153.847656 " clip-rule="nonzero"/></clipPath><mask id="a4b5559a78"><g filter="url(#08e2ba481f)"><rect x="-143.925" width="1727.1" fill="#000000" y="-44.774999" height="537.299986" fill-opacity="0.498"/></g></mask><clipPath id="77749781a2"><path d="M 0.175781 0.847656 L 187 0.847656 L 187 68.148438 L 0.175781 68.148438 Z M 0.175781 0.847656 " clip-rule="nonzero"/></clipPath><clipPath id="a353822f36"><rect x="0" width="188" y="0" height="69"/></clipPath><clipPath id="aee5add323"><path d="M 980.023438 301.230469 L 1166.960938 301.230469 L 1166.960938 368.527344 L 980.023438 368.527344 Z M 980.023438 301.230469 " clip-rule="nonzero"/></clipPath><mask id="21ea9d8332"><g filter="url(#08e2ba481f)"><rect x="-143.925" width="1727.1" fill="#000000" y="-44.774999" height="537.299986" fill-opacity="0.498"/></g></mask><clipPath id="6c1e5552c8"><path d="M 0.0234375 0.230469 L 186.960938 0.230469 L 186.960938 67.527344 L 0.0234375 67.527344 Z M 0.0234375 0.230469 " clip-rule="nonzero"/></clipPath><clipPath id="7765f0064c"><rect x="0" width="187" y="0" height="68"/></clipPath><clipPath id="58a1449f8c"><path d="M 466.996094 153.847656 L 653.933594 153.847656 L 653.933594 221.148438 L 466.996094 221.148438 Z M 466.996094 153.847656 " clip-rule="nonzero"/></clipPath><mask id="c4519b2eed"><g filter="url(#08e2ba481f)"><rect x="-143.925" width="1727.1" fill="#000000" y="-44.774999" height="537.299986" fill-opacity="0.498"/></g></mask><clipPath id="842e8d65e5"><path d="M 0.996094 0.847656 L 187.933594 0.847656 L 187.933594 68.148438 L 0.996094 68.148438 Z M 0.996094 0.847656 " clip-rule="nonzero"/></clipPath><clipPath id="91d341797a"><rect x="0" width="188" y="0" height="69"/></clipPath><clipPath id="e64d9a9a7e"><path d="M 1176.335938 301.230469 L 1363.277344 301.230469 L 1363.277344 368.527344 L 1176.335938 368.527344 Z M 1176.335938 301.230469 " clip-rule="nonzero"/></clipPath><mask id="ab26c68457"><g filter="url(#08e2ba481f)"><rect x="-143.925" width="1727.1" fill="#000000" y="-44.774999" height="537.299986" fill-opacity="0.498"/></g></mask><clipPath id="c64ab11e53"><path d="M 0.335938 0.230469 L 187 0.230469 L 187 67.527344 L 0.335938 67.527344 Z M 0.335938 0.230469 " clip-rule="nonzero"/></clipPath><clipPath id="fce8e40104"><rect x="0" width="188" y="0" height="68"/></clipPath><clipPath id="d4e35ef40a"><path d="M 75.359375 304.566406 L 262.296875 304.566406 L 262.296875 371.863281 L 75.359375 371.863281 Z M 75.359375 304.566406 " clip-rule="nonzero"/></clipPath><clipPath id="cbf2ec1668"><path d="M 271.175781 304.566406 L 458.113281 304.566406 L 458.113281 371.863281 L 271.175781 371.863281 Z M 271.175781 304.566406 " clip-rule="nonzero"/></clipPath><mask id="e99d7b0d9c"><g filter="url(#08e2ba481f)"><rect x="-143.925" width="1727.1" fill="#000000" y="-44.774999" height="537.299986" fill-opacity="0.498"/></g></mask><clipPath id="722a9e9672"><path d="M 0.175781 0.566406 L 187 0.566406 L 187 67.863281 L 0.175781 67.863281 Z M 0.175781 0.566406 " clip-rule="nonzero"/></clipPath><clipPath id="a063434522"><rect x="0" width="188" y="0" height="68"/></clipPath><clipPath id="fd6215d15f"><path d="M 466.996094 304.566406 L 653.933594 304.566406 L 653.933594 371.863281 L 466.996094 371.863281 Z M 466.996094 304.566406 " clip-rule="nonzero"/></clipPath><mask id="4999cc07c4"><g filter="url(#08e2ba481f)"><rect x="-143.925" width="1727.1" fill="#000000" y="-44.774999" height="537.299986" fill-opacity="0.498"/></g></mask><clipPath id="05a596e1bf"><path d="M 0.996094 0.566406 L 187.933594 0.566406 L 187.933594 67.863281 L 0.996094 67.863281 Z M 0.996094 0.566406 " clip-rule="nonzero"/></clipPath><clipPath id="cfd5ae6d73"><rect x="0" width="188" y="0" height="68"/></clipPath></defs><g clip-path="url(#6a0f2ed48d)"><path fill="#d9d9d9" d="M 75.359375 153.847656 L 262.003906 153.847656 L 262.003906 221.3125 L 75.359375 221.3125 Z M 75.359375 153.847656 " fill-opacity="1" fill-rule="nonzero"/></g><g clip-path="url(#a488f8e155)"><path fill="#d9d9d9" d="M 271.175781 78.492188 L 457.820312 78.492188 L 457.820312 145.953125 L 271.175781 145.953125 Z M 271.175781 78.492188 " fill-opacity="1" fill-rule="nonzero"/></g><g clip-path="url(#c509faf99e)"><path fill="#d9d9d9" d="M 75.359375 229.207031 L 262.003906 229.207031 L 262.003906 296.667969 L 75.359375 296.667969 Z M 75.359375 229.207031 " fill-opacity="1" fill-rule="nonzero"/></g><g clip-path="url(#bc6d053198)"><g mask="url(#38b65180a0)"><g transform="matrix(1, 0, 0, 1, 271, 229)"><g clip-path="url(#455818e173)"><g clip-path="url(#6116a573dc)"><path fill="#ffc000" d="M 0.175781 0.207031 L 186.820312 0.207031 L 186.820312 67.667969 L 0.175781 67.667969 Z M 0.175781 0.207031 " fill-opacity="1" fill-rule="nonzero"/></g></g></g></g></g><g fill="#808080" fill-opacity="1"><g transform="translate(356.312312, 272.68273)"><g><path d="M 15.5625 -10.640625 C 15.5625 -6.984375 14.890625 -4.242188 13.546875 -2.421875 C 12.210938 -0.609375 10.316406 0.296875 7.859375 0.296875 C 6.046875 0.296875 4.625 -0.0859375 3.59375 -0.859375 C 2.5625 -1.640625 1.832031 -2.867188 1.40625 -4.546875 L 5.265625 -5.09375 C 5.648438 -3.65625 6.53125 -2.9375 7.90625 -2.9375 C 9.0625 -2.9375 9.945312 -3.488281 10.5625 -4.59375 C 11.1875 -5.695312 11.503906 -7.332031 11.515625 -9.5 C 11.148438 -8.769531 10.546875 -8.195312 9.703125 -7.78125 C 8.859375 -7.363281 7.945312 -7.15625 6.96875 -7.15625 C 5.15625 -7.15625 3.710938 -7.769531 2.640625 -9 C 1.578125 -10.238281 1.046875 -11.914062 1.046875 -14.03125 C 1.046875 -16.195312 1.671875 -17.890625 2.921875 -19.109375 C 4.171875 -20.328125 5.945312 -20.9375 8.25 -20.9375 C 10.71875 -20.9375 12.550781 -20.078125 13.75 -18.359375 C 14.957031 -16.648438 15.5625 -14.078125 15.5625 -10.640625 Z M 11.21875 -13.53125 C 11.21875 -14.8125 10.9375 -15.828125 10.375 -16.578125 C 9.8125 -17.335938 9.066406 -17.71875 8.140625 -17.71875 C 7.234375 -17.71875 6.519531 -17.382812 6 -16.71875 C 5.476562 -16.0625 5.21875 -15.15625 5.21875 -14 C 5.21875 -12.851562 5.472656 -11.9375 5.984375 -11.25 C 6.503906 -10.5625 7.226562 -10.21875 8.15625 -10.21875 C 9.03125 -10.21875 9.757812 -10.515625 10.34375 -11.109375 C 10.925781 -11.710938 11.21875 -12.519531 11.21875 -13.53125 Z M 11.21875 -13.53125 "/></g></g></g><g clip-path="url(#873366113c)"><path fill="#d9d9d9" d="M 466.996094 78.492188 L 653.640625 78.492188 L 653.640625 145.953125 L 466.996094 145.953125 Z M 466.996094 78.492188 " fill-opacity="1" fill-rule="nonzero"/></g><g clip-path="url(#05e3bc5bb1)"><g mask="url(#3cfd2291dc)"><g transform="matrix(1, 0, 0, 1, 466, 229)"><g clip-path="url(#293399d0cb)"><g clip-path="url(#9960da2c27)"><path fill="#ffc000" d="M 0.996094 0.207031 L 187.640625 0.207031 L 187.640625 67.667969 L 0.996094 67.667969 Z M 0.996094 0.207031 " fill-opacity="1" fill-rule="nonzero"/></g></g></g></g></g><g fill="#808080" fill-opacity="1"><g transform="translate(543.791498, 272.68273)"><g><path d="M 13.765625 -4.203125 L 13.765625 0 L 9.84375 0 L 9.84375 -4.203125 L 0.453125 -4.203125 L 0.453125 -7.296875 L 9.171875 -20.625 L 13.765625 -20.625 L 13.765625 -7.265625 L 16.515625 -7.265625 L 16.515625 -4.203125 Z M 9.84375 -14.015625 C 9.84375 -14.535156 9.859375 -15.101562 9.890625 -15.71875 C 9.921875 -16.332031 9.945312 -16.726562 9.96875 -16.90625 C 9.71875 -16.363281 9.257812 -15.570312 8.59375 -14.53125 L 3.8125 -7.265625 L 9.84375 -7.265625 Z M 9.84375 -14.015625 "/></g></g><g transform="translate(560.466756, 272.68273)"><g><path d="M 15.359375 -17.359375 C 14.429688 -15.898438 13.554688 -14.484375 12.734375 -13.109375 C 11.910156 -11.734375 11.1875 -10.347656 10.5625 -8.953125 C 9.945312 -7.554688 9.460938 -6.125 9.109375 -4.65625 C 8.753906 -3.1875 8.578125 -1.632812 8.578125 0 L 4.296875 0 C 4.296875 -1.71875 4.519531 -3.378906 4.96875 -4.984375 C 5.414062 -6.585938 6.0625 -8.222656 6.90625 -9.890625 C 7.757812 -11.554688 9.300781 -14.007812 11.53125 -17.25 L 1.28125 -17.25 L 1.28125 -20.625 L 15.359375 -20.625 Z M 15.359375 -17.359375 "/></g></g></g><g clip-path="url(#4bd34ba9c4)"><g clip-path="url(#31fbd77e67)"><g mask="url(#d71215c7ac)"><g transform="matrix(1, 0, 0, 1, 670, 153)"><g clip-path="url(#73b6f2adbf)"><g clip-path="url(#2708e65f13)"><g clip-path="url(#4f44c67a9d)"><path fill="#03e313" d="M 0.683594 0.847656 L 98.128906 0.847656 L 98.128906 62.316406 L 0.683594 62.316406 Z M 0.683594 0.847656 " fill-opacity="1" fill-rule="nonzero"/></g></g></g></g></g></g></g><g clip-path="url(#50cf563512)"><path fill="#d9d9d9" d="M 784.699219 150.515625 L 971.347656 150.515625 L 971.347656 217.976562 L 784.699219 217.976562 Z M 784.699219 150.515625 " fill-opacity="1" fill-rule="nonzero"/></g><g clip-path="url(#47c0e88424)"><path fill="#d9d9d9" d="M 980.519531 75.160156 L 1167.164062 75.160156 L 1167.164062 142.621094 L 980.519531 142.621094 Z M 980.519531 75.160156 " fill-opacity="1" fill-rule="nonzero"/></g><g clip-path="url(#cc80d1820b)"><g mask="url(#bedf69f373)"><g transform="matrix(1, 0, 0, 1, 980, 150)"><g clip-path="url(#1ea502316e)"><g clip-path="url(#d4102efc81)"><path fill="#03e313" d="M 0.519531 0.515625 L 187.164062 0.515625 L 187.164062 67.976562 L 0.519531 67.976562 Z M 0.519531 0.515625 " fill-opacity="1" fill-rule="nonzero"/></g></g></g></g></g><g fill="#808080" fill-opacity="1"><g transform="translate(1065.655175, 193.991672)"><g><path d="M 1.046875 0 L 1.046875 -2.859375 C 1.578125 -4.035156 2.335938 -5.1875 3.328125 -6.3125 C 4.316406 -7.4375 5.566406 -8.609375 7.078125 -9.828125 C 8.515625 -10.992188 9.523438 -11.957031 10.109375 -12.71875 C 10.691406 -13.476562 10.984375 -14.226562 10.984375 -14.96875 C 10.984375 -16.757812 10.078125 -17.65625 8.265625 -17.65625 C 7.390625 -17.65625 6.71875 -17.414062 6.25 -16.9375 C 5.789062 -16.46875 5.492188 -15.757812 5.359375 -14.8125 L 1.21875 -15.046875 C 1.445312 -16.960938 2.160156 -18.421875 3.359375 -19.421875 C 4.554688 -20.429688 6.1875 -20.9375 8.25 -20.9375 C 10.46875 -20.9375 12.171875 -20.425781 13.359375 -19.40625 C 14.554688 -18.394531 15.15625 -16.972656 15.15625 -15.140625 C 15.15625 -14.171875 14.960938 -13.296875 14.578125 -12.515625 C 14.203125 -11.734375 13.710938 -11.015625 13.109375 -10.359375 C 12.515625 -9.703125 11.851562 -9.082031 11.125 -8.5 C 10.40625 -7.925781 9.703125 -7.363281 9.015625 -6.8125 C 8.335938 -6.269531 7.71875 -5.71875 7.15625 -5.15625 C 6.59375 -4.601562 6.175781 -4.007812 5.90625 -3.375 L 15.46875 -3.375 L 15.46875 0 Z M 1.046875 0 "/></g></g></g><g clip-path="url(#e4fe275c9a)"><path fill="#d9d9d9" d="M 784.699219 225.875 L 971.347656 225.875 L 971.347656 293.335938 L 784.699219 293.335938 Z M 784.699219 225.875 " fill-opacity="1" fill-rule="nonzero"/></g><g clip-path="url(#f03f8a8321)"><g mask="url(#cde5331c94)"><g transform="matrix(1, 0, 0, 1, 980, 225)"><g clip-path="url(#78978d4612)"><g clip-path="url(#30070160c3)"><path fill="#03e313" d="M 0.519531 0.875 L 187.164062 0.875 L 187.164062 68.335938 L 0.519531 68.335938 Z M 0.519531 0.875 " fill-opacity="1" fill-rule="nonzero"/></g></g></g></g></g><g fill="#808080" fill-opacity="1"><g transform="translate(1065.655175, 269.349391)"><g><path d="M 1.890625 0 L 1.890625 -3.0625 L 7 -3.0625 L 7 -17.125 L 2.046875 -14.046875 L 2.046875 -17.28125 L 7.21875 -20.625 L 11.109375 -20.625 L 11.109375 -3.0625 L 15.84375 -3.0625 L 15.84375 0 Z M 1.890625 0 "/></g></g></g><g clip-path="url(#9963839dae)"><path fill="#d9d9d9" d="M 1176.335938 75.160156 L 1362.984375 75.160156 L 1362.984375 142.621094 L 1176.335938 142.621094 Z M 1176.335938 75.160156 " fill-opacity="1" fill-rule="nonzero"/></g><g clip-path="url(#e389c68071)"><g mask="url(#4b78b59dc5)"><g transform="matrix(1, 0, 0, 1, 1176, 150)"><g clip-path="url(#55c0a25cf5)"><g clip-path="url(#da8ffe31ad)"><path fill="#03e313" d="M 0.335938 0.515625 L 186.984375 0.515625 L 186.984375 67.976562 L 0.335938 67.976562 Z M 0.335938 0.515625 " fill-opacity="1" fill-rule="nonzero"/></g></g></g></g></g><g fill="#808080" fill-opacity="1"><g transform="translate(1261.47338, 193.991672)"><g><path d="M 1.046875 0 L 1.046875 -2.859375 C 1.578125 -4.035156 2.335938 -5.1875 3.328125 -6.3125 C 4.316406 -7.4375 5.566406 -8.609375 7.078125 -9.828125 C 8.515625 -10.992188 9.523438 -11.957031 10.109375 -12.71875 C 10.691406 -13.476562 10.984375 -14.226562 10.984375 -14.96875 C 10.984375 -16.757812 10.078125 -17.65625 8.265625 -17.65625 C 7.390625 -17.65625 6.71875 -17.414062 6.25 -16.9375 C 5.789062 -16.46875 5.492188 -15.757812 5.359375 -14.8125 L 1.21875 -15.046875 C 1.445312 -16.960938 2.160156 -18.421875 3.359375 -19.421875 C 4.554688 -20.429688 6.1875 -20.9375 8.25 -20.9375 C 10.46875 -20.9375 12.171875 -20.425781 13.359375 -19.40625 C 14.554688 -18.394531 15.15625 -16.972656 15.15625 -15.140625 C 15.15625 -14.171875 14.960938 -13.296875 14.578125 -12.515625 C 14.203125 -11.734375 13.710938 -11.015625 13.109375 -10.359375 C 12.515625 -9.703125 11.851562 -9.082031 11.125 -8.5 C 10.40625 -7.925781 9.703125 -7.363281 9.015625 -6.8125 C 8.335938 -6.269531 7.71875 -5.71875 7.15625 -5.15625 C 6.59375 -4.601562 6.175781 -4.007812 5.90625 -3.375 L 15.46875 -3.375 L 15.46875 0 Z M 1.046875 0 "/></g></g></g><g clip-path="url(#d302541182)"><g mask="url(#d0a70afacb)"><g transform="matrix(1, 0, 0, 1, 1176, 225)"><g clip-path="url(#aa6542f1af)"><g clip-path="url(#6adf75d37b)"><path fill="#03e313" d="M 0.335938 0.875 L 186.984375 0.875 L 186.984375 68.335938 L 0.335938 68.335938 Z M 0.335938 0.875 " fill-opacity="1" fill-rule="nonzero"/></g></g></g></g></g><g fill="#808080" fill-opacity="1"><g transform="translate(1261.47338, 269.349391)"><g><path d="M 15.59375 -5.71875 C 15.59375 -3.789062 14.957031 -2.296875 13.6875 -1.234375 C 12.414062 -0.179688 10.609375 0.34375 8.265625 0.34375 C 6.054688 0.34375 4.296875 -0.164062 2.984375 -1.1875 C 1.679688 -2.207031 0.914062 -3.679688 0.6875 -5.609375 L 4.875 -5.96875 C 5.132812 -3.988281 6.257812 -3 8.25 -3 C 9.238281 -3 10.003906 -3.242188 10.546875 -3.734375 C 11.097656 -4.222656 11.375 -4.96875 11.375 -5.96875 C 11.375 -6.882812 11.039062 -7.585938 10.375 -8.078125 C 9.71875 -8.566406 8.734375 -8.8125 7.421875 -8.8125 L 5.984375 -8.8125 L 5.984375 -12.140625 L 7.328125 -12.140625 C 8.515625 -12.140625 9.40625 -12.378906 10 -12.859375 C 10.59375 -13.347656 10.890625 -14.039062 10.890625 -14.9375 C 10.890625 -15.78125 10.648438 -16.441406 10.171875 -16.921875 C 9.703125 -17.410156 9.015625 -17.65625 8.109375 -17.65625 C 7.265625 -17.65625 6.578125 -17.421875 6.046875 -16.953125 C 5.523438 -16.484375 5.226562 -15.820312 5.15625 -14.96875 L 1.046875 -15.25 C 1.253906 -17.03125 1.988281 -18.421875 3.25 -19.421875 C 4.507812 -20.429688 6.15625 -20.9375 8.1875 -20.9375 C 10.34375 -20.9375 12.023438 -20.445312 13.234375 -19.46875 C 14.453125 -18.5 15.0625 -17.160156 15.0625 -15.453125 C 15.0625 -14.160156 14.679688 -13.097656 13.921875 -12.265625 C 13.171875 -11.441406 12.082031 -10.890625 10.65625 -10.609375 L 10.65625 -10.5625 C 12.238281 -10.375 13.457031 -9.851562 14.3125 -9 C 15.164062 -8.144531 15.59375 -7.050781 15.59375 -5.71875 Z M 15.59375 -5.71875 "/></g></g></g><g clip-path="url(#7878b666c0)"><g mask="url(#a4b5559a78)"><g transform="matrix(1, 0, 0, 1, 271, 153)"><g clip-path="url(#a353822f36)"><g clip-path="url(#77749781a2)"><path fill="#ffc000" d="M 0.175781 0.847656 L 186.820312 0.847656 L 186.820312 68.3125 L 0.175781 68.3125 Z M 0.175781 0.847656 " fill-opacity="1" fill-rule="nonzero"/></g></g></g></g></g><g fill="#808080" fill-opacity="1"><g transform="translate(347.973102, 197.325012)"><g><path d="M 1.046875 0 L 1.046875 -2.859375 C 1.578125 -4.035156 2.335938 -5.1875 3.328125 -6.3125 C 4.316406 -7.4375 5.566406 -8.609375 7.078125 -9.828125 C 8.515625 -10.992188 9.523438 -11.957031 10.109375 -12.71875 C 10.691406 -13.476562 10.984375 -14.226562 10.984375 -14.96875 C 10.984375 -16.757812 10.078125 -17.65625 8.265625 -17.65625 C 7.390625 -17.65625 6.71875 -17.414062 6.25 -16.9375 C 5.789062 -16.46875 5.492188 -15.757812 5.359375 -14.8125 L 1.21875 -15.046875 C 1.445312 -16.960938 2.160156 -18.421875 3.359375 -19.421875 C 4.554688 -20.429688 6.1875 -20.9375 8.25 -20.9375 C 10.46875 -20.9375 12.171875 -20.425781 13.359375 -19.40625 C 14.554688 -18.394531 15.15625 -16.972656 15.15625 -15.140625 C 15.15625 -14.171875 14.960938 -13.296875 14.578125 -12.515625 C 14.203125 -11.734375 13.710938 -11.015625 13.109375 -10.359375 C 12.515625 -9.703125 11.851562 -9.082031 11.125 -8.5 C 10.40625 -7.925781 9.703125 -7.363281 9.015625 -6.8125 C 8.335938 -6.269531 7.71875 -5.71875 7.15625 -5.15625 C 6.59375 -4.601562 6.175781 -4.007812 5.90625 -3.375 L 15.46875 -3.375 L 15.46875 0 Z M 1.046875 0 "/></g></g><g transform="translate(364.64836, 197.325012)"><g><path d="M 15.59375 -5.71875 C 15.59375 -3.789062 14.957031 -2.296875 13.6875 -1.234375 C 12.414062 -0.179688 10.609375 0.34375 8.265625 0.34375 C 6.054688 0.34375 4.296875 -0.164062 2.984375 -1.1875 C 1.679688 -2.207031 0.914062 -3.679688 0.6875 -5.609375 L 4.875 -5.96875 C 5.132812 -3.988281 6.257812 -3 8.25 -3 C 9.238281 -3 10.003906 -3.242188 10.546875 -3.734375 C 11.097656 -4.222656 11.375 -4.96875 11.375 -5.96875 C 11.375 -6.882812 11.039062 -7.585938 10.375 -8.078125 C 9.71875 -8.566406 8.734375 -8.8125 7.421875 -8.8125 L 5.984375 -8.8125 L 5.984375 -12.140625 L 7.328125 -12.140625 C 8.515625 -12.140625 9.40625 -12.378906 10 -12.859375 C 10.59375 -13.347656 10.890625 -14.039062 10.890625 -14.9375 C 10.890625 -15.78125 10.648438 -16.441406 10.171875 -16.921875 C 9.703125 -17.410156 9.015625 -17.65625 8.109375 -17.65625 C 7.265625 -17.65625 6.578125 -17.421875 6.046875 -16.953125 C 5.523438 -16.484375 5.226562 -15.820312 5.15625 -14.96875 L 1.046875 -15.25 C 1.253906 -17.03125 1.988281 -18.421875 3.25 -19.421875 C 4.507812 -20.429688 6.15625 -20.9375 8.1875 -20.9375 C 10.34375 -20.9375 12.023438 -20.445312 13.234375 -19.46875 C 14.453125 -18.5 15.0625 -17.160156 15.0625 -15.453125 C 15.0625 -14.160156 14.679688 -13.097656 13.921875 -12.265625 C 13.171875 -11.441406 12.082031 -10.890625 10.65625 -10.609375 L 10.65625 -10.5625 C 12.238281 -10.375 13.457031 -9.851562 14.3125 -9 C 15.164062 -8.144531 15.59375 -7.050781 15.59375 -5.71875 Z M 15.59375 -5.71875 "/></g></g></g><g clip-path="url(#aee5add323)"><g mask="url(#21ea9d8332)"><g transform="matrix(1, 0, 0, 1, 980, 301)"><g clip-path="url(#7765f0064c)"><g clip-path="url(#6c1e5552c8)"><path fill="#03e313" d="M 0.0234375 0.230469 L 186.671875 0.230469 L 186.671875 67.695312 L 0.0234375 67.695312 Z M 0.0234375 0.230469 " fill-opacity="1" fill-rule="nonzero"/></g></g></g></g></g><g fill="#808080" fill-opacity="1"><g transform="translate(1065.160404, 344.707111)"><g><path d="M 15.59375 -5.71875 C 15.59375 -3.789062 14.957031 -2.296875 13.6875 -1.234375 C 12.414062 -0.179688 10.609375 0.34375 8.265625 0.34375 C 6.054688 0.34375 4.296875 -0.164062 2.984375 -1.1875 C 1.679688 -2.207031 0.914062 -3.679688 0.6875 -5.609375 L 4.875 -5.96875 C 5.132812 -3.988281 6.257812 -3 8.25 -3 C 9.238281 -3 10.003906 -3.242188 10.546875 -3.734375 C 11.097656 -4.222656 11.375 -4.96875 11.375 -5.96875 C 11.375 -6.882812 11.039062 -7.585938 10.375 -8.078125 C 9.71875 -8.566406 8.734375 -8.8125 7.421875 -8.8125 L 5.984375 -8.8125 L 5.984375 -12.140625 L 7.328125 -12.140625 C 8.515625 -12.140625 9.40625 -12.378906 10 -12.859375 C 10.59375 -13.347656 10.890625 -14.039062 10.890625 -14.9375 C 10.890625 -15.78125 10.648438 -16.441406 10.171875 -16.921875 C 9.703125 -17.410156 9.015625 -17.65625 8.109375 -17.65625 C 7.265625 -17.65625 6.578125 -17.421875 6.046875 -16.953125 C 5.523438 -16.484375 5.226562 -15.820312 5.15625 -14.96875 L 1.046875 -15.25 C 1.253906 -17.03125 1.988281 -18.421875 3.25 -19.421875 C 4.507812 -20.429688 6.15625 -20.9375 8.1875 -20.9375 C 10.34375 -20.9375 12.023438 -20.445312 13.234375 -19.46875 C 14.453125 -18.5 15.0625 -17.160156 15.0625 -15.453125 C 15.0625 -14.160156 14.679688 -13.097656 13.921875 -12.265625 C 13.171875 -11.441406 12.082031 -10.890625 10.65625 -10.609375 L 10.65625 -10.5625 C 12.238281 -10.375 13.457031 -9.851562 14.3125 -9 C 15.164062 -8.144531 15.59375 -7.050781 15.59375 -5.71875 Z M 15.59375 -5.71875 "/></g></g></g><g clip-path="url(#58a1449f8c)"><g mask="url(#c4519b2eed)"><g transform="matrix(1, 0, 0, 1, 466, 153)"><g clip-path="url(#91d341797a)"><g clip-path="url(#842e8d65e5)"><path fill="#ffc000" d="M 0.996094 0.847656 L 187.640625 0.847656 L 187.640625 68.3125 L 0.996094 68.3125 Z M 0.996094 0.847656 " fill-opacity="1" fill-rule="nonzero"/></g></g></g></g></g><g fill="#808080" fill-opacity="1"><g transform="translate(543.791498, 197.325012)"><g><path d="M 15.59375 -5.71875 C 15.59375 -3.789062 14.957031 -2.296875 13.6875 -1.234375 C 12.414062 -0.179688 10.609375 0.34375 8.265625 0.34375 C 6.054688 0.34375 4.296875 -0.164062 2.984375 -1.1875 C 1.679688 -2.207031 0.914062 -3.679688 0.6875 -5.609375 L 4.875 -5.96875 C 5.132812 -3.988281 6.257812 -3 8.25 -3 C 9.238281 -3 10.003906 -3.242188 10.546875 -3.734375 C 11.097656 -4.222656 11.375 -4.96875 11.375 -5.96875 C 11.375 -6.882812 11.039062 -7.585938 10.375 -8.078125 C 9.71875 -8.566406 8.734375 -8.8125 7.421875 -8.8125 L 5.984375 -8.8125 L 5.984375 -12.140625 L 7.328125 -12.140625 C 8.515625 -12.140625 9.40625 -12.378906 10 -12.859375 C 10.59375 -13.347656 10.890625 -14.039062 10.890625 -14.9375 C 10.890625 -15.78125 10.648438 -16.441406 10.171875 -16.921875 C 9.703125 -17.410156 9.015625 -17.65625 8.109375 -17.65625 C 7.265625 -17.65625 6.578125 -17.421875 6.046875 -16.953125 C 5.523438 -16.484375 5.226562 -15.820312 5.15625 -14.96875 L 1.046875 -15.25 C 1.253906 -17.03125 1.988281 -18.421875 3.25 -19.421875 C 4.507812 -20.429688 6.15625 -20.9375 8.1875 -20.9375 C 10.34375 -20.9375 12.023438 -20.445312 13.234375 -19.46875 C 14.453125 -18.5 15.0625 -17.160156 15.0625 -15.453125 C 15.0625 -14.160156 14.679688 -13.097656 13.921875 -12.265625 C 13.171875 -11.441406 12.082031 -10.890625 10.65625 -10.609375 L 10.65625 -10.5625 C 12.238281 -10.375 13.457031 -9.851562 14.3125 -9 C 15.164062 -8.144531 15.59375 -7.050781 15.59375 -5.71875 Z M 15.59375 -5.71875 "/></g></g><g transform="translate(560.466756, 197.325012)"><g><path d="M 1.890625 0 L 1.890625 -3.0625 L 7 -3.0625 L 7 -17.125 L 2.046875 -14.046875 L 2.046875 -17.28125 L 7.21875 -20.625 L 11.109375 -20.625 L 11.109375 -3.0625 L 15.84375 -3.0625 L 15.84375 0 Z M 1.890625 0 "/></g></g></g><g clip-path="url(#e64d9a9a7e)"><g mask="url(#ab26c68457)"><g transform="matrix(1, 0, 0, 1, 1176, 301)"><g clip-path="url(#fce8e40104)"><g clip-path="url(#c64ab11e53)"><path fill="#03e313" d="M 0.335938 0.230469 L 186.984375 0.230469 L 186.984375 67.695312 L 0.335938 67.695312 Z M 0.335938 0.230469 " fill-opacity="1" fill-rule="nonzero"/></g></g></g></g></g><g fill="#808080" fill-opacity="1"><g transform="translate(1261.47338, 344.707111)"><g><path d="M 1.890625 0 L 1.890625 -3.0625 L 7 -3.0625 L 7 -17.125 L 2.046875 -14.046875 L 2.046875 -17.28125 L 7.21875 -20.625 L 11.109375 -20.625 L 11.109375 -3.0625 L 15.84375 -3.0625 L 15.84375 0 Z M 1.890625 0 "/></g></g></g><g clip-path="url(#d4e35ef40a)"><path fill="#d9d9d9" d="M 75.359375 304.566406 L 262.003906 304.566406 L 262.003906 372.027344 L 75.359375 372.027344 Z M 75.359375 304.566406 " fill-opacity="1" fill-rule="nonzero"/></g><g clip-path="url(#cbf2ec1668)"><g mask="url(#e99d7b0d9c)"><g transform="matrix(1, 0, 0, 1, 271, 304)"><g clip-path="url(#a063434522)"><g clip-path="url(#722a9e9672)"><path fill="#ffc000" d="M 0.175781 0.566406 L 186.820312 0.566406 L 186.820312 68.027344 L 0.175781 68.027344 Z M 0.175781 0.566406 " fill-opacity="1" fill-rule="nonzero"/></g></g></g></g></g><g fill="#808080" fill-opacity="1"><g transform="translate(347.973219, 348.040463)"><g><path d="M 15.84375 -6.859375 C 15.84375 -4.679688 15.160156 -2.941406 13.796875 -1.640625 C 12.429688 -0.347656 10.566406 0.296875 8.203125 0.296875 C 6.128906 0.296875 4.46875 -0.164062 3.21875 -1.09375 C 1.976562 -2.03125 1.210938 -3.382812 0.921875 -5.15625 L 5.03125 -5.484375 C 5.25 -4.609375 5.628906 -3.96875 6.171875 -3.5625 C 6.722656 -3.164062 7.414062 -2.96875 8.25 -2.96875 C 9.269531 -2.96875 10.082031 -3.296875 10.6875 -3.953125 C 11.300781 -4.609375 11.609375 -5.550781 11.609375 -6.78125 C 11.609375 -7.863281 11.316406 -8.726562 10.734375 -9.375 C 10.160156 -10.019531 9.359375 -10.34375 8.328125 -10.34375 C 7.191406 -10.34375 6.257812 -9.898438 5.53125 -9.015625 L 1.515625 -9.015625 L 2.234375 -20.625 L 14.640625 -20.625 L 14.640625 -17.5625 L 5.96875 -17.5625 L 5.640625 -12.359375 C 6.628906 -13.234375 7.875 -13.671875 9.375 -13.671875 C 11.332031 -13.671875 12.898438 -13.0625 14.078125 -11.84375 C 15.253906 -10.625 15.84375 -8.960938 15.84375 -6.859375 Z M 15.84375 -6.859375 "/></g></g><g transform="translate(364.648478, 348.040463)"><g><path d="M 15.84375 -6.859375 C 15.84375 -4.679688 15.160156 -2.941406 13.796875 -1.640625 C 12.429688 -0.347656 10.566406 0.296875 8.203125 0.296875 C 6.128906 0.296875 4.46875 -0.164062 3.21875 -1.09375 C 1.976562 -2.03125 1.210938 -3.382812 0.921875 -5.15625 L 5.03125 -5.484375 C 5.25 -4.609375 5.628906 -3.96875 6.171875 -3.5625 C 6.722656 -3.164062 7.414062 -2.96875 8.25 -2.96875 C 9.269531 -2.96875 10.082031 -3.296875 10.6875 -3.953125 C 11.300781 -4.609375 11.609375 -5.550781 11.609375 -6.78125 C 11.609375 -7.863281 11.316406 -8.726562 10.734375 -9.375 C 10.160156 -10.019531 9.359375 -10.34375 8.328125 -10.34375 C 7.191406 -10.34375 6.257812 -9.898438 5.53125 -9.015625 L 1.515625 -9.015625 L 2.234375 -20.625 L 14.640625 -20.625 L 14.640625 -17.5625 L 5.96875 -17.5625 L 5.640625 -12.359375 C 6.628906 -13.234375 7.875 -13.671875 9.375 -13.671875 C 11.332031 -13.671875 12.898438 -13.0625 14.078125 -11.84375 C 15.253906 -10.625 15.84375 -8.960938 15.84375 -6.859375 Z M 15.84375 -6.859375 "/></g></g></g><g clip-path="url(#fd6215d15f)"><g mask="url(#4999cc07c4)"><g transform="matrix(1, 0, 0, 1, 466, 304)"><g clip-path="url(#cfd5ae6d73)"><g clip-path="url(#05a596e1bf)"><path fill="#ffc000" d="M 0.996094 0.566406 L 187.640625 0.566406 L 187.640625 68.027344 L 0.996094 68.027344 Z M 0.996094 0.566406 " fill-opacity="1" fill-rule="nonzero"/></g></g></g></g></g><g fill="#808080" fill-opacity="1"><g transform="translate(552.130591, 348.040463)"><g><path d="M 15.59375 -6.75 C 15.59375 -4.550781 14.976562 -2.828125 13.75 -1.578125 C 12.519531 -0.328125 10.820312 0.296875 8.65625 0.296875 C 6.21875 0.296875 4.347656 -0.550781 3.046875 -2.25 C 1.742188 -3.957031 1.09375 -6.488281 1.09375 -9.84375 C 1.09375 -13.519531 1.753906 -16.285156 3.078125 -18.140625 C 4.398438 -20.003906 6.289062 -20.9375 8.75 -20.9375 C 10.5 -20.9375 11.878906 -20.550781 12.890625 -19.78125 C 13.898438 -19.007812 14.613281 -17.8125 15.03125 -16.1875 L 11.15625 -15.65625 C 10.78125 -17.007812 9.953125 -17.6875 8.671875 -17.6875 C 7.566406 -17.6875 6.695312 -17.132812 6.0625 -16.03125 C 5.4375 -14.925781 5.125 -13.253906 5.125 -11.015625 C 5.5625 -11.742188 6.171875 -12.300781 6.953125 -12.6875 C 7.734375 -13.082031 8.617188 -13.28125 9.609375 -13.28125 C 11.453125 -13.28125 12.910156 -12.691406 13.984375 -11.515625 C 15.054688 -10.347656 15.59375 -8.757812 15.59375 -6.75 Z M 11.46875 -6.625 C 11.46875 -7.800781 11.195312 -8.695312 10.65625 -9.3125 C 10.113281 -9.9375 9.367188 -10.25 8.421875 -10.25 C 7.515625 -10.25 6.785156 -9.957031 6.234375 -9.375 C 5.691406 -8.789062 5.421875 -8.023438 5.421875 -7.078125 C 5.421875 -5.867188 5.703125 -4.867188 6.265625 -4.078125 C 6.835938 -3.296875 7.585938 -2.90625 8.515625 -2.90625 C 9.441406 -2.90625 10.164062 -3.234375 10.6875 -3.890625 C 11.207031 -4.554688 11.46875 -5.46875 11.46875 -6.625 Z M 11.46875 -6.625 "/></g></g></g></svg>