<svg xmlns="http://www.w3.org/2000/svg" xmlns:xlink="http://www.w3.org/1999/xlink" width="1919" zoomAndPan="magnify" viewBox="0 0 1439.25 371.999986" height="496" preserveAspectRatio="xMidYMid meet" version="1.0"><defs><filter x="0%" y="0%" width="100%" height="100%" id="c7a26d01c4"><feColorMatrix values="0 0 0 0 1 0 0 0 0 1 0 0 0 0 1 0 0 0 1 0" color-interpolation-filters="sRGB"/></filter><g/><clipPath id="40fe2ad442"><path d="M 75.332031 153.953125 L 262 153.953125 L 262 221.25 L 75.332031 221.25 Z M 75.332031 153.953125 " clip-rule="nonzero"/></clipPath><clipPath id="5a9246afdc"><path d="M 271.160156 78.589844 L 458 78.589844 L 458 145.890625 L 271.160156 145.890625 Z M 271.160156 78.589844 " clip-rule="nonzero"/></clipPath><clipPath id="1ba37d23b1"><path d="M 75.332031 229.3125 L 262 229.3125 L 262 296.613281 L 75.332031 296.613281 Z M 75.332031 229.3125 " clip-rule="nonzero"/></clipPath><clipPath id="c4ce6cb271"><path d="M 271.160156 229.3125 L 458 229.3125 L 458 296.613281 L 271.160156 296.613281 Z M 271.160156 229.3125 " clip-rule="nonzero"/></clipPath><clipPath id="d90d3f1bd9"><path d="M 466.984375 78.589844 L 653.929688 78.589844 L 653.929688 145.890625 L 466.984375 145.890625 Z M 466.984375 78.589844 " clip-rule="nonzero"/></clipPath><clipPath id="0be94f174f"><path d="M 466.984375 153.953125 L 653.929688 153.953125 L 653.929688 221.25 L 466.984375 221.25 Z M 466.984375 153.953125 " clip-rule="nonzero"/></clipPath><mask id="c063d69d44"><g filter="url(#c7a26d01c4)"><rect x="-143.925" width="1727.1" fill="#000000" y="-37.199999" height="446.399983" fill-opacity="0.498"/></g></mask><clipPath id="6c77f203c1"><path d="M 0.984375 0.953125 L 187.929688 0.953125 L 187.929688 68.25 L 0.984375 68.25 Z M 0.984375 0.953125 " clip-rule="nonzero"/></clipPath><clipPath id="52893c34a1"><rect x="0" width="188" y="0" height="69"/></clipPath><clipPath id="272dc84767"><path d="M 466.984375 229.3125 L 653.929688 229.3125 L 653.929688 296.613281 L 466.984375 296.613281 Z M 466.984375 229.3125 " clip-rule="nonzero"/></clipPath><clipPath id="453d259803"><path d="M 670.679688 153.953125 L 768.878906 153.953125 L 768.878906 216 L 670.679688 216 Z M 670.679688 153.953125 " clip-rule="nonzero"/></clipPath><clipPath id="b239409ac9"><path d="M 670.679688 169.394531 L 737.554688 169.394531 L 737.554688 153.953125 L 768.4375 184.835938 L 737.554688 215.71875 L 737.554688 200.277344 L 670.679688 200.277344 L 670.679688 169.394531 " clip-rule="nonzero"/></clipPath><mask id="7ff8fa7be5"><g filter="url(#c7a26d01c4)"><rect x="-143.925" width="1727.1" fill="#000000" y="-37.199999" height="446.399983" fill-opacity="0.4"/></g></mask><clipPath id="95279bd110"><path d="M 0.679688 0.953125 L 98.558594 0.953125 L 98.558594 62.746094 L 0.679688 62.746094 Z M 0.679688 0.953125 " clip-rule="nonzero"/></clipPath><clipPath id="3e48165899"><path d="M 0.679688 16.394531 L 67.554688 16.394531 L 67.554688 0.953125 L 98.4375 31.835938 L 67.554688 62.71875 L 67.554688 47.277344 L 0.679688 47.277344 L 0.679688 16.394531 " clip-rule="nonzero"/></clipPath><clipPath id="ae5243317b"><rect x="0" width="99" y="0" height="63"/></clipPath><clipPath id="a2739fe89e"><path d="M 784.703125 150.617188 L 971.648438 150.617188 L 971.648438 217.917969 L 784.703125 217.917969 Z M 784.703125 150.617188 " clip-rule="nonzero"/></clipPath><clipPath id="75dbde8faa"><path d="M 980.527344 75.257812 L 1167.472656 75.257812 L 1167.472656 142.558594 L 980.527344 142.558594 Z M 980.527344 75.257812 " clip-rule="nonzero"/></clipPath><clipPath id="6124ff6041"><path d="M 980.527344 150.617188 L 1167.472656 150.617188 L 1167.472656 217.917969 L 980.527344 217.917969 Z M 980.527344 150.617188 " clip-rule="nonzero"/></clipPath><mask id="35fe174925"><g filter="url(#c7a26d01c4)"><rect x="-143.925" width="1727.1" fill="#000000" y="-37.199999" height="446.399983" fill-opacity="0.498"/></g></mask><clipPath id="7ee7d627fb"><path d="M 0.527344 0.617188 L 187.472656 0.617188 L 187.472656 67.917969 L 0.527344 67.917969 Z M 0.527344 0.617188 " clip-rule="nonzero"/></clipPath><clipPath id="5c5c475f4c"><rect x="0" width="188" y="0" height="68"/></clipPath><clipPath id="77e876ba4e"><path d="M 784.703125 225.980469 L 971.648438 225.980469 L 971.648438 293.277344 L 784.703125 293.277344 Z M 784.703125 225.980469 " clip-rule="nonzero"/></clipPath><clipPath id="75b0a69120"><path d="M 980.527344 225.980469 L 1167.472656 225.980469 L 1167.472656 293.277344 L 980.527344 293.277344 Z M 980.527344 225.980469 " clip-rule="nonzero"/></clipPath><clipPath id="346a3bed7e"><path d="M 1176.355469 75.257812 L 1363.300781 75.257812 L 1363.300781 142.558594 L 1176.355469 142.558594 Z M 1176.355469 75.257812 " clip-rule="nonzero"/></clipPath><clipPath id="f5b1989abb"><path d="M 1176.355469 150.617188 L 1363.300781 150.617188 L 1363.300781 217.917969 L 1176.355469 217.917969 Z M 1176.355469 150.617188 " clip-rule="nonzero"/></clipPath><mask id="3dd38cc743"><g filter="url(#c7a26d01c4)"><rect x="-143.925" width="1727.1" fill="#000000" y="-37.199999" height="446.399983" fill-opacity="0.498"/></g></mask><clipPath id="2bd7be9bb0"><path d="M 0.355469 0.617188 L 187.300781 0.617188 L 187.300781 67.917969 L 0.355469 67.917969 Z M 0.355469 0.617188 " clip-rule="nonzero"/></clipPath><clipPath id="479bb9a857"><rect x="0" width="188" y="0" height="68"/></clipPath><clipPath id="c0170ab27f"><path d="M 1176.355469 225.980469 L 1363.300781 225.980469 L 1363.300781 293.277344 L 1176.355469 293.277344 Z M 1176.355469 225.980469 " clip-rule="nonzero"/></clipPath><clipPath id="a1ce352e6d"><path d="M 271.160156 153.953125 L 458.105469 153.953125 L 458.105469 221.25 L 271.160156 221.25 Z M 271.160156 153.953125 " clip-rule="nonzero"/></clipPath><mask id="5b38c0157b"><g filter="url(#c7a26d01c4)"><rect x="-143.925" width="1727.1" fill="#000000" y="-37.199999" height="446.399983" fill-opacity="0.498"/></g></mask><clipPath id="d45e34a73c"><path d="M 0.160156 0.953125 L 187 0.953125 L 187 68.25 L 0.160156 68.25 Z M 0.160156 0.953125 " clip-rule="nonzero"/></clipPath><clipPath id="7fb5222623"><rect x="0" width="188" y="0" height="69"/></clipPath></defs><g clip-path="url(#40fe2ad442)"><path fill="#d9d9d9" d="M 75.332031 153.953125 L 261.988281 153.953125 L 261.988281 221.417969 L 75.332031 221.417969 Z M 75.332031 153.953125 " fill-opacity="1" fill-rule="nonzero"/></g><g clip-path="url(#5a9246afdc)"><path fill="#d9d9d9" d="M 271.160156 78.589844 L 457.8125 78.589844 L 457.8125 146.054688 L 271.160156 146.054688 Z M 271.160156 78.589844 " fill-opacity="1" fill-rule="nonzero"/></g><g clip-path="url(#1ba37d23b1)"><path fill="#d9d9d9" d="M 75.332031 229.3125 L 261.988281 229.3125 L 261.988281 296.777344 L 75.332031 296.777344 Z M 75.332031 229.3125 " fill-opacity="1" fill-rule="nonzero"/></g><g clip-path="url(#c4ce6cb271)"><path fill="#f2f2f2" d="M 271.160156 229.3125 L 457.8125 229.3125 L 457.8125 296.777344 L 271.160156 296.777344 Z M 271.160156 229.3125 " fill-opacity="1" fill-rule="nonzero"/></g><g clip-path="url(#d90d3f1bd9)"><path fill="#d9d9d9" d="M 466.984375 78.589844 L 653.636719 78.589844 L 653.636719 146.054688 L 466.984375 146.054688 Z M 466.984375 78.589844 " fill-opacity="1" fill-rule="nonzero"/></g><g clip-path="url(#0be94f174f)"><g mask="url(#c063d69d44)"><g transform="matrix(1, 0, 0, 1, 466, 153)"><g clip-path="url(#52893c34a1)"><g clip-path="url(#6c77f203c1)"><path fill="#ffc000" d="M 0.984375 0.953125 L 187.636719 0.953125 L 187.636719 68.417969 L 0.984375 68.417969 Z M 0.984375 0.953125 " fill-opacity="1" fill-rule="nonzero"/></g></g></g></g></g><g fill="#808080" fill-opacity="1"><g transform="translate(535.445544, 197.42923)"><g><path d="M 1.890625 0 L 1.890625 -3.0625 L 7 -3.0625 L 7 -17.125 L 2.046875 -14.046875 L 2.046875 -17.28125 L 7.21875 -20.625 L 11.109375 -20.625 L 11.109375 -3.0625 L 15.84375 -3.0625 L 15.84375 0 Z M 1.890625 0 "/></g></g><g transform="translate(552.121424, 197.42923)"><g><path d="M 1.890625 0 L 1.890625 -3.0625 L 7 -3.0625 L 7 -17.125 L 2.046875 -14.046875 L 2.046875 -17.28125 L 7.21875 -20.625 L 11.109375 -20.625 L 11.109375 -3.0625 L 15.84375 -3.0625 L 15.84375 0 Z M 1.890625 0 "/></g></g><g transform="translate(568.797303, 197.42923)"><g><path d="M 15.84375 -6.859375 C 15.84375 -4.679688 15.160156 -2.941406 13.796875 -1.640625 C 12.429688 -0.347656 10.566406 0.296875 8.203125 0.296875 C 6.128906 0.296875 4.46875 -0.164062 3.21875 -1.09375 C 1.976562 -2.03125 1.210938 -3.382812 0.921875 -5.15625 L 5.03125 -5.484375 C 5.25 -4.609375 5.628906 -3.96875 6.171875 -3.5625 C 6.722656 -3.164062 7.414062 -2.96875 8.25 -2.96875 C 9.269531 -2.96875 10.082031 -3.296875 10.6875 -3.953125 C 11.300781 -4.609375 11.609375 -5.550781 11.609375 -6.78125 C 11.609375 -7.863281 11.316406 -8.726562 10.734375 -9.375 C 10.160156 -10.019531 9.359375 -10.34375 8.328125 -10.34375 C 7.191406 -10.34375 6.257812 -9.898438 5.53125 -9.015625 L 1.515625 -9.015625 L 2.234375 -20.625 L 14.640625 -20.625 L 14.640625 -17.5625 L 5.96875 -17.5625 L 5.640625 -12.359375 C 6.628906 -13.234375 7.875 -13.671875 9.375 -13.671875 C 11.332031 -13.671875 12.898438 -13.0625 14.078125 -11.84375 C 15.253906 -10.625 15.84375 -8.960938 15.84375 -6.859375 Z M 15.84375 -6.859375 "/></g></g></g><g clip-path="url(#272dc84767)"><path fill="#f2f2f2" d="M 466.984375 229.3125 L 653.636719 229.3125 L 653.636719 296.777344 L 466.984375 296.777344 Z M 466.984375 229.3125 " fill-opacity="1" fill-rule="nonzero"/></g><g clip-path="url(#453d259803)"><g clip-path="url(#b239409ac9)"><g mask="url(#7ff8fa7be5)"><g transform="matrix(1, 0, 0, 1, 670, 153)"><g clip-path="url(#ae5243317b)"><g clip-path="url(#95279bd110)"><g clip-path="url(#3e48165899)"><path fill="#03e313" d="M 0.679688 0.953125 L 98.128906 0.953125 L 98.128906 62.417969 L 0.679688 62.417969 Z M 0.679688 0.953125 " fill-opacity="1" fill-rule="nonzero"/></g></g></g></g></g></g></g><g clip-path="url(#a2739fe89e)"><path fill="#d9d9d9" d="M 784.703125 150.617188 L 971.355469 150.617188 L 971.355469 218.082031 L 784.703125 218.082031 Z M 784.703125 150.617188 " fill-opacity="1" fill-rule="nonzero"/></g><g clip-path="url(#75dbde8faa)"><path fill="#d9d9d9" d="M 980.527344 75.257812 L 1167.179688 75.257812 L 1167.179688 142.722656 L 980.527344 142.722656 Z M 980.527344 75.257812 " fill-opacity="1" fill-rule="nonzero"/></g><g clip-path="url(#6124ff6041)"><g mask="url(#35fe174925)"><g transform="matrix(1, 0, 0, 1, 980, 150)"><g clip-path="url(#5c5c475f4c)"><g clip-path="url(#7ee7d627fb)"><path fill="#03e313" d="M 0.527344 0.617188 L 187.179688 0.617188 L 187.179688 68.082031 L 0.527344 68.082031 Z M 0.527344 0.617188 " fill-opacity="1" fill-rule="nonzero"/></g></g></g></g></g><g fill="#808080" fill-opacity="1"><g transform="translate(1065.668065, 194.095766)"><g><path d="M 15.75 -5.8125 C 15.75 -3.875 15.109375 -2.367188 13.828125 -1.296875 C 12.554688 -0.234375 10.734375 0.296875 8.359375 0.296875 C 6.003906 0.296875 4.179688 -0.234375 2.890625 -1.296875 C 1.597656 -2.367188 0.953125 -3.863281 0.953125 -5.78125 C 0.953125 -7.101562 1.332031 -8.210938 2.09375 -9.109375 C 2.851562 -10.015625 3.875 -10.578125 5.15625 -10.796875 L 5.15625 -10.84375 C 4.039062 -11.09375 3.140625 -11.644531 2.453125 -12.5 C 1.773438 -13.363281 1.4375 -14.351562 1.4375 -15.46875 C 1.4375 -17.164062 2.03125 -18.5 3.21875 -19.46875 C 4.414062 -20.445312 6.109375 -20.9375 8.296875 -20.9375 C 10.535156 -20.9375 12.25 -20.457031 13.4375 -19.5 C 14.632812 -18.550781 15.234375 -17.203125 15.234375 -15.453125 C 15.234375 -14.328125 14.894531 -13.335938 14.21875 -12.484375 C 13.539062 -11.640625 12.632812 -11.101562 11.5 -10.875 L 11.5 -10.8125 C 12.820312 -10.601562 13.859375 -10.0625 14.609375 -9.1875 C 15.367188 -8.3125 15.75 -7.1875 15.75 -5.8125 Z M 11.015625 -15.21875 C 11.015625 -16.195312 10.785156 -16.910156 10.328125 -17.359375 C 9.878906 -17.816406 9.203125 -18.046875 8.296875 -18.046875 C 6.523438 -18.046875 5.640625 -17.101562 5.640625 -15.21875 C 5.640625 -13.25 6.535156 -12.265625 8.328125 -12.265625 C 9.222656 -12.265625 9.894531 -12.492188 10.34375 -12.953125 C 10.789062 -13.410156 11.015625 -14.164062 11.015625 -15.21875 Z M 11.5 -6.15625 C 11.5 -8.3125 10.421875 -9.390625 8.265625 -9.390625 C 7.273438 -9.390625 6.515625 -9.101562 5.984375 -8.53125 C 5.453125 -7.96875 5.1875 -7.15625 5.1875 -6.09375 C 5.1875 -4.882812 5.445312 -4 5.96875 -3.4375 C 6.5 -2.882812 7.304688 -2.609375 8.390625 -2.609375 C 9.453125 -2.609375 10.234375 -2.882812 10.734375 -3.4375 C 11.242188 -4 11.5 -4.90625 11.5 -6.15625 Z M 11.5 -6.15625 "/></g></g></g><g clip-path="url(#77e876ba4e)"><path fill="#d9d9d9" d="M 784.703125 225.980469 L 971.355469 225.980469 L 971.355469 293.445312 L 784.703125 293.445312 Z M 784.703125 225.980469 " fill-opacity="1" fill-rule="nonzero"/></g><g clip-path="url(#75b0a69120)"><path fill="#f2f2f2" d="M 980.527344 225.980469 L 1167.179688 225.980469 L 1167.179688 293.445312 L 980.527344 293.445312 Z M 980.527344 225.980469 " fill-opacity="1" fill-rule="nonzero"/></g><g clip-path="url(#346a3bed7e)"><path fill="#d9d9d9" d="M 1176.355469 75.257812 L 1363.007812 75.257812 L 1363.007812 142.722656 L 1176.355469 142.722656 Z M 1176.355469 75.257812 " fill-opacity="1" fill-rule="nonzero"/></g><g clip-path="url(#f5b1989abb)"><g mask="url(#3dd38cc743)"><g transform="matrix(1, 0, 0, 1, 1176, 150)"><g clip-path="url(#479bb9a857)"><g clip-path="url(#2bd7be9bb0)"><path fill="#03e313" d="M 0.355469 0.617188 L 187.007812 0.617188 L 187.007812 68.082031 L 0.355469 68.082031 Z M 0.355469 0.617188 " fill-opacity="1" fill-rule="nonzero"/></g></g></g></g></g><g fill="#808080" fill-opacity="1"><g transform="translate(1244.814755, 194.095766)"><g><path d="M 1.890625 0 L 1.890625 -3.0625 L 7 -3.0625 L 7 -17.125 L 2.046875 -14.046875 L 2.046875 -17.28125 L 7.21875 -20.625 L 11.109375 -20.625 L 11.109375 -3.0625 L 15.84375 -3.0625 L 15.84375 0 Z M 1.890625 0 "/></g></g><g transform="translate(1261.490635, 194.095766)"><g><path d="M 1.890625 0 L 1.890625 -3.0625 L 7 -3.0625 L 7 -17.125 L 2.046875 -14.046875 L 2.046875 -17.28125 L 7.21875 -20.625 L 11.109375 -20.625 L 11.109375 -3.0625 L 15.84375 -3.0625 L 15.84375 0 Z M 1.890625 0 "/></g></g><g transform="translate(1278.166514, 194.095766)"><g><path d="M 15.84375 -6.859375 C 15.84375 -4.679688 15.160156 -2.941406 13.796875 -1.640625 C 12.429688 -0.347656 10.566406 0.296875 8.203125 0.296875 C 6.128906 0.296875 4.46875 -0.164062 3.21875 -1.09375 C 1.976562 -2.03125 1.210938 -3.382812 0.921875 -5.15625 L 5.03125 -5.484375 C 5.25 -4.609375 5.628906 -3.96875 6.171875 -3.5625 C 6.722656 -3.164062 7.414062 -2.96875 8.25 -2.96875 C 9.269531 -2.96875 10.082031 -3.296875 10.6875 -3.953125 C 11.300781 -4.609375 11.609375 -5.550781 11.609375 -6.78125 C 11.609375 -7.863281 11.316406 -8.726562 10.734375 -9.375 C 10.160156 -10.019531 9.359375 -10.34375 8.328125 -10.34375 C 7.191406 -10.34375 6.257812 -9.898438 5.53125 -9.015625 L 1.515625 -9.015625 L 2.234375 -20.625 L 14.640625 -20.625 L 14.640625 -17.5625 L 5.96875 -17.5625 L 5.640625 -12.359375 C 6.628906 -13.234375 7.875 -13.671875 9.375 -13.671875 C 11.332031 -13.671875 12.898438 -13.0625 14.078125 -11.84375 C 15.253906 -10.625 15.84375 -8.960938 15.84375 -6.859375 Z M 15.84375 -6.859375 "/></g></g></g><g clip-path="url(#c0170ab27f)"><path fill="#f2f2f2" d="M 1176.355469 225.980469 L 1363.007812 225.980469 L 1363.007812 293.445312 L 1176.355469 293.445312 Z M 1176.355469 225.980469 " fill-opacity="1" fill-rule="nonzero"/></g><g clip-path="url(#a1ce352e6d)"><g mask="url(#5b38c0157b)"><g transform="matrix(1, 0, 0, 1, 271, 153)"><g clip-path="url(#7fb5222623)"><g clip-path="url(#d45e34a73c)"><path fill="#ffc000" d="M 0.160156 0.953125 L 186.8125 0.953125 L 186.8125 68.417969 L 0.160156 68.417969 Z M 0.160156 0.953125 " fill-opacity="1" fill-rule="nonzero"/></g></g></g></g></g><g fill="#808080" fill-opacity="1"><g transform="translate(339.619854, 197.42923)"><g><path d="M 15.453125 -10.328125 C 15.453125 -6.835938 14.851562 -4.191406 13.65625 -2.390625 C 12.457031 -0.597656 10.660156 0.296875 8.265625 0.296875 C 3.546875 0.296875 1.1875 -3.242188 1.1875 -10.328125 C 1.1875 -12.796875 1.441406 -14.8125 1.953125 -16.375 C 2.472656 -17.9375 3.25 -19.085938 4.28125 -19.828125 C 5.320312 -20.566406 6.691406 -20.9375 8.390625 -20.9375 C 10.828125 -20.9375 12.613281 -20.050781 13.75 -18.28125 C 14.882812 -16.519531 15.453125 -13.867188 15.453125 -10.328125 Z M 11.3125 -10.328125 C 11.3125 -12.222656 11.21875 -13.695312 11.03125 -14.75 C 10.851562 -15.8125 10.554688 -16.570312 10.140625 -17.03125 C 9.734375 -17.488281 9.140625 -17.71875 8.359375 -17.71875 C 7.523438 -17.71875 6.894531 -17.484375 6.46875 -17.015625 C 6.050781 -16.554688 5.75 -15.800781 5.5625 -14.75 C 5.382812 -13.695312 5.296875 -12.222656 5.296875 -10.328125 C 5.296875 -8.441406 5.390625 -6.96875 5.578125 -5.90625 C 5.773438 -4.84375 6.078125 -4.082031 6.484375 -3.625 C 6.898438 -3.164062 7.503906 -2.9375 8.296875 -2.9375 C 9.078125 -2.9375 9.679688 -3.175781 10.109375 -3.65625 C 10.535156 -4.144531 10.84375 -4.921875 11.03125 -5.984375 C 11.21875 -7.046875 11.3125 -8.492188 11.3125 -10.328125 Z M 11.3125 -10.328125 "/></g></g><g transform="translate(356.295734, 197.42923)"><g><path d="M 15.453125 -10.328125 C 15.453125 -6.835938 14.851562 -4.191406 13.65625 -2.390625 C 12.457031 -0.597656 10.660156 0.296875 8.265625 0.296875 C 3.546875 0.296875 1.1875 -3.242188 1.1875 -10.328125 C 1.1875 -12.796875 1.441406 -14.8125 1.953125 -16.375 C 2.472656 -17.9375 3.25 -19.085938 4.28125 -19.828125 C 5.320312 -20.566406 6.691406 -20.9375 8.390625 -20.9375 C 10.828125 -20.9375 12.613281 -20.050781 13.75 -18.28125 C 14.882812 -16.519531 15.453125 -13.867188 15.453125 -10.328125 Z M 11.3125 -10.328125 C 11.3125 -12.222656 11.21875 -13.695312 11.03125 -14.75 C 10.851562 -15.8125 10.554688 -16.570312 10.140625 -17.03125 C 9.734375 -17.488281 9.140625 -17.71875 8.359375 -17.71875 C 7.523438 -17.71875 6.894531 -17.484375 6.46875 -17.015625 C 6.050781 -16.554688 5.75 -15.800781 5.5625 -14.75 C 5.382812 -13.695312 5.296875 -12.222656 5.296875 -10.328125 C 5.296875 -8.441406 5.390625 -6.96875 5.578125 -5.90625 C 5.773438 -4.84375 6.078125 -4.082031 6.484375 -3.625 C 6.898438 -3.164062 7.503906 -2.9375 8.296875 -2.9375 C 9.078125 -2.9375 9.679688 -3.175781 10.109375 -3.65625 C 10.535156 -4.144531 10.84375 -4.921875 11.03125 -5.984375 C 11.21875 -7.046875 11.3125 -8.492188 11.3125 -10.328125 Z M 11.3125 -10.328125 "/></g></g><g transform="translate(372.971613, 197.42923)"><g><path d="M 15.75 -5.8125 C 15.75 -3.875 15.109375 -2.367188 13.828125 -1.296875 C 12.554688 -0.234375 10.734375 0.296875 8.359375 0.296875 C 6.003906 0.296875 4.179688 -0.234375 2.890625 -1.296875 C 1.597656 -2.367188 0.953125 -3.863281 0.953125 -5.78125 C 0.953125 -7.101562 1.332031 -8.210938 2.09375 -9.109375 C 2.851562 -10.015625 3.875 -10.578125 5.15625 -10.796875 L 5.15625 -10.84375 C 4.039062 -11.09375 3.140625 -11.644531 2.453125 -12.5 C 1.773438 -13.363281 1.4375 -14.351562 1.4375 -15.46875 C 1.4375 -17.164062 2.03125 -18.5 3.21875 -19.46875 C 4.414062 -20.445312 6.109375 -20.9375 8.296875 -20.9375 C 10.535156 -20.9375 12.25 -20.457031 13.4375 -19.5 C 14.632812 -18.550781 15.234375 -17.203125 15.234375 -15.453125 C 15.234375 -14.328125 14.894531 -13.335938 14.21875 -12.484375 C 13.539062 -11.640625 12.632812 -11.101562 11.5 -10.875 L 11.5 -10.8125 C 12.820312 -10.601562 13.859375 -10.0625 14.609375 -9.1875 C 15.367188 -8.3125 15.75 -7.1875 15.75 -5.8125 Z M 11.015625 -15.21875 C 11.015625 -16.195312 10.785156 -16.910156 10.328125 -17.359375 C 9.878906 -17.816406 9.203125 -18.046875 8.296875 -18.046875 C 6.523438 -18.046875 5.640625 -17.101562 5.640625 -15.21875 C 5.640625 -13.25 6.535156 -12.265625 8.328125 -12.265625 C 9.222656 -12.265625 9.894531 -12.492188 10.34375 -12.953125 C 10.789062 -13.410156 11.015625 -14.164062 11.015625 -15.21875 Z M 11.5 -6.15625 C 11.5 -8.3125 10.421875 -9.390625 8.265625 -9.390625 C 7.273438 -9.390625 6.515625 -9.101562 5.984375 -8.53125 C 5.453125 -7.96875 5.1875 -7.15625 5.1875 -6.09375 C 5.1875 -4.882812 5.445312 -4 5.96875 -3.4375 C 6.5 -2.882812 7.304688 -2.609375 8.390625 -2.609375 C 9.453125 -2.609375 10.234375 -2.882812 10.734375 -3.4375 C 11.242188 -4 11.5 -4.90625 11.5 -6.15625 Z M 11.5 -6.15625 "/></g></g></g></svg>