<svg xmlns="http://www.w3.org/2000/svg" xmlns:xlink="http://www.w3.org/1999/xlink" width="1919" zoomAndPan="magnify" viewBox="0 0 1439.25 371.999986" height="496" preserveAspectRatio="xMidYMid meet" version="1.0"><defs><filter x="0%" y="0%" width="100%" height="100%" id="e0c90d98de"><feColorMatrix values="0 0 0 0 1 0 0 0 0 1 0 0 0 0 1 0 0 0 1 0" color-interpolation-filters="sRGB"/></filter><g/><clipPath id="fa9ba2f105"><path d="M 75.332031 153.953125 L 262 153.953125 L 262 221.25 L 75.332031 221.25 Z M 75.332031 153.953125 " clip-rule="nonzero"/></clipPath><clipPath id="515e6d5c7a"><path d="M 271.160156 78.589844 L 458 78.589844 L 458 145.890625 L 271.160156 145.890625 Z M 271.160156 78.589844 " clip-rule="nonzero"/></clipPath><clipPath id="821c3ab044"><path d="M 75.332031 229.3125 L 262 229.3125 L 262 296.613281 L 75.332031 296.613281 Z M 75.332031 229.3125 " clip-rule="nonzero"/></clipPath><clipPath id="62e2ecda47"><path d="M 271.160156 229.3125 L 458 229.3125 L 458 296.613281 L 271.160156 296.613281 Z M 271.160156 229.3125 " clip-rule="nonzero"/></clipPath><clipPath id="4a1109fe80"><path d="M 466.984375 78.589844 L 653.929688 78.589844 L 653.929688 145.890625 L 466.984375 145.890625 Z M 466.984375 78.589844 " clip-rule="nonzero"/></clipPath><clipPath id="1368ba1335"><path d="M 466.984375 153.953125 L 653.929688 153.953125 L 653.929688 221.25 L 466.984375 221.25 Z M 466.984375 153.953125 " clip-rule="nonzero"/></clipPath><mask id="87870ff8e3"><g filter="url(#e0c90d98de)"><rect x="-143.925" width="1727.1" fill="#000000" y="-37.199999" height="446.399983" fill-opacity="0.498"/></g></mask><clipPath id="127827ea83"><path d="M 0.984375 0.953125 L 187.929688 0.953125 L 187.929688 68.25 L 0.984375 68.25 Z M 0.984375 0.953125 " clip-rule="nonzero"/></clipPath><clipPath id="ea85855d99"><rect x="0" width="188" y="0" height="69"/></clipPath><clipPath id="785ab5d492"><path d="M 466.984375 229.3125 L 653.929688 229.3125 L 653.929688 296.613281 L 466.984375 296.613281 Z M 466.984375 229.3125 " clip-rule="nonzero"/></clipPath><clipPath id="c923d18c6a"><path d="M 670.679688 153.953125 L 768.878906 153.953125 L 768.878906 216 L 670.679688 216 Z M 670.679688 153.953125 " clip-rule="nonzero"/></clipPath><clipPath id="aaa3a58f53"><path d="M 670.679688 169.394531 L 737.554688 169.394531 L 737.554688 153.953125 L 768.4375 184.835938 L 737.554688 215.71875 L 737.554688 200.277344 L 670.679688 200.277344 L 670.679688 169.394531 " clip-rule="nonzero"/></clipPath><mask id="89328f54da"><g filter="url(#e0c90d98de)"><rect x="-143.925" width="1727.1" fill="#000000" y="-37.199999" height="446.399983" fill-opacity="0.4"/></g></mask><clipPath id="4a23a05568"><path d="M 0.679688 0.953125 L 98.558594 0.953125 L 98.558594 62.746094 L 0.679688 62.746094 Z M 0.679688 0.953125 " clip-rule="nonzero"/></clipPath><clipPath id="bde84481a1"><path d="M 0.679688 16.394531 L 67.554688 16.394531 L 67.554688 0.953125 L 98.4375 31.835938 L 67.554688 62.71875 L 67.554688 47.277344 L 0.679688 47.277344 L 0.679688 16.394531 " clip-rule="nonzero"/></clipPath><clipPath id="3bd8a10e99"><rect x="0" width="99" y="0" height="63"/></clipPath><clipPath id="99fa9f34a5"><path d="M 784.703125 150.617188 L 971.648438 150.617188 L 971.648438 217.917969 L 784.703125 217.917969 Z M 784.703125 150.617188 " clip-rule="nonzero"/></clipPath><clipPath id="53eb368c5e"><path d="M 980.527344 75.257812 L 1167.472656 75.257812 L 1167.472656 142.558594 L 980.527344 142.558594 Z M 980.527344 75.257812 " clip-rule="nonzero"/></clipPath><clipPath id="d558efb957"><path d="M 980.527344 150.617188 L 1167.472656 150.617188 L 1167.472656 217.917969 L 980.527344 217.917969 Z M 980.527344 150.617188 " clip-rule="nonzero"/></clipPath><mask id="15d5fb3622"><g filter="url(#e0c90d98de)"><rect x="-143.925" width="1727.1" fill="#000000" y="-37.199999" height="446.399983" fill-opacity="0.498"/></g></mask><clipPath id="8d1d260ba7"><path d="M 0.527344 0.617188 L 187.472656 0.617188 L 187.472656 67.917969 L 0.527344 67.917969 Z M 0.527344 0.617188 " clip-rule="nonzero"/></clipPath><clipPath id="8f5e1e489d"><rect x="0" width="188" y="0" height="68"/></clipPath><clipPath id="b80ae82e11"><path d="M 784.703125 225.980469 L 971.648438 225.980469 L 971.648438 293.277344 L 784.703125 293.277344 Z M 784.703125 225.980469 " clip-rule="nonzero"/></clipPath><clipPath id="769a42b6c6"><path d="M 980.527344 225.980469 L 1167.472656 225.980469 L 1167.472656 293.277344 L 980.527344 293.277344 Z M 980.527344 225.980469 " clip-rule="nonzero"/></clipPath><clipPath id="89814bfcd0"><path d="M 1176.355469 75.257812 L 1363.300781 75.257812 L 1363.300781 142.558594 L 1176.355469 142.558594 Z M 1176.355469 75.257812 " clip-rule="nonzero"/></clipPath><clipPath id="0826453bf7"><path d="M 1176.355469 150.617188 L 1363.300781 150.617188 L 1363.300781 217.917969 L 1176.355469 217.917969 Z M 1176.355469 150.617188 " clip-rule="nonzero"/></clipPath><mask id="d357c9fe38"><g filter="url(#e0c90d98de)"><rect x="-143.925" width="1727.1" fill="#000000" y="-37.199999" height="446.399983" fill-opacity="0.498"/></g></mask><clipPath id="0786206488"><path d="M 0.355469 0.617188 L 187.300781 0.617188 L 187.300781 67.917969 L 0.355469 67.917969 Z M 0.355469 0.617188 " clip-rule="nonzero"/></clipPath><clipPath id="7398b245e0"><rect x="0" width="188" y="0" height="68"/></clipPath><clipPath id="f8acacf684"><path d="M 1176.355469 225.980469 L 1363.300781 225.980469 L 1363.300781 293.277344 L 1176.355469 293.277344 Z M 1176.355469 225.980469 " clip-rule="nonzero"/></clipPath><clipPath id="50bff93e66"><path d="M 271.160156 153.953125 L 458.105469 153.953125 L 458.105469 221.25 L 271.160156 221.25 Z M 271.160156 153.953125 " clip-rule="nonzero"/></clipPath><mask id="d332d51a0f"><g filter="url(#e0c90d98de)"><rect x="-143.925" width="1727.1" fill="#000000" y="-37.199999" height="446.399983" fill-opacity="0.498"/></g></mask><clipPath id="105347144c"><path d="M 0.160156 0.953125 L 187 0.953125 L 187 68.25 L 0.160156 68.25 Z M 0.160156 0.953125 " clip-rule="nonzero"/></clipPath><clipPath id="de9e9d76b2"><rect x="0" width="188" y="0" height="69"/></clipPath><clipPath id="5cd9b908eb"><path d="M 353.03125 169.476562 L 450.480469 169.476562 L 450.480469 206 L 353.03125 206 Z M 353.03125 169.476562 " clip-rule="nonzero"/></clipPath><clipPath id="50a376a06b"><path d="M 363.148438 169.476562 L 367.648438 169.476562 L 367.648438 171.726562 L 363.148438 171.726562 L 363.148438 169.476562 M 372.144531 169.476562 L 376.640625 169.476562 L 376.640625 171.726562 L 372.144531 171.726562 L 372.144531 169.476562 M 381.140625 169.476562 L 385.636719 169.476562 L 385.636719 171.726562 L 381.140625 171.726562 L 381.140625 169.476562 M 390.136719 169.476562 L 394.632812 169.476562 L 394.632812 171.726562 L 390.136719 171.726562 L 390.136719 169.476562 M 399.128906 169.476562 L 403.628906 169.476562 L 403.628906 171.726562 L 399.128906 171.726562 L 399.128906 169.476562 M 408.125 169.476562 L 412.625 169.476562 L 412.625 171.726562 L 408.125 171.726562 L 408.125 169.476562 M 417.121094 169.476562 L 421.617188 169.476562 L 421.617188 171.726562 L 417.121094 171.726562 L 417.121094 169.476562 M 426.117188 169.476562 L 430.613281 169.476562 L 430.613281 171.726562 L 426.117188 171.726562 L 426.117188 169.476562 M 435.113281 169.476562 L 439.609375 169.476562 L 439.609375 171.726562 L 435.113281 171.726562 L 435.113281 169.476562 M 444.105469 169.476562 L 448.605469 169.476562 L 448.605469 171.726562 L 444.105469 171.726562 L 444.105469 169.476562 M 450.171875 174.65625 L 450.171875 179.15625 L 447.921875 179.15625 L 447.921875 174.65625 L 450.171875 174.65625 M 450.171875 183.652344 L 450.171875 188.148438 L 447.921875 188.148438 L 447.921875 183.652344 L 450.171875 183.652344 M 450.171875 192.648438 L 450.171875 197.144531 L 447.921875 197.144531 L 447.921875 192.648438 L 450.171875 192.648438 M 450.171875 201.644531 L 450.171875 204.605469 C 450.171875 205.226562 449.667969 205.726562 449.046875 205.726562 L 447.511719 205.726562 L 447.511719 203.480469 L 449.046875 203.480469 L 449.046875 204.605469 L 447.921875 204.605469 L 447.921875 201.644531 L 450.171875 201.644531 M 443.011719 205.726562 L 438.515625 205.726562 L 438.515625 203.480469 L 443.011719 203.480469 L 443.011719 205.726562 M 434.015625 205.726562 L 429.519531 205.726562 L 429.519531 203.480469 L 434.015625 203.480469 L 434.015625 205.726562 M 425.023438 205.726562 L 420.523438 205.726562 L 420.523438 203.480469 L 425.023438 203.480469 L 425.023438 205.726562 M 416.027344 205.726562 L 411.527344 205.726562 L 411.527344 203.480469 L 416.027344 203.480469 L 416.027344 205.726562 M 407.03125 205.726562 L 402.535156 205.726562 L 402.535156 203.480469 L 407.03125 203.480469 L 407.03125 205.726562 M 398.035156 205.726562 L 393.539062 205.726562 L 393.539062 203.480469 L 398.035156 203.480469 L 398.035156 205.726562 M 389.039062 205.726562 L 384.542969 205.726562 L 384.542969 203.480469 L 389.039062 203.480469 L 389.039062 205.726562 M 380.046875 205.726562 L 375.546875 205.726562 L 375.546875 203.480469 L 380.046875 203.480469 L 380.046875 205.726562 M 371.050781 205.726562 L 366.550781 205.726562 L 366.550781 203.480469 L 371.050781 203.480469 L 371.050781 205.726562 M 362.054688 205.726562 L 357.558594 205.726562 L 357.558594 203.480469 L 362.054688 203.480469 L 362.054688 205.726562 M 353.03125 203.507812 L 353.03125 199.011719 L 355.277344 199.011719 L 355.277344 203.507812 L 353.03125 203.507812 M 353.03125 194.515625 L 353.03125 190.015625 L 355.277344 190.015625 L 355.277344 194.515625 L 353.03125 194.515625 M 353.03125 185.519531 L 353.03125 181.019531 L 355.277344 181.019531 L 355.277344 185.519531 L 353.03125 185.519531 M 353.03125 176.523438 L 353.03125 172.027344 L 355.277344 172.027344 L 355.277344 176.523438 L 353.03125 176.523438 M 354.152344 169.476562 L 358.652344 169.476562 L 358.652344 171.726562 L 354.152344 171.726562 L 354.152344 169.476562 " clip-rule="nonzero"/></clipPath></defs><g clip-path="url(#fa9ba2f105)"><path fill="#d9d9d9" d="M 75.332031 153.953125 L 261.988281 153.953125 L 261.988281 221.417969 L 75.332031 221.417969 Z M 75.332031 153.953125 " fill-opacity="1" fill-rule="nonzero"/></g><g clip-path="url(#515e6d5c7a)"><path fill="#d9d9d9" d="M 271.160156 78.589844 L 457.8125 78.589844 L 457.8125 146.054688 L 271.160156 146.054688 Z M 271.160156 78.589844 " fill-opacity="1" fill-rule="nonzero"/></g><g clip-path="url(#821c3ab044)"><path fill="#d9d9d9" d="M 75.332031 229.3125 L 261.988281 229.3125 L 261.988281 296.777344 L 75.332031 296.777344 Z M 75.332031 229.3125 " fill-opacity="1" fill-rule="nonzero"/></g><g clip-path="url(#62e2ecda47)"><path fill="#f2f2f2" d="M 271.160156 229.3125 L 457.8125 229.3125 L 457.8125 296.777344 L 271.160156 296.777344 Z M 271.160156 229.3125 " fill-opacity="1" fill-rule="nonzero"/></g><g clip-path="url(#4a1109fe80)"><path fill="#d9d9d9" d="M 466.984375 78.589844 L 653.636719 78.589844 L 653.636719 146.054688 L 466.984375 146.054688 Z M 466.984375 78.589844 " fill-opacity="1" fill-rule="nonzero"/></g><g clip-path="url(#1368ba1335)"><g mask="url(#87870ff8e3)"><g transform="matrix(1, 0, 0, 1, 466, 153)"><g clip-path="url(#ea85855d99)"><g clip-path="url(#127827ea83)"><path fill="#ffc000" d="M 0.984375 0.953125 L 187.636719 0.953125 L 187.636719 68.417969 L 0.984375 68.417969 Z M 0.984375 0.953125 " fill-opacity="1" fill-rule="nonzero"/></g></g></g></g></g><g fill="#808080" fill-opacity="1"><g transform="translate(527.961163, 197.42923)"><g><path d="M 20.390625 -10.46875 C 20.390625 -8.34375 19.972656 -6.484375 19.140625 -4.890625 C 18.304688 -3.304688 17.125 -2.09375 15.59375 -1.25 C 14.070312 -0.414062 12.320312 0 10.34375 0 L 2 0 L 2 -20.625 L 9.46875 -20.625 C 12.945312 -20.625 15.632812 -19.75 17.53125 -18 C 19.4375 -16.25 20.390625 -13.738281 20.390625 -10.46875 Z M 16.046875 -10.46875 C 16.046875 -12.6875 15.46875 -14.378906 14.3125 -15.546875 C 13.164062 -16.710938 11.523438 -17.296875 9.390625 -17.296875 L 6.328125 -17.296875 L 6.328125 -3.34375 L 9.984375 -3.34375 C 11.835938 -3.34375 13.3125 -3.976562 14.40625 -5.25 C 15.5 -6.53125 16.046875 -8.269531 16.046875 -10.46875 Z M 16.046875 -10.46875 "/></g></g><g transform="translate(549.614918, 197.42923)"><g><path d="M 5.75 0.296875 C 4.21875 0.296875 3.019531 -0.117188 2.15625 -0.953125 C 1.300781 -1.785156 0.875 -2.960938 0.875 -4.484375 C 0.875 -6.117188 1.40625 -7.363281 2.46875 -8.21875 C 3.539062 -9.082031 5.09375 -9.523438 7.125 -9.546875 L 10.546875 -9.609375 L 10.546875 -10.40625 C 10.546875 -11.445312 10.363281 -12.21875 10 -12.71875 C 9.632812 -13.21875 9.046875 -13.46875 8.234375 -13.46875 C 7.472656 -13.46875 6.910156 -13.296875 6.546875 -12.953125 C 6.191406 -12.609375 5.972656 -12.035156 5.890625 -11.234375 L 1.59375 -11.4375 C 1.851562 -12.976562 2.554688 -14.144531 3.703125 -14.9375 C 4.859375 -15.738281 6.425781 -16.140625 8.40625 -16.140625 C 10.40625 -16.140625 11.945312 -15.644531 13.03125 -14.65625 C 14.113281 -13.664062 14.65625 -12.265625 14.65625 -10.453125 L 14.65625 -4.6875 C 14.65625 -3.800781 14.753906 -3.1875 14.953125 -2.84375 C 15.148438 -2.507812 15.484375 -2.34375 15.953125 -2.34375 C 16.265625 -2.34375 16.566406 -2.375 16.859375 -2.4375 L 16.859375 -0.203125 C 16.617188 -0.140625 16.398438 -0.0820312 16.203125 -0.03125 C 16.015625 0.0078125 15.820312 0.0390625 15.625 0.0625 C 15.425781 0.09375 15.21875 0.117188 15 0.140625 C 14.78125 0.160156 14.523438 0.171875 14.234375 0.171875 C 13.191406 0.171875 12.425781 -0.078125 11.9375 -0.578125 C 11.445312 -1.085938 11.148438 -1.835938 11.046875 -2.828125 L 10.96875 -2.828125 C 9.8125 -0.742188 8.070312 0.296875 5.75 0.296875 Z M 10.546875 -7.328125 L 8.4375 -7.3125 C 7.476562 -7.269531 6.796875 -7.160156 6.390625 -6.984375 C 5.992188 -6.816406 5.691406 -6.554688 5.484375 -6.203125 C 5.273438 -5.859375 5.171875 -5.390625 5.171875 -4.796875 C 5.171875 -4.046875 5.34375 -3.488281 5.6875 -3.125 C 6.03125 -2.757812 6.492188 -2.578125 7.078125 -2.578125 C 7.710938 -2.578125 8.296875 -2.75 8.828125 -3.09375 C 9.367188 -3.445312 9.789062 -3.929688 10.09375 -4.546875 C 10.394531 -5.171875 10.546875 -5.832031 10.546875 -6.53125 Z M 10.546875 -7.328125 "/></g></g><g transform="translate(566.290797, 197.42923)"><g><path d="M 4.140625 6.21875 C 3.160156 6.21875 2.296875 6.15625 1.546875 6.03125 L 1.546875 3.109375 C 2.066406 3.179688 2.539062 3.21875 2.96875 3.21875 C 3.550781 3.21875 4.035156 3.125 4.421875 2.9375 C 4.804688 2.757812 5.148438 2.453125 5.453125 2.015625 C 5.765625 1.585938 6.113281 0.863281 6.5 -0.15625 L 0.234375 -15.84375 L 4.578125 -15.84375 L 7.078125 -8.421875 C 7.460938 -7.359375 7.953125 -5.726562 8.546875 -3.53125 L 8.921875 -4.921875 L 9.875 -8.359375 L 12.203125 -15.84375 L 16.515625 -15.84375 L 10.25 0.828125 C 9.40625 2.859375 8.53125 4.265625 7.625 5.046875 C 6.726562 5.828125 5.566406 6.21875 4.140625 6.21875 Z M 4.140625 6.21875 "/></g></g><g transform="translate(582.966677, 197.42923)"><g><path d="M 6.65625 -6.234375 L 3.296875 -6.234375 L 2.828125 -20.625 L 7.125 -20.625 Z M 2.828125 0 L 2.828125 -3.953125 L 7.046875 -3.953125 L 7.046875 0 Z M 2.828125 0 "/></g></g></g><g clip-path="url(#785ab5d492)"><path fill="#f2f2f2" d="M 466.984375 229.3125 L 653.636719 229.3125 L 653.636719 296.777344 L 466.984375 296.777344 Z M 466.984375 229.3125 " fill-opacity="1" fill-rule="nonzero"/></g><g clip-path="url(#c923d18c6a)"><g clip-path="url(#aaa3a58f53)"><g mask="url(#89328f54da)"><g transform="matrix(1, 0, 0, 1, 670, 153)"><g clip-path="url(#3bd8a10e99)"><g clip-path="url(#4a23a05568)"><g clip-path="url(#bde84481a1)"><path fill="#03e313" d="M 0.679688 0.953125 L 98.128906 0.953125 L 98.128906 62.417969 L 0.679688 62.417969 Z M 0.679688 0.953125 " fill-opacity="1" fill-rule="nonzero"/></g></g></g></g></g></g></g><g clip-path="url(#99fa9f34a5)"><path fill="#d9d9d9" d="M 784.703125 150.617188 L 971.355469 150.617188 L 971.355469 218.082031 L 784.703125 218.082031 Z M 784.703125 150.617188 " fill-opacity="1" fill-rule="nonzero"/></g><g clip-path="url(#53eb368c5e)"><path fill="#d9d9d9" d="M 980.527344 75.257812 L 1167.179688 75.257812 L 1167.179688 142.722656 L 980.527344 142.722656 Z M 980.527344 75.257812 " fill-opacity="1" fill-rule="nonzero"/></g><g clip-path="url(#d558efb957)"><g mask="url(#15d5fb3622)"><g transform="matrix(1, 0, 0, 1, 980, 150)"><g clip-path="url(#8f5e1e489d)"><g clip-path="url(#8d1d260ba7)"><path fill="#03e313" d="M 0.527344 0.617188 L 187.179688 0.617188 L 187.179688 68.082031 L 0.527344 68.082031 Z M 0.527344 0.617188 " fill-opacity="1" fill-rule="nonzero"/></g></g></g></g></g><g fill="#808080" fill-opacity="1"><g transform="translate(1042.336474, 194.095766)"><g><path d="M 14.5625 0 L 5.578125 -15.890625 C 5.753906 -14.347656 5.84375 -13.109375 5.84375 -12.171875 L 5.84375 0 L 2 0 L 2 -20.625 L 6.9375 -20.625 L 16.0625 -4.609375 C 15.882812 -6.085938 15.796875 -7.429688 15.796875 -8.640625 L 15.796875 -20.625 L 19.640625 -20.625 L 19.640625 0 Z M 14.5625 0 "/></g></g><g transform="translate(1063.990228, 194.095766)"><g><path d="M 2.09375 -18.703125 L 2.09375 -21.734375 L 6.203125 -21.734375 L 6.203125 -18.703125 Z M 2.09375 0 L 2.09375 -15.84375 L 6.203125 -15.84375 L 6.203125 0 Z M 2.09375 0 "/></g></g><g transform="translate(1072.320848, 194.095766)"><g><path d="M 8.703125 0.296875 C 6.296875 0.296875 4.4375 -0.414062 3.125 -1.84375 C 1.820312 -3.28125 1.171875 -5.273438 1.171875 -7.828125 C 1.171875 -10.441406 1.828125 -12.476562 3.140625 -13.9375 C 4.460938 -15.40625 6.332031 -16.140625 8.75 -16.140625 C 10.613281 -16.140625 12.15625 -15.671875 13.375 -14.734375 C 14.601562 -13.796875 15.375 -12.5 15.6875 -10.84375 L 11.53125 -10.640625 C 11.414062 -11.453125 11.125 -12.097656 10.65625 -12.578125 C 10.1875 -13.066406 9.523438 -13.3125 8.671875 -13.3125 C 6.546875 -13.3125 5.484375 -11.539062 5.484375 -8 C 5.484375 -4.34375 6.5625 -2.515625 8.71875 -2.515625 C 9.5 -2.515625 10.15625 -2.757812 10.6875 -3.25 C 11.21875 -3.75 11.546875 -4.488281 11.671875 -5.46875 L 15.796875 -5.265625 C 15.648438 -4.179688 15.257812 -3.210938 14.625 -2.359375 C 14 -1.515625 13.171875 -0.859375 12.140625 -0.390625 C 11.117188 0.0664062 9.972656 0.296875 8.703125 0.296875 Z M 8.703125 0.296875 "/></g></g><g transform="translate(1088.996727, 194.095766)"><g><path d="M 8.578125 0.296875 C 6.191406 0.296875 4.359375 -0.40625 3.078125 -1.8125 C 1.804688 -3.226562 1.171875 -5.289062 1.171875 -8 C 1.171875 -10.613281 1.816406 -12.625 3.109375 -14.03125 C 4.410156 -15.4375 6.253906 -16.140625 8.640625 -16.140625 C 10.910156 -16.140625 12.644531 -15.382812 13.84375 -13.875 C 15.050781 -12.363281 15.65625 -10.15625 15.65625 -7.25 L 15.65625 -7.125 L 5.484375 -7.125 C 5.484375 -5.582031 5.769531 -4.414062 6.34375 -3.625 C 6.914062 -2.84375 7.726562 -2.453125 8.78125 -2.453125 C 10.238281 -2.453125 11.15625 -3.082031 11.53125 -4.34375 L 15.421875 -4.015625 C 14.296875 -1.140625 12.015625 0.296875 8.578125 0.296875 Z M 8.578125 -13.546875 C 7.609375 -13.546875 6.863281 -13.207031 6.34375 -12.53125 C 5.820312 -11.851562 5.546875 -10.910156 5.515625 -9.703125 L 11.671875 -9.703125 C 11.585938 -10.984375 11.273438 -11.941406 10.734375 -12.578125 C 10.203125 -13.222656 9.484375 -13.546875 8.578125 -13.546875 Z M 8.578125 -13.546875 "/></g></g></g><g clip-path="url(#b80ae82e11)"><path fill="#d9d9d9" d="M 784.703125 225.980469 L 971.355469 225.980469 L 971.355469 293.445312 L 784.703125 293.445312 Z M 784.703125 225.980469 " fill-opacity="1" fill-rule="nonzero"/></g><g clip-path="url(#769a42b6c6)"><path fill="#f2f2f2" d="M 980.527344 225.980469 L 1167.179688 225.980469 L 1167.179688 293.445312 L 980.527344 293.445312 Z M 980.527344 225.980469 " fill-opacity="1" fill-rule="nonzero"/></g><g clip-path="url(#89814bfcd0)"><path fill="#d9d9d9" d="M 1176.355469 75.257812 L 1363.007812 75.257812 L 1363.007812 142.722656 L 1176.355469 142.722656 Z M 1176.355469 75.257812 " fill-opacity="1" fill-rule="nonzero"/></g><g clip-path="url(#0826453bf7)"><g mask="url(#d357c9fe38)"><g transform="matrix(1, 0, 0, 1, 1176, 150)"><g clip-path="url(#7398b245e0)"><g clip-path="url(#0786206488)"><path fill="#03e313" d="M 0.355469 0.617188 L 187.007812 0.617188 L 187.007812 68.082031 L 0.355469 68.082031 Z M 0.355469 0.617188 " fill-opacity="1" fill-rule="nonzero"/></g></g></g></g></g><g fill="#808080" fill-opacity="1"><g transform="translate(1237.330374, 194.095766)"><g><path d="M 20.390625 -10.46875 C 20.390625 -8.34375 19.972656 -6.484375 19.140625 -4.890625 C 18.304688 -3.304688 17.125 -2.09375 15.59375 -1.25 C 14.070312 -0.414062 12.320312 0 10.34375 0 L 2 0 L 2 -20.625 L 9.46875 -20.625 C 12.945312 -20.625 15.632812 -19.75 17.53125 -18 C 19.4375 -16.25 20.390625 -13.738281 20.390625 -10.46875 Z M 16.046875 -10.46875 C 16.046875 -12.6875 15.46875 -14.378906 14.3125 -15.546875 C 13.164062 -16.710938 11.523438 -17.296875 9.390625 -17.296875 L 6.328125 -17.296875 L 6.328125 -3.34375 L 9.984375 -3.34375 C 11.835938 -3.34375 13.3125 -3.976562 14.40625 -5.25 C 15.5 -6.53125 16.046875 -8.269531 16.046875 -10.46875 Z M 16.046875 -10.46875 "/></g></g><g transform="translate(1258.984129, 194.095766)"><g><path d="M 5.75 0.296875 C 4.21875 0.296875 3.019531 -0.117188 2.15625 -0.953125 C 1.300781 -1.785156 0.875 -2.960938 0.875 -4.484375 C 0.875 -6.117188 1.40625 -7.363281 2.46875 -8.21875 C 3.539062 -9.082031 5.09375 -9.523438 7.125 -9.546875 L 10.546875 -9.609375 L 10.546875 -10.40625 C 10.546875 -11.445312 10.363281 -12.21875 10 -12.71875 C 9.632812 -13.21875 9.046875 -13.46875 8.234375 -13.46875 C 7.472656 -13.46875 6.910156 -13.296875 6.546875 -12.953125 C 6.191406 -12.609375 5.972656 -12.035156 5.890625 -11.234375 L 1.59375 -11.4375 C 1.851562 -12.976562 2.554688 -14.144531 3.703125 -14.9375 C 4.859375 -15.738281 6.425781 -16.140625 8.40625 -16.140625 C 10.40625 -16.140625 11.945312 -15.644531 13.03125 -14.65625 C 14.113281 -13.664062 14.65625 -12.265625 14.65625 -10.453125 L 14.65625 -4.6875 C 14.65625 -3.800781 14.753906 -3.1875 14.953125 -2.84375 C 15.148438 -2.507812 15.484375 -2.34375 15.953125 -2.34375 C 16.265625 -2.34375 16.566406 -2.375 16.859375 -2.4375 L 16.859375 -0.203125 C 16.617188 -0.140625 16.398438 -0.0820312 16.203125 -0.03125 C 16.015625 0.0078125 15.820312 0.0390625 15.625 0.0625 C 15.425781 0.09375 15.21875 0.117188 15 0.140625 C 14.78125 0.160156 14.523438 0.171875 14.234375 0.171875 C 13.191406 0.171875 12.425781 -0.078125 11.9375 -0.578125 C 11.445312 -1.085938 11.148438 -1.835938 11.046875 -2.828125 L 10.96875 -2.828125 C 9.8125 -0.742188 8.070312 0.296875 5.75 0.296875 Z M 10.546875 -7.328125 L 8.4375 -7.3125 C 7.476562 -7.269531 6.796875 -7.160156 6.390625 -6.984375 C 5.992188 -6.816406 5.691406 -6.554688 5.484375 -6.203125 C 5.273438 -5.859375 5.171875 -5.390625 5.171875 -4.796875 C 5.171875 -4.046875 5.34375 -3.488281 5.6875 -3.125 C 6.03125 -2.757812 6.492188 -2.578125 7.078125 -2.578125 C 7.710938 -2.578125 8.296875 -2.75 8.828125 -3.09375 C 9.367188 -3.445312 9.789062 -3.929688 10.09375 -4.546875 C 10.394531 -5.171875 10.546875 -5.832031 10.546875 -6.53125 Z M 10.546875 -7.328125 "/></g></g><g transform="translate(1275.660008, 194.095766)"><g><path d="M 4.140625 6.21875 C 3.160156 6.21875 2.296875 6.15625 1.546875 6.03125 L 1.546875 3.109375 C 2.066406 3.179688 2.539062 3.21875 2.96875 3.21875 C 3.550781 3.21875 4.035156 3.125 4.421875 2.9375 C 4.804688 2.757812 5.148438 2.453125 5.453125 2.015625 C 5.765625 1.585938 6.113281 0.863281 6.5 -0.15625 L 0.234375 -15.84375 L 4.578125 -15.84375 L 7.078125 -8.421875 C 7.460938 -7.359375 7.953125 -5.726562 8.546875 -3.53125 L 8.921875 -4.921875 L 9.875 -8.359375 L 12.203125 -15.84375 L 16.515625 -15.84375 L 10.25 0.828125 C 9.40625 2.859375 8.53125 4.265625 7.625 5.046875 C 6.726562 5.828125 5.566406 6.21875 4.140625 6.21875 Z M 4.140625 6.21875 "/></g></g><g transform="translate(1292.335888, 194.095766)"><g><path d="M 6.65625 -6.234375 L 3.296875 -6.234375 L 2.828125 -20.625 L 7.125 -20.625 Z M 2.828125 0 L 2.828125 -3.953125 L 7.046875 -3.953125 L 7.046875 0 Z M 2.828125 0 "/></g></g></g><g clip-path="url(#f8acacf684)"><path fill="#f2f2f2" d="M 1176.355469 225.980469 L 1363.007812 225.980469 L 1363.007812 293.445312 L 1176.355469 293.445312 Z M 1176.355469 225.980469 " fill-opacity="1" fill-rule="nonzero"/></g><g clip-path="url(#50bff93e66)"><g mask="url(#d332d51a0f)"><g transform="matrix(1, 0, 0, 1, 271, 153)"><g clip-path="url(#de9e9d76b2)"><g clip-path="url(#105347144c)"><path fill="#ffc000" d="M 0.160156 0.953125 L 186.8125 0.953125 L 186.8125 68.417969 L 0.160156 68.417969 Z M 0.160156 0.953125 " fill-opacity="1" fill-rule="nonzero"/></g></g></g></g></g><g fill="#808080" fill-opacity="1"><g transform="translate(274.157876, 197.42923)"><g/></g></g><g fill="#808080" fill-opacity="1"><g transform="translate(282.485567, 197.42923)"><g><path d="M 14.5625 0 L 5.578125 -15.890625 C 5.753906 -14.347656 5.84375 -13.109375 5.84375 -12.171875 L 5.84375 0 L 2 0 L 2 -20.625 L 6.9375 -20.625 L 16.0625 -4.609375 C 15.882812 -6.085938 15.796875 -7.429688 15.796875 -8.640625 L 15.796875 -20.625 L 19.640625 -20.625 L 19.640625 0 Z M 14.5625 0 "/></g></g><g transform="translate(304.139321, 197.42923)"><g><path d="M 2.09375 -18.703125 L 2.09375 -21.734375 L 6.203125 -21.734375 L 6.203125 -18.703125 Z M 2.09375 0 L 2.09375 -15.84375 L 6.203125 -15.84375 L 6.203125 0 Z M 2.09375 0 "/></g></g><g transform="translate(312.469941, 197.42923)"><g><path d="M 8.703125 0.296875 C 6.296875 0.296875 4.4375 -0.414062 3.125 -1.84375 C 1.820312 -3.28125 1.171875 -5.273438 1.171875 -7.828125 C 1.171875 -10.441406 1.828125 -12.476562 3.140625 -13.9375 C 4.460938 -15.40625 6.332031 -16.140625 8.75 -16.140625 C 10.613281 -16.140625 12.15625 -15.671875 13.375 -14.734375 C 14.601562 -13.796875 15.375 -12.5 15.6875 -10.84375 L 11.53125 -10.640625 C 11.414062 -11.453125 11.125 -12.097656 10.65625 -12.578125 C 10.1875 -13.066406 9.523438 -13.3125 8.671875 -13.3125 C 6.546875 -13.3125 5.484375 -11.539062 5.484375 -8 C 5.484375 -4.34375 6.5625 -2.515625 8.71875 -2.515625 C 9.5 -2.515625 10.15625 -2.757812 10.6875 -3.25 C 11.21875 -3.75 11.546875 -4.488281 11.671875 -5.46875 L 15.796875 -5.265625 C 15.648438 -4.179688 15.257812 -3.210938 14.625 -2.359375 C 14 -1.515625 13.171875 -0.859375 12.140625 -0.390625 C 11.117188 0.0664062 9.972656 0.296875 8.703125 0.296875 Z M 8.703125 0.296875 "/></g></g><g transform="translate(329.14582, 197.42923)"><g><path d="M 8.578125 0.296875 C 6.191406 0.296875 4.359375 -0.40625 3.078125 -1.8125 C 1.804688 -3.226562 1.171875 -5.289062 1.171875 -8 C 1.171875 -10.613281 1.816406 -12.625 3.109375 -14.03125 C 4.410156 -15.4375 6.253906 -16.140625 8.640625 -16.140625 C 10.910156 -16.140625 12.644531 -15.382812 13.84375 -13.875 C 15.050781 -12.363281 15.65625 -10.15625 15.65625 -7.25 L 15.65625 -7.125 L 5.484375 -7.125 C 5.484375 -5.582031 5.769531 -4.414062 6.34375 -3.625 C 6.914062 -2.84375 7.726562 -2.453125 8.78125 -2.453125 C 10.238281 -2.453125 11.15625 -3.082031 11.53125 -4.34375 L 15.421875 -4.015625 C 14.296875 -1.140625 12.015625 0.296875 8.578125 0.296875 Z M 8.578125 -13.546875 C 7.609375 -13.546875 6.863281 -13.207031 6.34375 -12.53125 C 5.820312 -11.851562 5.546875 -10.910156 5.515625 -9.703125 L 11.671875 -9.703125 C 11.585938 -10.984375 11.273438 -11.941406 10.734375 -12.578125 C 10.203125 -13.222656 9.484375 -13.546875 8.578125 -13.546875 Z M 8.578125 -13.546875 "/></g></g></g><g clip-path="url(#5cd9b908eb)"><g clip-path="url(#50a376a06b)"><path fill="#a6a6a6" d="M 353.03125 169.476562 L 450.480469 169.476562 L 450.480469 205.457031 L 353.03125 205.457031 Z M 353.03125 169.476562 " fill-opacity="1" fill-rule="nonzero"/></g></g><g fill="#a6a6a6" fill-opacity="1"><g transform="translate(363.336791, 197.212721)"><g><path d="M 16.765625 -5.125 C 16.765625 -3.414062 16.09375 -2.085938 14.75 -1.140625 C 13.40625 -0.203125 11.519531 0.265625 9.09375 0.265625 C 4.570312 0.265625 1.945312 -1.304688 1.21875 -4.453125 L 3.65625 -4.9375 C 3.9375 -3.820312 4.535156 -3.003906 5.453125 -2.484375 C 6.367188 -1.960938 7.613281 -1.703125 9.1875 -1.703125 C 10.8125 -1.703125 12.0625 -1.976562 12.9375 -2.53125 C 13.820312 -3.09375 14.265625 -3.914062 14.265625 -5 C 14.265625 -5.601562 14.125 -6.09375 13.84375 -6.46875 C 13.570312 -6.84375 13.1875 -7.15625 12.6875 -7.40625 C 12.1875 -7.65625 11.585938 -7.863281 10.890625 -8.03125 C 10.203125 -8.195312 9.4375 -8.375 8.59375 -8.5625 C 7.125 -8.882812 6.007812 -9.207031 5.25 -9.53125 C 4.488281 -9.863281 3.890625 -10.226562 3.453125 -10.625 C 3.015625 -11.019531 2.675781 -11.484375 2.4375 -12.015625 C 2.207031 -12.554688 2.09375 -13.175781 2.09375 -13.875 C 2.09375 -15.46875 2.703125 -16.691406 3.921875 -17.546875 C 5.140625 -18.410156 6.878906 -18.84375 9.140625 -18.84375 C 11.253906 -18.84375 12.867188 -18.519531 13.984375 -17.875 C 15.097656 -17.226562 15.878906 -16.128906 16.328125 -14.578125 L 13.84375 -14.140625 C 13.570312 -15.117188 13.050781 -15.828125 12.28125 -16.265625 C 11.519531 -16.710938 10.46875 -16.9375 9.125 -16.9375 C 7.632812 -16.9375 6.5 -16.691406 5.71875 -16.203125 C 4.9375 -15.710938 4.546875 -14.976562 4.546875 -14 C 4.546875 -13.4375 4.695312 -12.96875 5 -12.59375 C 5.300781 -12.21875 5.738281 -11.898438 6.3125 -11.640625 C 6.882812 -11.378906 8.019531 -11.0625 9.71875 -10.6875 C 10.289062 -10.550781 10.859375 -10.414062 11.421875 -10.28125 C 11.992188 -10.144531 12.535156 -9.984375 13.046875 -9.796875 C 13.566406 -9.609375 14.050781 -9.382812 14.5 -9.125 C 14.957031 -8.875 15.351562 -8.5625 15.6875 -8.1875 C 16.019531 -7.820312 16.28125 -7.390625 16.46875 -6.890625 C 16.664062 -6.390625 16.765625 -5.800781 16.765625 -5.125 Z M 16.765625 -5.125 "/></g></g><g transform="translate(381.3362, 197.212721)"><g><path d="M 13.875 -7.1875 C 13.875 -2.21875 12.125 0.265625 8.625 0.265625 C 6.4375 0.265625 4.960938 -0.5625 4.203125 -2.21875 L 4.140625 -2.21875 C 4.171875 -2.144531 4.1875 -1.394531 4.1875 0.03125 L 4.1875 5.59375 L 1.8125 5.59375 L 1.8125 -11.34375 C 1.8125 -12.8125 1.785156 -13.78125 1.734375 -14.25 L 4.03125 -14.25 C 4.039062 -14.21875 4.050781 -14.09375 4.0625 -13.875 C 4.082031 -13.664062 4.101562 -13.335938 4.125 -12.890625 C 4.144531 -12.441406 4.15625 -12.132812 4.15625 -11.96875 L 4.21875 -11.96875 C 4.632812 -12.84375 5.191406 -13.484375 5.890625 -13.890625 C 6.585938 -14.296875 7.5 -14.5 8.625 -14.5 C 10.382812 -14.5 11.695312 -13.910156 12.5625 -12.734375 C 13.4375 -11.554688 13.875 -9.707031 13.875 -7.1875 Z M 11.390625 -7.140625 C 11.390625 -9.128906 11.117188 -10.546875 10.578125 -11.390625 C 10.046875 -12.242188 9.195312 -12.671875 8.03125 -12.671875 C 7.082031 -12.671875 6.34375 -12.472656 5.8125 -12.078125 C 5.28125 -11.679688 4.875 -11.0625 4.59375 -10.21875 C 4.320312 -9.382812 4.1875 -8.296875 4.1875 -6.953125 C 4.1875 -5.085938 4.484375 -3.707031 5.078125 -2.8125 C 5.679688 -1.925781 6.65625 -1.484375 8 -1.484375 C 9.175781 -1.484375 10.035156 -1.914062 10.578125 -2.78125 C 11.117188 -3.644531 11.390625 -5.097656 11.390625 -7.140625 Z M 11.390625 -7.140625 "/></g></g><g transform="translate(396.344491, 197.212721)"><g><path d="M 5.453125 0.265625 C 4.023438 0.265625 2.945312 -0.109375 2.21875 -0.859375 C 1.5 -1.617188 1.140625 -2.660156 1.140625 -3.984375 C 1.140625 -5.453125 1.625 -6.582031 2.59375 -7.375 C 3.570312 -8.164062 5.140625 -8.585938 7.296875 -8.640625 L 10.5 -8.703125 L 10.5 -9.46875 C 10.5 -10.632812 10.253906 -11.46875 9.765625 -11.96875 C 9.273438 -12.46875 8.5 -12.71875 7.4375 -12.71875 C 6.375 -12.71875 5.601562 -12.535156 5.125 -12.171875 C 4.644531 -11.816406 4.351562 -11.242188 4.25 -10.453125 L 1.78125 -10.671875 C 2.1875 -13.234375 4.09375 -14.515625 7.5 -14.515625 C 9.289062 -14.515625 10.640625 -14.101562 11.546875 -13.28125 C 12.453125 -12.46875 12.90625 -11.28125 12.90625 -9.71875 L 12.90625 -3.578125 C 12.90625 -2.878906 12.992188 -2.351562 13.171875 -2 C 13.359375 -1.644531 13.710938 -1.46875 14.234375 -1.46875 C 14.460938 -1.46875 14.71875 -1.5 15 -1.5625 L 15 -0.078125 C 14.40625 0.0546875 13.796875 0.125 13.171875 0.125 C 12.296875 0.125 11.65625 -0.101562 11.25 -0.5625 C 10.851562 -1.019531 10.628906 -1.742188 10.578125 -2.734375 L 10.5 -2.734375 C 9.894531 -1.640625 9.191406 -0.863281 8.390625 -0.40625 C 7.585938 0.0390625 6.609375 0.265625 5.453125 0.265625 Z M 6 -1.515625 C 6.863281 -1.515625 7.632812 -1.710938 8.3125 -2.109375 C 8.988281 -2.503906 9.519531 -3.046875 9.90625 -3.734375 C 10.300781 -4.421875 10.5 -5.128906 10.5 -5.859375 L 10.5 -7.03125 L 7.90625 -6.984375 C 6.789062 -6.960938 5.941406 -6.847656 5.359375 -6.640625 C 4.785156 -6.429688 4.34375 -6.101562 4.03125 -5.65625 C 3.726562 -5.21875 3.578125 -4.644531 3.578125 -3.9375 C 3.578125 -3.164062 3.785156 -2.566406 4.203125 -2.140625 C 4.617188 -1.722656 5.21875 -1.515625 6 -1.515625 Z M 6 -1.515625 "/></g></g><g transform="translate(411.352783, 197.212721)"><g><path d="M 3.625 -7.1875 C 3.625 -5.289062 3.921875 -3.882812 4.515625 -2.96875 C 5.117188 -2.0625 6.019531 -1.609375 7.21875 -1.609375 C 8.0625 -1.609375 8.765625 -1.835938 9.328125 -2.296875 C 9.898438 -2.753906 10.25 -3.457031 10.375 -4.40625 L 12.78125 -4.25 C 12.59375 -2.875 12.003906 -1.773438 11.015625 -0.953125 C 10.035156 -0.140625 8.789062 0.265625 7.28125 0.265625 C 5.289062 0.265625 3.769531 -0.363281 2.71875 -1.625 C 1.664062 -2.882812 1.140625 -4.722656 1.140625 -7.140625 C 1.140625 -9.535156 1.664062 -11.363281 2.71875 -12.625 C 3.78125 -13.882812 5.296875 -14.515625 7.265625 -14.515625 C 8.722656 -14.515625 9.929688 -14.132812 10.890625 -13.375 C 11.847656 -12.625 12.453125 -11.585938 12.703125 -10.265625 L 10.265625 -10.078125 C 10.140625 -10.867188 9.828125 -11.492188 9.328125 -11.953125 C 8.828125 -12.421875 8.113281 -12.65625 7.1875 -12.65625 C 5.9375 -12.65625 5.03125 -12.238281 4.46875 -11.40625 C 3.90625 -10.570312 3.625 -9.164062 3.625 -7.1875 Z M 3.625 -7.1875 "/></g></g><g transform="translate(424.845751, 197.212721)"><g><path d="M 3.640625 -6.625 C 3.640625 -4.988281 3.976562 -3.726562 4.65625 -2.84375 C 5.332031 -1.957031 6.316406 -1.515625 7.609375 -1.515625 C 8.640625 -1.515625 9.460938 -1.71875 10.078125 -2.125 C 10.703125 -2.539062 11.125 -3.066406 11.34375 -3.703125 L 13.421875 -3.109375 C 12.566406 -0.859375 10.628906 0.265625 7.609375 0.265625 C 5.503906 0.265625 3.898438 -0.359375 2.796875 -1.609375 C 1.691406 -2.867188 1.140625 -4.738281 1.140625 -7.21875 C 1.140625 -9.570312 1.691406 -11.375 2.796875 -12.625 C 3.898438 -13.882812 5.476562 -14.515625 7.53125 -14.515625 C 11.71875 -14.515625 13.8125 -11.988281 13.8125 -6.9375 L 13.8125 -6.625 Z M 11.359375 -8.453125 C 11.222656 -9.953125 10.835938 -11.046875 10.203125 -11.734375 C 9.578125 -12.421875 8.671875 -12.765625 7.484375 -12.765625 C 6.335938 -12.765625 5.425781 -12.378906 4.75 -11.609375 C 4.070312 -10.847656 3.707031 -9.796875 3.65625 -8.453125 Z M 11.359375 -8.453125 "/></g></g></g></svg>