<svg xmlns="http://www.w3.org/2000/svg" xmlns:xlink="http://www.w3.org/1999/xlink" width="1919" zoomAndPan="magnify" viewBox="0 0 1439.25 371.999986" height="496" preserveAspectRatio="xMidYMid meet" version="1.0"><defs><filter x="0%" y="0%" width="100%" height="100%" id="38d4e971bd"><feColorMatrix values="0 0 0 0 1 0 0 0 0 1 0 0 0 0 1 0 0 0 1 0" color-interpolation-filters="sRGB"/></filter><g/><clipPath id="f7d5da3427"><path d="M 75.332031 153.953125 L 262 153.953125 L 262 221.25 L 75.332031 221.25 Z M 75.332031 153.953125 " clip-rule="nonzero"/></clipPath><clipPath id="768cbcc514"><path d="M 271.160156 78.589844 L 458 78.589844 L 458 145.890625 L 271.160156 145.890625 Z M 271.160156 78.589844 " clip-rule="nonzero"/></clipPath><clipPath id="8b8411f620"><path d="M 75.332031 229.3125 L 262 229.3125 L 262 296.613281 L 75.332031 296.613281 Z M 75.332031 229.3125 " clip-rule="nonzero"/></clipPath><clipPath id="b80ffb36f5"><path d="M 271.160156 229.3125 L 458 229.3125 L 458 296.613281 L 271.160156 296.613281 Z M 271.160156 229.3125 " clip-rule="nonzero"/></clipPath><clipPath id="10ed8e316f"><path d="M 466.984375 78.589844 L 653.929688 78.589844 L 653.929688 145.890625 L 466.984375 145.890625 Z M 466.984375 78.589844 " clip-rule="nonzero"/></clipPath><clipPath id="0ec4983835"><path d="M 466.984375 153.953125 L 653.929688 153.953125 L 653.929688 221.25 L 466.984375 221.25 Z M 466.984375 153.953125 " clip-rule="nonzero"/></clipPath><mask id="411fd7b2f4"><g filter="url(#38d4e971bd)"><rect x="-143.925" width="1727.1" fill="#000000" y="-37.199999" height="446.399983" fill-opacity="0.498"/></g></mask><clipPath id="98a74286dd"><path d="M 0.984375 0.953125 L 187.929688 0.953125 L 187.929688 68.25 L 0.984375 68.25 Z M 0.984375 0.953125 " clip-rule="nonzero"/></clipPath><clipPath id="297aa797e6"><rect x="0" width="188" y="0" height="69"/></clipPath><clipPath id="9c16268609"><path d="M 466.984375 229.3125 L 653.929688 229.3125 L 653.929688 296.613281 L 466.984375 296.613281 Z M 466.984375 229.3125 " clip-rule="nonzero"/></clipPath><clipPath id="787f75583d"><path d="M 670.679688 153.953125 L 768.878906 153.953125 L 768.878906 216 L 670.679688 216 Z M 670.679688 153.953125 " clip-rule="nonzero"/></clipPath><clipPath id="1067745504"><path d="M 670.679688 169.394531 L 737.554688 169.394531 L 737.554688 153.953125 L 768.4375 184.835938 L 737.554688 215.71875 L 737.554688 200.277344 L 670.679688 200.277344 L 670.679688 169.394531 " clip-rule="nonzero"/></clipPath><mask id="60357a3713"><g filter="url(#38d4e971bd)"><rect x="-143.925" width="1727.1" fill="#000000" y="-37.199999" height="446.399983" fill-opacity="0.4"/></g></mask><clipPath id="5d3d7c8ad3"><path d="M 0.679688 0.953125 L 98.558594 0.953125 L 98.558594 62.746094 L 0.679688 62.746094 Z M 0.679688 0.953125 " clip-rule="nonzero"/></clipPath><clipPath id="7997396a77"><path d="M 0.679688 16.394531 L 67.554688 16.394531 L 67.554688 0.953125 L 98.4375 31.835938 L 67.554688 62.71875 L 67.554688 47.277344 L 0.679688 47.277344 L 0.679688 16.394531 " clip-rule="nonzero"/></clipPath><clipPath id="8b1576b499"><rect x="0" width="99" y="0" height="63"/></clipPath><clipPath id="9f80e0df67"><path d="M 784.703125 150.617188 L 971.648438 150.617188 L 971.648438 217.917969 L 784.703125 217.917969 Z M 784.703125 150.617188 " clip-rule="nonzero"/></clipPath><clipPath id="ae5393a049"><path d="M 980.527344 75.257812 L 1167.472656 75.257812 L 1167.472656 142.558594 L 980.527344 142.558594 Z M 980.527344 75.257812 " clip-rule="nonzero"/></clipPath><clipPath id="b177e255ff"><path d="M 980.527344 150.617188 L 1167.472656 150.617188 L 1167.472656 217.917969 L 980.527344 217.917969 Z M 980.527344 150.617188 " clip-rule="nonzero"/></clipPath><mask id="8566af0152"><g filter="url(#38d4e971bd)"><rect x="-143.925" width="1727.1" fill="#000000" y="-37.199999" height="446.399983" fill-opacity="0.498"/></g></mask><clipPath id="f157910b88"><path d="M 0.527344 0.617188 L 187.472656 0.617188 L 187.472656 67.917969 L 0.527344 67.917969 Z M 0.527344 0.617188 " clip-rule="nonzero"/></clipPath><clipPath id="d8ccf84c27"><rect x="0" width="188" y="0" height="68"/></clipPath><clipPath id="f246fd98ac"><path d="M 784.703125 225.980469 L 971.648438 225.980469 L 971.648438 293.277344 L 784.703125 293.277344 Z M 784.703125 225.980469 " clip-rule="nonzero"/></clipPath><clipPath id="e31e9415e4"><path d="M 980.527344 225.980469 L 1167.472656 225.980469 L 1167.472656 293.277344 L 980.527344 293.277344 Z M 980.527344 225.980469 " clip-rule="nonzero"/></clipPath><clipPath id="253ccb18f8"><path d="M 1176.355469 75.257812 L 1363.300781 75.257812 L 1363.300781 142.558594 L 1176.355469 142.558594 Z M 1176.355469 75.257812 " clip-rule="nonzero"/></clipPath><clipPath id="b4cc4f644c"><path d="M 1176.355469 150.617188 L 1363.300781 150.617188 L 1363.300781 217.917969 L 1176.355469 217.917969 Z M 1176.355469 150.617188 " clip-rule="nonzero"/></clipPath><mask id="f29a63b2ef"><g filter="url(#38d4e971bd)"><rect x="-143.925" width="1727.1" fill="#000000" y="-37.199999" height="446.399983" fill-opacity="0.498"/></g></mask><clipPath id="6d21212643"><path d="M 0.355469 0.617188 L 187.300781 0.617188 L 187.300781 67.917969 L 0.355469 67.917969 Z M 0.355469 0.617188 " clip-rule="nonzero"/></clipPath><clipPath id="cedd50e12e"><rect x="0" width="188" y="0" height="68"/></clipPath><clipPath id="1d489abe3a"><path d="M 1176.355469 225.980469 L 1363.300781 225.980469 L 1363.300781 293.277344 L 1176.355469 293.277344 Z M 1176.355469 225.980469 " clip-rule="nonzero"/></clipPath><clipPath id="78b61c15ff"><path d="M 271.160156 153.953125 L 458.105469 153.953125 L 458.105469 221.25 L 271.160156 221.25 Z M 271.160156 153.953125 " clip-rule="nonzero"/></clipPath><mask id="e75c508258"><g filter="url(#38d4e971bd)"><rect x="-143.925" width="1727.1" fill="#000000" y="-37.199999" height="446.399983" fill-opacity="0.498"/></g></mask><clipPath id="d2d2a5e94f"><path d="M 0.160156 0.953125 L 187 0.953125 L 187 68.25 L 0.160156 68.25 Z M 0.160156 0.953125 " clip-rule="nonzero"/></clipPath><clipPath id="75701d501d"><rect x="0" width="188" y="0" height="69"/></clipPath></defs><g clip-path="url(#f7d5da3427)"><path fill="#d9d9d9" d="M 75.332031 153.953125 L 261.988281 153.953125 L 261.988281 221.417969 L 75.332031 221.417969 Z M 75.332031 153.953125 " fill-opacity="1" fill-rule="nonzero"/></g><g clip-path="url(#768cbcc514)"><path fill="#d9d9d9" d="M 271.160156 78.589844 L 457.8125 78.589844 L 457.8125 146.054688 L 271.160156 146.054688 Z M 271.160156 78.589844 " fill-opacity="1" fill-rule="nonzero"/></g><g clip-path="url(#8b8411f620)"><path fill="#d9d9d9" d="M 75.332031 229.3125 L 261.988281 229.3125 L 261.988281 296.777344 L 75.332031 296.777344 Z M 75.332031 229.3125 " fill-opacity="1" fill-rule="nonzero"/></g><g clip-path="url(#b80ffb36f5)"><path fill="#f2f2f2" d="M 271.160156 229.3125 L 457.8125 229.3125 L 457.8125 296.777344 L 271.160156 296.777344 Z M 271.160156 229.3125 " fill-opacity="1" fill-rule="nonzero"/></g><g clip-path="url(#10ed8e316f)"><path fill="#d9d9d9" d="M 466.984375 78.589844 L 653.636719 78.589844 L 653.636719 146.054688 L 466.984375 146.054688 Z M 466.984375 78.589844 " fill-opacity="1" fill-rule="nonzero"/></g><g clip-path="url(#0ec4983835)"><g mask="url(#411fd7b2f4)"><g transform="matrix(1, 0, 0, 1, 466, 153)"><g clip-path="url(#297aa797e6)"><g clip-path="url(#98a74286dd)"><path fill="#ffc000" d="M 0.984375 0.953125 L 187.636719 0.953125 L 187.636719 68.417969 L 0.984375 68.417969 Z M 0.984375 0.953125 " fill-opacity="1" fill-rule="nonzero"/></g></g></g></g></g><g fill="#808080" fill-opacity="1"><g transform="translate(522.936438, 197.42923)"><g><path d="M 1.046875 0 L 1.046875 -2.859375 C 1.578125 -4.035156 2.335938 -5.1875 3.328125 -6.3125 C 4.316406 -7.4375 5.566406 -8.609375 7.078125 -9.828125 C 8.515625 -10.992188 9.523438 -11.957031 10.109375 -12.71875 C 10.691406 -13.476562 10.984375 -14.226562 10.984375 -14.96875 C 10.984375 -16.757812 10.078125 -17.65625 8.265625 -17.65625 C 7.390625 -17.65625 6.71875 -17.414062 6.25 -16.9375 C 5.789062 -16.46875 5.492188 -15.757812 5.359375 -14.8125 L 1.21875 -15.046875 C 1.445312 -16.960938 2.160156 -18.421875 3.359375 -19.421875 C 4.554688 -20.429688 6.1875 -20.9375 8.25 -20.9375 C 10.46875 -20.9375 12.171875 -20.425781 13.359375 -19.40625 C 14.554688 -18.394531 15.15625 -16.972656 15.15625 -15.140625 C 15.15625 -14.171875 14.960938 -13.296875 14.578125 -12.515625 C 14.203125 -11.734375 13.710938 -11.015625 13.109375 -10.359375 C 12.515625 -9.703125 11.851562 -9.082031 11.125 -8.5 C 10.40625 -7.925781 9.703125 -7.363281 9.015625 -6.8125 C 8.335938 -6.269531 7.71875 -5.71875 7.15625 -5.15625 C 6.59375 -4.601562 6.175781 -4.007812 5.90625 -3.375 L 15.46875 -3.375 L 15.46875 0 Z M 1.046875 0 "/></g></g><g transform="translate(539.612318, 197.42923)"><g><path d="M 15.453125 -10.328125 C 15.453125 -6.835938 14.851562 -4.191406 13.65625 -2.390625 C 12.457031 -0.597656 10.660156 0.296875 8.265625 0.296875 C 3.546875 0.296875 1.1875 -3.242188 1.1875 -10.328125 C 1.1875 -12.796875 1.441406 -14.8125 1.953125 -16.375 C 2.472656 -17.9375 3.25 -19.085938 4.28125 -19.828125 C 5.320312 -20.566406 6.691406 -20.9375 8.390625 -20.9375 C 10.828125 -20.9375 12.613281 -20.050781 13.75 -18.28125 C 14.882812 -16.519531 15.453125 -13.867188 15.453125 -10.328125 Z M 11.3125 -10.328125 C 11.3125 -12.222656 11.21875 -13.695312 11.03125 -14.75 C 10.851562 -15.8125 10.554688 -16.570312 10.140625 -17.03125 C 9.734375 -17.488281 9.140625 -17.71875 8.359375 -17.71875 C 7.523438 -17.71875 6.894531 -17.484375 6.46875 -17.015625 C 6.050781 -16.554688 5.75 -15.800781 5.5625 -14.75 C 5.382812 -13.695312 5.296875 -12.222656 5.296875 -10.328125 C 5.296875 -8.441406 5.390625 -6.96875 5.578125 -5.90625 C 5.773438 -4.84375 6.078125 -4.082031 6.484375 -3.625 C 6.898438 -3.164062 7.503906 -2.9375 8.296875 -2.9375 C 9.078125 -2.9375 9.679688 -3.175781 10.109375 -3.65625 C 10.535156 -4.144531 10.84375 -4.921875 11.03125 -5.984375 C 11.21875 -7.046875 11.3125 -8.492188 11.3125 -10.328125 Z M 11.3125 -10.328125 "/></g></g><g transform="translate(556.288198, 197.42923)"><g/></g><g transform="translate(564.618817, 197.42923)"><g><path d="M 15.75 -5.8125 C 15.75 -3.875 15.109375 -2.367188 13.828125 -1.296875 C 12.554688 -0.234375 10.734375 0.296875 8.359375 0.296875 C 6.003906 0.296875 4.179688 -0.234375 2.890625 -1.296875 C 1.597656 -2.367188 0.953125 -3.863281 0.953125 -5.78125 C 0.953125 -7.101562 1.332031 -8.210938 2.09375 -9.109375 C 2.851562 -10.015625 3.875 -10.578125 5.15625 -10.796875 L 5.15625 -10.84375 C 4.039062 -11.09375 3.140625 -11.644531 2.453125 -12.5 C 1.773438 -13.363281 1.4375 -14.351562 1.4375 -15.46875 C 1.4375 -17.164062 2.03125 -18.5 3.21875 -19.46875 C 4.414062 -20.445312 6.109375 -20.9375 8.296875 -20.9375 C 10.535156 -20.9375 12.25 -20.457031 13.4375 -19.5 C 14.632812 -18.550781 15.234375 -17.203125 15.234375 -15.453125 C 15.234375 -14.328125 14.894531 -13.335938 14.21875 -12.484375 C 13.539062 -11.640625 12.632812 -11.101562 11.5 -10.875 L 11.5 -10.8125 C 12.820312 -10.601562 13.859375 -10.0625 14.609375 -9.1875 C 15.367188 -8.3125 15.75 -7.1875 15.75 -5.8125 Z M 11.015625 -15.21875 C 11.015625 -16.195312 10.785156 -16.910156 10.328125 -17.359375 C 9.878906 -17.816406 9.203125 -18.046875 8.296875 -18.046875 C 6.523438 -18.046875 5.640625 -17.101562 5.640625 -15.21875 C 5.640625 -13.25 6.535156 -12.265625 8.328125 -12.265625 C 9.222656 -12.265625 9.894531 -12.492188 10.34375 -12.953125 C 10.789062 -13.410156 11.015625 -14.164062 11.015625 -15.21875 Z M 11.5 -6.15625 C 11.5 -8.3125 10.421875 -9.390625 8.265625 -9.390625 C 7.273438 -9.390625 6.515625 -9.101562 5.984375 -8.53125 C 5.453125 -7.96875 5.1875 -7.15625 5.1875 -6.09375 C 5.1875 -4.882812 5.445312 -4 5.96875 -3.4375 C 6.5 -2.882812 7.304688 -2.609375 8.390625 -2.609375 C 9.453125 -2.609375 10.234375 -2.882812 10.734375 -3.4375 C 11.242188 -4 11.5 -4.90625 11.5 -6.15625 Z M 11.5 -6.15625 "/></g></g><g transform="translate(581.294697, 197.42923)"><g><path d="M 15.453125 -10.328125 C 15.453125 -6.835938 14.851562 -4.191406 13.65625 -2.390625 C 12.457031 -0.597656 10.660156 0.296875 8.265625 0.296875 C 3.546875 0.296875 1.1875 -3.242188 1.1875 -10.328125 C 1.1875 -12.796875 1.441406 -14.8125 1.953125 -16.375 C 2.472656 -17.9375 3.25 -19.085938 4.28125 -19.828125 C 5.320312 -20.566406 6.691406 -20.9375 8.390625 -20.9375 C 10.828125 -20.9375 12.613281 -20.050781 13.75 -18.28125 C 14.882812 -16.519531 15.453125 -13.867188 15.453125 -10.328125 Z M 11.3125 -10.328125 C 11.3125 -12.222656 11.21875 -13.695312 11.03125 -14.75 C 10.851562 -15.8125 10.554688 -16.570312 10.140625 -17.03125 C 9.734375 -17.488281 9.140625 -17.71875 8.359375 -17.71875 C 7.523438 -17.71875 6.894531 -17.484375 6.46875 -17.015625 C 6.050781 -16.554688 5.75 -15.800781 5.5625 -14.75 C 5.382812 -13.695312 5.296875 -12.222656 5.296875 -10.328125 C 5.296875 -8.441406 5.390625 -6.96875 5.578125 -5.90625 C 5.773438 -4.84375 6.078125 -4.082031 6.484375 -3.625 C 6.898438 -3.164062 7.503906 -2.9375 8.296875 -2.9375 C 9.078125 -2.9375 9.679688 -3.175781 10.109375 -3.65625 C 10.535156 -4.144531 10.84375 -4.921875 11.03125 -5.984375 C 11.21875 -7.046875 11.3125 -8.492188 11.3125 -10.328125 Z M 11.3125 -10.328125 "/></g></g></g><g clip-path="url(#9c16268609)"><path fill="#f2f2f2" d="M 466.984375 229.3125 L 653.636719 229.3125 L 653.636719 296.777344 L 466.984375 296.777344 Z M 466.984375 229.3125 " fill-opacity="1" fill-rule="nonzero"/></g><g clip-path="url(#787f75583d)"><g clip-path="url(#1067745504)"><g mask="url(#60357a3713)"><g transform="matrix(1, 0, 0, 1, 670, 153)"><g clip-path="url(#8b1576b499)"><g clip-path="url(#5d3d7c8ad3)"><g clip-path="url(#7997396a77)"><path fill="#03e313" d="M 0.679688 0.953125 L 98.128906 0.953125 L 98.128906 62.417969 L 0.679688 62.417969 Z M 0.679688 0.953125 " fill-opacity="1" fill-rule="nonzero"/></g></g></g></g></g></g></g><g clip-path="url(#9f80e0df67)"><path fill="#d9d9d9" d="M 784.703125 150.617188 L 971.355469 150.617188 L 971.355469 218.082031 L 784.703125 218.082031 Z M 784.703125 150.617188 " fill-opacity="1" fill-rule="nonzero"/></g><g clip-path="url(#ae5393a049)"><path fill="#d9d9d9" d="M 980.527344 75.257812 L 1167.179688 75.257812 L 1167.179688 142.722656 L 980.527344 142.722656 Z M 980.527344 75.257812 " fill-opacity="1" fill-rule="nonzero"/></g><g clip-path="url(#b177e255ff)"><g mask="url(#8566af0152)"><g transform="matrix(1, 0, 0, 1, 980, 150)"><g clip-path="url(#d8ccf84c27)"><g clip-path="url(#f157910b88)"><path fill="#03e313" d="M 0.527344 0.617188 L 187.179688 0.617188 L 187.179688 68.082031 L 0.527344 68.082031 Z M 0.527344 0.617188 " fill-opacity="1" fill-rule="nonzero"/></g></g></g></g></g><g fill="#808080" fill-opacity="1"><g transform="translate(1001.50619, 194.095766)"><g><path d="M 14.5625 0 L 5.578125 -15.890625 C 5.753906 -14.347656 5.84375 -13.109375 5.84375 -12.171875 L 5.84375 0 L 2 0 L 2 -20.625 L 6.9375 -20.625 L 16.0625 -4.609375 C 15.882812 -6.085938 15.796875 -7.429688 15.796875 -8.640625 L 15.796875 -20.625 L 19.640625 -20.625 L 19.640625 0 Z M 14.5625 0 "/></g></g><g transform="translate(1023.159944, 194.095766)"><g><path d="M 2.09375 -18.703125 L 2.09375 -21.734375 L 6.203125 -21.734375 L 6.203125 -18.703125 Z M 2.09375 0 L 2.09375 -15.84375 L 6.203125 -15.84375 L 6.203125 0 Z M 2.09375 0 "/></g></g><g transform="translate(1031.490564, 194.095766)"><g><path d="M 8.703125 0.296875 C 6.296875 0.296875 4.4375 -0.414062 3.125 -1.84375 C 1.820312 -3.28125 1.171875 -5.273438 1.171875 -7.828125 C 1.171875 -10.441406 1.828125 -12.476562 3.140625 -13.9375 C 4.460938 -15.40625 6.332031 -16.140625 8.75 -16.140625 C 10.613281 -16.140625 12.15625 -15.671875 13.375 -14.734375 C 14.601562 -13.796875 15.375 -12.5 15.6875 -10.84375 L 11.53125 -10.640625 C 11.414062 -11.453125 11.125 -12.097656 10.65625 -12.578125 C 10.1875 -13.066406 9.523438 -13.3125 8.671875 -13.3125 C 6.546875 -13.3125 5.484375 -11.539062 5.484375 -8 C 5.484375 -4.34375 6.5625 -2.515625 8.71875 -2.515625 C 9.5 -2.515625 10.15625 -2.757812 10.6875 -3.25 C 11.21875 -3.75 11.546875 -4.488281 11.671875 -5.46875 L 15.796875 -5.265625 C 15.648438 -4.179688 15.257812 -3.210938 14.625 -2.359375 C 14 -1.515625 13.171875 -0.859375 12.140625 -0.390625 C 11.117188 0.0664062 9.972656 0.296875 8.703125 0.296875 Z M 8.703125 0.296875 "/></g></g><g transform="translate(1048.166443, 194.095766)"><g><path d="M 8.578125 0.296875 C 6.191406 0.296875 4.359375 -0.40625 3.078125 -1.8125 C 1.804688 -3.226562 1.171875 -5.289062 1.171875 -8 C 1.171875 -10.613281 1.816406 -12.625 3.109375 -14.03125 C 4.410156 -15.4375 6.253906 -16.140625 8.640625 -16.140625 C 10.910156 -16.140625 12.644531 -15.382812 13.84375 -13.875 C 15.050781 -12.363281 15.65625 -10.15625 15.65625 -7.25 L 15.65625 -7.125 L 5.484375 -7.125 C 5.484375 -5.582031 5.769531 -4.414062 6.34375 -3.625 C 6.914062 -2.84375 7.726562 -2.453125 8.78125 -2.453125 C 10.238281 -2.453125 11.15625 -3.082031 11.53125 -4.34375 L 15.421875 -4.015625 C 14.296875 -1.140625 12.015625 0.296875 8.578125 0.296875 Z M 8.578125 -13.546875 C 7.609375 -13.546875 6.863281 -13.207031 6.34375 -12.53125 C 5.820312 -11.851562 5.546875 -10.910156 5.515625 -9.703125 L 11.671875 -9.703125 C 11.585938 -10.984375 11.273438 -11.941406 10.734375 -12.578125 C 10.203125 -13.222656 9.484375 -13.546875 8.578125 -13.546875 Z M 8.578125 -13.546875 "/></g></g><g transform="translate(1064.842323, 194.095766)"><g><path d="M 6.328125 -0.96875 C 6.328125 0.207031 6.203125 1.242188 5.953125 2.140625 C 5.703125 3.035156 5.300781 3.867188 4.75 4.640625 L 2.03125 4.640625 C 2.613281 3.953125 3.082031 3.191406 3.4375 2.359375 C 3.800781 1.523438 3.984375 0.738281 3.984375 0 L 2.09375 0 L 2.09375 -4.46875 L 6.328125 -4.46875 Z M 6.328125 -0.96875 "/></g></g><g transform="translate(1073.172942, 194.095766)"><g/></g><g transform="translate(1081.503562, 194.095766)"><g><path d="M 20.390625 -10.46875 C 20.390625 -8.34375 19.972656 -6.484375 19.140625 -4.890625 C 18.304688 -3.304688 17.125 -2.09375 15.59375 -1.25 C 14.070312 -0.414062 12.320312 0 10.34375 0 L 2 0 L 2 -20.625 L 9.46875 -20.625 C 12.945312 -20.625 15.632812 -19.75 17.53125 -18 C 19.4375 -16.25 20.390625 -13.738281 20.390625 -10.46875 Z M 16.046875 -10.46875 C 16.046875 -12.6875 15.46875 -14.378906 14.3125 -15.546875 C 13.164062 -16.710938 11.523438 -17.296875 9.390625 -17.296875 L 6.328125 -17.296875 L 6.328125 -3.34375 L 9.984375 -3.34375 C 11.835938 -3.34375 13.3125 -3.976562 14.40625 -5.25 C 15.5 -6.53125 16.046875 -8.269531 16.046875 -10.46875 Z M 16.046875 -10.46875 "/></g></g><g transform="translate(1103.157316, 194.095766)"><g><path d="M 5.75 0.296875 C 4.21875 0.296875 3.019531 -0.117188 2.15625 -0.953125 C 1.300781 -1.785156 0.875 -2.960938 0.875 -4.484375 C 0.875 -6.117188 1.40625 -7.363281 2.46875 -8.21875 C 3.539062 -9.082031 5.09375 -9.523438 7.125 -9.546875 L 10.546875 -9.609375 L 10.546875 -10.40625 C 10.546875 -11.445312 10.363281 -12.21875 10 -12.71875 C 9.632812 -13.21875 9.046875 -13.46875 8.234375 -13.46875 C 7.472656 -13.46875 6.910156 -13.296875 6.546875 -12.953125 C 6.191406 -12.609375 5.972656 -12.035156 5.890625 -11.234375 L 1.59375 -11.4375 C 1.851562 -12.976562 2.554688 -14.144531 3.703125 -14.9375 C 4.859375 -15.738281 6.425781 -16.140625 8.40625 -16.140625 C 10.40625 -16.140625 11.945312 -15.644531 13.03125 -14.65625 C 14.113281 -13.664062 14.65625 -12.265625 14.65625 -10.453125 L 14.65625 -4.6875 C 14.65625 -3.800781 14.753906 -3.1875 14.953125 -2.84375 C 15.148438 -2.507812 15.484375 -2.34375 15.953125 -2.34375 C 16.265625 -2.34375 16.566406 -2.375 16.859375 -2.4375 L 16.859375 -0.203125 C 16.617188 -0.140625 16.398438 -0.0820312 16.203125 -0.03125 C 16.015625 0.0078125 15.820312 0.0390625 15.625 0.0625 C 15.425781 0.09375 15.21875 0.117188 15 0.140625 C 14.78125 0.160156 14.523438 0.171875 14.234375 0.171875 C 13.191406 0.171875 12.425781 -0.078125 11.9375 -0.578125 C 11.445312 -1.085938 11.148438 -1.835938 11.046875 -2.828125 L 10.96875 -2.828125 C 9.8125 -0.742188 8.070312 0.296875 5.75 0.296875 Z M 10.546875 -7.328125 L 8.4375 -7.3125 C 7.476562 -7.269531 6.796875 -7.160156 6.390625 -6.984375 C 5.992188 -6.816406 5.691406 -6.554688 5.484375 -6.203125 C 5.273438 -5.859375 5.171875 -5.390625 5.171875 -4.796875 C 5.171875 -4.046875 5.34375 -3.488281 5.6875 -3.125 C 6.03125 -2.757812 6.492188 -2.578125 7.078125 -2.578125 C 7.710938 -2.578125 8.296875 -2.75 8.828125 -3.09375 C 9.367188 -3.445312 9.789062 -3.929688 10.09375 -4.546875 C 10.394531 -5.171875 10.546875 -5.832031 10.546875 -6.53125 Z M 10.546875 -7.328125 "/></g></g><g transform="translate(1119.833196, 194.095766)"><g><path d="M 4.140625 6.21875 C 3.160156 6.21875 2.296875 6.15625 1.546875 6.03125 L 1.546875 3.109375 C 2.066406 3.179688 2.539062 3.21875 2.96875 3.21875 C 3.550781 3.21875 4.035156 3.125 4.421875 2.9375 C 4.804688 2.757812 5.148438 2.453125 5.453125 2.015625 C 5.765625 1.585938 6.113281 0.863281 6.5 -0.15625 L 0.234375 -15.84375 L 4.578125 -15.84375 L 7.078125 -8.421875 C 7.460938 -7.359375 7.953125 -5.726562 8.546875 -3.53125 L 8.921875 -4.921875 L 9.875 -8.359375 L 12.203125 -15.84375 L 16.515625 -15.84375 L 10.25 0.828125 C 9.40625 2.859375 8.53125 4.265625 7.625 5.046875 C 6.726562 5.828125 5.566406 6.21875 4.140625 6.21875 Z M 4.140625 6.21875 "/></g></g><g transform="translate(1136.509075, 194.095766)"><g><path d="M 6.65625 -6.234375 L 3.296875 -6.234375 L 2.828125 -20.625 L 7.125 -20.625 Z M 2.828125 0 L 2.828125 -3.953125 L 7.046875 -3.953125 L 7.046875 0 Z M 2.828125 0 "/></g></g></g><g clip-path="url(#f246fd98ac)"><path fill="#d9d9d9" d="M 784.703125 225.980469 L 971.355469 225.980469 L 971.355469 293.445312 L 784.703125 293.445312 Z M 784.703125 225.980469 " fill-opacity="1" fill-rule="nonzero"/></g><g clip-path="url(#e31e9415e4)"><path fill="#f2f2f2" d="M 980.527344 225.980469 L 1167.179688 225.980469 L 1167.179688 293.445312 L 980.527344 293.445312 Z M 980.527344 225.980469 " fill-opacity="1" fill-rule="nonzero"/></g><g clip-path="url(#253ccb18f8)"><path fill="#d9d9d9" d="M 1176.355469 75.257812 L 1363.007812 75.257812 L 1363.007812 142.722656 L 1176.355469 142.722656 Z M 1176.355469 75.257812 " fill-opacity="1" fill-rule="nonzero"/></g><g clip-path="url(#b4cc4f644c)"><g mask="url(#f29a63b2ef)"><g transform="matrix(1, 0, 0, 1, 1176, 150)"><g clip-path="url(#cedd50e12e)"><g clip-path="url(#6d21212643)"><path fill="#03e313" d="M 0.355469 0.617188 L 187.007812 0.617188 L 187.007812 68.082031 L 0.355469 68.082031 Z M 0.355469 0.617188 " fill-opacity="1" fill-rule="nonzero"/></g></g></g></g></g><g fill="#808080" fill-opacity="1"><g transform="translate(1228.14766, 194.095766)"><g><path d="M 1.046875 0 L 1.046875 -2.859375 C 1.578125 -4.035156 2.335938 -5.1875 3.328125 -6.3125 C 4.316406 -7.4375 5.566406 -8.609375 7.078125 -9.828125 C 8.515625 -10.992188 9.523438 -11.957031 10.109375 -12.71875 C 10.691406 -13.476562 10.984375 -14.226562 10.984375 -14.96875 C 10.984375 -16.757812 10.078125 -17.65625 8.265625 -17.65625 C 7.390625 -17.65625 6.71875 -17.414062 6.25 -16.9375 C 5.789062 -16.46875 5.492188 -15.757812 5.359375 -14.8125 L 1.21875 -15.046875 C 1.445312 -16.960938 2.160156 -18.421875 3.359375 -19.421875 C 4.554688 -20.429688 6.1875 -20.9375 8.25 -20.9375 C 10.46875 -20.9375 12.171875 -20.425781 13.359375 -19.40625 C 14.554688 -18.394531 15.15625 -16.972656 15.15625 -15.140625 C 15.15625 -14.171875 14.960938 -13.296875 14.578125 -12.515625 C 14.203125 -11.734375 13.710938 -11.015625 13.109375 -10.359375 C 12.515625 -9.703125 11.851562 -9.082031 11.125 -8.5 C 10.40625 -7.925781 9.703125 -7.363281 9.015625 -6.8125 C 8.335938 -6.269531 7.71875 -5.71875 7.15625 -5.15625 C 6.59375 -4.601562 6.175781 -4.007812 5.90625 -3.375 L 15.46875 -3.375 L 15.46875 0 Z M 1.046875 0 "/></g></g><g transform="translate(1244.823539, 194.095766)"><g><path d="M 15.453125 -10.328125 C 15.453125 -6.835938 14.851562 -4.191406 13.65625 -2.390625 C 12.457031 -0.597656 10.660156 0.296875 8.265625 0.296875 C 3.546875 0.296875 1.1875 -3.242188 1.1875 -10.328125 C 1.1875 -12.796875 1.441406 -14.8125 1.953125 -16.375 C 2.472656 -17.9375 3.25 -19.085938 4.28125 -19.828125 C 5.320312 -20.566406 6.691406 -20.9375 8.390625 -20.9375 C 10.828125 -20.9375 12.613281 -20.050781 13.75 -18.28125 C 14.882812 -16.519531 15.453125 -13.867188 15.453125 -10.328125 Z M 11.3125 -10.328125 C 11.3125 -12.222656 11.21875 -13.695312 11.03125 -14.75 C 10.851562 -15.8125 10.554688 -16.570312 10.140625 -17.03125 C 9.734375 -17.488281 9.140625 -17.71875 8.359375 -17.71875 C 7.523438 -17.71875 6.894531 -17.484375 6.46875 -17.015625 C 6.050781 -16.554688 5.75 -15.800781 5.5625 -14.75 C 5.382812 -13.695312 5.296875 -12.222656 5.296875 -10.328125 C 5.296875 -8.441406 5.390625 -6.96875 5.578125 -5.90625 C 5.773438 -4.84375 6.078125 -4.082031 6.484375 -3.625 C 6.898438 -3.164062 7.503906 -2.9375 8.296875 -2.9375 C 9.078125 -2.9375 9.679688 -3.175781 10.109375 -3.65625 C 10.535156 -4.144531 10.84375 -4.921875 11.03125 -5.984375 C 11.21875 -7.046875 11.3125 -8.492188 11.3125 -10.328125 Z M 11.3125 -10.328125 "/></g></g><g transform="translate(1261.499419, 194.095766)"><g><path d="M 6.328125 -0.96875 C 6.328125 0.207031 6.203125 1.242188 5.953125 2.140625 C 5.703125 3.035156 5.300781 3.867188 4.75 4.640625 L 2.03125 4.640625 C 2.613281 3.953125 3.082031 3.191406 3.4375 2.359375 C 3.800781 1.523438 3.984375 0.738281 3.984375 0 L 2.09375 0 L 2.09375 -4.46875 L 6.328125 -4.46875 Z M 6.328125 -0.96875 "/></g></g><g transform="translate(1269.830038, 194.095766)"><g/></g><g transform="translate(1278.160658, 194.095766)"><g><path d="M 15.75 -5.8125 C 15.75 -3.875 15.109375 -2.367188 13.828125 -1.296875 C 12.554688 -0.234375 10.734375 0.296875 8.359375 0.296875 C 6.003906 0.296875 4.179688 -0.234375 2.890625 -1.296875 C 1.597656 -2.367188 0.953125 -3.863281 0.953125 -5.78125 C 0.953125 -7.101562 1.332031 -8.210938 2.09375 -9.109375 C 2.851562 -10.015625 3.875 -10.578125 5.15625 -10.796875 L 5.15625 -10.84375 C 4.039062 -11.09375 3.140625 -11.644531 2.453125 -12.5 C 1.773438 -13.363281 1.4375 -14.351562 1.4375 -15.46875 C 1.4375 -17.164062 2.03125 -18.5 3.21875 -19.46875 C 4.414062 -20.445312 6.109375 -20.9375 8.296875 -20.9375 C 10.535156 -20.9375 12.25 -20.457031 13.4375 -19.5 C 14.632812 -18.550781 15.234375 -17.203125 15.234375 -15.453125 C 15.234375 -14.328125 14.894531 -13.335938 14.21875 -12.484375 C 13.539062 -11.640625 12.632812 -11.101562 11.5 -10.875 L 11.5 -10.8125 C 12.820312 -10.601562 13.859375 -10.0625 14.609375 -9.1875 C 15.367188 -8.3125 15.75 -7.1875 15.75 -5.8125 Z M 11.015625 -15.21875 C 11.015625 -16.195312 10.785156 -16.910156 10.328125 -17.359375 C 9.878906 -17.816406 9.203125 -18.046875 8.296875 -18.046875 C 6.523438 -18.046875 5.640625 -17.101562 5.640625 -15.21875 C 5.640625 -13.25 6.535156 -12.265625 8.328125 -12.265625 C 9.222656 -12.265625 9.894531 -12.492188 10.34375 -12.953125 C 10.789062 -13.410156 11.015625 -14.164062 11.015625 -15.21875 Z M 11.5 -6.15625 C 11.5 -8.3125 10.421875 -9.390625 8.265625 -9.390625 C 7.273438 -9.390625 6.515625 -9.101562 5.984375 -8.53125 C 5.453125 -7.96875 5.1875 -7.15625 5.1875 -6.09375 C 5.1875 -4.882812 5.445312 -4 5.96875 -3.4375 C 6.5 -2.882812 7.304688 -2.609375 8.390625 -2.609375 C 9.453125 -2.609375 10.234375 -2.882812 10.734375 -3.4375 C 11.242188 -4 11.5 -4.90625 11.5 -6.15625 Z M 11.5 -6.15625 "/></g></g><g transform="translate(1294.836537, 194.095766)"><g><path d="M 15.453125 -10.328125 C 15.453125 -6.835938 14.851562 -4.191406 13.65625 -2.390625 C 12.457031 -0.597656 10.660156 0.296875 8.265625 0.296875 C 3.546875 0.296875 1.1875 -3.242188 1.1875 -10.328125 C 1.1875 -12.796875 1.441406 -14.8125 1.953125 -16.375 C 2.472656 -17.9375 3.25 -19.085938 4.28125 -19.828125 C 5.320312 -20.566406 6.691406 -20.9375 8.390625 -20.9375 C 10.828125 -20.9375 12.613281 -20.050781 13.75 -18.28125 C 14.882812 -16.519531 15.453125 -13.867188 15.453125 -10.328125 Z M 11.3125 -10.328125 C 11.3125 -12.222656 11.21875 -13.695312 11.03125 -14.75 C 10.851562 -15.8125 10.554688 -16.570312 10.140625 -17.03125 C 9.734375 -17.488281 9.140625 -17.71875 8.359375 -17.71875 C 7.523438 -17.71875 6.894531 -17.484375 6.46875 -17.015625 C 6.050781 -16.554688 5.75 -15.800781 5.5625 -14.75 C 5.382812 -13.695312 5.296875 -12.222656 5.296875 -10.328125 C 5.296875 -8.441406 5.390625 -6.96875 5.578125 -5.90625 C 5.773438 -4.84375 6.078125 -4.082031 6.484375 -3.625 C 6.898438 -3.164062 7.503906 -2.9375 8.296875 -2.9375 C 9.078125 -2.9375 9.679688 -3.175781 10.109375 -3.65625 C 10.535156 -4.144531 10.84375 -4.921875 11.03125 -5.984375 C 11.21875 -7.046875 11.3125 -8.492188 11.3125 -10.328125 Z M 11.3125 -10.328125 "/></g></g></g><g clip-path="url(#1d489abe3a)"><path fill="#f2f2f2" d="M 1176.355469 225.980469 L 1363.007812 225.980469 L 1363.007812 293.445312 L 1176.355469 293.445312 Z M 1176.355469 225.980469 " fill-opacity="1" fill-rule="nonzero"/></g><g clip-path="url(#78b61c15ff)"><g mask="url(#e75c508258)"><g transform="matrix(1, 0, 0, 1, 271, 153)"><g clip-path="url(#75701d501d)"><g clip-path="url(#d2d2a5e94f)"><path fill="#ffc000" d="M 0.160156 0.953125 L 186.8125 0.953125 L 186.8125 68.417969 L 0.160156 68.417969 Z M 0.160156 0.953125 " fill-opacity="1" fill-rule="nonzero"/></g></g></g></g></g><g fill="#808080" fill-opacity="1"><g transform="translate(296.306489, 197.42923)"><g><path d="M 14.5625 0 L 5.578125 -15.890625 C 5.753906 -14.347656 5.84375 -13.109375 5.84375 -12.171875 L 5.84375 0 L 2 0 L 2 -20.625 L 6.9375 -20.625 L 16.0625 -4.609375 C 15.882812 -6.085938 15.796875 -7.429688 15.796875 -8.640625 L 15.796875 -20.625 L 19.640625 -20.625 L 19.640625 0 Z M 14.5625 0 "/></g></g><g transform="translate(317.960244, 197.42923)"><g><path d="M 2.09375 -18.703125 L 2.09375 -21.734375 L 6.203125 -21.734375 L 6.203125 -18.703125 Z M 2.09375 0 L 2.09375 -15.84375 L 6.203125 -15.84375 L 6.203125 0 Z M 2.09375 0 "/></g></g><g transform="translate(326.290863, 197.42923)"><g><path d="M 8.703125 0.296875 C 6.296875 0.296875 4.4375 -0.414062 3.125 -1.84375 C 1.820312 -3.28125 1.171875 -5.273438 1.171875 -7.828125 C 1.171875 -10.441406 1.828125 -12.476562 3.140625 -13.9375 C 4.460938 -15.40625 6.332031 -16.140625 8.75 -16.140625 C 10.613281 -16.140625 12.15625 -15.671875 13.375 -14.734375 C 14.601562 -13.796875 15.375 -12.5 15.6875 -10.84375 L 11.53125 -10.640625 C 11.414062 -11.453125 11.125 -12.097656 10.65625 -12.578125 C 10.1875 -13.066406 9.523438 -13.3125 8.671875 -13.3125 C 6.546875 -13.3125 5.484375 -11.539062 5.484375 -8 C 5.484375 -4.34375 6.5625 -2.515625 8.71875 -2.515625 C 9.5 -2.515625 10.15625 -2.757812 10.6875 -3.25 C 11.21875 -3.75 11.546875 -4.488281 11.671875 -5.46875 L 15.796875 -5.265625 C 15.648438 -4.179688 15.257812 -3.210938 14.625 -2.359375 C 14 -1.515625 13.171875 -0.859375 12.140625 -0.390625 C 11.117188 0.0664062 9.972656 0.296875 8.703125 0.296875 Z M 8.703125 0.296875 "/></g></g><g transform="translate(342.966743, 197.42923)"><g><path d="M 8.578125 0.296875 C 6.191406 0.296875 4.359375 -0.40625 3.078125 -1.8125 C 1.804688 -3.226562 1.171875 -5.289062 1.171875 -8 C 1.171875 -10.613281 1.816406 -12.625 3.109375 -14.03125 C 4.410156 -15.4375 6.253906 -16.140625 8.640625 -16.140625 C 10.910156 -16.140625 12.644531 -15.382812 13.84375 -13.875 C 15.050781 -12.363281 15.65625 -10.15625 15.65625 -7.25 L 15.65625 -7.125 L 5.484375 -7.125 C 5.484375 -5.582031 5.769531 -4.414062 6.34375 -3.625 C 6.914062 -2.84375 7.726562 -2.453125 8.78125 -2.453125 C 10.238281 -2.453125 11.15625 -3.082031 11.53125 -4.34375 L 15.421875 -4.015625 C 14.296875 -1.140625 12.015625 0.296875 8.578125 0.296875 Z M 8.578125 -13.546875 C 7.609375 -13.546875 6.863281 -13.207031 6.34375 -12.53125 C 5.820312 -11.851562 5.546875 -10.910156 5.515625 -9.703125 L 11.671875 -9.703125 C 11.585938 -10.984375 11.273438 -11.941406 10.734375 -12.578125 C 10.203125 -13.222656 9.484375 -13.546875 8.578125 -13.546875 Z M 8.578125 -13.546875 "/></g></g><g transform="translate(359.642622, 197.42923)"><g/></g><g transform="translate(367.973242, 197.42923)"><g><path d="M 20.390625 -10.46875 C 20.390625 -8.34375 19.972656 -6.484375 19.140625 -4.890625 C 18.304688 -3.304688 17.125 -2.09375 15.59375 -1.25 C 14.070312 -0.414062 12.320312 0 10.34375 0 L 2 0 L 2 -20.625 L 9.46875 -20.625 C 12.945312 -20.625 15.632812 -19.75 17.53125 -18 C 19.4375 -16.25 20.390625 -13.738281 20.390625 -10.46875 Z M 16.046875 -10.46875 C 16.046875 -12.6875 15.46875 -14.378906 14.3125 -15.546875 C 13.164062 -16.710938 11.523438 -17.296875 9.390625 -17.296875 L 6.328125 -17.296875 L 6.328125 -3.34375 L 9.984375 -3.34375 C 11.835938 -3.34375 13.3125 -3.976562 14.40625 -5.25 C 15.5 -6.53125 16.046875 -8.269531 16.046875 -10.46875 Z M 16.046875 -10.46875 "/></g></g><g transform="translate(389.626996, 197.42923)"><g><path d="M 5.75 0.296875 C 4.21875 0.296875 3.019531 -0.117188 2.15625 -0.953125 C 1.300781 -1.785156 0.875 -2.960938 0.875 -4.484375 C 0.875 -6.117188 1.40625 -7.363281 2.46875 -8.21875 C 3.539062 -9.082031 5.09375 -9.523438 7.125 -9.546875 L 10.546875 -9.609375 L 10.546875 -10.40625 C 10.546875 -11.445312 10.363281 -12.21875 10 -12.71875 C 9.632812 -13.21875 9.046875 -13.46875 8.234375 -13.46875 C 7.472656 -13.46875 6.910156 -13.296875 6.546875 -12.953125 C 6.191406 -12.609375 5.972656 -12.035156 5.890625 -11.234375 L 1.59375 -11.4375 C 1.851562 -12.976562 2.554688 -14.144531 3.703125 -14.9375 C 4.859375 -15.738281 6.425781 -16.140625 8.40625 -16.140625 C 10.40625 -16.140625 11.945312 -15.644531 13.03125 -14.65625 C 14.113281 -13.664062 14.65625 -12.265625 14.65625 -10.453125 L 14.65625 -4.6875 C 14.65625 -3.800781 14.753906 -3.1875 14.953125 -2.84375 C 15.148438 -2.507812 15.484375 -2.34375 15.953125 -2.34375 C 16.265625 -2.34375 16.566406 -2.375 16.859375 -2.4375 L 16.859375 -0.203125 C 16.617188 -0.140625 16.398438 -0.0820312 16.203125 -0.03125 C 16.015625 0.0078125 15.820312 0.0390625 15.625 0.0625 C 15.425781 0.09375 15.21875 0.117188 15 0.140625 C 14.78125 0.160156 14.523438 0.171875 14.234375 0.171875 C 13.191406 0.171875 12.425781 -0.078125 11.9375 -0.578125 C 11.445312 -1.085938 11.148438 -1.835938 11.046875 -2.828125 L 10.96875 -2.828125 C 9.8125 -0.742188 8.070312 0.296875 5.75 0.296875 Z M 10.546875 -7.328125 L 8.4375 -7.3125 C 7.476562 -7.269531 6.796875 -7.160156 6.390625 -6.984375 C 5.992188 -6.816406 5.691406 -6.554688 5.484375 -6.203125 C 5.273438 -5.859375 5.171875 -5.390625 5.171875 -4.796875 C 5.171875 -4.046875 5.34375 -3.488281 5.6875 -3.125 C 6.03125 -2.757812 6.492188 -2.578125 7.078125 -2.578125 C 7.710938 -2.578125 8.296875 -2.75 8.828125 -3.09375 C 9.367188 -3.445312 9.789062 -3.929688 10.09375 -4.546875 C 10.394531 -5.171875 10.546875 -5.832031 10.546875 -6.53125 Z M 10.546875 -7.328125 "/></g></g><g transform="translate(406.302876, 197.42923)"><g><path d="M 4.140625 6.21875 C 3.160156 6.21875 2.296875 6.15625 1.546875 6.03125 L 1.546875 3.109375 C 2.066406 3.179688 2.539062 3.21875 2.96875 3.21875 C 3.550781 3.21875 4.035156 3.125 4.421875 2.9375 C 4.804688 2.757812 5.148438 2.453125 5.453125 2.015625 C 5.765625 1.585938 6.113281 0.863281 6.5 -0.15625 L 0.234375 -15.84375 L 4.578125 -15.84375 L 7.078125 -8.421875 C 7.460938 -7.359375 7.953125 -5.726562 8.546875 -3.53125 L 8.921875 -4.921875 L 9.875 -8.359375 L 12.203125 -15.84375 L 16.515625 -15.84375 L 10.25 0.828125 C 9.40625 2.859375 8.53125 4.265625 7.625 5.046875 C 6.726562 5.828125 5.566406 6.21875 4.140625 6.21875 Z M 4.140625 6.21875 "/></g></g><g transform="translate(422.978755, 197.42923)"><g><path d="M 6.65625 -6.234375 L 3.296875 -6.234375 L 2.828125 -20.625 L 7.125 -20.625 Z M 2.828125 0 L 2.828125 -3.953125 L 7.046875 -3.953125 L 7.046875 0 Z M 2.828125 0 "/></g></g></g></svg>