<svg width="688" height="410" xmlns="http://www.w3.org/2000/svg" xmlns:xlink="http://www.w3.org/1999/xlink" overflow="hidden"><defs><clipPath id="clip0"><rect x="297" y="155" width="688" height="410"/></clipPath></defs><g clip-path="url(#clip0)" transform="translate(-297 -155)"><path d="M502.144 158C550.987 158 595.784 175.311 630.726 204.127L641 213.458 636.919 217.164C600.338 253.719 577.712 304.219 577.712 360 577.712 415.781 600.338 466.281 636.919 502.836L641 506.542 630.726 515.873C595.784 544.689 550.987 562 502.144 562 390.503 562 300 471.562 300 360 300 248.438 390.503 158 502.144 158Z" stroke="#000000" stroke-width="4" stroke-miterlimit="8" fill="none" fill-rule="evenodd"/><text fill="#FFFFFF" font-family="DengXian,DengXian_MSFontService,sans-serif" font-weight="400" font-size="48" transform="translate(432.462 347)">Left<tspan x="-19" y="57">Table</tspan></text><path d="M641 213 645.063 216.718C681.477 253.387 704 304.045 704 360 704 415.955 681.477 466.613 645.063 503.282L641 507 636.937 503.282C600.523 466.613 578 415.955 578 360 578 304.045 600.523 253.387 636.937 216.718Z" stroke="#000000" stroke-width="4" stroke-miterlimit="8" fill="#0275D8" fill-rule="evenodd"/><path d="M779.856 562C731.013 562 686.216 544.69 651.274 515.873L641 506.542 645.081 502.836C681.662 466.281 704.288 415.781 704.288 360 704.288 304.219 681.662 253.719 645.081 217.164L641 213.458 651.274 204.127C686.216 175.311 731.013 158 779.856 158 891.497 158 982 248.438 982 360 982 471.562 891.497 562 779.856 562Z" stroke="#000000" stroke-width="4" stroke-miterlimit="8" fill="#0275D8" fill-rule="evenodd"/></g></svg>