<svg xmlns="http://www.w3.org/2000/svg" xmlns:xlink="http://www.w3.org/1999/xlink" width="1919" zoomAndPan="magnify" viewBox="0 0 1439.25 371.999986" height="496" preserveAspectRatio="xMidYMid meet" version="1.0"><defs><filter x="0%" y="0%" width="100%" height="100%" id="732b362414"><feColorMatrix values="0 0 0 0 1 0 0 0 0 1 0 0 0 0 1 0 0 0 1 0" color-interpolation-filters="sRGB"/></filter><g/><clipPath id="39d5bc03b9"><path d="M 75.332031 153.953125 L 262 153.953125 L 262 221.25 L 75.332031 221.25 Z M 75.332031 153.953125 " clip-rule="nonzero"/></clipPath><clipPath id="892370290d"><path d="M 271.160156 78.589844 L 458 78.589844 L 458 145.890625 L 271.160156 145.890625 Z M 271.160156 78.589844 " clip-rule="nonzero"/></clipPath><clipPath id="4347ec414d"><path d="M 75.332031 229.3125 L 262 229.3125 L 262 296.613281 L 75.332031 296.613281 Z M 75.332031 229.3125 " clip-rule="nonzero"/></clipPath><clipPath id="522de50995"><path d="M 271.160156 229.3125 L 458 229.3125 L 458 296.613281 L 271.160156 296.613281 Z M 271.160156 229.3125 " clip-rule="nonzero"/></clipPath><clipPath id="54bb40cd50"><path d="M 466.984375 78.589844 L 653.929688 78.589844 L 653.929688 145.890625 L 466.984375 145.890625 Z M 466.984375 78.589844 " clip-rule="nonzero"/></clipPath><clipPath id="c1a37253dd"><path d="M 466.984375 153.953125 L 653.929688 153.953125 L 653.929688 221.25 L 466.984375 221.25 Z M 466.984375 153.953125 " clip-rule="nonzero"/></clipPath><mask id="ce6c507645"><g filter="url(#732b362414)"><rect x="-143.925" width="1727.1" fill="#000000" y="-37.199999" height="446.399983" fill-opacity="0.498"/></g></mask><clipPath id="1e397c6833"><path d="M 0.984375 0.953125 L 187.929688 0.953125 L 187.929688 68.25 L 0.984375 68.25 Z M 0.984375 0.953125 " clip-rule="nonzero"/></clipPath><clipPath id="4dd1aa0e55"><rect x="0" width="188" y="0" height="69"/></clipPath><clipPath id="878c375d3a"><path d="M 466.984375 229.3125 L 653.929688 229.3125 L 653.929688 296.613281 L 466.984375 296.613281 Z M 466.984375 229.3125 " clip-rule="nonzero"/></clipPath><clipPath id="40196406ce"><path d="M 670.679688 153.953125 L 768.878906 153.953125 L 768.878906 216 L 670.679688 216 Z M 670.679688 153.953125 " clip-rule="nonzero"/></clipPath><clipPath id="20393f30ff"><path d="M 670.679688 169.394531 L 737.554688 169.394531 L 737.554688 153.953125 L 768.4375 184.835938 L 737.554688 215.71875 L 737.554688 200.277344 L 670.679688 200.277344 L 670.679688 169.394531 " clip-rule="nonzero"/></clipPath><mask id="6488e1b4b5"><g filter="url(#732b362414)"><rect x="-143.925" width="1727.1" fill="#000000" y="-37.199999" height="446.399983" fill-opacity="0.4"/></g></mask><clipPath id="c0ad9c4952"><path d="M 0.679688 0.953125 L 98.558594 0.953125 L 98.558594 62.746094 L 0.679688 62.746094 Z M 0.679688 0.953125 " clip-rule="nonzero"/></clipPath><clipPath id="baf8e1550d"><path d="M 0.679688 16.394531 L 67.554688 16.394531 L 67.554688 0.953125 L 98.4375 31.835938 L 67.554688 62.71875 L 67.554688 47.277344 L 0.679688 47.277344 L 0.679688 16.394531 " clip-rule="nonzero"/></clipPath><clipPath id="6459a2cba5"><rect x="0" width="99" y="0" height="63"/></clipPath><clipPath id="990b629753"><path d="M 784.703125 150.617188 L 971.648438 150.617188 L 971.648438 217.917969 L 784.703125 217.917969 Z M 784.703125 150.617188 " clip-rule="nonzero"/></clipPath><clipPath id="703e0d905b"><path d="M 980.527344 75.257812 L 1167.472656 75.257812 L 1167.472656 142.558594 L 980.527344 142.558594 Z M 980.527344 75.257812 " clip-rule="nonzero"/></clipPath><clipPath id="0de3031eb4"><path d="M 980.527344 150.617188 L 1167.472656 150.617188 L 1167.472656 217.917969 L 980.527344 217.917969 Z M 980.527344 150.617188 " clip-rule="nonzero"/></clipPath><mask id="09976445b1"><g filter="url(#732b362414)"><rect x="-143.925" width="1727.1" fill="#000000" y="-37.199999" height="446.399983" fill-opacity="0.498"/></g></mask><clipPath id="fa19e6d956"><path d="M 0.527344 0.617188 L 187.472656 0.617188 L 187.472656 67.917969 L 0.527344 67.917969 Z M 0.527344 0.617188 " clip-rule="nonzero"/></clipPath><clipPath id="49c76c1eee"><rect x="0" width="188" y="0" height="68"/></clipPath><clipPath id="d87a581375"><path d="M 784.703125 225.980469 L 971.648438 225.980469 L 971.648438 293.277344 L 784.703125 293.277344 Z M 784.703125 225.980469 " clip-rule="nonzero"/></clipPath><clipPath id="2226f7ba77"><path d="M 980.527344 225.980469 L 1167.472656 225.980469 L 1167.472656 293.277344 L 980.527344 293.277344 Z M 980.527344 225.980469 " clip-rule="nonzero"/></clipPath><clipPath id="47674d3f0e"><path d="M 1176.355469 75.257812 L 1363.300781 75.257812 L 1363.300781 142.558594 L 1176.355469 142.558594 Z M 1176.355469 75.257812 " clip-rule="nonzero"/></clipPath><clipPath id="d9a1f90bb2"><path d="M 1176.355469 150.617188 L 1363.300781 150.617188 L 1363.300781 217.917969 L 1176.355469 217.917969 Z M 1176.355469 150.617188 " clip-rule="nonzero"/></clipPath><mask id="dcf7c8525b"><g filter="url(#732b362414)"><rect x="-143.925" width="1727.1" fill="#000000" y="-37.199999" height="446.399983" fill-opacity="0.498"/></g></mask><clipPath id="5718f75514"><path d="M 0.355469 0.617188 L 187.300781 0.617188 L 187.300781 67.917969 L 0.355469 67.917969 Z M 0.355469 0.617188 " clip-rule="nonzero"/></clipPath><clipPath id="4c4d9c370f"><rect x="0" width="188" y="0" height="68"/></clipPath><clipPath id="6e3192faf9"><path d="M 1176.355469 225.980469 L 1363.300781 225.980469 L 1363.300781 293.277344 L 1176.355469 293.277344 Z M 1176.355469 225.980469 " clip-rule="nonzero"/></clipPath><clipPath id="ec966d233f"><path d="M 271.160156 153.953125 L 458.105469 153.953125 L 458.105469 221.25 L 271.160156 221.25 Z M 271.160156 153.953125 " clip-rule="nonzero"/></clipPath><mask id="ff0b3c7e5d"><g filter="url(#732b362414)"><rect x="-143.925" width="1727.1" fill="#000000" y="-37.199999" height="446.399983" fill-opacity="0.498"/></g></mask><clipPath id="cc5ec422a4"><path d="M 0.160156 0.953125 L 187 0.953125 L 187 68.25 L 0.160156 68.25 Z M 0.160156 0.953125 " clip-rule="nonzero"/></clipPath><clipPath id="82c5eb9a2f"><rect x="0" width="188" y="0" height="69"/></clipPath></defs><g clip-path="url(#39d5bc03b9)"><path fill="#d9d9d9" d="M 75.332031 153.953125 L 261.988281 153.953125 L 261.988281 221.417969 L 75.332031 221.417969 Z M 75.332031 153.953125 " fill-opacity="1" fill-rule="nonzero"/></g><g clip-path="url(#892370290d)"><path fill="#d9d9d9" d="M 271.160156 78.589844 L 457.8125 78.589844 L 457.8125 146.054688 L 271.160156 146.054688 Z M 271.160156 78.589844 " fill-opacity="1" fill-rule="nonzero"/></g><g clip-path="url(#4347ec414d)"><path fill="#d9d9d9" d="M 75.332031 229.3125 L 261.988281 229.3125 L 261.988281 296.777344 L 75.332031 296.777344 Z M 75.332031 229.3125 " fill-opacity="1" fill-rule="nonzero"/></g><g clip-path="url(#522de50995)"><path fill="#f2f2f2" d="M 271.160156 229.3125 L 457.8125 229.3125 L 457.8125 296.777344 L 271.160156 296.777344 Z M 271.160156 229.3125 " fill-opacity="1" fill-rule="nonzero"/></g><g clip-path="url(#54bb40cd50)"><path fill="#d9d9d9" d="M 466.984375 78.589844 L 653.636719 78.589844 L 653.636719 146.054688 L 466.984375 146.054688 Z M 466.984375 78.589844 " fill-opacity="1" fill-rule="nonzero"/></g><g clip-path="url(#c1a37253dd)"><g mask="url(#ce6c507645)"><g transform="matrix(1, 0, 0, 1, 466, 153)"><g clip-path="url(#4dd1aa0e55)"><g clip-path="url(#1e397c6833)"><path fill="#ffc000" d="M 0.984375 0.953125 L 187.636719 0.953125 L 187.636719 68.417969 L 0.984375 68.417969 Z M 0.984375 0.953125 " fill-opacity="1" fill-rule="nonzero"/></g></g></g></g></g><g fill="#808080" fill-opacity="1"><g transform="translate(522.936438, 197.42923)"><g><path d="M 1.890625 0 L 1.890625 -3.0625 L 7 -3.0625 L 7 -17.125 L 2.046875 -14.046875 L 2.046875 -17.28125 L 7.21875 -20.625 L 11.109375 -20.625 L 11.109375 -3.0625 L 15.84375 -3.0625 L 15.84375 0 Z M 1.890625 0 "/></g></g><g transform="translate(539.612318, 197.42923)"><g><path d="M 2.03125 0 L 2.03125 -4.46875 L 6.265625 -4.46875 L 6.265625 0 Z M 2.03125 0 "/></g></g><g transform="translate(547.942937, 197.42923)"><g><path d="M 15.453125 -10.328125 C 15.453125 -6.835938 14.851562 -4.191406 13.65625 -2.390625 C 12.457031 -0.597656 10.660156 0.296875 8.265625 0.296875 C 3.546875 0.296875 1.1875 -3.242188 1.1875 -10.328125 C 1.1875 -12.796875 1.441406 -14.8125 1.953125 -16.375 C 2.472656 -17.9375 3.25 -19.085938 4.28125 -19.828125 C 5.320312 -20.566406 6.691406 -20.9375 8.390625 -20.9375 C 10.828125 -20.9375 12.613281 -20.050781 13.75 -18.28125 C 14.882812 -16.519531 15.453125 -13.867188 15.453125 -10.328125 Z M 11.3125 -10.328125 C 11.3125 -12.222656 11.21875 -13.695312 11.03125 -14.75 C 10.851562 -15.8125 10.554688 -16.570312 10.140625 -17.03125 C 9.734375 -17.488281 9.140625 -17.71875 8.359375 -17.71875 C 7.523438 -17.71875 6.894531 -17.484375 6.46875 -17.015625 C 6.050781 -16.554688 5.75 -15.800781 5.5625 -14.75 C 5.382812 -13.695312 5.296875 -12.222656 5.296875 -10.328125 C 5.296875 -8.441406 5.390625 -6.96875 5.578125 -5.90625 C 5.773438 -4.84375 6.078125 -4.082031 6.484375 -3.625 C 6.898438 -3.164062 7.503906 -2.9375 8.296875 -2.9375 C 9.078125 -2.9375 9.679688 -3.175781 10.109375 -3.65625 C 10.535156 -4.144531 10.84375 -4.921875 11.03125 -5.984375 C 11.21875 -7.046875 11.3125 -8.492188 11.3125 -10.328125 Z M 11.3125 -10.328125 "/></g></g><g transform="translate(564.618817, 197.42923)"><g><path d="M 15.453125 -10.328125 C 15.453125 -6.835938 14.851562 -4.191406 13.65625 -2.390625 C 12.457031 -0.597656 10.660156 0.296875 8.265625 0.296875 C 3.546875 0.296875 1.1875 -3.242188 1.1875 -10.328125 C 1.1875 -12.796875 1.441406 -14.8125 1.953125 -16.375 C 2.472656 -17.9375 3.25 -19.085938 4.28125 -19.828125 C 5.320312 -20.566406 6.691406 -20.9375 8.390625 -20.9375 C 10.828125 -20.9375 12.613281 -20.050781 13.75 -18.28125 C 14.882812 -16.519531 15.453125 -13.867188 15.453125 -10.328125 Z M 11.3125 -10.328125 C 11.3125 -12.222656 11.21875 -13.695312 11.03125 -14.75 C 10.851562 -15.8125 10.554688 -16.570312 10.140625 -17.03125 C 9.734375 -17.488281 9.140625 -17.71875 8.359375 -17.71875 C 7.523438 -17.71875 6.894531 -17.484375 6.46875 -17.015625 C 6.050781 -16.554688 5.75 -15.800781 5.5625 -14.75 C 5.382812 -13.695312 5.296875 -12.222656 5.296875 -10.328125 C 5.296875 -8.441406 5.390625 -6.96875 5.578125 -5.90625 C 5.773438 -4.84375 6.078125 -4.082031 6.484375 -3.625 C 6.898438 -3.164062 7.503906 -2.9375 8.296875 -2.9375 C 9.078125 -2.9375 9.679688 -3.175781 10.109375 -3.65625 C 10.535156 -4.144531 10.84375 -4.921875 11.03125 -5.984375 C 11.21875 -7.046875 11.3125 -8.492188 11.3125 -10.328125 Z M 11.3125 -10.328125 "/></g></g><g transform="translate(581.294697, 197.42923)"><g><path d="M 1.890625 0 L 1.890625 -3.0625 L 7 -3.0625 L 7 -17.125 L 2.046875 -14.046875 L 2.046875 -17.28125 L 7.21875 -20.625 L 11.109375 -20.625 L 11.109375 -3.0625 L 15.84375 -3.0625 L 15.84375 0 Z M 1.890625 0 "/></g></g></g><g clip-path="url(#878c375d3a)"><path fill="#f2f2f2" d="M 466.984375 229.3125 L 653.636719 229.3125 L 653.636719 296.777344 L 466.984375 296.777344 Z M 466.984375 229.3125 " fill-opacity="1" fill-rule="nonzero"/></g><g clip-path="url(#40196406ce)"><g clip-path="url(#20393f30ff)"><g mask="url(#6488e1b4b5)"><g transform="matrix(1, 0, 0, 1, 670, 153)"><g clip-path="url(#6459a2cba5)"><g clip-path="url(#c0ad9c4952)"><g clip-path="url(#baf8e1550d)"><path fill="#03e313" d="M 0.679688 0.953125 L 98.128906 0.953125 L 98.128906 62.417969 L 0.679688 62.417969 Z M 0.679688 0.953125 " fill-opacity="1" fill-rule="nonzero"/></g></g></g></g></g></g></g><g clip-path="url(#990b629753)"><path fill="#d9d9d9" d="M 784.703125 150.617188 L 971.355469 150.617188 L 971.355469 218.082031 L 784.703125 218.082031 Z M 784.703125 150.617188 " fill-opacity="1" fill-rule="nonzero"/></g><g clip-path="url(#703e0d905b)"><path fill="#d9d9d9" d="M 980.527344 75.257812 L 1167.179688 75.257812 L 1167.179688 142.722656 L 980.527344 142.722656 Z M 980.527344 75.257812 " fill-opacity="1" fill-rule="nonzero"/></g><g clip-path="url(#0de3031eb4)"><g mask="url(#09976445b1)"><g transform="matrix(1, 0, 0, 1, 980, 150)"><g clip-path="url(#49c76c1eee)"><g clip-path="url(#fa19e6d956)"><path fill="#03e313" d="M 0.527344 0.617188 L 187.179688 0.617188 L 187.179688 68.082031 L 0.527344 68.082031 Z M 0.527344 0.617188 " fill-opacity="1" fill-rule="nonzero"/></g></g></g></g></g><g fill="#808080" fill-opacity="1"><g transform="translate(1065.668065, 194.095766)"><g><path d="M 1.046875 0 L 1.046875 -2.859375 C 1.578125 -4.035156 2.335938 -5.1875 3.328125 -6.3125 C 4.316406 -7.4375 5.566406 -8.609375 7.078125 -9.828125 C 8.515625 -10.992188 9.523438 -11.957031 10.109375 -12.71875 C 10.691406 -13.476562 10.984375 -14.226562 10.984375 -14.96875 C 10.984375 -16.757812 10.078125 -17.65625 8.265625 -17.65625 C 7.390625 -17.65625 6.71875 -17.414062 6.25 -16.9375 C 5.789062 -16.46875 5.492188 -15.757812 5.359375 -14.8125 L 1.21875 -15.046875 C 1.445312 -16.960938 2.160156 -18.421875 3.359375 -19.421875 C 4.554688 -20.429688 6.1875 -20.9375 8.25 -20.9375 C 10.46875 -20.9375 12.171875 -20.425781 13.359375 -19.40625 C 14.554688 -18.394531 15.15625 -16.972656 15.15625 -15.140625 C 15.15625 -14.171875 14.960938 -13.296875 14.578125 -12.515625 C 14.203125 -11.734375 13.710938 -11.015625 13.109375 -10.359375 C 12.515625 -9.703125 11.851562 -9.082031 11.125 -8.5 C 10.40625 -7.925781 9.703125 -7.363281 9.015625 -6.8125 C 8.335938 -6.269531 7.71875 -5.71875 7.15625 -5.15625 C 6.59375 -4.601562 6.175781 -4.007812 5.90625 -3.375 L 15.46875 -3.375 L 15.46875 0 Z M 1.046875 0 "/></g></g></g><g clip-path="url(#d87a581375)"><path fill="#d9d9d9" d="M 784.703125 225.980469 L 971.355469 225.980469 L 971.355469 293.445312 L 784.703125 293.445312 Z M 784.703125 225.980469 " fill-opacity="1" fill-rule="nonzero"/></g><g clip-path="url(#2226f7ba77)"><path fill="#f2f2f2" d="M 980.527344 225.980469 L 1167.179688 225.980469 L 1167.179688 293.445312 L 980.527344 293.445312 Z M 980.527344 225.980469 " fill-opacity="1" fill-rule="nonzero"/></g><g clip-path="url(#47674d3f0e)"><path fill="#d9d9d9" d="M 1176.355469 75.257812 L 1363.007812 75.257812 L 1363.007812 142.722656 L 1176.355469 142.722656 Z M 1176.355469 75.257812 " fill-opacity="1" fill-rule="nonzero"/></g><g clip-path="url(#d9a1f90bb2)"><g mask="url(#dcf7c8525b)"><g transform="matrix(1, 0, 0, 1, 1176, 150)"><g clip-path="url(#4c4d9c370f)"><g clip-path="url(#5718f75514)"><path fill="#03e313" d="M 0.355469 0.617188 L 187.007812 0.617188 L 187.007812 68.082031 L 0.355469 68.082031 Z M 0.355469 0.617188 " fill-opacity="1" fill-rule="nonzero"/></g></g></g></g></g><g fill="#808080" fill-opacity="1"><g transform="translate(1261.493563, 194.095766)"><g><path d="M 1.046875 0 L 1.046875 -2.859375 C 1.578125 -4.035156 2.335938 -5.1875 3.328125 -6.3125 C 4.316406 -7.4375 5.566406 -8.609375 7.078125 -9.828125 C 8.515625 -10.992188 9.523438 -11.957031 10.109375 -12.71875 C 10.691406 -13.476562 10.984375 -14.226562 10.984375 -14.96875 C 10.984375 -16.757812 10.078125 -17.65625 8.265625 -17.65625 C 7.390625 -17.65625 6.71875 -17.414062 6.25 -16.9375 C 5.789062 -16.46875 5.492188 -15.757812 5.359375 -14.8125 L 1.21875 -15.046875 C 1.445312 -16.960938 2.160156 -18.421875 3.359375 -19.421875 C 4.554688 -20.429688 6.1875 -20.9375 8.25 -20.9375 C 10.46875 -20.9375 12.171875 -20.425781 13.359375 -19.40625 C 14.554688 -18.394531 15.15625 -16.972656 15.15625 -15.140625 C 15.15625 -14.171875 14.960938 -13.296875 14.578125 -12.515625 C 14.203125 -11.734375 13.710938 -11.015625 13.109375 -10.359375 C 12.515625 -9.703125 11.851562 -9.082031 11.125 -8.5 C 10.40625 -7.925781 9.703125 -7.363281 9.015625 -6.8125 C 8.335938 -6.269531 7.71875 -5.71875 7.15625 -5.15625 C 6.59375 -4.601562 6.175781 -4.007812 5.90625 -3.375 L 15.46875 -3.375 L 15.46875 0 Z M 1.046875 0 "/></g></g></g><g clip-path="url(#6e3192faf9)"><path fill="#f2f2f2" d="M 1176.355469 225.980469 L 1363.007812 225.980469 L 1363.007812 293.445312 L 1176.355469 293.445312 Z M 1176.355469 225.980469 " fill-opacity="1" fill-rule="nonzero"/></g><g clip-path="url(#ec966d233f)"><g mask="url(#ff0b3c7e5d)"><g transform="matrix(1, 0, 0, 1, 271, 153)"><g clip-path="url(#82c5eb9a2f)"><g clip-path="url(#cc5ec422a4)"><path fill="#ffc000" d="M 0.160156 0.953125 L 186.8125 0.953125 L 186.8125 68.417969 L 0.160156 68.417969 Z M 0.160156 0.953125 " fill-opacity="1" fill-rule="nonzero"/></g></g></g></g></g><g fill="#808080" fill-opacity="1"><g transform="translate(327.110748, 197.42923)"><g><path d="M 1.890625 0 L 1.890625 -3.0625 L 7 -3.0625 L 7 -17.125 L 2.046875 -14.046875 L 2.046875 -17.28125 L 7.21875 -20.625 L 11.109375 -20.625 L 11.109375 -3.0625 L 15.84375 -3.0625 L 15.84375 0 Z M 1.890625 0 "/></g></g><g transform="translate(343.786628, 197.42923)"><g><path d="M 2.03125 0 L 2.03125 -4.46875 L 6.265625 -4.46875 L 6.265625 0 Z M 2.03125 0 "/></g></g><g transform="translate(352.117247, 197.42923)"><g><path d="M 15.5625 -10.640625 C 15.5625 -6.984375 14.890625 -4.242188 13.546875 -2.421875 C 12.210938 -0.609375 10.316406 0.296875 7.859375 0.296875 C 6.046875 0.296875 4.625 -0.0859375 3.59375 -0.859375 C 2.5625 -1.640625 1.832031 -2.867188 1.40625 -4.546875 L 5.265625 -5.09375 C 5.648438 -3.65625 6.53125 -2.9375 7.90625 -2.9375 C 9.0625 -2.9375 9.945312 -3.488281 10.5625 -4.59375 C 11.1875 -5.695312 11.503906 -7.332031 11.515625 -9.5 C 11.148438 -8.769531 10.546875 -8.195312 9.703125 -7.78125 C 8.859375 -7.363281 7.945312 -7.15625 6.96875 -7.15625 C 5.15625 -7.15625 3.710938 -7.769531 2.640625 -9 C 1.578125 -10.238281 1.046875 -11.914062 1.046875 -14.03125 C 1.046875 -16.195312 1.671875 -17.890625 2.921875 -19.109375 C 4.171875 -20.328125 5.945312 -20.9375 8.25 -20.9375 C 10.71875 -20.9375 12.550781 -20.078125 13.75 -18.359375 C 14.957031 -16.648438 15.5625 -14.078125 15.5625 -10.640625 Z M 11.21875 -13.53125 C 11.21875 -14.8125 10.9375 -15.828125 10.375 -16.578125 C 9.8125 -17.335938 9.066406 -17.71875 8.140625 -17.71875 C 7.234375 -17.71875 6.519531 -17.382812 6 -16.71875 C 5.476562 -16.0625 5.21875 -15.15625 5.21875 -14 C 5.21875 -12.851562 5.472656 -11.9375 5.984375 -11.25 C 6.503906 -10.5625 7.226562 -10.21875 8.15625 -10.21875 C 9.03125 -10.21875 9.757812 -10.515625 10.34375 -11.109375 C 10.925781 -11.710938 11.21875 -12.519531 11.21875 -13.53125 Z M 11.21875 -13.53125 "/></g></g><g transform="translate(368.793127, 197.42923)"><g><path d="M 15.5625 -10.640625 C 15.5625 -6.984375 14.890625 -4.242188 13.546875 -2.421875 C 12.210938 -0.609375 10.316406 0.296875 7.859375 0.296875 C 6.046875 0.296875 4.625 -0.0859375 3.59375 -0.859375 C 2.5625 -1.640625 1.832031 -2.867188 1.40625 -4.546875 L 5.265625 -5.09375 C 5.648438 -3.65625 6.53125 -2.9375 7.90625 -2.9375 C 9.0625 -2.9375 9.945312 -3.488281 10.5625 -4.59375 C 11.1875 -5.695312 11.503906 -7.332031 11.515625 -9.5 C 11.148438 -8.769531 10.546875 -8.195312 9.703125 -7.78125 C 8.859375 -7.363281 7.945312 -7.15625 6.96875 -7.15625 C 5.15625 -7.15625 3.710938 -7.769531 2.640625 -9 C 1.578125 -10.238281 1.046875 -11.914062 1.046875 -14.03125 C 1.046875 -16.195312 1.671875 -17.890625 2.921875 -19.109375 C 4.171875 -20.328125 5.945312 -20.9375 8.25 -20.9375 C 10.71875 -20.9375 12.550781 -20.078125 13.75 -18.359375 C 14.957031 -16.648438 15.5625 -14.078125 15.5625 -10.640625 Z M 11.21875 -13.53125 C 11.21875 -14.8125 10.9375 -15.828125 10.375 -16.578125 C 9.8125 -17.335938 9.066406 -17.71875 8.140625 -17.71875 C 7.234375 -17.71875 6.519531 -17.382812 6 -16.71875 C 5.476562 -16.0625 5.21875 -15.15625 5.21875 -14 C 5.21875 -12.851562 5.472656 -11.9375 5.984375 -11.25 C 6.503906 -10.5625 7.226562 -10.21875 8.15625 -10.21875 C 9.03125 -10.21875 9.757812 -10.515625 10.34375 -11.109375 C 10.925781 -11.710938 11.21875 -12.519531 11.21875 -13.53125 Z M 11.21875 -13.53125 "/></g></g><g transform="translate(385.469006, 197.42923)"><g><path d="M 15.5625 -10.640625 C 15.5625 -6.984375 14.890625 -4.242188 13.546875 -2.421875 C 12.210938 -0.609375 10.316406 0.296875 7.859375 0.296875 C 6.046875 0.296875 4.625 -0.0859375 3.59375 -0.859375 C 2.5625 -1.640625 1.832031 -2.867188 1.40625 -4.546875 L 5.265625 -5.09375 C 5.648438 -3.65625 6.53125 -2.9375 7.90625 -2.9375 C 9.0625 -2.9375 9.945312 -3.488281 10.5625 -4.59375 C 11.1875 -5.695312 11.503906 -7.332031 11.515625 -9.5 C 11.148438 -8.769531 10.546875 -8.195312 9.703125 -7.78125 C 8.859375 -7.363281 7.945312 -7.15625 6.96875 -7.15625 C 5.15625 -7.15625 3.710938 -7.769531 2.640625 -9 C 1.578125 -10.238281 1.046875 -11.914062 1.046875 -14.03125 C 1.046875 -16.195312 1.671875 -17.890625 2.921875 -19.109375 C 4.171875 -20.328125 5.945312 -20.9375 8.25 -20.9375 C 10.71875 -20.9375 12.550781 -20.078125 13.75 -18.359375 C 14.957031 -16.648438 15.5625 -14.078125 15.5625 -10.640625 Z M 11.21875 -13.53125 C 11.21875 -14.8125 10.9375 -15.828125 10.375 -16.578125 C 9.8125 -17.335938 9.066406 -17.71875 8.140625 -17.71875 C 7.234375 -17.71875 6.519531 -17.382812 6 -16.71875 C 5.476562 -16.0625 5.21875 -15.15625 5.21875 -14 C 5.21875 -12.851562 5.472656 -11.9375 5.984375 -11.25 C 6.503906 -10.5625 7.226562 -10.21875 8.15625 -10.21875 C 9.03125 -10.21875 9.757812 -10.515625 10.34375 -11.109375 C 10.925781 -11.710938 11.21875 -12.519531 11.21875 -13.53125 Z M 11.21875 -13.53125 "/></g></g></g></svg>