<svg xmlns="http://www.w3.org/2000/svg" xmlns:xlink="http://www.w3.org/1999/xlink" width="1919" zoomAndPan="magnify" viewBox="0 0 1439.25 371.999986" height="496" preserveAspectRatio="xMidYMid meet" version="1.0"><defs><filter x="0%" y="0%" width="100%" height="100%" id="b805c5b033"><feColorMatrix values="0 0 0 0 1 0 0 0 0 1 0 0 0 0 1 0 0 0 1 0" color-interpolation-filters="sRGB"/></filter><g/><clipPath id="cd257ba82c"><path d="M 75.332031 153.953125 L 262 153.953125 L 262 221.25 L 75.332031 221.25 Z M 75.332031 153.953125 " clip-rule="nonzero"/></clipPath><clipPath id="02d16ac24b"><path d="M 271.160156 78.589844 L 458 78.589844 L 458 145.890625 L 271.160156 145.890625 Z M 271.160156 78.589844 " clip-rule="nonzero"/></clipPath><clipPath id="7acdc1f832"><path d="M 75.332031 229.3125 L 262 229.3125 L 262 296.613281 L 75.332031 296.613281 Z M 75.332031 229.3125 " clip-rule="nonzero"/></clipPath><clipPath id="0af41abbf3"><path d="M 271.160156 229.3125 L 458 229.3125 L 458 296.613281 L 271.160156 296.613281 Z M 271.160156 229.3125 " clip-rule="nonzero"/></clipPath><clipPath id="d2f36819d0"><path d="M 466.984375 78.589844 L 653.929688 78.589844 L 653.929688 145.890625 L 466.984375 145.890625 Z M 466.984375 78.589844 " clip-rule="nonzero"/></clipPath><clipPath id="7ee8ebc673"><path d="M 466.984375 153.953125 L 653.929688 153.953125 L 653.929688 221.25 L 466.984375 221.25 Z M 466.984375 153.953125 " clip-rule="nonzero"/></clipPath><mask id="97bd8336ea"><g filter="url(#b805c5b033)"><rect x="-143.925" width="1727.1" fill="#000000" y="-37.199999" height="446.399983" fill-opacity="0.498"/></g></mask><clipPath id="8e2a4118df"><path d="M 0.984375 0.953125 L 187.929688 0.953125 L 187.929688 68.25 L 0.984375 68.25 Z M 0.984375 0.953125 " clip-rule="nonzero"/></clipPath><clipPath id="54a087339d"><rect x="0" width="188" y="0" height="69"/></clipPath><clipPath id="0b1623bccd"><path d="M 466.984375 229.3125 L 653.929688 229.3125 L 653.929688 296.613281 L 466.984375 296.613281 Z M 466.984375 229.3125 " clip-rule="nonzero"/></clipPath><clipPath id="574578839e"><path d="M 670.679688 153.953125 L 768.878906 153.953125 L 768.878906 216 L 670.679688 216 Z M 670.679688 153.953125 " clip-rule="nonzero"/></clipPath><clipPath id="b9703952f6"><path d="M 670.679688 169.394531 L 737.554688 169.394531 L 737.554688 153.953125 L 768.4375 184.835938 L 737.554688 215.71875 L 737.554688 200.277344 L 670.679688 200.277344 L 670.679688 169.394531 " clip-rule="nonzero"/></clipPath><mask id="42aff8d834"><g filter="url(#b805c5b033)"><rect x="-143.925" width="1727.1" fill="#000000" y="-37.199999" height="446.399983" fill-opacity="0.4"/></g></mask><clipPath id="a28175179c"><path d="M 0.679688 0.953125 L 98.558594 0.953125 L 98.558594 62.746094 L 0.679688 62.746094 Z M 0.679688 0.953125 " clip-rule="nonzero"/></clipPath><clipPath id="d2205258f8"><path d="M 0.679688 16.394531 L 67.554688 16.394531 L 67.554688 0.953125 L 98.4375 31.835938 L 67.554688 62.71875 L 67.554688 47.277344 L 0.679688 47.277344 L 0.679688 16.394531 " clip-rule="nonzero"/></clipPath><clipPath id="daac4f0725"><rect x="0" width="99" y="0" height="63"/></clipPath><clipPath id="b0000e4f45"><path d="M 784.703125 150.617188 L 971.648438 150.617188 L 971.648438 217.917969 L 784.703125 217.917969 Z M 784.703125 150.617188 " clip-rule="nonzero"/></clipPath><clipPath id="a860f28cf0"><path d="M 980.527344 75.257812 L 1167.472656 75.257812 L 1167.472656 142.558594 L 980.527344 142.558594 Z M 980.527344 75.257812 " clip-rule="nonzero"/></clipPath><clipPath id="996e627613"><path d="M 980.527344 150.617188 L 1167.472656 150.617188 L 1167.472656 217.917969 L 980.527344 217.917969 Z M 980.527344 150.617188 " clip-rule="nonzero"/></clipPath><mask id="3811626686"><g filter="url(#b805c5b033)"><rect x="-143.925" width="1727.1" fill="#000000" y="-37.199999" height="446.399983" fill-opacity="0.498"/></g></mask><clipPath id="8b42b02965"><path d="M 0.527344 0.617188 L 187.472656 0.617188 L 187.472656 67.917969 L 0.527344 67.917969 Z M 0.527344 0.617188 " clip-rule="nonzero"/></clipPath><clipPath id="4651595b97"><rect x="0" width="188" y="0" height="68"/></clipPath><clipPath id="46323172d9"><path d="M 784.703125 225.980469 L 971.648438 225.980469 L 971.648438 293.277344 L 784.703125 293.277344 Z M 784.703125 225.980469 " clip-rule="nonzero"/></clipPath><clipPath id="a061081d60"><path d="M 980.527344 225.980469 L 1167.472656 225.980469 L 1167.472656 293.277344 L 980.527344 293.277344 Z M 980.527344 225.980469 " clip-rule="nonzero"/></clipPath><clipPath id="9726018efe"><path d="M 1176.355469 75.257812 L 1363.300781 75.257812 L 1363.300781 142.558594 L 1176.355469 142.558594 Z M 1176.355469 75.257812 " clip-rule="nonzero"/></clipPath><clipPath id="7ca3894202"><path d="M 1176.355469 150.617188 L 1363.300781 150.617188 L 1363.300781 217.917969 L 1176.355469 217.917969 Z M 1176.355469 150.617188 " clip-rule="nonzero"/></clipPath><mask id="8caafc5c1b"><g filter="url(#b805c5b033)"><rect x="-143.925" width="1727.1" fill="#000000" y="-37.199999" height="446.399983" fill-opacity="0.498"/></g></mask><clipPath id="14612286a7"><path d="M 0.355469 0.617188 L 187.300781 0.617188 L 187.300781 67.917969 L 0.355469 67.917969 Z M 0.355469 0.617188 " clip-rule="nonzero"/></clipPath><clipPath id="a62b7fce2c"><rect x="0" width="188" y="0" height="68"/></clipPath><clipPath id="a0af912619"><path d="M 1176.355469 225.980469 L 1363.300781 225.980469 L 1363.300781 293.277344 L 1176.355469 293.277344 Z M 1176.355469 225.980469 " clip-rule="nonzero"/></clipPath><clipPath id="60cc696083"><path d="M 271.160156 153.953125 L 458.105469 153.953125 L 458.105469 221.25 L 271.160156 221.25 Z M 271.160156 153.953125 " clip-rule="nonzero"/></clipPath><mask id="f5b8074cba"><g filter="url(#b805c5b033)"><rect x="-143.925" width="1727.1" fill="#000000" y="-37.199999" height="446.399983" fill-opacity="0.498"/></g></mask><clipPath id="63ad503a5a"><path d="M 0.160156 0.953125 L 187 0.953125 L 187 68.25 L 0.160156 68.25 Z M 0.160156 0.953125 " clip-rule="nonzero"/></clipPath><clipPath id="c4fd1673db"><rect x="0" width="188" y="0" height="69"/></clipPath></defs><g clip-path="url(#cd257ba82c)"><path fill="#d9d9d9" d="M 75.332031 153.953125 L 261.988281 153.953125 L 261.988281 221.417969 L 75.332031 221.417969 Z M 75.332031 153.953125 " fill-opacity="1" fill-rule="nonzero"/></g><g clip-path="url(#02d16ac24b)"><path fill="#d9d9d9" d="M 271.160156 78.589844 L 457.8125 78.589844 L 457.8125 146.054688 L 271.160156 146.054688 Z M 271.160156 78.589844 " fill-opacity="1" fill-rule="nonzero"/></g><g clip-path="url(#7acdc1f832)"><path fill="#d9d9d9" d="M 75.332031 229.3125 L 261.988281 229.3125 L 261.988281 296.777344 L 75.332031 296.777344 Z M 75.332031 229.3125 " fill-opacity="1" fill-rule="nonzero"/></g><g clip-path="url(#0af41abbf3)"><path fill="#f2f2f2" d="M 271.160156 229.3125 L 457.8125 229.3125 L 457.8125 296.777344 L 271.160156 296.777344 Z M 271.160156 229.3125 " fill-opacity="1" fill-rule="nonzero"/></g><g clip-path="url(#d2f36819d0)"><path fill="#d9d9d9" d="M 466.984375 78.589844 L 653.636719 78.589844 L 653.636719 146.054688 L 466.984375 146.054688 Z M 466.984375 78.589844 " fill-opacity="1" fill-rule="nonzero"/></g><g clip-path="url(#7ee8ebc673)"><g mask="url(#97bd8336ea)"><g transform="matrix(1, 0, 0, 1, 466, 153)"><g clip-path="url(#54a087339d)"><g clip-path="url(#8e2a4118df)"><path fill="#ffc000" d="M 0.984375 0.953125 L 187.636719 0.953125 L 187.636719 68.417969 L 0.984375 68.417969 Z M 0.984375 0.953125 " fill-opacity="1" fill-rule="nonzero"/></g></g></g></g></g><g fill="#808080" fill-opacity="1"><g transform="translate(522.936438, 197.42923)"><g><path d="M 1.890625 0 L 1.890625 -3.0625 L 7 -3.0625 L 7 -17.125 L 2.046875 -14.046875 L 2.046875 -17.28125 L 7.21875 -20.625 L 11.109375 -20.625 L 11.109375 -3.0625 L 15.84375 -3.0625 L 15.84375 0 Z M 1.890625 0 "/></g></g><g transform="translate(539.612318, 197.42923)"><g><path d="M 2.03125 0 L 2.03125 -4.46875 L 6.265625 -4.46875 L 6.265625 0 Z M 2.03125 0 "/></g></g><g transform="translate(547.942937, 197.42923)"><g><path d="M 15.453125 -10.328125 C 15.453125 -6.835938 14.851562 -4.191406 13.65625 -2.390625 C 12.457031 -0.597656 10.660156 0.296875 8.265625 0.296875 C 3.546875 0.296875 1.1875 -3.242188 1.1875 -10.328125 C 1.1875 -12.796875 1.441406 -14.8125 1.953125 -16.375 C 2.472656 -17.9375 3.25 -19.085938 4.28125 -19.828125 C 5.320312 -20.566406 6.691406 -20.9375 8.390625 -20.9375 C 10.828125 -20.9375 12.613281 -20.050781 13.75 -18.28125 C 14.882812 -16.519531 15.453125 -13.867188 15.453125 -10.328125 Z M 11.3125 -10.328125 C 11.3125 -12.222656 11.21875 -13.695312 11.03125 -14.75 C 10.851562 -15.8125 10.554688 -16.570312 10.140625 -17.03125 C 9.734375 -17.488281 9.140625 -17.71875 8.359375 -17.71875 C 7.523438 -17.71875 6.894531 -17.484375 6.46875 -17.015625 C 6.050781 -16.554688 5.75 -15.800781 5.5625 -14.75 C 5.382812 -13.695312 5.296875 -12.222656 5.296875 -10.328125 C 5.296875 -8.441406 5.390625 -6.96875 5.578125 -5.90625 C 5.773438 -4.84375 6.078125 -4.082031 6.484375 -3.625 C 6.898438 -3.164062 7.503906 -2.9375 8.296875 -2.9375 C 9.078125 -2.9375 9.679688 -3.175781 10.109375 -3.65625 C 10.535156 -4.144531 10.84375 -4.921875 11.03125 -5.984375 C 11.21875 -7.046875 11.3125 -8.492188 11.3125 -10.328125 Z M 11.3125 -10.328125 "/></g></g><g transform="translate(564.618817, 197.42923)"><g><path d="M 15.453125 -10.328125 C 15.453125 -6.835938 14.851562 -4.191406 13.65625 -2.390625 C 12.457031 -0.597656 10.660156 0.296875 8.265625 0.296875 C 3.546875 0.296875 1.1875 -3.242188 1.1875 -10.328125 C 1.1875 -12.796875 1.441406 -14.8125 1.953125 -16.375 C 2.472656 -17.9375 3.25 -19.085938 4.28125 -19.828125 C 5.320312 -20.566406 6.691406 -20.9375 8.390625 -20.9375 C 10.828125 -20.9375 12.613281 -20.050781 13.75 -18.28125 C 14.882812 -16.519531 15.453125 -13.867188 15.453125 -10.328125 Z M 11.3125 -10.328125 C 11.3125 -12.222656 11.21875 -13.695312 11.03125 -14.75 C 10.851562 -15.8125 10.554688 -16.570312 10.140625 -17.03125 C 9.734375 -17.488281 9.140625 -17.71875 8.359375 -17.71875 C 7.523438 -17.71875 6.894531 -17.484375 6.46875 -17.015625 C 6.050781 -16.554688 5.75 -15.800781 5.5625 -14.75 C 5.382812 -13.695312 5.296875 -12.222656 5.296875 -10.328125 C 5.296875 -8.441406 5.390625 -6.96875 5.578125 -5.90625 C 5.773438 -4.84375 6.078125 -4.082031 6.484375 -3.625 C 6.898438 -3.164062 7.503906 -2.9375 8.296875 -2.9375 C 9.078125 -2.9375 9.679688 -3.175781 10.109375 -3.65625 C 10.535156 -4.144531 10.84375 -4.921875 11.03125 -5.984375 C 11.21875 -7.046875 11.3125 -8.492188 11.3125 -10.328125 Z M 11.3125 -10.328125 "/></g></g><g transform="translate(581.294697, 197.42923)"><g><path d="M 1.890625 0 L 1.890625 -3.0625 L 7 -3.0625 L 7 -17.125 L 2.046875 -14.046875 L 2.046875 -17.28125 L 7.21875 -20.625 L 11.109375 -20.625 L 11.109375 -3.0625 L 15.84375 -3.0625 L 15.84375 0 Z M 1.890625 0 "/></g></g></g><g clip-path="url(#0b1623bccd)"><path fill="#f2f2f2" d="M 466.984375 229.3125 L 653.636719 229.3125 L 653.636719 296.777344 L 466.984375 296.777344 Z M 466.984375 229.3125 " fill-opacity="1" fill-rule="nonzero"/></g><g clip-path="url(#574578839e)"><g clip-path="url(#b9703952f6)"><g mask="url(#42aff8d834)"><g transform="matrix(1, 0, 0, 1, 670, 153)"><g clip-path="url(#daac4f0725)"><g clip-path="url(#a28175179c)"><g clip-path="url(#d2205258f8)"><path fill="#03e313" d="M 0.679688 0.953125 L 98.128906 0.953125 L 98.128906 62.417969 L 0.679688 62.417969 Z M 0.679688 0.953125 " fill-opacity="1" fill-rule="nonzero"/></g></g></g></g></g></g></g><g clip-path="url(#b0000e4f45)"><path fill="#d9d9d9" d="M 784.703125 150.617188 L 971.355469 150.617188 L 971.355469 218.082031 L 784.703125 218.082031 Z M 784.703125 150.617188 " fill-opacity="1" fill-rule="nonzero"/></g><g clip-path="url(#a860f28cf0)"><path fill="#d9d9d9" d="M 980.527344 75.257812 L 1167.179688 75.257812 L 1167.179688 142.722656 L 980.527344 142.722656 Z M 980.527344 75.257812 " fill-opacity="1" fill-rule="nonzero"/></g><g clip-path="url(#996e627613)"><g mask="url(#3811626686)"><g transform="matrix(1, 0, 0, 1, 980, 150)"><g clip-path="url(#4651595b97)"><g clip-path="url(#8b42b02965)"><path fill="#03e313" d="M 0.527344 0.617188 L 187.179688 0.617188 L 187.179688 68.082031 L 0.527344 68.082031 Z M 0.527344 0.617188 " fill-opacity="1" fill-rule="nonzero"/></g></g></g></g></g><g fill="#808080" fill-opacity="1"><g transform="translate(1065.668065, 194.095766)"><g><path d="M 1.890625 0 L 1.890625 -3.0625 L 7 -3.0625 L 7 -17.125 L 2.046875 -14.046875 L 2.046875 -17.28125 L 7.21875 -20.625 L 11.109375 -20.625 L 11.109375 -3.0625 L 15.84375 -3.0625 L 15.84375 0 Z M 1.890625 0 "/></g></g></g><g clip-path="url(#46323172d9)"><path fill="#d9d9d9" d="M 784.703125 225.980469 L 971.355469 225.980469 L 971.355469 293.445312 L 784.703125 293.445312 Z M 784.703125 225.980469 " fill-opacity="1" fill-rule="nonzero"/></g><g clip-path="url(#a061081d60)"><path fill="#f2f2f2" d="M 980.527344 225.980469 L 1167.179688 225.980469 L 1167.179688 293.445312 L 980.527344 293.445312 Z M 980.527344 225.980469 " fill-opacity="1" fill-rule="nonzero"/></g><g clip-path="url(#9726018efe)"><path fill="#d9d9d9" d="M 1176.355469 75.257812 L 1363.007812 75.257812 L 1363.007812 142.722656 L 1176.355469 142.722656 Z M 1176.355469 75.257812 " fill-opacity="1" fill-rule="nonzero"/></g><g clip-path="url(#7ca3894202)"><g mask="url(#8caafc5c1b)"><g transform="matrix(1, 0, 0, 1, 1176, 150)"><g clip-path="url(#a62b7fce2c)"><g clip-path="url(#14612286a7)"><path fill="#03e313" d="M 0.355469 0.617188 L 187.007812 0.617188 L 187.007812 68.082031 L 0.355469 68.082031 Z M 0.355469 0.617188 " fill-opacity="1" fill-rule="nonzero"/></g></g></g></g></g><g fill="#808080" fill-opacity="1"><g transform="translate(1261.493563, 194.095766)"><g><path d="M 1.890625 0 L 1.890625 -3.0625 L 7 -3.0625 L 7 -17.125 L 2.046875 -14.046875 L 2.046875 -17.28125 L 7.21875 -20.625 L 11.109375 -20.625 L 11.109375 -3.0625 L 15.84375 -3.0625 L 15.84375 0 Z M 1.890625 0 "/></g></g></g><g clip-path="url(#a0af912619)"><path fill="#f2f2f2" d="M 1176.355469 225.980469 L 1363.007812 225.980469 L 1363.007812 293.445312 L 1176.355469 293.445312 Z M 1176.355469 225.980469 " fill-opacity="1" fill-rule="nonzero"/></g><g clip-path="url(#60cc696083)"><g mask="url(#f5b8074cba)"><g transform="matrix(1, 0, 0, 1, 271, 153)"><g clip-path="url(#c4fd1673db)"><g clip-path="url(#63ad503a5a)"><path fill="#ffc000" d="M 0.160156 0.953125 L 186.8125 0.953125 L 186.8125 68.417969 L 0.160156 68.417969 Z M 0.160156 0.953125 " fill-opacity="1" fill-rule="nonzero"/></g></g></g></g></g><g fill="#808080" fill-opacity="1"><g transform="translate(327.110748, 197.42923)"><g><path d="M 1.890625 0 L 1.890625 -3.0625 L 7 -3.0625 L 7 -17.125 L 2.046875 -14.046875 L 2.046875 -17.28125 L 7.21875 -20.625 L 11.109375 -20.625 L 11.109375 -3.0625 L 15.84375 -3.0625 L 15.84375 0 Z M 1.890625 0 "/></g></g><g transform="translate(343.786628, 197.42923)"><g><path d="M 2.03125 0 L 2.03125 -4.46875 L 6.265625 -4.46875 L 6.265625 0 Z M 2.03125 0 "/></g></g><g transform="translate(352.117247, 197.42923)"><g><path d="M 15.5625 -10.640625 C 15.5625 -6.984375 14.890625 -4.242188 13.546875 -2.421875 C 12.210938 -0.609375 10.316406 0.296875 7.859375 0.296875 C 6.046875 0.296875 4.625 -0.0859375 3.59375 -0.859375 C 2.5625 -1.640625 1.832031 -2.867188 1.40625 -4.546875 L 5.265625 -5.09375 C 5.648438 -3.65625 6.53125 -2.9375 7.90625 -2.9375 C 9.0625 -2.9375 9.945312 -3.488281 10.5625 -4.59375 C 11.1875 -5.695312 11.503906 -7.332031 11.515625 -9.5 C 11.148438 -8.769531 10.546875 -8.195312 9.703125 -7.78125 C 8.859375 -7.363281 7.945312 -7.15625 6.96875 -7.15625 C 5.15625 -7.15625 3.710938 -7.769531 2.640625 -9 C 1.578125 -10.238281 1.046875 -11.914062 1.046875 -14.03125 C 1.046875 -16.195312 1.671875 -17.890625 2.921875 -19.109375 C 4.171875 -20.328125 5.945312 -20.9375 8.25 -20.9375 C 10.71875 -20.9375 12.550781 -20.078125 13.75 -18.359375 C 14.957031 -16.648438 15.5625 -14.078125 15.5625 -10.640625 Z M 11.21875 -13.53125 C 11.21875 -14.8125 10.9375 -15.828125 10.375 -16.578125 C 9.8125 -17.335938 9.066406 -17.71875 8.140625 -17.71875 C 7.234375 -17.71875 6.519531 -17.382812 6 -16.71875 C 5.476562 -16.0625 5.21875 -15.15625 5.21875 -14 C 5.21875 -12.851562 5.472656 -11.9375 5.984375 -11.25 C 6.503906 -10.5625 7.226562 -10.21875 8.15625 -10.21875 C 9.03125 -10.21875 9.757812 -10.515625 10.34375 -11.109375 C 10.925781 -11.710938 11.21875 -12.519531 11.21875 -13.53125 Z M 11.21875 -13.53125 "/></g></g><g transform="translate(368.793127, 197.42923)"><g><path d="M 15.5625 -10.640625 C 15.5625 -6.984375 14.890625 -4.242188 13.546875 -2.421875 C 12.210938 -0.609375 10.316406 0.296875 7.859375 0.296875 C 6.046875 0.296875 4.625 -0.0859375 3.59375 -0.859375 C 2.5625 -1.640625 1.832031 -2.867188 1.40625 -4.546875 L 5.265625 -5.09375 C 5.648438 -3.65625 6.53125 -2.9375 7.90625 -2.9375 C 9.0625 -2.9375 9.945312 -3.488281 10.5625 -4.59375 C 11.1875 -5.695312 11.503906 -7.332031 11.515625 -9.5 C 11.148438 -8.769531 10.546875 -8.195312 9.703125 -7.78125 C 8.859375 -7.363281 7.945312 -7.15625 6.96875 -7.15625 C 5.15625 -7.15625 3.710938 -7.769531 2.640625 -9 C 1.578125 -10.238281 1.046875 -11.914062 1.046875 -14.03125 C 1.046875 -16.195312 1.671875 -17.890625 2.921875 -19.109375 C 4.171875 -20.328125 5.945312 -20.9375 8.25 -20.9375 C 10.71875 -20.9375 12.550781 -20.078125 13.75 -18.359375 C 14.957031 -16.648438 15.5625 -14.078125 15.5625 -10.640625 Z M 11.21875 -13.53125 C 11.21875 -14.8125 10.9375 -15.828125 10.375 -16.578125 C 9.8125 -17.335938 9.066406 -17.71875 8.140625 -17.71875 C 7.234375 -17.71875 6.519531 -17.382812 6 -16.71875 C 5.476562 -16.0625 5.21875 -15.15625 5.21875 -14 C 5.21875 -12.851562 5.472656 -11.9375 5.984375 -11.25 C 6.503906 -10.5625 7.226562 -10.21875 8.15625 -10.21875 C 9.03125 -10.21875 9.757812 -10.515625 10.34375 -11.109375 C 10.925781 -11.710938 11.21875 -12.519531 11.21875 -13.53125 Z M 11.21875 -13.53125 "/></g></g><g transform="translate(385.469006, 197.42923)"><g><path d="M 15.5625 -10.640625 C 15.5625 -6.984375 14.890625 -4.242188 13.546875 -2.421875 C 12.210938 -0.609375 10.316406 0.296875 7.859375 0.296875 C 6.046875 0.296875 4.625 -0.0859375 3.59375 -0.859375 C 2.5625 -1.640625 1.832031 -2.867188 1.40625 -4.546875 L 5.265625 -5.09375 C 5.648438 -3.65625 6.53125 -2.9375 7.90625 -2.9375 C 9.0625 -2.9375 9.945312 -3.488281 10.5625 -4.59375 C 11.1875 -5.695312 11.503906 -7.332031 11.515625 -9.5 C 11.148438 -8.769531 10.546875 -8.195312 9.703125 -7.78125 C 8.859375 -7.363281 7.945312 -7.15625 6.96875 -7.15625 C 5.15625 -7.15625 3.710938 -7.769531 2.640625 -9 C 1.578125 -10.238281 1.046875 -11.914062 1.046875 -14.03125 C 1.046875 -16.195312 1.671875 -17.890625 2.921875 -19.109375 C 4.171875 -20.328125 5.945312 -20.9375 8.25 -20.9375 C 10.71875 -20.9375 12.550781 -20.078125 13.75 -18.359375 C 14.957031 -16.648438 15.5625 -14.078125 15.5625 -10.640625 Z M 11.21875 -13.53125 C 11.21875 -14.8125 10.9375 -15.828125 10.375 -16.578125 C 9.8125 -17.335938 9.066406 -17.71875 8.140625 -17.71875 C 7.234375 -17.71875 6.519531 -17.382812 6 -16.71875 C 5.476562 -16.0625 5.21875 -15.15625 5.21875 -14 C 5.21875 -12.851562 5.472656 -11.9375 5.984375 -11.25 C 6.503906 -10.5625 7.226562 -10.21875 8.15625 -10.21875 C 9.03125 -10.21875 9.757812 -10.515625 10.34375 -11.109375 C 10.925781 -11.710938 11.21875 -12.519531 11.21875 -13.53125 Z M 11.21875 -13.53125 "/></g></g></g></svg>