<svg xmlns="http://www.w3.org/2000/svg" xmlns:xlink="http://www.w3.org/1999/xlink" width="877" zoomAndPan="magnify" viewBox="0 0 657.75 449.249995" height="599" preserveAspectRatio="xMidYMid meet" version="1.0"><defs><filter x="0%" y="0%" width="100%" height="100%" id="5c5dbeb5c4"><feColorMatrix values="0 0 0 0 1 0 0 0 0 1 0 0 0 0 1 0 0 0 1 0" color-interpolation-filters="sRGB"/></filter><g/><clipPath id="54a969d601"><path d="M 127.230469 75.117188 L 242 75.117188 L 242 116.445312 L 127.230469 116.445312 Z M 127.230469 75.117188 " clip-rule="nonzero"/></clipPath><clipPath id="8076ed5140"><path d="M 246.296875 75.117188 L 352.472656 75.117188 L 352.472656 116.445312 L 246.296875 116.445312 Z M 246.296875 75.117188 " clip-rule="nonzero"/></clipPath><clipPath id="ba85cc0057"><path d="M 135.875 121.027344 L 242.050781 121.027344 L 242.050781 159.25 L 135.875 159.25 Z M 135.875 121.027344 " clip-rule="nonzero"/></clipPath><clipPath id="fb99bcb867"><path d="M 246.296875 121.027344 L 352.472656 121.027344 L 352.472656 159.25 L 246.296875 159.25 Z M 246.296875 121.027344 " clip-rule="nonzero"/></clipPath><clipPath id="c32ee8398a"><path d="M 356.714844 75.117188 L 462.890625 75.117188 L 462.890625 116.445312 L 356.714844 116.445312 Z M 356.714844 75.117188 " clip-rule="nonzero"/></clipPath><clipPath id="8cc2b3af25"><path d="M 467.136719 75.117188 L 581.957031 75.117188 L 581.957031 116.445312 L 467.136719 116.445312 Z M 467.136719 75.117188 " clip-rule="nonzero"/></clipPath><clipPath id="dec5823183"><path d="M 356.714844 121.027344 L 462.890625 121.027344 L 462.890625 159.25 L 356.714844 159.25 Z M 356.714844 121.027344 " clip-rule="nonzero"/></clipPath><clipPath id="471c8f7cc2"><path d="M 467.136719 121.027344 L 573.3125 121.027344 L 573.3125 159.25 L 467.136719 159.25 Z M 467.136719 121.027344 " clip-rule="nonzero"/></clipPath><clipPath id="0d5aee2b76"><path d="M 135.875 163.828125 L 242.050781 163.828125 L 242.050781 202.050781 L 135.875 202.050781 Z M 135.875 163.828125 " clip-rule="nonzero"/></clipPath><mask id="524a877253"><g filter="url(#5c5dbeb5c4)"><rect x="-65.775" width="789.3" fill="#000000" y="-44.924999" height="539.099994" fill-opacity="0.498"/></g></mask><clipPath id="e1f6f9b1cc"><path d="M 0.875 0.828125 L 107.050781 0.828125 L 107.050781 39.050781 L 0.875 39.050781 Z M 0.875 0.828125 " clip-rule="nonzero"/></clipPath><clipPath id="7d63f23ab9"><rect x="0" width="108" y="0" height="40"/></clipPath><clipPath id="2b4126fcd7"><path d="M 246.296875 163.828125 L 352.472656 163.828125 L 352.472656 202.050781 L 246.296875 202.050781 Z M 246.296875 163.828125 " clip-rule="nonzero"/></clipPath><mask id="8feef0aafc"><g filter="url(#5c5dbeb5c4)"><rect x="-65.775" width="789.3" fill="#000000" y="-44.924999" height="539.099994" fill-opacity="0.349"/></g></mask><clipPath id="2ad5fcb151"><path d="M 0.296875 0.828125 L 106.472656 0.828125 L 106.472656 39.050781 L 0.296875 39.050781 Z M 0.296875 0.828125 " clip-rule="nonzero"/></clipPath><clipPath id="93255772a5"><rect x="0" width="107" y="0" height="40"/></clipPath><clipPath id="e99324a3d6"><path d="M 135.875 206.628906 L 242.050781 206.628906 L 242.050781 244.851562 L 135.875 244.851562 Z M 135.875 206.628906 " clip-rule="nonzero"/></clipPath><mask id="5701058cb9"><g filter="url(#5c5dbeb5c4)"><rect x="-65.775" width="789.3" fill="#000000" y="-44.924999" height="539.099994" fill-opacity="0.498"/></g></mask><clipPath id="fa905fb13b"><path d="M 0.875 0.628906 L 107.050781 0.628906 L 107.050781 38.851562 L 0.875 38.851562 Z M 0.875 0.628906 " clip-rule="nonzero"/></clipPath><clipPath id="0548b67604"><rect x="0" width="108" y="0" height="39"/></clipPath><clipPath id="a540cf912c"><path d="M 246.296875 206.628906 L 352.472656 206.628906 L 352.472656 244.851562 L 246.296875 244.851562 Z M 246.296875 206.628906 " clip-rule="nonzero"/></clipPath><mask id="be0c4b49f4"><g filter="url(#5c5dbeb5c4)"><rect x="-65.775" width="789.3" fill="#000000" y="-44.924999" height="539.099994" fill-opacity="0.349"/></g></mask><clipPath id="fc39b8b482"><path d="M 0.296875 0.628906 L 106.472656 0.628906 L 106.472656 38.851562 L 0.296875 38.851562 Z M 0.296875 0.628906 " clip-rule="nonzero"/></clipPath><clipPath id="4fc3cf836e"><rect x="0" width="107" y="0" height="39"/></clipPath><clipPath id="a1bfa47543"><path d="M 356.714844 163.828125 L 462.890625 163.828125 L 462.890625 202.050781 L 356.714844 202.050781 Z M 356.714844 163.828125 " clip-rule="nonzero"/></clipPath><mask id="a585e8f697"><g filter="url(#5c5dbeb5c4)"><rect x="-65.775" width="789.3" fill="#000000" y="-44.924999" height="539.099994" fill-opacity="0.349"/></g></mask><clipPath id="3e0c51477b"><path d="M 0.714844 0.828125 L 106.890625 0.828125 L 106.890625 39.050781 L 0.714844 39.050781 Z M 0.714844 0.828125 " clip-rule="nonzero"/></clipPath><clipPath id="add4362cf1"><rect x="0" width="107" y="0" height="40"/></clipPath><clipPath id="f99f72ae74"><path d="M 467.136719 163.828125 L 573.3125 163.828125 L 573.3125 202.050781 L 467.136719 202.050781 Z M 467.136719 163.828125 " clip-rule="nonzero"/></clipPath><mask id="8211b830f3"><g filter="url(#5c5dbeb5c4)"><rect x="-65.775" width="789.3" fill="#000000" y="-44.924999" height="539.099994" fill-opacity="0.349"/></g></mask><clipPath id="3bee284232"><path d="M 0.136719 0.828125 L 106.3125 0.828125 L 106.3125 39.050781 L 0.136719 39.050781 Z M 0.136719 0.828125 " clip-rule="nonzero"/></clipPath><clipPath id="1382251d64"><rect x="0" width="107" y="0" height="40"/></clipPath><clipPath id="28fc3b2f7b"><path d="M 356.714844 206.628906 L 462.890625 206.628906 L 462.890625 244.851562 L 356.714844 244.851562 Z M 356.714844 206.628906 " clip-rule="nonzero"/></clipPath><mask id="e2df72ea8a"><g filter="url(#5c5dbeb5c4)"><rect x="-65.775" width="789.3" fill="#000000" y="-44.924999" height="539.099994" fill-opacity="0.349"/></g></mask><clipPath id="0030799f75"><path d="M 0.714844 0.628906 L 106.890625 0.628906 L 106.890625 38.851562 L 0.714844 38.851562 Z M 0.714844 0.628906 " clip-rule="nonzero"/></clipPath><clipPath id="e315856b98"><rect x="0" width="107" y="0" height="39"/></clipPath><clipPath id="38b9b500a6"><path d="M 467.136719 206.628906 L 573.3125 206.628906 L 573.3125 244.851562 L 467.136719 244.851562 Z M 467.136719 206.628906 " clip-rule="nonzero"/></clipPath><mask id="09063d2083"><g filter="url(#5c5dbeb5c4)"><rect x="-65.775" width="789.3" fill="#000000" y="-44.924999" height="539.099994" fill-opacity="0.349"/></g></mask><clipPath id="6f97109ad9"><path d="M 0.136719 0.628906 L 106.3125 0.628906 L 106.3125 38.851562 L 0.136719 38.851562 Z M 0.136719 0.628906 " clip-rule="nonzero"/></clipPath><clipPath id="a7f8f39c70"><rect x="0" width="107" y="0" height="39"/></clipPath><clipPath id="c50a8cb83e"><path d="M 135.875 249.425781 L 242.050781 249.425781 L 242.050781 287.648438 L 135.875 287.648438 Z M 135.875 249.425781 " clip-rule="nonzero"/></clipPath><clipPath id="805c659067"><path d="M 246.296875 249.425781 L 352.472656 249.425781 L 352.472656 287.648438 L 246.296875 287.648438 Z M 246.296875 249.425781 " clip-rule="nonzero"/></clipPath><clipPath id="601d26e4a5"><path d="M 356.714844 249.425781 L 462.890625 249.425781 L 462.890625 287.648438 L 356.714844 287.648438 Z M 356.714844 249.425781 " clip-rule="nonzero"/></clipPath><clipPath id="c3c485dfd3"><path d="M 467.136719 249.425781 L 573.3125 249.425781 L 573.3125 287.648438 L 467.136719 287.648438 Z M 467.136719 249.425781 " clip-rule="nonzero"/></clipPath><clipPath id="9c0b927390"><path d="M 135.875 292.226562 L 242.050781 292.226562 L 242.050781 330.449219 L 135.875 330.449219 Z M 135.875 292.226562 " clip-rule="nonzero"/></clipPath><mask id="f26af09e47"><g filter="url(#5c5dbeb5c4)"><rect x="-65.775" width="789.3" fill="#000000" y="-44.924999" height="539.099994" fill-opacity="0.498"/></g></mask><clipPath id="a43870e85a"><path d="M 0.875 0.226562 L 107.050781 0.226562 L 107.050781 38.449219 L 0.875 38.449219 Z M 0.875 0.226562 " clip-rule="nonzero"/></clipPath><clipPath id="c94ebcc84d"><rect x="0" width="108" y="0" height="39"/></clipPath><clipPath id="272fd27878"><path d="M 246.296875 292.226562 L 352.472656 292.226562 L 352.472656 330.449219 L 246.296875 330.449219 Z M 246.296875 292.226562 " clip-rule="nonzero"/></clipPath><mask id="c113538997"><g filter="url(#5c5dbeb5c4)"><rect x="-65.775" width="789.3" fill="#000000" y="-44.924999" height="539.099994" fill-opacity="0.349"/></g></mask><clipPath id="3b833306bc"><path d="M 0.296875 0.226562 L 106.472656 0.226562 L 106.472656 38.449219 L 0.296875 38.449219 Z M 0.296875 0.226562 " clip-rule="nonzero"/></clipPath><clipPath id="fda835d92b"><rect x="0" width="107" y="0" height="39"/></clipPath><clipPath id="3ab16bd0e0"><path d="M 356.714844 292.226562 L 462.890625 292.226562 L 462.890625 330.449219 L 356.714844 330.449219 Z M 356.714844 292.226562 " clip-rule="nonzero"/></clipPath><mask id="7bca51eafc"><g filter="url(#5c5dbeb5c4)"><rect x="-65.775" width="789.3" fill="#000000" y="-44.924999" height="539.099994" fill-opacity="0.349"/></g></mask><clipPath id="bfa0ec24d3"><path d="M 0.714844 0.226562 L 106.890625 0.226562 L 106.890625 38.449219 L 0.714844 38.449219 Z M 0.714844 0.226562 " clip-rule="nonzero"/></clipPath><clipPath id="8d5791342b"><rect x="0" width="107" y="0" height="39"/></clipPath><clipPath id="6f6dda62dd"><path d="M 467.136719 292.226562 L 573.3125 292.226562 L 573.3125 330.449219 L 467.136719 330.449219 Z M 467.136719 292.226562 " clip-rule="nonzero"/></clipPath><mask id="2f7822ba80"><g filter="url(#5c5dbeb5c4)"><rect x="-65.775" width="789.3" fill="#000000" y="-44.924999" height="539.099994" fill-opacity="0.349"/></g></mask><clipPath id="2c345413d8"><path d="M 0.136719 0.226562 L 106.3125 0.226562 L 106.3125 38.449219 L 0.136719 38.449219 Z M 0.136719 0.226562 " clip-rule="nonzero"/></clipPath><clipPath id="37f8038e31"><rect x="0" width="107" y="0" height="39"/></clipPath><clipPath id="ed17cabb12"><path d="M 135.875 335.027344 L 242.050781 335.027344 L 242.050781 373.25 L 135.875 373.25 Z M 135.875 335.027344 " clip-rule="nonzero"/></clipPath><clipPath id="40c66895e4"><path d="M 246.296875 335.027344 L 352.472656 335.027344 L 352.472656 373.25 L 246.296875 373.25 Z M 246.296875 335.027344 " clip-rule="nonzero"/></clipPath><clipPath id="cd7cc852bf"><path d="M 356.714844 335.027344 L 462.890625 335.027344 L 462.890625 373.25 L 356.714844 373.25 Z M 356.714844 335.027344 " clip-rule="nonzero"/></clipPath><clipPath id="c5986a4787"><path d="M 467.136719 335.027344 L 573.3125 335.027344 L 573.3125 373.25 L 467.136719 373.25 Z M 467.136719 335.027344 " clip-rule="nonzero"/></clipPath></defs><g clip-path="url(#54a969d601)"><path fill="#d9d9d9" d="M 127.230469 75.117188 L 241.832031 75.117188 L 241.832031 116.3125 L 127.230469 116.3125 Z M 127.230469 75.117188 " fill-opacity="1" fill-rule="nonzero"/></g><g clip-path="url(#8076ed5140)"><path fill="#d9d9d9" d="M 246.296875 75.117188 L 352.660156 75.117188 L 352.660156 116.3125 L 246.296875 116.3125 Z M 246.296875 75.117188 " fill-opacity="1" fill-rule="nonzero"/></g><g clip-path="url(#ba85cc0057)"><path fill="#d9d9d9" d="M 135.875 121.027344 L 242.238281 121.027344 L 242.238281 159.226562 L 135.875 159.226562 Z M 135.875 121.027344 " fill-opacity="1" fill-rule="nonzero"/></g><g clip-path="url(#fb99bcb867)"><path fill="#f2f2f2" d="M 246.296875 121.027344 L 352.660156 121.027344 L 352.660156 159.226562 L 246.296875 159.226562 Z M 246.296875 121.027344 " fill-opacity="1" fill-rule="nonzero"/></g><g clip-path="url(#c32ee8398a)"><path fill="#d9d9d9" d="M 356.714844 75.117188 L 463.078125 75.117188 L 463.078125 116.3125 L 356.714844 116.3125 Z M 356.714844 75.117188 " fill-opacity="1" fill-rule="nonzero"/></g><g clip-path="url(#8cc2b3af25)"><path fill="#d9d9d9" d="M 467.136719 75.117188 L 581.738281 75.117188 L 581.738281 116.3125 L 467.136719 116.3125 Z M 467.136719 75.117188 " fill-opacity="1" fill-rule="nonzero"/></g><g clip-path="url(#dec5823183)"><path fill="#f2f2f2" d="M 356.714844 121.027344 L 463.078125 121.027344 L 463.078125 159.226562 L 356.714844 159.226562 Z M 356.714844 121.027344 " fill-opacity="1" fill-rule="nonzero"/></g><g clip-path="url(#471c8f7cc2)"><path fill="#f2f2f2" d="M 467.136719 121.027344 L 573.5 121.027344 L 573.5 159.226562 L 467.136719 159.226562 Z M 467.136719 121.027344 " fill-opacity="1" fill-rule="nonzero"/></g><g clip-path="url(#0d5aee2b76)"><g mask="url(#524a877253)"><g transform="matrix(1, 0, 0, 1, 135, 163)"><g clip-path="url(#7d63f23ab9)"><g clip-path="url(#e1f6f9b1cc)"><path fill="#03e313" d="M 0.875 0.828125 L 107.238281 0.828125 L 107.238281 39.027344 L 0.875 39.027344 Z M 0.875 0.828125 " fill-opacity="1" fill-rule="nonzero"/></g></g></g></g></g><g clip-path="url(#2b4126fcd7)"><g mask="url(#8feef0aafc)"><g transform="matrix(1, 0, 0, 1, 246, 163)"><g clip-path="url(#93255772a5)"><g clip-path="url(#2ad5fcb151)"><path fill="#03e313" d="M 0.296875 0.828125 L 106.660156 0.828125 L 106.660156 39.027344 L 0.296875 39.027344 Z M 0.296875 0.828125 " fill-opacity="1" fill-rule="nonzero"/></g></g></g></g></g><g clip-path="url(#e99324a3d6)"><g mask="url(#5701058cb9)"><g transform="matrix(1, 0, 0, 1, 135, 206)"><g clip-path="url(#0548b67604)"><g clip-path="url(#fa905fb13b)"><path fill="#03e313" d="M 0.875 0.628906 L 107.238281 0.628906 L 107.238281 38.828125 L 0.875 38.828125 Z M 0.875 0.628906 " fill-opacity="1" fill-rule="nonzero"/></g></g></g></g></g><g clip-path="url(#a540cf912c)"><g mask="url(#be0c4b49f4)"><g transform="matrix(1, 0, 0, 1, 246, 206)"><g clip-path="url(#4fc3cf836e)"><g clip-path="url(#fc39b8b482)"><path fill="#03e313" d="M 0.296875 0.628906 L 106.660156 0.628906 L 106.660156 38.828125 L 0.296875 38.828125 Z M 0.296875 0.628906 " fill-opacity="1" fill-rule="nonzero"/></g></g></g></g></g><g clip-path="url(#a1bfa47543)"><g mask="url(#a585e8f697)"><g transform="matrix(1, 0, 0, 1, 356, 163)"><g clip-path="url(#add4362cf1)"><g clip-path="url(#3e0c51477b)"><path fill="#03e313" d="M 0.714844 0.828125 L 107.078125 0.828125 L 107.078125 39.027344 L 0.714844 39.027344 Z M 0.714844 0.828125 " fill-opacity="1" fill-rule="nonzero"/></g></g></g></g></g><g clip-path="url(#f99f72ae74)"><g mask="url(#8211b830f3)"><g transform="matrix(1, 0, 0, 1, 467, 163)"><g clip-path="url(#1382251d64)"><g clip-path="url(#3bee284232)"><path fill="#03e313" d="M 0.136719 0.828125 L 106.5 0.828125 L 106.5 39.027344 L 0.136719 39.027344 Z M 0.136719 0.828125 " fill-opacity="1" fill-rule="nonzero"/></g></g></g></g></g><g clip-path="url(#28fc3b2f7b)"><g mask="url(#e2df72ea8a)"><g transform="matrix(1, 0, 0, 1, 356, 206)"><g clip-path="url(#e315856b98)"><g clip-path="url(#0030799f75)"><path fill="#03e313" d="M 0.714844 0.628906 L 107.078125 0.628906 L 107.078125 38.828125 L 0.714844 38.828125 Z M 0.714844 0.628906 " fill-opacity="1" fill-rule="nonzero"/></g></g></g></g></g><g clip-path="url(#38b9b500a6)"><g mask="url(#09063d2083)"><g transform="matrix(1, 0, 0, 1, 467, 206)"><g clip-path="url(#a7f8f39c70)"><g clip-path="url(#6f97109ad9)"><path fill="#03e313" d="M 0.136719 0.628906 L 106.5 0.628906 L 106.5 38.828125 L 0.136719 38.828125 Z M 0.136719 0.628906 " fill-opacity="1" fill-rule="nonzero"/></g></g></g></g></g><g clip-path="url(#c50a8cb83e)"><path fill="#d9d9d9" d="M 135.875 249.425781 L 242.238281 249.425781 L 242.238281 287.628906 L 135.875 287.628906 Z M 135.875 249.425781 " fill-opacity="1" fill-rule="nonzero"/></g><g clip-path="url(#805c659067)"><path fill="#f2f2f2" d="M 246.296875 249.425781 L 352.660156 249.425781 L 352.660156 287.628906 L 246.296875 287.628906 Z M 246.296875 249.425781 " fill-opacity="1" fill-rule="nonzero"/></g><g clip-path="url(#601d26e4a5)"><path fill="#f2f2f2" d="M 356.714844 249.425781 L 463.078125 249.425781 L 463.078125 287.628906 L 356.714844 287.628906 Z M 356.714844 249.425781 " fill-opacity="1" fill-rule="nonzero"/></g><g clip-path="url(#c3c485dfd3)"><path fill="#f2f2f2" d="M 467.136719 249.425781 L 573.5 249.425781 L 573.5 287.628906 L 467.136719 287.628906 Z M 467.136719 249.425781 " fill-opacity="1" fill-rule="nonzero"/></g><g clip-path="url(#9c0b927390)"><g mask="url(#f26af09e47)"><g transform="matrix(1, 0, 0, 1, 135, 292)"><g clip-path="url(#c94ebcc84d)"><g clip-path="url(#a43870e85a)"><path fill="#03e313" d="M 0.875 0.226562 L 107.238281 0.226562 L 107.238281 38.425781 L 0.875 38.425781 Z M 0.875 0.226562 " fill-opacity="1" fill-rule="nonzero"/></g></g></g></g></g><g clip-path="url(#272fd27878)"><g mask="url(#c113538997)"><g transform="matrix(1, 0, 0, 1, 246, 292)"><g clip-path="url(#fda835d92b)"><g clip-path="url(#3b833306bc)"><path fill="#03e313" d="M 0.296875 0.226562 L 106.660156 0.226562 L 106.660156 38.425781 L 0.296875 38.425781 Z M 0.296875 0.226562 " fill-opacity="1" fill-rule="nonzero"/></g></g></g></g></g><g clip-path="url(#3ab16bd0e0)"><g mask="url(#7bca51eafc)"><g transform="matrix(1, 0, 0, 1, 356, 292)"><g clip-path="url(#8d5791342b)"><g clip-path="url(#bfa0ec24d3)"><path fill="#03e313" d="M 0.714844 0.226562 L 107.078125 0.226562 L 107.078125 38.425781 L 0.714844 38.425781 Z M 0.714844 0.226562 " fill-opacity="1" fill-rule="nonzero"/></g></g></g></g></g><g clip-path="url(#6f6dda62dd)"><g mask="url(#2f7822ba80)"><g transform="matrix(1, 0, 0, 1, 467, 292)"><g clip-path="url(#37f8038e31)"><g clip-path="url(#2c345413d8)"><path fill="#03e313" d="M 0.136719 0.226562 L 106.5 0.226562 L 106.5 38.425781 L 0.136719 38.425781 Z M 0.136719 0.226562 " fill-opacity="1" fill-rule="nonzero"/></g></g></g></g></g><g clip-path="url(#ed17cabb12)"><path fill="#d9d9d9" d="M 135.875 335.027344 L 242.238281 335.027344 L 242.238281 373.226562 L 135.875 373.226562 Z M 135.875 335.027344 " fill-opacity="1" fill-rule="nonzero"/></g><g clip-path="url(#40c66895e4)"><path fill="#f2f2f2" d="M 246.296875 335.027344 L 352.660156 335.027344 L 352.660156 373.226562 L 246.296875 373.226562 Z M 246.296875 335.027344 " fill-opacity="1" fill-rule="nonzero"/></g><g clip-path="url(#cd7cc852bf)"><path fill="#f2f2f2" d="M 356.714844 335.027344 L 463.078125 335.027344 L 463.078125 373.226562 L 356.714844 373.226562 Z M 356.714844 335.027344 " fill-opacity="1" fill-rule="nonzero"/></g><g clip-path="url(#c5986a4787)"><path fill="#f2f2f2" d="M 467.136719 335.027344 L 573.5 335.027344 L 573.5 373.226562 L 467.136719 373.226562 Z M 467.136719 335.027344 " fill-opacity="1" fill-rule="nonzero"/></g><g fill="#767171" fill-opacity="1"><g transform="translate(76.316348, 192.573961)"><g><path d="M 5.96875 -10.453125 C 6.3125 -10.453125 6.570312 -10.171875 6.75 -9.609375 C 7.09375 -8.554688 7.34375 -8.03125 7.5 -8.03125 C 7.601562 -8.03125 7.71875 -8.117188 7.84375 -8.296875 C 10.3125 -11.921875 12.597656 -14.5 14.703125 -16.03125 C 15.585938 -16.6875 16.453125 -17.015625 17.296875 -17.015625 C 18.410156 -17.015625 19.082031 -16.976562 19.3125 -16.90625 C 19.40625 -16.882812 19.453125 -16.773438 19.453125 -16.578125 C 19.453125 -16.421875 19.347656 -16.222656 19.140625 -15.984375 C 13.492188 -9.503906 10.132812 -5.289062 9.0625 -3.34375 C 8.6875 -2.675781 7.832031 -2.34375 6.5 -2.34375 C 6.0625 -2.34375 5.601562 -2.457031 5.125 -2.6875 C 4.914062 -2.789062 4.5625 -3.460938 4.0625 -4.703125 C 3.4375 -6.265625 3.125 -7.632812 3.125 -8.8125 C 3.125 -9.238281 3.429688 -9.59375 4.046875 -9.875 C 4.890625 -10.257812 5.519531 -10.453125 5.9375 -10.453125 Z M 5.96875 -10.453125 "/></g></g></g><g fill="#767171" fill-opacity="1"><g transform="translate(75.785766, 322.366316)"><g><path d="M 5.96875 -10.453125 C 6.3125 -10.453125 6.570312 -10.171875 6.75 -9.609375 C 7.09375 -8.554688 7.34375 -8.03125 7.5 -8.03125 C 7.601562 -8.03125 7.71875 -8.117188 7.84375 -8.296875 C 10.3125 -11.921875 12.597656 -14.5 14.703125 -16.03125 C 15.585938 -16.6875 16.453125 -17.015625 17.296875 -17.015625 C 18.410156 -17.015625 19.082031 -16.976562 19.3125 -16.90625 C 19.40625 -16.882812 19.453125 -16.773438 19.453125 -16.578125 C 19.453125 -16.421875 19.347656 -16.222656 19.140625 -15.984375 C 13.492188 -9.503906 10.132812 -5.289062 9.0625 -3.34375 C 8.6875 -2.675781 7.832031 -2.34375 6.5 -2.34375 C 6.0625 -2.34375 5.601562 -2.457031 5.125 -2.6875 C 4.914062 -2.789062 4.5625 -3.460938 4.0625 -4.703125 C 3.4375 -6.265625 3.125 -7.632812 3.125 -8.8125 C 3.125 -9.238281 3.429688 -9.59375 4.046875 -9.875 C 4.890625 -10.257812 5.519531 -10.453125 5.9375 -10.453125 Z M 5.96875 -10.453125 "/></g></g></g><g fill="#767171" fill-opacity="1"><g transform="translate(75.618029, 236.958104)"><g><path d="M 5.96875 -10.453125 C 6.3125 -10.453125 6.570312 -10.171875 6.75 -9.609375 C 7.09375 -8.554688 7.34375 -8.03125 7.5 -8.03125 C 7.601562 -8.03125 7.71875 -8.117188 7.84375 -8.296875 C 10.3125 -11.921875 12.597656 -14.5 14.703125 -16.03125 C 15.585938 -16.6875 16.453125 -17.015625 17.296875 -17.015625 C 18.410156 -17.015625 19.082031 -16.976562 19.3125 -16.90625 C 19.40625 -16.882812 19.453125 -16.773438 19.453125 -16.578125 C 19.453125 -16.421875 19.347656 -16.222656 19.140625 -15.984375 C 13.492188 -9.503906 10.132812 -5.289062 9.0625 -3.34375 C 8.6875 -2.675781 7.832031 -2.34375 6.5 -2.34375 C 6.0625 -2.34375 5.601562 -2.457031 5.125 -2.6875 C 4.914062 -2.789062 4.5625 -3.460938 4.0625 -4.703125 C 3.4375 -6.265625 3.125 -7.632812 3.125 -8.8125 C 3.125 -9.238281 3.429688 -9.59375 4.046875 -9.875 C 4.890625 -10.257812 5.519531 -10.453125 5.9375 -10.453125 Z M 5.96875 -10.453125 "/></g></g></g></svg>