<svg xmlns="http://www.w3.org/2000/svg" xmlns:xlink="http://www.w3.org/1999/xlink" width="920" zoomAndPan="magnify" viewBox="0 0 690 449.249995" height="599" preserveAspectRatio="xMidYMid meet" version="1.0"><defs><filter x="0%" y="0%" width="100%" height="100%" id="99058ae089"><feColorMatrix values="0 0 0 0 1 0 0 0 0 1 0 0 0 0 1 0 0 0 1 0" color-interpolation-filters="sRGB"/></filter><clipPath id="342c659208"><path d="M 118.347656 75.085938 L 233 75.085938 L 233 116.402344 L 118.347656 116.402344 Z M 118.347656 75.085938 " clip-rule="nonzero"/></clipPath><clipPath id="d5f04c2eed"><path d="M 237.367188 75.085938 L 343.503906 75.085938 L 343.503906 116.402344 L 237.367188 116.402344 Z M 237.367188 75.085938 " clip-rule="nonzero"/></clipPath><clipPath id="6e50fbce49"><path d="M 126.988281 120.980469 L 233.125 120.980469 L 233.125 159.191406 L 126.988281 159.191406 Z M 126.988281 120.980469 " clip-rule="nonzero"/></clipPath><clipPath id="ab2962024d"><path d="M 237.367188 120.980469 L 343.503906 120.980469 L 343.503906 159.191406 L 237.367188 159.191406 Z M 237.367188 120.980469 " clip-rule="nonzero"/></clipPath><clipPath id="d62357a685"><path d="M 347.746094 75.085938 L 453.882812 75.085938 L 453.882812 116.402344 L 347.746094 116.402344 Z M 347.746094 75.085938 " clip-rule="nonzero"/></clipPath><clipPath id="cdfb7ae6eb"><path d="M 458.128906 75.085938 L 572.902344 75.085938 L 572.902344 116.402344 L 458.128906 116.402344 Z M 458.128906 75.085938 " clip-rule="nonzero"/></clipPath><clipPath id="8c9ce017d0"><path d="M 347.746094 120.980469 L 453.882812 120.980469 L 453.882812 159.191406 L 347.746094 159.191406 Z M 347.746094 120.980469 " clip-rule="nonzero"/></clipPath><clipPath id="e6a5e79cfd"><path d="M 458.128906 120.980469 L 564.261719 120.980469 L 564.261719 159.191406 L 458.128906 159.191406 Z M 458.128906 120.980469 " clip-rule="nonzero"/></clipPath><clipPath id="365e954c5e"><path d="M 126.988281 163.765625 L 233.125 163.765625 L 233.125 201.972656 L 126.988281 201.972656 Z M 126.988281 163.765625 " clip-rule="nonzero"/></clipPath><mask id="cf9590bd10"><g filter="url(#99058ae089)"><rect x="-69" width="828" fill="#000000" y="-44.924999" height="539.099994" fill-opacity="0.498"/></g></mask><clipPath id="3480497266"><path d="M 0.988281 0.765625 L 107.125 0.765625 L 107.125 38.972656 L 0.988281 38.972656 Z M 0.988281 0.765625 " clip-rule="nonzero"/></clipPath><clipPath id="85cbe36c14"><rect x="0" width="108" y="0" height="39"/></clipPath><clipPath id="b926a47379"><path d="M 237.367188 163.765625 L 343.503906 163.765625 L 343.503906 201.972656 L 237.367188 201.972656 Z M 237.367188 163.765625 " clip-rule="nonzero"/></clipPath><mask id="aa0bd5d07a"><g filter="url(#99058ae089)"><rect x="-69" width="828" fill="#000000" y="-44.924999" height="539.099994" fill-opacity="0.349"/></g></mask><clipPath id="01d26c7944"><path d="M 0.367188 0.765625 L 106.503906 0.765625 L 106.503906 38.972656 L 0.367188 38.972656 Z M 0.367188 0.765625 " clip-rule="nonzero"/></clipPath><clipPath id="7d98c68232"><rect x="0" width="107" y="0" height="39"/></clipPath><clipPath id="983714bd84"><path d="M 126.988281 206.546875 L 233.125 206.546875 L 233.125 244.757812 L 126.988281 244.757812 Z M 126.988281 206.546875 " clip-rule="nonzero"/></clipPath><clipPath id="872e5efcd4"><path d="M 237.367188 206.546875 L 343.503906 206.546875 L 343.503906 244.757812 L 237.367188 244.757812 Z M 237.367188 206.546875 " clip-rule="nonzero"/></clipPath><clipPath id="454019794d"><path d="M 347.746094 163.765625 L 453.882812 163.765625 L 453.882812 201.972656 L 347.746094 201.972656 Z M 347.746094 163.765625 " clip-rule="nonzero"/></clipPath><mask id="dee26f0cd7"><g filter="url(#99058ae089)"><rect x="-69" width="828" fill="#000000" y="-44.924999" height="539.099994" fill-opacity="0.349"/></g></mask><clipPath id="2f6edcbb0c"><path d="M 0.746094 0.765625 L 106.882812 0.765625 L 106.882812 38.972656 L 0.746094 38.972656 Z M 0.746094 0.765625 " clip-rule="nonzero"/></clipPath><clipPath id="fbd8a3ea67"><rect x="0" width="107" y="0" height="39"/></clipPath><clipPath id="f2159e72a3"><path d="M 458.128906 163.765625 L 564.261719 163.765625 L 564.261719 201.972656 L 458.128906 201.972656 Z M 458.128906 163.765625 " clip-rule="nonzero"/></clipPath><mask id="81d07130c5"><g filter="url(#99058ae089)"><rect x="-69" width="828" fill="#000000" y="-44.924999" height="539.099994" fill-opacity="0.349"/></g></mask><clipPath id="66dc77036d"><path d="M 0.128906 0.765625 L 106.261719 0.765625 L 106.261719 38.972656 L 0.128906 38.972656 Z M 0.128906 0.765625 " clip-rule="nonzero"/></clipPath><clipPath id="a31b173659"><rect x="0" width="107" y="0" height="39"/></clipPath><clipPath id="c0fa44ce87"><path d="M 347.746094 206.546875 L 453.882812 206.546875 L 453.882812 244.757812 L 347.746094 244.757812 Z M 347.746094 206.546875 " clip-rule="nonzero"/></clipPath><clipPath id="760b910cd6"><path d="M 458.128906 206.546875 L 564.261719 206.546875 L 564.261719 244.757812 L 458.128906 244.757812 Z M 458.128906 206.546875 " clip-rule="nonzero"/></clipPath><clipPath id="6fed6e3581"><path d="M 126.988281 249.332031 L 233.125 249.332031 L 233.125 287.542969 L 126.988281 287.542969 Z M 126.988281 249.332031 " clip-rule="nonzero"/></clipPath><mask id="70aac8868c"><g filter="url(#99058ae089)"><rect x="-69" width="828" fill="#000000" y="-44.924999" height="539.099994" fill-opacity="0.498"/></g></mask><clipPath id="5f674d9b4a"><path d="M 0.988281 0.332031 L 107.125 0.332031 L 107.125 38.542969 L 0.988281 38.542969 Z M 0.988281 0.332031 " clip-rule="nonzero"/></clipPath><clipPath id="e0ec5e1b93"><rect x="0" width="108" y="0" height="39"/></clipPath><clipPath id="33f305af3a"><path d="M 237.367188 249.332031 L 343.503906 249.332031 L 343.503906 287.542969 L 237.367188 287.542969 Z M 237.367188 249.332031 " clip-rule="nonzero"/></clipPath><mask id="75279b760b"><g filter="url(#99058ae089)"><rect x="-69" width="828" fill="#000000" y="-44.924999" height="539.099994" fill-opacity="0.349"/></g></mask><clipPath id="9e907e3133"><path d="M 0.367188 0.332031 L 106.503906 0.332031 L 106.503906 38.542969 L 0.367188 38.542969 Z M 0.367188 0.332031 " clip-rule="nonzero"/></clipPath><clipPath id="e6ba0c023f"><rect x="0" width="107" y="0" height="39"/></clipPath><clipPath id="2ad1ab2db2"><path d="M 347.746094 249.332031 L 453.882812 249.332031 L 453.882812 287.542969 L 347.746094 287.542969 Z M 347.746094 249.332031 " clip-rule="nonzero"/></clipPath><mask id="a61336f352"><g filter="url(#99058ae089)"><rect x="-69" width="828" fill="#000000" y="-44.924999" height="539.099994" fill-opacity="0.349"/></g></mask><clipPath id="0a5017c128"><path d="M 0.746094 0.332031 L 106.882812 0.332031 L 106.882812 38.542969 L 0.746094 38.542969 Z M 0.746094 0.332031 " clip-rule="nonzero"/></clipPath><clipPath id="7218a00c5e"><rect x="0" width="107" y="0" height="39"/></clipPath><clipPath id="20d56a5f27"><path d="M 458.128906 249.332031 L 564.261719 249.332031 L 564.261719 287.542969 L 458.128906 287.542969 Z M 458.128906 249.332031 " clip-rule="nonzero"/></clipPath><mask id="7d68ff956c"><g filter="url(#99058ae089)"><rect x="-69" width="828" fill="#000000" y="-44.924999" height="539.099994" fill-opacity="0.349"/></g></mask><clipPath id="30acf4a741"><path d="M 0.128906 0.332031 L 106.261719 0.332031 L 106.261719 38.542969 L 0.128906 38.542969 Z M 0.128906 0.332031 " clip-rule="nonzero"/></clipPath><clipPath id="017ce184cd"><rect x="0" width="107" y="0" height="39"/></clipPath><clipPath id="af4993ff72"><path d="M 126.988281 292.117188 L 233.125 292.117188 L 233.125 330.324219 L 126.988281 330.324219 Z M 126.988281 292.117188 " clip-rule="nonzero"/></clipPath><clipPath id="5f44aa0695"><path d="M 237.367188 292.117188 L 343.503906 292.117188 L 343.503906 330.324219 L 237.367188 330.324219 Z M 237.367188 292.117188 " clip-rule="nonzero"/></clipPath><clipPath id="79df760fbe"><path d="M 347.746094 292.117188 L 453.882812 292.117188 L 453.882812 330.324219 L 347.746094 330.324219 Z M 347.746094 292.117188 " clip-rule="nonzero"/></clipPath><clipPath id="f23a112a36"><path d="M 458.128906 292.117188 L 564.261719 292.117188 L 564.261719 330.324219 L 458.128906 330.324219 Z M 458.128906 292.117188 " clip-rule="nonzero"/></clipPath><clipPath id="aa38860ad5"><path d="M 126.988281 334.898438 L 233.125 334.898438 L 233.125 373.109375 L 126.988281 373.109375 Z M 126.988281 334.898438 " clip-rule="nonzero"/></clipPath><clipPath id="7921e7c9ad"><path d="M 237.367188 334.898438 L 343.503906 334.898438 L 343.503906 373.109375 L 237.367188 373.109375 Z M 237.367188 334.898438 " clip-rule="nonzero"/></clipPath><clipPath id="2dafbe617d"><path d="M 347.746094 334.898438 L 453.882812 334.898438 L 453.882812 373.109375 L 347.746094 373.109375 Z M 347.746094 334.898438 " clip-rule="nonzero"/></clipPath><clipPath id="cdf3d4edf9"><path d="M 458.128906 334.898438 L 564.261719 334.898438 L 564.261719 373.109375 L 458.128906 373.109375 Z M 458.128906 334.898438 " clip-rule="nonzero"/></clipPath><clipPath id="ec5782b6df"><path d="M 75.957031 256.234375 L 114 256.234375 L 114 318.382812 L 75.957031 318.382812 Z M 75.957031 256.234375 " clip-rule="nonzero"/></clipPath><clipPath id="7795029425"><path d="M 113.992188 318.382812 L 92.601562 318.382812 C 83.40625 318.382812 75.957031 310.933594 75.957031 301.738281 L 75.957031 278.085938 C 75.957031 268.890625 83.40625 261.441406 92.601562 261.441406 L 104.484375 261.441406 L 104.484375 256.6875 L 113.992188 266.195312 L 104.484375 275.710938 L 104.484375 270.957031 L 92.601562 270.957031 C 88.660156 270.957031 85.464844 274.144531 85.464844 278.09375 L 85.464844 301.738281 C 85.464844 305.675781 88.65625 308.875 92.601562 308.875 L 113.992188 308.875 L 113.992188 318.382812 " clip-rule="nonzero"/></clipPath><clipPath id="bbfa128efb"><path d="M 576.09375 137.210938 L 614.28125 137.210938 L 614.28125 188.875 L 576.09375 188.875 Z M 576.09375 137.210938 " clip-rule="nonzero"/></clipPath><clipPath id="b5989f06d3"><path d="M 576.246094 137.210938 L 597.636719 137.210938 C 606.832031 137.210938 614.28125 144.660156 614.28125 153.855469 L 614.28125 166.757812 C 614.28125 175.949219 606.832031 183.402344 597.636719 183.402344 L 585.753906 183.402344 L 585.753906 188.15625 L 576.246094 178.644531 L 585.753906 169.136719 L 585.753906 173.890625 L 597.636719 173.890625 C 601.574219 173.890625 604.773438 170.703125 604.773438 166.757812 L 604.773438 153.855469 C 604.773438 149.917969 601.582031 146.71875 597.636719 146.71875 L 576.246094 146.71875 L 576.246094 137.210938 " clip-rule="nonzero"/></clipPath></defs><g clip-path="url(#342c659208)"><path fill="#d9d9d9" d="M 118.347656 75.085938 L 232.90625 75.085938 L 232.90625 116.269531 L 118.347656 116.269531 Z M 118.347656 75.085938 " fill-opacity="1" fill-rule="nonzero"/></g><g clip-path="url(#d5f04c2eed)"><path fill="#d9d9d9" d="M 237.367188 75.085938 L 343.691406 75.085938 L 343.691406 116.269531 L 237.367188 116.269531 Z M 237.367188 75.085938 " fill-opacity="1" fill-rule="nonzero"/></g><g clip-path="url(#6e50fbce49)"><path fill="#d9d9d9" d="M 126.988281 120.980469 L 233.3125 120.980469 L 233.3125 159.167969 L 126.988281 159.167969 Z M 126.988281 120.980469 " fill-opacity="1" fill-rule="nonzero"/></g><g clip-path="url(#ab2962024d)"><path fill="#f2f2f2" d="M 237.367188 120.980469 L 343.691406 120.980469 L 343.691406 159.167969 L 237.367188 159.167969 Z M 237.367188 120.980469 " fill-opacity="1" fill-rule="nonzero"/></g><g clip-path="url(#d62357a685)"><path fill="#d9d9d9" d="M 347.746094 75.085938 L 454.070312 75.085938 L 454.070312 116.269531 L 347.746094 116.269531 Z M 347.746094 75.085938 " fill-opacity="1" fill-rule="nonzero"/></g><g clip-path="url(#cdfb7ae6eb)"><path fill="#d9d9d9" d="M 458.128906 75.085938 L 572.6875 75.085938 L 572.6875 116.269531 L 458.128906 116.269531 Z M 458.128906 75.085938 " fill-opacity="1" fill-rule="nonzero"/></g><g clip-path="url(#8c9ce017d0)"><path fill="#f2f2f2" d="M 347.746094 120.980469 L 454.070312 120.980469 L 454.070312 159.167969 L 347.746094 159.167969 Z M 347.746094 120.980469 " fill-opacity="1" fill-rule="nonzero"/></g><g clip-path="url(#e6a5e79cfd)"><path fill="#f2f2f2" d="M 458.128906 120.980469 L 564.449219 120.980469 L 564.449219 159.167969 L 458.128906 159.167969 Z M 458.128906 120.980469 " fill-opacity="1" fill-rule="nonzero"/></g><g clip-path="url(#365e954c5e)"><g mask="url(#cf9590bd10)"><g transform="matrix(1, 0, 0, 1, 126, 163)"><g clip-path="url(#85cbe36c14)"><g clip-path="url(#3480497266)"><path fill="#03e313" d="M 0.988281 0.765625 L 107.3125 0.765625 L 107.3125 38.953125 L 0.988281 38.953125 Z M 0.988281 0.765625 " fill-opacity="1" fill-rule="nonzero"/></g></g></g></g></g><g clip-path="url(#b926a47379)"><g mask="url(#aa0bd5d07a)"><g transform="matrix(1, 0, 0, 1, 237, 163)"><g clip-path="url(#7d98c68232)"><g clip-path="url(#01d26c7944)"><path fill="#03e313" d="M 0.367188 0.765625 L 106.691406 0.765625 L 106.691406 38.953125 L 0.367188 38.953125 Z M 0.367188 0.765625 " fill-opacity="1" fill-rule="nonzero"/></g></g></g></g></g><g clip-path="url(#983714bd84)"><path fill="#d9d9d9" d="M 126.988281 206.546875 L 233.3125 206.546875 L 233.3125 244.734375 L 126.988281 244.734375 Z M 126.988281 206.546875 " fill-opacity="1" fill-rule="nonzero"/></g><g clip-path="url(#872e5efcd4)"><path fill="#f2f2f2" d="M 237.367188 206.546875 L 343.691406 206.546875 L 343.691406 244.734375 L 237.367188 244.734375 Z M 237.367188 206.546875 " fill-opacity="1" fill-rule="nonzero"/></g><g clip-path="url(#454019794d)"><g mask="url(#dee26f0cd7)"><g transform="matrix(1, 0, 0, 1, 347, 163)"><g clip-path="url(#fbd8a3ea67)"><g clip-path="url(#2f6edcbb0c)"><path fill="#03e313" d="M 0.746094 0.765625 L 107.070312 0.765625 L 107.070312 38.953125 L 0.746094 38.953125 Z M 0.746094 0.765625 " fill-opacity="1" fill-rule="nonzero"/></g></g></g></g></g><g clip-path="url(#f2159e72a3)"><g mask="url(#81d07130c5)"><g transform="matrix(1, 0, 0, 1, 458, 163)"><g clip-path="url(#a31b173659)"><g clip-path="url(#66dc77036d)"><path fill="#03e313" d="M 0.128906 0.765625 L 106.449219 0.765625 L 106.449219 38.953125 L 0.128906 38.953125 Z M 0.128906 0.765625 " fill-opacity="1" fill-rule="nonzero"/></g></g></g></g></g><g clip-path="url(#c0fa44ce87)"><path fill="#f2f2f2" d="M 347.746094 206.546875 L 454.070312 206.546875 L 454.070312 244.734375 L 347.746094 244.734375 Z M 347.746094 206.546875 " fill-opacity="1" fill-rule="nonzero"/></g><g clip-path="url(#760b910cd6)"><path fill="#f2f2f2" d="M 458.128906 206.546875 L 564.449219 206.546875 L 564.449219 244.734375 L 458.128906 244.734375 Z M 458.128906 206.546875 " fill-opacity="1" fill-rule="nonzero"/></g><g clip-path="url(#6fed6e3581)"><g mask="url(#70aac8868c)"><g transform="matrix(1, 0, 0, 1, 126, 249)"><g clip-path="url(#e0ec5e1b93)"><g clip-path="url(#5f674d9b4a)"><path fill="#03e313" d="M 0.988281 0.332031 L 107.3125 0.332031 L 107.3125 38.519531 L 0.988281 38.519531 Z M 0.988281 0.332031 " fill-opacity="1" fill-rule="nonzero"/></g></g></g></g></g><g clip-path="url(#33f305af3a)"><g mask="url(#75279b760b)"><g transform="matrix(1, 0, 0, 1, 237, 249)"><g clip-path="url(#e6ba0c023f)"><g clip-path="url(#9e907e3133)"><path fill="#03e313" d="M 0.367188 0.332031 L 106.691406 0.332031 L 106.691406 38.519531 L 0.367188 38.519531 Z M 0.367188 0.332031 " fill-opacity="1" fill-rule="nonzero"/></g></g></g></g></g><g clip-path="url(#2ad1ab2db2)"><g mask="url(#a61336f352)"><g transform="matrix(1, 0, 0, 1, 347, 249)"><g clip-path="url(#7218a00c5e)"><g clip-path="url(#0a5017c128)"><path fill="#03e313" d="M 0.746094 0.332031 L 107.070312 0.332031 L 107.070312 38.519531 L 0.746094 38.519531 Z M 0.746094 0.332031 " fill-opacity="1" fill-rule="nonzero"/></g></g></g></g></g><g clip-path="url(#20d56a5f27)"><g mask="url(#7d68ff956c)"><g transform="matrix(1, 0, 0, 1, 458, 249)"><g clip-path="url(#017ce184cd)"><g clip-path="url(#30acf4a741)"><path fill="#03e313" d="M 0.128906 0.332031 L 106.449219 0.332031 L 106.449219 38.519531 L 0.128906 38.519531 Z M 0.128906 0.332031 " fill-opacity="1" fill-rule="nonzero"/></g></g></g></g></g><g clip-path="url(#af4993ff72)"><path fill="#d9d9d9" d="M 126.988281 292.117188 L 233.3125 292.117188 L 233.3125 330.300781 L 126.988281 330.300781 Z M 126.988281 292.117188 " fill-opacity="1" fill-rule="nonzero"/></g><g clip-path="url(#5f44aa0695)"><path fill="#f2f2f2" d="M 237.367188 292.117188 L 343.691406 292.117188 L 343.691406 330.300781 L 237.367188 330.300781 Z M 237.367188 292.117188 " fill-opacity="1" fill-rule="nonzero"/></g><g clip-path="url(#79df760fbe)"><path fill="#f2f2f2" d="M 347.746094 292.117188 L 454.070312 292.117188 L 454.070312 330.300781 L 347.746094 330.300781 Z M 347.746094 292.117188 " fill-opacity="1" fill-rule="nonzero"/></g><g clip-path="url(#f23a112a36)"><path fill="#f2f2f2" d="M 458.128906 292.117188 L 564.449219 292.117188 L 564.449219 330.300781 L 458.128906 330.300781 Z M 458.128906 292.117188 " fill-opacity="1" fill-rule="nonzero"/></g><g clip-path="url(#aa38860ad5)"><path fill="#d9d9d9" d="M 126.988281 334.898438 L 233.3125 334.898438 L 233.3125 373.085938 L 126.988281 373.085938 Z M 126.988281 334.898438 " fill-opacity="1" fill-rule="nonzero"/></g><g clip-path="url(#7921e7c9ad)"><path fill="#f2f2f2" d="M 237.367188 334.898438 L 343.691406 334.898438 L 343.691406 373.085938 L 237.367188 373.085938 Z M 237.367188 334.898438 " fill-opacity="1" fill-rule="nonzero"/></g><g clip-path="url(#2dafbe617d)"><path fill="#f2f2f2" d="M 347.746094 334.898438 L 454.070312 334.898438 L 454.070312 373.085938 L 347.746094 373.085938 Z M 347.746094 334.898438 " fill-opacity="1" fill-rule="nonzero"/></g><g clip-path="url(#cdf3d4edf9)"><path fill="#f2f2f2" d="M 458.128906 334.898438 L 564.449219 334.898438 L 564.449219 373.085938 L 458.128906 373.085938 Z M 458.128906 334.898438 " fill-opacity="1" fill-rule="nonzero"/></g><g clip-path="url(#ec5782b6df)"><g clip-path="url(#7795029425)"><path fill="#ffc000" d="M 75.957031 318.382812 L 75.957031 256.984375 L 114.140625 256.984375 L 114.140625 318.382812 Z M 75.957031 318.382812 " fill-opacity="1" fill-rule="nonzero"/></g></g><g clip-path="url(#bbfa128efb)"><g clip-path="url(#b5989f06d3)"><path fill="#ffc000" d="M 614.28125 137.210938 L 614.28125 188.125 L 576.09375 188.125 L 576.09375 137.210938 Z M 614.28125 137.210938 " fill-opacity="1" fill-rule="nonzero"/></g></g></svg>