<svg xmlns="http://www.w3.org/2000/svg" xmlns:xlink="http://www.w3.org/1999/xlink" width="1012" zoomAndPan="magnify" viewBox="0 0 759 449.249995" height="599" preserveAspectRatio="xMidYMid meet" version="1.0"><defs><filter x="0%" y="0%" width="100%" height="100%" id="dd517d56e8"><feColorMatrix values="0 0 0 0 1 0 0 0 0 1 0 0 0 0 1 0 0 0 1 0" color-interpolation-filters="sRGB"/></filter><g/><clipPath id="7fcea334da"><path d="M 228.472656 75.085938 L 343.246094 75.085938 L 343.246094 116.402344 L 228.472656 116.402344 Z M 228.472656 75.085938 " clip-rule="nonzero"/></clipPath><clipPath id="a50fa16a59"><path d="M 347.492188 75.085938 L 453.628906 75.085938 L 453.628906 116.402344 L 347.492188 116.402344 Z M 347.492188 75.085938 " clip-rule="nonzero"/></clipPath><clipPath id="bef7f8d415"><path d="M 237.113281 120.980469 L 343.25 120.980469 L 343.25 159.191406 L 237.113281 159.191406 Z M 237.113281 120.980469 " clip-rule="nonzero"/></clipPath><clipPath id="119f04bef7"><path d="M 347.492188 120.980469 L 453.628906 120.980469 L 453.628906 159.191406 L 347.492188 159.191406 Z M 347.492188 120.980469 " clip-rule="nonzero"/></clipPath><clipPath id="2f0cd92d26"><path d="M 457.871094 75.085938 L 564.007812 75.085938 L 564.007812 116.402344 L 457.871094 116.402344 Z M 457.871094 75.085938 " clip-rule="nonzero"/></clipPath><clipPath id="e8bdabed2a"><path d="M 568.25 75.085938 L 683 75.085938 L 683 116.402344 L 568.25 116.402344 Z M 568.25 75.085938 " clip-rule="nonzero"/></clipPath><clipPath id="045f9c022a"><path d="M 457.871094 120.980469 L 564.007812 120.980469 L 564.007812 159.191406 L 457.871094 159.191406 Z M 457.871094 120.980469 " clip-rule="nonzero"/></clipPath><clipPath id="765c9bab86"><path d="M 568.25 120.980469 L 674.386719 120.980469 L 674.386719 159.191406 L 568.25 159.191406 Z M 568.25 120.980469 " clip-rule="nonzero"/></clipPath><clipPath id="b9179925bd"><path d="M 237.113281 163.765625 L 343.25 163.765625 L 343.25 201.972656 L 237.113281 201.972656 Z M 237.113281 163.765625 " clip-rule="nonzero"/></clipPath><clipPath id="1b6314a30a"><path d="M 347.492188 163.765625 L 453.628906 163.765625 L 453.628906 201.972656 L 347.492188 201.972656 Z M 347.492188 163.765625 " clip-rule="nonzero"/></clipPath><clipPath id="03f99831f9"><path d="M 237.113281 206.546875 L 343.25 206.546875 L 343.25 244.757812 L 237.113281 244.757812 Z M 237.113281 206.546875 " clip-rule="nonzero"/></clipPath><mask id="2cf0bfbdf7"><g filter="url(#dd517d56e8)"><rect x="-75.9" width="910.8" fill="#000000" y="-44.924999" height="539.099994" fill-opacity="0.498"/></g></mask><clipPath id="6abbcfd748"><path d="M 0.113281 0.546875 L 106.25 0.546875 L 106.25 38.757812 L 0.113281 38.757812 Z M 0.113281 0.546875 " clip-rule="nonzero"/></clipPath><clipPath id="8209a92b88"><rect x="0" width="107" y="0" height="39"/></clipPath><clipPath id="1773fe0370"><path d="M 347.492188 206.546875 L 453.628906 206.546875 L 453.628906 244.757812 L 347.492188 244.757812 Z M 347.492188 206.546875 " clip-rule="nonzero"/></clipPath><mask id="e1418c6bf7"><g filter="url(#dd517d56e8)"><rect x="-75.9" width="910.8" fill="#000000" y="-44.924999" height="539.099994" fill-opacity="0.349"/></g></mask><clipPath id="7075413e5d"><path d="M 0.492188 0.546875 L 106.628906 0.546875 L 106.628906 38.757812 L 0.492188 38.757812 Z M 0.492188 0.546875 " clip-rule="nonzero"/></clipPath><clipPath id="80c7b440db"><rect x="0" width="107" y="0" height="39"/></clipPath><clipPath id="67954eefe9"><path d="M 457.871094 163.765625 L 564.007812 163.765625 L 564.007812 201.972656 L 457.871094 201.972656 Z M 457.871094 163.765625 " clip-rule="nonzero"/></clipPath><clipPath id="1425400b54"><path d="M 568.25 163.765625 L 674.386719 163.765625 L 674.386719 201.972656 L 568.25 201.972656 Z M 568.25 163.765625 " clip-rule="nonzero"/></clipPath><clipPath id="c1782a9213"><path d="M 457.871094 206.546875 L 564.007812 206.546875 L 564.007812 244.757812 L 457.871094 244.757812 Z M 457.871094 206.546875 " clip-rule="nonzero"/></clipPath><mask id="281143bab5"><g filter="url(#dd517d56e8)"><rect x="-75.9" width="910.8" fill="#000000" y="-44.924999" height="539.099994" fill-opacity="0.349"/></g></mask><clipPath id="ca8b20d5de"><path d="M 0.871094 0.546875 L 107.007812 0.546875 L 107.007812 38.757812 L 0.871094 38.757812 Z M 0.871094 0.546875 " clip-rule="nonzero"/></clipPath><clipPath id="0b5afe3b29"><rect x="0" width="108" y="0" height="39"/></clipPath><clipPath id="e8adbfd521"><path d="M 568.25 206.546875 L 674.386719 206.546875 L 674.386719 244.757812 L 568.25 244.757812 Z M 568.25 206.546875 " clip-rule="nonzero"/></clipPath><mask id="becada6425"><g filter="url(#dd517d56e8)"><rect x="-75.9" width="910.8" fill="#000000" y="-44.924999" height="539.099994" fill-opacity="0.349"/></g></mask><clipPath id="e73b6c2b0c"><path d="M 0.25 0.546875 L 106.386719 0.546875 L 106.386719 38.757812 L 0.25 38.757812 Z M 0.25 0.546875 " clip-rule="nonzero"/></clipPath><clipPath id="ed2688da29"><rect x="0" width="107" y="0" height="39"/></clipPath><clipPath id="40c88d72ef"><path d="M 237.113281 249.332031 L 343.25 249.332031 L 343.25 287.542969 L 237.113281 287.542969 Z M 237.113281 249.332031 " clip-rule="nonzero"/></clipPath><mask id="5bb78fc3d8"><g filter="url(#dd517d56e8)"><rect x="-75.9" width="910.8" fill="#000000" y="-44.924999" height="539.099994" fill-opacity="0.498"/></g></mask><clipPath id="86c0bcbfc1"><path d="M 0.113281 0.332031 L 106.25 0.332031 L 106.25 38.542969 L 0.113281 38.542969 Z M 0.113281 0.332031 " clip-rule="nonzero"/></clipPath><clipPath id="7f0a191481"><rect x="0" width="107" y="0" height="39"/></clipPath><clipPath id="1d17804afd"><path d="M 347.492188 249.332031 L 453.628906 249.332031 L 453.628906 287.542969 L 347.492188 287.542969 Z M 347.492188 249.332031 " clip-rule="nonzero"/></clipPath><mask id="8afee62c9c"><g filter="url(#dd517d56e8)"><rect x="-75.9" width="910.8" fill="#000000" y="-44.924999" height="539.099994" fill-opacity="0.349"/></g></mask><clipPath id="f341cd7111"><path d="M 0.492188 0.332031 L 106.628906 0.332031 L 106.628906 38.542969 L 0.492188 38.542969 Z M 0.492188 0.332031 " clip-rule="nonzero"/></clipPath><clipPath id="1fbf067c43"><rect x="0" width="107" y="0" height="39"/></clipPath><clipPath id="e81f137e22"><path d="M 457.871094 249.332031 L 564.007812 249.332031 L 564.007812 287.542969 L 457.871094 287.542969 Z M 457.871094 249.332031 " clip-rule="nonzero"/></clipPath><mask id="b245c66d6c"><g filter="url(#dd517d56e8)"><rect x="-75.9" width="910.8" fill="#000000" y="-44.924999" height="539.099994" fill-opacity="0.349"/></g></mask><clipPath id="094115b35b"><path d="M 0.871094 0.332031 L 107.007812 0.332031 L 107.007812 38.542969 L 0.871094 38.542969 Z M 0.871094 0.332031 " clip-rule="nonzero"/></clipPath><clipPath id="2abb93d60d"><rect x="0" width="108" y="0" height="39"/></clipPath><clipPath id="c7746f38d5"><path d="M 568.25 249.332031 L 674.386719 249.332031 L 674.386719 287.542969 L 568.25 287.542969 Z M 568.25 249.332031 " clip-rule="nonzero"/></clipPath><mask id="e7341ad037"><g filter="url(#dd517d56e8)"><rect x="-75.9" width="910.8" fill="#000000" y="-44.924999" height="539.099994" fill-opacity="0.349"/></g></mask><clipPath id="2211e7522c"><path d="M 0.25 0.332031 L 106.386719 0.332031 L 106.386719 38.542969 L 0.25 38.542969 Z M 0.25 0.332031 " clip-rule="nonzero"/></clipPath><clipPath id="dd096b4f9d"><rect x="0" width="107" y="0" height="39"/></clipPath><clipPath id="70e1947666"><path d="M 237.113281 292.117188 L 343.25 292.117188 L 343.25 330.324219 L 237.113281 330.324219 Z M 237.113281 292.117188 " clip-rule="nonzero"/></clipPath><mask id="447519e4bd"><g filter="url(#dd517d56e8)"><rect x="-75.9" width="910.8" fill="#000000" y="-44.924999" height="539.099994" fill-opacity="0.498"/></g></mask><clipPath id="1a369ca878"><path d="M 0.113281 0.117188 L 106.25 0.117188 L 106.25 38.324219 L 0.113281 38.324219 Z M 0.113281 0.117188 " clip-rule="nonzero"/></clipPath><clipPath id="afd275b165"><rect x="0" width="107" y="0" height="39"/></clipPath><clipPath id="136e7ebe44"><path d="M 347.492188 292.117188 L 453.628906 292.117188 L 453.628906 330.324219 L 347.492188 330.324219 Z M 347.492188 292.117188 " clip-rule="nonzero"/></clipPath><mask id="406866bae6"><g filter="url(#dd517d56e8)"><rect x="-75.9" width="910.8" fill="#000000" y="-44.924999" height="539.099994" fill-opacity="0.349"/></g></mask><clipPath id="d4cc6c58c0"><path d="M 0.492188 0.117188 L 106.628906 0.117188 L 106.628906 38.324219 L 0.492188 38.324219 Z M 0.492188 0.117188 " clip-rule="nonzero"/></clipPath><clipPath id="4dcb41b4c3"><rect x="0" width="107" y="0" height="39"/></clipPath><clipPath id="fd8708fa84"><path d="M 457.871094 292.117188 L 564.007812 292.117188 L 564.007812 330.324219 L 457.871094 330.324219 Z M 457.871094 292.117188 " clip-rule="nonzero"/></clipPath><mask id="93414fe3b4"><g filter="url(#dd517d56e8)"><rect x="-75.9" width="910.8" fill="#000000" y="-44.924999" height="539.099994" fill-opacity="0.349"/></g></mask><clipPath id="f7ecc415a8"><path d="M 0.871094 0.117188 L 107.007812 0.117188 L 107.007812 38.324219 L 0.871094 38.324219 Z M 0.871094 0.117188 " clip-rule="nonzero"/></clipPath><clipPath id="d40efb0de0"><rect x="0" width="108" y="0" height="39"/></clipPath><clipPath id="40a21ebcf3"><path d="M 568.25 292.117188 L 674.386719 292.117188 L 674.386719 330.324219 L 568.25 330.324219 Z M 568.25 292.117188 " clip-rule="nonzero"/></clipPath><mask id="2d7e486aec"><g filter="url(#dd517d56e8)"><rect x="-75.9" width="910.8" fill="#000000" y="-44.924999" height="539.099994" fill-opacity="0.349"/></g></mask><clipPath id="b84f9b7653"><path d="M 0.25 0.117188 L 106.386719 0.117188 L 106.386719 38.324219 L 0.25 38.324219 Z M 0.25 0.117188 " clip-rule="nonzero"/></clipPath><clipPath id="b90fa1002d"><rect x="0" width="107" y="0" height="39"/></clipPath><clipPath id="b1a9f95e8d"><path d="M 237.113281 334.898438 L 343.25 334.898438 L 343.25 373.109375 L 237.113281 373.109375 Z M 237.113281 334.898438 " clip-rule="nonzero"/></clipPath><clipPath id="cec69ae310"><path d="M 347.492188 334.898438 L 453.628906 334.898438 L 453.628906 373.109375 L 347.492188 373.109375 Z M 347.492188 334.898438 " clip-rule="nonzero"/></clipPath><clipPath id="96cd846479"><path d="M 457.871094 334.898438 L 564.007812 334.898438 L 564.007812 373.109375 L 457.871094 373.109375 Z M 457.871094 334.898438 " clip-rule="nonzero"/></clipPath><clipPath id="98ff3db164"><path d="M 568.25 334.898438 L 674.386719 334.898438 L 674.386719 373.109375 L 568.25 373.109375 Z M 568.25 334.898438 " clip-rule="nonzero"/></clipPath><clipPath id="3e3299a84b"><path d="M 191 193.101562 L 210.699219 193.101562 L 210.699219 220 L 191 220 Z M 191 193.101562 " clip-rule="nonzero"/></clipPath><clipPath id="4684c273a0"><path d="M 190.871094 193.101562 L 210.699219 206.542969 L 190.871094 219.988281 L 190.871094 193.101562 " clip-rule="nonzero"/></clipPath><clipPath id="40ee900b07"><path d="M 190 318.25 L 209.648438 318.25 L 209.648438 345.203125 L 190 345.203125 Z M 190 318.25 " clip-rule="nonzero"/></clipPath><clipPath id="d525dd1706"><path d="M 189.824219 318.25 L 209.648438 331.6875 L 189.824219 345.136719 L 189.824219 318.25 " clip-rule="nonzero"/></clipPath></defs><g clip-path="url(#7fcea334da)"><path fill="#d9d9d9" d="M 228.472656 75.085938 L 343.03125 75.085938 L 343.03125 116.269531 L 228.472656 116.269531 Z M 228.472656 75.085938 " fill-opacity="1" fill-rule="nonzero"/></g><g clip-path="url(#a50fa16a59)"><path fill="#d9d9d9" d="M 347.492188 75.085938 L 453.816406 75.085938 L 453.816406 116.269531 L 347.492188 116.269531 Z M 347.492188 75.085938 " fill-opacity="1" fill-rule="nonzero"/></g><g clip-path="url(#bef7f8d415)"><path fill="#d9d9d9" d="M 237.113281 120.980469 L 343.4375 120.980469 L 343.4375 159.167969 L 237.113281 159.167969 Z M 237.113281 120.980469 " fill-opacity="1" fill-rule="nonzero"/></g><g clip-path="url(#119f04bef7)"><path fill="#f2f2f2" d="M 347.492188 120.980469 L 453.816406 120.980469 L 453.816406 159.167969 L 347.492188 159.167969 Z M 347.492188 120.980469 " fill-opacity="1" fill-rule="nonzero"/></g><g clip-path="url(#2f0cd92d26)"><path fill="#d9d9d9" d="M 457.871094 75.085938 L 564.195312 75.085938 L 564.195312 116.269531 L 457.871094 116.269531 Z M 457.871094 75.085938 " fill-opacity="1" fill-rule="nonzero"/></g><g clip-path="url(#e8bdabed2a)"><path fill="#d9d9d9" d="M 568.25 75.085938 L 682.808594 75.085938 L 682.808594 116.269531 L 568.25 116.269531 Z M 568.25 75.085938 " fill-opacity="1" fill-rule="nonzero"/></g><g clip-path="url(#045f9c022a)"><path fill="#f2f2f2" d="M 457.871094 120.980469 L 564.195312 120.980469 L 564.195312 159.167969 L 457.871094 159.167969 Z M 457.871094 120.980469 " fill-opacity="1" fill-rule="nonzero"/></g><g clip-path="url(#765c9bab86)"><path fill="#f2f2f2" d="M 568.25 120.980469 L 674.574219 120.980469 L 674.574219 159.167969 L 568.25 159.167969 Z M 568.25 120.980469 " fill-opacity="1" fill-rule="nonzero"/></g><g clip-path="url(#b9179925bd)"><path fill="#d9d9d9" d="M 237.113281 163.765625 L 343.4375 163.765625 L 343.4375 201.953125 L 237.113281 201.953125 Z M 237.113281 163.765625 " fill-opacity="1" fill-rule="nonzero"/></g><g clip-path="url(#1b6314a30a)"><path fill="#f2f2f2" d="M 347.492188 163.765625 L 453.816406 163.765625 L 453.816406 201.953125 L 347.492188 201.953125 Z M 347.492188 163.765625 " fill-opacity="1" fill-rule="nonzero"/></g><g clip-path="url(#03f99831f9)"><g mask="url(#2cf0bfbdf7)"><g transform="matrix(1, 0, 0, 1, 237, 206)"><g clip-path="url(#8209a92b88)"><g clip-path="url(#6abbcfd748)"><path fill="#03e313" d="M 0.113281 0.546875 L 106.4375 0.546875 L 106.4375 38.734375 L 0.113281 38.734375 Z M 0.113281 0.546875 " fill-opacity="1" fill-rule="nonzero"/></g></g></g></g></g><g clip-path="url(#1773fe0370)"><g mask="url(#e1418c6bf7)"><g transform="matrix(1, 0, 0, 1, 347, 206)"><g clip-path="url(#80c7b440db)"><g clip-path="url(#7075413e5d)"><path fill="#03e313" d="M 0.492188 0.546875 L 106.816406 0.546875 L 106.816406 38.734375 L 0.492188 38.734375 Z M 0.492188 0.546875 " fill-opacity="1" fill-rule="nonzero"/></g></g></g></g></g><g clip-path="url(#67954eefe9)"><path fill="#f2f2f2" d="M 457.871094 163.765625 L 564.195312 163.765625 L 564.195312 201.953125 L 457.871094 201.953125 Z M 457.871094 163.765625 " fill-opacity="1" fill-rule="nonzero"/></g><g clip-path="url(#1425400b54)"><path fill="#f2f2f2" d="M 568.25 163.765625 L 674.574219 163.765625 L 674.574219 201.953125 L 568.25 201.953125 Z M 568.25 163.765625 " fill-opacity="1" fill-rule="nonzero"/></g><g clip-path="url(#c1782a9213)"><g mask="url(#281143bab5)"><g transform="matrix(1, 0, 0, 1, 457, 206)"><g clip-path="url(#0b5afe3b29)"><g clip-path="url(#ca8b20d5de)"><path fill="#03e313" d="M 0.871094 0.546875 L 107.195312 0.546875 L 107.195312 38.734375 L 0.871094 38.734375 Z M 0.871094 0.546875 " fill-opacity="1" fill-rule="nonzero"/></g></g></g></g></g><g clip-path="url(#e8adbfd521)"><g mask="url(#becada6425)"><g transform="matrix(1, 0, 0, 1, 568, 206)"><g clip-path="url(#ed2688da29)"><g clip-path="url(#e73b6c2b0c)"><path fill="#03e313" d="M 0.25 0.546875 L 106.574219 0.546875 L 106.574219 38.734375 L 0.25 38.734375 Z M 0.25 0.546875 " fill-opacity="1" fill-rule="nonzero"/></g></g></g></g></g><g clip-path="url(#40c88d72ef)"><g mask="url(#5bb78fc3d8)"><g transform="matrix(1, 0, 0, 1, 237, 249)"><g clip-path="url(#7f0a191481)"><g clip-path="url(#86c0bcbfc1)"><path fill="#03e313" d="M 0.113281 0.332031 L 106.4375 0.332031 L 106.4375 38.519531 L 0.113281 38.519531 Z M 0.113281 0.332031 " fill-opacity="1" fill-rule="nonzero"/></g></g></g></g></g><g clip-path="url(#1d17804afd)"><g mask="url(#8afee62c9c)"><g transform="matrix(1, 0, 0, 1, 347, 249)"><g clip-path="url(#1fbf067c43)"><g clip-path="url(#f341cd7111)"><path fill="#03e313" d="M 0.492188 0.332031 L 106.816406 0.332031 L 106.816406 38.519531 L 0.492188 38.519531 Z M 0.492188 0.332031 " fill-opacity="1" fill-rule="nonzero"/></g></g></g></g></g><g clip-path="url(#e81f137e22)"><g mask="url(#b245c66d6c)"><g transform="matrix(1, 0, 0, 1, 457, 249)"><g clip-path="url(#2abb93d60d)"><g clip-path="url(#094115b35b)"><path fill="#03e313" d="M 0.871094 0.332031 L 107.195312 0.332031 L 107.195312 38.519531 L 0.871094 38.519531 Z M 0.871094 0.332031 " fill-opacity="1" fill-rule="nonzero"/></g></g></g></g></g><g clip-path="url(#c7746f38d5)"><g mask="url(#e7341ad037)"><g transform="matrix(1, 0, 0, 1, 568, 249)"><g clip-path="url(#dd096b4f9d)"><g clip-path="url(#2211e7522c)"><path fill="#03e313" d="M 0.25 0.332031 L 106.574219 0.332031 L 106.574219 38.519531 L 0.25 38.519531 Z M 0.25 0.332031 " fill-opacity="1" fill-rule="nonzero"/></g></g></g></g></g><g clip-path="url(#70e1947666)"><g mask="url(#447519e4bd)"><g transform="matrix(1, 0, 0, 1, 237, 292)"><g clip-path="url(#afd275b165)"><g clip-path="url(#1a369ca878)"><path fill="#03e313" d="M 0.113281 0.117188 L 106.4375 0.117188 L 106.4375 38.300781 L 0.113281 38.300781 Z M 0.113281 0.117188 " fill-opacity="1" fill-rule="nonzero"/></g></g></g></g></g><g clip-path="url(#136e7ebe44)"><g mask="url(#406866bae6)"><g transform="matrix(1, 0, 0, 1, 347, 292)"><g clip-path="url(#4dcb41b4c3)"><g clip-path="url(#d4cc6c58c0)"><path fill="#03e313" d="M 0.492188 0.117188 L 106.816406 0.117188 L 106.816406 38.300781 L 0.492188 38.300781 Z M 0.492188 0.117188 " fill-opacity="1" fill-rule="nonzero"/></g></g></g></g></g><g clip-path="url(#fd8708fa84)"><g mask="url(#93414fe3b4)"><g transform="matrix(1, 0, 0, 1, 457, 292)"><g clip-path="url(#d40efb0de0)"><g clip-path="url(#f7ecc415a8)"><path fill="#03e313" d="M 0.871094 0.117188 L 107.195312 0.117188 L 107.195312 38.300781 L 0.871094 38.300781 Z M 0.871094 0.117188 " fill-opacity="1" fill-rule="nonzero"/></g></g></g></g></g><g clip-path="url(#40a21ebcf3)"><g mask="url(#2d7e486aec)"><g transform="matrix(1, 0, 0, 1, 568, 292)"><g clip-path="url(#b90fa1002d)"><g clip-path="url(#b84f9b7653)"><path fill="#03e313" d="M 0.25 0.117188 L 106.574219 0.117188 L 106.574219 38.300781 L 0.25 38.300781 Z M 0.25 0.117188 " fill-opacity="1" fill-rule="nonzero"/></g></g></g></g></g><g clip-path="url(#b1a9f95e8d)"><path fill="#d9d9d9" d="M 237.113281 334.898438 L 343.4375 334.898438 L 343.4375 373.085938 L 237.113281 373.085938 Z M 237.113281 334.898438 " fill-opacity="1" fill-rule="nonzero"/></g><g clip-path="url(#cec69ae310)"><path fill="#f2f2f2" d="M 347.492188 334.898438 L 453.816406 334.898438 L 453.816406 373.085938 L 347.492188 373.085938 Z M 347.492188 334.898438 " fill-opacity="1" fill-rule="nonzero"/></g><g clip-path="url(#96cd846479)"><path fill="#f2f2f2" d="M 457.871094 334.898438 L 564.195312 334.898438 L 564.195312 373.085938 L 457.871094 373.085938 Z M 457.871094 334.898438 " fill-opacity="1" fill-rule="nonzero"/></g><g clip-path="url(#98ff3db164)"><path fill="#f2f2f2" d="M 568.25 334.898438 L 674.574219 334.898438 L 674.574219 373.085938 L 568.25 373.085938 Z M 568.25 334.898438 " fill-opacity="1" fill-rule="nonzero"/></g><g fill="#808080" fill-opacity="1"><g transform="translate(86.064289, 221.14938)"><g><path d="M 26.046875 -7.96875 C 26.046875 -5.300781 25.003906 -3.238281 22.921875 -1.78125 C 20.835938 -0.320312 17.90625 0.40625 14.125 0.40625 C 7.09375 0.40625 3.019531 -2.035156 1.90625 -6.921875 L 5.6875 -7.671875 C 6.125 -5.941406 7.050781 -4.671875 8.46875 -3.859375 C 9.894531 -3.046875 11.828125 -2.640625 14.265625 -2.640625 C 16.796875 -2.640625 18.742188 -3.070312 20.109375 -3.9375 C 21.484375 -4.8125 22.171875 -6.085938 22.171875 -7.765625 C 22.171875 -8.703125 21.957031 -9.460938 21.53125 -10.046875 C 21.101562 -10.640625 20.5 -11.125 19.71875 -11.5 C 18.9375 -11.882812 18.003906 -12.207031 16.921875 -12.46875 C 15.847656 -12.726562 14.65625 -13.007812 13.34375 -13.3125 C 11.070312 -13.8125 9.34375 -14.3125 8.15625 -14.8125 C 6.976562 -15.320312 6.046875 -15.890625 5.359375 -16.515625 C 4.679688 -17.140625 4.160156 -17.863281 3.796875 -18.6875 C 3.429688 -19.519531 3.25 -20.476562 3.25 -21.5625 C 3.25 -24.03125 4.191406 -25.929688 6.078125 -27.265625 C 7.972656 -28.609375 10.6875 -29.28125 14.21875 -29.28125 C 17.488281 -29.28125 19.988281 -28.773438 21.71875 -27.765625 C 23.457031 -26.765625 24.675781 -25.054688 25.375 -22.640625 L 21.515625 -21.96875 C 21.097656 -23.5 20.296875 -24.609375 19.109375 -25.296875 C 17.921875 -25.984375 16.273438 -26.328125 14.171875 -26.328125 C 11.859375 -26.328125 10.09375 -25.945312 8.875 -25.1875 C 7.664062 -24.425781 7.0625 -23.285156 7.0625 -21.765625 C 7.0625 -20.878906 7.296875 -20.144531 7.765625 -19.5625 C 8.242188 -18.988281 8.925781 -18.5 9.8125 -18.09375 C 10.695312 -17.6875 12.460938 -17.191406 15.109375 -16.609375 C 15.992188 -16.398438 16.875 -16.191406 17.75 -15.984375 C 18.632812 -15.773438 19.476562 -15.519531 20.28125 -15.21875 C 21.09375 -14.925781 21.847656 -14.582031 22.546875 -14.1875 C 23.253906 -13.789062 23.867188 -13.304688 24.390625 -12.734375 C 24.910156 -12.160156 25.316406 -11.484375 25.609375 -10.703125 C 25.898438 -9.929688 26.046875 -9.019531 26.046875 -7.96875 Z M 26.046875 -7.96875 "/></g></g><g transform="translate(114.03127, 221.14938)"><g><path d="M 11.34375 -0.15625 C 10.125 0.164062 8.882812 0.328125 7.625 0.328125 C 4.664062 0.328125 3.1875 -1.34375 3.1875 -4.6875 L 3.1875 -19.46875 L 0.640625 -19.46875 L 0.640625 -22.15625 L 3.34375 -22.15625 L 4.421875 -27.109375 L 6.875 -27.109375 L 6.875 -22.15625 L 10.96875 -22.15625 L 10.96875 -19.46875 L 6.875 -19.46875 L 6.875 -5.484375 C 6.875 -4.421875 7.046875 -3.671875 7.390625 -3.234375 C 7.742188 -2.804688 8.351562 -2.59375 9.21875 -2.59375 C 9.707031 -2.59375 10.414062 -2.691406 11.34375 -2.890625 Z M 11.34375 -0.15625 "/></g></g><g transform="translate(125.680767, 221.14938)"><g><path d="M 8.484375 0.40625 C 6.253906 0.40625 4.578125 -0.175781 3.453125 -1.34375 C 2.335938 -2.519531 1.78125 -4.132812 1.78125 -6.1875 C 1.78125 -8.476562 2.535156 -10.238281 4.046875 -11.46875 C 5.554688 -12.695312 7.988281 -13.351562 11.34375 -13.4375 L 16.328125 -13.515625 L 16.328125 -14.71875 C 16.328125 -16.519531 15.941406 -17.8125 15.171875 -18.59375 C 14.410156 -19.375 13.207031 -19.765625 11.5625 -19.765625 C 9.914062 -19.765625 8.71875 -19.484375 7.96875 -18.921875 C 7.21875 -18.359375 6.765625 -17.460938 6.609375 -16.234375 L 2.765625 -16.59375 C 3.390625 -20.570312 6.351562 -22.5625 11.65625 -22.5625 C 14.4375 -22.5625 16.53125 -21.921875 17.9375 -20.640625 C 19.34375 -19.367188 20.046875 -17.523438 20.046875 -15.109375 L 20.046875 -5.5625 C 20.046875 -4.476562 20.1875 -3.65625 20.46875 -3.09375 C 20.757812 -2.539062 21.304688 -2.265625 22.109375 -2.265625 C 22.460938 -2.265625 22.867188 -2.316406 23.328125 -2.421875 L 23.328125 -0.125 C 22.398438 0.09375 21.453125 0.203125 20.484375 0.203125 C 19.109375 0.203125 18.109375 -0.15625 17.484375 -0.875 C 16.867188 -1.59375 16.519531 -2.710938 16.4375 -4.234375 L 16.328125 -4.234375 C 15.378906 -2.546875 14.28125 -1.347656 13.03125 -0.640625 C 11.78125 0.0546875 10.265625 0.40625 8.484375 0.40625 Z M 9.3125 -2.359375 C 10.664062 -2.359375 11.867188 -2.664062 12.921875 -3.28125 C 13.972656 -3.894531 14.800781 -4.734375 15.40625 -5.796875 C 16.019531 -6.867188 16.328125 -7.972656 16.328125 -9.109375 L 16.328125 -10.9375 L 12.28125 -10.859375 C 10.550781 -10.828125 9.238281 -10.644531 8.34375 -10.3125 C 7.445312 -9.988281 6.757812 -9.484375 6.28125 -8.796875 C 5.800781 -8.117188 5.5625 -7.226562 5.5625 -6.125 C 5.5625 -4.925781 5.882812 -4 6.53125 -3.34375 C 7.1875 -2.6875 8.113281 -2.359375 9.3125 -2.359375 Z M 9.3125 -2.359375 "/></g></g><g transform="translate(149.000233, 221.14938)"><g><path d="M 2.90625 0 L 2.90625 -17 C 2.90625 -18.550781 2.863281 -20.269531 2.78125 -22.15625 L 6.265625 -22.15625 C 6.378906 -19.644531 6.4375 -18.132812 6.4375 -17.625 L 6.515625 -17.625 C 7.097656 -19.53125 7.769531 -20.828125 8.53125 -21.515625 C 9.300781 -22.210938 10.382812 -22.5625 11.78125 -22.5625 C 12.269531 -22.5625 12.765625 -22.492188 13.265625 -22.359375 L 13.265625 -18.984375 C 12.773438 -19.117188 12.117188 -19.1875 11.296875 -19.1875 C 9.773438 -19.1875 8.609375 -18.523438 7.796875 -17.203125 C 6.992188 -15.890625 6.59375 -14.003906 6.59375 -11.546875 L 6.59375 0 Z M 2.90625 0 "/></g></g><g transform="translate(162.96325, 221.14938)"><g><path d="M 11.34375 -0.15625 C 10.125 0.164062 8.882812 0.328125 7.625 0.328125 C 4.664062 0.328125 3.1875 -1.34375 3.1875 -4.6875 L 3.1875 -19.46875 L 0.640625 -19.46875 L 0.640625 -22.15625 L 3.34375 -22.15625 L 4.421875 -27.109375 L 6.875 -27.109375 L 6.875 -22.15625 L 10.96875 -22.15625 L 10.96875 -19.46875 L 6.875 -19.46875 L 6.875 -5.484375 C 6.875 -4.421875 7.046875 -3.671875 7.390625 -3.234375 C 7.742188 -2.804688 8.351562 -2.59375 9.21875 -2.59375 C 9.707031 -2.59375 10.414062 -2.691406 11.34375 -2.890625 Z M 11.34375 -0.15625 "/></g></g></g><g clip-path="url(#3e3299a84b)"><g clip-path="url(#4684c273a0)"><path fill="#ffc000" d="M 210.699219 193.101562 L 210.699219 220.054688 L 191.230469 220.054688 L 191.230469 193.101562 Z M 210.699219 193.101562 " fill-opacity="1" fill-rule="nonzero"/></g></g><g fill="#808080" fill-opacity="1"><g transform="translate(99.994731, 344.924694)"><g><path d="M 3.4375 0 L 3.4375 -28.859375 L 25.328125 -28.859375 L 25.328125 -25.65625 L 7.34375 -25.65625 L 7.34375 -16.40625 L 24.109375 -16.40625 L 24.109375 -13.25 L 7.34375 -13.25 L 7.34375 -3.1875 L 26.171875 -3.1875 L 26.171875 0 Z M 3.4375 0 "/></g></g><g transform="translate(127.961712, 344.924694)"><g><path d="M 16.890625 0 L 16.890625 -14.046875 C 16.890625 -15.503906 16.742188 -16.632812 16.453125 -17.4375 C 16.171875 -18.25 15.71875 -18.832031 15.09375 -19.1875 C 14.46875 -19.539062 13.546875 -19.71875 12.328125 -19.71875 C 10.554688 -19.71875 9.15625 -19.109375 8.125 -17.890625 C 7.101562 -16.679688 6.59375 -15 6.59375 -12.84375 L 6.59375 0 L 2.90625 0 L 2.90625 -17.421875 C 2.90625 -20.003906 2.863281 -21.582031 2.78125 -22.15625 L 6.265625 -22.15625 C 6.273438 -22.082031 6.285156 -21.894531 6.296875 -21.59375 C 6.316406 -21.300781 6.335938 -20.957031 6.359375 -20.5625 C 6.378906 -20.175781 6.40625 -19.445312 6.4375 -18.375 L 6.484375 -18.375 C 7.335938 -19.894531 8.316406 -20.972656 9.421875 -21.609375 C 10.535156 -22.242188 11.921875 -22.5625 13.578125 -22.5625 C 16.003906 -22.5625 17.78125 -21.957031 18.90625 -20.75 C 20.03125 -19.539062 20.59375 -17.546875 20.59375 -14.765625 L 20.59375 0 Z M 16.890625 0 "/></g></g><g transform="translate(151.281178, 344.924694)"><g><path d="M 16.8125 -3.5625 C 16.125 -2.144531 15.21875 -1.128906 14.09375 -0.515625 C 12.96875 0.0976562 11.570312 0.40625 9.90625 0.40625 C 7.113281 0.40625 5.054688 -0.535156 3.734375 -2.421875 C 2.421875 -4.304688 1.765625 -7.15625 1.765625 -10.96875 C 1.765625 -18.695312 4.476562 -22.5625 9.90625 -22.5625 C 11.59375 -22.5625 12.992188 -22.253906 14.109375 -21.640625 C 15.222656 -21.023438 16.125 -20.050781 16.8125 -18.71875 L 16.859375 -18.71875 L 16.8125 -21.1875 L 16.8125 -30.390625 L 20.5 -30.390625 L 20.5 -4.5625 C 20.5 -2.257812 20.539062 -0.738281 20.625 0 L 17.09375 0 C 17.050781 -0.21875 17.003906 -0.722656 16.953125 -1.515625 C 16.910156 -2.304688 16.890625 -2.988281 16.890625 -3.5625 Z M 5.625 -11.09375 C 5.625 -8 6.035156 -5.78125 6.859375 -4.4375 C 7.679688 -3.101562 9.015625 -2.4375 10.859375 -2.4375 C 12.941406 -2.4375 14.453125 -3.160156 15.390625 -4.609375 C 16.335938 -6.054688 16.8125 -8.300781 16.8125 -11.34375 C 16.8125 -14.28125 16.335938 -16.429688 15.390625 -17.796875 C 14.453125 -19.160156 12.953125 -19.84375 10.890625 -19.84375 C 9.035156 -19.84375 7.691406 -19.15625 6.859375 -17.78125 C 6.035156 -16.414062 5.625 -14.1875 5.625 -11.09375 Z M 5.625 -11.09375 "/></g></g></g><g clip-path="url(#40ee900b07)"><g clip-path="url(#d525dd1706)"><path fill="#ffc000" d="M 209.648438 318.25 L 209.648438 345.203125 L 190.183594 345.203125 L 190.183594 318.25 Z M 209.648438 318.25 " fill-opacity="1" fill-rule="nonzero"/></g></g></svg>