<svg xmlns="http://www.w3.org/2000/svg" xmlns:xlink="http://www.w3.org/1999/xlink" width="855" zoomAndPan="magnify" viewBox="0 0 641.25 449.249995" height="599" preserveAspectRatio="xMidYMid meet" version="1.0"><defs><filter x="0%" y="0%" width="100%" height="100%" id="64ad3d6b62"><feColorMatrix values="0 0 0 0 1 0 0 0 0 1 0 0 0 0 1 0 0 0 1 0" color-interpolation-filters="sRGB"/></filter><g/><clipPath id="297a6ccfea"><path d="M 110.445312 75.085938 L 225.21875 75.085938 L 225.21875 116.402344 L 110.445312 116.402344 Z M 110.445312 75.085938 " clip-rule="nonzero"/></clipPath><clipPath id="a17aea747e"><path d="M 229.464844 75.085938 L 335.601562 75.085938 L 335.601562 116.402344 L 229.464844 116.402344 Z M 229.464844 75.085938 " clip-rule="nonzero"/></clipPath><clipPath id="bf5dec99c6"><path d="M 119.085938 120.980469 L 225.222656 120.980469 L 225.222656 159.191406 L 119.085938 159.191406 Z M 119.085938 120.980469 " clip-rule="nonzero"/></clipPath><mask id="554832bf5a"><g filter="url(#64ad3d6b62)"><rect x="-64.125" width="769.5" fill="#000000" y="-44.924999" height="539.099994" fill-opacity="0.498"/></g></mask><clipPath id="6d5cb35eb5"><path d="M 0.0859375 0.980469 L 106.222656 0.980469 L 106.222656 39.191406 L 0.0859375 39.191406 Z M 0.0859375 0.980469 " clip-rule="nonzero"/></clipPath><clipPath id="f18e243598"><rect x="0" width="107" y="0" height="40"/></clipPath><clipPath id="c1fee14642"><path d="M 229.464844 120.980469 L 335.601562 120.980469 L 335.601562 159.191406 L 229.464844 159.191406 Z M 229.464844 120.980469 " clip-rule="nonzero"/></clipPath><mask id="920308173f"><g filter="url(#64ad3d6b62)"><rect x="-64.125" width="769.5" fill="#000000" y="-44.924999" height="539.099994" fill-opacity="0.349"/></g></mask><clipPath id="effd6444d8"><path d="M 0.464844 0.980469 L 106.601562 0.980469 L 106.601562 39.191406 L 0.464844 39.191406 Z M 0.464844 0.980469 " clip-rule="nonzero"/></clipPath><clipPath id="fd978f88ad"><rect x="0" width="107" y="0" height="40"/></clipPath><clipPath id="5bfa38fe5e"><path d="M 339.84375 75.085938 L 445.980469 75.085938 L 445.980469 116.402344 L 339.84375 116.402344 Z M 339.84375 75.085938 " clip-rule="nonzero"/></clipPath><clipPath id="6cc752df4b"><path d="M 450.222656 75.085938 L 565 75.085938 L 565 116.402344 L 450.222656 116.402344 Z M 450.222656 75.085938 " clip-rule="nonzero"/></clipPath><clipPath id="0af5fdabfe"><path d="M 339.84375 120.980469 L 445.980469 120.980469 L 445.980469 159.191406 L 339.84375 159.191406 Z M 339.84375 120.980469 " clip-rule="nonzero"/></clipPath><mask id="12ac8bafee"><g filter="url(#64ad3d6b62)"><rect x="-64.125" width="769.5" fill="#000000" y="-44.924999" height="539.099994" fill-opacity="0.349"/></g></mask><clipPath id="0ca0074fa1"><path d="M 0.84375 0.980469 L 106.980469 0.980469 L 106.980469 39.191406 L 0.84375 39.191406 Z M 0.84375 0.980469 " clip-rule="nonzero"/></clipPath><clipPath id="3aded741a8"><rect x="0" width="107" y="0" height="40"/></clipPath><clipPath id="3828cfdb4e"><path d="M 450.222656 120.980469 L 556.359375 120.980469 L 556.359375 159.191406 L 450.222656 159.191406 Z M 450.222656 120.980469 " clip-rule="nonzero"/></clipPath><mask id="a5f5b3f58c"><g filter="url(#64ad3d6b62)"><rect x="-64.125" width="769.5" fill="#000000" y="-44.924999" height="539.099994" fill-opacity="0.349"/></g></mask><clipPath id="d40d9b3edb"><path d="M 0.222656 0.980469 L 106.359375 0.980469 L 106.359375 39.191406 L 0.222656 39.191406 Z M 0.222656 0.980469 " clip-rule="nonzero"/></clipPath><clipPath id="39d99b8e43"><rect x="0" width="107" y="0" height="40"/></clipPath><clipPath id="b50a03dba7"><path d="M 119.085938 163.765625 L 225.222656 163.765625 L 225.222656 201.972656 L 119.085938 201.972656 Z M 119.085938 163.765625 " clip-rule="nonzero"/></clipPath><mask id="3fab6d4e1a"><g filter="url(#64ad3d6b62)"><rect x="-64.125" width="769.5" fill="#000000" y="-44.924999" height="539.099994" fill-opacity="0.498"/></g></mask><clipPath id="942df24434"><path d="M 0.0859375 0.765625 L 106.222656 0.765625 L 106.222656 38.972656 L 0.0859375 38.972656 Z M 0.0859375 0.765625 " clip-rule="nonzero"/></clipPath><clipPath id="dece7dba4f"><rect x="0" width="107" y="0" height="39"/></clipPath><clipPath id="35948c48af"><path d="M 229.464844 163.765625 L 335.601562 163.765625 L 335.601562 201.972656 L 229.464844 201.972656 Z M 229.464844 163.765625 " clip-rule="nonzero"/></clipPath><mask id="cd4d3782c2"><g filter="url(#64ad3d6b62)"><rect x="-64.125" width="769.5" fill="#000000" y="-44.924999" height="539.099994" fill-opacity="0.349"/></g></mask><clipPath id="5309a00e16"><path d="M 0.464844 0.765625 L 106.601562 0.765625 L 106.601562 38.972656 L 0.464844 38.972656 Z M 0.464844 0.765625 " clip-rule="nonzero"/></clipPath><clipPath id="b3663c339c"><rect x="0" width="107" y="0" height="39"/></clipPath><clipPath id="96813d4bfb"><path d="M 119.085938 206.546875 L 225.222656 206.546875 L 225.222656 244.757812 L 119.085938 244.757812 Z M 119.085938 206.546875 " clip-rule="nonzero"/></clipPath><mask id="378bd7aff1"><g filter="url(#64ad3d6b62)"><rect x="-64.125" width="769.5" fill="#000000" y="-44.924999" height="539.099994" fill-opacity="0.498"/></g></mask><clipPath id="e02832a6e9"><path d="M 0.0859375 0.546875 L 106.222656 0.546875 L 106.222656 38.757812 L 0.0859375 38.757812 Z M 0.0859375 0.546875 " clip-rule="nonzero"/></clipPath><clipPath id="caa99795df"><rect x="0" width="107" y="0" height="39"/></clipPath><clipPath id="f39c43ae88"><path d="M 229.464844 206.546875 L 335.601562 206.546875 L 335.601562 244.757812 L 229.464844 244.757812 Z M 229.464844 206.546875 " clip-rule="nonzero"/></clipPath><mask id="ad7134c8f6"><g filter="url(#64ad3d6b62)"><rect x="-64.125" width="769.5" fill="#000000" y="-44.924999" height="539.099994" fill-opacity="0.349"/></g></mask><clipPath id="471ba5e650"><path d="M 0.464844 0.546875 L 106.601562 0.546875 L 106.601562 38.757812 L 0.464844 38.757812 Z M 0.464844 0.546875 " clip-rule="nonzero"/></clipPath><clipPath id="33201fe1ef"><rect x="0" width="107" y="0" height="39"/></clipPath><clipPath id="412732d915"><path d="M 339.84375 163.765625 L 445.980469 163.765625 L 445.980469 201.972656 L 339.84375 201.972656 Z M 339.84375 163.765625 " clip-rule="nonzero"/></clipPath><mask id="731c42cb7b"><g filter="url(#64ad3d6b62)"><rect x="-64.125" width="769.5" fill="#000000" y="-44.924999" height="539.099994" fill-opacity="0.349"/></g></mask><clipPath id="812b960af9"><path d="M 0.84375 0.765625 L 106.980469 0.765625 L 106.980469 38.972656 L 0.84375 38.972656 Z M 0.84375 0.765625 " clip-rule="nonzero"/></clipPath><clipPath id="c49e4d5e6a"><rect x="0" width="107" y="0" height="39"/></clipPath><clipPath id="4f77fd2f88"><path d="M 450.222656 163.765625 L 556.359375 163.765625 L 556.359375 201.972656 L 450.222656 201.972656 Z M 450.222656 163.765625 " clip-rule="nonzero"/></clipPath><mask id="06affd1d3a"><g filter="url(#64ad3d6b62)"><rect x="-64.125" width="769.5" fill="#000000" y="-44.924999" height="539.099994" fill-opacity="0.349"/></g></mask><clipPath id="5e40cde371"><path d="M 0.222656 0.765625 L 106.359375 0.765625 L 106.359375 38.972656 L 0.222656 38.972656 Z M 0.222656 0.765625 " clip-rule="nonzero"/></clipPath><clipPath id="581b0ddd86"><rect x="0" width="107" y="0" height="39"/></clipPath><clipPath id="b87ca159f9"><path d="M 339.84375 206.546875 L 445.980469 206.546875 L 445.980469 244.757812 L 339.84375 244.757812 Z M 339.84375 206.546875 " clip-rule="nonzero"/></clipPath><mask id="558873abaf"><g filter="url(#64ad3d6b62)"><rect x="-64.125" width="769.5" fill="#000000" y="-44.924999" height="539.099994" fill-opacity="0.349"/></g></mask><clipPath id="06c013e0a9"><path d="M 0.84375 0.546875 L 106.980469 0.546875 L 106.980469 38.757812 L 0.84375 38.757812 Z M 0.84375 0.546875 " clip-rule="nonzero"/></clipPath><clipPath id="ddb712a735"><rect x="0" width="107" y="0" height="39"/></clipPath><clipPath id="ef28270fca"><path d="M 450.222656 206.546875 L 556.359375 206.546875 L 556.359375 244.757812 L 450.222656 244.757812 Z M 450.222656 206.546875 " clip-rule="nonzero"/></clipPath><mask id="fafb15a5b0"><g filter="url(#64ad3d6b62)"><rect x="-64.125" width="769.5" fill="#000000" y="-44.924999" height="539.099994" fill-opacity="0.349"/></g></mask><clipPath id="43386331d1"><path d="M 0.222656 0.546875 L 106.359375 0.546875 L 106.359375 38.757812 L 0.222656 38.757812 Z M 0.222656 0.546875 " clip-rule="nonzero"/></clipPath><clipPath id="da3fd1667d"><rect x="0" width="107" y="0" height="39"/></clipPath><clipPath id="702516741f"><path d="M 119.085938 249.332031 L 225.222656 249.332031 L 225.222656 287.542969 L 119.085938 287.542969 Z M 119.085938 249.332031 " clip-rule="nonzero"/></clipPath><mask id="2433699afc"><g filter="url(#64ad3d6b62)"><rect x="-64.125" width="769.5" fill="#000000" y="-44.924999" height="539.099994" fill-opacity="0.498"/></g></mask><clipPath id="11d1fcc487"><path d="M 0.0859375 0.332031 L 106.222656 0.332031 L 106.222656 38.542969 L 0.0859375 38.542969 Z M 0.0859375 0.332031 " clip-rule="nonzero"/></clipPath><clipPath id="0412f90caa"><rect x="0" width="107" y="0" height="39"/></clipPath><clipPath id="111b9d84a0"><path d="M 229.464844 249.332031 L 335.601562 249.332031 L 335.601562 287.542969 L 229.464844 287.542969 Z M 229.464844 249.332031 " clip-rule="nonzero"/></clipPath><mask id="3a72b51969"><g filter="url(#64ad3d6b62)"><rect x="-64.125" width="769.5" fill="#000000" y="-44.924999" height="539.099994" fill-opacity="0.349"/></g></mask><clipPath id="1f9e2d5daa"><path d="M 0.464844 0.332031 L 106.601562 0.332031 L 106.601562 38.542969 L 0.464844 38.542969 Z M 0.464844 0.332031 " clip-rule="nonzero"/></clipPath><clipPath id="9f3e9f8864"><rect x="0" width="107" y="0" height="39"/></clipPath><clipPath id="83ec63cc26"><path d="M 339.84375 249.332031 L 445.980469 249.332031 L 445.980469 287.542969 L 339.84375 287.542969 Z M 339.84375 249.332031 " clip-rule="nonzero"/></clipPath><mask id="9630ca9776"><g filter="url(#64ad3d6b62)"><rect x="-64.125" width="769.5" fill="#000000" y="-44.924999" height="539.099994" fill-opacity="0.349"/></g></mask><clipPath id="ae6f2f6086"><path d="M 0.84375 0.332031 L 106.980469 0.332031 L 106.980469 38.542969 L 0.84375 38.542969 Z M 0.84375 0.332031 " clip-rule="nonzero"/></clipPath><clipPath id="731fd51a21"><rect x="0" width="107" y="0" height="39"/></clipPath><clipPath id="bcdadd99bb"><path d="M 450.222656 249.332031 L 556.359375 249.332031 L 556.359375 287.542969 L 450.222656 287.542969 Z M 450.222656 249.332031 " clip-rule="nonzero"/></clipPath><mask id="b6c39522e8"><g filter="url(#64ad3d6b62)"><rect x="-64.125" width="769.5" fill="#000000" y="-44.924999" height="539.099994" fill-opacity="0.349"/></g></mask><clipPath id="f86c64372d"><path d="M 0.222656 0.332031 L 106.359375 0.332031 L 106.359375 38.542969 L 0.222656 38.542969 Z M 0.222656 0.332031 " clip-rule="nonzero"/></clipPath><clipPath id="0f00ce5b95"><rect x="0" width="107" y="0" height="39"/></clipPath><clipPath id="513a6f3733"><path d="M 119.085938 292.117188 L 225.222656 292.117188 L 225.222656 330.324219 L 119.085938 330.324219 Z M 119.085938 292.117188 " clip-rule="nonzero"/></clipPath><mask id="3fb4ae189b"><g filter="url(#64ad3d6b62)"><rect x="-64.125" width="769.5" fill="#000000" y="-44.924999" height="539.099994" fill-opacity="0.498"/></g></mask><clipPath id="10e63bc292"><path d="M 0.0859375 0.117188 L 106.222656 0.117188 L 106.222656 38.324219 L 0.0859375 38.324219 Z M 0.0859375 0.117188 " clip-rule="nonzero"/></clipPath><clipPath id="421e3e7a12"><rect x="0" width="107" y="0" height="39"/></clipPath><clipPath id="a53b221f56"><path d="M 229.464844 292.117188 L 335.601562 292.117188 L 335.601562 330.324219 L 229.464844 330.324219 Z M 229.464844 292.117188 " clip-rule="nonzero"/></clipPath><mask id="5ac7f9a295"><g filter="url(#64ad3d6b62)"><rect x="-64.125" width="769.5" fill="#000000" y="-44.924999" height="539.099994" fill-opacity="0.349"/></g></mask><clipPath id="4c04bfeccb"><path d="M 0.464844 0.117188 L 106.601562 0.117188 L 106.601562 38.324219 L 0.464844 38.324219 Z M 0.464844 0.117188 " clip-rule="nonzero"/></clipPath><clipPath id="a11e08a1c5"><rect x="0" width="107" y="0" height="39"/></clipPath><clipPath id="101505848d"><path d="M 339.84375 292.117188 L 445.980469 292.117188 L 445.980469 330.324219 L 339.84375 330.324219 Z M 339.84375 292.117188 " clip-rule="nonzero"/></clipPath><mask id="7e99804a23"><g filter="url(#64ad3d6b62)"><rect x="-64.125" width="769.5" fill="#000000" y="-44.924999" height="539.099994" fill-opacity="0.349"/></g></mask><clipPath id="dba201c872"><path d="M 0.84375 0.117188 L 106.980469 0.117188 L 106.980469 38.324219 L 0.84375 38.324219 Z M 0.84375 0.117188 " clip-rule="nonzero"/></clipPath><clipPath id="95961ad65b"><rect x="0" width="107" y="0" height="39"/></clipPath><clipPath id="6a6a8e9d32"><path d="M 450.222656 292.117188 L 556.359375 292.117188 L 556.359375 330.324219 L 450.222656 330.324219 Z M 450.222656 292.117188 " clip-rule="nonzero"/></clipPath><mask id="d2cd0bac97"><g filter="url(#64ad3d6b62)"><rect x="-64.125" width="769.5" fill="#000000" y="-44.924999" height="539.099994" fill-opacity="0.349"/></g></mask><clipPath id="4ce9f537a8"><path d="M 0.222656 0.117188 L 106.359375 0.117188 L 106.359375 38.324219 L 0.222656 38.324219 Z M 0.222656 0.117188 " clip-rule="nonzero"/></clipPath><clipPath id="f5d0caecd0"><rect x="0" width="107" y="0" height="39"/></clipPath><clipPath id="15bb734668"><path d="M 119.085938 334.898438 L 225.222656 334.898438 L 225.222656 373.109375 L 119.085938 373.109375 Z M 119.085938 334.898438 " clip-rule="nonzero"/></clipPath><mask id="59397fb05e"><g filter="url(#64ad3d6b62)"><rect x="-64.125" width="769.5" fill="#000000" y="-44.924999" height="539.099994" fill-opacity="0.498"/></g></mask><clipPath id="8dee5f4521"><path d="M 0.0859375 0.898438 L 106.222656 0.898438 L 106.222656 39.109375 L 0.0859375 39.109375 Z M 0.0859375 0.898438 " clip-rule="nonzero"/></clipPath><clipPath id="4c8adb40ac"><rect x="0" width="107" y="0" height="40"/></clipPath><clipPath id="5646874eb3"><path d="M 229.464844 334.898438 L 335.601562 334.898438 L 335.601562 373.109375 L 229.464844 373.109375 Z M 229.464844 334.898438 " clip-rule="nonzero"/></clipPath><mask id="7191def10d"><g filter="url(#64ad3d6b62)"><rect x="-64.125" width="769.5" fill="#000000" y="-44.924999" height="539.099994" fill-opacity="0.349"/></g></mask><clipPath id="65efabde3d"><path d="M 0.464844 0.898438 L 106.601562 0.898438 L 106.601562 39.109375 L 0.464844 39.109375 Z M 0.464844 0.898438 " clip-rule="nonzero"/></clipPath><clipPath id="2baec9d231"><rect x="0" width="107" y="0" height="40"/></clipPath><clipPath id="4247139fa4"><path d="M 339.84375 334.898438 L 445.980469 334.898438 L 445.980469 373.109375 L 339.84375 373.109375 Z M 339.84375 334.898438 " clip-rule="nonzero"/></clipPath><mask id="b1214d0956"><g filter="url(#64ad3d6b62)"><rect x="-64.125" width="769.5" fill="#000000" y="-44.924999" height="539.099994" fill-opacity="0.349"/></g></mask><clipPath id="5ca9f646f2"><path d="M 0.84375 0.898438 L 106.980469 0.898438 L 106.980469 39.109375 L 0.84375 39.109375 Z M 0.84375 0.898438 " clip-rule="nonzero"/></clipPath><clipPath id="19c32b486c"><rect x="0" width="107" y="0" height="40"/></clipPath><clipPath id="895e3f653b"><path d="M 450.222656 334.898438 L 556.359375 334.898438 L 556.359375 373.109375 L 450.222656 373.109375 Z M 450.222656 334.898438 " clip-rule="nonzero"/></clipPath><mask id="6953b49d75"><g filter="url(#64ad3d6b62)"><rect x="-64.125" width="769.5" fill="#000000" y="-44.924999" height="539.099994" fill-opacity="0.349"/></g></mask><clipPath id="9da3c8799c"><path d="M 0.222656 0.898438 L 106.359375 0.898438 L 106.359375 39.109375 L 0.222656 39.109375 Z M 0.222656 0.898438 " clip-rule="nonzero"/></clipPath><clipPath id="7cbd23f9fc"><rect x="0" width="107" y="0" height="40"/></clipPath></defs><g clip-path="url(#297a6ccfea)"><path fill="#d9d9d9" d="M 110.445312 75.085938 L 225.003906 75.085938 L 225.003906 116.269531 L 110.445312 116.269531 Z M 110.445312 75.085938 " fill-opacity="1" fill-rule="nonzero"/></g><g clip-path="url(#a17aea747e)"><path fill="#d9d9d9" d="M 229.464844 75.085938 L 335.789062 75.085938 L 335.789062 116.269531 L 229.464844 116.269531 Z M 229.464844 75.085938 " fill-opacity="1" fill-rule="nonzero"/></g><g clip-path="url(#bf5dec99c6)"><g mask="url(#554832bf5a)"><g transform="matrix(1, 0, 0, 1, 119, 120)"><g clip-path="url(#f18e243598)"><g clip-path="url(#6d5cb35eb5)"><path fill="#03e313" d="M 0.0859375 0.980469 L 106.410156 0.980469 L 106.410156 39.167969 L 0.0859375 39.167969 Z M 0.0859375 0.980469 " fill-opacity="1" fill-rule="nonzero"/></g></g></g></g></g><g fill="#808080" fill-opacity="1"><g transform="translate(163.824775, 150.182859)"><g><path d="M 1.890625 0 L 1.890625 -3.0625 L 6.984375 -3.0625 L 6.984375 -17.109375 L 2.046875 -14.03125 L 2.046875 -17.265625 L 7.203125 -20.609375 L 11.09375 -20.609375 L 11.09375 -3.0625 L 15.828125 -3.0625 L 15.828125 0 Z M 1.890625 0 "/></g></g></g><g clip-path="url(#c1fee14642)"><g mask="url(#920308173f)"><g transform="matrix(1, 0, 0, 1, 229, 120)"><g clip-path="url(#fd978f88ad)"><g clip-path="url(#effd6444d8)"><path fill="#03e313" d="M 0.464844 0.980469 L 106.789062 0.980469 L 106.789062 39.167969 L 0.464844 39.167969 Z M 0.464844 0.980469 " fill-opacity="1" fill-rule="nonzero"/></g></g></g></g></g><g clip-path="url(#5bfa38fe5e)"><path fill="#d9d9d9" d="M 339.84375 75.085938 L 446.167969 75.085938 L 446.167969 116.269531 L 339.84375 116.269531 Z M 339.84375 75.085938 " fill-opacity="1" fill-rule="nonzero"/></g><g clip-path="url(#6cc752df4b)"><path fill="#d9d9d9" d="M 450.222656 75.085938 L 564.785156 75.085938 L 564.785156 116.269531 L 450.222656 116.269531 Z M 450.222656 75.085938 " fill-opacity="1" fill-rule="nonzero"/></g><g clip-path="url(#0af5fdabfe)"><g mask="url(#12ac8bafee)"><g transform="matrix(1, 0, 0, 1, 339, 120)"><g clip-path="url(#3aded741a8)"><g clip-path="url(#0ca0074fa1)"><path fill="#03e313" d="M 0.84375 0.980469 L 107.167969 0.980469 L 107.167969 39.167969 L 0.84375 39.167969 Z M 0.84375 0.980469 " fill-opacity="1" fill-rule="nonzero"/></g></g></g></g></g><g clip-path="url(#3828cfdb4e)"><g mask="url(#a5f5b3f58c)"><g transform="matrix(1, 0, 0, 1, 450, 120)"><g clip-path="url(#39d99b8e43)"><g clip-path="url(#d40d9b3edb)"><path fill="#03e313" d="M 0.222656 0.980469 L 106.546875 0.980469 L 106.546875 39.167969 L 0.222656 39.167969 Z M 0.222656 0.980469 " fill-opacity="1" fill-rule="nonzero"/></g></g></g></g></g><g clip-path="url(#b50a03dba7)"><g mask="url(#3fab6d4e1a)"><g transform="matrix(1, 0, 0, 1, 119, 163)"><g clip-path="url(#dece7dba4f)"><g clip-path="url(#942df24434)"><path fill="#03e313" d="M 0.0859375 0.765625 L 106.410156 0.765625 L 106.410156 38.953125 L 0.0859375 38.953125 Z M 0.0859375 0.765625 " fill-opacity="1" fill-rule="nonzero"/></g></g></g></g></g><g fill="#808080" fill-opacity="1"><g transform="translate(163.824775, 192.966431)"><g><path d="M 1.03125 0 L 1.03125 -2.859375 C 1.570312 -4.035156 2.335938 -5.179688 3.328125 -6.296875 C 4.316406 -7.421875 5.5625 -8.59375 7.0625 -9.8125 C 8.507812 -10.976562 9.519531 -11.941406 10.09375 -12.703125 C 10.675781 -13.460938 10.96875 -14.210938 10.96875 -14.953125 C 10.96875 -16.742188 10.066406 -17.640625 8.265625 -17.640625 C 7.390625 -17.640625 6.71875 -17.398438 6.25 -16.921875 C 5.789062 -16.453125 5.492188 -15.742188 5.359375 -14.796875 L 1.21875 -15.03125 C 1.445312 -16.945312 2.15625 -18.40625 3.34375 -19.40625 C 4.539062 -20.414062 6.171875 -20.921875 8.234375 -20.921875 C 10.453125 -20.921875 12.15625 -20.410156 13.34375 -19.390625 C 14.539062 -18.378906 15.140625 -16.957031 15.140625 -15.125 C 15.140625 -14.15625 14.945312 -13.28125 14.5625 -12.5 C 14.1875 -11.71875 13.703125 -11 13.109375 -10.34375 C 12.515625 -9.6875 11.851562 -9.070312 11.125 -8.5 C 10.394531 -7.925781 9.6875 -7.363281 9 -6.8125 C 8.320312 -6.269531 7.703125 -5.71875 7.140625 -5.15625 C 6.578125 -4.601562 6.160156 -4.007812 5.890625 -3.375 L 15.453125 -3.375 L 15.453125 0 Z M 1.03125 0 "/></g></g></g><g clip-path="url(#35948c48af)"><g mask="url(#cd4d3782c2)"><g transform="matrix(1, 0, 0, 1, 229, 163)"><g clip-path="url(#b3663c339c)"><g clip-path="url(#5309a00e16)"><path fill="#03e313" d="M 0.464844 0.765625 L 106.789062 0.765625 L 106.789062 38.953125 L 0.464844 38.953125 Z M 0.464844 0.765625 " fill-opacity="1" fill-rule="nonzero"/></g></g></g></g></g><g clip-path="url(#96813d4bfb)"><g mask="url(#378bd7aff1)"><g transform="matrix(1, 0, 0, 1, 119, 206)"><g clip-path="url(#caa99795df)"><g clip-path="url(#e02832a6e9)"><path fill="#03e313" d="M 0.0859375 0.546875 L 106.410156 0.546875 L 106.410156 38.734375 L 0.0859375 38.734375 Z M 0.0859375 0.546875 " fill-opacity="1" fill-rule="nonzero"/></g></g></g></g></g><g fill="#808080" fill-opacity="1"><g transform="translate(163.824775, 235.750018)"><g><path d="M 15.578125 -5.71875 C 15.578125 -3.789062 14.941406 -2.296875 13.671875 -1.234375 C 12.410156 -0.179688 10.609375 0.34375 8.265625 0.34375 C 6.046875 0.34375 4.285156 -0.164062 2.984375 -1.1875 C 1.679688 -2.207031 0.914062 -3.679688 0.6875 -5.609375 L 4.875 -5.96875 C 5.132812 -3.988281 6.257812 -3 8.25 -3 C 9.226562 -3 9.988281 -3.238281 10.53125 -3.71875 C 11.082031 -4.207031 11.359375 -4.957031 11.359375 -5.96875 C 11.359375 -6.882812 11.023438 -7.582031 10.359375 -8.0625 C 9.703125 -8.550781 8.722656 -8.796875 7.421875 -8.796875 L 5.984375 -8.796875 L 5.984375 -12.125 L 7.328125 -12.125 C 8.503906 -12.125 9.390625 -12.363281 9.984375 -12.84375 C 10.578125 -13.332031 10.875 -14.023438 10.875 -14.921875 C 10.875 -15.765625 10.640625 -16.425781 10.171875 -16.90625 C 9.703125 -17.394531 9.015625 -17.640625 8.109375 -17.640625 C 7.253906 -17.640625 6.566406 -17.40625 6.046875 -16.9375 C 5.523438 -16.46875 5.222656 -15.804688 5.140625 -14.953125 L 1.03125 -15.234375 C 1.25 -17.015625 1.988281 -18.40625 3.25 -19.40625 C 4.507812 -20.414062 6.148438 -20.921875 8.171875 -20.921875 C 10.328125 -20.921875 12.007812 -20.429688 13.21875 -19.453125 C 14.4375 -18.484375 15.046875 -17.144531 15.046875 -15.4375 C 15.046875 -14.144531 14.664062 -13.082031 13.90625 -12.25 C 13.15625 -11.425781 12.066406 -10.878906 10.640625 -10.609375 L 10.640625 -10.546875 C 12.222656 -10.359375 13.441406 -9.835938 14.296875 -8.984375 C 15.148438 -8.128906 15.578125 -7.039062 15.578125 -5.71875 Z M 15.578125 -5.71875 "/></g></g></g><g clip-path="url(#f39c43ae88)"><g mask="url(#ad7134c8f6)"><g transform="matrix(1, 0, 0, 1, 229, 206)"><g clip-path="url(#33201fe1ef)"><g clip-path="url(#471ba5e650)"><path fill="#03e313" d="M 0.464844 0.546875 L 106.789062 0.546875 L 106.789062 38.734375 L 0.464844 38.734375 Z M 0.464844 0.546875 " fill-opacity="1" fill-rule="nonzero"/></g></g></g></g></g><g clip-path="url(#412732d915)"><g mask="url(#731c42cb7b)"><g transform="matrix(1, 0, 0, 1, 339, 163)"><g clip-path="url(#c49e4d5e6a)"><g clip-path="url(#812b960af9)"><path fill="#03e313" d="M 0.84375 0.765625 L 107.167969 0.765625 L 107.167969 38.953125 L 0.84375 38.953125 Z M 0.84375 0.765625 " fill-opacity="1" fill-rule="nonzero"/></g></g></g></g></g><g clip-path="url(#4f77fd2f88)"><g mask="url(#06affd1d3a)"><g transform="matrix(1, 0, 0, 1, 450, 163)"><g clip-path="url(#581b0ddd86)"><g clip-path="url(#5e40cde371)"><path fill="#03e313" d="M 0.222656 0.765625 L 106.546875 0.765625 L 106.546875 38.953125 L 0.222656 38.953125 Z M 0.222656 0.765625 " fill-opacity="1" fill-rule="nonzero"/></g></g></g></g></g><g clip-path="url(#b87ca159f9)"><g mask="url(#558873abaf)"><g transform="matrix(1, 0, 0, 1, 339, 206)"><g clip-path="url(#ddb712a735)"><g clip-path="url(#06c013e0a9)"><path fill="#03e313" d="M 0.84375 0.546875 L 107.167969 0.546875 L 107.167969 38.734375 L 0.84375 38.734375 Z M 0.84375 0.546875 " fill-opacity="1" fill-rule="nonzero"/></g></g></g></g></g><g clip-path="url(#ef28270fca)"><g mask="url(#fafb15a5b0)"><g transform="matrix(1, 0, 0, 1, 450, 206)"><g clip-path="url(#da3fd1667d)"><g clip-path="url(#43386331d1)"><path fill="#03e313" d="M 0.222656 0.546875 L 106.546875 0.546875 L 106.546875 38.734375 L 0.222656 38.734375 Z M 0.222656 0.546875 " fill-opacity="1" fill-rule="nonzero"/></g></g></g></g></g><g clip-path="url(#702516741f)"><g mask="url(#2433699afc)"><g transform="matrix(1, 0, 0, 1, 119, 249)"><g clip-path="url(#0412f90caa)"><g clip-path="url(#11d1fcc487)"><path fill="#03e313" d="M 0.0859375 0.332031 L 106.410156 0.332031 L 106.410156 38.519531 L 0.0859375 38.519531 Z M 0.0859375 0.332031 " fill-opacity="1" fill-rule="nonzero"/></g></g></g></g></g><g fill="#808080" fill-opacity="1"><g transform="translate(163.824775, 278.533591)"><g><path d="M 13.75 -4.203125 L 13.75 0 L 9.828125 0 L 9.828125 -4.203125 L 0.453125 -4.203125 L 0.453125 -7.28125 L 9.15625 -20.609375 L 13.75 -20.609375 L 13.75 -7.25 L 16.5 -7.25 L 16.5 -4.203125 Z M 9.828125 -14 C 9.828125 -14.519531 9.84375 -15.085938 9.875 -15.703125 C 9.914062 -16.316406 9.941406 -16.710938 9.953125 -16.890625 C 9.703125 -16.347656 9.242188 -15.554688 8.578125 -14.515625 L 3.796875 -7.25 L 9.828125 -7.25 Z M 9.828125 -14 "/></g></g></g><g clip-path="url(#111b9d84a0)"><g mask="url(#3a72b51969)"><g transform="matrix(1, 0, 0, 1, 229, 249)"><g clip-path="url(#9f3e9f8864)"><g clip-path="url(#1f9e2d5daa)"><path fill="#03e313" d="M 0.464844 0.332031 L 106.789062 0.332031 L 106.789062 38.519531 L 0.464844 38.519531 Z M 0.464844 0.332031 " fill-opacity="1" fill-rule="nonzero"/></g></g></g></g></g><g clip-path="url(#83ec63cc26)"><g mask="url(#9630ca9776)"><g transform="matrix(1, 0, 0, 1, 339, 249)"><g clip-path="url(#731fd51a21)"><g clip-path="url(#ae6f2f6086)"><path fill="#03e313" d="M 0.84375 0.332031 L 107.167969 0.332031 L 107.167969 38.519531 L 0.84375 38.519531 Z M 0.84375 0.332031 " fill-opacity="1" fill-rule="nonzero"/></g></g></g></g></g><g clip-path="url(#bcdadd99bb)"><g mask="url(#b6c39522e8)"><g transform="matrix(1, 0, 0, 1, 450, 249)"><g clip-path="url(#0f00ce5b95)"><g clip-path="url(#f86c64372d)"><path fill="#03e313" d="M 0.222656 0.332031 L 106.546875 0.332031 L 106.546875 38.519531 L 0.222656 38.519531 Z M 0.222656 0.332031 " fill-opacity="1" fill-rule="nonzero"/></g></g></g></g></g><g clip-path="url(#513a6f3733)"><g mask="url(#3fb4ae189b)"><g transform="matrix(1, 0, 0, 1, 119, 292)"><g clip-path="url(#421e3e7a12)"><g clip-path="url(#10e63bc292)"><path fill="#03e313" d="M 0.0859375 0.117188 L 106.410156 0.117188 L 106.410156 38.300781 L 0.0859375 38.300781 Z M 0.0859375 0.117188 " fill-opacity="1" fill-rule="nonzero"/></g></g></g></g></g><g fill="#808080" fill-opacity="1"><g transform="translate(163.824775, 321.317164)"><g><path d="M 15.828125 -6.859375 C 15.828125 -4.671875 15.144531 -2.929688 13.78125 -1.640625 C 12.425781 -0.347656 10.5625 0.296875 8.1875 0.296875 C 6.125 0.296875 4.46875 -0.164062 3.21875 -1.09375 C 1.976562 -2.03125 1.210938 -3.378906 0.921875 -5.140625 L 5.03125 -5.484375 C 5.25 -4.609375 5.628906 -3.96875 6.171875 -3.5625 C 6.710938 -3.164062 7.398438 -2.96875 8.234375 -2.96875 C 9.253906 -2.96875 10.066406 -3.289062 10.671875 -3.9375 C 11.285156 -4.59375 11.59375 -5.535156 11.59375 -6.765625 C 11.59375 -7.847656 11.304688 -8.710938 10.734375 -9.359375 C 10.160156 -10.015625 9.359375 -10.34375 8.328125 -10.34375 C 7.179688 -10.34375 6.25 -9.898438 5.53125 -9.015625 L 1.515625 -9.015625 L 2.234375 -20.609375 L 14.625 -20.609375 L 14.625 -17.546875 L 5.96875 -17.546875 L 5.625 -12.34375 C 6.625 -13.21875 7.867188 -13.65625 9.359375 -13.65625 C 11.316406 -13.65625 12.882812 -13.046875 14.0625 -11.828125 C 15.238281 -10.609375 15.828125 -8.953125 15.828125 -6.859375 Z M 15.828125 -6.859375 "/></g></g></g><g clip-path="url(#a53b221f56)"><g mask="url(#5ac7f9a295)"><g transform="matrix(1, 0, 0, 1, 229, 292)"><g clip-path="url(#a11e08a1c5)"><g clip-path="url(#4c04bfeccb)"><path fill="#03e313" d="M 0.464844 0.117188 L 106.789062 0.117188 L 106.789062 38.300781 L 0.464844 38.300781 Z M 0.464844 0.117188 " fill-opacity="1" fill-rule="nonzero"/></g></g></g></g></g><g clip-path="url(#101505848d)"><g mask="url(#7e99804a23)"><g transform="matrix(1, 0, 0, 1, 339, 292)"><g clip-path="url(#95961ad65b)"><g clip-path="url(#dba201c872)"><path fill="#03e313" d="M 0.84375 0.117188 L 107.167969 0.117188 L 107.167969 38.300781 L 0.84375 38.300781 Z M 0.84375 0.117188 " fill-opacity="1" fill-rule="nonzero"/></g></g></g></g></g><g clip-path="url(#6a6a8e9d32)"><g mask="url(#d2cd0bac97)"><g transform="matrix(1, 0, 0, 1, 450, 292)"><g clip-path="url(#f5d0caecd0)"><g clip-path="url(#4ce9f537a8)"><path fill="#03e313" d="M 0.222656 0.117188 L 106.546875 0.117188 L 106.546875 38.300781 L 0.222656 38.300781 Z M 0.222656 0.117188 " fill-opacity="1" fill-rule="nonzero"/></g></g></g></g></g><g clip-path="url(#15bb734668)"><g mask="url(#59397fb05e)"><g transform="matrix(1, 0, 0, 1, 119, 334)"><g clip-path="url(#4c8adb40ac)"><g clip-path="url(#8dee5f4521)"><path fill="#03e313" d="M 0.0859375 0.898438 L 106.410156 0.898438 L 106.410156 39.085938 L 0.0859375 39.085938 Z M 0.0859375 0.898438 " fill-opacity="1" fill-rule="nonzero"/></g></g></g></g></g><g fill="#808080" fill-opacity="1"><g transform="translate(163.824775, 364.100737)"><g><path d="M 15.578125 -6.75 C 15.578125 -4.550781 14.960938 -2.828125 13.734375 -1.578125 C 12.503906 -0.328125 10.804688 0.296875 8.640625 0.296875 C 6.210938 0.296875 4.347656 -0.550781 3.046875 -2.25 C 1.742188 -3.957031 1.09375 -6.484375 1.09375 -9.828125 C 1.09375 -13.503906 1.753906 -16.269531 3.078125 -18.125 C 4.398438 -19.988281 6.289062 -20.921875 8.75 -20.921875 C 10.488281 -20.921875 11.863281 -20.535156 12.875 -19.765625 C 13.882812 -18.992188 14.597656 -17.796875 15.015625 -16.171875 L 11.140625 -15.640625 C 10.773438 -16.992188 9.945312 -17.671875 8.65625 -17.671875 C 7.550781 -17.671875 6.6875 -17.117188 6.0625 -16.015625 C 5.4375 -14.910156 5.125 -13.238281 5.125 -11 C 5.5625 -11.726562 6.164062 -12.285156 6.9375 -12.671875 C 7.71875 -13.066406 8.601562 -13.265625 9.59375 -13.265625 C 11.4375 -13.265625 12.894531 -12.675781 13.96875 -11.5 C 15.039062 -10.332031 15.578125 -8.75 15.578125 -6.75 Z M 11.453125 -6.625 C 11.453125 -7.789062 11.179688 -8.679688 10.640625 -9.296875 C 10.097656 -9.921875 9.351562 -10.234375 8.40625 -10.234375 C 7.5 -10.234375 6.769531 -9.941406 6.21875 -9.359375 C 5.675781 -8.785156 5.40625 -8.019531 5.40625 -7.0625 C 5.40625 -5.863281 5.691406 -4.867188 6.265625 -4.078125 C 6.835938 -3.296875 7.585938 -2.90625 8.515625 -2.90625 C 9.441406 -2.90625 10.160156 -3.234375 10.671875 -3.890625 C 11.191406 -4.554688 11.453125 -5.46875 11.453125 -6.625 Z M 11.453125 -6.625 "/></g></g></g><g clip-path="url(#5646874eb3)"><g mask="url(#7191def10d)"><g transform="matrix(1, 0, 0, 1, 229, 334)"><g clip-path="url(#2baec9d231)"><g clip-path="url(#65efabde3d)"><path fill="#03e313" d="M 0.464844 0.898438 L 106.789062 0.898438 L 106.789062 39.085938 L 0.464844 39.085938 Z M 0.464844 0.898438 " fill-opacity="1" fill-rule="nonzero"/></g></g></g></g></g><g clip-path="url(#4247139fa4)"><g mask="url(#b1214d0956)"><g transform="matrix(1, 0, 0, 1, 339, 334)"><g clip-path="url(#19c32b486c)"><g clip-path="url(#5ca9f646f2)"><path fill="#03e313" d="M 0.84375 0.898438 L 107.167969 0.898438 L 107.167969 39.085938 L 0.84375 39.085938 Z M 0.84375 0.898438 " fill-opacity="1" fill-rule="nonzero"/></g></g></g></g></g><g clip-path="url(#895e3f653b)"><g mask="url(#6953b49d75)"><g transform="matrix(1, 0, 0, 1, 450, 334)"><g clip-path="url(#7cbd23f9fc)"><g clip-path="url(#9da3c8799c)"><path fill="#03e313" d="M 0.222656 0.898438 L 106.546875 0.898438 L 106.546875 39.085938 L 0.222656 39.085938 Z M 0.222656 0.898438 " fill-opacity="1" fill-rule="nonzero"/></g></g></g></g></g><path fill="#03e313" d="M 79.179688 162.09375 L 79.167969 165.085938 C 79.164062 165.28125 79.125 165.472656 79.050781 165.65625 C 78.972656 165.839844 78.863281 166 78.722656 166.140625 C 78.582031 166.28125 78.417969 166.386719 78.234375 166.460938 C 78.050781 166.539062 77.859375 166.574219 77.660156 166.574219 C 77.464844 166.574219 77.273438 166.535156 77.089844 166.457031 C 76.90625 166.378906 76.746094 166.269531 76.605469 166.128906 C 76.464844 165.988281 76.359375 165.828125 76.28125 165.644531 C 76.207031 165.460938 76.171875 165.269531 76.171875 165.070312 L 76.1875 162.078125 C 76.1875 161.878906 76.226562 161.6875 76.304688 161.503906 C 76.378906 161.324219 76.488281 161.160156 76.628906 161.023438 C 76.769531 160.882812 76.933594 160.773438 77.117188 160.699219 C 77.300781 160.625 77.492188 160.585938 77.691406 160.589844 C 77.890625 160.589844 78.082031 160.628906 78.261719 160.707031 C 78.445312 160.78125 78.609375 160.890625 78.746094 161.03125 C 78.886719 161.171875 78.996094 161.335938 79.070312 161.519531 C 79.144531 161.703125 79.183594 161.894531 79.179688 162.09375 Z M 79.121094 174.0625 L 79.109375 177.054688 C 79.105469 177.253906 79.070312 177.441406 78.992188 177.625 C 78.914062 177.808594 78.804688 177.96875 78.664062 178.109375 C 78.523438 178.25 78.359375 178.355469 78.175781 178.433594 C 77.992188 178.507812 77.800781 178.542969 77.605469 178.542969 C 77.40625 178.542969 77.214844 178.503906 77.03125 178.425781 C 76.847656 178.347656 76.6875 178.242188 76.546875 178.101562 C 76.40625 177.957031 76.300781 177.796875 76.222656 177.613281 C 76.148438 177.429688 76.113281 177.238281 76.113281 177.039062 L 76.128906 174.046875 C 76.128906 173.847656 76.167969 173.65625 76.246094 173.476562 C 76.320312 173.292969 76.429688 173.132812 76.570312 172.992188 C 76.710938 172.851562 76.875 172.746094 77.058594 172.667969 C 77.242188 172.59375 77.433594 172.558594 77.632812 172.558594 C 77.832031 172.558594 78.023438 172.597656 78.207031 172.675781 C 78.386719 172.75 78.550781 172.859375 78.6875 173 C 78.828125 173.144531 78.9375 173.304688 79.011719 173.488281 C 79.085938 173.671875 79.125 173.863281 79.121094 174.0625 Z M 79.066406 186.03125 L 79.050781 189.023438 C 79.050781 189.222656 79.011719 189.414062 78.933594 189.597656 C 78.855469 189.777344 78.746094 189.941406 78.605469 190.078125 C 78.464844 190.21875 78.304688 190.328125 78.117188 190.402344 C 77.933594 190.476562 77.742188 190.515625 77.546875 190.511719 C 77.347656 190.511719 77.15625 190.472656 76.972656 190.394531 C 76.789062 190.320312 76.628906 190.210938 76.488281 190.070312 C 76.347656 189.929688 76.242188 189.765625 76.167969 189.582031 C 76.089844 189.398438 76.054688 189.207031 76.054688 189.007812 L 76.070312 186.015625 C 76.070312 185.820312 76.109375 185.628906 76.1875 185.445312 C 76.261719 185.261719 76.371094 185.101562 76.511719 184.960938 C 76.65625 184.820312 76.816406 184.714844 77 184.640625 C 77.183594 184.5625 77.375 184.527344 77.574219 184.527344 C 77.773438 184.527344 77.964844 184.566406 78.148438 184.644531 C 78.328125 184.722656 78.492188 184.832031 78.632812 184.972656 C 78.769531 185.113281 78.878906 185.273438 78.953125 185.457031 C 79.027344 185.640625 79.066406 185.832031 79.066406 186.03125 Z M 79.007812 198 L 78.992188 200.992188 C 78.992188 201.191406 78.953125 201.382812 78.875 201.566406 C 78.796875 201.75 78.6875 201.910156 78.546875 202.050781 C 78.40625 202.1875 78.246094 202.296875 78.0625 202.371094 C 77.875 202.445312 77.6875 202.484375 77.488281 202.480469 C 77.289062 202.480469 77.097656 202.441406 76.914062 202.367188 C 76.730469 202.289062 76.570312 202.179688 76.429688 202.039062 C 76.289062 201.898438 76.183594 201.734375 76.109375 201.550781 C 76.03125 201.367188 75.996094 201.175781 75.996094 200.980469 L 76.011719 197.988281 C 76.011719 197.789062 76.050781 197.597656 76.128906 197.414062 C 76.207031 197.230469 76.3125 197.070312 76.457031 196.929688 C 76.597656 196.789062 76.757812 196.683594 76.941406 196.609375 C 77.125 196.535156 77.316406 196.496094 77.515625 196.496094 C 77.714844 196.5 77.90625 196.539062 78.089844 196.613281 C 78.273438 196.691406 78.433594 196.800781 78.574219 196.941406 C 78.710938 197.082031 78.820312 197.246094 78.894531 197.429688 C 78.96875 197.613281 79.007812 197.800781 79.007812 198 Z M 78.949219 209.96875 L 78.933594 212.964844 C 78.933594 213.160156 78.894531 213.351562 78.816406 213.535156 C 78.738281 213.71875 78.632812 213.878906 78.488281 214.019531 C 78.347656 214.160156 78.1875 214.265625 78.003906 214.339844 C 77.820312 214.414062 77.628906 214.453125 77.429688 214.453125 C 77.230469 214.449219 77.039062 214.410156 76.855469 214.335938 C 76.671875 214.257812 76.511719 214.148438 76.371094 214.007812 C 76.230469 213.867188 76.125 213.707031 76.050781 213.523438 C 75.976562 213.339844 75.9375 213.148438 75.9375 212.949219 L 75.953125 209.957031 C 75.953125 209.757812 75.992188 209.566406 76.070312 209.382812 C 76.148438 209.199219 76.257812 209.039062 76.398438 208.898438 C 76.539062 208.761719 76.699219 208.652344 76.882812 208.578125 C 77.066406 208.503906 77.257812 208.464844 77.457031 208.46875 C 77.65625 208.46875 77.847656 208.507812 78.03125 208.582031 C 78.214844 208.660156 78.375 208.769531 78.515625 208.910156 C 78.65625 209.050781 78.761719 209.214844 78.835938 209.398438 C 78.910156 209.582031 78.949219 209.773438 78.949219 209.96875 Z M 78.890625 221.941406 L 78.875 224.933594 C 78.875 225.132812 78.835938 225.320312 78.757812 225.503906 C 78.683594 225.6875 78.574219 225.847656 78.433594 225.988281 C 78.289062 226.128906 78.128906 226.234375 77.945312 226.308594 C 77.761719 226.386719 77.570312 226.421875 77.371094 226.421875 C 77.171875 226.421875 76.980469 226.382812 76.796875 226.304688 C 76.613281 226.226562 76.453125 226.121094 76.3125 225.976562 C 76.175781 225.835938 76.066406 225.675781 75.992188 225.492188 C 75.917969 225.308594 75.878906 225.117188 75.878906 224.917969 L 75.894531 221.925781 C 75.894531 221.726562 75.933594 221.535156 76.011719 221.355469 C 76.089844 221.171875 76.199219 221.007812 76.339844 220.871094 C 76.480469 220.730469 76.640625 220.621094 76.824219 220.546875 C 77.011719 220.472656 77.203125 220.4375 77.398438 220.4375 C 77.597656 220.4375 77.789062 220.476562 77.972656 220.554688 C 78.15625 220.628906 78.316406 220.738281 78.457031 220.878906 C 78.597656 221.019531 78.703125 221.183594 78.777344 221.367188 C 78.855469 221.550781 78.890625 221.742188 78.890625 221.941406 Z M 78.832031 233.910156 L 78.816406 236.902344 C 78.816406 237.101562 78.777344 237.292969 78.699219 237.472656 C 78.625 237.65625 78.515625 237.820312 78.375 237.957031 C 78.230469 238.097656 78.070312 238.203125 77.886719 238.28125 C 77.703125 238.355469 77.511719 238.390625 77.3125 238.390625 C 77.113281 238.390625 76.921875 238.351562 76.738281 238.273438 C 76.558594 238.199219 76.394531 238.089844 76.253906 237.949219 C 76.117188 237.808594 76.007812 237.644531 75.933594 237.460938 C 75.859375 237.277344 75.820312 237.085938 75.820312 236.886719 L 75.835938 233.894531 C 75.835938 233.695312 75.875 233.507812 75.953125 233.324219 C 76.03125 233.140625 76.140625 232.980469 76.28125 232.839844 C 76.421875 232.699219 76.585938 232.59375 76.769531 232.515625 C 76.953125 232.441406 77.144531 232.40625 77.339844 232.40625 C 77.539062 232.40625 77.730469 232.445312 77.914062 232.523438 C 78.097656 232.601562 78.257812 232.707031 78.398438 232.851562 C 78.539062 232.992188 78.644531 233.152344 78.71875 233.335938 C 78.796875 233.519531 78.832031 233.710938 78.832031 233.910156 Z M 78.773438 245.878906 L 78.757812 248.871094 C 78.757812 249.070312 78.71875 249.261719 78.640625 249.445312 C 78.566406 249.625 78.457031 249.789062 78.316406 249.929688 C 78.175781 250.066406 78.011719 250.175781 77.828125 250.25 C 77.644531 250.324219 77.453125 250.363281 77.253906 250.359375 C 77.054688 250.359375 76.863281 250.320312 76.683594 250.246094 C 76.5 250.167969 76.335938 250.058594 76.199219 249.917969 C 76.058594 249.777344 75.949219 249.613281 75.875 249.429688 C 75.800781 249.246094 75.761719 249.054688 75.765625 248.855469 L 75.777344 245.863281 C 75.78125 245.667969 75.820312 245.476562 75.894531 245.292969 C 75.972656 245.109375 76.082031 244.949219 76.222656 244.808594 C 76.363281 244.667969 76.527344 244.5625 76.710938 244.488281 C 76.894531 244.410156 77.085938 244.375 77.285156 244.375 C 77.480469 244.378906 77.671875 244.414062 77.855469 244.492188 C 78.039062 244.570312 78.199219 244.679688 78.339844 244.820312 C 78.480469 244.960938 78.585938 245.121094 78.664062 245.304688 C 78.738281 245.488281 78.773438 245.679688 78.773438 245.878906 Z M 78.714844 257.847656 L 78.699219 260.839844 C 78.699219 261.039062 78.660156 261.230469 78.582031 261.414062 C 78.507812 261.597656 78.398438 261.757812 78.257812 261.898438 C 78.117188 262.035156 77.953125 262.144531 77.769531 262.21875 C 77.585938 262.292969 77.394531 262.332031 77.195312 262.332031 C 76.996094 262.328125 76.804688 262.289062 76.625 262.214844 C 76.441406 262.136719 76.277344 262.027344 76.140625 261.886719 C 76 261.746094 75.890625 261.582031 75.816406 261.398438 C 75.742188 261.214844 75.703125 261.023438 75.707031 260.828125 L 75.71875 257.835938 C 75.722656 257.636719 75.761719 257.445312 75.835938 257.261719 C 75.914062 257.078125 76.023438 256.917969 76.164062 256.777344 C 76.304688 256.640625 76.46875 256.53125 76.652344 256.457031 C 76.835938 256.382812 77.027344 256.34375 77.226562 256.34375 C 77.421875 256.347656 77.613281 256.386719 77.796875 256.460938 C 77.980469 256.539062 78.140625 256.648438 78.28125 256.789062 C 78.421875 256.929688 78.527344 257.09375 78.605469 257.277344 C 78.679688 257.460938 78.714844 257.652344 78.714844 257.847656 Z M 78.65625 269.820312 L 78.640625 272.8125 C 78.640625 273.007812 78.601562 273.199219 78.527344 273.382812 C 78.449219 273.566406 78.339844 273.726562 78.199219 273.867188 C 78.058594 274.007812 77.894531 274.113281 77.710938 274.1875 C 77.527344 274.265625 77.335938 274.300781 77.136719 274.300781 C 76.9375 274.300781 76.75 274.261719 76.566406 274.183594 C 76.382812 274.105469 76.222656 273.996094 76.082031 273.855469 C 75.941406 273.714844 75.832031 273.554688 75.757812 273.371094 C 75.683594 273.1875 75.648438 272.996094 75.648438 272.796875 L 75.660156 269.804688 C 75.664062 269.605469 75.703125 269.414062 75.777344 269.230469 C 75.855469 269.050781 75.964844 268.886719 76.105469 268.75 C 76.246094 268.609375 76.410156 268.5 76.59375 268.425781 C 76.777344 268.351562 76.96875 268.3125 77.167969 268.316406 C 77.367188 268.316406 77.554688 268.355469 77.738281 268.433594 C 77.921875 268.507812 78.082031 268.617188 78.222656 268.757812 C 78.363281 268.898438 78.472656 269.0625 78.546875 269.246094 C 78.621094 269.429688 78.65625 269.621094 78.65625 269.820312 Z M 78.597656 281.789062 L 78.585938 284.78125 C 78.582031 284.980469 78.542969 285.167969 78.46875 285.351562 C 78.390625 285.535156 78.28125 285.695312 78.140625 285.835938 C 78 285.976562 77.835938 286.082031 77.652344 286.160156 C 77.46875 286.234375 77.277344 286.269531 77.078125 286.269531 C 76.882812 286.269531 76.691406 286.230469 76.507812 286.152344 C 76.324219 286.078125 76.164062 285.96875 76.023438 285.828125 C 75.882812 285.683594 75.777344 285.523438 75.699219 285.339844 C 75.625 285.15625 75.589844 284.964844 75.589844 284.765625 L 75.605469 281.773438 C 75.605469 281.574219 75.644531 281.382812 75.71875 281.203125 C 75.796875 281.019531 75.90625 280.859375 76.046875 280.71875 C 76.1875 280.578125 76.351562 280.472656 76.535156 280.394531 C 76.71875 280.320312 76.910156 280.285156 77.109375 280.285156 C 77.308594 280.285156 77.496094 280.324219 77.679688 280.402344 C 77.863281 280.476562 78.027344 280.585938 78.164062 280.726562 C 78.304688 280.871094 78.414062 281.03125 78.488281 281.214844 C 78.5625 281.398438 78.601562 281.589844 78.597656 281.789062 Z M 78.539062 293.757812 L 78.527344 296.75 C 78.523438 296.949219 78.484375 297.140625 78.410156 297.324219 C 78.332031 297.503906 78.222656 297.667969 78.082031 297.804688 C 77.941406 297.945312 77.777344 298.054688 77.59375 298.128906 C 77.410156 298.203125 77.21875 298.242188 77.019531 298.238281 C 76.824219 298.238281 76.632812 298.199219 76.449219 298.121094 C 76.265625 298.046875 76.105469 297.9375 75.964844 297.796875 C 75.824219 297.65625 75.71875 297.492188 75.640625 297.308594 C 75.566406 297.125 75.53125 296.933594 75.53125 296.734375 L 75.546875 293.742188 C 75.546875 293.546875 75.585938 293.355469 75.664062 293.171875 C 75.738281 292.988281 75.847656 292.828125 75.988281 292.6875 C 76.128906 292.546875 76.292969 292.441406 76.476562 292.367188 C 76.660156 292.289062 76.851562 292.253906 77.050781 292.253906 C 77.25 292.253906 77.441406 292.292969 77.621094 292.371094 C 77.804688 292.449219 77.96875 292.558594 78.105469 292.699219 C 78.246094 292.839844 78.355469 293 78.429688 293.183594 C 78.503906 293.367188 78.542969 293.558594 78.539062 293.757812 Z M 78.539062 293.757812 " fill-opacity="1" fill-rule="nonzero"/><path stroke-linecap="round" transform="matrix(-0.0145568, 2.992406, -2.994964, -0.0145692, 76.958738, 311.096962)" fill-opacity="1" fill="#03e313" fill-rule="nonzero" stroke-linejoin="round" d="M -2.500363 -1.500233 L -0.49973 0.000390331 L -2.500117 1.499592 Z M -2.500363 -1.500233 " stroke="#03e313" stroke-width="1" stroke-opacity="1" stroke-miterlimit="4"/></svg>