<svg xmlns="http://www.w3.org/2000/svg" xmlns:xlink="http://www.w3.org/1999/xlink" width="1919" zoomAndPan="magnify" viewBox="0 0 1439.25 732.749983" height="977" preserveAspectRatio="xMidYMid meet" version="1.0"><defs><filter x="0%" y="0%" width="100%" height="100%" id="4f13be2bc9"><feColorMatrix values="0 0 0 0 1 0 0 0 0 1 0 0 0 0 1 0 0 0 1 0" color-interpolation-filters="sRGB"/></filter><g/><clipPath id="3c0964f719"><path d="M 75.332031 150.652344 L 262 150.652344 L 262 217.949219 L 75.332031 217.949219 Z M 75.332031 150.652344 " clip-rule="nonzero"/></clipPath><clipPath id="80cf3ebd97"><path d="M 271.160156 75.289062 L 458 75.289062 L 458 142.589844 L 271.160156 142.589844 Z M 271.160156 75.289062 " clip-rule="nonzero"/></clipPath><clipPath id="a267ec1ff8"><path d="M 75.332031 226.011719 L 262 226.011719 L 262 293.3125 L 75.332031 293.3125 Z M 75.332031 226.011719 " clip-rule="nonzero"/></clipPath><clipPath id="84f3b8eecc"><path d="M 271.160156 226.011719 L 458 226.011719 L 458 293.3125 L 271.160156 293.3125 Z M 271.160156 226.011719 " clip-rule="nonzero"/></clipPath><clipPath id="f4ff9a17ef"><path d="M 466.984375 75.289062 L 653.929688 75.289062 L 653.929688 142.589844 L 466.984375 142.589844 Z M 466.984375 75.289062 " clip-rule="nonzero"/></clipPath><clipPath id="53e9b57b4d"><path d="M 466.984375 226.011719 L 653.929688 226.011719 L 653.929688 293.3125 L 466.984375 293.3125 Z M 466.984375 226.011719 " clip-rule="nonzero"/></clipPath><clipPath id="bded7d14d9"><path d="M 784.703125 302.007812 L 971.648438 302.007812 L 971.648438 369.308594 L 784.703125 369.308594 Z M 784.703125 302.007812 " clip-rule="nonzero"/></clipPath><clipPath id="f5fbf20298"><path d="M 980.527344 226.648438 L 1167.472656 226.648438 L 1167.472656 293.949219 L 980.527344 293.949219 Z M 980.527344 226.648438 " clip-rule="nonzero"/></clipPath><clipPath id="a7a75ca9bf"><path d="M 980.527344 302.007812 L 1167.472656 302.007812 L 1167.472656 369.308594 L 980.527344 369.308594 Z M 980.527344 302.007812 " clip-rule="nonzero"/></clipPath><mask id="122d6a7be9"><g filter="url(#4f13be2bc9)"><rect x="-143.925" width="1727.1" fill="#000000" y="-73.274998" height="879.29998" fill-opacity="0.4"/></g></mask><clipPath id="2016bcd907"><path d="M 0.527344 0.0078125 L 187.472656 0.0078125 L 187.472656 67.308594 L 0.527344 67.308594 Z M 0.527344 0.0078125 " clip-rule="nonzero"/></clipPath><clipPath id="9439f278fd"><rect x="0" width="188" y="0" height="68"/></clipPath><clipPath id="96efb05124"><path d="M 784.703125 377.367188 L 971.648438 377.367188 L 971.648438 444.667969 L 784.703125 444.667969 Z M 784.703125 377.367188 " clip-rule="nonzero"/></clipPath><clipPath id="3f37d4c0d8"><path d="M 980.527344 377.367188 L 1167.472656 377.367188 L 1167.472656 444.667969 L 980.527344 444.667969 Z M 980.527344 377.367188 " clip-rule="nonzero"/></clipPath><clipPath id="ccaa90581c"><path d="M 1176.355469 226.648438 L 1363.300781 226.648438 L 1363.300781 293.949219 L 1176.355469 293.949219 Z M 1176.355469 226.648438 " clip-rule="nonzero"/></clipPath><clipPath id="4785dd9554"><path d="M 1176.355469 302.007812 L 1363.300781 302.007812 L 1363.300781 369.308594 L 1176.355469 369.308594 Z M 1176.355469 302.007812 " clip-rule="nonzero"/></clipPath><mask id="7ee7edc41e"><g filter="url(#4f13be2bc9)"><rect x="-143.925" width="1727.1" fill="#000000" y="-73.274998" height="879.29998" fill-opacity="0.4"/></g></mask><clipPath id="a1e0e962e3"><path d="M 0.355469 0.0078125 L 187.300781 0.0078125 L 187.300781 67.308594 L 0.355469 67.308594 Z M 0.355469 0.0078125 " clip-rule="nonzero"/></clipPath><clipPath id="25cd7d18a2"><rect x="0" width="188" y="0" height="68"/></clipPath><clipPath id="525f0d61ea"><path d="M 1176.355469 377.367188 L 1363.300781 377.367188 L 1363.300781 444.667969 L 1176.355469 444.667969 Z M 1176.355469 377.367188 " clip-rule="nonzero"/></clipPath><clipPath id="d9197ea462"><path d="M 271.160156 150.652344 L 458.105469 150.652344 L 458.105469 217.949219 L 271.160156 217.949219 Z M 271.160156 150.652344 " clip-rule="nonzero"/></clipPath><mask id="f5ddf84a7b"><g filter="url(#4f13be2bc9)"><rect x="-143.925" width="1727.1" fill="#000000" y="-73.274998" height="879.29998" fill-opacity="0.498"/></g></mask><clipPath id="6403187b2b"><path d="M 0.160156 0.652344 L 187 0.652344 L 187 67.949219 L 0.160156 67.949219 Z M 0.160156 0.652344 " clip-rule="nonzero"/></clipPath><clipPath id="8debcb1ae6"><rect x="0" width="188" y="0" height="68"/></clipPath><clipPath id="cde51a6d34"><path d="M 466.984375 150.652344 L 653.929688 150.652344 L 653.929688 217.949219 L 466.984375 217.949219 Z M 466.984375 150.652344 " clip-rule="nonzero"/></clipPath><mask id="967b22cc1d"><g filter="url(#4f13be2bc9)"><rect x="-143.925" width="1727.1" fill="#000000" y="-73.274998" height="879.29998" fill-opacity="0.498"/></g></mask><clipPath id="ac10ff654e"><path d="M 0.984375 0.652344 L 187.929688 0.652344 L 187.929688 67.949219 L 0.984375 67.949219 Z M 0.984375 0.652344 " clip-rule="nonzero"/></clipPath><clipPath id="176fb539b8"><rect x="0" width="188" y="0" height="68"/></clipPath><clipPath id="d86d465e3d"><path d="M 75.332031 514.71875 L 262 514.71875 L 262 582.015625 L 75.332031 582.015625 Z M 75.332031 514.71875 " clip-rule="nonzero"/></clipPath><clipPath id="2386fb5f62"><path d="M 271.160156 439.355469 L 458 439.355469 L 458 506.65625 L 271.160156 506.65625 Z M 271.160156 439.355469 " clip-rule="nonzero"/></clipPath><clipPath id="c6b9a85348"><path d="M 75.332031 590.078125 L 262 590.078125 L 262 657.378906 L 75.332031 657.378906 Z M 75.332031 590.078125 " clip-rule="nonzero"/></clipPath><clipPath id="e3ddc8f32f"><path d="M 271.160156 590.078125 L 458 590.078125 L 458 657.378906 L 271.160156 657.378906 Z M 271.160156 590.078125 " clip-rule="nonzero"/></clipPath><clipPath id="dcb70d66fa"><path d="M 466.984375 439.355469 L 653.929688 439.355469 L 653.929688 506.65625 L 466.984375 506.65625 Z M 466.984375 439.355469 " clip-rule="nonzero"/></clipPath><clipPath id="e77ee1e350"><path d="M 466.984375 590.078125 L 653.929688 590.078125 L 653.929688 657.378906 L 466.984375 657.378906 Z M 466.984375 590.078125 " clip-rule="nonzero"/></clipPath><clipPath id="776ed5b8a3"><path d="M 271.160156 514.71875 L 458.105469 514.71875 L 458.105469 582.015625 L 271.160156 582.015625 Z M 271.160156 514.71875 " clip-rule="nonzero"/></clipPath><mask id="e1da55e347"><g filter="url(#4f13be2bc9)"><rect x="-143.925" width="1727.1" fill="#000000" y="-73.274998" height="879.29998" fill-opacity="0.498"/></g></mask><clipPath id="263b3027b2"><path d="M 0.160156 0.71875 L 187 0.71875 L 187 68.015625 L 0.160156 68.015625 Z M 0.160156 0.71875 " clip-rule="nonzero"/></clipPath><clipPath id="819701d2e0"><rect x="0" width="188" y="0" height="69"/></clipPath><clipPath id="a21f4e18d9"><path d="M 466.984375 514.71875 L 653.929688 514.71875 L 653.929688 582.015625 L 466.984375 582.015625 Z M 466.984375 514.71875 " clip-rule="nonzero"/></clipPath><mask id="9072934986"><g filter="url(#4f13be2bc9)"><rect x="-143.925" width="1727.1" fill="#000000" y="-73.274998" height="879.29998" fill-opacity="0.498"/></g></mask><clipPath id="6109fbe72e"><path d="M 0.984375 0.71875 L 187.929688 0.71875 L 187.929688 68.015625 L 0.984375 68.015625 Z M 0.984375 0.71875 " clip-rule="nonzero"/></clipPath><clipPath id="866224ded6"><rect x="0" width="188" y="0" height="69"/></clipPath></defs><g clip-path="url(#3c0964f719)"><path fill="#d9d9d9" d="M 75.332031 150.652344 L 261.988281 150.652344 L 261.988281 218.117188 L 75.332031 218.117188 Z M 75.332031 150.652344 " fill-opacity="1" fill-rule="nonzero"/></g><g clip-path="url(#80cf3ebd97)"><path fill="#d9d9d9" d="M 271.160156 75.289062 L 457.8125 75.289062 L 457.8125 142.753906 L 271.160156 142.753906 Z M 271.160156 75.289062 " fill-opacity="1" fill-rule="nonzero"/></g><g clip-path="url(#a267ec1ff8)"><path fill="#d9d9d9" d="M 75.332031 226.011719 L 261.988281 226.011719 L 261.988281 293.476562 L 75.332031 293.476562 Z M 75.332031 226.011719 " fill-opacity="1" fill-rule="nonzero"/></g><g clip-path="url(#84f3b8eecc)"><path fill="#f2f2f2" d="M 271.160156 226.011719 L 457.8125 226.011719 L 457.8125 293.476562 L 271.160156 293.476562 Z M 271.160156 226.011719 " fill-opacity="1" fill-rule="nonzero"/></g><g fill="#808080" fill-opacity="1"><g transform="translate(367.834114, 383.98451)"><g><path d="M 2.8125 -14.375 L 2.8125 -22.953125 L 21.078125 -22.953125 L 21.078125 -14.375 Z M 2.8125 -14.375 "/></g></g></g><g clip-path="url(#f4ff9a17ef)"><path fill="#d9d9d9" d="M 466.984375 75.289062 L 653.636719 75.289062 L 653.636719 142.753906 L 466.984375 142.753906 Z M 466.984375 75.289062 " fill-opacity="1" fill-rule="nonzero"/></g><g clip-path="url(#53e9b57b4d)"><path fill="#f2f2f2" d="M 466.984375 226.011719 L 653.636719 226.011719 L 653.636719 293.476562 L 466.984375 293.476562 Z M 466.984375 226.011719 " fill-opacity="1" fill-rule="nonzero"/></g><g clip-path="url(#bded7d14d9)"><path fill="#d9d9d9" d="M 784.703125 302.007812 L 971.355469 302.007812 L 971.355469 369.472656 L 784.703125 369.472656 Z M 784.703125 302.007812 " fill-opacity="1" fill-rule="nonzero"/></g><g clip-path="url(#f5fbf20298)"><path fill="#d9d9d9" d="M 980.527344 226.648438 L 1167.179688 226.648438 L 1167.179688 294.113281 L 980.527344 294.113281 Z M 980.527344 226.648438 " fill-opacity="1" fill-rule="nonzero"/></g><g clip-path="url(#a7a75ca9bf)"><g mask="url(#122d6a7be9)"><g transform="matrix(1, 0, 0, 1, 980, 302)"><g clip-path="url(#9439f278fd)"><g clip-path="url(#2016bcd907)"><path fill="#03e313" d="M 0.527344 0.0078125 L 187.179688 0.0078125 L 187.179688 67.472656 L 0.527344 67.472656 Z M 0.527344 0.0078125 " fill-opacity="1" fill-rule="nonzero"/></g></g></g></g></g><g fill="#808080" fill-opacity="1"><g transform="translate(1057.328661, 345.485863)"><g><path d="M 1.890625 0 L 1.890625 -3.0625 L 7 -3.0625 L 7 -17.125 L 2.046875 -14.046875 L 2.046875 -17.28125 L 7.21875 -20.625 L 11.109375 -20.625 L 11.109375 -3.0625 L 15.84375 -3.0625 L 15.84375 0 Z M 1.890625 0 "/></g></g><g transform="translate(1074.00454, 345.485863)"><g><path d="M 15.453125 -10.328125 C 15.453125 -6.835938 14.851562 -4.191406 13.65625 -2.390625 C 12.457031 -0.597656 10.660156 0.296875 8.265625 0.296875 C 3.546875 0.296875 1.1875 -3.242188 1.1875 -10.328125 C 1.1875 -12.796875 1.441406 -14.8125 1.953125 -16.375 C 2.472656 -17.9375 3.25 -19.085938 4.28125 -19.828125 C 5.320312 -20.566406 6.691406 -20.9375 8.390625 -20.9375 C 10.828125 -20.9375 12.613281 -20.050781 13.75 -18.28125 C 14.882812 -16.519531 15.453125 -13.867188 15.453125 -10.328125 Z M 11.3125 -10.328125 C 11.3125 -12.222656 11.21875 -13.695312 11.03125 -14.75 C 10.851562 -15.8125 10.554688 -16.570312 10.140625 -17.03125 C 9.734375 -17.488281 9.140625 -17.71875 8.359375 -17.71875 C 7.523438 -17.71875 6.894531 -17.484375 6.46875 -17.015625 C 6.050781 -16.554688 5.75 -15.800781 5.5625 -14.75 C 5.382812 -13.695312 5.296875 -12.222656 5.296875 -10.328125 C 5.296875 -8.441406 5.390625 -6.96875 5.578125 -5.90625 C 5.773438 -4.84375 6.078125 -4.082031 6.484375 -3.625 C 6.898438 -3.164062 7.503906 -2.9375 8.296875 -2.9375 C 9.078125 -2.9375 9.679688 -3.175781 10.109375 -3.65625 C 10.535156 -4.144531 10.84375 -4.921875 11.03125 -5.984375 C 11.21875 -7.046875 11.3125 -8.492188 11.3125 -10.328125 Z M 11.3125 -10.328125 "/></g></g></g><g clip-path="url(#96efb05124)"><path fill="#d9d9d9" d="M 784.703125 377.367188 L 971.355469 377.367188 L 971.355469 444.832031 L 784.703125 444.832031 Z M 784.703125 377.367188 " fill-opacity="1" fill-rule="nonzero"/></g><g clip-path="url(#3f37d4c0d8)"><path fill="#f2f2f2" d="M 980.527344 377.367188 L 1167.179688 377.367188 L 1167.179688 444.832031 L 980.527344 444.832031 Z M 980.527344 377.367188 " fill-opacity="1" fill-rule="nonzero"/></g><g clip-path="url(#ccaa90581c)"><path fill="#d9d9d9" d="M 1176.355469 226.648438 L 1363.007812 226.648438 L 1363.007812 294.113281 L 1176.355469 294.113281 Z M 1176.355469 226.648438 " fill-opacity="1" fill-rule="nonzero"/></g><g clip-path="url(#4785dd9554)"><g mask="url(#7ee7edc41e)"><g transform="matrix(1, 0, 0, 1, 1176, 302)"><g clip-path="url(#25cd7d18a2)"><g clip-path="url(#a1e0e962e3)"><path fill="#03e313" d="M 0.355469 0.0078125 L 187.007812 0.0078125 L 187.007812 67.472656 L 0.355469 67.472656 Z M 0.355469 0.0078125 " fill-opacity="1" fill-rule="nonzero"/></g></g></g></g></g><g fill="#808080" fill-opacity="1"><g transform="translate(1253.154159, 345.485863)"><g><path d="M 1.046875 0 L 1.046875 -2.859375 C 1.578125 -4.035156 2.335938 -5.1875 3.328125 -6.3125 C 4.316406 -7.4375 5.566406 -8.609375 7.078125 -9.828125 C 8.515625 -10.992188 9.523438 -11.957031 10.109375 -12.71875 C 10.691406 -13.476562 10.984375 -14.226562 10.984375 -14.96875 C 10.984375 -16.757812 10.078125 -17.65625 8.265625 -17.65625 C 7.390625 -17.65625 6.71875 -17.414062 6.25 -16.9375 C 5.789062 -16.46875 5.492188 -15.757812 5.359375 -14.8125 L 1.21875 -15.046875 C 1.445312 -16.960938 2.160156 -18.421875 3.359375 -19.421875 C 4.554688 -20.429688 6.1875 -20.9375 8.25 -20.9375 C 10.46875 -20.9375 12.171875 -20.425781 13.359375 -19.40625 C 14.554688 -18.394531 15.15625 -16.972656 15.15625 -15.140625 C 15.15625 -14.171875 14.960938 -13.296875 14.578125 -12.515625 C 14.203125 -11.734375 13.710938 -11.015625 13.109375 -10.359375 C 12.515625 -9.703125 11.851562 -9.082031 11.125 -8.5 C 10.40625 -7.925781 9.703125 -7.363281 9.015625 -6.8125 C 8.335938 -6.269531 7.71875 -5.71875 7.15625 -5.15625 C 6.59375 -4.601562 6.175781 -4.007812 5.90625 -3.375 L 15.46875 -3.375 L 15.46875 0 Z M 1.046875 0 "/></g></g><g transform="translate(1269.830039, 345.485863)"><g><path d="M 15.453125 -10.328125 C 15.453125 -6.835938 14.851562 -4.191406 13.65625 -2.390625 C 12.457031 -0.597656 10.660156 0.296875 8.265625 0.296875 C 3.546875 0.296875 1.1875 -3.242188 1.1875 -10.328125 C 1.1875 -12.796875 1.441406 -14.8125 1.953125 -16.375 C 2.472656 -17.9375 3.25 -19.085938 4.28125 -19.828125 C 5.320312 -20.566406 6.691406 -20.9375 8.390625 -20.9375 C 10.828125 -20.9375 12.613281 -20.050781 13.75 -18.28125 C 14.882812 -16.519531 15.453125 -13.867188 15.453125 -10.328125 Z M 11.3125 -10.328125 C 11.3125 -12.222656 11.21875 -13.695312 11.03125 -14.75 C 10.851562 -15.8125 10.554688 -16.570312 10.140625 -17.03125 C 9.734375 -17.488281 9.140625 -17.71875 8.359375 -17.71875 C 7.523438 -17.71875 6.894531 -17.484375 6.46875 -17.015625 C 6.050781 -16.554688 5.75 -15.800781 5.5625 -14.75 C 5.382812 -13.695312 5.296875 -12.222656 5.296875 -10.328125 C 5.296875 -8.441406 5.390625 -6.96875 5.578125 -5.90625 C 5.773438 -4.84375 6.078125 -4.082031 6.484375 -3.625 C 6.898438 -3.164062 7.503906 -2.9375 8.296875 -2.9375 C 9.078125 -2.9375 9.679688 -3.175781 10.109375 -3.65625 C 10.535156 -4.144531 10.84375 -4.921875 11.03125 -5.984375 C 11.21875 -7.046875 11.3125 -8.492188 11.3125 -10.328125 Z M 11.3125 -10.328125 "/></g></g></g><g clip-path="url(#525f0d61ea)"><path fill="#f2f2f2" d="M 1176.355469 377.367188 L 1363.007812 377.367188 L 1363.007812 444.832031 L 1176.355469 444.832031 Z M 1176.355469 377.367188 " fill-opacity="1" fill-rule="nonzero"/></g><g clip-path="url(#d9197ea462)"><g mask="url(#f5ddf84a7b)"><g transform="matrix(1, 0, 0, 1, 271, 150)"><g clip-path="url(#8debcb1ae6)"><g clip-path="url(#6403187b2b)"><path fill="#ffc000" d="M 0.160156 0.652344 L 186.8125 0.652344 L 186.8125 68.117188 L 0.160156 68.117188 Z M 0.160156 0.652344 " fill-opacity="1" fill-rule="nonzero"/></g></g></g></g></g><g fill="#808080" fill-opacity="1"><g transform="translate(347.959258, 194.128522)"><g><path d="M 1.046875 0 L 1.046875 -2.859375 C 1.578125 -4.035156 2.335938 -5.1875 3.328125 -6.3125 C 4.316406 -7.4375 5.566406 -8.609375 7.078125 -9.828125 C 8.515625 -10.992188 9.523438 -11.957031 10.109375 -12.71875 C 10.691406 -13.476562 10.984375 -14.226562 10.984375 -14.96875 C 10.984375 -16.757812 10.078125 -17.65625 8.265625 -17.65625 C 7.390625 -17.65625 6.71875 -17.414062 6.25 -16.9375 C 5.789062 -16.46875 5.492188 -15.757812 5.359375 -14.8125 L 1.21875 -15.046875 C 1.445312 -16.960938 2.160156 -18.421875 3.359375 -19.421875 C 4.554688 -20.429688 6.1875 -20.9375 8.25 -20.9375 C 10.46875 -20.9375 12.171875 -20.425781 13.359375 -19.40625 C 14.554688 -18.394531 15.15625 -16.972656 15.15625 -15.140625 C 15.15625 -14.171875 14.960938 -13.296875 14.578125 -12.515625 C 14.203125 -11.734375 13.710938 -11.015625 13.109375 -10.359375 C 12.515625 -9.703125 11.851562 -9.082031 11.125 -8.5 C 10.40625 -7.925781 9.703125 -7.363281 9.015625 -6.8125 C 8.335938 -6.269531 7.71875 -5.71875 7.15625 -5.15625 C 6.59375 -4.601562 6.175781 -4.007812 5.90625 -3.375 L 15.46875 -3.375 L 15.46875 0 Z M 1.046875 0 "/></g></g><g transform="translate(364.635138, 194.128522)"><g><path d="M 15.453125 -10.328125 C 15.453125 -6.835938 14.851562 -4.191406 13.65625 -2.390625 C 12.457031 -0.597656 10.660156 0.296875 8.265625 0.296875 C 3.546875 0.296875 1.1875 -3.242188 1.1875 -10.328125 C 1.1875 -12.796875 1.441406 -14.8125 1.953125 -16.375 C 2.472656 -17.9375 3.25 -19.085938 4.28125 -19.828125 C 5.320312 -20.566406 6.691406 -20.9375 8.390625 -20.9375 C 10.828125 -20.9375 12.613281 -20.050781 13.75 -18.28125 C 14.882812 -16.519531 15.453125 -13.867188 15.453125 -10.328125 Z M 11.3125 -10.328125 C 11.3125 -12.222656 11.21875 -13.695312 11.03125 -14.75 C 10.851562 -15.8125 10.554688 -16.570312 10.140625 -17.03125 C 9.734375 -17.488281 9.140625 -17.71875 8.359375 -17.71875 C 7.523438 -17.71875 6.894531 -17.484375 6.46875 -17.015625 C 6.050781 -16.554688 5.75 -15.800781 5.5625 -14.75 C 5.382812 -13.695312 5.296875 -12.222656 5.296875 -10.328125 C 5.296875 -8.441406 5.390625 -6.96875 5.578125 -5.90625 C 5.773438 -4.84375 6.078125 -4.082031 6.484375 -3.625 C 6.898438 -3.164062 7.503906 -2.9375 8.296875 -2.9375 C 9.078125 -2.9375 9.679688 -3.175781 10.109375 -3.65625 C 10.535156 -4.144531 10.84375 -4.921875 11.03125 -5.984375 C 11.21875 -7.046875 11.3125 -8.492188 11.3125 -10.328125 Z M 11.3125 -10.328125 "/></g></g></g><g clip-path="url(#cde51a6d34)"><g mask="url(#967b22cc1d)"><g transform="matrix(1, 0, 0, 1, 466, 150)"><g clip-path="url(#176fb539b8)"><g clip-path="url(#ac10ff654e)"><path fill="#ffc000" d="M 0.984375 0.652344 L 187.636719 0.652344 L 187.636719 68.117188 L 0.984375 68.117188 Z M 0.984375 0.652344 " fill-opacity="1" fill-rule="nonzero"/></g></g></g></g></g><g fill="#808080" fill-opacity="1"><g transform="translate(543.784948, 194.128522)"><g><path d="M 15.84375 -6.859375 C 15.84375 -4.679688 15.160156 -2.941406 13.796875 -1.640625 C 12.429688 -0.347656 10.566406 0.296875 8.203125 0.296875 C 6.128906 0.296875 4.46875 -0.164062 3.21875 -1.09375 C 1.976562 -2.03125 1.210938 -3.382812 0.921875 -5.15625 L 5.03125 -5.484375 C 5.25 -4.609375 5.628906 -3.96875 6.171875 -3.5625 C 6.722656 -3.164062 7.414062 -2.96875 8.25 -2.96875 C 9.269531 -2.96875 10.082031 -3.296875 10.6875 -3.953125 C 11.300781 -4.609375 11.609375 -5.550781 11.609375 -6.78125 C 11.609375 -7.863281 11.316406 -8.726562 10.734375 -9.375 C 10.160156 -10.019531 9.359375 -10.34375 8.328125 -10.34375 C 7.191406 -10.34375 6.257812 -9.898438 5.53125 -9.015625 L 1.515625 -9.015625 L 2.234375 -20.625 L 14.640625 -20.625 L 14.640625 -17.5625 L 5.96875 -17.5625 L 5.640625 -12.359375 C 6.628906 -13.234375 7.875 -13.671875 9.375 -13.671875 C 11.332031 -13.671875 12.898438 -13.0625 14.078125 -11.84375 C 15.253906 -10.625 15.84375 -8.960938 15.84375 -6.859375 Z M 15.84375 -6.859375 "/></g></g><g transform="translate(560.460828, 194.128522)"><g><path d="M 15.453125 -10.328125 C 15.453125 -6.835938 14.851562 -4.191406 13.65625 -2.390625 C 12.457031 -0.597656 10.660156 0.296875 8.265625 0.296875 C 3.546875 0.296875 1.1875 -3.242188 1.1875 -10.328125 C 1.1875 -12.796875 1.441406 -14.8125 1.953125 -16.375 C 2.472656 -17.9375 3.25 -19.085938 4.28125 -19.828125 C 5.320312 -20.566406 6.691406 -20.9375 8.390625 -20.9375 C 10.828125 -20.9375 12.613281 -20.050781 13.75 -18.28125 C 14.882812 -16.519531 15.453125 -13.867188 15.453125 -10.328125 Z M 11.3125 -10.328125 C 11.3125 -12.222656 11.21875 -13.695312 11.03125 -14.75 C 10.851562 -15.8125 10.554688 -16.570312 10.140625 -17.03125 C 9.734375 -17.488281 9.140625 -17.71875 8.359375 -17.71875 C 7.523438 -17.71875 6.894531 -17.484375 6.46875 -17.015625 C 6.050781 -16.554688 5.75 -15.800781 5.5625 -14.75 C 5.382812 -13.695312 5.296875 -12.222656 5.296875 -10.328125 C 5.296875 -8.441406 5.390625 -6.96875 5.578125 -5.90625 C 5.773438 -4.84375 6.078125 -4.082031 6.484375 -3.625 C 6.898438 -3.164062 7.503906 -2.9375 8.296875 -2.9375 C 9.078125 -2.9375 9.679688 -3.175781 10.109375 -3.65625 C 10.535156 -4.144531 10.84375 -4.921875 11.03125 -5.984375 C 11.21875 -7.046875 11.3125 -8.492188 11.3125 -10.328125 Z M 11.3125 -10.328125 "/></g></g></g><g clip-path="url(#d86d465e3d)"><path fill="#d9d9d9" d="M 75.332031 514.71875 L 261.988281 514.71875 L 261.988281 582.183594 L 75.332031 582.183594 Z M 75.332031 514.71875 " fill-opacity="1" fill-rule="nonzero"/></g><g clip-path="url(#2386fb5f62)"><path fill="#d9d9d9" d="M 271.160156 439.355469 L 457.8125 439.355469 L 457.8125 506.820312 L 271.160156 506.820312 Z M 271.160156 439.355469 " fill-opacity="1" fill-rule="nonzero"/></g><g clip-path="url(#c6b9a85348)"><path fill="#d9d9d9" d="M 75.332031 590.078125 L 261.988281 590.078125 L 261.988281 657.542969 L 75.332031 657.542969 Z M 75.332031 590.078125 " fill-opacity="1" fill-rule="nonzero"/></g><g clip-path="url(#e3ddc8f32f)"><path fill="#f2f2f2" d="M 271.160156 590.078125 L 457.8125 590.078125 L 457.8125 657.542969 L 271.160156 657.542969 Z M 271.160156 590.078125 " fill-opacity="1" fill-rule="nonzero"/></g><g clip-path="url(#dcb70d66fa)"><path fill="#d9d9d9" d="M 466.984375 439.355469 L 653.636719 439.355469 L 653.636719 506.820312 L 466.984375 506.820312 Z M 466.984375 439.355469 " fill-opacity="1" fill-rule="nonzero"/></g><g clip-path="url(#e77ee1e350)"><path fill="#f2f2f2" d="M 466.984375 590.078125 L 653.636719 590.078125 L 653.636719 657.542969 L 466.984375 657.542969 Z M 466.984375 590.078125 " fill-opacity="1" fill-rule="nonzero"/></g><g clip-path="url(#776ed5b8a3)"><g mask="url(#e1da55e347)"><g transform="matrix(1, 0, 0, 1, 271, 514)"><g clip-path="url(#819701d2e0)"><g clip-path="url(#263b3027b2)"><path fill="#ffc000" d="M 0.160156 0.71875 L 186.8125 0.71875 L 186.8125 68.183594 L 0.160156 68.183594 Z M 0.160156 0.71875 " fill-opacity="1" fill-rule="nonzero"/></g></g></g></g></g><g fill="#808080" fill-opacity="1"><g transform="translate(347.959258, 558.19453)"><g><path d="M 1.890625 0 L 1.890625 -3.0625 L 7 -3.0625 L 7 -17.125 L 2.046875 -14.046875 L 2.046875 -17.28125 L 7.21875 -20.625 L 11.109375 -20.625 L 11.109375 -3.0625 L 15.84375 -3.0625 L 15.84375 0 Z M 1.890625 0 "/></g></g><g transform="translate(364.635138, 558.19453)"><g><path d="M 15.453125 -10.328125 C 15.453125 -6.835938 14.851562 -4.191406 13.65625 -2.390625 C 12.457031 -0.597656 10.660156 0.296875 8.265625 0.296875 C 3.546875 0.296875 1.1875 -3.242188 1.1875 -10.328125 C 1.1875 -12.796875 1.441406 -14.8125 1.953125 -16.375 C 2.472656 -17.9375 3.25 -19.085938 4.28125 -19.828125 C 5.320312 -20.566406 6.691406 -20.9375 8.390625 -20.9375 C 10.828125 -20.9375 12.613281 -20.050781 13.75 -18.28125 C 14.882812 -16.519531 15.453125 -13.867188 15.453125 -10.328125 Z M 11.3125 -10.328125 C 11.3125 -12.222656 11.21875 -13.695312 11.03125 -14.75 C 10.851562 -15.8125 10.554688 -16.570312 10.140625 -17.03125 C 9.734375 -17.488281 9.140625 -17.71875 8.359375 -17.71875 C 7.523438 -17.71875 6.894531 -17.484375 6.46875 -17.015625 C 6.050781 -16.554688 5.75 -15.800781 5.5625 -14.75 C 5.382812 -13.695312 5.296875 -12.222656 5.296875 -10.328125 C 5.296875 -8.441406 5.390625 -6.96875 5.578125 -5.90625 C 5.773438 -4.84375 6.078125 -4.082031 6.484375 -3.625 C 6.898438 -3.164062 7.503906 -2.9375 8.296875 -2.9375 C 9.078125 -2.9375 9.679688 -3.175781 10.109375 -3.65625 C 10.535156 -4.144531 10.84375 -4.921875 11.03125 -5.984375 C 11.21875 -7.046875 11.3125 -8.492188 11.3125 -10.328125 Z M 11.3125 -10.328125 "/></g></g></g><g clip-path="url(#a21f4e18d9)"><g mask="url(#9072934986)"><g transform="matrix(1, 0, 0, 1, 466, 514)"><g clip-path="url(#866224ded6)"><g clip-path="url(#6109fbe72e)"><path fill="#ffc000" d="M 0.984375 0.71875 L 187.636719 0.71875 L 187.636719 68.183594 L 0.984375 68.183594 Z M 0.984375 0.71875 " fill-opacity="1" fill-rule="nonzero"/></g></g></g></g></g><g fill="#808080" fill-opacity="1"><g transform="translate(543.784948, 558.19453)"><g><path d="M 15.59375 -5.71875 C 15.59375 -3.789062 14.957031 -2.296875 13.6875 -1.234375 C 12.414062 -0.179688 10.609375 0.34375 8.265625 0.34375 C 6.054688 0.34375 4.296875 -0.164062 2.984375 -1.1875 C 1.679688 -2.207031 0.914062 -3.679688 0.6875 -5.609375 L 4.875 -5.96875 C 5.132812 -3.988281 6.257812 -3 8.25 -3 C 9.238281 -3 10.003906 -3.242188 10.546875 -3.734375 C 11.097656 -4.222656 11.375 -4.96875 11.375 -5.96875 C 11.375 -6.882812 11.039062 -7.585938 10.375 -8.078125 C 9.71875 -8.566406 8.734375 -8.8125 7.421875 -8.8125 L 5.984375 -8.8125 L 5.984375 -12.140625 L 7.328125 -12.140625 C 8.515625 -12.140625 9.40625 -12.378906 10 -12.859375 C 10.59375 -13.347656 10.890625 -14.039062 10.890625 -14.9375 C 10.890625 -15.78125 10.648438 -16.441406 10.171875 -16.921875 C 9.703125 -17.410156 9.015625 -17.65625 8.109375 -17.65625 C 7.265625 -17.65625 6.578125 -17.421875 6.046875 -16.953125 C 5.523438 -16.484375 5.226562 -15.820312 5.15625 -14.96875 L 1.046875 -15.25 C 1.253906 -17.03125 1.988281 -18.421875 3.25 -19.421875 C 4.507812 -20.429688 6.15625 -20.9375 8.1875 -20.9375 C 10.34375 -20.9375 12.023438 -20.445312 13.234375 -19.46875 C 14.453125 -18.5 15.0625 -17.160156 15.0625 -15.453125 C 15.0625 -14.160156 14.679688 -13.097656 13.921875 -12.265625 C 13.171875 -11.441406 12.082031 -10.890625 10.65625 -10.609375 L 10.65625 -10.5625 C 12.238281 -10.375 13.457031 -9.851562 14.3125 -9 C 15.164062 -8.144531 15.59375 -7.050781 15.59375 -5.71875 Z M 15.59375 -5.71875 "/></g></g><g transform="translate(560.460828, 558.19453)"><g><path d="M 15.453125 -10.328125 C 15.453125 -6.835938 14.851562 -4.191406 13.65625 -2.390625 C 12.457031 -0.597656 10.660156 0.296875 8.265625 0.296875 C 3.546875 0.296875 1.1875 -3.242188 1.1875 -10.328125 C 1.1875 -12.796875 1.441406 -14.8125 1.953125 -16.375 C 2.472656 -17.9375 3.25 -19.085938 4.28125 -19.828125 C 5.320312 -20.566406 6.691406 -20.9375 8.390625 -20.9375 C 10.828125 -20.9375 12.613281 -20.050781 13.75 -18.28125 C 14.882812 -16.519531 15.453125 -13.867188 15.453125 -10.328125 Z M 11.3125 -10.328125 C 11.3125 -12.222656 11.21875 -13.695312 11.03125 -14.75 C 10.851562 -15.8125 10.554688 -16.570312 10.140625 -17.03125 C 9.734375 -17.488281 9.140625 -17.71875 8.359375 -17.71875 C 7.523438 -17.71875 6.894531 -17.484375 6.46875 -17.015625 C 6.050781 -16.554688 5.75 -15.800781 5.5625 -14.75 C 5.382812 -13.695312 5.296875 -12.222656 5.296875 -10.328125 C 5.296875 -8.441406 5.390625 -6.96875 5.578125 -5.90625 C 5.773438 -4.84375 6.078125 -4.082031 6.484375 -3.625 C 6.898438 -3.164062 7.503906 -2.9375 8.296875 -2.9375 C 9.078125 -2.9375 9.679688 -3.175781 10.109375 -3.65625 C 10.535156 -4.144531 10.84375 -4.921875 11.03125 -5.984375 C 11.21875 -7.046875 11.3125 -8.492188 11.3125 -10.328125 Z M 11.3125 -10.328125 "/></g></g></g><g fill="#808080" fill-opacity="1"><g transform="translate(702.132637, 383.98451)"><g><path d="M 2.984375 -29.59375 L 2.984375 -37.421875 L 39.078125 -37.421875 L 39.078125 -29.59375 Z M 2.984375 -10.21875 L 2.984375 -18 L 39.078125 -18 L 39.078125 -10.21875 Z M 2.984375 -10.21875 "/></g></g></g></svg>