<svg xmlns="http://www.w3.org/2000/svg" xmlns:xlink="http://www.w3.org/1999/xlink" width="1919" zoomAndPan="magnify" viewBox="0 0 1439.25 371.999986" height="496" preserveAspectRatio="xMidYMid meet" version="1.0"><defs><filter x="0%" y="0%" width="100%" height="100%" id="ef4f1eb97c"><feColorMatrix values="0 0 0 0 1 0 0 0 0 1 0 0 0 0 1 0 0 0 1 0" color-interpolation-filters="sRGB"/></filter><g/><clipPath id="bd7a8f1ef3"><path d="M 75.332031 153.953125 L 262 153.953125 L 262 221.25 L 75.332031 221.25 Z M 75.332031 153.953125 " clip-rule="nonzero"/></clipPath><clipPath id="07ea5ed7c3"><path d="M 271.160156 78.589844 L 458 78.589844 L 458 145.890625 L 271.160156 145.890625 Z M 271.160156 78.589844 " clip-rule="nonzero"/></clipPath><clipPath id="989c1460ac"><path d="M 75.332031 229.3125 L 262 229.3125 L 262 296.613281 L 75.332031 296.613281 Z M 75.332031 229.3125 " clip-rule="nonzero"/></clipPath><clipPath id="249804ec32"><path d="M 271.160156 229.3125 L 458 229.3125 L 458 296.613281 L 271.160156 296.613281 Z M 271.160156 229.3125 " clip-rule="nonzero"/></clipPath><clipPath id="b3004a06c9"><path d="M 466.984375 78.589844 L 653.929688 78.589844 L 653.929688 145.890625 L 466.984375 145.890625 Z M 466.984375 78.589844 " clip-rule="nonzero"/></clipPath><clipPath id="19cdec16cb"><path d="M 466.984375 153.953125 L 653.929688 153.953125 L 653.929688 221.25 L 466.984375 221.25 Z M 466.984375 153.953125 " clip-rule="nonzero"/></clipPath><mask id="592246450c"><g filter="url(#ef4f1eb97c)"><rect x="-143.925" width="1727.1" fill="#000000" y="-37.199999" height="446.399983" fill-opacity="0.498"/></g></mask><clipPath id="c308c99681"><path d="M 0.984375 0.953125 L 187.929688 0.953125 L 187.929688 68.25 L 0.984375 68.25 Z M 0.984375 0.953125 " clip-rule="nonzero"/></clipPath><clipPath id="8b7381f053"><rect x="0" width="188" y="0" height="69"/></clipPath><clipPath id="0adc76855d"><path d="M 466.984375 229.3125 L 653.929688 229.3125 L 653.929688 296.613281 L 466.984375 296.613281 Z M 466.984375 229.3125 " clip-rule="nonzero"/></clipPath><clipPath id="b9e3a197db"><path d="M 670.679688 153.953125 L 768.878906 153.953125 L 768.878906 216 L 670.679688 216 Z M 670.679688 153.953125 " clip-rule="nonzero"/></clipPath><clipPath id="cf8e44c9c5"><path d="M 670.679688 169.394531 L 737.554688 169.394531 L 737.554688 153.953125 L 768.4375 184.835938 L 737.554688 215.71875 L 737.554688 200.277344 L 670.679688 200.277344 L 670.679688 169.394531 " clip-rule="nonzero"/></clipPath><mask id="5b8f67628a"><g filter="url(#ef4f1eb97c)"><rect x="-143.925" width="1727.1" fill="#000000" y="-37.199999" height="446.399983" fill-opacity="0.4"/></g></mask><clipPath id="ff3ce9bf5f"><path d="M 0.679688 0.953125 L 98.558594 0.953125 L 98.558594 62.746094 L 0.679688 62.746094 Z M 0.679688 0.953125 " clip-rule="nonzero"/></clipPath><clipPath id="8ac6457206"><path d="M 0.679688 16.394531 L 67.554688 16.394531 L 67.554688 0.953125 L 98.4375 31.835938 L 67.554688 62.71875 L 67.554688 47.277344 L 0.679688 47.277344 L 0.679688 16.394531 " clip-rule="nonzero"/></clipPath><clipPath id="ed3a705d22"><rect x="0" width="99" y="0" height="63"/></clipPath><clipPath id="c4d0b865c9"><path d="M 784.703125 150.617188 L 971.648438 150.617188 L 971.648438 217.917969 L 784.703125 217.917969 Z M 784.703125 150.617188 " clip-rule="nonzero"/></clipPath><clipPath id="1aa3b0074e"><path d="M 980.527344 75.257812 L 1167.472656 75.257812 L 1167.472656 142.558594 L 980.527344 142.558594 Z M 980.527344 75.257812 " clip-rule="nonzero"/></clipPath><clipPath id="520db40814"><path d="M 980.527344 150.617188 L 1167.472656 150.617188 L 1167.472656 217.917969 L 980.527344 217.917969 Z M 980.527344 150.617188 " clip-rule="nonzero"/></clipPath><mask id="69fdc7aad4"><g filter="url(#ef4f1eb97c)"><rect x="-143.925" width="1727.1" fill="#000000" y="-37.199999" height="446.399983" fill-opacity="0.498"/></g></mask><clipPath id="9802e8fa23"><path d="M 0.527344 0.617188 L 187.472656 0.617188 L 187.472656 67.917969 L 0.527344 67.917969 Z M 0.527344 0.617188 " clip-rule="nonzero"/></clipPath><clipPath id="cb6ce9a156"><rect x="0" width="188" y="0" height="68"/></clipPath><clipPath id="c397fd9945"><path d="M 784.703125 225.980469 L 971.648438 225.980469 L 971.648438 293.277344 L 784.703125 293.277344 Z M 784.703125 225.980469 " clip-rule="nonzero"/></clipPath><clipPath id="43641639ad"><path d="M 980.527344 225.980469 L 1167.472656 225.980469 L 1167.472656 293.277344 L 980.527344 293.277344 Z M 980.527344 225.980469 " clip-rule="nonzero"/></clipPath><clipPath id="015aa9ac8e"><path d="M 1176.355469 75.257812 L 1363.300781 75.257812 L 1363.300781 142.558594 L 1176.355469 142.558594 Z M 1176.355469 75.257812 " clip-rule="nonzero"/></clipPath><clipPath id="afde4d4b10"><path d="M 1176.355469 150.617188 L 1363.300781 150.617188 L 1363.300781 217.917969 L 1176.355469 217.917969 Z M 1176.355469 150.617188 " clip-rule="nonzero"/></clipPath><mask id="6c49fc9746"><g filter="url(#ef4f1eb97c)"><rect x="-143.925" width="1727.1" fill="#000000" y="-37.199999" height="446.399983" fill-opacity="0.498"/></g></mask><clipPath id="4926e8b284"><path d="M 0.355469 0.617188 L 187.300781 0.617188 L 187.300781 67.917969 L 0.355469 67.917969 Z M 0.355469 0.617188 " clip-rule="nonzero"/></clipPath><clipPath id="bc31ca824d"><rect x="0" width="188" y="0" height="68"/></clipPath><clipPath id="8855f93238"><path d="M 1176.355469 225.980469 L 1363.300781 225.980469 L 1363.300781 293.277344 L 1176.355469 293.277344 Z M 1176.355469 225.980469 " clip-rule="nonzero"/></clipPath><clipPath id="39d9ab7069"><path d="M 271.160156 153.953125 L 458.105469 153.953125 L 458.105469 221.25 L 271.160156 221.25 Z M 271.160156 153.953125 " clip-rule="nonzero"/></clipPath><mask id="bd83911808"><g filter="url(#ef4f1eb97c)"><rect x="-143.925" width="1727.1" fill="#000000" y="-37.199999" height="446.399983" fill-opacity="0.498"/></g></mask><clipPath id="23d5a60e8b"><path d="M 0.160156 0.953125 L 187 0.953125 L 187 68.25 L 0.160156 68.25 Z M 0.160156 0.953125 " clip-rule="nonzero"/></clipPath><clipPath id="6126f34cb6"><rect x="0" width="188" y="0" height="69"/></clipPath></defs><g clip-path="url(#bd7a8f1ef3)"><path fill="#d9d9d9" d="M 75.332031 153.953125 L 261.988281 153.953125 L 261.988281 221.417969 L 75.332031 221.417969 Z M 75.332031 153.953125 " fill-opacity="1" fill-rule="nonzero"/></g><g clip-path="url(#07ea5ed7c3)"><path fill="#d9d9d9" d="M 271.160156 78.589844 L 457.8125 78.589844 L 457.8125 146.054688 L 271.160156 146.054688 Z M 271.160156 78.589844 " fill-opacity="1" fill-rule="nonzero"/></g><g clip-path="url(#989c1460ac)"><path fill="#d9d9d9" d="M 75.332031 229.3125 L 261.988281 229.3125 L 261.988281 296.777344 L 75.332031 296.777344 Z M 75.332031 229.3125 " fill-opacity="1" fill-rule="nonzero"/></g><g clip-path="url(#249804ec32)"><path fill="#f2f2f2" d="M 271.160156 229.3125 L 457.8125 229.3125 L 457.8125 296.777344 L 271.160156 296.777344 Z M 271.160156 229.3125 " fill-opacity="1" fill-rule="nonzero"/></g><g clip-path="url(#b3004a06c9)"><path fill="#d9d9d9" d="M 466.984375 78.589844 L 653.636719 78.589844 L 653.636719 146.054688 L 466.984375 146.054688 Z M 466.984375 78.589844 " fill-opacity="1" fill-rule="nonzero"/></g><g clip-path="url(#19cdec16cb)"><g mask="url(#592246450c)"><g transform="matrix(1, 0, 0, 1, 466, 153)"><g clip-path="url(#8b7381f053)"><g clip-path="url(#c308c99681)"><path fill="#ffc000" d="M 0.984375 0.953125 L 187.636719 0.953125 L 187.636719 68.417969 L 0.984375 68.417969 Z M 0.984375 0.953125 " fill-opacity="1" fill-rule="nonzero"/></g></g></g></g></g><g fill="#808080" fill-opacity="1"><g transform="translate(532.142578, 197.42923)"><g><path d="M 12.171875 -8.46875 L 12.171875 0 L 7.859375 0 L 7.859375 -8.46875 L 0.515625 -20.625 L 5.03125 -20.625 L 9.984375 -11.90625 L 15 -20.625 L 19.515625 -20.625 Z M 12.171875 -8.46875 "/></g></g><g transform="translate(552.141921, 197.42923)"><g><path d="M 17.140625 -7.9375 C 17.140625 -5.363281 16.425781 -3.347656 15 -1.890625 C 13.582031 -0.429688 11.613281 0.296875 9.09375 0.296875 C 6.625 0.296875 4.6875 -0.429688 3.28125 -1.890625 C 1.875 -3.359375 1.171875 -5.375 1.171875 -7.9375 C 1.171875 -10.476562 1.875 -12.476562 3.28125 -13.9375 C 4.6875 -15.40625 6.65625 -16.140625 9.1875 -16.140625 C 11.769531 -16.140625 13.738281 -15.429688 15.09375 -14.015625 C 16.457031 -12.609375 17.140625 -10.582031 17.140625 -7.9375 Z M 12.84375 -7.9375 C 12.84375 -9.820312 12.535156 -11.1875 11.921875 -12.03125 C 11.304688 -12.882812 10.410156 -13.3125 9.234375 -13.3125 C 6.734375 -13.3125 5.484375 -11.519531 5.484375 -7.9375 C 5.484375 -6.164062 5.789062 -4.816406 6.40625 -3.890625 C 7.019531 -2.972656 7.898438 -2.515625 9.046875 -2.515625 C 11.578125 -2.515625 12.84375 -4.320312 12.84375 -7.9375 Z M 12.84375 -7.9375 "/></g></g><g transform="translate(570.457571, 197.42923)"><g><path d="M 5.96875 -15.84375 L 5.96875 -6.953125 C 5.96875 -4.171875 6.90625 -2.78125 8.78125 -2.78125 C 9.78125 -2.78125 10.582031 -3.207031 11.1875 -4.0625 C 11.800781 -4.914062 12.109375 -6.007812 12.109375 -7.34375 L 12.109375 -15.84375 L 16.21875 -15.84375 L 16.21875 -3.546875 C 16.21875 -2.191406 16.257812 -1.007812 16.34375 0 L 12.421875 0 C 12.296875 -1.40625 12.234375 -2.453125 12.234375 -3.140625 L 12.171875 -3.140625 C 11.617188 -1.941406 10.921875 -1.066406 10.078125 -0.515625 C 9.234375 0.0234375 8.234375 0.296875 7.078125 0.296875 C 5.390625 0.296875 4.097656 -0.21875 3.203125 -1.25 C 2.304688 -2.28125 1.859375 -3.789062 1.859375 -5.78125 L 1.859375 -15.84375 Z M 5.96875 -15.84375 "/></g></g></g><g clip-path="url(#0adc76855d)"><path fill="#f2f2f2" d="M 466.984375 229.3125 L 653.636719 229.3125 L 653.636719 296.777344 L 466.984375 296.777344 Z M 466.984375 229.3125 " fill-opacity="1" fill-rule="nonzero"/></g><g clip-path="url(#b9e3a197db)"><g clip-path="url(#cf8e44c9c5)"><g mask="url(#5b8f67628a)"><g transform="matrix(1, 0, 0, 1, 670, 153)"><g clip-path="url(#ed3a705d22)"><g clip-path="url(#ff3ce9bf5f)"><g clip-path="url(#8ac6457206)"><path fill="#03e313" d="M 0.679688 0.953125 L 98.128906 0.953125 L 98.128906 62.417969 L 0.679688 62.417969 Z M 0.679688 0.953125 " fill-opacity="1" fill-rule="nonzero"/></g></g></g></g></g></g></g><g clip-path="url(#c4d0b865c9)"><path fill="#d9d9d9" d="M 784.703125 150.617188 L 971.355469 150.617188 L 971.355469 218.082031 L 784.703125 218.082031 Z M 784.703125 150.617188 " fill-opacity="1" fill-rule="nonzero"/></g><g clip-path="url(#1aa3b0074e)"><path fill="#d9d9d9" d="M 980.527344 75.257812 L 1167.179688 75.257812 L 1167.179688 142.722656 L 980.527344 142.722656 Z M 980.527344 75.257812 " fill-opacity="1" fill-rule="nonzero"/></g><g clip-path="url(#520db40814)"><g mask="url(#69fdc7aad4)"><g transform="matrix(1, 0, 0, 1, 980, 150)"><g clip-path="url(#cb6ce9a156)"><g clip-path="url(#9802e8fa23)"><path fill="#03e313" d="M 0.527344 0.617188 L 187.179688 0.617188 L 187.179688 68.082031 L 0.527344 68.082031 Z M 0.527344 0.617188 " fill-opacity="1" fill-rule="nonzero"/></g></g></g></g></g><g fill="#808080" fill-opacity="1"><g transform="translate(1065.668065, 194.095766)"><g><path d="M 15.84375 -6.859375 C 15.84375 -4.679688 15.160156 -2.941406 13.796875 -1.640625 C 12.429688 -0.347656 10.566406 0.296875 8.203125 0.296875 C 6.128906 0.296875 4.46875 -0.164062 3.21875 -1.09375 C 1.976562 -2.03125 1.210938 -3.382812 0.921875 -5.15625 L 5.03125 -5.484375 C 5.25 -4.609375 5.628906 -3.96875 6.171875 -3.5625 C 6.722656 -3.164062 7.414062 -2.96875 8.25 -2.96875 C 9.269531 -2.96875 10.082031 -3.296875 10.6875 -3.953125 C 11.300781 -4.609375 11.609375 -5.550781 11.609375 -6.78125 C 11.609375 -7.863281 11.316406 -8.726562 10.734375 -9.375 C 10.160156 -10.019531 9.359375 -10.34375 8.328125 -10.34375 C 7.191406 -10.34375 6.257812 -9.898438 5.53125 -9.015625 L 1.515625 -9.015625 L 2.234375 -20.625 L 14.640625 -20.625 L 14.640625 -17.5625 L 5.96875 -17.5625 L 5.640625 -12.359375 C 6.628906 -13.234375 7.875 -13.671875 9.375 -13.671875 C 11.332031 -13.671875 12.898438 -13.0625 14.078125 -11.84375 C 15.253906 -10.625 15.84375 -8.960938 15.84375 -6.859375 Z M 15.84375 -6.859375 "/></g></g></g><g clip-path="url(#c397fd9945)"><path fill="#d9d9d9" d="M 784.703125 225.980469 L 971.355469 225.980469 L 971.355469 293.445312 L 784.703125 293.445312 Z M 784.703125 225.980469 " fill-opacity="1" fill-rule="nonzero"/></g><g clip-path="url(#43641639ad)"><path fill="#f2f2f2" d="M 980.527344 225.980469 L 1167.179688 225.980469 L 1167.179688 293.445312 L 980.527344 293.445312 Z M 980.527344 225.980469 " fill-opacity="1" fill-rule="nonzero"/></g><g clip-path="url(#015aa9ac8e)"><path fill="#d9d9d9" d="M 1176.355469 75.257812 L 1363.007812 75.257812 L 1363.007812 142.722656 L 1176.355469 142.722656 Z M 1176.355469 75.257812 " fill-opacity="1" fill-rule="nonzero"/></g><g clip-path="url(#afde4d4b10)"><g mask="url(#6c49fc9746)"><g transform="matrix(1, 0, 0, 1, 1176, 150)"><g clip-path="url(#bc31ca824d)"><g clip-path="url(#4926e8b284)"><path fill="#03e313" d="M 0.355469 0.617188 L 187.007812 0.617188 L 187.007812 68.082031 L 0.355469 68.082031 Z M 0.355469 0.617188 " fill-opacity="1" fill-rule="nonzero"/></g></g></g></g></g><g fill="#808080" fill-opacity="1"><g transform="translate(1261.493563, 194.095766)"><g><path d="M 15.59375 -5.71875 C 15.59375 -3.789062 14.957031 -2.296875 13.6875 -1.234375 C 12.414062 -0.179688 10.609375 0.34375 8.265625 0.34375 C 6.054688 0.34375 4.296875 -0.164062 2.984375 -1.1875 C 1.679688 -2.207031 0.914062 -3.679688 0.6875 -5.609375 L 4.875 -5.96875 C 5.132812 -3.988281 6.257812 -3 8.25 -3 C 9.238281 -3 10.003906 -3.242188 10.546875 -3.734375 C 11.097656 -4.222656 11.375 -4.96875 11.375 -5.96875 C 11.375 -6.882812 11.039062 -7.585938 10.375 -8.078125 C 9.71875 -8.566406 8.734375 -8.8125 7.421875 -8.8125 L 5.984375 -8.8125 L 5.984375 -12.140625 L 7.328125 -12.140625 C 8.515625 -12.140625 9.40625 -12.378906 10 -12.859375 C 10.59375 -13.347656 10.890625 -14.039062 10.890625 -14.9375 C 10.890625 -15.78125 10.648438 -16.441406 10.171875 -16.921875 C 9.703125 -17.410156 9.015625 -17.65625 8.109375 -17.65625 C 7.265625 -17.65625 6.578125 -17.421875 6.046875 -16.953125 C 5.523438 -16.484375 5.226562 -15.820312 5.15625 -14.96875 L 1.046875 -15.25 C 1.253906 -17.03125 1.988281 -18.421875 3.25 -19.421875 C 4.507812 -20.429688 6.15625 -20.9375 8.1875 -20.9375 C 10.34375 -20.9375 12.023438 -20.445312 13.234375 -19.46875 C 14.453125 -18.5 15.0625 -17.160156 15.0625 -15.453125 C 15.0625 -14.160156 14.679688 -13.097656 13.921875 -12.265625 C 13.171875 -11.441406 12.082031 -10.890625 10.65625 -10.609375 L 10.65625 -10.5625 C 12.238281 -10.375 13.457031 -9.851562 14.3125 -9 C 15.164062 -8.144531 15.59375 -7.050781 15.59375 -5.71875 Z M 15.59375 -5.71875 "/></g></g></g><g clip-path="url(#8855f93238)"><path fill="#f2f2f2" d="M 1176.355469 225.980469 L 1363.007812 225.980469 L 1363.007812 293.445312 L 1176.355469 293.445312 Z M 1176.355469 225.980469 " fill-opacity="1" fill-rule="nonzero"/></g><g clip-path="url(#39d9ab7069)"><g mask="url(#bd83911808)"><g transform="matrix(1, 0, 0, 1, 271, 153)"><g clip-path="url(#6126f34cb6)"><g clip-path="url(#23d5a60e8b)"><path fill="#ffc000" d="M 0.160156 0.953125 L 186.8125 0.953125 L 186.8125 68.417969 L 0.160156 68.417969 Z M 0.160156 0.953125 " fill-opacity="1" fill-rule="nonzero"/></g></g></g></g></g><g fill="#808080" fill-opacity="1"><g transform="translate(327.977484, 197.42923)"><g><path d="M 15.3125 0 L 15.3125 -8.84375 L 6.328125 -8.84375 L 6.328125 0 L 2 0 L 2 -20.625 L 6.328125 -20.625 L 6.328125 -12.421875 L 15.3125 -12.421875 L 15.3125 -20.625 L 19.640625 -20.625 L 19.640625 0 Z M 15.3125 0 "/></g></g><g transform="translate(349.631238, 197.42923)"><g><path d="M 8.578125 0.296875 C 6.191406 0.296875 4.359375 -0.40625 3.078125 -1.8125 C 1.804688 -3.226562 1.171875 -5.289062 1.171875 -8 C 1.171875 -10.613281 1.816406 -12.625 3.109375 -14.03125 C 4.410156 -15.4375 6.253906 -16.140625 8.640625 -16.140625 C 10.910156 -16.140625 12.644531 -15.382812 13.84375 -13.875 C 15.050781 -12.363281 15.65625 -10.15625 15.65625 -7.25 L 15.65625 -7.125 L 5.484375 -7.125 C 5.484375 -5.582031 5.769531 -4.414062 6.34375 -3.625 C 6.914062 -2.84375 7.726562 -2.453125 8.78125 -2.453125 C 10.238281 -2.453125 11.15625 -3.082031 11.53125 -4.34375 L 15.421875 -4.015625 C 14.296875 -1.140625 12.015625 0.296875 8.578125 0.296875 Z M 8.578125 -13.546875 C 7.609375 -13.546875 6.863281 -13.207031 6.34375 -12.53125 C 5.820312 -11.851562 5.546875 -10.910156 5.515625 -9.703125 L 11.671875 -9.703125 C 11.585938 -10.984375 11.273438 -11.941406 10.734375 -12.578125 C 10.203125 -13.222656 9.484375 -13.546875 8.578125 -13.546875 Z M 8.578125 -13.546875 "/></g></g><g transform="translate(366.307118, 197.42923)"><g><path d="M 2.09375 0 L 2.09375 -21.734375 L 6.203125 -21.734375 L 6.203125 0 Z M 2.09375 0 "/></g></g><g transform="translate(374.637737, 197.42923)"><g><path d="M 2.09375 0 L 2.09375 -21.734375 L 6.203125 -21.734375 L 6.203125 0 Z M 2.09375 0 "/></g></g><g transform="translate(382.968357, 197.42923)"><g><path d="M 17.140625 -7.9375 C 17.140625 -5.363281 16.425781 -3.347656 15 -1.890625 C 13.582031 -0.429688 11.613281 0.296875 9.09375 0.296875 C 6.625 0.296875 4.6875 -0.429688 3.28125 -1.890625 C 1.875 -3.359375 1.171875 -5.375 1.171875 -7.9375 C 1.171875 -10.476562 1.875 -12.476562 3.28125 -13.9375 C 4.6875 -15.40625 6.65625 -16.140625 9.1875 -16.140625 C 11.769531 -16.140625 13.738281 -15.429688 15.09375 -14.015625 C 16.457031 -12.609375 17.140625 -10.582031 17.140625 -7.9375 Z M 12.84375 -7.9375 C 12.84375 -9.820312 12.535156 -11.1875 11.921875 -12.03125 C 11.304688 -12.882812 10.410156 -13.3125 9.234375 -13.3125 C 6.734375 -13.3125 5.484375 -11.519531 5.484375 -7.9375 C 5.484375 -6.164062 5.789062 -4.816406 6.40625 -3.890625 C 7.019531 -2.972656 7.898438 -2.515625 9.046875 -2.515625 C 11.578125 -2.515625 12.84375 -4.320312 12.84375 -7.9375 Z M 12.84375 -7.9375 "/></g></g></g></svg>