<svg xmlns="http://www.w3.org/2000/svg" xmlns:xlink="http://www.w3.org/1999/xlink" width="1779" zoomAndPan="magnify" viewBox="0 0 1334.25 368.999991" height="492" preserveAspectRatio="xMidYMid meet" version="1.0"><defs><filter x="0%" y="0%" width="100%" height="100%" id="a73eb9d650"><feColorMatrix values="0 0 0 0 1 0 0 0 0 1 0 0 0 0 1 0 0 0 1 0" color-interpolation-filters="sRGB"/></filter><g/><clipPath id="ac1ca47bbb"><path d="M 931.808594 75.597656 L 1118.746094 75.597656 L 1118.746094 293.613281 L 931.808594 293.613281 Z M 931.808594 75.597656 " clip-rule="nonzero"/></clipPath><mask id="4b393cdfef"><g filter="url(#a73eb9d650)"><rect x="-133.425" width="1601.1" fill="#000000" y="-36.899999" height="442.799989" fill-opacity="0.498"/></g></mask><clipPath id="f1c8a88154"><path d="M 0.808594 0.597656 L 187.746094 0.597656 L 187.746094 218.613281 L 0.808594 218.613281 Z M 0.808594 0.597656 " clip-rule="nonzero"/></clipPath><clipPath id="244b2ff4d1"><rect x="0" width="188" y="0" height="219"/></clipPath><clipPath id="6df7ff48f9"><path d="M 75.332031 150.953125 L 262 150.953125 L 262 218.25 L 75.332031 218.25 Z M 75.332031 150.953125 " clip-rule="nonzero"/></clipPath><clipPath id="84648dab6c"><path d="M 271.148438 75.597656 L 458 75.597656 L 458 142.894531 L 271.148438 142.894531 Z M 271.148438 75.597656 " clip-rule="nonzero"/></clipPath><clipPath id="62762f7646"><path d="M 75.332031 226.3125 L 262 226.3125 L 262 293.609375 L 75.332031 293.609375 Z M 75.332031 226.3125 " clip-rule="nonzero"/></clipPath><clipPath id="5600579e24"><path d="M 271.148438 226.3125 L 458.085938 226.3125 L 458.085938 293.609375 L 271.148438 293.609375 Z M 271.148438 226.3125 " clip-rule="nonzero"/></clipPath><mask id="2ffe05a085"><g filter="url(#a73eb9d650)"><rect x="-133.425" width="1601.1" fill="#000000" y="-36.899999" height="442.799989" fill-opacity="0.498"/></g></mask><clipPath id="c35a291acc"><path d="M 0.148438 0.3125 L 187 0.3125 L 187 67.609375 L 0.148438 67.609375 Z M 0.148438 0.3125 " clip-rule="nonzero"/></clipPath><clipPath id="501c05e2be"><rect x="0" width="188" y="0" height="68"/></clipPath><clipPath id="5ab1d4cf1e"><path d="M 466.964844 75.597656 L 653.902344 75.597656 L 653.902344 142.894531 L 466.964844 142.894531 Z M 466.964844 75.597656 " clip-rule="nonzero"/></clipPath><clipPath id="bd7fc19858"><path d="M 466.964844 226.3125 L 653.902344 226.3125 L 653.902344 293.609375 L 466.964844 293.609375 Z M 466.964844 226.3125 " clip-rule="nonzero"/></clipPath><mask id="ca93eb5853"><g filter="url(#a73eb9d650)"><rect x="-133.425" width="1601.1" fill="#000000" y="-36.899999" height="442.799989" fill-opacity="0.498"/></g></mask><clipPath id="0ba907e1b6"><path d="M 0.964844 0.3125 L 187.902344 0.3125 L 187.902344 67.609375 L 0.964844 67.609375 Z M 0.964844 0.3125 " clip-rule="nonzero"/></clipPath><clipPath id="9a06994c3b"><rect x="0" width="188" y="0" height="68"/></clipPath><clipPath id="edf8acf38e"><path d="M 670.652344 150.953125 L 768.847656 150.953125 L 768.847656 213 L 670.652344 213 Z M 670.652344 150.953125 " clip-rule="nonzero"/></clipPath><clipPath id="07bdebb93b"><path d="M 670.652344 166.394531 L 737.523438 166.394531 L 737.523438 150.953125 L 768.40625 181.835938 L 737.523438 212.71875 L 737.523438 197.277344 L 670.652344 197.277344 L 670.652344 166.394531 " clip-rule="nonzero"/></clipPath><mask id="dd87de1094"><g filter="url(#a73eb9d650)"><rect x="-133.425" width="1601.1" fill="#000000" y="-36.899999" height="442.799989" fill-opacity="0.4"/></g></mask><clipPath id="aa95baa976"><path d="M 0.652344 0.953125 L 98.527344 0.953125 L 98.527344 62.863281 L 0.652344 62.863281 Z M 0.652344 0.953125 " clip-rule="nonzero"/></clipPath><clipPath id="25a4783bea"><path d="M 0.652344 16.394531 L 67.523438 16.394531 L 67.523438 0.953125 L 98.40625 31.835938 L 67.523438 62.71875 L 67.523438 47.277344 L 0.652344 47.277344 L 0.652344 16.394531 " clip-rule="nonzero"/></clipPath><clipPath id="5200e3d558"><rect x="0" width="99" y="0" height="63"/></clipPath><clipPath id="f724d56d4e"><path d="M 271.148438 150.953125 L 458.085938 150.953125 L 458.085938 218.25 L 271.148438 218.25 Z M 271.148438 150.953125 " clip-rule="nonzero"/></clipPath><mask id="7087690eb5"><g filter="url(#a73eb9d650)"><rect x="-133.425" width="1601.1" fill="#000000" y="-36.899999" height="442.799989" fill-opacity="0.498"/></g></mask><clipPath id="84787c5445"><path d="M 0.148438 0.953125 L 187 0.953125 L 187 68.25 L 0.148438 68.25 Z M 0.148438 0.953125 " clip-rule="nonzero"/></clipPath><clipPath id="c01113625c"><rect x="0" width="188" y="0" height="69"/></clipPath><clipPath id="1b779b4151"><path d="M 466.964844 150.953125 L 653.902344 150.953125 L 653.902344 218.25 L 466.964844 218.25 Z M 466.964844 150.953125 " clip-rule="nonzero"/></clipPath><mask id="de8fa278f9"><g filter="url(#a73eb9d650)"><rect x="-133.425" width="1601.1" fill="#000000" y="-36.899999" height="442.799989" fill-opacity="0.498"/></g></mask><clipPath id="90e9255dd0"><path d="M 0.964844 0.953125 L 187.902344 0.953125 L 187.902344 68.25 L 0.964844 68.25 Z M 0.964844 0.953125 " clip-rule="nonzero"/></clipPath><clipPath id="5dff0e9f8c"><rect x="0" width="188" y="0" height="69"/></clipPath><clipPath id="e48a88a872"><path d="M 1066.273438 75.386719 L 1118.742188 75.386719 L 1118.742188 127.855469 L 1066.273438 127.855469 Z M 1066.273438 75.386719 " clip-rule="nonzero"/></clipPath><clipPath id="abd5b241da"><path d="M 1118.742188 75.707031 L 1118.742188 127.855469 L 1066.59375 75.707031 L 1118.742188 75.707031 " clip-rule="nonzero"/></clipPath><clipPath id="b1e25111bf"><path d="M 1066.601562 75.238281 L 1119 75.238281 L 1119 127.710938 L 1066.601562 127.710938 Z M 1066.601562 75.238281 " clip-rule="nonzero"/></clipPath><clipPath id="d8a180c461"><path d="M 1066.601562 127.386719 L 1066.601562 75.238281 L 1118.75 127.386719 L 1066.601562 127.386719 " clip-rule="nonzero"/></clipPath><clipPath id="3c57233a23"><path d="M 292.425781 175.910156 L 439.703125 175.910156 L 439.703125 194 L 292.425781 194 Z M 292.425781 175.910156 " clip-rule="nonzero"/></clipPath><clipPath id="3ff14b37ca"><path d="M 292.835938 249.523438 L 366.0625 249.523438 L 366.0625 267.890625 L 292.835938 267.890625 Z M 292.835938 249.523438 " clip-rule="nonzero"/></clipPath><clipPath id="e893f61657"><path d="M 485.789062 175.910156 L 565.097656 175.910156 L 565.097656 194 L 485.789062 194 Z M 485.789062 175.910156 " clip-rule="nonzero"/></clipPath><clipPath id="df9f785e6e"><path d="M 486.199219 249.523438 L 633.074219 249.523438 L 633.074219 267.890625 L 486.199219 267.890625 Z M 486.199219 249.523438 " clip-rule="nonzero"/></clipPath></defs><g clip-path="url(#ac1ca47bbb)"><g mask="url(#4b393cdfef)"><g transform="matrix(1, 0, 0, 1, 931, 75)"><g clip-path="url(#244b2ff4d1)"><g clip-path="url(#f1c8a88154)"><path fill="#03e313" d="M 0.808594 0.597656 L 187.453125 0.597656 L 187.453125 218.722656 L 0.808594 218.722656 Z M 0.808594 0.597656 " fill-opacity="1" fill-rule="nonzero"/></g></g></g></g></g><g clip-path="url(#6df7ff48f9)"><path fill="#d9d9d9" d="M 75.332031 150.953125 L 261.976562 150.953125 L 261.976562 218.417969 L 75.332031 218.417969 Z M 75.332031 150.953125 " fill-opacity="1" fill-rule="nonzero"/></g><g clip-path="url(#84648dab6c)"><path fill="#d9d9d9" d="M 271.148438 75.597656 L 457.792969 75.597656 L 457.792969 143.058594 L 271.148438 143.058594 Z M 271.148438 75.597656 " fill-opacity="1" fill-rule="nonzero"/></g><g clip-path="url(#62762f7646)"><path fill="#d9d9d9" d="M 75.332031 226.3125 L 261.976562 226.3125 L 261.976562 293.773438 L 75.332031 293.773438 Z M 75.332031 226.3125 " fill-opacity="1" fill-rule="nonzero"/></g><g clip-path="url(#5600579e24)"><g mask="url(#2ffe05a085)"><g transform="matrix(1, 0, 0, 1, 271, 226)"><g clip-path="url(#501c05e2be)"><g clip-path="url(#c35a291acc)"><path fill="#ffc000" d="M 0.148438 0.3125 L 186.792969 0.3125 L 186.792969 67.773438 L 0.148438 67.773438 Z M 0.148438 0.3125 " fill-opacity="1" fill-rule="nonzero"/></g></g></g></g></g><g clip-path="url(#5ab1d4cf1e)"><path fill="#d9d9d9" d="M 466.964844 75.597656 L 653.609375 75.597656 L 653.609375 143.058594 L 466.964844 143.058594 Z M 466.964844 75.597656 " fill-opacity="1" fill-rule="nonzero"/></g><g clip-path="url(#bd7fc19858)"><g mask="url(#ca93eb5853)"><g transform="matrix(1, 0, 0, 1, 466, 226)"><g clip-path="url(#9a06994c3b)"><g clip-path="url(#0ba907e1b6)"><path fill="#ffc000" d="M 0.964844 0.3125 L 187.609375 0.3125 L 187.609375 67.773438 L 0.964844 67.773438 Z M 0.964844 0.3125 " fill-opacity="1" fill-rule="nonzero"/></g></g></g></g></g><g clip-path="url(#edf8acf38e)"><g clip-path="url(#07bdebb93b)"><g mask="url(#dd87de1094)"><g transform="matrix(1, 0, 0, 1, 670, 150)"><g clip-path="url(#5200e3d558)"><g clip-path="url(#aa95baa976)"><g clip-path="url(#25a4783bea)"><path fill="#03e313" d="M 0.652344 0.953125 L 98.097656 0.953125 L 98.097656 62.417969 L 0.652344 62.417969 Z M 0.652344 0.953125 " fill-opacity="1" fill-rule="nonzero"/></g></g></g></g></g></g></g><g clip-path="url(#f724d56d4e)"><g mask="url(#7087690eb5)"><g transform="matrix(1, 0, 0, 1, 271, 150)"><g clip-path="url(#c01113625c)"><g clip-path="url(#84787c5445)"><path fill="#ffc000" d="M 0.148438 0.953125 L 186.792969 0.953125 L 186.792969 68.417969 L 0.148438 68.417969 Z M 0.148438 0.953125 " fill-opacity="1" fill-rule="nonzero"/></g></g></g></g></g><g clip-path="url(#1b779b4151)"><g mask="url(#de8fa278f9)"><g transform="matrix(1, 0, 0, 1, 466, 150)"><g clip-path="url(#5dff0e9f8c)"><g clip-path="url(#90e9255dd0)"><path fill="#ffc000" d="M 0.964844 0.953125 L 187.609375 0.953125 L 187.609375 68.417969 L 0.964844 68.417969 Z M 0.964844 0.953125 " fill-opacity="1" fill-rule="nonzero"/></g></g></g></g></g><g fill="#808080" fill-opacity="1"><g transform="translate(944.582319, 205.002208)"><g><path d="M 12.65625 0.640625 C 9.289062 0.640625 6.660156 -0.273438 4.765625 -2.109375 C 2.878906 -3.941406 1.9375 -6.523438 1.9375 -9.859375 C 1.9375 -13.460938 3.109375 -16.207031 5.453125 -18.09375 C 7.804688 -19.988281 11.21875 -20.957031 15.6875 -21 L 23.1875 -21.125 L 23.1875 -22.90625 C 23.1875 -25.175781 22.789062 -26.863281 22 -27.96875 C 21.207031 -29.082031 19.910156 -29.640625 18.109375 -29.640625 C 16.429688 -29.640625 15.195312 -29.253906 14.40625 -28.484375 C 13.625 -27.722656 13.140625 -26.460938 12.953125 -24.703125 L 3.515625 -25.15625 C 4.085938 -28.550781 5.632812 -31.125 8.15625 -32.875 C 10.6875 -34.625 14.128906 -35.5 18.484375 -35.5 C 22.890625 -35.5 26.285156 -34.410156 28.671875 -32.234375 C 31.054688 -30.066406 32.25 -26.988281 32.25 -23 L 32.25 -10.3125 C 32.25 -8.351562 32.46875 -7.003906 32.90625 -6.265625 C 33.34375 -5.523438 34.078125 -5.15625 35.109375 -5.15625 C 35.796875 -5.15625 36.460938 -5.21875 37.109375 -5.34375 L 37.109375 -0.453125 C 36.566406 -0.316406 36.082031 -0.195312 35.65625 -0.09375 C 35.226562 0.0078125 34.796875 0.09375 34.359375 0.15625 C 33.929688 0.21875 33.476562 0.269531 33 0.3125 C 32.519531 0.363281 31.957031 0.390625 31.3125 0.390625 C 29.03125 0.390625 27.347656 -0.164062 26.265625 -1.28125 C 25.179688 -2.40625 24.53125 -4.050781 24.3125 -6.21875 L 24.125 -6.21875 C 21.59375 -1.644531 17.769531 0.640625 12.65625 0.640625 Z M 23.1875 -16.140625 L 18.546875 -16.078125 C 16.441406 -15.984375 14.945312 -15.75 14.0625 -15.375 C 13.1875 -15 12.519531 -14.425781 12.0625 -13.65625 C 11.601562 -12.882812 11.375 -11.851562 11.375 -10.5625 C 11.375 -8.90625 11.753906 -7.675781 12.515625 -6.875 C 13.273438 -6.070312 14.289062 -5.671875 15.5625 -5.671875 C 16.976562 -5.671875 18.269531 -6.054688 19.4375 -6.828125 C 20.601562 -7.597656 21.519531 -8.664062 22.1875 -10.03125 C 22.851562 -11.394531 23.1875 -12.835938 23.1875 -14.359375 Z M 23.1875 -16.140625 "/></g></g><g transform="translate(981.26775, 205.002208)"><g><path d="M 4.609375 0 L 4.609375 -26.671875 C 4.609375 -28.578125 4.578125 -30.171875 4.515625 -31.453125 C 4.460938 -32.734375 4.40625 -33.867188 4.34375 -34.859375 L 12.984375 -34.859375 C 13.046875 -34.460938 13.128906 -33.28125 13.234375 -31.3125 C 13.347656 -29.351562 13.40625 -28.050781 13.40625 -27.40625 L 13.53125 -27.40625 C 14.40625 -29.851562 15.1875 -31.578125 15.875 -32.578125 C 16.5625 -33.578125 17.378906 -34.316406 18.328125 -34.796875 C 19.273438 -35.285156 20.457031 -35.53125 21.875 -35.53125 C 23.03125 -35.53125 23.960938 -35.367188 24.671875 -35.046875 L 24.671875 -27.46875 C 23.210938 -27.789062 21.925781 -27.953125 20.8125 -27.953125 C 18.550781 -27.953125 16.789062 -27.039062 15.53125 -25.21875 C 14.28125 -23.394531 13.65625 -20.691406 13.65625 -17.109375 L 13.65625 0 Z M 4.609375 0 "/></g></g><g transform="translate(1006.93789, 205.002208)"><g><path d="M 4.609375 0 L 4.609375 -26.671875 C 4.609375 -28.578125 4.578125 -30.171875 4.515625 -31.453125 C 4.460938 -32.734375 4.40625 -33.867188 4.34375 -34.859375 L 12.984375 -34.859375 C 13.046875 -34.460938 13.128906 -33.28125 13.234375 -31.3125 C 13.347656 -29.351562 13.40625 -28.050781 13.40625 -27.40625 L 13.53125 -27.40625 C 14.40625 -29.851562 15.1875 -31.578125 15.875 -32.578125 C 16.5625 -33.578125 17.378906 -34.316406 18.328125 -34.796875 C 19.273438 -35.285156 20.457031 -35.53125 21.875 -35.53125 C 23.03125 -35.53125 23.960938 -35.367188 24.671875 -35.046875 L 24.671875 -27.46875 C 23.210938 -27.789062 21.925781 -27.953125 20.8125 -27.953125 C 18.550781 -27.953125 16.789062 -27.039062 15.53125 -25.21875 C 14.28125 -23.394531 13.65625 -20.691406 13.65625 -17.109375 L 13.65625 0 Z M 4.609375 0 "/></g></g><g transform="translate(1032.60803, 205.002208)"><g><path d="M 12.65625 0.640625 C 9.289062 0.640625 6.660156 -0.273438 4.765625 -2.109375 C 2.878906 -3.941406 1.9375 -6.523438 1.9375 -9.859375 C 1.9375 -13.460938 3.109375 -16.207031 5.453125 -18.09375 C 7.804688 -19.988281 11.21875 -20.957031 15.6875 -21 L 23.1875 -21.125 L 23.1875 -22.90625 C 23.1875 -25.175781 22.789062 -26.863281 22 -27.96875 C 21.207031 -29.082031 19.910156 -29.640625 18.109375 -29.640625 C 16.429688 -29.640625 15.195312 -29.253906 14.40625 -28.484375 C 13.625 -27.722656 13.140625 -26.460938 12.953125 -24.703125 L 3.515625 -25.15625 C 4.085938 -28.550781 5.632812 -31.125 8.15625 -32.875 C 10.6875 -34.625 14.128906 -35.5 18.484375 -35.5 C 22.890625 -35.5 26.285156 -34.410156 28.671875 -32.234375 C 31.054688 -30.066406 32.25 -26.988281 32.25 -23 L 32.25 -10.3125 C 32.25 -8.351562 32.46875 -7.003906 32.90625 -6.265625 C 33.34375 -5.523438 34.078125 -5.15625 35.109375 -5.15625 C 35.796875 -5.15625 36.460938 -5.21875 37.109375 -5.34375 L 37.109375 -0.453125 C 36.566406 -0.316406 36.082031 -0.195312 35.65625 -0.09375 C 35.226562 0.0078125 34.796875 0.09375 34.359375 0.15625 C 33.929688 0.21875 33.476562 0.269531 33 0.3125 C 32.519531 0.363281 31.957031 0.390625 31.3125 0.390625 C 29.03125 0.390625 27.347656 -0.164062 26.265625 -1.28125 C 25.179688 -2.40625 24.53125 -4.050781 24.3125 -6.21875 L 24.125 -6.21875 C 21.59375 -1.644531 17.769531 0.640625 12.65625 0.640625 Z M 23.1875 -16.140625 L 18.546875 -16.078125 C 16.441406 -15.984375 14.945312 -15.75 14.0625 -15.375 C 13.1875 -15 12.519531 -14.425781 12.0625 -13.65625 C 11.601562 -12.882812 11.375 -11.851562 11.375 -10.5625 C 11.375 -8.90625 11.753906 -7.675781 12.515625 -6.875 C 13.273438 -6.070312 14.289062 -5.671875 15.5625 -5.671875 C 16.976562 -5.671875 18.269531 -6.054688 19.4375 -6.828125 C 20.601562 -7.597656 21.519531 -8.664062 22.1875 -10.03125 C 22.851562 -11.394531 23.1875 -12.835938 23.1875 -14.359375 Z M 23.1875 -16.140625 "/></g></g><g transform="translate(1069.293462, 205.002208)"><g><path d="M 9.109375 13.6875 C 6.941406 13.6875 5.046875 13.546875 3.421875 13.265625 L 3.421875 6.828125 C 4.554688 7.003906 5.59375 7.09375 6.53125 7.09375 C 7.820312 7.09375 8.890625 6.882812 9.734375 6.46875 C 10.585938 6.0625 11.351562 5.382812 12.03125 4.4375 C 12.707031 3.5 13.460938 1.898438 14.296875 -0.359375 L 0.515625 -34.859375 L 10.078125 -34.859375 L 15.5625 -18.515625 C 16.414062 -16.179688 17.5 -12.597656 18.8125 -7.765625 L 19.609375 -10.828125 L 21.703125 -18.390625 L 26.859375 -34.859375 L 36.328125 -34.859375 L 22.546875 1.84375 C 20.703125 6.300781 18.785156 9.390625 16.796875 11.109375 C 14.804688 12.828125 12.242188 13.6875 9.109375 13.6875 Z M 9.109375 13.6875 "/></g></g></g><g clip-path="url(#e48a88a872)"><g clip-path="url(#abd5b241da)"><path fill="#ffffff" d="M 1118.742188 127.855469 L 1066.273438 127.855469 L 1066.273438 75.386719 L 1118.742188 75.386719 Z M 1118.742188 127.855469 " fill-opacity="1" fill-rule="nonzero"/></g></g><g clip-path="url(#b1e25111bf)"><g clip-path="url(#d8a180c461)"><path fill="#7f7f7f" d="M 1066.601562 75.238281 L 1119.070312 75.238281 L 1119.070312 127.710938 L 1066.601562 127.710938 Z M 1066.601562 75.238281 " fill-opacity="1" fill-rule="nonzero"/></g></g><g clip-path="url(#3c57233a23)"><path fill="#f2f2f2" d="M 292.425781 175.910156 L 439.34375 175.910156 L 439.34375 193.898438 L 292.425781 193.898438 Z M 292.425781 175.910156 " fill-opacity="1" fill-rule="nonzero"/></g><g clip-path="url(#3ff14b37ca)"><path fill="#f2f2f2" d="M 292.835938 249.523438 L 366.292969 249.523438 L 366.292969 267.515625 L 292.835938 267.515625 Z M 292.835938 249.523438 " fill-opacity="1" fill-rule="nonzero"/></g><g clip-path="url(#e893f61657)"><path fill="#f2f2f2" d="M 485.789062 175.910156 L 565.246094 175.910156 L 565.246094 193.898438 L 485.789062 193.898438 Z M 485.789062 175.910156 " fill-opacity="1" fill-rule="nonzero"/></g><g clip-path="url(#df9f785e6e)"><path fill="#f2f2f2" d="M 486.199219 249.523438 L 633.117188 249.523438 L 633.117188 267.515625 L 486.199219 267.515625 Z M 486.199219 249.523438 " fill-opacity="1" fill-rule="nonzero"/></g></svg>