<svg xmlns="http://www.w3.org/2000/svg" xmlns:xlink="http://www.w3.org/1999/xlink" width="1779" zoomAndPan="magnify" viewBox="0 0 1334.25 368.999991" height="492" preserveAspectRatio="xMidYMid meet" version="1.0"><defs><filter x="0%" y="0%" width="100%" height="100%" id="9234a920d9"><feColorMatrix values="0 0 0 0 1 0 0 0 0 1 0 0 0 0 1 0 0 0 1 0" color-interpolation-filters="sRGB"/></filter><g/><clipPath id="323eca23fb"><path d="M 931.808594 75.597656 L 1118.746094 75.597656 L 1118.746094 293.613281 L 931.808594 293.613281 Z M 931.808594 75.597656 " clip-rule="nonzero"/></clipPath><mask id="7f64a42c05"><g filter="url(#9234a920d9)"><rect x="-133.425" width="1601.1" fill="#000000" y="-36.899999" height="442.799989" fill-opacity="0.498"/></g></mask><clipPath id="d54265f445"><path d="M 0.808594 0.597656 L 187.746094 0.597656 L 187.746094 218.613281 L 0.808594 218.613281 Z M 0.808594 0.597656 " clip-rule="nonzero"/></clipPath><clipPath id="8e255f4ee8"><rect x="0" width="188" y="0" height="219"/></clipPath><clipPath id="13d8d03436"><path d="M 75.332031 150.953125 L 262 150.953125 L 262 218.25 L 75.332031 218.25 Z M 75.332031 150.953125 " clip-rule="nonzero"/></clipPath><clipPath id="b907d54907"><path d="M 271.148438 75.597656 L 458 75.597656 L 458 142.894531 L 271.148438 142.894531 Z M 271.148438 75.597656 " clip-rule="nonzero"/></clipPath><clipPath id="9769ca6175"><path d="M 75.332031 226.3125 L 262 226.3125 L 262 293.609375 L 75.332031 293.609375 Z M 75.332031 226.3125 " clip-rule="nonzero"/></clipPath><clipPath id="320216a98e"><path d="M 271.148438 226.3125 L 458.085938 226.3125 L 458.085938 293.609375 L 271.148438 293.609375 Z M 271.148438 226.3125 " clip-rule="nonzero"/></clipPath><mask id="534f3b0669"><g filter="url(#9234a920d9)"><rect x="-133.425" width="1601.1" fill="#000000" y="-36.899999" height="442.799989" fill-opacity="0.498"/></g></mask><clipPath id="3ed80d4eb4"><path d="M 0.148438 0.3125 L 187 0.3125 L 187 67.609375 L 0.148438 67.609375 Z M 0.148438 0.3125 " clip-rule="nonzero"/></clipPath><clipPath id="5bae3d32af"><rect x="0" width="188" y="0" height="68"/></clipPath><clipPath id="f201c9a7a0"><path d="M 466.964844 75.597656 L 653.902344 75.597656 L 653.902344 142.894531 L 466.964844 142.894531 Z M 466.964844 75.597656 " clip-rule="nonzero"/></clipPath><clipPath id="72adfa606c"><path d="M 466.964844 226.3125 L 653.902344 226.3125 L 653.902344 293.609375 L 466.964844 293.609375 Z M 466.964844 226.3125 " clip-rule="nonzero"/></clipPath><mask id="8b0abdc00f"><g filter="url(#9234a920d9)"><rect x="-133.425" width="1601.1" fill="#000000" y="-36.899999" height="442.799989" fill-opacity="0.498"/></g></mask><clipPath id="6e5fd5354e"><path d="M 0.964844 0.3125 L 187.902344 0.3125 L 187.902344 67.609375 L 0.964844 67.609375 Z M 0.964844 0.3125 " clip-rule="nonzero"/></clipPath><clipPath id="7edf6e9247"><rect x="0" width="188" y="0" height="68"/></clipPath><clipPath id="2378ae337d"><path d="M 670.652344 150.953125 L 768.847656 150.953125 L 768.847656 213 L 670.652344 213 Z M 670.652344 150.953125 " clip-rule="nonzero"/></clipPath><clipPath id="6d753b1ba3"><path d="M 670.652344 166.394531 L 737.523438 166.394531 L 737.523438 150.953125 L 768.40625 181.835938 L 737.523438 212.71875 L 737.523438 197.277344 L 670.652344 197.277344 L 670.652344 166.394531 " clip-rule="nonzero"/></clipPath><mask id="cf4ef8be47"><g filter="url(#9234a920d9)"><rect x="-133.425" width="1601.1" fill="#000000" y="-36.899999" height="442.799989" fill-opacity="0.4"/></g></mask><clipPath id="251ee497ee"><path d="M 0.652344 0.953125 L 98.527344 0.953125 L 98.527344 62.863281 L 0.652344 62.863281 Z M 0.652344 0.953125 " clip-rule="nonzero"/></clipPath><clipPath id="d9c9223335"><path d="M 0.652344 16.394531 L 67.523438 16.394531 L 67.523438 0.953125 L 98.40625 31.835938 L 67.523438 62.71875 L 67.523438 47.277344 L 0.652344 47.277344 L 0.652344 16.394531 " clip-rule="nonzero"/></clipPath><clipPath id="7b30ce2adf"><rect x="0" width="99" y="0" height="63"/></clipPath><clipPath id="fdc76cb070"><path d="M 271.148438 150.953125 L 458.085938 150.953125 L 458.085938 218.25 L 271.148438 218.25 Z M 271.148438 150.953125 " clip-rule="nonzero"/></clipPath><mask id="0afa5917d5"><g filter="url(#9234a920d9)"><rect x="-133.425" width="1601.1" fill="#000000" y="-36.899999" height="442.799989" fill-opacity="0.498"/></g></mask><clipPath id="fdc2c69c69"><path d="M 0.148438 0.953125 L 187 0.953125 L 187 68.25 L 0.148438 68.25 Z M 0.148438 0.953125 " clip-rule="nonzero"/></clipPath><clipPath id="2c7d51e8dc"><rect x="0" width="188" y="0" height="69"/></clipPath><clipPath id="9b51dff4a2"><path d="M 466.964844 150.953125 L 653.902344 150.953125 L 653.902344 218.25 L 466.964844 218.25 Z M 466.964844 150.953125 " clip-rule="nonzero"/></clipPath><mask id="45aef5cbe3"><g filter="url(#9234a920d9)"><rect x="-133.425" width="1601.1" fill="#000000" y="-36.899999" height="442.799989" fill-opacity="0.498"/></g></mask><clipPath id="73a00fddb9"><path d="M 0.964844 0.953125 L 187.902344 0.953125 L 187.902344 68.25 L 0.964844 68.25 Z M 0.964844 0.953125 " clip-rule="nonzero"/></clipPath><clipPath id="733b6b2f75"><rect x="0" width="188" y="0" height="69"/></clipPath><clipPath id="d39d705ad9"><path d="M 1066.273438 75.386719 L 1118.742188 75.386719 L 1118.742188 127.855469 L 1066.273438 127.855469 Z M 1066.273438 75.386719 " clip-rule="nonzero"/></clipPath><clipPath id="2fdcf3f4d3"><path d="M 1118.742188 75.707031 L 1118.742188 127.855469 L 1066.59375 75.707031 L 1118.742188 75.707031 " clip-rule="nonzero"/></clipPath><clipPath id="b9d3d338f9"><path d="M 1066.601562 75.238281 L 1119 75.238281 L 1119 127.710938 L 1066.601562 127.710938 Z M 1066.601562 75.238281 " clip-rule="nonzero"/></clipPath><clipPath id="ccc50eef73"><path d="M 1066.601562 127.386719 L 1066.601562 75.238281 L 1118.75 127.386719 L 1066.601562 127.386719 " clip-rule="nonzero"/></clipPath><clipPath id="7fb533d239"><path d="M 292.425781 175.910156 L 439.703125 175.910156 L 439.703125 194 L 292.425781 194 Z M 292.425781 175.910156 " clip-rule="nonzero"/></clipPath><clipPath id="058db8760a"><path d="M 292.835938 249.523438 L 366.0625 249.523438 L 366.0625 267.890625 L 292.835938 267.890625 Z M 292.835938 249.523438 " clip-rule="nonzero"/></clipPath><clipPath id="7a0d509193"><path d="M 485.789062 175.910156 L 565.097656 175.910156 L 565.097656 194 L 485.789062 194 Z M 485.789062 175.910156 " clip-rule="nonzero"/></clipPath><clipPath id="e7876ba604"><path d="M 486.199219 249.523438 L 633.074219 249.523438 L 633.074219 267.890625 L 486.199219 267.890625 Z M 486.199219 249.523438 " clip-rule="nonzero"/></clipPath></defs><g clip-path="url(#323eca23fb)"><g mask="url(#7f64a42c05)"><g transform="matrix(1, 0, 0, 1, 931, 75)"><g clip-path="url(#8e255f4ee8)"><g clip-path="url(#d54265f445)"><path fill="#03e313" d="M 0.808594 0.597656 L 187.453125 0.597656 L 187.453125 218.722656 L 0.808594 218.722656 Z M 0.808594 0.597656 " fill-opacity="1" fill-rule="nonzero"/></g></g></g></g></g><g clip-path="url(#13d8d03436)"><path fill="#d9d9d9" d="M 75.332031 150.953125 L 261.976562 150.953125 L 261.976562 218.417969 L 75.332031 218.417969 Z M 75.332031 150.953125 " fill-opacity="1" fill-rule="nonzero"/></g><g clip-path="url(#b907d54907)"><path fill="#d9d9d9" d="M 271.148438 75.597656 L 457.792969 75.597656 L 457.792969 143.058594 L 271.148438 143.058594 Z M 271.148438 75.597656 " fill-opacity="1" fill-rule="nonzero"/></g><g clip-path="url(#9769ca6175)"><path fill="#d9d9d9" d="M 75.332031 226.3125 L 261.976562 226.3125 L 261.976562 293.773438 L 75.332031 293.773438 Z M 75.332031 226.3125 " fill-opacity="1" fill-rule="nonzero"/></g><g clip-path="url(#320216a98e)"><g mask="url(#534f3b0669)"><g transform="matrix(1, 0, 0, 1, 271, 226)"><g clip-path="url(#5bae3d32af)"><g clip-path="url(#3ed80d4eb4)"><path fill="#ffc000" d="M 0.148438 0.3125 L 186.792969 0.3125 L 186.792969 67.773438 L 0.148438 67.773438 Z M 0.148438 0.3125 " fill-opacity="1" fill-rule="nonzero"/></g></g></g></g></g><g clip-path="url(#f201c9a7a0)"><path fill="#d9d9d9" d="M 466.964844 75.597656 L 653.609375 75.597656 L 653.609375 143.058594 L 466.964844 143.058594 Z M 466.964844 75.597656 " fill-opacity="1" fill-rule="nonzero"/></g><g clip-path="url(#72adfa606c)"><g mask="url(#8b0abdc00f)"><g transform="matrix(1, 0, 0, 1, 466, 226)"><g clip-path="url(#7edf6e9247)"><g clip-path="url(#6e5fd5354e)"><path fill="#ffc000" d="M 0.964844 0.3125 L 187.609375 0.3125 L 187.609375 67.773438 L 0.964844 67.773438 Z M 0.964844 0.3125 " fill-opacity="1" fill-rule="nonzero"/></g></g></g></g></g><g clip-path="url(#2378ae337d)"><g clip-path="url(#6d753b1ba3)"><g mask="url(#cf4ef8be47)"><g transform="matrix(1, 0, 0, 1, 670, 150)"><g clip-path="url(#7b30ce2adf)"><g clip-path="url(#251ee497ee)"><g clip-path="url(#d9c9223335)"><path fill="#03e313" d="M 0.652344 0.953125 L 98.097656 0.953125 L 98.097656 62.417969 L 0.652344 62.417969 Z M 0.652344 0.953125 " fill-opacity="1" fill-rule="nonzero"/></g></g></g></g></g></g></g><g clip-path="url(#fdc76cb070)"><g mask="url(#0afa5917d5)"><g transform="matrix(1, 0, 0, 1, 271, 150)"><g clip-path="url(#2c7d51e8dc)"><g clip-path="url(#fdc2c69c69)"><path fill="#ffc000" d="M 0.148438 0.953125 L 186.792969 0.953125 L 186.792969 68.417969 L 0.148438 68.417969 Z M 0.148438 0.953125 " fill-opacity="1" fill-rule="nonzero"/></g></g></g></g></g><g clip-path="url(#9b51dff4a2)"><g mask="url(#45aef5cbe3)"><g transform="matrix(1, 0, 0, 1, 466, 150)"><g clip-path="url(#733b6b2f75)"><g clip-path="url(#73a00fddb9)"><path fill="#ffc000" d="M 0.964844 0.953125 L 187.609375 0.953125 L 187.609375 68.417969 L 0.964844 68.417969 Z M 0.964844 0.953125 " fill-opacity="1" fill-rule="nonzero"/></g></g></g></g></g><g fill="#808080" fill-opacity="1"><g transform="translate(871.334433, 205.002208)"><g><path d="M 19.140625 0.640625 C 13.847656 0.640625 9.765625 -0.929688 6.890625 -4.078125 C 4.015625 -7.222656 2.578125 -11.609375 2.578125 -17.234375 C 2.578125 -22.984375 4.023438 -27.460938 6.921875 -30.671875 C 9.828125 -33.890625 13.941406 -35.5 19.265625 -35.5 C 23.367188 -35.5 26.757812 -34.46875 29.4375 -32.40625 C 32.125 -30.34375 33.8125 -27.5 34.5 -23.875 L 25.375 -23.421875 C 25.125 -25.203125 24.484375 -26.625 23.453125 -27.6875 C 22.421875 -28.75 20.957031 -29.28125 19.0625 -29.28125 C 14.40625 -29.28125 12.078125 -25.382812 12.078125 -17.59375 C 12.078125 -9.5625 14.453125 -5.546875 19.203125 -5.546875 C 20.921875 -5.546875 22.359375 -6.085938 23.515625 -7.171875 C 24.671875 -8.253906 25.390625 -9.867188 25.671875 -12.015625 L 34.75 -11.59375 C 34.425781 -9.207031 33.570312 -7.082031 32.1875 -5.21875 C 30.8125 -3.351562 28.992188 -1.910156 26.734375 -0.890625 C 24.484375 0.128906 21.953125 0.640625 19.140625 0.640625 Z M 19.140625 0.640625 "/></g></g><g transform="translate(908.019864, 205.002208)"><g><path d="M 37.71875 -17.453125 C 37.71875 -11.804688 36.148438 -7.378906 33.015625 -4.171875 C 29.878906 -0.960938 25.539062 0.640625 20 0.640625 C 14.570312 0.640625 10.3125 -0.96875 7.21875 -4.1875 C 4.125 -7.40625 2.578125 -11.828125 2.578125 -17.453125 C 2.578125 -23.054688 4.125 -27.460938 7.21875 -30.671875 C 10.3125 -33.890625 14.640625 -35.5 20.203125 -35.5 C 25.890625 -35.5 30.226562 -33.945312 33.21875 -30.84375 C 36.21875 -27.738281 37.71875 -23.273438 37.71875 -17.453125 Z M 28.25 -17.453125 C 28.25 -21.597656 27.570312 -24.601562 26.21875 -26.46875 C 24.863281 -28.34375 22.898438 -29.28125 20.328125 -29.28125 C 14.828125 -29.28125 12.078125 -25.335938 12.078125 -17.453125 C 12.078125 -13.566406 12.75 -10.609375 14.09375 -8.578125 C 15.4375 -6.554688 17.375 -5.546875 19.90625 -5.546875 C 25.46875 -5.546875 28.25 -9.515625 28.25 -17.453125 Z M 28.25 -17.453125 "/></g></g><g transform="translate(948.312643, 205.002208)"><g><path d="M 4.609375 0 L 4.609375 -47.796875 L 13.65625 -47.796875 L 13.65625 0 Z M 4.609375 0 "/></g></g><g transform="translate(966.639255, 205.002208)"><g><path d="M 4.609375 0 L 4.609375 -47.796875 L 13.65625 -47.796875 L 13.65625 0 Z M 4.609375 0 "/></g></g><g transform="translate(984.965866, 205.002208)"><g><path d="M 18.875 0.640625 C 13.632812 0.640625 9.609375 -0.910156 6.796875 -4.015625 C 3.984375 -7.117188 2.578125 -11.644531 2.578125 -17.59375 C 2.578125 -23.34375 4.003906 -27.765625 6.859375 -30.859375 C 9.710938 -33.953125 13.757812 -35.5 19 -35.5 C 24.007812 -35.5 27.832031 -33.835938 30.46875 -30.515625 C 33.113281 -27.203125 34.4375 -22.34375 34.4375 -15.9375 L 34.4375 -15.6875 L 12.078125 -15.6875 C 12.078125 -12.289062 12.703125 -9.726562 13.953125 -8 C 15.210938 -6.269531 17.003906 -5.40625 19.328125 -5.40625 C 22.523438 -5.40625 24.539062 -6.789062 25.375 -9.5625 L 33.921875 -8.828125 C 31.453125 -2.515625 26.4375 0.640625 18.875 0.640625 Z M 18.875 -29.796875 C 16.75 -29.796875 15.109375 -29.050781 13.953125 -27.5625 C 12.804688 -26.082031 12.203125 -24.015625 12.140625 -21.359375 L 25.671875 -21.359375 C 25.503906 -24.171875 24.828125 -26.28125 23.640625 -27.6875 C 22.460938 -29.09375 20.875 -29.796875 18.875 -29.796875 Z M 18.875 -29.796875 "/></g></g><g transform="translate(1021.651298, 205.002208)"><g><path d="M 19.140625 0.640625 C 13.847656 0.640625 9.765625 -0.929688 6.890625 -4.078125 C 4.015625 -7.222656 2.578125 -11.609375 2.578125 -17.234375 C 2.578125 -22.984375 4.023438 -27.460938 6.921875 -30.671875 C 9.828125 -33.890625 13.941406 -35.5 19.265625 -35.5 C 23.367188 -35.5 26.757812 -34.46875 29.4375 -32.40625 C 32.125 -30.34375 33.8125 -27.5 34.5 -23.875 L 25.375 -23.421875 C 25.125 -25.203125 24.484375 -26.625 23.453125 -27.6875 C 22.421875 -28.75 20.957031 -29.28125 19.0625 -29.28125 C 14.40625 -29.28125 12.078125 -25.382812 12.078125 -17.59375 C 12.078125 -9.5625 14.453125 -5.546875 19.203125 -5.546875 C 20.921875 -5.546875 22.359375 -6.085938 23.515625 -7.171875 C 24.671875 -8.253906 25.390625 -9.867188 25.671875 -12.015625 L 34.75 -11.59375 C 34.425781 -9.207031 33.570312 -7.082031 32.1875 -5.21875 C 30.8125 -3.351562 28.992188 -1.910156 26.734375 -0.890625 C 24.484375 0.128906 21.953125 0.640625 19.140625 0.640625 Z M 19.140625 0.640625 "/></g></g><g transform="translate(1058.336729, 205.002208)"><g><path d="M 13.53125 0.578125 C 10.863281 0.578125 8.8125 -0.144531 7.375 -1.59375 C 5.9375 -3.039062 5.21875 -5.238281 5.21875 -8.1875 L 5.21875 -28.734375 L 0.8125 -28.734375 L 0.8125 -34.859375 L 5.671875 -34.859375 L 8.5 -43.03125 L 14.171875 -43.03125 L 14.171875 -34.859375 L 20.78125 -34.859375 L 20.78125 -28.734375 L 14.171875 -28.734375 L 14.171875 -10.625 C 14.171875 -8.925781 14.492188 -7.675781 15.140625 -6.875 C 15.785156 -6.070312 16.785156 -5.671875 18.140625 -5.671875 C 18.847656 -5.671875 19.851562 -5.820312 21.15625 -6.125 L 21.15625 -0.515625 C 18.925781 0.210938 16.382812 0.578125 13.53125 0.578125 Z M 13.53125 0.578125 "/></g></g><g transform="translate(1080.302896, 205.002208)"><g><path d="M 4.609375 -41.140625 L 4.609375 -47.796875 L 13.65625 -47.796875 L 13.65625 -41.140625 Z M 4.609375 0 L 4.609375 -34.859375 L 13.65625 -34.859375 L 13.65625 0 Z M 4.609375 0 "/></g></g><g transform="translate(1098.629508, 205.002208)"><g><path d="M 37.71875 -17.453125 C 37.71875 -11.804688 36.148438 -7.378906 33.015625 -4.171875 C 29.878906 -0.960938 25.539062 0.640625 20 0.640625 C 14.570312 0.640625 10.3125 -0.96875 7.21875 -4.1875 C 4.125 -7.40625 2.578125 -11.828125 2.578125 -17.453125 C 2.578125 -23.054688 4.125 -27.460938 7.21875 -30.671875 C 10.3125 -33.890625 14.640625 -35.5 20.203125 -35.5 C 25.890625 -35.5 30.226562 -33.945312 33.21875 -30.84375 C 36.21875 -27.738281 37.71875 -23.273438 37.71875 -17.453125 Z M 28.25 -17.453125 C 28.25 -21.597656 27.570312 -24.601562 26.21875 -26.46875 C 24.863281 -28.34375 22.898438 -29.28125 20.328125 -29.28125 C 14.828125 -29.28125 12.078125 -25.335938 12.078125 -17.453125 C 12.078125 -13.566406 12.75 -10.609375 14.09375 -8.578125 C 15.4375 -6.554688 17.375 -5.546875 19.90625 -5.546875 C 25.46875 -5.546875 28.25 -9.515625 28.25 -17.453125 Z M 28.25 -17.453125 "/></g></g><g transform="translate(1138.922286, 205.002208)"><g><path d="M 27.1875 0 L 27.1875 -19.546875 C 27.1875 -25.671875 25.113281 -28.734375 20.96875 -28.734375 C 18.78125 -28.734375 17.015625 -27.789062 15.671875 -25.90625 C 14.328125 -24.03125 13.65625 -21.625 13.65625 -18.6875 L 13.65625 0 L 4.609375 0 L 4.609375 -27.0625 C 4.609375 -28.925781 4.578125 -30.453125 4.515625 -31.640625 C 4.460938 -32.835938 4.40625 -33.910156 4.34375 -34.859375 L 12.984375 -34.859375 C 13.046875 -34.441406 13.128906 -33.347656 13.234375 -31.578125 C 13.347656 -29.804688 13.40625 -28.585938 13.40625 -27.921875 L 13.53125 -27.921875 C 14.75 -30.585938 16.28125 -32.519531 18.125 -33.71875 C 19.976562 -34.925781 22.179688 -35.53125 24.734375 -35.53125 C 28.429688 -35.53125 31.265625 -34.390625 33.234375 -32.109375 C 35.210938 -29.835938 36.203125 -26.507812 36.203125 -22.125 L 36.203125 0 Z M 27.1875 0 "/></g></g></g><g clip-path="url(#d39d705ad9)"><g clip-path="url(#2fdcf3f4d3)"><path fill="#ffffff" d="M 1118.742188 127.855469 L 1066.273438 127.855469 L 1066.273438 75.386719 L 1118.742188 75.386719 Z M 1118.742188 127.855469 " fill-opacity="1" fill-rule="nonzero"/></g></g><g clip-path="url(#b9d3d338f9)"><g clip-path="url(#ccc50eef73)"><path fill="#7f7f7f" d="M 1066.601562 75.238281 L 1119.070312 75.238281 L 1119.070312 127.710938 L 1066.601562 127.710938 Z M 1066.601562 75.238281 " fill-opacity="1" fill-rule="nonzero"/></g></g><g clip-path="url(#7fb533d239)"><path fill="#f2f2f2" d="M 292.425781 175.910156 L 439.34375 175.910156 L 439.34375 193.898438 L 292.425781 193.898438 Z M 292.425781 175.910156 " fill-opacity="1" fill-rule="nonzero"/></g><g clip-path="url(#058db8760a)"><path fill="#f2f2f2" d="M 292.835938 249.523438 L 366.292969 249.523438 L 366.292969 267.515625 L 292.835938 267.515625 Z M 292.835938 249.523438 " fill-opacity="1" fill-rule="nonzero"/></g><g clip-path="url(#7a0d509193)"><path fill="#f2f2f2" d="M 485.789062 175.910156 L 565.246094 175.910156 L 565.246094 193.898438 L 485.789062 193.898438 Z M 485.789062 175.910156 " fill-opacity="1" fill-rule="nonzero"/></g><g clip-path="url(#e7876ba604)"><path fill="#f2f2f2" d="M 486.199219 249.523438 L 633.117188 249.523438 L 633.117188 267.515625 L 486.199219 267.515625 Z M 486.199219 249.523438 " fill-opacity="1" fill-rule="nonzero"/></g></svg>