<svg xmlns="http://www.w3.org/2000/svg" xmlns:xlink="http://www.w3.org/1999/xlink" width="1779" zoomAndPan="magnify" viewBox="0 0 1334.25 368.999991" height="492" preserveAspectRatio="xMidYMid meet" version="1.0"><defs><filter x="0%" y="0%" width="100%" height="100%" id="78e0bf6cdc"><feColorMatrix values="0 0 0 0 1 0 0 0 0 1 0 0 0 0 1 0 0 0 1 0" color-interpolation-filters="sRGB"/></filter><g/><clipPath id="fe983d0043"><path d="M 931.808594 75.597656 L 1118.746094 75.597656 L 1118.746094 293.613281 L 931.808594 293.613281 Z M 931.808594 75.597656 " clip-rule="nonzero"/></clipPath><mask id="ea9bf87577"><g filter="url(#78e0bf6cdc)"><rect x="-133.425" width="1601.1" fill="#000000" y="-36.899999" height="442.799989" fill-opacity="0.498"/></g></mask><clipPath id="408791325d"><path d="M 0.808594 0.597656 L 187.746094 0.597656 L 187.746094 218.613281 L 0.808594 218.613281 Z M 0.808594 0.597656 " clip-rule="nonzero"/></clipPath><clipPath id="222e5198ca"><rect x="0" width="188" y="0" height="219"/></clipPath><clipPath id="3effb16fcf"><path d="M 75.332031 150.953125 L 262 150.953125 L 262 218.25 L 75.332031 218.25 Z M 75.332031 150.953125 " clip-rule="nonzero"/></clipPath><clipPath id="bbb342941b"><path d="M 271.148438 75.597656 L 458 75.597656 L 458 142.894531 L 271.148438 142.894531 Z M 271.148438 75.597656 " clip-rule="nonzero"/></clipPath><clipPath id="62cfa29852"><path d="M 75.332031 226.3125 L 262 226.3125 L 262 293.609375 L 75.332031 293.609375 Z M 75.332031 226.3125 " clip-rule="nonzero"/></clipPath><clipPath id="e4a5e3a992"><path d="M 271.148438 226.3125 L 458.085938 226.3125 L 458.085938 293.609375 L 271.148438 293.609375 Z M 271.148438 226.3125 " clip-rule="nonzero"/></clipPath><mask id="a4d8f55e7b"><g filter="url(#78e0bf6cdc)"><rect x="-133.425" width="1601.1" fill="#000000" y="-36.899999" height="442.799989" fill-opacity="0.498"/></g></mask><clipPath id="b8d2dc6b50"><path d="M 0.148438 0.3125 L 187 0.3125 L 187 67.609375 L 0.148438 67.609375 Z M 0.148438 0.3125 " clip-rule="nonzero"/></clipPath><clipPath id="5a72e79f00"><rect x="0" width="188" y="0" height="68"/></clipPath><clipPath id="5247bc0a02"><path d="M 466.964844 75.597656 L 653.902344 75.597656 L 653.902344 142.894531 L 466.964844 142.894531 Z M 466.964844 75.597656 " clip-rule="nonzero"/></clipPath><clipPath id="eae2d70657"><path d="M 466.964844 226.3125 L 653.902344 226.3125 L 653.902344 293.609375 L 466.964844 293.609375 Z M 466.964844 226.3125 " clip-rule="nonzero"/></clipPath><mask id="b0fa52a377"><g filter="url(#78e0bf6cdc)"><rect x="-133.425" width="1601.1" fill="#000000" y="-36.899999" height="442.799989" fill-opacity="0.498"/></g></mask><clipPath id="c41f7a746e"><path d="M 0.964844 0.3125 L 187.902344 0.3125 L 187.902344 67.609375 L 0.964844 67.609375 Z M 0.964844 0.3125 " clip-rule="nonzero"/></clipPath><clipPath id="752c7c3a5b"><rect x="0" width="188" y="0" height="68"/></clipPath><clipPath id="4ae718ca89"><path d="M 670.652344 150.953125 L 768.847656 150.953125 L 768.847656 213 L 670.652344 213 Z M 670.652344 150.953125 " clip-rule="nonzero"/></clipPath><clipPath id="9af8cb061e"><path d="M 670.652344 166.394531 L 737.523438 166.394531 L 737.523438 150.953125 L 768.40625 181.835938 L 737.523438 212.71875 L 737.523438 197.277344 L 670.652344 197.277344 L 670.652344 166.394531 " clip-rule="nonzero"/></clipPath><mask id="5340594a43"><g filter="url(#78e0bf6cdc)"><rect x="-133.425" width="1601.1" fill="#000000" y="-36.899999" height="442.799989" fill-opacity="0.4"/></g></mask><clipPath id="10b4bf9620"><path d="M 0.652344 0.953125 L 98.527344 0.953125 L 98.527344 62.863281 L 0.652344 62.863281 Z M 0.652344 0.953125 " clip-rule="nonzero"/></clipPath><clipPath id="ddc0e3723b"><path d="M 0.652344 16.394531 L 67.523438 16.394531 L 67.523438 0.953125 L 98.40625 31.835938 L 67.523438 62.71875 L 67.523438 47.277344 L 0.652344 47.277344 L 0.652344 16.394531 " clip-rule="nonzero"/></clipPath><clipPath id="8415eeaf89"><rect x="0" width="99" y="0" height="63"/></clipPath><clipPath id="ad8943734f"><path d="M 271.148438 150.953125 L 458.085938 150.953125 L 458.085938 218.25 L 271.148438 218.25 Z M 271.148438 150.953125 " clip-rule="nonzero"/></clipPath><mask id="a266db54a0"><g filter="url(#78e0bf6cdc)"><rect x="-133.425" width="1601.1" fill="#000000" y="-36.899999" height="442.799989" fill-opacity="0.498"/></g></mask><clipPath id="1cd7cd9e35"><path d="M 0.148438 0.953125 L 187 0.953125 L 187 68.25 L 0.148438 68.25 Z M 0.148438 0.953125 " clip-rule="nonzero"/></clipPath><clipPath id="072507eff0"><rect x="0" width="188" y="0" height="69"/></clipPath><clipPath id="34c80e20cd"><path d="M 466.964844 150.953125 L 653.902344 150.953125 L 653.902344 218.25 L 466.964844 218.25 Z M 466.964844 150.953125 " clip-rule="nonzero"/></clipPath><mask id="1acf11828f"><g filter="url(#78e0bf6cdc)"><rect x="-133.425" width="1601.1" fill="#000000" y="-36.899999" height="442.799989" fill-opacity="0.498"/></g></mask><clipPath id="26c0bd8c84"><path d="M 0.964844 0.953125 L 187.902344 0.953125 L 187.902344 68.25 L 0.964844 68.25 Z M 0.964844 0.953125 " clip-rule="nonzero"/></clipPath><clipPath id="6e98e80021"><rect x="0" width="188" y="0" height="69"/></clipPath><clipPath id="6313696b70"><path d="M 292.425781 175.910156 L 439.703125 175.910156 L 439.703125 194 L 292.425781 194 Z M 292.425781 175.910156 " clip-rule="nonzero"/></clipPath><clipPath id="064b65e157"><path d="M 292.835938 249.523438 L 366.0625 249.523438 L 366.0625 267.890625 L 292.835938 267.890625 Z M 292.835938 249.523438 " clip-rule="nonzero"/></clipPath><clipPath id="814ce09ce8"><path d="M 485.789062 175.910156 L 565.097656 175.910156 L 565.097656 194 L 485.789062 194 Z M 485.789062 175.910156 " clip-rule="nonzero"/></clipPath><clipPath id="f2839c6760"><path d="M 486.199219 249.523438 L 633.074219 249.523438 L 633.074219 267.890625 L 486.199219 267.890625 Z M 486.199219 249.523438 " clip-rule="nonzero"/></clipPath></defs><g clip-path="url(#fe983d0043)"><g mask="url(#ea9bf87577)"><g transform="matrix(1, 0, 0, 1, 931, 75)"><g clip-path="url(#222e5198ca)"><g clip-path="url(#408791325d)"><path fill="#03e313" d="M 0.808594 0.597656 L 187.453125 0.597656 L 187.453125 218.722656 L 0.808594 218.722656 Z M 0.808594 0.597656 " fill-opacity="1" fill-rule="nonzero"/></g></g></g></g></g><g clip-path="url(#3effb16fcf)"><path fill="#d9d9d9" d="M 75.332031 150.953125 L 261.976562 150.953125 L 261.976562 218.417969 L 75.332031 218.417969 Z M 75.332031 150.953125 " fill-opacity="1" fill-rule="nonzero"/></g><g clip-path="url(#bbb342941b)"><path fill="#d9d9d9" d="M 271.148438 75.597656 L 457.792969 75.597656 L 457.792969 143.058594 L 271.148438 143.058594 Z M 271.148438 75.597656 " fill-opacity="1" fill-rule="nonzero"/></g><g clip-path="url(#62cfa29852)"><path fill="#d9d9d9" d="M 75.332031 226.3125 L 261.976562 226.3125 L 261.976562 293.773438 L 75.332031 293.773438 Z M 75.332031 226.3125 " fill-opacity="1" fill-rule="nonzero"/></g><g clip-path="url(#e4a5e3a992)"><g mask="url(#a4d8f55e7b)"><g transform="matrix(1, 0, 0, 1, 271, 226)"><g clip-path="url(#5a72e79f00)"><g clip-path="url(#b8d2dc6b50)"><path fill="#ffc000" d="M 0.148438 0.3125 L 186.792969 0.3125 L 186.792969 67.773438 L 0.148438 67.773438 Z M 0.148438 0.3125 " fill-opacity="1" fill-rule="nonzero"/></g></g></g></g></g><g clip-path="url(#5247bc0a02)"><path fill="#d9d9d9" d="M 466.964844 75.597656 L 653.609375 75.597656 L 653.609375 143.058594 L 466.964844 143.058594 Z M 466.964844 75.597656 " fill-opacity="1" fill-rule="nonzero"/></g><g clip-path="url(#eae2d70657)"><g mask="url(#b0fa52a377)"><g transform="matrix(1, 0, 0, 1, 466, 226)"><g clip-path="url(#752c7c3a5b)"><g clip-path="url(#c41f7a746e)"><path fill="#ffc000" d="M 0.964844 0.3125 L 187.609375 0.3125 L 187.609375 67.773438 L 0.964844 67.773438 Z M 0.964844 0.3125 " fill-opacity="1" fill-rule="nonzero"/></g></g></g></g></g><g clip-path="url(#4ae718ca89)"><g clip-path="url(#9af8cb061e)"><g mask="url(#5340594a43)"><g transform="matrix(1, 0, 0, 1, 670, 150)"><g clip-path="url(#8415eeaf89)"><g clip-path="url(#10b4bf9620)"><g clip-path="url(#ddc0e3723b)"><path fill="#03e313" d="M 0.652344 0.953125 L 98.097656 0.953125 L 98.097656 62.417969 L 0.652344 62.417969 Z M 0.652344 0.953125 " fill-opacity="1" fill-rule="nonzero"/></g></g></g></g></g></g></g><g clip-path="url(#ad8943734f)"><g mask="url(#a266db54a0)"><g transform="matrix(1, 0, 0, 1, 271, 150)"><g clip-path="url(#072507eff0)"><g clip-path="url(#1cd7cd9e35)"><path fill="#ffc000" d="M 0.148438 0.953125 L 186.792969 0.953125 L 186.792969 68.417969 L 0.148438 68.417969 Z M 0.148438 0.953125 " fill-opacity="1" fill-rule="nonzero"/></g></g></g></g></g><g clip-path="url(#34c80e20cd)"><g mask="url(#1acf11828f)"><g transform="matrix(1, 0, 0, 1, 466, 150)"><g clip-path="url(#6e98e80021)"><g clip-path="url(#26c0bd8c84)"><path fill="#ffc000" d="M 0.964844 0.953125 L 187.609375 0.953125 L 187.609375 68.417969 L 0.964844 68.417969 Z M 0.964844 0.953125 " fill-opacity="1" fill-rule="nonzero"/></g></g></g></g></g><g fill="#808080" fill-opacity="1"><g transform="translate(948.295079, 205.002208)"><g><path d="M 4.484375 0 L 4.484375 -9.828125 L 13.78125 -9.828125 L 13.78125 0 Z M 4.484375 0 "/></g></g><g transform="translate(966.621691, 205.002208)"><g><path d="M 25.609375 -6.828125 C 31.335938 -6.828125 35.320312 -9.707031 37.5625 -15.46875 L 45.84375 -12.34375 C 44.050781 -7.957031 41.429688 -4.695312 37.984375 -2.5625 C 34.546875 -0.425781 30.421875 0.640625 25.609375 0.640625 C 18.304688 0.640625 12.660156 -1.421875 8.671875 -5.546875 C 4.691406 -9.679688 2.703125 -15.46875 2.703125 -22.90625 C 2.703125 -30.351562 4.625 -36.070312 8.46875 -40.0625 C 12.3125 -44.0625 17.882812 -46.0625 25.1875 -46.0625 C 30.507812 -46.0625 34.847656 -44.992188 38.203125 -42.859375 C 41.554688 -40.722656 43.90625 -37.582031 45.25 -33.4375 L 36.875 -31.140625 C 36.164062 -33.421875 34.773438 -35.234375 32.703125 -36.578125 C 30.640625 -37.921875 28.195312 -38.59375 25.375 -38.59375 C 21.082031 -38.59375 17.820312 -37.257812 15.59375 -34.59375 C 13.375 -31.925781 12.265625 -28.03125 12.265625 -22.90625 C 12.265625 -17.6875 13.410156 -13.703125 15.703125 -10.953125 C 17.992188 -8.203125 21.296875 -6.828125 25.609375 -6.828125 Z M 25.609375 -6.828125 "/></g></g><g transform="translate(1014.257998, 205.002208)"><g><path d="M 41.421875 -13.078125 C 41.421875 -8.628906 39.769531 -5.226562 36.46875 -2.875 C 33.175781 -0.53125 28.34375 0.640625 21.96875 0.640625 C 16.144531 0.640625 11.578125 -0.390625 8.265625 -2.453125 C 4.960938 -4.515625 2.84375 -7.640625 1.90625 -11.828125 L 11.078125 -13.328125 C 11.703125 -10.929688 12.914062 -9.1875 14.71875 -8.09375 C 16.519531 -7.007812 19.019531 -6.46875 22.21875 -6.46875 C 28.851562 -6.46875 32.171875 -8.488281 32.171875 -12.53125 C 32.171875 -13.820312 31.789062 -14.882812 31.03125 -15.71875 C 30.269531 -16.550781 29.195312 -17.25 27.8125 -17.8125 C 26.425781 -18.375 23.769531 -19.050781 19.84375 -19.84375 C 16.445312 -20.632812 14.082031 -21.269531 12.75 -21.75 C 11.425781 -22.238281 10.222656 -22.8125 9.140625 -23.46875 C 8.066406 -24.125 7.15625 -24.910156 6.40625 -25.828125 C 5.65625 -26.753906 5.070312 -27.835938 4.65625 -29.078125 C 4.238281 -30.328125 4.03125 -31.757812 4.03125 -33.375 C 4.03125 -37.46875 5.566406 -40.601562 8.640625 -42.78125 C 11.722656 -44.96875 16.207031 -46.0625 22.09375 -46.0625 C 27.71875 -46.0625 31.941406 -45.179688 34.765625 -43.421875 C 37.597656 -41.660156 39.421875 -38.75 40.234375 -34.6875 L 31.015625 -33.4375 C 30.546875 -35.382812 29.585938 -36.851562 28.140625 -37.84375 C 26.691406 -38.832031 24.613281 -39.328125 21.90625 -39.328125 C 16.144531 -39.328125 13.265625 -37.523438 13.265625 -33.921875 C 13.265625 -32.734375 13.570312 -31.765625 14.1875 -31.015625 C 14.800781 -30.265625 15.707031 -29.625 16.90625 -29.09375 C 18.113281 -28.570312 20.550781 -27.914062 24.21875 -27.125 C 28.582031 -26.195312 31.703125 -25.34375 33.578125 -24.5625 C 35.460938 -23.78125 36.953125 -22.867188 38.046875 -21.828125 C 39.140625 -20.785156 39.972656 -19.535156 40.546875 -18.078125 C 41.128906 -16.628906 41.421875 -14.960938 41.421875 -13.078125 Z M 41.421875 -13.078125 "/></g></g><g transform="translate(1058.254749, 205.002208)"><g><path d="M 26.859375 0 L 17.234375 0 L 0.453125 -45.390625 L 10.375 -45.390625 L 19.71875 -16.234375 C 20.289062 -14.347656 21.082031 -11.492188 22.09375 -7.671875 L 22.765625 -10.4375 L 24.421875 -16.234375 L 33.71875 -45.390625 L 43.546875 -45.390625 Z M 26.859375 0 "/></g></g></g><g clip-path="url(#6313696b70)"><path fill="#f2f2f2" d="M 292.425781 175.910156 L 439.34375 175.910156 L 439.34375 193.898438 L 292.425781 193.898438 Z M 292.425781 175.910156 " fill-opacity="1" fill-rule="nonzero"/></g><g clip-path="url(#064b65e157)"><path fill="#f2f2f2" d="M 292.835938 249.523438 L 366.292969 249.523438 L 366.292969 267.515625 L 292.835938 267.515625 Z M 292.835938 249.523438 " fill-opacity="1" fill-rule="nonzero"/></g><g clip-path="url(#814ce09ce8)"><path fill="#f2f2f2" d="M 485.789062 175.910156 L 565.246094 175.910156 L 565.246094 193.898438 L 485.789062 193.898438 Z M 485.789062 175.910156 " fill-opacity="1" fill-rule="nonzero"/></g><g clip-path="url(#f2839c6760)"><path fill="#f2f2f2" d="M 486.199219 249.523438 L 633.117188 249.523438 L 633.117188 267.515625 L 486.199219 267.515625 Z M 486.199219 249.523438 " fill-opacity="1" fill-rule="nonzero"/></g></svg>