<svg xmlns="http://www.w3.org/2000/svg" xmlns:xlink="http://www.w3.org/1999/xlink" width="1779" zoomAndPan="magnify" viewBox="0 0 1334.25 368.999991" height="492" preserveAspectRatio="xMidYMid meet" version="1.0"><defs><filter x="0%" y="0%" width="100%" height="100%" id="d399e36284"><feColorMatrix values="0 0 0 0 1 0 0 0 0 1 0 0 0 0 1 0 0 0 1 0" color-interpolation-filters="sRGB"/></filter><g/><clipPath id="66aa663b86"><path d="M 931.808594 75.597656 L 1118.746094 75.597656 L 1118.746094 293.613281 L 931.808594 293.613281 Z M 931.808594 75.597656 " clip-rule="nonzero"/></clipPath><mask id="a698417932"><g filter="url(#d399e36284)"><rect x="-133.425" width="1601.1" fill="#000000" y="-36.899999" height="442.799989" fill-opacity="0.498"/></g></mask><clipPath id="1aba8da0e8"><path d="M 0.808594 0.597656 L 187.746094 0.597656 L 187.746094 218.613281 L 0.808594 218.613281 Z M 0.808594 0.597656 " clip-rule="nonzero"/></clipPath><clipPath id="74486f2c6f"><rect x="0" width="188" y="0" height="219"/></clipPath><clipPath id="c21c4fb648"><path d="M 75.332031 150.953125 L 262 150.953125 L 262 218.25 L 75.332031 218.25 Z M 75.332031 150.953125 " clip-rule="nonzero"/></clipPath><clipPath id="671feb96b7"><path d="M 271.148438 75.597656 L 458 75.597656 L 458 142.894531 L 271.148438 142.894531 Z M 271.148438 75.597656 " clip-rule="nonzero"/></clipPath><clipPath id="f298fee5c0"><path d="M 75.332031 226.3125 L 262 226.3125 L 262 293.609375 L 75.332031 293.609375 Z M 75.332031 226.3125 " clip-rule="nonzero"/></clipPath><clipPath id="27e4dc1aee"><path d="M 271.148438 226.3125 L 458.085938 226.3125 L 458.085938 293.609375 L 271.148438 293.609375 Z M 271.148438 226.3125 " clip-rule="nonzero"/></clipPath><mask id="194690f394"><g filter="url(#d399e36284)"><rect x="-133.425" width="1601.1" fill="#000000" y="-36.899999" height="442.799989" fill-opacity="0.498"/></g></mask><clipPath id="f1b2221a88"><path d="M 0.148438 0.3125 L 187 0.3125 L 187 67.609375 L 0.148438 67.609375 Z M 0.148438 0.3125 " clip-rule="nonzero"/></clipPath><clipPath id="b0121fcc3a"><rect x="0" width="188" y="0" height="68"/></clipPath><clipPath id="2d9e978367"><path d="M 466.964844 75.597656 L 653.902344 75.597656 L 653.902344 142.894531 L 466.964844 142.894531 Z M 466.964844 75.597656 " clip-rule="nonzero"/></clipPath><clipPath id="95e7e2b51a"><path d="M 466.964844 226.3125 L 653.902344 226.3125 L 653.902344 293.609375 L 466.964844 293.609375 Z M 466.964844 226.3125 " clip-rule="nonzero"/></clipPath><mask id="b9149ff7cf"><g filter="url(#d399e36284)"><rect x="-133.425" width="1601.1" fill="#000000" y="-36.899999" height="442.799989" fill-opacity="0.498"/></g></mask><clipPath id="361e01a27e"><path d="M 0.964844 0.3125 L 187.902344 0.3125 L 187.902344 67.609375 L 0.964844 67.609375 Z M 0.964844 0.3125 " clip-rule="nonzero"/></clipPath><clipPath id="3a36f8ef65"><rect x="0" width="188" y="0" height="68"/></clipPath><clipPath id="a0d107854a"><path d="M 670.652344 150.953125 L 768.847656 150.953125 L 768.847656 213 L 670.652344 213 Z M 670.652344 150.953125 " clip-rule="nonzero"/></clipPath><clipPath id="8aca9d922c"><path d="M 670.652344 166.394531 L 737.523438 166.394531 L 737.523438 150.953125 L 768.40625 181.835938 L 737.523438 212.71875 L 737.523438 197.277344 L 670.652344 197.277344 L 670.652344 166.394531 " clip-rule="nonzero"/></clipPath><mask id="79fbbe2f29"><g filter="url(#d399e36284)"><rect x="-133.425" width="1601.1" fill="#000000" y="-36.899999" height="442.799989" fill-opacity="0.4"/></g></mask><clipPath id="7b6ba4c7ef"><path d="M 0.652344 0.953125 L 98.527344 0.953125 L 98.527344 62.863281 L 0.652344 62.863281 Z M 0.652344 0.953125 " clip-rule="nonzero"/></clipPath><clipPath id="140ad311b3"><path d="M 0.652344 16.394531 L 67.523438 16.394531 L 67.523438 0.953125 L 98.40625 31.835938 L 67.523438 62.71875 L 67.523438 47.277344 L 0.652344 47.277344 L 0.652344 16.394531 " clip-rule="nonzero"/></clipPath><clipPath id="5ea6cdd89f"><rect x="0" width="99" y="0" height="63"/></clipPath><clipPath id="7586f65c50"><path d="M 271.148438 150.953125 L 458.085938 150.953125 L 458.085938 218.25 L 271.148438 218.25 Z M 271.148438 150.953125 " clip-rule="nonzero"/></clipPath><mask id="bcadda4aa6"><g filter="url(#d399e36284)"><rect x="-133.425" width="1601.1" fill="#000000" y="-36.899999" height="442.799989" fill-opacity="0.498"/></g></mask><clipPath id="f25d10d313"><path d="M 0.148438 0.953125 L 187 0.953125 L 187 68.25 L 0.148438 68.25 Z M 0.148438 0.953125 " clip-rule="nonzero"/></clipPath><clipPath id="d86ebac034"><rect x="0" width="188" y="0" height="69"/></clipPath><clipPath id="7e5176449b"><path d="M 466.964844 150.953125 L 653.902344 150.953125 L 653.902344 218.25 L 466.964844 218.25 Z M 466.964844 150.953125 " clip-rule="nonzero"/></clipPath><mask id="41df4ea092"><g filter="url(#d399e36284)"><rect x="-133.425" width="1601.1" fill="#000000" y="-36.899999" height="442.799989" fill-opacity="0.498"/></g></mask><clipPath id="dfd678c371"><path d="M 0.964844 0.953125 L 187.902344 0.953125 L 187.902344 68.25 L 0.964844 68.25 Z M 0.964844 0.953125 " clip-rule="nonzero"/></clipPath><clipPath id="ff25da3827"><rect x="0" width="188" y="0" height="69"/></clipPath><clipPath id="e90468bbcd"><path d="M 1066.273438 75.386719 L 1118.742188 75.386719 L 1118.742188 127.855469 L 1066.273438 127.855469 Z M 1066.273438 75.386719 " clip-rule="nonzero"/></clipPath><clipPath id="acf6b326e6"><path d="M 1118.742188 75.707031 L 1118.742188 127.855469 L 1066.59375 75.707031 L 1118.742188 75.707031 " clip-rule="nonzero"/></clipPath><clipPath id="c3a0221deb"><path d="M 1066.601562 75.238281 L 1119 75.238281 L 1119 127.710938 L 1066.601562 127.710938 Z M 1066.601562 75.238281 " clip-rule="nonzero"/></clipPath><clipPath id="ce93c0bd06"><path d="M 1066.601562 127.386719 L 1066.601562 75.238281 L 1118.75 127.386719 L 1066.601562 127.386719 " clip-rule="nonzero"/></clipPath><clipPath id="be9e00ab11"><path d="M 292.425781 175.910156 L 439.703125 175.910156 L 439.703125 194 L 292.425781 194 Z M 292.425781 175.910156 " clip-rule="nonzero"/></clipPath><clipPath id="f031f3285e"><path d="M 292.835938 249.523438 L 366.0625 249.523438 L 366.0625 267.890625 L 292.835938 267.890625 Z M 292.835938 249.523438 " clip-rule="nonzero"/></clipPath><clipPath id="5f188458c9"><path d="M 485.789062 175.910156 L 565.097656 175.910156 L 565.097656 194 L 485.789062 194 Z M 485.789062 175.910156 " clip-rule="nonzero"/></clipPath><clipPath id="2b38ea28a5"><path d="M 486.199219 249.523438 L 633.074219 249.523438 L 633.074219 267.890625 L 486.199219 267.890625 Z M 486.199219 249.523438 " clip-rule="nonzero"/></clipPath></defs><g clip-path="url(#66aa663b86)"><g mask="url(#a698417932)"><g transform="matrix(1, 0, 0, 1, 931, 75)"><g clip-path="url(#74486f2c6f)"><g clip-path="url(#1aba8da0e8)"><path fill="#03e313" d="M 0.808594 0.597656 L 187.453125 0.597656 L 187.453125 218.722656 L 0.808594 218.722656 Z M 0.808594 0.597656 " fill-opacity="1" fill-rule="nonzero"/></g></g></g></g></g><g clip-path="url(#c21c4fb648)"><path fill="#d9d9d9" d="M 75.332031 150.953125 L 261.976562 150.953125 L 261.976562 218.417969 L 75.332031 218.417969 Z M 75.332031 150.953125 " fill-opacity="1" fill-rule="nonzero"/></g><g clip-path="url(#671feb96b7)"><path fill="#d9d9d9" d="M 271.148438 75.597656 L 457.792969 75.597656 L 457.792969 143.058594 L 271.148438 143.058594 Z M 271.148438 75.597656 " fill-opacity="1" fill-rule="nonzero"/></g><g clip-path="url(#f298fee5c0)"><path fill="#d9d9d9" d="M 75.332031 226.3125 L 261.976562 226.3125 L 261.976562 293.773438 L 75.332031 293.773438 Z M 75.332031 226.3125 " fill-opacity="1" fill-rule="nonzero"/></g><g clip-path="url(#27e4dc1aee)"><g mask="url(#194690f394)"><g transform="matrix(1, 0, 0, 1, 271, 226)"><g clip-path="url(#b0121fcc3a)"><g clip-path="url(#f1b2221a88)"><path fill="#ffc000" d="M 0.148438 0.3125 L 186.792969 0.3125 L 186.792969 67.773438 L 0.148438 67.773438 Z M 0.148438 0.3125 " fill-opacity="1" fill-rule="nonzero"/></g></g></g></g></g><g clip-path="url(#2d9e978367)"><path fill="#d9d9d9" d="M 466.964844 75.597656 L 653.609375 75.597656 L 653.609375 143.058594 L 466.964844 143.058594 Z M 466.964844 75.597656 " fill-opacity="1" fill-rule="nonzero"/></g><g clip-path="url(#95e7e2b51a)"><g mask="url(#b9149ff7cf)"><g transform="matrix(1, 0, 0, 1, 466, 226)"><g clip-path="url(#3a36f8ef65)"><g clip-path="url(#361e01a27e)"><path fill="#ffc000" d="M 0.964844 0.3125 L 187.609375 0.3125 L 187.609375 67.773438 L 0.964844 67.773438 Z M 0.964844 0.3125 " fill-opacity="1" fill-rule="nonzero"/></g></g></g></g></g><g clip-path="url(#a0d107854a)"><g clip-path="url(#8aca9d922c)"><g mask="url(#79fbbe2f29)"><g transform="matrix(1, 0, 0, 1, 670, 150)"><g clip-path="url(#5ea6cdd89f)"><g clip-path="url(#7b6ba4c7ef)"><g clip-path="url(#140ad311b3)"><path fill="#03e313" d="M 0.652344 0.953125 L 98.097656 0.953125 L 98.097656 62.417969 L 0.652344 62.417969 Z M 0.652344 0.953125 " fill-opacity="1" fill-rule="nonzero"/></g></g></g></g></g></g></g><g clip-path="url(#7586f65c50)"><g mask="url(#bcadda4aa6)"><g transform="matrix(1, 0, 0, 1, 271, 150)"><g clip-path="url(#d86ebac034)"><g clip-path="url(#f25d10d313)"><path fill="#ffc000" d="M 0.148438 0.953125 L 186.792969 0.953125 L 186.792969 68.417969 L 0.148438 68.417969 Z M 0.148438 0.953125 " fill-opacity="1" fill-rule="nonzero"/></g></g></g></g></g><g clip-path="url(#7e5176449b)"><g mask="url(#41df4ea092)"><g transform="matrix(1, 0, 0, 1, 466, 150)"><g clip-path="url(#ff25da3827)"><g clip-path="url(#dfd678c371)"><path fill="#ffc000" d="M 0.964844 0.953125 L 187.609375 0.953125 L 187.609375 68.417969 L 0.964844 68.417969 Z M 0.964844 0.953125 " fill-opacity="1" fill-rule="nonzero"/></g></g></g></g></g><g fill="#808080" fill-opacity="1"><g transform="translate(966.648039, 205.002208)"><g><path d="M 27.1875 0 C 27.101562 -0.320312 27 -1.128906 26.875 -2.421875 C 26.757812 -3.722656 26.703125 -4.804688 26.703125 -5.671875 L 26.578125 -5.671875 C 24.617188 -1.460938 20.898438 0.640625 15.421875 0.640625 C 11.367188 0.640625 8.234375 -0.941406 6.015625 -4.109375 C 3.804688 -7.273438 2.703125 -11.703125 2.703125 -17.390625 C 2.703125 -23.171875 3.867188 -27.632812 6.203125 -30.78125 C 8.535156 -33.925781 11.835938 -35.5 16.109375 -35.5 C 18.578125 -35.5 20.707031 -34.984375 22.5 -33.953125 C 24.289062 -32.921875 25.671875 -31.382812 26.640625 -29.34375 L 26.703125 -29.34375 L 26.640625 -35.078125 L 26.640625 -47.796875 L 35.6875 -47.796875 L 35.6875 -7.609375 C 35.6875 -5.453125 35.773438 -2.914062 35.953125 0 Z M 26.765625 -17.625 C 26.765625 -21.375 26.132812 -24.265625 24.875 -26.296875 C 23.625 -28.328125 21.773438 -29.34375 19.328125 -29.34375 C 16.898438 -29.34375 15.09375 -28.359375 13.90625 -26.390625 C 12.726562 -24.429688 12.140625 -21.429688 12.140625 -17.390625 C 12.140625 -9.492188 14.515625 -5.546875 19.265625 -5.546875 C 21.648438 -5.546875 23.492188 -6.59375 24.796875 -8.6875 C 26.109375 -10.78125 26.765625 -13.757812 26.765625 -17.625 Z M 26.765625 -17.625 "/></g></g><g transform="translate(1006.940818, 205.002208)"><g><path d="M 4.609375 -41.140625 L 4.609375 -47.796875 L 13.65625 -47.796875 L 13.65625 -41.140625 Z M 4.609375 0 L 4.609375 -34.859375 L 13.65625 -34.859375 L 13.65625 0 Z M 4.609375 0 "/></g></g><g transform="translate(1025.267429, 205.002208)"><g><path d="M 19.140625 0.640625 C 13.847656 0.640625 9.765625 -0.929688 6.890625 -4.078125 C 4.015625 -7.222656 2.578125 -11.609375 2.578125 -17.234375 C 2.578125 -22.984375 4.023438 -27.460938 6.921875 -30.671875 C 9.828125 -33.890625 13.941406 -35.5 19.265625 -35.5 C 23.367188 -35.5 26.757812 -34.46875 29.4375 -32.40625 C 32.125 -30.34375 33.8125 -27.5 34.5 -23.875 L 25.375 -23.421875 C 25.125 -25.203125 24.484375 -26.625 23.453125 -27.6875 C 22.421875 -28.75 20.957031 -29.28125 19.0625 -29.28125 C 14.40625 -29.28125 12.078125 -25.382812 12.078125 -17.59375 C 12.078125 -9.5625 14.453125 -5.546875 19.203125 -5.546875 C 20.921875 -5.546875 22.359375 -6.085938 23.515625 -7.171875 C 24.671875 -8.253906 25.390625 -9.867188 25.671875 -12.015625 L 34.75 -11.59375 C 34.425781 -9.207031 33.570312 -7.082031 32.1875 -5.21875 C 30.8125 -3.351562 28.992188 -1.910156 26.734375 -0.890625 C 24.484375 0.128906 21.953125 0.640625 19.140625 0.640625 Z M 19.140625 0.640625 "/></g></g><g transform="translate(1061.952861, 205.002208)"><g><path d="M 13.53125 0.578125 C 10.863281 0.578125 8.8125 -0.144531 7.375 -1.59375 C 5.9375 -3.039062 5.21875 -5.238281 5.21875 -8.1875 L 5.21875 -28.734375 L 0.8125 -28.734375 L 0.8125 -34.859375 L 5.671875 -34.859375 L 8.5 -43.03125 L 14.171875 -43.03125 L 14.171875 -34.859375 L 20.78125 -34.859375 L 20.78125 -28.734375 L 14.171875 -28.734375 L 14.171875 -10.625 C 14.171875 -8.925781 14.492188 -7.675781 15.140625 -6.875 C 15.785156 -6.070312 16.785156 -5.671875 18.140625 -5.671875 C 18.847656 -5.671875 19.851562 -5.820312 21.15625 -6.125 L 21.15625 -0.515625 C 18.925781 0.210938 16.382812 0.578125 13.53125 0.578125 Z M 13.53125 0.578125 "/></g></g></g><g clip-path="url(#e90468bbcd)"><g clip-path="url(#acf6b326e6)"><path fill="#ffffff" d="M 1118.742188 127.855469 L 1066.273438 127.855469 L 1066.273438 75.386719 L 1118.742188 75.386719 Z M 1118.742188 127.855469 " fill-opacity="1" fill-rule="nonzero"/></g></g><g clip-path="url(#c3a0221deb)"><g clip-path="url(#ce93c0bd06)"><path fill="#7f7f7f" d="M 1066.601562 75.238281 L 1119.070312 75.238281 L 1119.070312 127.710938 L 1066.601562 127.710938 Z M 1066.601562 75.238281 " fill-opacity="1" fill-rule="nonzero"/></g></g><g clip-path="url(#be9e00ab11)"><path fill="#f2f2f2" d="M 292.425781 175.910156 L 439.34375 175.910156 L 439.34375 193.898438 L 292.425781 193.898438 Z M 292.425781 175.910156 " fill-opacity="1" fill-rule="nonzero"/></g><g clip-path="url(#f031f3285e)"><path fill="#f2f2f2" d="M 292.835938 249.523438 L 366.292969 249.523438 L 366.292969 267.515625 L 292.835938 267.515625 Z M 292.835938 249.523438 " fill-opacity="1" fill-rule="nonzero"/></g><g clip-path="url(#5f188458c9)"><path fill="#f2f2f2" d="M 485.789062 175.910156 L 565.246094 175.910156 L 565.246094 193.898438 L 485.789062 193.898438 Z M 485.789062 175.910156 " fill-opacity="1" fill-rule="nonzero"/></g><g clip-path="url(#2b38ea28a5)"><path fill="#f2f2f2" d="M 486.199219 249.523438 L 633.117188 249.523438 L 633.117188 267.515625 L 486.199219 267.515625 Z M 486.199219 249.523438 " fill-opacity="1" fill-rule="nonzero"/></g></svg>