<svg xmlns="http://www.w3.org/2000/svg" xmlns:xlink="http://www.w3.org/1999/xlink" width="1779" zoomAndPan="magnify" viewBox="0 0 1334.25 368.999991" height="492" preserveAspectRatio="xMidYMid meet" version="1.0"><defs><filter x="0%" y="0%" width="100%" height="100%" id="58f406b70a"><feColorMatrix values="0 0 0 0 1 0 0 0 0 1 0 0 0 0 1 0 0 0 1 0" color-interpolation-filters="sRGB"/></filter><g/><clipPath id="5619f60bba"><path d="M 931.808594 75.597656 L 1118.746094 75.597656 L 1118.746094 293.613281 L 931.808594 293.613281 Z M 931.808594 75.597656 " clip-rule="nonzero"/></clipPath><mask id="83060b9590"><g filter="url(#58f406b70a)"><rect x="-133.425" width="1601.1" fill="#000000" y="-36.899999" height="442.799989" fill-opacity="0.498"/></g></mask><clipPath id="eb03528435"><path d="M 0.808594 0.597656 L 187.746094 0.597656 L 187.746094 218.613281 L 0.808594 218.613281 Z M 0.808594 0.597656 " clip-rule="nonzero"/></clipPath><clipPath id="42a1c9dc69"><rect x="0" width="188" y="0" height="219"/></clipPath><clipPath id="1bd7c8fd7d"><path d="M 75.332031 150.953125 L 262 150.953125 L 262 218.25 L 75.332031 218.25 Z M 75.332031 150.953125 " clip-rule="nonzero"/></clipPath><clipPath id="69296016b2"><path d="M 271.148438 75.597656 L 458 75.597656 L 458 142.894531 L 271.148438 142.894531 Z M 271.148438 75.597656 " clip-rule="nonzero"/></clipPath><clipPath id="52ebcfa92c"><path d="M 75.332031 226.3125 L 262 226.3125 L 262 293.609375 L 75.332031 293.609375 Z M 75.332031 226.3125 " clip-rule="nonzero"/></clipPath><clipPath id="f947e66db0"><path d="M 271.148438 226.3125 L 458.085938 226.3125 L 458.085938 293.609375 L 271.148438 293.609375 Z M 271.148438 226.3125 " clip-rule="nonzero"/></clipPath><mask id="590a746ddf"><g filter="url(#58f406b70a)"><rect x="-133.425" width="1601.1" fill="#000000" y="-36.899999" height="442.799989" fill-opacity="0.498"/></g></mask><clipPath id="269748d8bf"><path d="M 0.148438 0.3125 L 187 0.3125 L 187 67.609375 L 0.148438 67.609375 Z M 0.148438 0.3125 " clip-rule="nonzero"/></clipPath><clipPath id="c76599a36e"><rect x="0" width="188" y="0" height="68"/></clipPath><clipPath id="7d0764eb26"><path d="M 466.964844 75.597656 L 653.902344 75.597656 L 653.902344 142.894531 L 466.964844 142.894531 Z M 466.964844 75.597656 " clip-rule="nonzero"/></clipPath><clipPath id="eb570677cf"><path d="M 466.964844 226.3125 L 653.902344 226.3125 L 653.902344 293.609375 L 466.964844 293.609375 Z M 466.964844 226.3125 " clip-rule="nonzero"/></clipPath><mask id="79ee8a4e08"><g filter="url(#58f406b70a)"><rect x="-133.425" width="1601.1" fill="#000000" y="-36.899999" height="442.799989" fill-opacity="0.498"/></g></mask><clipPath id="2910b00de6"><path d="M 0.964844 0.3125 L 187.902344 0.3125 L 187.902344 67.609375 L 0.964844 67.609375 Z M 0.964844 0.3125 " clip-rule="nonzero"/></clipPath><clipPath id="45444a26a7"><rect x="0" width="188" y="0" height="68"/></clipPath><clipPath id="5645e9d7ed"><path d="M 670.652344 150.953125 L 768.847656 150.953125 L 768.847656 213 L 670.652344 213 Z M 670.652344 150.953125 " clip-rule="nonzero"/></clipPath><clipPath id="26907c0986"><path d="M 670.652344 166.394531 L 737.523438 166.394531 L 737.523438 150.953125 L 768.40625 181.835938 L 737.523438 212.71875 L 737.523438 197.277344 L 670.652344 197.277344 L 670.652344 166.394531 " clip-rule="nonzero"/></clipPath><mask id="7571f8ffec"><g filter="url(#58f406b70a)"><rect x="-133.425" width="1601.1" fill="#000000" y="-36.899999" height="442.799989" fill-opacity="0.4"/></g></mask><clipPath id="ead729f14c"><path d="M 0.652344 0.953125 L 98.527344 0.953125 L 98.527344 62.863281 L 0.652344 62.863281 Z M 0.652344 0.953125 " clip-rule="nonzero"/></clipPath><clipPath id="b80c0a8a52"><path d="M 0.652344 16.394531 L 67.523438 16.394531 L 67.523438 0.953125 L 98.40625 31.835938 L 67.523438 62.71875 L 67.523438 47.277344 L 0.652344 47.277344 L 0.652344 16.394531 " clip-rule="nonzero"/></clipPath><clipPath id="fdfe4381ce"><rect x="0" width="99" y="0" height="63"/></clipPath><clipPath id="31b800f6b3"><path d="M 271.148438 150.953125 L 458.085938 150.953125 L 458.085938 218.25 L 271.148438 218.25 Z M 271.148438 150.953125 " clip-rule="nonzero"/></clipPath><mask id="74a464ec12"><g filter="url(#58f406b70a)"><rect x="-133.425" width="1601.1" fill="#000000" y="-36.899999" height="442.799989" fill-opacity="0.498"/></g></mask><clipPath id="b849d58649"><path d="M 0.148438 0.953125 L 187 0.953125 L 187 68.25 L 0.148438 68.25 Z M 0.148438 0.953125 " clip-rule="nonzero"/></clipPath><clipPath id="e6022c40ea"><rect x="0" width="188" y="0" height="69"/></clipPath><clipPath id="c335e14c97"><path d="M 466.964844 150.953125 L 653.902344 150.953125 L 653.902344 218.25 L 466.964844 218.25 Z M 466.964844 150.953125 " clip-rule="nonzero"/></clipPath><mask id="25194bac78"><g filter="url(#58f406b70a)"><rect x="-133.425" width="1601.1" fill="#000000" y="-36.899999" height="442.799989" fill-opacity="0.498"/></g></mask><clipPath id="b2cda71bee"><path d="M 0.964844 0.953125 L 187.902344 0.953125 L 187.902344 68.25 L 0.964844 68.25 Z M 0.964844 0.953125 " clip-rule="nonzero"/></clipPath><clipPath id="9a6e3689ba"><rect x="0" width="188" y="0" height="69"/></clipPath><clipPath id="997564b5fe"><path d="M 1066.273438 75.386719 L 1118.742188 75.386719 L 1118.742188 127.855469 L 1066.273438 127.855469 Z M 1066.273438 75.386719 " clip-rule="nonzero"/></clipPath><clipPath id="4c70b40ca5"><path d="M 1118.742188 75.707031 L 1118.742188 127.855469 L 1066.59375 75.707031 L 1118.742188 75.707031 " clip-rule="nonzero"/></clipPath><clipPath id="10aac9af5e"><path d="M 1066.601562 75.238281 L 1119 75.238281 L 1119 127.710938 L 1066.601562 127.710938 Z M 1066.601562 75.238281 " clip-rule="nonzero"/></clipPath><clipPath id="b0d81f47cc"><path d="M 1066.601562 127.386719 L 1066.601562 75.238281 L 1118.75 127.386719 L 1066.601562 127.386719 " clip-rule="nonzero"/></clipPath><clipPath id="cf25b7a919"><path d="M 292.425781 175.910156 L 439.703125 175.910156 L 439.703125 194 L 292.425781 194 Z M 292.425781 175.910156 " clip-rule="nonzero"/></clipPath><clipPath id="e9965e24e8"><path d="M 292.835938 249.523438 L 366.0625 249.523438 L 366.0625 267.890625 L 292.835938 267.890625 Z M 292.835938 249.523438 " clip-rule="nonzero"/></clipPath><clipPath id="9db880235f"><path d="M 485.789062 175.910156 L 565.097656 175.910156 L 565.097656 194 L 485.789062 194 Z M 485.789062 175.910156 " clip-rule="nonzero"/></clipPath><clipPath id="b550cba03a"><path d="M 486.199219 249.523438 L 633.074219 249.523438 L 633.074219 267.890625 L 486.199219 267.890625 Z M 486.199219 249.523438 " clip-rule="nonzero"/></clipPath></defs><g clip-path="url(#5619f60bba)"><g mask="url(#83060b9590)"><g transform="matrix(1, 0, 0, 1, 931, 75)"><g clip-path="url(#42a1c9dc69)"><g clip-path="url(#eb03528435)"><path fill="#03e313" d="M 0.808594 0.597656 L 187.453125 0.597656 L 187.453125 218.722656 L 0.808594 218.722656 Z M 0.808594 0.597656 " fill-opacity="1" fill-rule="nonzero"/></g></g></g></g></g><g clip-path="url(#1bd7c8fd7d)"><path fill="#d9d9d9" d="M 75.332031 150.953125 L 261.976562 150.953125 L 261.976562 218.417969 L 75.332031 218.417969 Z M 75.332031 150.953125 " fill-opacity="1" fill-rule="nonzero"/></g><g clip-path="url(#69296016b2)"><path fill="#d9d9d9" d="M 271.148438 75.597656 L 457.792969 75.597656 L 457.792969 143.058594 L 271.148438 143.058594 Z M 271.148438 75.597656 " fill-opacity="1" fill-rule="nonzero"/></g><g clip-path="url(#52ebcfa92c)"><path fill="#d9d9d9" d="M 75.332031 226.3125 L 261.976562 226.3125 L 261.976562 293.773438 L 75.332031 293.773438 Z M 75.332031 226.3125 " fill-opacity="1" fill-rule="nonzero"/></g><g clip-path="url(#f947e66db0)"><g mask="url(#590a746ddf)"><g transform="matrix(1, 0, 0, 1, 271, 226)"><g clip-path="url(#c76599a36e)"><g clip-path="url(#269748d8bf)"><path fill="#ffc000" d="M 0.148438 0.3125 L 186.792969 0.3125 L 186.792969 67.773438 L 0.148438 67.773438 Z M 0.148438 0.3125 " fill-opacity="1" fill-rule="nonzero"/></g></g></g></g></g><g clip-path="url(#7d0764eb26)"><path fill="#d9d9d9" d="M 466.964844 75.597656 L 653.609375 75.597656 L 653.609375 143.058594 L 466.964844 143.058594 Z M 466.964844 75.597656 " fill-opacity="1" fill-rule="nonzero"/></g><g clip-path="url(#eb570677cf)"><g mask="url(#79ee8a4e08)"><g transform="matrix(1, 0, 0, 1, 466, 226)"><g clip-path="url(#45444a26a7)"><g clip-path="url(#2910b00de6)"><path fill="#ffc000" d="M 0.964844 0.3125 L 187.609375 0.3125 L 187.609375 67.773438 L 0.964844 67.773438 Z M 0.964844 0.3125 " fill-opacity="1" fill-rule="nonzero"/></g></g></g></g></g><g clip-path="url(#5645e9d7ed)"><g clip-path="url(#26907c0986)"><g mask="url(#7571f8ffec)"><g transform="matrix(1, 0, 0, 1, 670, 150)"><g clip-path="url(#fdfe4381ce)"><g clip-path="url(#ead729f14c)"><g clip-path="url(#b80c0a8a52)"><path fill="#03e313" d="M 0.652344 0.953125 L 98.097656 0.953125 L 98.097656 62.417969 L 0.652344 62.417969 Z M 0.652344 0.953125 " fill-opacity="1" fill-rule="nonzero"/></g></g></g></g></g></g></g><g clip-path="url(#31b800f6b3)"><g mask="url(#74a464ec12)"><g transform="matrix(1, 0, 0, 1, 271, 150)"><g clip-path="url(#e6022c40ea)"><g clip-path="url(#b849d58649)"><path fill="#ffc000" d="M 0.148438 0.953125 L 186.792969 0.953125 L 186.792969 68.417969 L 0.148438 68.417969 Z M 0.148438 0.953125 " fill-opacity="1" fill-rule="nonzero"/></g></g></g></g></g><g clip-path="url(#c335e14c97)"><g mask="url(#25194bac78)"><g transform="matrix(1, 0, 0, 1, 466, 150)"><g clip-path="url(#9a6e3689ba)"><g clip-path="url(#b2cda71bee)"><path fill="#ffc000" d="M 0.964844 0.953125 L 187.609375 0.953125 L 187.609375 68.417969 L 0.964844 68.417969 Z M 0.964844 0.953125 " fill-opacity="1" fill-rule="nonzero"/></g></g></g></g></g><g fill="#808080" fill-opacity="1"><g transform="translate(948.318503, 205.002208)"><g><path d="M 4.484375 0 L 4.484375 -9.828125 L 13.78125 -9.828125 L 13.78125 0 Z M 4.484375 0 "/></g></g><g transform="translate(966.645115, 205.002208)"><g><path d="M 4.640625 -41.140625 L 4.640625 -47.796875 L 13.6875 -47.796875 L 13.6875 -41.140625 Z M 4.4375 13.6875 C 2.289062 13.6875 0.46875 13.59375 -1.03125 13.40625 L -1.03125 7.015625 L 0.609375 7.15625 C 2.160156 7.15625 3.21875 6.816406 3.78125 6.140625 C 4.351562 5.460938 4.640625 4.0625 4.640625 1.9375 L 4.640625 -34.859375 L 13.6875 -34.859375 L 13.6875 4.125 C 13.6875 7.195312 12.90625 9.554688 11.34375 11.203125 C 9.789062 12.859375 7.488281 13.6875 4.4375 13.6875 Z M 4.4375 13.6875 "/></g></g><g transform="translate(984.971726, 205.002208)"><g><path d="M 33.984375 -10.171875 C 33.984375 -6.804688 32.601562 -4.160156 29.84375 -2.234375 C 27.082031 -0.316406 23.265625 0.640625 18.390625 0.640625 C 13.597656 0.640625 9.929688 -0.113281 7.390625 -1.625 C 4.847656 -3.132812 3.15625 -5.492188 2.3125 -8.703125 L 10.28125 -9.890625 C 10.726562 -8.234375 11.503906 -7.0625 12.609375 -6.375 C 13.710938 -5.6875 15.640625 -5.34375 18.390625 -5.34375 C 20.921875 -5.34375 22.765625 -5.664062 23.921875 -6.3125 C 25.085938 -6.957031 25.671875 -7.96875 25.671875 -9.34375 C 25.671875 -10.457031 25.203125 -11.34375 24.265625 -12 C 23.335938 -12.65625 21.753906 -13.207031 19.515625 -13.65625 C 14.410156 -14.664062 10.960938 -15.601562 9.171875 -16.46875 C 7.390625 -17.34375 6.03125 -18.472656 5.09375 -19.859375 C 4.164062 -21.242188 3.703125 -22.945312 3.703125 -24.96875 C 3.703125 -28.289062 4.984375 -30.878906 7.546875 -32.734375 C 10.117188 -34.597656 13.753906 -35.53125 18.453125 -35.53125 C 22.597656 -35.53125 25.929688 -34.722656 28.453125 -33.109375 C 30.984375 -31.503906 32.554688 -29.175781 33.171875 -26.125 L 25.15625 -25.28125 C 24.894531 -26.695312 24.257812 -27.753906 23.25 -28.453125 C 22.25 -29.148438 20.648438 -29.5 18.453125 -29.5 C 16.304688 -29.5 14.695312 -29.222656 13.625 -28.671875 C 12.550781 -28.128906 12.015625 -27.21875 12.015625 -25.9375 C 12.015625 -24.925781 12.425781 -24.125 13.25 -23.53125 C 14.082031 -22.9375 15.472656 -22.445312 17.421875 -22.0625 C 20.148438 -21.507812 22.570312 -20.9375 24.6875 -20.34375 C 26.800781 -19.75 28.5 -19.039062 29.78125 -18.21875 C 31.0625 -17.40625 32.082031 -16.359375 32.84375 -15.078125 C 33.601562 -13.804688 33.984375 -12.171875 33.984375 -10.171875 Z M 33.984375 -10.171875 "/></g></g><g transform="translate(1021.657158, 205.002208)"><g><path d="M 37.71875 -17.453125 C 37.71875 -11.804688 36.148438 -7.378906 33.015625 -4.171875 C 29.878906 -0.960938 25.539062 0.640625 20 0.640625 C 14.570312 0.640625 10.3125 -0.96875 7.21875 -4.1875 C 4.125 -7.40625 2.578125 -11.828125 2.578125 -17.453125 C 2.578125 -23.054688 4.125 -27.460938 7.21875 -30.671875 C 10.3125 -33.890625 14.640625 -35.5 20.203125 -35.5 C 25.890625 -35.5 30.226562 -33.945312 33.21875 -30.84375 C 36.21875 -27.738281 37.71875 -23.273438 37.71875 -17.453125 Z M 28.25 -17.453125 C 28.25 -21.597656 27.570312 -24.601562 26.21875 -26.46875 C 24.863281 -28.34375 22.898438 -29.28125 20.328125 -29.28125 C 14.828125 -29.28125 12.078125 -25.335938 12.078125 -17.453125 C 12.078125 -13.566406 12.75 -10.609375 14.09375 -8.578125 C 15.4375 -6.554688 17.375 -5.546875 19.90625 -5.546875 C 25.46875 -5.546875 28.25 -9.515625 28.25 -17.453125 Z M 28.25 -17.453125 "/></g></g><g transform="translate(1061.949937, 205.002208)"><g><path d="M 27.1875 0 L 27.1875 -19.546875 C 27.1875 -25.671875 25.113281 -28.734375 20.96875 -28.734375 C 18.78125 -28.734375 17.015625 -27.789062 15.671875 -25.90625 C 14.328125 -24.03125 13.65625 -21.625 13.65625 -18.6875 L 13.65625 0 L 4.609375 0 L 4.609375 -27.0625 C 4.609375 -28.925781 4.578125 -30.453125 4.515625 -31.640625 C 4.460938 -32.835938 4.40625 -33.910156 4.34375 -34.859375 L 12.984375 -34.859375 C 13.046875 -34.441406 13.128906 -33.347656 13.234375 -31.578125 C 13.347656 -29.804688 13.40625 -28.585938 13.40625 -27.921875 L 13.53125 -27.921875 C 14.75 -30.585938 16.28125 -32.519531 18.125 -33.71875 C 19.976562 -34.925781 22.179688 -35.53125 24.734375 -35.53125 C 28.429688 -35.53125 31.265625 -34.390625 33.234375 -32.109375 C 35.210938 -29.835938 36.203125 -26.507812 36.203125 -22.125 L 36.203125 0 Z M 27.1875 0 "/></g></g></g><g clip-path="url(#997564b5fe)"><g clip-path="url(#4c70b40ca5)"><path fill="#ffffff" d="M 1118.742188 127.855469 L 1066.273438 127.855469 L 1066.273438 75.386719 L 1118.742188 75.386719 Z M 1118.742188 127.855469 " fill-opacity="1" fill-rule="nonzero"/></g></g><g clip-path="url(#10aac9af5e)"><g clip-path="url(#b0d81f47cc)"><path fill="#7f7f7f" d="M 1066.601562 75.238281 L 1119.070312 75.238281 L 1119.070312 127.710938 L 1066.601562 127.710938 Z M 1066.601562 75.238281 " fill-opacity="1" fill-rule="nonzero"/></g></g><g clip-path="url(#cf25b7a919)"><path fill="#f2f2f2" d="M 292.425781 175.910156 L 439.34375 175.910156 L 439.34375 193.898438 L 292.425781 193.898438 Z M 292.425781 175.910156 " fill-opacity="1" fill-rule="nonzero"/></g><g clip-path="url(#e9965e24e8)"><path fill="#f2f2f2" d="M 292.835938 249.523438 L 366.292969 249.523438 L 366.292969 267.515625 L 292.835938 267.515625 Z M 292.835938 249.523438 " fill-opacity="1" fill-rule="nonzero"/></g><g clip-path="url(#9db880235f)"><path fill="#f2f2f2" d="M 485.789062 175.910156 L 565.246094 175.910156 L 565.246094 193.898438 L 485.789062 193.898438 Z M 485.789062 175.910156 " fill-opacity="1" fill-rule="nonzero"/></g><g clip-path="url(#b550cba03a)"><path fill="#f2f2f2" d="M 486.199219 249.523438 L 633.117188 249.523438 L 633.117188 267.515625 L 486.199219 267.515625 Z M 486.199219 249.523438 " fill-opacity="1" fill-rule="nonzero"/></g></svg>