<svg xmlns="http://www.w3.org/2000/svg" xmlns:xlink="http://www.w3.org/1999/xlink" width="861" zoomAndPan="magnify" viewBox="0 0 645.75 484.499986" height="646" preserveAspectRatio="xMidYMid meet" version="1.0"><defs><filter x="0%" y="0%" width="100%" height="100%" id="ca30667f37"><feColorMatrix values="0 0 0 0 1 0 0 0 0 1 0 0 0 0 1 0 0 0 1 0" color-interpolation-filters="sRGB"/></filter><clipPath id="45cf10534b"><path d="M 99.363281 92.402344 L 214.257812 92.402344 L 214.257812 133.761719 L 99.363281 133.761719 Z M 99.363281 92.402344 " clip-rule="nonzero"/></clipPath><clipPath id="177e3a909f"><path d="M 218.507812 92.402344 L 324.75 92.402344 L 324.75 133.761719 L 218.507812 133.761719 Z M 218.507812 92.402344 " clip-rule="nonzero"/></clipPath><mask id="af646f27c9"><g filter="url(#ca30667f37)"><rect x="-64.575" width="774.9" fill="#000000" y="-48.449999" height="581.399983" fill-opacity="0.498"/></g></mask><clipPath id="ea4769689e"><path d="M 0.507812 0.402344 L 106.75 0.402344 L 106.75 41.761719 L 0.507812 41.761719 Z M 0.507812 0.402344 " clip-rule="nonzero"/></clipPath><clipPath id="dd6815a7bf"><rect x="0" width="107" y="0" height="42"/></clipPath><clipPath id="4f8ec5f183"><path d="M 108.015625 138.34375 L 214.257812 138.34375 L 214.257812 176.59375 L 108.015625 176.59375 Z M 108.015625 138.34375 " clip-rule="nonzero"/></clipPath><mask id="14b0ffd430"><g filter="url(#ca30667f37)"><rect x="-64.575" width="774.9" fill="#000000" y="-48.449999" height="581.399983" fill-opacity="0.498"/></g></mask><clipPath id="88ad3049d9"><path d="M 0.015625 0.34375 L 106.257812 0.34375 L 106.257812 38.59375 L 0.015625 38.59375 Z M 0.015625 0.34375 " clip-rule="nonzero"/></clipPath><clipPath id="0e8b53877d"><rect x="0" width="107" y="0" height="39"/></clipPath><clipPath id="efd4fe5792"><path d="M 218.507812 138.34375 L 324.75 138.34375 L 324.75 176.59375 L 218.507812 176.59375 Z M 218.507812 138.34375 " clip-rule="nonzero"/></clipPath><clipPath id="9ee7c99dc4"><path d="M 329 92.402344 L 435.242188 92.402344 L 435.242188 133.761719 L 329 133.761719 Z M 329 92.402344 " clip-rule="nonzero"/></clipPath><mask id="04f7bce13b"><g filter="url(#ca30667f37)"><rect x="-64.575" width="774.9" fill="#000000" y="-48.449999" height="581.399983" fill-opacity="0.498"/></g></mask><clipPath id="bcd6ceb4b7"><path d="M 0 0.402344 L 106.242188 0.402344 L 106.242188 41.761719 L 0 41.761719 Z M 0 0.402344 " clip-rule="nonzero"/></clipPath><clipPath id="aaf4148240"><rect x="0" width="107" y="0" height="42"/></clipPath><clipPath id="2db6143e28"><path d="M 439.492188 92.402344 L 554.382812 92.402344 L 554.382812 133.761719 L 439.492188 133.761719 Z M 439.492188 92.402344 " clip-rule="nonzero"/></clipPath><mask id="bcbd3a0d9b"><g filter="url(#ca30667f37)"><rect x="-64.575" width="774.9" fill="#000000" y="-48.449999" height="581.399983" fill-opacity="0.498"/></g></mask><clipPath id="ca8ed57364"><path d="M 0.492188 0.402344 L 115.382812 0.402344 L 115.382812 41.761719 L 0.492188 41.761719 Z M 0.492188 0.402344 " clip-rule="nonzero"/></clipPath><clipPath id="e45c3457b2"><rect x="0" width="116" y="0" height="42"/></clipPath><clipPath id="adae5ba78d"><path d="M 329 138.34375 L 435.242188 138.34375 L 435.242188 176.59375 L 329 176.59375 Z M 329 138.34375 " clip-rule="nonzero"/></clipPath><clipPath id="1ea1d9eb57"><path d="M 439.492188 138.34375 L 545.734375 138.34375 L 545.734375 176.59375 L 439.492188 176.59375 Z M 439.492188 138.34375 " clip-rule="nonzero"/></clipPath><clipPath id="8f6fc29219"><path d="M 108.015625 181.171875 L 214.257812 181.171875 L 214.257812 219.417969 L 108.015625 219.417969 Z M 108.015625 181.171875 " clip-rule="nonzero"/></clipPath><mask id="d5101d5fba"><g filter="url(#ca30667f37)"><rect x="-64.575" width="774.9" fill="#000000" y="-48.449999" height="581.399983" fill-opacity="0.498"/></g></mask><clipPath id="59556771b8"><path d="M 0.015625 0.171875 L 106.257812 0.171875 L 106.257812 38.417969 L 0.015625 38.417969 Z M 0.015625 0.171875 " clip-rule="nonzero"/></clipPath><clipPath id="d87922e315"><rect x="0" width="107" y="0" height="39"/></clipPath><clipPath id="7d56583026"><path d="M 218.507812 181.171875 L 324.75 181.171875 L 324.75 219.417969 L 218.507812 219.417969 Z M 218.507812 181.171875 " clip-rule="nonzero"/></clipPath><clipPath id="e549a7ddc6"><path d="M 108.015625 224 L 214.257812 224 L 214.257812 262.246094 L 108.015625 262.246094 Z M 108.015625 224 " clip-rule="nonzero"/></clipPath><mask id="3afcef8996"><g filter="url(#ca30667f37)"><rect x="-64.575" width="774.9" fill="#000000" y="-48.449999" height="581.399983" fill-opacity="0.498"/></g></mask><clipPath id="86ffd97951"><path d="M 0.015625 0 L 106.257812 0 L 106.257812 38.246094 L 0.015625 38.246094 Z M 0.015625 0 " clip-rule="nonzero"/></clipPath><clipPath id="c67faab119"><rect x="0" width="107" y="0" height="39"/></clipPath><clipPath id="ccf9dcf981"><path d="M 218.507812 224 L 324.75 224 L 324.75 262.246094 L 218.507812 262.246094 Z M 218.507812 224 " clip-rule="nonzero"/></clipPath><clipPath id="8e633090c8"><path d="M 329 181.171875 L 435.242188 181.171875 L 435.242188 219.417969 L 329 219.417969 Z M 329 181.171875 " clip-rule="nonzero"/></clipPath><clipPath id="6035c6d54c"><path d="M 439.492188 181.171875 L 545.734375 181.171875 L 545.734375 219.417969 L 439.492188 219.417969 Z M 439.492188 181.171875 " clip-rule="nonzero"/></clipPath><clipPath id="f90ecda24c"><path d="M 329 224 L 435.242188 224 L 435.242188 262.246094 L 329 262.246094 Z M 329 224 " clip-rule="nonzero"/></clipPath><clipPath id="2b5b3c49ec"><path d="M 439.492188 224 L 545.734375 224 L 545.734375 262.246094 L 439.492188 262.246094 Z M 439.492188 224 " clip-rule="nonzero"/></clipPath><clipPath id="1cc8c93f2d"><path d="M 108.015625 266.828125 L 214.257812 266.828125 L 214.257812 305.074219 L 108.015625 305.074219 Z M 108.015625 266.828125 " clip-rule="nonzero"/></clipPath><mask id="9aecced36c"><g filter="url(#ca30667f37)"><rect x="-64.575" width="774.9" fill="#000000" y="-48.449999" height="581.399983" fill-opacity="0.498"/></g></mask><clipPath id="9e49480bbd"><path d="M 0.015625 0.828125 L 106.257812 0.828125 L 106.257812 39.074219 L 0.015625 39.074219 Z M 0.015625 0.828125 " clip-rule="nonzero"/></clipPath><clipPath id="30066a0800"><rect x="0" width="107" y="0" height="40"/></clipPath><clipPath id="0553601e99"><path d="M 218.507812 266.828125 L 324.75 266.828125 L 324.75 305.074219 L 218.507812 305.074219 Z M 218.507812 266.828125 " clip-rule="nonzero"/></clipPath><clipPath id="bb54a945ca"><path d="M 329 266.828125 L 435.242188 266.828125 L 435.242188 305.074219 L 329 305.074219 Z M 329 266.828125 " clip-rule="nonzero"/></clipPath><clipPath id="57d1bbd7fc"><path d="M 439.492188 266.828125 L 545.734375 266.828125 L 545.734375 305.074219 L 439.492188 305.074219 Z M 439.492188 266.828125 " clip-rule="nonzero"/></clipPath><clipPath id="c0a40d0082"><path d="M 108.015625 309.652344 L 214.257812 309.652344 L 214.257812 347.902344 L 108.015625 347.902344 Z M 108.015625 309.652344 " clip-rule="nonzero"/></clipPath><mask id="2b0605520c"><g filter="url(#ca30667f37)"><rect x="-64.575" width="774.9" fill="#000000" y="-48.449999" height="581.399983" fill-opacity="0.498"/></g></mask><clipPath id="bf8c90136c"><path d="M 0.015625 0.652344 L 106.257812 0.652344 L 106.257812 38.902344 L 0.015625 38.902344 Z M 0.015625 0.652344 " clip-rule="nonzero"/></clipPath><clipPath id="6b29fd45b2"><rect x="0" width="107" y="0" height="39"/></clipPath><clipPath id="c543d1f938"><path d="M 218.507812 309.652344 L 324.75 309.652344 L 324.75 347.902344 L 218.507812 347.902344 Z M 218.507812 309.652344 " clip-rule="nonzero"/></clipPath><clipPath id="1d6a6579c8"><path d="M 329 309.652344 L 435.242188 309.652344 L 435.242188 347.902344 L 329 347.902344 Z M 329 309.652344 " clip-rule="nonzero"/></clipPath><clipPath id="ca130227a9"><path d="M 439.492188 309.652344 L 545.734375 309.652344 L 545.734375 347.902344 L 439.492188 347.902344 Z M 439.492188 309.652344 " clip-rule="nonzero"/></clipPath><clipPath id="f011c4a949"><path d="M 108.015625 352.480469 L 214.257812 352.480469 L 214.257812 390.730469 L 108.015625 390.730469 Z M 108.015625 352.480469 " clip-rule="nonzero"/></clipPath><mask id="80b88c502b"><g filter="url(#ca30667f37)"><rect x="-64.575" width="774.9" fill="#000000" y="-48.449999" height="581.399983" fill-opacity="0.498"/></g></mask><clipPath id="b1849e5400"><path d="M 0.015625 0.480469 L 106.257812 0.480469 L 106.257812 38.730469 L 0.015625 38.730469 Z M 0.015625 0.480469 " clip-rule="nonzero"/></clipPath><clipPath id="af9c7d54d0"><rect x="0" width="107" y="0" height="39"/></clipPath><clipPath id="42f672dc81"><path d="M 218.507812 352.480469 L 324.75 352.480469 L 324.75 390.730469 L 218.507812 390.730469 Z M 218.507812 352.480469 " clip-rule="nonzero"/></clipPath><clipPath id="16577f39f3"><path d="M 329 352.480469 L 435.242188 352.480469 L 435.242188 390.730469 L 329 390.730469 Z M 329 352.480469 " clip-rule="nonzero"/></clipPath><clipPath id="63b83f9f07"><path d="M 439.492188 352.480469 L 545.734375 352.480469 L 545.734375 390.730469 L 439.492188 390.730469 Z M 439.492188 352.480469 " clip-rule="nonzero"/></clipPath><clipPath id="6c9bd48928"><path d="M 297 202 L 371 202 L 371 296 L 297 296 Z M 297 202 " clip-rule="nonzero"/></clipPath><clipPath id="1ebd4e5f08"><path d="M 285.789062 283.59375 L 346.523438 190.769531 L 382.902344 214.570312 L 322.164062 307.394531 Z M 285.789062 283.59375 " clip-rule="nonzero"/></clipPath><clipPath id="32d7e9b2d2"><path d="M 303.707031 295.316406 L 297.511719 265.671875 L 306.476562 271.539062 L 343.523438 214.914062 L 334.5625 209.050781 L 364.203125 202.855469 L 370.398438 232.5 L 361.4375 226.636719 L 324.386719 283.257812 L 333.351562 289.121094 L 303.707031 295.316406 " clip-rule="nonzero"/></clipPath></defs><g clip-path="url(#45cf10534b)"><path fill="#d9d9d9" d="M 99.363281 92.402344 L 214.039062 92.402344 L 214.039062 133.625 L 99.363281 133.625 Z M 99.363281 92.402344 " fill-opacity="1" fill-rule="nonzero"/></g><g clip-path="url(#177e3a909f)"><g mask="url(#af646f27c9)"><g transform="matrix(1, 0, 0, 1, 218, 92)"><g clip-path="url(#dd6815a7bf)"><g clip-path="url(#ea4769689e)"><path fill="#7030a0" d="M 0.507812 0.402344 L 106.9375 0.402344 L 106.9375 41.625 L 0.507812 41.625 Z M 0.507812 0.402344 " fill-opacity="1" fill-rule="nonzero"/></g></g></g></g></g><g clip-path="url(#4f8ec5f183)"><g mask="url(#14b0ffd430)"><g transform="matrix(1, 0, 0, 1, 108, 138)"><g clip-path="url(#0e8b53877d)"><g clip-path="url(#88ad3049d9)"><path fill="#03e313" d="M 0.015625 0.34375 L 106.445312 0.34375 L 106.445312 38.570312 L 0.015625 38.570312 Z M 0.015625 0.34375 " fill-opacity="1" fill-rule="nonzero"/></g></g></g></g></g><g clip-path="url(#efd4fe5792)"><path fill="#f2f2f2" d="M 218.507812 138.34375 L 324.9375 138.34375 L 324.9375 176.570312 L 218.507812 176.570312 Z M 218.507812 138.34375 " fill-opacity="1" fill-rule="nonzero"/></g><g clip-path="url(#9ee7c99dc4)"><g mask="url(#04f7bce13b)"><g transform="matrix(1, 0, 0, 1, 329, 92)"><g clip-path="url(#aaf4148240)"><g clip-path="url(#bcd6ceb4b7)"><path fill="#7030a0" d="M 0 0.402344 L 106.429688 0.402344 L 106.429688 41.625 L 0 41.625 Z M 0 0.402344 " fill-opacity="1" fill-rule="nonzero"/></g></g></g></g></g><g clip-path="url(#2db6143e28)"><g mask="url(#bcbd3a0d9b)"><g transform="matrix(1, 0, 0, 1, 439, 92)"><g clip-path="url(#e45c3457b2)"><g clip-path="url(#ca8ed57364)"><path fill="#7030a0" d="M 0.492188 0.402344 L 115.167969 0.402344 L 115.167969 41.625 L 0.492188 41.625 Z M 0.492188 0.402344 " fill-opacity="1" fill-rule="nonzero"/></g></g></g></g></g><g clip-path="url(#adae5ba78d)"><path fill="#f2f2f2" d="M 329 138.34375 L 435.429688 138.34375 L 435.429688 176.570312 L 329 176.570312 Z M 329 138.34375 " fill-opacity="1" fill-rule="nonzero"/></g><g clip-path="url(#1ea1d9eb57)"><path fill="#f2f2f2" d="M 439.492188 138.34375 L 545.921875 138.34375 L 545.921875 176.570312 L 439.492188 176.570312 Z M 439.492188 138.34375 " fill-opacity="1" fill-rule="nonzero"/></g><g clip-path="url(#8f6fc29219)"><g mask="url(#d5101d5fba)"><g transform="matrix(1, 0, 0, 1, 108, 181)"><g clip-path="url(#d87922e315)"><g clip-path="url(#59556771b8)"><path fill="#03e313" d="M 0.015625 0.171875 L 106.445312 0.171875 L 106.445312 38.398438 L 0.015625 38.398438 Z M 0.015625 0.171875 " fill-opacity="1" fill-rule="nonzero"/></g></g></g></g></g><g clip-path="url(#7d56583026)"><path fill="#f2f2f2" d="M 218.507812 181.171875 L 324.9375 181.171875 L 324.9375 219.398438 L 218.507812 219.398438 Z M 218.507812 181.171875 " fill-opacity="1" fill-rule="nonzero"/></g><g clip-path="url(#e549a7ddc6)"><g mask="url(#3afcef8996)"><g transform="matrix(1, 0, 0, 1, 108, 224)"><g clip-path="url(#c67faab119)"><g clip-path="url(#86ffd97951)"><path fill="#03e313" d="M 0.015625 0 L 106.445312 0 L 106.445312 38.222656 L 0.015625 38.222656 Z M 0.015625 0 " fill-opacity="1" fill-rule="nonzero"/></g></g></g></g></g><g clip-path="url(#ccf9dcf981)"><path fill="#f2f2f2" d="M 218.507812 224 L 324.9375 224 L 324.9375 262.222656 L 218.507812 262.222656 Z M 218.507812 224 " fill-opacity="1" fill-rule="nonzero"/></g><g clip-path="url(#8e633090c8)"><path fill="#f2f2f2" d="M 329 181.171875 L 435.429688 181.171875 L 435.429688 219.398438 L 329 219.398438 Z M 329 181.171875 " fill-opacity="1" fill-rule="nonzero"/></g><g clip-path="url(#6035c6d54c)"><path fill="#f2f2f2" d="M 439.492188 181.171875 L 545.921875 181.171875 L 545.921875 219.398438 L 439.492188 219.398438 Z M 439.492188 181.171875 " fill-opacity="1" fill-rule="nonzero"/></g><g clip-path="url(#f90ecda24c)"><path fill="#f2f2f2" d="M 329 224 L 435.429688 224 L 435.429688 262.222656 L 329 262.222656 Z M 329 224 " fill-opacity="1" fill-rule="nonzero"/></g><g clip-path="url(#2b5b3c49ec)"><path fill="#f2f2f2" d="M 439.492188 224 L 545.921875 224 L 545.921875 262.222656 L 439.492188 262.222656 Z M 439.492188 224 " fill-opacity="1" fill-rule="nonzero"/></g><g clip-path="url(#1cc8c93f2d)"><g mask="url(#9aecced36c)"><g transform="matrix(1, 0, 0, 1, 108, 266)"><g clip-path="url(#30066a0800)"><g clip-path="url(#9e49480bbd)"><path fill="#03e313" d="M 0.015625 0.828125 L 106.445312 0.828125 L 106.445312 39.050781 L 0.015625 39.050781 Z M 0.015625 0.828125 " fill-opacity="1" fill-rule="nonzero"/></g></g></g></g></g><g clip-path="url(#0553601e99)"><path fill="#f2f2f2" d="M 218.507812 266.828125 L 324.9375 266.828125 L 324.9375 305.050781 L 218.507812 305.050781 Z M 218.507812 266.828125 " fill-opacity="1" fill-rule="nonzero"/></g><g clip-path="url(#bb54a945ca)"><path fill="#f2f2f2" d="M 329 266.828125 L 435.429688 266.828125 L 435.429688 305.050781 L 329 305.050781 Z M 329 266.828125 " fill-opacity="1" fill-rule="nonzero"/></g><g clip-path="url(#57d1bbd7fc)"><path fill="#f2f2f2" d="M 439.492188 266.828125 L 545.921875 266.828125 L 545.921875 305.050781 L 439.492188 305.050781 Z M 439.492188 266.828125 " fill-opacity="1" fill-rule="nonzero"/></g><g clip-path="url(#c0a40d0082)"><g mask="url(#2b0605520c)"><g transform="matrix(1, 0, 0, 1, 108, 309)"><g clip-path="url(#6b29fd45b2)"><g clip-path="url(#bf8c90136c)"><path fill="#03e313" d="M 0.015625 0.652344 L 106.445312 0.652344 L 106.445312 38.878906 L 0.015625 38.878906 Z M 0.015625 0.652344 " fill-opacity="1" fill-rule="nonzero"/></g></g></g></g></g><g clip-path="url(#c543d1f938)"><path fill="#f2f2f2" d="M 218.507812 309.652344 L 324.9375 309.652344 L 324.9375 347.878906 L 218.507812 347.878906 Z M 218.507812 309.652344 " fill-opacity="1" fill-rule="nonzero"/></g><g clip-path="url(#1d6a6579c8)"><path fill="#f2f2f2" d="M 329 309.652344 L 435.429688 309.652344 L 435.429688 347.878906 L 329 347.878906 Z M 329 309.652344 " fill-opacity="1" fill-rule="nonzero"/></g><g clip-path="url(#ca130227a9)"><path fill="#f2f2f2" d="M 439.492188 309.652344 L 545.921875 309.652344 L 545.921875 347.878906 L 439.492188 347.878906 Z M 439.492188 309.652344 " fill-opacity="1" fill-rule="nonzero"/></g><g clip-path="url(#f011c4a949)"><g mask="url(#80b88c502b)"><g transform="matrix(1, 0, 0, 1, 108, 352)"><g clip-path="url(#af9c7d54d0)"><g clip-path="url(#b1849e5400)"><path fill="#03e313" d="M 0.015625 0.480469 L 106.445312 0.480469 L 106.445312 38.707031 L 0.015625 38.707031 Z M 0.015625 0.480469 " fill-opacity="1" fill-rule="nonzero"/></g></g></g></g></g><g clip-path="url(#42f672dc81)"><path fill="#f2f2f2" d="M 218.507812 352.480469 L 324.9375 352.480469 L 324.9375 390.707031 L 218.507812 390.707031 Z M 218.507812 352.480469 " fill-opacity="1" fill-rule="nonzero"/></g><g clip-path="url(#16577f39f3)"><path fill="#f2f2f2" d="M 329 352.480469 L 435.429688 352.480469 L 435.429688 390.707031 L 329 390.707031 Z M 329 352.480469 " fill-opacity="1" fill-rule="nonzero"/></g><g clip-path="url(#63b83f9f07)"><path fill="#f2f2f2" d="M 439.492188 352.480469 L 545.921875 352.480469 L 545.921875 390.707031 L 439.492188 390.707031 Z M 439.492188 352.480469 " fill-opacity="1" fill-rule="nonzero"/></g><path fill="#ffc000" d="M 77.578125 75.917969 L 79.441406 77.171875 C 79.566406 77.257812 79.667969 77.359375 79.75 77.484375 C 79.835938 77.609375 79.890625 77.742188 79.917969 77.890625 C 79.945312 78.035156 79.945312 78.183594 79.917969 78.328125 C 79.886719 78.476562 79.832031 78.609375 79.75 78.734375 C 79.664062 78.859375 79.5625 78.960938 79.4375 79.042969 C 79.3125 79.125 79.175781 79.179688 79.03125 79.210938 C 78.886719 79.238281 78.738281 79.238281 78.59375 79.207031 C 78.445312 79.179688 78.3125 79.121094 78.1875 79.039062 L 76.320312 77.785156 C 76.199219 77.703125 76.09375 77.597656 76.011719 77.472656 C 75.929688 77.347656 75.875 77.214844 75.847656 77.066406 C 75.816406 76.921875 75.816406 76.773438 75.847656 76.628906 C 75.878906 76.484375 75.933594 76.347656 76.015625 76.222656 C 76.101562 76.101562 76.203125 75.996094 76.328125 75.914062 C 76.453125 75.832031 76.585938 75.777344 76.734375 75.75 C 76.878906 75.71875 77.027344 75.71875 77.171875 75.75 C 77.316406 75.777344 77.453125 75.835938 77.578125 75.917969 Z M 85.039062 80.9375 L 86.90625 82.191406 C 87.03125 82.277344 87.132812 82.378906 87.214844 82.503906 C 87.296875 82.628906 87.351562 82.761719 87.382812 82.910156 C 87.410156 83.054688 87.410156 83.203125 87.378906 83.347656 C 87.351562 83.496094 87.292969 83.628906 87.210938 83.753906 C 87.128906 83.878906 87.023438 83.980469 86.898438 84.0625 C 86.777344 84.144531 86.640625 84.199219 86.496094 84.230469 C 86.347656 84.257812 86.203125 84.257812 86.054688 84.226562 C 85.910156 84.199219 85.773438 84.140625 85.652344 84.058594 L 83.785156 82.804688 C 83.660156 82.722656 83.558594 82.617188 83.476562 82.492188 C 83.394531 82.367188 83.335938 82.234375 83.308594 82.085938 C 83.28125 81.941406 83.28125 81.792969 83.308594 81.648438 C 83.339844 81.503906 83.394531 81.367188 83.480469 81.242188 C 83.5625 81.121094 83.667969 81.015625 83.789062 80.933594 C 83.914062 80.851562 84.050781 80.796875 84.195312 80.769531 C 84.34375 80.738281 84.488281 80.738281 84.636719 80.769531 C 84.78125 80.796875 84.917969 80.855469 85.039062 80.9375 Z M 92.503906 85.957031 L 94.367188 87.210938 C 94.492188 87.296875 94.59375 87.398438 94.679688 87.523438 C 94.761719 87.648438 94.816406 87.78125 94.84375 87.929688 C 94.875 88.074219 94.871094 88.222656 94.84375 88.367188 C 94.8125 88.515625 94.757812 88.648438 94.675781 88.773438 C 94.589844 88.898438 94.488281 89 94.363281 89.082031 C 94.238281 89.164062 94.105469 89.21875 93.957031 89.25 C 93.8125 89.277344 93.664062 89.277344 93.519531 89.246094 C 93.371094 89.21875 93.238281 89.160156 93.113281 89.078125 L 91.25 87.824219 C 91.125 87.742188 91.019531 87.636719 90.9375 87.511719 C 90.855469 87.386719 90.800781 87.253906 90.773438 87.105469 C 90.742188 86.960938 90.742188 86.8125 90.773438 86.667969 C 90.804688 86.523438 90.859375 86.386719 90.941406 86.261719 C 91.027344 86.140625 91.128906 86.035156 91.253906 85.953125 C 91.378906 85.871094 91.511719 85.816406 91.660156 85.789062 C 91.804688 85.757812 91.953125 85.757812 92.097656 85.789062 C 92.246094 85.816406 92.378906 85.875 92.503906 85.957031 Z M 99.964844 90.976562 L 101.832031 92.230469 C 101.957031 92.316406 102.058594 92.417969 102.140625 92.542969 C 102.222656 92.667969 102.277344 92.800781 102.308594 92.949219 C 102.335938 93.09375 102.335938 93.242188 102.304688 93.386719 C 102.277344 93.535156 102.21875 93.667969 102.136719 93.792969 C 102.054688 93.917969 101.949219 94.019531 101.824219 94.101562 C 101.703125 94.183594 101.566406 94.238281 101.421875 94.269531 C 101.273438 94.296875 101.128906 94.296875 100.980469 94.265625 C 100.835938 94.238281 100.699219 94.179688 100.578125 94.097656 L 98.710938 92.84375 C 98.585938 92.757812 98.484375 92.65625 98.402344 92.53125 C 98.320312 92.40625 98.265625 92.273438 98.234375 92.125 C 98.207031 91.980469 98.207031 91.832031 98.238281 91.6875 C 98.265625 91.542969 98.324219 91.40625 98.40625 91.28125 C 98.488281 91.160156 98.59375 91.054688 98.71875 90.972656 C 98.839844 90.890625 98.976562 90.835938 99.121094 90.808594 C 99.269531 90.777344 99.414062 90.777344 99.5625 90.808594 C 99.707031 90.835938 99.84375 90.894531 99.964844 90.976562 Z M 107.429688 95.996094 L 109.292969 97.25 C 109.417969 97.335938 109.523438 97.4375 109.605469 97.5625 C 109.6875 97.6875 109.742188 97.820312 109.769531 97.96875 C 109.800781 98.113281 109.800781 98.261719 109.769531 98.40625 C 109.738281 98.554688 109.683594 98.6875 109.601562 98.8125 C 109.515625 98.933594 109.414062 99.039062 109.289062 99.121094 C 109.164062 99.203125 109.03125 99.257812 108.882812 99.289062 C 108.738281 99.316406 108.589844 99.316406 108.445312 99.285156 C 108.296875 99.257812 108.164062 99.199219 108.039062 99.117188 L 106.175781 97.863281 C 106.050781 97.777344 105.949219 97.675781 105.863281 97.550781 C 105.78125 97.425781 105.726562 97.292969 105.699219 97.144531 C 105.667969 97 105.671875 96.851562 105.699219 96.707031 C 105.730469 96.5625 105.785156 96.425781 105.867188 96.300781 C 105.953125 96.179688 106.054688 96.074219 106.179688 95.992188 C 106.304688 95.910156 106.4375 95.855469 106.585938 95.828125 C 106.730469 95.796875 106.878906 95.796875 107.023438 95.828125 C 107.171875 95.855469 107.304688 95.914062 107.429688 95.996094 Z M 114.890625 101.015625 L 116.757812 102.269531 C 116.882812 102.355469 116.984375 102.457031 117.066406 102.582031 C 117.148438 102.707031 117.207031 102.839844 117.234375 102.988281 C 117.261719 103.132812 117.261719 103.28125 117.234375 103.425781 C 117.203125 103.574219 117.148438 103.707031 117.0625 103.832031 C 116.980469 103.953125 116.875 104.058594 116.753906 104.140625 C 116.628906 104.222656 116.492188 104.277344 116.347656 104.308594 C 116.199219 104.335938 116.054688 104.335938 115.90625 104.304688 C 115.761719 104.277344 115.625 104.21875 115.503906 104.136719 L 113.636719 102.882812 C 113.511719 102.796875 113.410156 102.695312 113.328125 102.570312 C 113.246094 102.445312 113.191406 102.3125 113.160156 102.164062 C 113.132812 102.019531 113.132812 101.871094 113.164062 101.726562 C 113.191406 101.582031 113.25 101.445312 113.332031 101.320312 C 113.414062 101.199219 113.519531 101.09375 113.644531 101.011719 C 113.765625 100.929688 113.902344 100.875 114.046875 100.84375 C 114.195312 100.816406 114.339844 100.816406 114.488281 100.847656 C 114.632812 100.875 114.769531 100.933594 114.890625 101.015625 Z M 122.355469 106.035156 L 124.222656 107.289062 C 124.34375 107.375 124.449219 107.476562 124.53125 107.601562 C 124.613281 107.726562 124.667969 107.859375 124.695312 108.007812 C 124.726562 108.152344 124.726562 108.300781 124.695312 108.445312 C 124.664062 108.59375 124.609375 108.726562 124.527344 108.851562 C 124.441406 108.972656 124.339844 109.078125 124.214844 109.160156 C 124.089844 109.242188 123.957031 109.296875 123.808594 109.328125 C 123.664062 109.355469 123.515625 109.355469 123.371094 109.324219 C 123.226562 109.296875 123.089844 109.238281 122.964844 109.15625 L 121.101562 107.902344 C 120.976562 107.816406 120.875 107.714844 120.792969 107.589844 C 120.707031 107.464844 120.652344 107.332031 120.625 107.183594 C 120.597656 107.039062 120.597656 106.890625 120.625 106.746094 C 120.65625 106.601562 120.710938 106.464844 120.792969 106.339844 C 120.878906 106.21875 120.980469 106.113281 121.105469 106.03125 C 121.230469 105.949219 121.367188 105.894531 121.511719 105.863281 C 121.65625 105.835938 121.804688 105.835938 121.949219 105.867188 C 122.097656 105.894531 122.230469 105.953125 122.355469 106.035156 Z M 129.816406 111.054688 L 131.683594 112.308594 C 131.808594 112.394531 131.910156 112.496094 131.992188 112.621094 C 132.074219 112.746094 132.132812 112.878906 132.160156 113.027344 C 132.1875 113.171875 132.1875 113.320312 132.160156 113.464844 C 132.128906 113.613281 132.074219 113.746094 131.988281 113.871094 C 131.90625 113.992188 131.800781 114.097656 131.679688 114.179688 C 131.554688 114.261719 131.417969 114.316406 131.273438 114.347656 C 131.125 114.375 130.980469 114.375 130.832031 114.34375 C 130.6875 114.316406 130.554688 114.257812 130.429688 114.175781 L 128.5625 112.921875 C 128.441406 112.835938 128.335938 112.734375 128.253906 112.609375 C 128.171875 112.484375 128.117188 112.351562 128.085938 112.203125 C 128.058594 112.058594 128.058594 111.910156 128.089844 111.765625 C 128.117188 111.621094 128.175781 111.484375 128.257812 111.359375 C 128.339844 111.238281 128.445312 111.132812 128.570312 111.050781 C 128.691406 110.96875 128.828125 110.914062 128.976562 110.882812 C 129.121094 110.855469 129.265625 110.855469 129.414062 110.886719 C 129.558594 110.914062 129.695312 110.972656 129.816406 111.054688 Z M 137.28125 116.074219 L 139.148438 117.328125 C 139.269531 117.414062 139.375 117.515625 139.457031 117.640625 C 139.539062 117.765625 139.59375 117.898438 139.621094 118.046875 C 139.652344 118.191406 139.652344 118.339844 139.621094 118.484375 C 139.59375 118.632812 139.535156 118.765625 139.453125 118.890625 C 139.371094 119.011719 139.265625 119.117188 139.140625 119.199219 C 139.015625 119.28125 138.882812 119.335938 138.734375 119.367188 C 138.589844 119.394531 138.441406 119.394531 138.296875 119.363281 C 138.152344 119.335938 138.015625 119.277344 137.890625 119.195312 L 136.027344 117.941406 C 135.902344 117.855469 135.800781 117.753906 135.71875 117.628906 C 135.632812 117.503906 135.578125 117.371094 135.550781 117.222656 C 135.523438 117.078125 135.523438 116.929688 135.550781 116.785156 C 135.582031 116.636719 135.636719 116.503906 135.722656 116.378906 C 135.804688 116.257812 135.90625 116.152344 136.03125 116.070312 C 136.15625 115.988281 136.292969 115.933594 136.4375 115.902344 C 136.585938 115.875 136.730469 115.875 136.875 115.90625 C 137.023438 115.933594 137.15625 115.992188 137.28125 116.074219 Z M 144.746094 121.09375 L 146.609375 122.347656 C 146.734375 122.433594 146.835938 122.535156 146.917969 122.660156 C 147 122.785156 147.058594 122.917969 147.085938 123.066406 C 147.113281 123.210938 147.113281 123.359375 147.085938 123.503906 C 147.054688 123.652344 147 123.785156 146.914062 123.910156 C 146.832031 124.03125 146.730469 124.136719 146.605469 124.21875 C 146.480469 124.300781 146.34375 124.355469 146.199219 124.386719 C 146.050781 124.414062 145.90625 124.414062 145.761719 124.382812 C 145.613281 124.355469 145.480469 124.296875 145.355469 124.214844 L 143.488281 122.960938 C 143.367188 122.875 143.261719 122.773438 143.179688 122.648438 C 143.097656 122.523438 143.042969 122.390625 143.011719 122.242188 C 142.984375 122.097656 142.984375 121.949219 143.015625 121.804688 C 143.042969 121.65625 143.101562 121.523438 143.183594 121.398438 C 143.265625 121.277344 143.371094 121.171875 143.496094 121.089844 C 143.621094 121.007812 143.753906 120.953125 143.902344 120.921875 C 144.046875 120.894531 144.195312 120.894531 144.339844 120.925781 C 144.484375 120.953125 144.621094 121.011719 144.746094 121.09375 Z M 152.207031 126.113281 L 154.074219 127.367188 C 154.195312 127.453125 154.300781 127.554688 154.382812 127.679688 C 154.464844 127.804688 154.519531 127.9375 154.550781 128.085938 C 154.578125 128.230469 154.578125 128.378906 154.546875 128.523438 C 154.519531 128.671875 154.460938 128.804688 154.378906 128.929688 C 154.296875 129.050781 154.191406 129.15625 154.066406 129.238281 C 153.941406 129.320312 153.808594 129.375 153.660156 129.40625 C 153.515625 129.433594 153.371094 129.433594 153.222656 129.402344 C 153.078125 129.375 152.941406 129.316406 152.816406 129.234375 L 150.953125 127.980469 C 150.828125 127.894531 150.726562 127.792969 150.644531 127.667969 C 150.5625 127.542969 150.503906 127.410156 150.476562 127.261719 C 150.449219 127.117188 150.449219 126.96875 150.476562 126.824219 C 150.507812 126.675781 150.5625 126.542969 150.648438 126.417969 C 150.730469 126.296875 150.835938 126.191406 150.957031 126.109375 C 151.082031 126.027344 151.21875 125.972656 151.363281 125.941406 C 151.511719 125.914062 151.65625 125.914062 151.800781 125.945312 C 151.949219 125.972656 152.082031 126.03125 152.207031 126.113281 Z M 159.671875 131.132812 L 161.535156 132.386719 C 161.660156 132.472656 161.761719 132.574219 161.84375 132.699219 C 161.929688 132.824219 161.984375 132.957031 162.011719 133.105469 C 162.039062 133.25 162.039062 133.398438 162.011719 133.542969 C 161.980469 133.691406 161.925781 133.824219 161.839844 133.949219 C 161.757812 134.070312 161.65625 134.175781 161.53125 134.257812 C 161.40625 134.339844 161.269531 134.394531 161.125 134.425781 C 160.976562 134.453125 160.832031 134.453125 160.6875 134.421875 C 160.539062 134.394531 160.40625 134.335938 160.28125 134.253906 L 158.414062 133 C 158.292969 132.914062 158.1875 132.8125 158.105469 132.6875 C 158.023438 132.5625 157.96875 132.429688 157.941406 132.28125 C 157.910156 132.136719 157.910156 131.988281 157.941406 131.84375 C 157.96875 131.695312 158.027344 131.5625 158.109375 131.4375 C 158.191406 131.316406 158.296875 131.210938 158.421875 131.128906 C 158.546875 131.046875 158.679688 130.992188 158.828125 130.960938 C 158.972656 130.933594 159.121094 130.933594 159.265625 130.964844 C 159.410156 130.992188 159.546875 131.050781 159.671875 131.132812 Z M 167.132812 136.152344 L 169 137.40625 C 169.121094 137.492188 169.226562 137.59375 169.308594 137.71875 C 169.390625 137.84375 169.445312 137.976562 169.476562 138.125 C 169.503906 138.269531 169.503906 138.417969 169.472656 138.5625 C 169.445312 138.710938 169.386719 138.84375 169.304688 138.96875 C 169.222656 139.089844 169.117188 139.195312 168.992188 139.277344 C 168.871094 139.359375 168.734375 139.414062 168.585938 139.445312 C 168.441406 139.472656 168.296875 139.472656 168.148438 139.441406 C 168.003906 139.414062 167.867188 139.355469 167.746094 139.273438 L 165.878906 138.019531 C 165.753906 137.933594 165.652344 137.832031 165.570312 137.707031 C 165.488281 137.582031 165.429688 137.449219 165.402344 137.300781 C 165.375 137.15625 165.375 137.007812 165.402344 136.863281 C 165.433594 136.714844 165.488281 136.582031 165.574219 136.457031 C 165.65625 136.335938 165.761719 136.230469 165.882812 136.148438 C 166.007812 136.066406 166.144531 136.011719 166.289062 135.980469 C 166.4375 135.953125 166.582031 135.953125 166.730469 135.984375 C 166.875 136.011719 167.011719 136.070312 167.132812 136.152344 Z M 174.597656 141.171875 L 176.460938 142.425781 C 176.585938 142.511719 176.6875 142.613281 176.773438 142.738281 C 176.855469 142.863281 176.910156 142.996094 176.9375 143.144531 C 176.96875 143.289062 176.964844 143.4375 176.9375 143.582031 C 176.90625 143.730469 176.851562 143.863281 176.769531 143.988281 C 176.683594 144.109375 176.582031 144.214844 176.457031 144.296875 C 176.332031 144.378906 176.195312 144.433594 176.050781 144.464844 C 175.90625 144.492188 175.757812 144.492188 175.613281 144.460938 C 175.464844 144.433594 175.332031 144.375 175.207031 144.292969 L 173.339844 143.039062 C 173.21875 142.953125 173.113281 142.851562 173.03125 142.726562 C 172.949219 142.601562 172.894531 142.46875 172.867188 142.320312 C 172.835938 142.175781 172.835938 142.027344 172.867188 141.882812 C 172.898438 141.734375 172.953125 141.601562 173.035156 141.476562 C 173.121094 141.355469 173.222656 141.25 173.347656 141.167969 C 173.472656 141.085938 173.605469 141.03125 173.753906 141 C 173.898438 140.972656 174.046875 140.972656 174.191406 141.003906 C 174.339844 141.03125 174.472656 141.089844 174.597656 141.171875 Z M 182.058594 146.191406 L 183.925781 147.445312 C 184.050781 147.53125 184.152344 147.632812 184.234375 147.757812 C 184.316406 147.882812 184.371094 148.015625 184.402344 148.164062 C 184.429688 148.308594 184.429688 148.457031 184.398438 148.601562 C 184.371094 148.75 184.3125 148.882812 184.230469 149.007812 C 184.148438 149.128906 184.042969 149.234375 183.917969 149.316406 C 183.796875 149.398438 183.660156 149.453125 183.515625 149.484375 C 183.367188 149.511719 183.222656 149.511719 183.074219 149.480469 C 182.929688 149.453125 182.792969 149.394531 182.671875 149.3125 L 180.804688 148.058594 C 180.679688 147.972656 180.578125 147.871094 180.496094 147.746094 C 180.414062 147.621094 180.359375 147.488281 180.328125 147.339844 C 180.300781 147.195312 180.300781 147.046875 180.332031 146.902344 C 180.359375 146.753906 180.417969 146.621094 180.5 146.496094 C 180.582031 146.375 180.6875 146.269531 180.808594 146.1875 C 180.933594 146.105469 181.070312 146.050781 181.214844 146.019531 C 181.363281 145.992188 181.507812 145.992188 181.65625 146.023438 C 181.800781 146.050781 181.9375 146.109375 182.058594 146.191406 Z M 189.523438 151.210938 L 191.386719 152.464844 C 191.511719 152.550781 191.617188 152.652344 191.699219 152.777344 C 191.78125 152.902344 191.835938 153.035156 191.863281 153.183594 C 191.894531 153.328125 191.890625 153.476562 191.863281 153.621094 C 191.832031 153.765625 191.777344 153.902344 191.695312 154.027344 C 191.609375 154.148438 191.507812 154.253906 191.382812 154.335938 C 191.257812 154.417969 191.125 154.472656 190.976562 154.503906 C 190.832031 154.53125 190.683594 154.53125 190.539062 154.5 C 190.390625 154.472656 190.257812 154.414062 190.132812 154.332031 L 188.269531 153.078125 C 188.144531 152.992188 188.042969 152.890625 187.957031 152.765625 C 187.875 152.640625 187.820312 152.507812 187.792969 152.359375 C 187.761719 152.214844 187.765625 152.066406 187.792969 151.921875 C 187.824219 151.773438 187.878906 151.640625 187.960938 151.515625 C 188.046875 151.394531 188.148438 151.289062 188.273438 151.207031 C 188.398438 151.125 188.53125 151.070312 188.679688 151.039062 C 188.824219 151.011719 188.972656 151.011719 189.117188 151.042969 C 189.265625 151.070312 189.398438 151.128906 189.523438 151.210938 Z M 196.984375 156.230469 L 198.851562 157.484375 C 198.976562 157.570312 199.078125 157.671875 199.160156 157.796875 C 199.242188 157.921875 199.296875 158.054688 199.328125 158.203125 C 199.355469 158.347656 199.355469 158.496094 199.324219 158.640625 C 199.296875 158.785156 199.238281 158.921875 199.15625 159.046875 C 199.074219 159.167969 198.96875 159.273438 198.847656 159.355469 C 198.722656 159.4375 198.585938 159.492188 198.441406 159.523438 C 198.292969 159.550781 198.148438 159.550781 198 159.519531 C 197.855469 159.492188 197.71875 159.433594 197.597656 159.351562 L 195.730469 158.097656 C 195.605469 158.011719 195.503906 157.910156 195.421875 157.785156 C 195.339844 157.660156 195.285156 157.527344 195.253906 157.378906 C 195.226562 157.234375 195.226562 157.085938 195.257812 156.941406 C 195.285156 156.792969 195.34375 156.660156 195.425781 156.535156 C 195.507812 156.414062 195.613281 156.308594 195.738281 156.226562 C 195.859375 156.144531 195.996094 156.089844 196.140625 156.058594 C 196.289062 156.03125 196.433594 156.03125 196.582031 156.0625 C 196.726562 156.089844 196.863281 156.148438 196.984375 156.230469 Z M 204.449219 161.25 L 206.316406 162.503906 C 206.4375 162.589844 206.542969 162.691406 206.625 162.816406 C 206.707031 162.941406 206.761719 163.074219 206.789062 163.222656 C 206.820312 163.367188 206.820312 163.515625 206.789062 163.660156 C 206.757812 163.804688 206.703125 163.941406 206.621094 164.066406 C 206.535156 164.1875 206.433594 164.292969 206.308594 164.375 C 206.183594 164.457031 206.050781 164.511719 205.902344 164.542969 C 205.757812 164.570312 205.609375 164.570312 205.464844 164.539062 C 205.316406 164.511719 205.183594 164.453125 205.058594 164.371094 L 203.195312 163.117188 C 203.070312 163.03125 202.96875 162.929688 202.882812 162.804688 C 202.800781 162.679688 202.746094 162.546875 202.71875 162.398438 C 202.6875 162.253906 202.691406 162.105469 202.71875 161.960938 C 202.75 161.8125 202.804688 161.679688 202.886719 161.554688 C 202.972656 161.433594 203.074219 161.328125 203.199219 161.246094 C 203.324219 161.164062 203.460938 161.109375 203.605469 161.078125 C 203.75 161.050781 203.898438 161.050781 204.042969 161.082031 C 204.191406 161.109375 204.324219 161.167969 204.449219 161.25 Z M 211.910156 166.269531 L 213.777344 167.523438 C 213.902344 167.609375 214.003906 167.710938 214.085938 167.835938 C 214.167969 167.960938 214.226562 168.09375 214.253906 168.242188 C 214.28125 168.386719 214.28125 168.535156 214.253906 168.679688 C 214.222656 168.824219 214.167969 168.960938 214.082031 169.085938 C 214 169.207031 213.894531 169.3125 213.773438 169.394531 C 213.648438 169.476562 213.511719 169.53125 213.367188 169.5625 C 213.21875 169.589844 213.074219 169.589844 212.925781 169.558594 C 212.78125 169.53125 212.644531 169.472656 212.523438 169.390625 L 210.65625 168.136719 C 210.535156 168.050781 210.429688 167.949219 210.347656 167.824219 C 210.265625 167.699219 210.210938 167.566406 210.179688 167.417969 C 210.152344 167.273438 210.152344 167.125 210.183594 166.980469 C 210.210938 166.832031 210.269531 166.699219 210.351562 166.574219 C 210.433594 166.453125 210.539062 166.347656 210.664062 166.265625 C 210.785156 166.183594 210.921875 166.128906 211.070312 166.097656 C 211.214844 166.070312 211.359375 166.070312 211.507812 166.101562 C 211.652344 166.128906 211.789062 166.1875 211.910156 166.269531 Z M 219.375 171.289062 L 221.242188 172.542969 C 221.363281 172.628906 221.46875 172.730469 221.550781 172.855469 C 221.632812 172.980469 221.6875 173.113281 221.714844 173.261719 C 221.746094 173.40625 221.746094 173.554688 221.714844 173.699219 C 221.6875 173.84375 221.628906 173.980469 221.546875 174.105469 C 221.464844 174.226562 221.359375 174.332031 221.234375 174.414062 C 221.109375 174.496094 220.976562 174.550781 220.828125 174.578125 C 220.683594 174.609375 220.535156 174.609375 220.390625 174.578125 C 220.246094 174.550781 220.109375 174.492188 219.984375 174.410156 L 218.121094 173.15625 C 217.996094 173.070312 217.894531 172.96875 217.8125 172.84375 C 217.726562 172.71875 217.671875 172.585938 217.644531 172.4375 C 217.617188 172.292969 217.617188 172.144531 217.644531 172 C 217.675781 171.851562 217.730469 171.71875 217.816406 171.59375 C 217.898438 171.46875 218 171.367188 218.125 171.285156 C 218.25 171.203125 218.386719 171.148438 218.53125 171.117188 C 218.679688 171.089844 218.824219 171.089844 218.96875 171.121094 C 219.117188 171.148438 219.25 171.207031 219.375 171.289062 Z M 226.839844 176.308594 L 228.703125 177.5625 C 228.828125 177.648438 228.929688 177.75 229.011719 177.875 C 229.09375 178 229.152344 178.132812 229.179688 178.28125 C 229.207031 178.425781 229.207031 178.574219 229.179688 178.71875 C 229.148438 178.863281 229.09375 179 229.007812 179.125 C 228.925781 179.246094 228.820312 179.351562 228.699219 179.433594 C 228.574219 179.515625 228.4375 179.570312 228.292969 179.597656 C 228.144531 179.628906 228 179.628906 227.855469 179.597656 C 227.707031 179.570312 227.574219 179.511719 227.449219 179.429688 L 225.582031 178.175781 C 225.460938 178.089844 225.355469 177.988281 225.273438 177.863281 C 225.191406 177.738281 225.136719 177.605469 225.105469 177.457031 C 225.078125 177.3125 225.078125 177.164062 225.109375 177.019531 C 225.136719 176.871094 225.195312 176.738281 225.277344 176.613281 C 225.359375 176.488281 225.464844 176.386719 225.589844 176.304688 C 225.714844 176.222656 225.847656 176.167969 225.996094 176.136719 C 226.140625 176.109375 226.285156 176.109375 226.433594 176.140625 C 226.578125 176.167969 226.714844 176.226562 226.839844 176.308594 Z M 234.300781 181.328125 L 236.167969 182.582031 C 236.289062 182.664062 236.394531 182.769531 236.476562 182.894531 C 236.558594 183.019531 236.613281 183.152344 236.644531 183.300781 C 236.671875 183.445312 236.671875 183.59375 236.640625 183.738281 C 236.613281 183.882812 236.554688 184.019531 236.472656 184.144531 C 236.390625 184.265625 236.285156 184.371094 236.160156 184.453125 C 236.035156 184.535156 235.902344 184.589844 235.753906 184.617188 C 235.609375 184.648438 235.460938 184.648438 235.316406 184.617188 C 235.171875 184.589844 235.035156 184.53125 234.910156 184.449219 L 233.046875 183.195312 C 232.921875 183.109375 232.820312 183.007812 232.738281 182.882812 C 232.65625 182.757812 232.597656 182.625 232.570312 182.476562 C 232.542969 182.332031 232.542969 182.183594 232.570312 182.039062 C 232.601562 181.890625 232.65625 181.757812 232.742188 181.632812 C 232.824219 181.507812 232.925781 181.40625 233.050781 181.324219 C 233.175781 181.242188 233.3125 181.1875 233.457031 181.15625 C 233.605469 181.128906 233.75 181.128906 233.894531 181.160156 C 234.042969 181.1875 234.175781 181.246094 234.300781 181.328125 Z M 241.765625 186.347656 L 243.628906 187.601562 C 243.753906 187.683594 243.855469 187.789062 243.9375 187.914062 C 244.023438 188.039062 244.078125 188.171875 244.105469 188.320312 C 244.132812 188.464844 244.132812 188.613281 244.105469 188.757812 C 244.074219 188.902344 244.019531 189.039062 243.933594 189.164062 C 243.851562 189.285156 243.75 189.390625 243.625 189.472656 C 243.5 189.554688 243.363281 189.609375 243.21875 189.636719 C 243.070312 189.667969 242.925781 189.667969 242.78125 189.636719 C 242.632812 189.609375 242.5 189.550781 242.375 189.46875 L 240.507812 188.214844 C 240.386719 188.128906 240.28125 188.027344 240.199219 187.902344 C 240.117188 187.777344 240.0625 187.644531 240.035156 187.496094 C 240.003906 187.351562 240.003906 187.203125 240.035156 187.058594 C 240.0625 186.910156 240.121094 186.777344 240.203125 186.652344 C 240.285156 186.527344 240.390625 186.425781 240.515625 186.34375 C 240.640625 186.261719 240.773438 186.207031 240.921875 186.175781 C 241.066406 186.148438 241.214844 186.148438 241.359375 186.179688 C 241.503906 186.207031 241.640625 186.265625 241.765625 186.347656 Z M 249.226562 191.367188 L 251.09375 192.621094 C 251.214844 192.703125 251.320312 192.808594 251.402344 192.933594 C 251.484375 193.058594 251.539062 193.191406 251.570312 193.339844 C 251.597656 193.484375 251.597656 193.632812 251.566406 193.777344 C 251.539062 193.921875 251.480469 194.058594 251.398438 194.183594 C 251.316406 194.304688 251.210938 194.410156 251.085938 194.492188 C 250.964844 194.574219 250.828125 194.628906 250.679688 194.65625 C 250.535156 194.6875 250.390625 194.6875 250.242188 194.65625 C 250.097656 194.628906 249.960938 194.570312 249.839844 194.488281 L 247.972656 193.234375 C 247.847656 193.148438 247.746094 193.046875 247.664062 192.921875 C 247.582031 192.796875 247.523438 192.660156 247.496094 192.515625 C 247.46875 192.371094 247.46875 192.222656 247.496094 192.078125 C 247.527344 191.929688 247.582031 191.796875 247.667969 191.671875 C 247.75 191.546875 247.855469 191.445312 247.976562 191.363281 C 248.101562 191.28125 248.238281 191.226562 248.382812 191.195312 C 248.53125 191.167969 248.675781 191.167969 248.824219 191.199219 C 248.96875 191.226562 249.101562 191.285156 249.226562 191.367188 Z M 256.691406 196.386719 L 258.554688 197.640625 C 258.679688 197.722656 258.78125 197.828125 258.863281 197.953125 C 258.949219 198.078125 259.003906 198.210938 259.03125 198.359375 C 259.058594 198.503906 259.058594 198.652344 259.03125 198.796875 C 259 198.941406 258.945312 199.078125 258.863281 199.203125 C 258.777344 199.324219 258.675781 199.429688 258.550781 199.511719 C 258.425781 199.59375 258.289062 199.648438 258.144531 199.675781 C 258 199.707031 257.851562 199.707031 257.707031 199.675781 C 257.558594 199.648438 257.425781 199.589844 257.300781 199.507812 L 255.433594 198.253906 C 255.3125 198.167969 255.207031 198.066406 255.125 197.941406 C 255.042969 197.816406 254.988281 197.679688 254.960938 197.535156 C 254.929688 197.390625 254.929688 197.242188 254.960938 197.097656 C 254.992188 196.949219 255.046875 196.816406 255.128906 196.691406 C 255.214844 196.566406 255.316406 196.464844 255.441406 196.382812 C 255.566406 196.300781 255.699219 196.246094 255.847656 196.214844 C 255.992188 196.1875 256.140625 196.1875 256.285156 196.21875 C 256.429688 196.246094 256.566406 196.304688 256.691406 196.386719 Z M 264.152344 201.40625 L 266.019531 202.660156 C 266.144531 202.742188 266.246094 202.847656 266.328125 202.972656 C 266.410156 203.097656 266.464844 203.230469 266.496094 203.378906 C 266.523438 203.523438 266.523438 203.671875 266.492188 203.816406 C 266.464844 203.960938 266.40625 204.097656 266.324219 204.222656 C 266.242188 204.34375 266.136719 204.449219 266.011719 204.53125 C 265.890625 204.613281 265.753906 204.667969 265.609375 204.695312 C 265.460938 204.726562 265.316406 204.726562 265.167969 204.695312 C 265.023438 204.667969 264.886719 204.609375 264.765625 204.527344 L 262.898438 203.273438 C 262.773438 203.1875 262.671875 203.085938 262.589844 202.960938 C 262.507812 202.835938 262.449219 202.699219 262.421875 202.554688 C 262.394531 202.410156 262.394531 202.261719 262.421875 202.117188 C 262.453125 201.96875 262.507812 201.835938 262.59375 201.710938 C 262.675781 201.585938 262.78125 201.484375 262.902344 201.402344 C 263.027344 201.320312 263.164062 201.265625 263.308594 201.234375 C 263.457031 201.207031 263.601562 201.207031 263.75 201.238281 C 263.894531 201.265625 264.03125 201.324219 264.152344 201.40625 Z M 271.617188 206.425781 L 273.480469 207.679688 C 273.605469 207.761719 273.707031 207.867188 273.792969 207.992188 C 273.875 208.117188 273.929688 208.25 273.957031 208.398438 C 273.988281 208.542969 273.984375 208.691406 273.957031 208.835938 C 273.925781 208.980469 273.871094 209.117188 273.789062 209.242188 C 273.703125 209.363281 273.601562 209.46875 273.476562 209.550781 C 273.351562 209.632812 273.21875 209.6875 273.070312 209.714844 C 272.925781 209.746094 272.777344 209.746094 272.632812 209.714844 C 272.484375 209.6875 272.351562 209.628906 272.226562 209.546875 L 270.363281 208.292969 C 270.238281 208.207031 270.132812 208.105469 270.050781 207.980469 C 269.96875 207.855469 269.914062 207.71875 269.886719 207.574219 C 269.855469 207.429688 269.855469 207.28125 269.886719 207.136719 C 269.917969 206.988281 269.972656 206.855469 270.054688 206.730469 C 270.140625 206.605469 270.242188 206.503906 270.367188 206.421875 C 270.492188 206.339844 270.625 206.285156 270.773438 206.253906 C 270.917969 206.226562 271.066406 206.226562 271.210938 206.257812 C 271.359375 206.285156 271.492188 206.34375 271.617188 206.425781 Z M 279.078125 211.445312 L 280.945312 212.699219 C 281.070312 212.78125 281.171875 212.886719 281.253906 213.011719 C 281.335938 213.136719 281.390625 213.269531 281.421875 213.417969 C 281.449219 213.5625 281.449219 213.710938 281.417969 213.855469 C 281.390625 214 281.332031 214.136719 281.25 214.261719 C 281.167969 214.382812 281.0625 214.488281 280.9375 214.570312 C 280.816406 214.652344 280.679688 214.707031 280.535156 214.734375 C 280.386719 214.765625 280.242188 214.765625 280.09375 214.734375 C 279.949219 214.703125 279.8125 214.648438 279.691406 214.566406 L 277.824219 213.3125 C 277.699219 213.226562 277.597656 213.125 277.515625 213 C 277.433594 212.875 277.378906 212.738281 277.347656 212.59375 C 277.320312 212.449219 277.320312 212.300781 277.351562 212.15625 C 277.378906 212.007812 277.4375 211.875 277.519531 211.75 C 277.601562 211.625 277.707031 211.523438 277.832031 211.441406 C 277.953125 211.359375 278.089844 211.304688 278.234375 211.273438 C 278.382812 211.246094 278.527344 211.246094 278.675781 211.277344 C 278.820312 211.304688 278.957031 211.363281 279.078125 211.445312 Z M 286.542969 216.464844 L 288.40625 217.71875 C 288.53125 217.800781 288.636719 217.90625 288.71875 218.03125 C 288.800781 218.15625 288.855469 218.289062 288.882812 218.4375 C 288.914062 218.582031 288.914062 218.730469 288.882812 218.875 C 288.851562 219.019531 288.796875 219.15625 288.714844 219.28125 C 288.628906 219.402344 288.527344 219.507812 288.402344 219.589844 C 288.277344 219.671875 288.144531 219.726562 287.996094 219.753906 C 287.851562 219.785156 287.703125 219.785156 287.558594 219.753906 C 287.410156 219.722656 287.277344 219.667969 287.152344 219.585938 L 285.289062 218.332031 C 285.164062 218.246094 285.0625 218.144531 284.976562 218.019531 C 284.894531 217.894531 284.839844 217.757812 284.8125 217.613281 C 284.78125 217.46875 284.785156 217.320312 284.8125 217.175781 C 284.84375 217.027344 284.898438 216.894531 284.980469 216.769531 C 285.066406 216.644531 285.167969 216.542969 285.292969 216.460938 C 285.417969 216.378906 285.550781 216.324219 285.699219 216.292969 C 285.84375 216.265625 285.992188 216.265625 286.136719 216.296875 C 286.285156 216.324219 286.417969 216.382812 286.542969 216.464844 Z M 294.003906 221.484375 L 295.871094 222.738281 C 295.996094 222.820312 296.097656 222.925781 296.179688 223.050781 C 296.261719 223.175781 296.320312 223.308594 296.347656 223.457031 C 296.375 223.601562 296.375 223.75 296.347656 223.894531 C 296.316406 224.039062 296.261719 224.175781 296.175781 224.300781 C 296.09375 224.421875 295.988281 224.527344 295.867188 224.609375 C 295.742188 224.691406 295.605469 224.746094 295.460938 224.773438 C 295.3125 224.804688 295.167969 224.804688 295.019531 224.773438 C 294.875 224.742188 294.738281 224.6875 294.617188 224.605469 L 292.75 223.351562 C 292.625 223.265625 292.523438 223.164062 292.441406 223.039062 C 292.359375 222.914062 292.304688 222.777344 292.273438 222.632812 C 292.246094 222.488281 292.246094 222.339844 292.277344 222.195312 C 292.304688 222.046875 292.363281 221.914062 292.445312 221.789062 C 292.527344 221.664062 292.632812 221.5625 292.757812 221.480469 C 292.878906 221.398438 293.015625 221.34375 293.160156 221.3125 C 293.308594 221.285156 293.453125 221.285156 293.601562 221.316406 C 293.746094 221.34375 293.882812 221.402344 294.003906 221.484375 Z M 301.46875 226.503906 L 303.335938 227.757812 C 303.457031 227.839844 303.5625 227.945312 303.644531 228.070312 C 303.726562 228.195312 303.78125 228.328125 303.808594 228.476562 C 303.839844 228.621094 303.839844 228.769531 303.808594 228.914062 C 303.78125 229.058594 303.722656 229.195312 303.640625 229.320312 C 303.554688 229.441406 303.453125 229.546875 303.328125 229.628906 C 303.203125 229.710938 303.070312 229.765625 302.921875 229.792969 C 302.777344 229.824219 302.628906 229.824219 302.484375 229.792969 C 302.339844 229.761719 302.203125 229.707031 302.078125 229.625 L 300.214844 228.367188 C 300.089844 228.285156 299.988281 228.183594 299.90625 228.058594 C 299.820312 227.933594 299.765625 227.796875 299.738281 227.652344 C 299.710938 227.507812 299.710938 227.359375 299.738281 227.214844 C 299.769531 227.066406 299.824219 226.933594 299.910156 226.808594 C 299.992188 226.683594 300.09375 226.582031 300.21875 226.5 C 300.34375 226.417969 300.480469 226.363281 300.625 226.332031 C 300.769531 226.304688 300.917969 226.304688 301.0625 226.335938 C 301.210938 226.363281 301.34375 226.421875 301.46875 226.503906 Z M 308.929688 231.523438 L 310.796875 232.777344 C 310.921875 232.859375 311.023438 232.964844 311.105469 233.089844 C 311.1875 233.214844 311.246094 233.347656 311.273438 233.496094 C 311.300781 233.640625 311.300781 233.785156 311.273438 233.933594 C 311.242188 234.078125 311.1875 234.214844 311.101562 234.339844 C 311.019531 234.460938 310.914062 234.566406 310.792969 234.648438 C 310.667969 234.730469 310.53125 234.785156 310.386719 234.8125 C 310.238281 234.84375 310.09375 234.84375 309.945312 234.8125 C 309.800781 234.78125 309.667969 234.726562 309.542969 234.644531 L 307.675781 233.386719 C 307.554688 233.304688 307.449219 233.203125 307.367188 233.078125 C 307.285156 232.953125 307.230469 232.816406 307.199219 232.671875 C 307.171875 232.523438 307.171875 232.378906 307.203125 232.234375 C 307.230469 232.085938 307.289062 231.953125 307.371094 231.828125 C 307.453125 231.703125 307.558594 231.601562 307.683594 231.519531 C 307.804688 231.4375 307.941406 231.382812 308.089844 231.351562 C 308.234375 231.324219 308.378906 231.324219 308.527344 231.355469 C 308.671875 231.382812 308.808594 231.441406 308.929688 231.523438 Z M 316.394531 236.542969 L 318.261719 237.796875 C 318.382812 237.878906 318.488281 237.984375 318.570312 238.109375 C 318.652344 238.234375 318.707031 238.367188 318.734375 238.515625 C 318.765625 238.660156 318.765625 238.804688 318.734375 238.953125 C 318.707031 239.097656 318.648438 239.234375 318.566406 239.359375 C 318.484375 239.480469 318.378906 239.585938 318.253906 239.667969 C 318.128906 239.75 317.996094 239.804688 317.847656 239.832031 C 317.703125 239.863281 317.554688 239.863281 317.410156 239.832031 C 317.265625 239.800781 317.128906 239.746094 317.003906 239.664062 L 315.140625 238.40625 C 315.015625 238.324219 314.914062 238.222656 314.832031 238.097656 C 314.75 237.972656 314.691406 237.835938 314.664062 237.691406 C 314.636719 237.542969 314.636719 237.398438 314.664062 237.253906 C 314.695312 237.105469 314.75 236.972656 314.835938 236.847656 C 314.917969 236.722656 315.019531 236.621094 315.144531 236.539062 C 315.269531 236.457031 315.40625 236.402344 315.550781 236.371094 C 315.699219 236.34375 315.84375 236.34375 315.988281 236.375 C 316.136719 236.402344 316.269531 236.460938 316.394531 236.542969 Z M 323.859375 241.5625 L 325.722656 242.816406 C 325.847656 242.898438 325.949219 243.003906 326.03125 243.128906 C 326.113281 243.25 326.171875 243.386719 326.199219 243.535156 C 326.226562 243.679688 326.226562 243.824219 326.199219 243.972656 C 326.167969 244.117188 326.113281 244.253906 326.027344 244.378906 C 325.945312 244.5 325.84375 244.605469 325.71875 244.6875 C 325.59375 244.769531 325.457031 244.824219 325.3125 244.851562 C 325.164062 244.882812 325.019531 244.882812 324.875 244.851562 C 324.726562 244.820312 324.59375 244.765625 324.46875 244.683594 L 322.601562 243.425781 C 322.480469 243.34375 322.375 243.242188 322.292969 243.117188 C 322.210938 242.992188 322.15625 242.855469 322.125 242.710938 C 322.097656 242.5625 322.097656 242.417969 322.128906 242.273438 C 322.15625 242.125 322.214844 241.992188 322.296875 241.867188 C 322.378906 241.742188 322.484375 241.640625 322.609375 241.558594 C 322.734375 241.476562 322.867188 241.421875 323.015625 241.390625 C 323.160156 241.363281 323.308594 241.363281 323.453125 241.394531 C 323.597656 241.421875 323.734375 241.480469 323.859375 241.5625 Z M 331.320312 246.582031 L 333.1875 247.835938 C 333.308594 247.917969 333.414062 248.023438 333.496094 248.148438 C 333.578125 248.269531 333.632812 248.40625 333.664062 248.554688 C 333.691406 248.699219 333.691406 248.84375 333.660156 248.992188 C 333.632812 249.136719 333.574219 249.273438 333.492188 249.394531 C 333.410156 249.519531 333.304688 249.625 333.179688 249.707031 C 333.054688 249.789062 332.921875 249.84375 332.773438 249.871094 C 332.628906 249.902344 332.484375 249.902344 332.335938 249.871094 C 332.191406 249.839844 332.054688 249.785156 331.929688 249.703125 L 330.066406 248.445312 C 329.941406 248.363281 329.839844 248.261719 329.757812 248.136719 C 329.675781 248.011719 329.617188 247.875 329.589844 247.730469 C 329.5625 247.582031 329.5625 247.4375 329.589844 247.292969 C 329.621094 247.144531 329.675781 247.011719 329.761719 246.886719 C 329.84375 246.761719 329.949219 246.660156 330.070312 246.578125 C 330.195312 246.496094 330.332031 246.441406 330.476562 246.410156 C 330.625 246.382812 330.769531 246.382812 330.914062 246.414062 C 331.0625 246.441406 331.195312 246.5 331.320312 246.582031 Z M 338.785156 251.601562 L 340.648438 252.855469 C 340.773438 252.9375 340.875 253.042969 340.957031 253.167969 C 341.042969 253.289062 341.097656 253.425781 341.125 253.574219 C 341.152344 253.71875 341.152344 253.863281 341.125 254.011719 C 341.09375 254.15625 341.039062 254.292969 340.953125 254.414062 C 340.871094 254.539062 340.769531 254.644531 340.644531 254.726562 C 340.519531 254.808594 340.382812 254.863281 340.238281 254.890625 C 340.089844 254.921875 339.945312 254.921875 339.800781 254.890625 C 339.652344 254.859375 339.519531 254.804688 339.394531 254.722656 L 337.527344 253.464844 C 337.40625 253.382812 337.300781 253.28125 337.21875 253.15625 C 337.136719 253.03125 337.082031 252.894531 337.054688 252.75 C 337.023438 252.601562 337.023438 252.457031 337.054688 252.3125 C 337.082031 252.164062 337.140625 252.03125 337.222656 251.90625 C 337.308594 251.78125 337.410156 251.679688 337.535156 251.597656 C 337.660156 251.515625 337.792969 251.457031 337.941406 251.429688 C 338.085938 251.402344 338.234375 251.402344 338.378906 251.429688 C 338.523438 251.460938 338.660156 251.515625 338.785156 251.601562 Z M 346.246094 256.621094 L 348.113281 257.875 C 348.238281 257.957031 348.339844 258.0625 348.421875 258.1875 C 348.503906 258.308594 348.558594 258.445312 348.589844 258.59375 C 348.617188 258.738281 348.617188 258.882812 348.585938 259.03125 C 348.558594 259.175781 348.5 259.3125 348.417969 259.433594 C 348.335938 259.558594 348.230469 259.664062 348.105469 259.746094 C 347.984375 259.828125 347.847656 259.882812 347.703125 259.910156 C 347.554688 259.941406 347.410156 259.941406 347.261719 259.910156 C 347.117188 259.878906 346.980469 259.824219 346.859375 259.742188 L 344.992188 258.484375 C 344.867188 258.402344 344.765625 258.300781 344.683594 258.175781 C 344.601562 258.050781 344.542969 257.914062 344.515625 257.769531 C 344.488281 257.621094 344.488281 257.476562 344.515625 257.332031 C 344.546875 257.183594 344.601562 257.050781 344.6875 256.925781 C 344.769531 256.800781 344.875 256.699219 344.996094 256.617188 C 345.121094 256.535156 345.257812 256.476562 345.402344 256.449219 C 345.550781 256.421875 345.695312 256.421875 345.84375 256.449219 C 345.988281 256.480469 346.125 256.535156 346.246094 256.621094 Z M 353.710938 261.640625 L 355.574219 262.894531 C 355.699219 262.976562 355.800781 263.082031 355.886719 263.207031 C 355.96875 263.328125 356.023438 263.464844 356.050781 263.613281 C 356.082031 263.757812 356.078125 263.902344 356.050781 264.050781 C 356.019531 264.195312 355.964844 264.332031 355.882812 264.453125 C 355.796875 264.578125 355.695312 264.683594 355.570312 264.765625 C 355.445312 264.847656 355.308594 264.902344 355.164062 264.929688 C 355.019531 264.960938 354.871094 264.960938 354.726562 264.929688 C 354.578125 264.898438 354.445312 264.84375 354.320312 264.761719 L 352.453125 263.503906 C 352.332031 263.421875 352.226562 263.320312 352.144531 263.195312 C 352.0625 263.070312 352.007812 262.933594 351.980469 262.789062 C 351.949219 262.640625 351.949219 262.496094 351.980469 262.351562 C 352.011719 262.203125 352.066406 262.070312 352.148438 261.945312 C 352.234375 261.820312 352.335938 261.71875 352.460938 261.636719 C 352.585938 261.554688 352.71875 261.496094 352.867188 261.46875 C 353.011719 261.441406 353.160156 261.441406 353.304688 261.46875 C 353.453125 261.5 353.585938 261.554688 353.710938 261.640625 Z M 361.171875 266.660156 L 363.039062 267.914062 C 363.164062 267.996094 363.265625 268.101562 363.347656 268.226562 C 363.429688 268.347656 363.484375 268.484375 363.515625 268.632812 C 363.542969 268.777344 363.542969 268.921875 363.511719 269.070312 C 363.484375 269.214844 363.425781 269.351562 363.34375 269.472656 C 363.261719 269.597656 363.15625 269.703125 363.03125 269.785156 C 362.910156 269.867188 362.773438 269.921875 362.628906 269.949219 C 362.480469 269.980469 362.335938 269.976562 362.1875 269.949219 C 362.042969 269.917969 361.90625 269.863281 361.785156 269.78125 L 359.917969 268.523438 C 359.792969 268.441406 359.691406 268.339844 359.609375 268.214844 C 359.527344 268.089844 359.472656 267.953125 359.441406 267.808594 C 359.414062 267.660156 359.414062 267.515625 359.445312 267.371094 C 359.472656 267.222656 359.53125 267.089844 359.613281 266.964844 C 359.695312 266.839844 359.800781 266.738281 359.921875 266.65625 C 360.046875 266.574219 360.183594 266.515625 360.328125 266.488281 C 360.476562 266.460938 360.621094 266.460938 360.769531 266.488281 C 360.914062 266.519531 361.050781 266.574219 361.171875 266.660156 Z M 368.636719 271.679688 L 370.5 272.933594 C 370.625 273.015625 370.730469 273.121094 370.8125 273.246094 C 370.894531 273.367188 370.949219 273.503906 370.976562 273.652344 C 371.007812 273.796875 371.003906 273.941406 370.976562 274.089844 C 370.945312 274.234375 370.890625 274.371094 370.808594 274.492188 C 370.722656 274.617188 370.621094 274.71875 370.496094 274.804688 C 370.371094 274.886719 370.238281 274.941406 370.089844 274.96875 C 369.945312 275 369.796875 274.996094 369.652344 274.96875 C 369.503906 274.9375 369.371094 274.882812 369.246094 274.800781 L 367.382812 273.542969 C 367.257812 273.460938 367.15625 273.359375 367.070312 273.234375 C 366.988281 273.109375 366.933594 272.972656 366.90625 272.828125 C 366.875 272.679688 366.878906 272.535156 366.90625 272.390625 C 366.9375 272.242188 366.992188 272.109375 367.074219 271.984375 C 367.160156 271.859375 367.261719 271.757812 367.386719 271.675781 C 367.511719 271.59375 367.644531 271.535156 367.792969 271.507812 C 367.9375 271.480469 368.085938 271.480469 368.230469 271.507812 C 368.378906 271.539062 368.511719 271.59375 368.636719 271.679688 Z M 376.097656 276.699219 L 377.964844 277.953125 C 378.089844 278.035156 378.191406 278.140625 378.273438 278.265625 C 378.355469 278.386719 378.410156 278.523438 378.441406 278.671875 C 378.46875 278.816406 378.46875 278.960938 378.4375 279.109375 C 378.410156 279.253906 378.351562 279.390625 378.269531 279.511719 C 378.1875 279.636719 378.082031 279.738281 377.960938 279.824219 C 377.835938 279.90625 377.699219 279.960938 377.554688 279.988281 C 377.40625 280.019531 377.261719 280.015625 377.113281 279.988281 C 376.96875 279.957031 376.832031 279.902344 376.710938 279.820312 L 374.84375 278.5625 C 374.71875 278.480469 374.617188 278.378906 374.535156 278.253906 C 374.453125 278.128906 374.398438 277.992188 374.367188 277.847656 C 374.339844 277.699219 374.339844 277.554688 374.371094 277.410156 C 374.398438 277.261719 374.457031 277.128906 374.539062 277.003906 C 374.621094 276.878906 374.726562 276.777344 374.851562 276.695312 C 374.972656 276.613281 375.109375 276.554688 375.253906 276.527344 C 375.402344 276.5 375.546875 276.5 375.695312 276.527344 C 375.839844 276.558594 375.976562 276.613281 376.097656 276.699219 Z M 383.5625 281.71875 L 385.429688 282.972656 C 385.550781 283.054688 385.65625 283.160156 385.738281 283.285156 C 385.820312 283.40625 385.875 283.542969 385.902344 283.6875 C 385.933594 283.835938 385.933594 283.980469 385.902344 284.128906 C 385.871094 284.273438 385.816406 284.410156 385.734375 284.53125 C 385.648438 284.65625 385.546875 284.757812 385.421875 284.84375 C 385.296875 284.925781 385.164062 284.980469 385.015625 285.007812 C 384.871094 285.039062 384.722656 285.035156 384.578125 285.007812 C 384.429688 284.976562 384.296875 284.921875 384.171875 284.839844 L 382.308594 283.582031 C 382.183594 283.5 382.082031 283.398438 381.996094 283.273438 C 381.914062 283.148438 381.859375 283.011719 381.832031 282.867188 C 381.800781 282.71875 381.804688 282.574219 381.832031 282.429688 C 381.863281 282.28125 381.917969 282.148438 382 282.023438 C 382.085938 281.898438 382.1875 281.796875 382.3125 281.714844 C 382.4375 281.632812 382.574219 281.574219 382.71875 281.546875 C 382.863281 281.519531 383.011719 281.519531 383.15625 281.546875 C 383.304688 281.578125 383.4375 281.632812 383.5625 281.71875 Z M 391.023438 286.738281 L 392.890625 287.992188 C 393.015625 288.074219 393.117188 288.179688 393.199219 288.304688 C 393.28125 288.425781 393.339844 288.5625 393.367188 288.707031 C 393.394531 288.855469 393.394531 289 393.367188 289.148438 C 393.335938 289.292969 393.28125 289.429688 393.195312 289.550781 C 393.113281 289.675781 393.007812 289.777344 392.886719 289.863281 C 392.761719 289.945312 392.625 290 392.480469 290.027344 C 392.332031 290.058594 392.1875 290.054688 392.039062 290.027344 C 391.894531 289.996094 391.757812 289.941406 391.636719 289.859375 L 389.769531 288.601562 C 389.648438 288.519531 389.542969 288.417969 389.460938 288.292969 C 389.378906 288.167969 389.324219 288.03125 389.292969 287.886719 C 389.265625 287.738281 389.265625 287.59375 389.296875 287.449219 C 389.324219 287.300781 389.382812 287.167969 389.464844 287.042969 C 389.546875 286.917969 389.652344 286.816406 389.777344 286.734375 C 389.898438 286.652344 390.035156 286.59375 390.183594 286.566406 C 390.328125 286.539062 390.472656 286.539062 390.621094 286.566406 C 390.765625 286.597656 390.902344 286.652344 391.023438 286.738281 Z M 398.488281 291.757812 L 400.355469 293.011719 C 400.476562 293.09375 400.582031 293.199219 400.664062 293.324219 C 400.746094 293.445312 400.800781 293.582031 400.828125 293.726562 C 400.859375 293.875 400.859375 294.019531 400.828125 294.167969 C 400.800781 294.3125 400.742188 294.449219 400.660156 294.570312 C 400.578125 294.695312 400.472656 294.796875 400.347656 294.882812 C 400.222656 294.964844 400.089844 295.019531 399.941406 295.046875 C 399.796875 295.078125 399.648438 295.074219 399.503906 295.046875 C 399.359375 295.015625 399.222656 294.960938 399.097656 294.878906 L 397.234375 293.621094 C 397.109375 293.539062 397.007812 293.433594 396.925781 293.3125 C 396.839844 293.1875 396.785156 293.050781 396.757812 292.90625 C 396.730469 292.757812 396.730469 292.613281 396.757812 292.46875 C 396.789062 292.320312 396.84375 292.1875 396.929688 292.0625 C 397.011719 291.9375 397.113281 291.835938 397.238281 291.753906 C 397.363281 291.671875 397.5 291.613281 397.644531 291.585938 C 397.792969 291.558594 397.9375 291.558594 398.082031 291.585938 C 398.230469 291.617188 398.363281 291.671875 398.488281 291.757812 Z M 405.953125 296.777344 L 407.816406 298.03125 C 407.941406 298.113281 408.042969 298.21875 408.125 298.34375 C 408.207031 298.464844 408.265625 298.601562 408.292969 298.746094 C 408.320312 298.894531 408.320312 299.039062 408.292969 299.1875 C 408.261719 299.332031 408.207031 299.46875 408.121094 299.589844 C 408.039062 299.714844 407.9375 299.816406 407.8125 299.902344 C 407.6875 299.984375 407.550781 300.039062 407.40625 300.066406 C 407.257812 300.097656 407.113281 300.09375 406.96875 300.066406 C 406.820312 300.035156 406.6875 299.980469 406.5625 299.898438 L 404.695312 298.640625 C 404.574219 298.558594 404.46875 298.453125 404.386719 298.332031 C 404.304688 298.207031 404.25 298.070312 404.21875 297.925781 C 404.191406 297.777344 404.191406 297.632812 404.222656 297.488281 C 404.25 297.339844 404.308594 297.207031 404.390625 297.082031 C 404.472656 296.957031 404.578125 296.855469 404.703125 296.773438 C 404.828125 296.691406 404.960938 296.632812 405.109375 296.605469 C 405.253906 296.578125 405.398438 296.578125 405.546875 296.605469 C 405.691406 296.636719 405.828125 296.691406 405.953125 296.777344 Z M 413.414062 301.796875 L 415.28125 303.050781 C 415.402344 303.132812 415.507812 303.238281 415.589844 303.363281 C 415.671875 303.484375 415.726562 303.621094 415.757812 303.765625 C 415.785156 303.914062 415.785156 304.058594 415.753906 304.207031 C 415.726562 304.351562 415.667969 304.488281 415.585938 304.609375 C 415.503906 304.734375 415.398438 304.835938 415.273438 304.921875 C 415.148438 305.003906 415.015625 305.058594 414.867188 305.085938 C 414.722656 305.117188 414.574219 305.113281 414.429688 305.085938 C 414.285156 305.054688 414.148438 305 414.023438 304.917969 L 412.160156 303.660156 C 412.035156 303.578125 411.933594 303.472656 411.851562 303.351562 C 411.769531 303.226562 411.710938 303.089844 411.683594 302.945312 C 411.65625 302.796875 411.65625 302.652344 411.683594 302.503906 C 411.714844 302.359375 411.769531 302.226562 411.855469 302.101562 C 411.9375 301.976562 412.039062 301.875 412.164062 301.792969 C 412.289062 301.710938 412.425781 301.652344 412.570312 301.625 C 412.71875 301.597656 412.863281 301.597656 413.007812 301.625 C 413.15625 301.65625 413.289062 301.710938 413.414062 301.796875 Z M 420.878906 306.816406 L 422.742188 308.070312 C 422.867188 308.152344 422.96875 308.257812 423.050781 308.382812 C 423.136719 308.503906 423.191406 308.640625 423.21875 308.785156 C 423.246094 308.933594 423.246094 309.078125 423.21875 309.226562 C 423.1875 309.371094 423.132812 309.507812 423.046875 309.628906 C 422.964844 309.753906 422.863281 309.855469 422.738281 309.941406 C 422.613281 310.023438 422.476562 310.078125 422.332031 310.105469 C 422.183594 310.136719 422.039062 310.132812 421.894531 310.105469 C 421.746094 310.074219 421.613281 310.019531 421.488281 309.9375 L 419.621094 308.679688 C 419.5 308.597656 419.394531 308.492188 419.3125 308.371094 C 419.230469 308.246094 419.175781 308.109375 419.148438 307.964844 C 419.117188 307.816406 419.117188 307.671875 419.148438 307.523438 C 419.175781 307.378906 419.234375 307.246094 419.316406 307.121094 C 419.398438 306.996094 419.503906 306.894531 419.628906 306.8125 C 419.753906 306.730469 419.886719 306.671875 420.035156 306.644531 C 420.179688 306.617188 420.328125 306.617188 420.472656 306.644531 C 420.617188 306.675781 420.753906 306.730469 420.878906 306.816406 Z M 428.339844 311.835938 L 430.207031 313.089844 C 430.328125 313.171875 430.433594 313.277344 430.515625 313.402344 C 430.597656 313.523438 430.652344 313.660156 430.683594 313.804688 C 430.710938 313.953125 430.710938 314.097656 430.679688 314.246094 C 430.652344 314.390625 430.59375 314.527344 430.511719 314.648438 C 430.429688 314.773438 430.324219 314.875 430.199219 314.960938 C 430.078125 315.042969 429.941406 315.097656 429.792969 315.125 C 429.648438 315.15625 429.503906 315.152344 429.355469 315.125 C 429.210938 315.09375 429.074219 315.039062 428.953125 314.957031 L 427.085938 313.699219 C 426.960938 313.617188 426.859375 313.511719 426.777344 313.390625 C 426.695312 313.265625 426.636719 313.128906 426.609375 312.984375 C 426.582031 312.835938 426.582031 312.691406 426.609375 312.542969 C 426.640625 312.398438 426.695312 312.265625 426.78125 312.140625 C 426.863281 312.015625 426.96875 311.914062 427.089844 311.832031 C 427.214844 311.75 427.351562 311.691406 427.496094 311.664062 C 427.644531 311.636719 427.789062 311.636719 427.9375 311.664062 C 428.082031 311.695312 428.214844 311.75 428.339844 311.835938 Z M 435.804688 316.855469 L 437.667969 318.109375 C 437.792969 318.191406 437.894531 318.296875 437.976562 318.421875 C 438.0625 318.542969 438.117188 318.679688 438.144531 318.824219 C 438.171875 318.972656 438.171875 319.117188 438.144531 319.265625 C 438.113281 319.410156 438.058594 319.546875 437.976562 319.667969 C 437.890625 319.792969 437.789062 319.894531 437.664062 319.980469 C 437.539062 320.0625 437.402344 320.117188 437.257812 320.144531 C 437.113281 320.171875 436.964844 320.171875 436.820312 320.144531 C 436.671875 320.113281 436.539062 320.058594 436.414062 319.976562 L 434.546875 318.71875 C 434.425781 318.636719 434.320312 318.53125 434.238281 318.410156 C 434.15625 318.285156 434.101562 318.148438 434.074219 318.003906 C 434.042969 317.855469 434.042969 317.710938 434.074219 317.5625 C 434.105469 317.417969 434.160156 317.285156 434.242188 317.160156 C 434.328125 317.035156 434.429688 316.933594 434.554688 316.851562 C 434.679688 316.769531 434.8125 316.710938 434.960938 316.683594 C 435.105469 316.65625 435.253906 316.65625 435.398438 316.683594 C 435.542969 316.714844 435.679688 316.769531 435.804688 316.855469 Z M 443.265625 321.875 L 445.132812 323.128906 C 445.257812 323.210938 445.359375 323.316406 445.441406 323.441406 C 445.523438 323.5625 445.578125 323.699219 445.609375 323.84375 C 445.636719 323.992188 445.636719 324.136719 445.605469 324.285156 C 445.578125 324.429688 445.519531 324.566406 445.4375 324.6875 C 445.355469 324.8125 445.25 324.914062 445.125 324.996094 C 445.003906 325.082031 444.867188 325.136719 444.722656 325.164062 C 444.574219 325.191406 444.429688 325.191406 444.28125 325.164062 C 444.136719 325.132812 444 325.078125 443.878906 324.996094 L 442.011719 323.738281 C 441.886719 323.65625 441.785156 323.550781 441.703125 323.429688 C 441.621094 323.304688 441.566406 323.167969 441.535156 323.023438 C 441.507812 322.875 441.507812 322.730469 441.539062 322.582031 C 441.566406 322.4375 441.625 322.304688 441.707031 322.179688 C 441.789062 322.054688 441.894531 321.953125 442.015625 321.871094 C 442.140625 321.789062 442.277344 321.730469 442.421875 321.703125 C 442.570312 321.675781 442.714844 321.675781 442.863281 321.703125 C 443.007812 321.734375 443.144531 321.789062 443.265625 321.875 Z M 450.730469 326.894531 L 452.59375 328.148438 C 452.71875 328.230469 452.820312 328.335938 452.90625 328.460938 C 452.988281 328.582031 453.042969 328.71875 453.070312 328.863281 C 453.101562 329.011719 453.097656 329.15625 453.070312 329.304688 C 453.039062 329.449219 452.984375 329.585938 452.902344 329.707031 C 452.816406 329.832031 452.714844 329.933594 452.589844 330.015625 C 452.464844 330.101562 452.332031 330.15625 452.183594 330.183594 C 452.039062 330.210938 451.890625 330.210938 451.746094 330.183594 C 451.597656 330.152344 451.464844 330.097656 451.339844 330.015625 L 449.476562 328.757812 C 449.351562 328.675781 449.246094 328.570312 449.164062 328.449219 C 449.082031 328.324219 449.027344 328.1875 449 328.042969 C 448.96875 327.894531 448.96875 327.75 449 327.601562 C 449.03125 327.457031 449.085938 327.320312 449.167969 327.199219 C 449.253906 327.074219 449.355469 326.972656 449.480469 326.890625 C 449.605469 326.808594 449.738281 326.75 449.886719 326.722656 C 450.03125 326.695312 450.179688 326.695312 450.324219 326.722656 C 450.472656 326.753906 450.605469 326.808594 450.730469 326.894531 Z M 458.191406 331.914062 L 460.058594 333.167969 C 460.183594 333.25 460.285156 333.355469 460.367188 333.480469 C 460.449219 333.601562 460.503906 333.738281 460.535156 333.882812 C 460.5625 334.03125 460.5625 334.175781 460.53125 334.324219 C 460.503906 334.46875 460.445312 334.605469 460.363281 334.726562 C 460.28125 334.851562 460.175781 334.953125 460.054688 335.035156 C 459.929688 335.121094 459.792969 335.175781 459.648438 335.203125 C 459.5 335.230469 459.355469 335.230469 459.207031 335.203125 C 459.0625 335.171875 458.925781 335.117188 458.804688 335.035156 L 456.9375 333.777344 C 456.8125 333.695312 456.710938 333.589844 456.628906 333.46875 C 456.546875 333.34375 456.492188 333.207031 456.460938 333.0625 C 456.433594 332.914062 456.433594 332.769531 456.464844 332.621094 C 456.492188 332.476562 456.550781 332.339844 456.632812 332.21875 C 456.714844 332.09375 456.820312 331.992188 456.945312 331.910156 C 457.066406 331.828125 457.203125 331.769531 457.347656 331.742188 C 457.496094 331.714844 457.640625 331.714844 457.789062 331.742188 C 457.933594 331.773438 458.070312 331.828125 458.191406 331.914062 Z M 465.65625 336.933594 L 467.523438 338.1875 C 467.644531 338.269531 467.75 338.375 467.832031 338.496094 C 467.914062 338.621094 467.96875 338.757812 467.996094 338.902344 C 468.027344 339.050781 468.027344 339.195312 467.996094 339.34375 C 467.964844 339.488281 467.910156 339.625 467.828125 339.746094 C 467.742188 339.871094 467.640625 339.972656 467.515625 340.054688 C 467.390625 340.140625 467.257812 340.195312 467.109375 340.222656 C 466.964844 340.25 466.816406 340.25 466.671875 340.222656 C 466.523438 340.191406 466.390625 340.136719 466.265625 340.050781 L 464.402344 338.796875 C 464.277344 338.714844 464.175781 338.609375 464.089844 338.488281 C 464.007812 338.363281 463.953125 338.226562 463.925781 338.082031 C 463.894531 337.933594 463.898438 337.789062 463.925781 337.640625 C 463.957031 337.496094 464.011719 337.359375 464.09375 337.238281 C 464.179688 337.113281 464.28125 337.011719 464.40625 336.929688 C 464.53125 336.847656 464.664062 336.789062 464.8125 336.761719 C 464.957031 336.734375 465.105469 336.734375 465.25 336.761719 C 465.398438 336.792969 465.53125 336.847656 465.65625 336.933594 Z M 473.117188 341.953125 L 474.984375 343.207031 C 475.109375 343.289062 475.210938 343.394531 475.292969 343.515625 C 475.375 343.640625 475.433594 343.777344 475.460938 343.921875 C 475.488281 344.070312 475.488281 344.214844 475.460938 344.363281 C 475.429688 344.507812 475.375 344.644531 475.289062 344.765625 C 475.207031 344.890625 475.101562 344.992188 474.980469 345.074219 C 474.855469 345.160156 474.71875 345.214844 474.574219 345.242188 C 474.425781 345.269531 474.28125 345.269531 474.132812 345.242188 C 473.988281 345.210938 473.851562 345.15625 473.730469 345.070312 L 471.863281 343.816406 C 471.738281 343.734375 471.636719 343.628906 471.554688 343.507812 C 471.472656 343.382812 471.417969 343.246094 471.386719 343.101562 C 471.359375 342.953125 471.359375 342.808594 471.390625 342.660156 C 471.417969 342.515625 471.476562 342.378906 471.558594 342.257812 C 471.640625 342.132812 471.746094 342.03125 471.871094 341.949219 C 471.992188 341.867188 472.128906 341.808594 472.277344 341.78125 C 472.421875 341.753906 472.566406 341.753906 472.714844 341.78125 C 472.859375 341.8125 472.996094 341.867188 473.117188 341.953125 Z M 480.582031 346.972656 L 482.449219 348.226562 C 482.570312 348.308594 482.675781 348.414062 482.757812 348.535156 C 482.839844 348.660156 482.894531 348.796875 482.921875 348.941406 C 482.953125 349.089844 482.953125 349.234375 482.921875 349.382812 C 482.894531 349.527344 482.835938 349.664062 482.753906 349.785156 C 482.667969 349.910156 482.566406 350.011719 482.441406 350.09375 C 482.316406 350.179688 482.183594 350.234375 482.035156 350.261719 C 481.890625 350.289062 481.742188 350.289062 481.597656 350.261719 C 481.453125 350.230469 481.316406 350.175781 481.191406 350.089844 L 479.328125 348.835938 C 479.203125 348.753906 479.101562 348.648438 479.019531 348.527344 C 478.933594 348.402344 478.878906 348.265625 478.851562 348.121094 C 478.824219 347.972656 478.824219 347.828125 478.851562 347.679688 C 478.882812 347.535156 478.9375 347.398438 479.023438 347.277344 C 479.105469 347.152344 479.207031 347.050781 479.332031 346.96875 C 479.457031 346.886719 479.59375 346.828125 479.738281 346.800781 C 479.882812 346.773438 480.03125 346.773438 480.175781 346.800781 C 480.324219 346.832031 480.457031 346.886719 480.582031 346.972656 Z M 488.046875 351.992188 L 489.910156 353.246094 C 490.035156 353.328125 490.136719 353.433594 490.21875 353.554688 C 490.300781 353.679688 490.359375 353.816406 490.386719 353.960938 C 490.414062 354.109375 490.414062 354.253906 490.386719 354.402344 C 490.355469 354.546875 490.300781 354.683594 490.214844 354.804688 C 490.132812 354.929688 490.027344 355.03125 489.90625 355.113281 C 489.78125 355.199219 489.644531 355.253906 489.5 355.28125 C 489.351562 355.308594 489.207031 355.308594 489.058594 355.28125 C 488.914062 355.25 488.78125 355.195312 488.65625 355.109375 L 486.789062 353.855469 C 486.667969 353.773438 486.5625 353.667969 486.480469 353.546875 C 486.398438 353.421875 486.34375 353.285156 486.3125 353.140625 C 486.285156 352.992188 486.285156 352.847656 486.316406 352.699219 C 486.34375 352.554688 486.402344 352.417969 486.484375 352.296875 C 486.566406 352.171875 486.671875 352.070312 486.796875 351.988281 C 486.917969 351.902344 487.054688 351.847656 487.203125 351.820312 C 487.347656 351.792969 487.492188 351.792969 487.640625 351.820312 C 487.785156 351.851562 487.921875 351.90625 488.046875 351.992188 Z M 495.507812 357.011719 L 497.375 358.265625 C 497.496094 358.347656 497.601562 358.453125 497.683594 358.574219 C 497.765625 358.699219 497.820312 358.835938 497.851562 358.980469 C 497.878906 359.128906 497.878906 359.273438 497.847656 359.421875 C 497.820312 359.566406 497.761719 359.703125 497.679688 359.824219 C 497.597656 359.949219 497.492188 360.050781 497.367188 360.132812 C 497.242188 360.21875 497.109375 360.273438 496.960938 360.300781 C 496.816406 360.328125 496.667969 360.328125 496.523438 360.300781 C 496.378906 360.269531 496.242188 360.214844 496.117188 360.128906 L 494.253906 358.875 C 494.128906 358.792969 494.027344 358.6875 493.945312 358.566406 C 493.863281 358.441406 493.804688 358.304688 493.777344 358.160156 C 493.75 358.011719 493.75 357.867188 493.777344 357.71875 C 493.808594 357.574219 493.863281 357.4375 493.949219 357.316406 C 494.03125 357.191406 494.132812 357.089844 494.257812 357.007812 C 494.382812 356.921875 494.519531 356.867188 494.664062 356.839844 C 494.8125 356.8125 494.957031 356.8125 495.101562 356.839844 C 495.25 356.871094 495.382812 356.925781 495.507812 357.011719 Z M 502.972656 362.03125 L 504.835938 363.285156 C 504.960938 363.367188 505.0625 363.472656 505.144531 363.59375 C 505.226562 363.71875 505.285156 363.855469 505.3125 364 C 505.339844 364.148438 505.339844 364.292969 505.3125 364.441406 C 505.28125 364.585938 505.226562 364.722656 505.140625 364.84375 C 505.058594 364.96875 504.957031 365.070312 504.832031 365.152344 C 504.707031 365.238281 504.570312 365.292969 504.425781 365.320312 C 504.277344 365.347656 504.132812 365.347656 503.988281 365.320312 C 503.839844 365.289062 503.707031 365.234375 503.582031 365.148438 L 501.714844 363.894531 C 501.59375 363.8125 501.488281 363.707031 501.40625 363.585938 C 501.324219 363.460938 501.269531 363.324219 501.242188 363.179688 C 501.210938 363.03125 501.210938 362.886719 501.242188 362.738281 C 501.269531 362.59375 501.328125 362.457031 501.410156 362.335938 C 501.492188 362.210938 501.597656 362.109375 501.722656 362.027344 C 501.847656 361.941406 501.980469 361.886719 502.128906 361.859375 C 502.273438 361.832031 502.421875 361.832031 502.566406 361.859375 C 502.710938 361.890625 502.847656 361.945312 502.972656 362.03125 Z M 510.433594 367.050781 L 512.300781 368.304688 C 512.421875 368.386719 512.527344 368.492188 512.609375 368.613281 C 512.691406 368.738281 512.746094 368.875 512.777344 369.019531 C 512.804688 369.167969 512.804688 369.3125 512.773438 369.460938 C 512.746094 369.605469 512.6875 369.742188 512.605469 369.863281 C 512.523438 369.988281 512.417969 370.089844 512.292969 370.171875 C 512.171875 370.257812 512.035156 370.3125 511.886719 370.339844 C 511.742188 370.367188 511.597656 370.367188 511.449219 370.339844 C 511.304688 370.308594 511.167969 370.253906 511.046875 370.167969 L 509.179688 368.914062 C 509.054688 368.832031 508.953125 368.726562 508.871094 368.605469 C 508.789062 368.480469 508.730469 368.34375 508.703125 368.199219 C 508.675781 368.050781 508.675781 367.90625 508.703125 367.757812 C 508.734375 367.613281 508.789062 367.476562 508.875 367.355469 C 508.957031 367.230469 509.0625 367.128906 509.183594 367.046875 C 509.308594 366.960938 509.445312 366.90625 509.589844 366.878906 C 509.738281 366.851562 509.882812 366.851562 510.027344 366.878906 C 510.175781 366.910156 510.308594 366.964844 510.433594 367.050781 Z M 517.898438 372.070312 L 519.761719 373.324219 C 519.886719 373.40625 519.988281 373.511719 520.070312 373.632812 C 520.15625 373.757812 520.210938 373.894531 520.238281 374.039062 C 520.265625 374.1875 520.265625 374.332031 520.238281 374.480469 C 520.207031 374.625 520.152344 374.761719 520.066406 374.882812 C 519.984375 375.007812 519.882812 375.109375 519.757812 375.191406 C 519.632812 375.273438 519.496094 375.332031 519.351562 375.359375 C 519.207031 375.386719 519.058594 375.386719 518.914062 375.359375 C 518.765625 375.328125 518.632812 375.273438 518.507812 375.1875 L 516.640625 373.933594 C 516.519531 373.851562 516.414062 373.746094 516.332031 373.625 C 516.25 373.5 516.195312 373.363281 516.167969 373.21875 C 516.136719 373.070312 516.136719 372.925781 516.167969 372.777344 C 516.195312 372.632812 516.253906 372.496094 516.335938 372.375 C 516.421875 372.25 516.523438 372.148438 516.648438 372.066406 C 516.773438 371.980469 516.90625 371.925781 517.054688 371.898438 C 517.199219 371.871094 517.347656 371.871094 517.492188 371.898438 C 517.636719 371.929688 517.773438 371.984375 517.898438 372.070312 Z M 525.359375 377.089844 L 527.226562 378.34375 C 527.351562 378.425781 527.453125 378.53125 527.535156 378.652344 C 527.617188 378.777344 527.671875 378.914062 527.703125 379.058594 C 527.730469 379.207031 527.730469 379.351562 527.699219 379.5 C 527.671875 379.644531 527.613281 379.78125 527.53125 379.902344 C 527.449219 380.027344 527.34375 380.128906 527.21875 380.210938 C 527.097656 380.292969 526.960938 380.351562 526.816406 380.378906 C 526.667969 380.40625 526.523438 380.40625 526.375 380.378906 C 526.230469 380.347656 526.09375 380.292969 525.972656 380.207031 L 524.105469 378.953125 C 523.980469 378.871094 523.878906 378.765625 523.796875 378.644531 C 523.714844 378.519531 523.65625 378.382812 523.628906 378.238281 C 523.601562 378.089844 523.601562 377.945312 523.628906 377.796875 C 523.660156 377.652344 523.714844 377.515625 523.800781 377.394531 C 523.882812 377.269531 523.988281 377.167969 524.109375 377.085938 C 524.234375 377 524.371094 376.945312 524.515625 376.917969 C 524.664062 376.890625 524.808594 376.890625 524.957031 376.917969 C 525.101562 376.949219 525.238281 377.003906 525.359375 377.089844 Z M 532.824219 382.109375 L 534.6875 383.363281 C 534.8125 383.445312 534.914062 383.550781 535 383.671875 C 535.082031 383.796875 535.136719 383.933594 535.164062 384.078125 C 535.195312 384.226562 535.191406 384.371094 535.164062 384.519531 C 535.132812 384.664062 535.078125 384.800781 534.996094 384.921875 C 534.910156 385.046875 534.808594 385.148438 534.683594 385.230469 C 534.558594 385.3125 534.421875 385.371094 534.277344 385.398438 C 534.132812 385.425781 533.984375 385.425781 533.839844 385.398438 C 533.691406 385.367188 533.558594 385.3125 533.433594 385.226562 L 531.570312 383.972656 C 531.445312 383.890625 531.339844 383.785156 531.257812 383.660156 C 531.175781 383.539062 531.121094 383.402344 531.09375 383.257812 C 531.0625 383.109375 531.0625 382.964844 531.09375 382.816406 C 531.125 382.671875 531.179688 382.535156 531.261719 382.414062 C 531.347656 382.289062 531.449219 382.1875 531.574219 382.105469 C 531.699219 382.019531 531.832031 381.964844 531.980469 381.9375 C 532.125 381.910156 532.273438 381.910156 532.417969 381.9375 C 532.566406 381.96875 532.699219 382.023438 532.824219 382.109375 Z M 540.285156 387.125 L 542.152344 388.382812 C 542.277344 388.464844 542.378906 388.570312 542.460938 388.691406 C 542.542969 388.816406 542.597656 388.953125 542.628906 389.097656 C 542.65625 389.246094 542.65625 389.390625 542.625 389.539062 C 542.597656 389.683594 542.539062 389.820312 542.457031 389.941406 C 542.375 390.066406 542.269531 390.167969 542.144531 390.25 C 542.023438 390.332031 541.886719 390.390625 541.742188 390.417969 C 541.59375 390.445312 541.449219 390.445312 541.300781 390.417969 C 541.15625 390.386719 541.019531 390.332031 540.898438 390.246094 L 539.03125 388.992188 C 538.90625 388.910156 538.804688 388.804688 538.722656 388.679688 C 538.640625 388.558594 538.585938 388.421875 538.554688 388.277344 C 538.527344 388.128906 538.527344 387.984375 538.558594 387.835938 C 538.585938 387.691406 538.644531 387.554688 538.726562 387.433594 C 538.808594 387.308594 538.914062 387.207031 539.035156 387.125 C 539.160156 387.039062 539.296875 386.984375 539.441406 386.957031 C 539.589844 386.929688 539.734375 386.929688 539.882812 386.957031 C 540.027344 386.988281 540.164062 387.042969 540.285156 387.125 Z M 547.75 392.144531 L 549.613281 393.402344 C 549.738281 393.484375 549.84375 393.589844 549.925781 393.710938 C 550.007812 393.835938 550.0625 393.972656 550.089844 394.117188 C 550.121094 394.265625 550.121094 394.410156 550.089844 394.558594 C 550.058594 394.703125 550.003906 394.839844 549.921875 394.960938 C 549.835938 395.085938 549.734375 395.1875 549.609375 395.269531 C 549.484375 395.351562 549.351562 395.410156 549.203125 395.4375 C 549.058594 395.464844 548.910156 395.464844 548.765625 395.4375 C 548.617188 395.40625 548.484375 395.351562 548.359375 395.265625 L 546.496094 394.011719 C 546.371094 393.929688 546.269531 393.824219 546.183594 393.699219 C 546.101562 393.578125 546.046875 393.441406 546.019531 393.296875 C 545.988281 393.148438 545.992188 393.003906 546.019531 392.855469 C 546.050781 392.710938 546.105469 392.574219 546.1875 392.453125 C 546.273438 392.328125 546.375 392.226562 546.5 392.144531 C 546.625 392.058594 546.757812 392.003906 546.90625 391.976562 C 547.050781 391.949219 547.199219 391.949219 547.34375 391.976562 C 547.492188 392.007812 547.625 392.0625 547.75 392.144531 Z M 555.210938 397.164062 L 557.078125 398.421875 C 557.203125 398.503906 557.304688 398.609375 557.386719 398.730469 C 557.46875 398.855469 557.523438 398.992188 557.554688 399.136719 C 557.582031 399.285156 557.582031 399.429688 557.550781 399.578125 C 557.523438 399.722656 557.46875 399.855469 557.382812 399.980469 C 557.300781 400.105469 557.195312 400.207031 557.074219 400.289062 C 556.949219 400.371094 556.8125 400.429688 556.667969 400.457031 C 556.519531 400.484375 556.375 400.484375 556.226562 400.457031 C 556.082031 400.425781 555.945312 400.371094 555.824219 400.285156 L 553.957031 399.03125 C 553.832031 398.949219 553.730469 398.84375 553.648438 398.71875 C 553.566406 398.597656 553.511719 398.460938 553.480469 398.316406 C 553.453125 398.167969 553.453125 398.023438 553.484375 397.875 C 553.511719 397.730469 553.570312 397.59375 553.652344 397.472656 C 553.734375 397.347656 553.839844 397.246094 553.964844 397.160156 C 554.085938 397.078125 554.222656 397.023438 554.367188 396.996094 C 554.515625 396.96875 554.660156 396.96875 554.808594 396.996094 C 554.953125 397.027344 555.089844 397.082031 555.210938 397.164062 Z M 562.675781 402.183594 L 564.542969 403.441406 C 564.664062 403.523438 564.769531 403.628906 564.851562 403.75 C 564.933594 403.875 564.988281 404.011719 565.015625 404.15625 C 565.046875 404.304688 565.046875 404.449219 565.015625 404.597656 C 564.984375 404.742188 564.929688 404.875 564.847656 405 C 564.761719 405.125 564.660156 405.226562 564.535156 405.308594 C 564.410156 405.390625 564.277344 405.449219 564.128906 405.476562 C 563.984375 405.503906 563.835938 405.503906 563.691406 405.476562 C 563.542969 405.445312 563.410156 405.390625 563.285156 405.304688 L 561.421875 404.050781 C 561.296875 403.96875 561.195312 403.863281 561.109375 403.738281 C 561.027344 403.617188 560.972656 403.480469 560.945312 403.335938 C 560.917969 403.1875 560.917969 403.042969 560.945312 402.894531 C 560.976562 402.75 561.03125 402.613281 561.113281 402.492188 C 561.199219 402.367188 561.300781 402.265625 561.425781 402.179688 C 561.550781 402.097656 561.6875 402.042969 561.832031 402.015625 C 561.976562 401.984375 562.125 401.988281 562.269531 402.015625 C 562.417969 402.046875 562.550781 402.101562 562.675781 402.183594 Z M 562.675781 402.183594 " fill-opacity="1" fill-rule="nonzero"/><g clip-path="url(#6c9bd48928)"><g clip-path="url(#1ebd4e5f08)"><g clip-path="url(#32d7e9b2d2)"><path fill="#ffc000" d="M 285.789062 283.59375 L 346.113281 191.394531 L 381.863281 214.789062 L 321.539062 306.984375 Z M 285.789062 283.59375 " fill-opacity="1" fill-rule="nonzero"/></g></g></g></svg>