<svg xmlns="http://www.w3.org/2000/svg" xmlns:xlink="http://www.w3.org/1999/xlink" width="847" zoomAndPan="magnify" viewBox="0 0 635.25 449.249995" height="599" preserveAspectRatio="xMidYMid meet" version="1.0"><defs><filter x="0%" y="0%" width="100%" height="100%" id="8859177dfa"><feColorMatrix values="0 0 0 0 1 0 0 0 0 1 0 0 0 0 1 0 0 0 1 0" color-interpolation-filters="sRGB"/></filter><g/><clipPath id="c45a292a67"><path d="M 104.449219 75.085938 L 219.226562 75.085938 L 219.226562 116.402344 L 104.449219 116.402344 Z M 104.449219 75.085938 " clip-rule="nonzero"/></clipPath><clipPath id="2e7b19eaa4"><path d="M 223.472656 75.085938 L 329.605469 75.085938 L 329.605469 116.402344 L 223.472656 116.402344 Z M 223.472656 75.085938 " clip-rule="nonzero"/></clipPath><clipPath id="ae7525eb6b"><path d="M 113.09375 120.980469 L 219.226562 120.980469 L 219.226562 159.191406 L 113.09375 159.191406 Z M 113.09375 120.980469 " clip-rule="nonzero"/></clipPath><clipPath id="7c90ff7a80"><path d="M 223.472656 120.980469 L 329.605469 120.980469 L 329.605469 159.191406 L 223.472656 159.191406 Z M 223.472656 120.980469 " clip-rule="nonzero"/></clipPath><clipPath id="df8621214a"><path d="M 333.851562 75.085938 L 439.984375 75.085938 L 439.984375 116.402344 L 333.851562 116.402344 Z M 333.851562 75.085938 " clip-rule="nonzero"/></clipPath><clipPath id="b281cd88d1"><path d="M 444.230469 75.085938 L 559 75.085938 L 559 116.402344 L 444.230469 116.402344 Z M 444.230469 75.085938 " clip-rule="nonzero"/></clipPath><clipPath id="c801a6d9e4"><path d="M 333.851562 120.980469 L 439.984375 120.980469 L 439.984375 159.191406 L 333.851562 159.191406 Z M 333.851562 120.980469 " clip-rule="nonzero"/></clipPath><clipPath id="18f89584b9"><path d="M 444.230469 120.980469 L 550.363281 120.980469 L 550.363281 159.191406 L 444.230469 159.191406 Z M 444.230469 120.980469 " clip-rule="nonzero"/></clipPath><clipPath id="4ebf891cc9"><path d="M 113.09375 163.765625 L 219.226562 163.765625 L 219.226562 201.972656 L 113.09375 201.972656 Z M 113.09375 163.765625 " clip-rule="nonzero"/></clipPath><mask id="8d7b934cdf"><g filter="url(#8859177dfa)"><rect x="-63.525" width="762.3" fill="#000000" y="-44.924999" height="539.099994" fill-opacity="0.4"/></g></mask><clipPath id="fc249c043a"><path d="M 0.09375 0.765625 L 106.226562 0.765625 L 106.226562 38.972656 L 0.09375 38.972656 Z M 0.09375 0.765625 " clip-rule="nonzero"/></clipPath><clipPath id="d79291080f"><rect x="0" width="107" y="0" height="39"/></clipPath><clipPath id="a9e163dd5b"><path d="M 223.472656 163.765625 L 329.605469 163.765625 L 329.605469 201.972656 L 223.472656 201.972656 Z M 223.472656 163.765625 " clip-rule="nonzero"/></clipPath><mask id="5e88eeacb6"><g filter="url(#8859177dfa)"><rect x="-63.525" width="762.3" fill="#000000" y="-44.924999" height="539.099994" fill-opacity="0.298"/></g></mask><clipPath id="1111f45201"><path d="M 0.472656 0.765625 L 106.605469 0.765625 L 106.605469 38.972656 L 0.472656 38.972656 Z M 0.472656 0.765625 " clip-rule="nonzero"/></clipPath><clipPath id="9916fe95d5"><rect x="0" width="107" y="0" height="39"/></clipPath><clipPath id="b01eb6b3fd"><path d="M 113.09375 206.546875 L 219.226562 206.546875 L 219.226562 244.757812 L 113.09375 244.757812 Z M 113.09375 206.546875 " clip-rule="nonzero"/></clipPath><clipPath id="6419707b2b"><path d="M 223.472656 206.546875 L 329.605469 206.546875 L 329.605469 244.757812 L 223.472656 244.757812 Z M 223.472656 206.546875 " clip-rule="nonzero"/></clipPath><clipPath id="1d06d7ae77"><path d="M 333.851562 163.765625 L 439.984375 163.765625 L 439.984375 201.972656 L 333.851562 201.972656 Z M 333.851562 163.765625 " clip-rule="nonzero"/></clipPath><mask id="0ce0bc289d"><g filter="url(#8859177dfa)"><rect x="-63.525" width="762.3" fill="#000000" y="-44.924999" height="539.099994" fill-opacity="0.298"/></g></mask><clipPath id="671395a06b"><path d="M 0.851562 0.765625 L 106.984375 0.765625 L 106.984375 38.972656 L 0.851562 38.972656 Z M 0.851562 0.765625 " clip-rule="nonzero"/></clipPath><clipPath id="057dab94ca"><rect x="0" width="107" y="0" height="39"/></clipPath><clipPath id="ac3ab7d14e"><path d="M 444.230469 163.765625 L 550.363281 163.765625 L 550.363281 201.972656 L 444.230469 201.972656 Z M 444.230469 163.765625 " clip-rule="nonzero"/></clipPath><mask id="c4326da897"><g filter="url(#8859177dfa)"><rect x="-63.525" width="762.3" fill="#000000" y="-44.924999" height="539.099994" fill-opacity="0.298"/></g></mask><clipPath id="5410416c73"><path d="M 0.230469 0.765625 L 106.363281 0.765625 L 106.363281 38.972656 L 0.230469 38.972656 Z M 0.230469 0.765625 " clip-rule="nonzero"/></clipPath><clipPath id="d050066968"><rect x="0" width="107" y="0" height="39"/></clipPath><clipPath id="7aea8db6ca"><path d="M 333.851562 206.546875 L 439.984375 206.546875 L 439.984375 244.757812 L 333.851562 244.757812 Z M 333.851562 206.546875 " clip-rule="nonzero"/></clipPath><clipPath id="0630d8422a"><path d="M 444.230469 206.546875 L 550.363281 206.546875 L 550.363281 244.757812 L 444.230469 244.757812 Z M 444.230469 206.546875 " clip-rule="nonzero"/></clipPath><clipPath id="ea9da3043b"><path d="M 113.09375 249.332031 L 219.226562 249.332031 L 219.226562 287.542969 L 113.09375 287.542969 Z M 113.09375 249.332031 " clip-rule="nonzero"/></clipPath><clipPath id="7f2cdc43cb"><path d="M 223.472656 249.332031 L 329.605469 249.332031 L 329.605469 287.542969 L 223.472656 287.542969 Z M 223.472656 249.332031 " clip-rule="nonzero"/></clipPath><clipPath id="32a0886a92"><path d="M 333.851562 249.332031 L 439.984375 249.332031 L 439.984375 287.542969 L 333.851562 287.542969 Z M 333.851562 249.332031 " clip-rule="nonzero"/></clipPath><clipPath id="a790fee2de"><path d="M 444.230469 249.332031 L 550.363281 249.332031 L 550.363281 287.542969 L 444.230469 287.542969 Z M 444.230469 249.332031 " clip-rule="nonzero"/></clipPath><clipPath id="9756608409"><path d="M 113.09375 292.117188 L 219.226562 292.117188 L 219.226562 330.324219 L 113.09375 330.324219 Z M 113.09375 292.117188 " clip-rule="nonzero"/></clipPath><mask id="5adf67d1ba"><g filter="url(#8859177dfa)"><rect x="-63.525" width="762.3" fill="#000000" y="-44.924999" height="539.099994" fill-opacity="0.4"/></g></mask><clipPath id="a52ec2a75e"><path d="M 0.09375 0.117188 L 106.226562 0.117188 L 106.226562 38.324219 L 0.09375 38.324219 Z M 0.09375 0.117188 " clip-rule="nonzero"/></clipPath><clipPath id="ad93d5878e"><rect x="0" width="107" y="0" height="39"/></clipPath><clipPath id="85333d7bdd"><path d="M 223.472656 292.117188 L 329.605469 292.117188 L 329.605469 330.324219 L 223.472656 330.324219 Z M 223.472656 292.117188 " clip-rule="nonzero"/></clipPath><mask id="357f689a69"><g filter="url(#8859177dfa)"><rect x="-63.525" width="762.3" fill="#000000" y="-44.924999" height="539.099994" fill-opacity="0.298"/></g></mask><clipPath id="327c63148a"><path d="M 0.472656 0.117188 L 106.605469 0.117188 L 106.605469 38.324219 L 0.472656 38.324219 Z M 0.472656 0.117188 " clip-rule="nonzero"/></clipPath><clipPath id="f247aa9b9d"><rect x="0" width="107" y="0" height="39"/></clipPath><clipPath id="450d4ea528"><path d="M 333.851562 292.117188 L 439.984375 292.117188 L 439.984375 330.324219 L 333.851562 330.324219 Z M 333.851562 292.117188 " clip-rule="nonzero"/></clipPath><mask id="0eeb8ace63"><g filter="url(#8859177dfa)"><rect x="-63.525" width="762.3" fill="#000000" y="-44.924999" height="539.099994" fill-opacity="0.298"/></g></mask><clipPath id="9c07f724d6"><path d="M 0.851562 0.117188 L 106.984375 0.117188 L 106.984375 38.324219 L 0.851562 38.324219 Z M 0.851562 0.117188 " clip-rule="nonzero"/></clipPath><clipPath id="df30d9232b"><rect x="0" width="107" y="0" height="39"/></clipPath><clipPath id="7d1393b133"><path d="M 444.230469 292.117188 L 550.363281 292.117188 L 550.363281 330.324219 L 444.230469 330.324219 Z M 444.230469 292.117188 " clip-rule="nonzero"/></clipPath><mask id="e3d2043cb2"><g filter="url(#8859177dfa)"><rect x="-63.525" width="762.3" fill="#000000" y="-44.924999" height="539.099994" fill-opacity="0.298"/></g></mask><clipPath id="38301cc5c1"><path d="M 0.230469 0.117188 L 106.363281 0.117188 L 106.363281 38.324219 L 0.230469 38.324219 Z M 0.230469 0.117188 " clip-rule="nonzero"/></clipPath><clipPath id="3bad0f93a4"><rect x="0" width="107" y="0" height="39"/></clipPath><clipPath id="12b132fc27"><path d="M 113.09375 334.898438 L 219.226562 334.898438 L 219.226562 373.109375 L 113.09375 373.109375 Z M 113.09375 334.898438 " clip-rule="nonzero"/></clipPath><clipPath id="1a57350936"><path d="M 223.472656 334.898438 L 329.605469 334.898438 L 329.605469 373.109375 L 223.472656 373.109375 Z M 223.472656 334.898438 " clip-rule="nonzero"/></clipPath><clipPath id="97c97dc0ba"><path d="M 333.851562 334.898438 L 439.984375 334.898438 L 439.984375 373.109375 L 333.851562 373.109375 Z M 333.851562 334.898438 " clip-rule="nonzero"/></clipPath><clipPath id="6368a1d21a"><path d="M 444.230469 334.898438 L 550.363281 334.898438 L 550.363281 373.109375 L 444.230469 373.109375 Z M 444.230469 334.898438 " clip-rule="nonzero"/></clipPath></defs><g clip-path="url(#c45a292a67)"><path fill="#d9d9d9" d="M 104.449219 75.085938 L 219.007812 75.085938 L 219.007812 116.269531 L 104.449219 116.269531 Z M 104.449219 75.085938 " fill-opacity="1" fill-rule="nonzero"/></g><g clip-path="url(#2e7b19eaa4)"><path fill="#d9d9d9" d="M 223.472656 75.085938 L 329.792969 75.085938 L 329.792969 116.269531 L 223.472656 116.269531 Z M 223.472656 75.085938 " fill-opacity="1" fill-rule="nonzero"/></g><g clip-path="url(#ae7525eb6b)"><path fill="#ffde59" d="M 113.09375 120.980469 L 219.414062 120.980469 L 219.414062 159.167969 L 113.09375 159.167969 Z M 113.09375 120.980469 " fill-opacity="1" fill-rule="nonzero"/></g><g fill="#808080" fill-opacity="1"><g transform="translate(158.660419, 149.434109)"><g><path d="M 1.703125 0 L 1.703125 -2.75 L 6.296875 -2.75 L 6.296875 -15.390625 L 1.84375 -12.625 L 1.84375 -15.53125 L 6.484375 -18.546875 L 9.984375 -18.546875 L 9.984375 -2.75 L 14.234375 -2.75 L 14.234375 0 Z M 1.703125 0 "/></g></g></g><g clip-path="url(#7c90ff7a80)"><path fill="#f2f2f2" d="M 223.472656 120.980469 L 329.792969 120.980469 L 329.792969 159.167969 L 223.472656 159.167969 Z M 223.472656 120.980469 " fill-opacity="1" fill-rule="nonzero"/></g><g clip-path="url(#df8621214a)"><path fill="#d9d9d9" d="M 333.851562 75.085938 L 440.171875 75.085938 L 440.171875 116.269531 L 333.851562 116.269531 Z M 333.851562 75.085938 " fill-opacity="1" fill-rule="nonzero"/></g><g clip-path="url(#b281cd88d1)"><path fill="#d9d9d9" d="M 444.230469 75.085938 L 558.789062 75.085938 L 558.789062 116.269531 L 444.230469 116.269531 Z M 444.230469 75.085938 " fill-opacity="1" fill-rule="nonzero"/></g><g clip-path="url(#c801a6d9e4)"><path fill="#f2f2f2" d="M 333.851562 120.980469 L 440.171875 120.980469 L 440.171875 159.167969 L 333.851562 159.167969 Z M 333.851562 120.980469 " fill-opacity="1" fill-rule="nonzero"/></g><g clip-path="url(#18f89584b9)"><path fill="#f2f2f2" d="M 444.230469 120.980469 L 550.550781 120.980469 L 550.550781 159.167969 L 444.230469 159.167969 Z M 444.230469 120.980469 " fill-opacity="1" fill-rule="nonzero"/></g><g clip-path="url(#4ebf891cc9)"><g mask="url(#8d7b934cdf)"><g transform="matrix(1, 0, 0, 1, 113, 163)"><g clip-path="url(#d79291080f)"><g clip-path="url(#fc249c043a)"><path fill="#e60000" d="M 0.09375 0.765625 L 106.414062 0.765625 L 106.414062 38.953125 L 0.09375 38.953125 Z M 0.09375 0.765625 " fill-opacity="1" fill-rule="nonzero"/></g></g></g></g></g><g fill="#808080" fill-opacity="1"><g transform="translate(158.660419, 192.217681)"><g><path d="M 1.703125 0 L 1.703125 -2.75 L 6.296875 -2.75 L 6.296875 -15.390625 L 1.84375 -12.625 L 1.84375 -15.53125 L 6.484375 -18.546875 L 9.984375 -18.546875 L 9.984375 -2.75 L 14.234375 -2.75 L 14.234375 0 Z M 1.703125 0 "/></g></g></g><g clip-path="url(#a9e163dd5b)"><g mask="url(#5e88eeacb6)"><g transform="matrix(1, 0, 0, 1, 223, 163)"><g clip-path="url(#9916fe95d5)"><g clip-path="url(#1111f45201)"><path fill="#e60000" d="M 0.472656 0.765625 L 106.792969 0.765625 L 106.792969 38.953125 L 0.472656 38.953125 Z M 0.472656 0.765625 " fill-opacity="1" fill-rule="nonzero"/></g></g></g></g></g><g clip-path="url(#b01eb6b3fd)"><path fill="#d9d9d9" d="M 113.09375 206.546875 L 219.414062 206.546875 L 219.414062 244.734375 L 113.09375 244.734375 Z M 113.09375 206.546875 " fill-opacity="1" fill-rule="nonzero"/></g><g fill="#808080" fill-opacity="1"><g transform="translate(158.660419, 235.001269)"><g><path d="M 0.9375 0 L 0.9375 -2.5625 C 1.414062 -3.625 2.097656 -4.660156 2.984375 -5.671875 C 3.878906 -6.679688 5.003906 -7.734375 6.359375 -8.828125 C 7.648438 -9.878906 8.554688 -10.75 9.078125 -11.4375 C 9.609375 -12.125 9.875 -12.796875 9.875 -13.453125 C 9.875 -15.066406 9.0625 -15.875 7.4375 -15.875 C 6.644531 -15.875 6.039062 -15.660156 5.625 -15.234375 C 5.207031 -14.804688 4.9375 -14.164062 4.8125 -13.3125 L 1.09375 -13.53125 C 1.300781 -15.25 1.941406 -16.554688 3.015625 -17.453125 C 4.085938 -18.359375 5.550781 -18.8125 7.40625 -18.8125 C 9.40625 -18.8125 10.941406 -18.351562 12.015625 -17.4375 C 13.085938 -16.53125 13.625 -15.253906 13.625 -13.609375 C 13.625 -12.742188 13.453125 -11.957031 13.109375 -11.25 C 12.765625 -10.550781 12.320312 -9.90625 11.78125 -9.3125 C 11.25 -8.71875 10.65625 -8.160156 10 -7.640625 C 9.351562 -7.128906 8.722656 -6.625 8.109375 -6.125 C 7.492188 -5.632812 6.929688 -5.140625 6.421875 -4.640625 C 5.921875 -4.140625 5.546875 -3.609375 5.296875 -3.046875 L 13.90625 -3.046875 L 13.90625 0 Z M 0.9375 0 "/></g></g></g><g clip-path="url(#6419707b2b)"><path fill="#f2f2f2" d="M 223.472656 206.546875 L 329.792969 206.546875 L 329.792969 244.734375 L 223.472656 244.734375 Z M 223.472656 206.546875 " fill-opacity="1" fill-rule="nonzero"/></g><g clip-path="url(#1d06d7ae77)"><g mask="url(#0ce0bc289d)"><g transform="matrix(1, 0, 0, 1, 333, 163)"><g clip-path="url(#057dab94ca)"><g clip-path="url(#671395a06b)"><path fill="#e60000" d="M 0.851562 0.765625 L 107.171875 0.765625 L 107.171875 38.953125 L 0.851562 38.953125 Z M 0.851562 0.765625 " fill-opacity="1" fill-rule="nonzero"/></g></g></g></g></g><g clip-path="url(#ac3ab7d14e)"><g mask="url(#c4326da897)"><g transform="matrix(1, 0, 0, 1, 444, 163)"><g clip-path="url(#d050066968)"><g clip-path="url(#5410416c73)"><path fill="#e60000" d="M 0.230469 0.765625 L 106.550781 0.765625 L 106.550781 38.953125 L 0.230469 38.953125 Z M 0.230469 0.765625 " fill-opacity="1" fill-rule="nonzero"/></g></g></g></g></g><g clip-path="url(#7aea8db6ca)"><path fill="#f2f2f2" d="M 333.851562 206.546875 L 440.171875 206.546875 L 440.171875 244.734375 L 333.851562 244.734375 Z M 333.851562 206.546875 " fill-opacity="1" fill-rule="nonzero"/></g><g clip-path="url(#0630d8422a)"><path fill="#f2f2f2" d="M 444.230469 206.546875 L 550.550781 206.546875 L 550.550781 244.734375 L 444.230469 244.734375 Z M 444.230469 206.546875 " fill-opacity="1" fill-rule="nonzero"/></g><g clip-path="url(#ea9da3043b)"><path fill="#ffde59" d="M 113.09375 249.332031 L 219.414062 249.332031 L 219.414062 287.519531 L 113.09375 287.519531 Z M 113.09375 249.332031 " fill-opacity="1" fill-rule="nonzero"/></g><g fill="#808080" fill-opacity="1"><g transform="translate(158.660419, 277.784841)"><g><path d="M 14.015625 -5.140625 C 14.015625 -3.410156 13.441406 -2.070312 12.296875 -1.125 C 11.160156 -0.175781 9.539062 0.296875 7.4375 0.296875 C 5.445312 0.296875 3.863281 -0.160156 2.6875 -1.078125 C 1.507812 -1.992188 0.820312 -3.316406 0.625 -5.046875 L 4.375 -5.375 C 4.613281 -3.59375 5.628906 -2.703125 7.421875 -2.703125 C 8.304688 -2.703125 8.992188 -2.921875 9.484375 -3.359375 C 9.972656 -3.796875 10.21875 -4.46875 10.21875 -5.375 C 10.21875 -6.195312 9.921875 -6.828125 9.328125 -7.265625 C 8.734375 -7.703125 7.847656 -7.921875 6.671875 -7.921875 L 5.375 -7.921875 L 5.375 -10.90625 L 6.59375 -10.90625 C 7.65625 -10.90625 8.453125 -11.125 8.984375 -11.5625 C 9.523438 -12 9.796875 -12.617188 9.796875 -13.421875 C 9.796875 -14.179688 9.582031 -14.78125 9.15625 -15.21875 C 8.726562 -15.65625 8.109375 -15.875 7.296875 -15.875 C 6.523438 -15.875 5.90625 -15.660156 5.4375 -15.234375 C 4.96875 -14.816406 4.695312 -14.222656 4.625 -13.453125 L 0.9375 -13.71875 C 1.125 -15.3125 1.785156 -16.554688 2.921875 -17.453125 C 4.054688 -18.359375 5.535156 -18.8125 7.359375 -18.8125 C 9.296875 -18.8125 10.8125 -18.375 11.90625 -17.5 C 13 -16.632812 13.546875 -15.429688 13.546875 -13.890625 C 13.546875 -12.722656 13.203125 -11.765625 12.515625 -11.015625 C 11.835938 -10.273438 10.859375 -9.785156 9.578125 -9.546875 L 9.578125 -9.484375 C 11.003906 -9.316406 12.097656 -8.847656 12.859375 -8.078125 C 13.628906 -7.316406 14.015625 -6.335938 14.015625 -5.140625 Z M 14.015625 -5.140625 "/></g></g></g><g clip-path="url(#7f2cdc43cb)"><path fill="#f2f2f2" d="M 223.472656 249.332031 L 329.792969 249.332031 L 329.792969 287.519531 L 223.472656 287.519531 Z M 223.472656 249.332031 " fill-opacity="1" fill-rule="nonzero"/></g><g clip-path="url(#32a0886a92)"><path fill="#f2f2f2" d="M 333.851562 249.332031 L 440.171875 249.332031 L 440.171875 287.519531 L 333.851562 287.519531 Z M 333.851562 249.332031 " fill-opacity="1" fill-rule="nonzero"/></g><g clip-path="url(#a790fee2de)"><path fill="#f2f2f2" d="M 444.230469 249.332031 L 550.550781 249.332031 L 550.550781 287.519531 L 444.230469 287.519531 Z M 444.230469 249.332031 " fill-opacity="1" fill-rule="nonzero"/></g><g clip-path="url(#9756608409)"><g mask="url(#5adf67d1ba)"><g transform="matrix(1, 0, 0, 1, 113, 292)"><g clip-path="url(#ad93d5878e)"><g clip-path="url(#a52ec2a75e)"><path fill="#e60000" d="M 0.09375 0.117188 L 106.414062 0.117188 L 106.414062 38.300781 L 0.09375 38.300781 Z M 0.09375 0.117188 " fill-opacity="1" fill-rule="nonzero"/></g></g></g></g></g><g fill="#808080" fill-opacity="1"><g transform="translate(158.660419, 320.568414)"><g><path d="M 14.015625 -5.140625 C 14.015625 -3.410156 13.441406 -2.070312 12.296875 -1.125 C 11.160156 -0.175781 9.539062 0.296875 7.4375 0.296875 C 5.445312 0.296875 3.863281 -0.160156 2.6875 -1.078125 C 1.507812 -1.992188 0.820312 -3.316406 0.625 -5.046875 L 4.375 -5.375 C 4.613281 -3.59375 5.628906 -2.703125 7.421875 -2.703125 C 8.304688 -2.703125 8.992188 -2.921875 9.484375 -3.359375 C 9.972656 -3.796875 10.21875 -4.46875 10.21875 -5.375 C 10.21875 -6.195312 9.921875 -6.828125 9.328125 -7.265625 C 8.734375 -7.703125 7.847656 -7.921875 6.671875 -7.921875 L 5.375 -7.921875 L 5.375 -10.90625 L 6.59375 -10.90625 C 7.65625 -10.90625 8.453125 -11.125 8.984375 -11.5625 C 9.523438 -12 9.796875 -12.617188 9.796875 -13.421875 C 9.796875 -14.179688 9.582031 -14.78125 9.15625 -15.21875 C 8.726562 -15.65625 8.109375 -15.875 7.296875 -15.875 C 6.523438 -15.875 5.90625 -15.660156 5.4375 -15.234375 C 4.96875 -14.816406 4.695312 -14.222656 4.625 -13.453125 L 0.9375 -13.71875 C 1.125 -15.3125 1.785156 -16.554688 2.921875 -17.453125 C 4.054688 -18.359375 5.535156 -18.8125 7.359375 -18.8125 C 9.296875 -18.8125 10.8125 -18.375 11.90625 -17.5 C 13 -16.632812 13.546875 -15.429688 13.546875 -13.890625 C 13.546875 -12.722656 13.203125 -11.765625 12.515625 -11.015625 C 11.835938 -10.273438 10.859375 -9.785156 9.578125 -9.546875 L 9.578125 -9.484375 C 11.003906 -9.316406 12.097656 -8.847656 12.859375 -8.078125 C 13.628906 -7.316406 14.015625 -6.335938 14.015625 -5.140625 Z M 14.015625 -5.140625 "/></g></g></g><g clip-path="url(#85333d7bdd)"><g mask="url(#357f689a69)"><g transform="matrix(1, 0, 0, 1, 223, 292)"><g clip-path="url(#f247aa9b9d)"><g clip-path="url(#327c63148a)"><path fill="#e60000" d="M 0.472656 0.117188 L 106.792969 0.117188 L 106.792969 38.300781 L 0.472656 38.300781 Z M 0.472656 0.117188 " fill-opacity="1" fill-rule="nonzero"/></g></g></g></g></g><g clip-path="url(#450d4ea528)"><g mask="url(#0eeb8ace63)"><g transform="matrix(1, 0, 0, 1, 333, 292)"><g clip-path="url(#df30d9232b)"><g clip-path="url(#9c07f724d6)"><path fill="#e60000" d="M 0.851562 0.117188 L 107.171875 0.117188 L 107.171875 38.300781 L 0.851562 38.300781 Z M 0.851562 0.117188 " fill-opacity="1" fill-rule="nonzero"/></g></g></g></g></g><g clip-path="url(#7d1393b133)"><g mask="url(#e3d2043cb2)"><g transform="matrix(1, 0, 0, 1, 444, 292)"><g clip-path="url(#3bad0f93a4)"><g clip-path="url(#38301cc5c1)"><path fill="#e60000" d="M 0.230469 0.117188 L 106.550781 0.117188 L 106.550781 38.300781 L 0.230469 38.300781 Z M 0.230469 0.117188 " fill-opacity="1" fill-rule="nonzero"/></g></g></g></g></g><g clip-path="url(#12b132fc27)"><path fill="#d9d9d9" d="M 113.09375 334.898438 L 219.414062 334.898438 L 219.414062 373.085938 L 113.09375 373.085938 Z M 113.09375 334.898438 " fill-opacity="1" fill-rule="nonzero"/></g><g fill="#808080" fill-opacity="1"><g transform="translate(158.660419, 363.351987)"><g><path d="M 12.375 -3.78125 L 12.375 0 L 8.84375 0 L 8.84375 -3.78125 L 0.40625 -3.78125 L 0.40625 -6.546875 L 8.234375 -18.546875 L 12.375 -18.546875 L 12.375 -6.53125 L 14.84375 -6.53125 L 14.84375 -3.78125 Z M 8.84375 -12.59375 C 8.84375 -13.070312 8.859375 -13.585938 8.890625 -14.140625 C 8.921875 -14.691406 8.945312 -15.046875 8.96875 -15.203125 C 8.738281 -14.710938 8.320312 -14 7.71875 -13.0625 L 3.421875 -6.53125 L 8.84375 -6.53125 Z M 8.84375 -12.59375 "/></g></g></g><g clip-path="url(#1a57350936)"><path fill="#f2f2f2" d="M 223.472656 334.898438 L 329.792969 334.898438 L 329.792969 373.085938 L 223.472656 373.085938 Z M 223.472656 334.898438 " fill-opacity="1" fill-rule="nonzero"/></g><g clip-path="url(#97c97dc0ba)"><path fill="#f2f2f2" d="M 333.851562 334.898438 L 440.171875 334.898438 L 440.171875 373.085938 L 333.851562 373.085938 Z M 333.851562 334.898438 " fill-opacity="1" fill-rule="nonzero"/></g><g clip-path="url(#6368a1d21a)"><path fill="#f2f2f2" d="M 444.230469 334.898438 L 550.550781 334.898438 L 550.550781 373.085938 L 444.230469 373.085938 Z M 444.230469 334.898438 " fill-opacity="1" fill-rule="nonzero"/></g><g fill="#767171" fill-opacity="1"><g transform="translate(75.308513, 188.241292)"><g><path d="M 15.390625 -9.8125 L 20.28125 -4.921875 L 16.1875 -0.828125 L 11.296875 -5.71875 L 6.390625 -0.828125 L 2.296875 -4.921875 L 7.203125 -9.8125 L 2.296875 -14.71875 L 6.390625 -18.8125 L 11.296875 -13.90625 L 16.1875 -18.8125 L 20.28125 -14.734375 Z M 15.390625 -9.8125 "/></g></g></g><g fill="#767171" fill-opacity="1"><g transform="translate(75.308513, 320.022236)"><g><path d="M 15.390625 -9.8125 L 20.28125 -4.921875 L 16.1875 -0.828125 L 11.296875 -5.71875 L 6.390625 -0.828125 L 2.296875 -4.921875 L 7.203125 -9.8125 L 2.296875 -14.71875 L 6.390625 -18.8125 L 11.296875 -13.90625 L 16.1875 -18.8125 L 20.28125 -14.734375 Z M 15.390625 -9.8125 "/></g></g></g></svg>