<svg xmlns="http://www.w3.org/2000/svg" xmlns:xlink="http://www.w3.org/1999/xlink" width="1919" zoomAndPan="magnify" viewBox="0 0 1439.25 371.999986" height="496" preserveAspectRatio="xMidYMid meet" version="1.0"><defs><filter x="0%" y="0%" width="100%" height="100%" id="436f090493"><feColorMatrix values="0 0 0 0 1 0 0 0 0 1 0 0 0 0 1 0 0 0 1 0" color-interpolation-filters="sRGB"/></filter><g/><clipPath id="0649ed01d6"><path d="M 75.332031 153.953125 L 262 153.953125 L 262 221.25 L 75.332031 221.25 Z M 75.332031 153.953125 " clip-rule="nonzero"/></clipPath><clipPath id="ea8bc1627e"><path d="M 271.160156 78.589844 L 458 78.589844 L 458 145.890625 L 271.160156 145.890625 Z M 271.160156 78.589844 " clip-rule="nonzero"/></clipPath><clipPath id="f1df55e154"><path d="M 75.332031 229.3125 L 262 229.3125 L 262 296.613281 L 75.332031 296.613281 Z M 75.332031 229.3125 " clip-rule="nonzero"/></clipPath><clipPath id="63b37dd7a4"><path d="M 271.160156 229.3125 L 458 229.3125 L 458 296.613281 L 271.160156 296.613281 Z M 271.160156 229.3125 " clip-rule="nonzero"/></clipPath><clipPath id="9eef5e4baa"><path d="M 466.984375 78.589844 L 653.929688 78.589844 L 653.929688 145.890625 L 466.984375 145.890625 Z M 466.984375 78.589844 " clip-rule="nonzero"/></clipPath><clipPath id="6d18e79543"><path d="M 466.984375 153.953125 L 653.929688 153.953125 L 653.929688 221.25 L 466.984375 221.25 Z M 466.984375 153.953125 " clip-rule="nonzero"/></clipPath><mask id="16db1c8ebf"><g filter="url(#436f090493)"><rect x="-143.925" width="1727.1" fill="#000000" y="-37.199999" height="446.399983" fill-opacity="0.498"/></g></mask><clipPath id="c6aeba653d"><path d="M 0.984375 0.953125 L 187.929688 0.953125 L 187.929688 68.25 L 0.984375 68.25 Z M 0.984375 0.953125 " clip-rule="nonzero"/></clipPath><clipPath id="2381cbb716"><rect x="0" width="188" y="0" height="69"/></clipPath><clipPath id="2d3e2d966d"><path d="M 466.984375 229.3125 L 653.929688 229.3125 L 653.929688 296.613281 L 466.984375 296.613281 Z M 466.984375 229.3125 " clip-rule="nonzero"/></clipPath><clipPath id="f3035fd9b7"><path d="M 670.679688 153.953125 L 768.878906 153.953125 L 768.878906 216 L 670.679688 216 Z M 670.679688 153.953125 " clip-rule="nonzero"/></clipPath><clipPath id="48def5a7d8"><path d="M 670.679688 169.394531 L 737.554688 169.394531 L 737.554688 153.953125 L 768.4375 184.835938 L 737.554688 215.71875 L 737.554688 200.277344 L 670.679688 200.277344 L 670.679688 169.394531 " clip-rule="nonzero"/></clipPath><mask id="2220d0f95a"><g filter="url(#436f090493)"><rect x="-143.925" width="1727.1" fill="#000000" y="-37.199999" height="446.399983" fill-opacity="0.4"/></g></mask><clipPath id="b0418e1ac5"><path d="M 0.679688 0.953125 L 98.558594 0.953125 L 98.558594 62.746094 L 0.679688 62.746094 Z M 0.679688 0.953125 " clip-rule="nonzero"/></clipPath><clipPath id="e1f4cc58d2"><path d="M 0.679688 16.394531 L 67.554688 16.394531 L 67.554688 0.953125 L 98.4375 31.835938 L 67.554688 62.71875 L 67.554688 47.277344 L 0.679688 47.277344 L 0.679688 16.394531 " clip-rule="nonzero"/></clipPath><clipPath id="3c3969f47d"><rect x="0" width="99" y="0" height="63"/></clipPath><clipPath id="5d7be29f30"><path d="M 784.703125 150.617188 L 971.648438 150.617188 L 971.648438 217.917969 L 784.703125 217.917969 Z M 784.703125 150.617188 " clip-rule="nonzero"/></clipPath><clipPath id="fa1d3bd1cf"><path d="M 980.527344 75.257812 L 1167.472656 75.257812 L 1167.472656 142.558594 L 980.527344 142.558594 Z M 980.527344 75.257812 " clip-rule="nonzero"/></clipPath><clipPath id="36918af0ae"><path d="M 980.527344 150.617188 L 1167.472656 150.617188 L 1167.472656 217.917969 L 980.527344 217.917969 Z M 980.527344 150.617188 " clip-rule="nonzero"/></clipPath><mask id="83e1340d40"><g filter="url(#436f090493)"><rect x="-143.925" width="1727.1" fill="#000000" y="-37.199999" height="446.399983" fill-opacity="0.498"/></g></mask><clipPath id="a6e91ce413"><path d="M 0.527344 0.617188 L 187.472656 0.617188 L 187.472656 67.917969 L 0.527344 67.917969 Z M 0.527344 0.617188 " clip-rule="nonzero"/></clipPath><clipPath id="110dfa9259"><rect x="0" width="188" y="0" height="68"/></clipPath><clipPath id="d01ef5e467"><path d="M 784.703125 225.980469 L 971.648438 225.980469 L 971.648438 293.277344 L 784.703125 293.277344 Z M 784.703125 225.980469 " clip-rule="nonzero"/></clipPath><clipPath id="f4bb190bbe"><path d="M 980.527344 225.980469 L 1167.472656 225.980469 L 1167.472656 293.277344 L 980.527344 293.277344 Z M 980.527344 225.980469 " clip-rule="nonzero"/></clipPath><clipPath id="786e0f3d1f"><path d="M 1176.355469 75.257812 L 1363.300781 75.257812 L 1363.300781 142.558594 L 1176.355469 142.558594 Z M 1176.355469 75.257812 " clip-rule="nonzero"/></clipPath><clipPath id="27b7410644"><path d="M 1176.355469 150.617188 L 1363.300781 150.617188 L 1363.300781 217.917969 L 1176.355469 217.917969 Z M 1176.355469 150.617188 " clip-rule="nonzero"/></clipPath><mask id="7347ba5f1b"><g filter="url(#436f090493)"><rect x="-143.925" width="1727.1" fill="#000000" y="-37.199999" height="446.399983" fill-opacity="0.498"/></g></mask><clipPath id="d79ea2146c"><path d="M 0.355469 0.617188 L 187.300781 0.617188 L 187.300781 67.917969 L 0.355469 67.917969 Z M 0.355469 0.617188 " clip-rule="nonzero"/></clipPath><clipPath id="04ad841cc0"><rect x="0" width="188" y="0" height="68"/></clipPath><clipPath id="3c85c334c1"><path d="M 1176.355469 225.980469 L 1363.300781 225.980469 L 1363.300781 293.277344 L 1176.355469 293.277344 Z M 1176.355469 225.980469 " clip-rule="nonzero"/></clipPath><clipPath id="048b0d6bea"><path d="M 271.160156 153.953125 L 458.105469 153.953125 L 458.105469 221.25 L 271.160156 221.25 Z M 271.160156 153.953125 " clip-rule="nonzero"/></clipPath><mask id="09edca21a7"><g filter="url(#436f090493)"><rect x="-143.925" width="1727.1" fill="#000000" y="-37.199999" height="446.399983" fill-opacity="0.498"/></g></mask><clipPath id="8b515ddc71"><path d="M 0.160156 0.953125 L 187 0.953125 L 187 68.25 L 0.160156 68.25 Z M 0.160156 0.953125 " clip-rule="nonzero"/></clipPath><clipPath id="9715e4cde1"><rect x="0" width="188" y="0" height="69"/></clipPath></defs><g clip-path="url(#0649ed01d6)"><path fill="#d9d9d9" d="M 75.332031 153.953125 L 261.988281 153.953125 L 261.988281 221.417969 L 75.332031 221.417969 Z M 75.332031 153.953125 " fill-opacity="1" fill-rule="nonzero"/></g><g clip-path="url(#ea8bc1627e)"><path fill="#d9d9d9" d="M 271.160156 78.589844 L 457.8125 78.589844 L 457.8125 146.054688 L 271.160156 146.054688 Z M 271.160156 78.589844 " fill-opacity="1" fill-rule="nonzero"/></g><g clip-path="url(#f1df55e154)"><path fill="#d9d9d9" d="M 75.332031 229.3125 L 261.988281 229.3125 L 261.988281 296.777344 L 75.332031 296.777344 Z M 75.332031 229.3125 " fill-opacity="1" fill-rule="nonzero"/></g><g clip-path="url(#63b37dd7a4)"><path fill="#f2f2f2" d="M 271.160156 229.3125 L 457.8125 229.3125 L 457.8125 296.777344 L 271.160156 296.777344 Z M 271.160156 229.3125 " fill-opacity="1" fill-rule="nonzero"/></g><g clip-path="url(#9eef5e4baa)"><path fill="#d9d9d9" d="M 466.984375 78.589844 L 653.636719 78.589844 L 653.636719 146.054688 L 466.984375 146.054688 Z M 466.984375 78.589844 " fill-opacity="1" fill-rule="nonzero"/></g><g clip-path="url(#6d18e79543)"><g mask="url(#16db1c8ebf)"><g transform="matrix(1, 0, 0, 1, 466, 153)"><g clip-path="url(#2381cbb716)"><g clip-path="url(#c6aeba653d)"><path fill="#ffc000" d="M 0.984375 0.953125 L 187.636719 0.953125 L 187.636719 68.417969 L 0.984375 68.417969 Z M 0.984375 0.953125 " fill-opacity="1" fill-rule="nonzero"/></g></g></g></g></g><g fill="#808080" fill-opacity="1"><g transform="translate(489.660811, 197.42923)"><g><path d="M 8.703125 0.296875 C 6.296875 0.296875 4.4375 -0.414062 3.125 -1.84375 C 1.820312 -3.28125 1.171875 -5.273438 1.171875 -7.828125 C 1.171875 -10.441406 1.828125 -12.476562 3.140625 -13.9375 C 4.460938 -15.40625 6.332031 -16.140625 8.75 -16.140625 C 10.613281 -16.140625 12.15625 -15.671875 13.375 -14.734375 C 14.601562 -13.796875 15.375 -12.5 15.6875 -10.84375 L 11.53125 -10.640625 C 11.414062 -11.453125 11.125 -12.097656 10.65625 -12.578125 C 10.1875 -13.066406 9.523438 -13.3125 8.671875 -13.3125 C 6.546875 -13.3125 5.484375 -11.539062 5.484375 -8 C 5.484375 -4.34375 6.5625 -2.515625 8.71875 -2.515625 C 9.5 -2.515625 10.15625 -2.757812 10.6875 -3.25 C 11.21875 -3.75 11.546875 -4.488281 11.671875 -5.46875 L 15.796875 -5.265625 C 15.648438 -4.179688 15.257812 -3.210938 14.625 -2.359375 C 14 -1.515625 13.171875 -0.859375 12.140625 -0.390625 C 11.117188 0.0664062 9.972656 0.296875 8.703125 0.296875 Z M 8.703125 0.296875 "/></g></g><g transform="translate(506.336691, 197.42923)"><g><path d="M 17.140625 -7.9375 C 17.140625 -5.363281 16.425781 -3.347656 15 -1.890625 C 13.582031 -0.429688 11.613281 0.296875 9.09375 0.296875 C 6.625 0.296875 4.6875 -0.429688 3.28125 -1.890625 C 1.875 -3.359375 1.171875 -5.375 1.171875 -7.9375 C 1.171875 -10.476562 1.875 -12.476562 3.28125 -13.9375 C 4.6875 -15.40625 6.65625 -16.140625 9.1875 -16.140625 C 11.769531 -16.140625 13.738281 -15.429688 15.09375 -14.015625 C 16.457031 -12.609375 17.140625 -10.582031 17.140625 -7.9375 Z M 12.84375 -7.9375 C 12.84375 -9.820312 12.535156 -11.1875 11.921875 -12.03125 C 11.304688 -12.882812 10.410156 -13.3125 9.234375 -13.3125 C 6.734375 -13.3125 5.484375 -11.519531 5.484375 -7.9375 C 5.484375 -6.164062 5.789062 -4.816406 6.40625 -3.890625 C 7.019531 -2.972656 7.898438 -2.515625 9.046875 -2.515625 C 11.578125 -2.515625 12.84375 -4.320312 12.84375 -7.9375 Z M 12.84375 -7.9375 "/></g></g><g transform="translate(524.652341, 197.42923)"><g><path d="M 17.140625 -7.9375 C 17.140625 -5.363281 16.425781 -3.347656 15 -1.890625 C 13.582031 -0.429688 11.613281 0.296875 9.09375 0.296875 C 6.625 0.296875 4.6875 -0.429688 3.28125 -1.890625 C 1.875 -3.359375 1.171875 -5.375 1.171875 -7.9375 C 1.171875 -10.476562 1.875 -12.476562 3.28125 -13.9375 C 4.6875 -15.40625 6.65625 -16.140625 9.1875 -16.140625 C 11.769531 -16.140625 13.738281 -15.429688 15.09375 -14.015625 C 16.457031 -12.609375 17.140625 -10.582031 17.140625 -7.9375 Z M 12.84375 -7.9375 C 12.84375 -9.820312 12.535156 -11.1875 11.921875 -12.03125 C 11.304688 -12.882812 10.410156 -13.3125 9.234375 -13.3125 C 6.734375 -13.3125 5.484375 -11.519531 5.484375 -7.9375 C 5.484375 -6.164062 5.789062 -4.816406 6.40625 -3.890625 C 7.019531 -2.972656 7.898438 -2.515625 9.046875 -2.515625 C 11.578125 -2.515625 12.84375 -4.320312 12.84375 -7.9375 Z M 12.84375 -7.9375 "/></g></g><g transform="translate(542.967991, 197.42923)"><g><path d="M 2.09375 0 L 2.09375 -21.734375 L 6.203125 -21.734375 L 6.203125 0 Z M 2.09375 0 "/></g></g><g transform="translate(551.29861, 197.42923)"><g/></g><g transform="translate(559.62923, 197.42923)"><g><path d="M 15.453125 -4.625 C 15.453125 -3.09375 14.820312 -1.890625 13.5625 -1.015625 C 12.3125 -0.140625 10.578125 0.296875 8.359375 0.296875 C 6.179688 0.296875 4.515625 -0.046875 3.359375 -0.734375 C 2.203125 -1.421875 1.429688 -2.492188 1.046875 -3.953125 L 4.671875 -4.5 C 4.878906 -3.75 5.234375 -3.21875 5.734375 -2.90625 C 6.234375 -2.59375 7.109375 -2.4375 8.359375 -2.4375 C 9.515625 -2.4375 10.351562 -2.582031 10.875 -2.875 C 11.40625 -3.164062 11.671875 -3.625 11.671875 -4.25 C 11.671875 -4.75 11.457031 -5.148438 11.03125 -5.453125 C 10.601562 -5.753906 9.882812 -6.003906 8.875 -6.203125 C 6.550781 -6.660156 4.984375 -7.085938 4.171875 -7.484375 C 3.359375 -7.878906 2.738281 -8.390625 2.3125 -9.015625 C 1.894531 -9.648438 1.6875 -10.425781 1.6875 -11.34375 C 1.6875 -12.851562 2.269531 -14.03125 3.4375 -14.875 C 4.601562 -15.726562 6.253906 -16.15625 8.390625 -16.15625 C 10.273438 -16.15625 11.789062 -15.785156 12.9375 -15.046875 C 14.082031 -14.316406 14.796875 -13.257812 15.078125 -11.875 L 11.4375 -11.5 C 11.320312 -12.132812 11.03125 -12.609375 10.5625 -12.921875 C 10.101562 -13.242188 9.378906 -13.40625 8.390625 -13.40625 C 7.410156 -13.40625 6.675781 -13.28125 6.1875 -13.03125 C 5.707031 -12.789062 5.46875 -12.375 5.46875 -11.78125 C 5.46875 -11.320312 5.65625 -10.957031 6.03125 -10.6875 C 6.40625 -10.425781 7.035156 -10.207031 7.921875 -10.03125 C 9.160156 -9.769531 10.257812 -9.503906 11.21875 -9.234375 C 12.1875 -8.972656 12.957031 -8.65625 13.53125 -8.28125 C 14.113281 -7.914062 14.578125 -7.441406 14.921875 -6.859375 C 15.273438 -6.273438 15.453125 -5.53125 15.453125 -4.625 Z M 15.453125 -4.625 "/></g></g><g transform="translate(576.305109, 197.42923)"><g><path d="M 17.140625 -7.9375 C 17.140625 -5.363281 16.425781 -3.347656 15 -1.890625 C 13.582031 -0.429688 11.613281 0.296875 9.09375 0.296875 C 6.625 0.296875 4.6875 -0.429688 3.28125 -1.890625 C 1.875 -3.359375 1.171875 -5.375 1.171875 -7.9375 C 1.171875 -10.476562 1.875 -12.476562 3.28125 -13.9375 C 4.6875 -15.40625 6.65625 -16.140625 9.1875 -16.140625 C 11.769531 -16.140625 13.738281 -15.429688 15.09375 -14.015625 C 16.457031 -12.609375 17.140625 -10.582031 17.140625 -7.9375 Z M 12.84375 -7.9375 C 12.84375 -9.820312 12.535156 -11.1875 11.921875 -12.03125 C 11.304688 -12.882812 10.410156 -13.3125 9.234375 -13.3125 C 6.734375 -13.3125 5.484375 -11.519531 5.484375 -7.9375 C 5.484375 -6.164062 5.789062 -4.816406 6.40625 -3.890625 C 7.019531 -2.972656 7.898438 -2.515625 9.046875 -2.515625 C 11.578125 -2.515625 12.84375 -4.320312 12.84375 -7.9375 Z M 12.84375 -7.9375 "/></g></g><g transform="translate(594.620759, 197.42923)"><g><path d="M 12.359375 0 L 12.359375 -8.890625 C 12.359375 -11.671875 11.414062 -13.0625 9.53125 -13.0625 C 8.53125 -13.0625 7.722656 -12.632812 7.109375 -11.78125 C 6.503906 -10.925781 6.203125 -9.828125 6.203125 -8.484375 L 6.203125 0 L 2.09375 0 L 2.09375 -12.296875 C 2.09375 -13.148438 2.078125 -13.847656 2.046875 -14.390625 C 2.023438 -14.929688 2 -15.414062 1.96875 -15.84375 L 5.90625 -15.84375 C 5.925781 -15.65625 5.960938 -15.15625 6.015625 -14.34375 C 6.066406 -13.539062 6.09375 -12.988281 6.09375 -12.6875 L 6.15625 -12.6875 C 6.707031 -13.90625 7.398438 -14.785156 8.234375 -15.328125 C 9.078125 -15.878906 10.082031 -16.15625 11.25 -16.15625 C 12.925781 -16.15625 14.210938 -15.632812 15.109375 -14.59375 C 16.003906 -13.5625 16.453125 -12.050781 16.453125 -10.0625 L 16.453125 0 Z M 12.359375 0 "/></g></g><g transform="translate(612.936409, 197.42923)"><g><path d="M 8.71875 6.359375 C 6.789062 6.359375 5.238281 5.988281 4.0625 5.25 C 2.882812 4.507812 2.160156 3.457031 1.890625 2.09375 L 6 1.609375 C 6.144531 2.242188 6.457031 2.738281 6.9375 3.09375 C 7.425781 3.457031 8.0625 3.640625 8.84375 3.640625 C 9.988281 3.640625 10.820312 3.285156 11.34375 2.578125 C 11.875 1.878906 12.140625 0.835938 12.140625 -0.546875 L 12.140625 -1.375 L 12.171875 -2.9375 L 12.140625 -2.9375 C 11.234375 -1 9.535156 -0.03125 7.046875 -0.03125 C 5.203125 -0.03125 3.769531 -0.722656 2.75 -2.109375 C 1.738281 -3.492188 1.234375 -5.472656 1.234375 -8.046875 C 1.234375 -10.640625 1.753906 -12.640625 2.796875 -14.046875 C 3.835938 -15.453125 5.351562 -16.15625 7.34375 -16.15625 C 9.65625 -16.15625 11.253906 -15.203125 12.140625 -13.296875 L 12.203125 -13.296875 C 12.203125 -13.640625 12.222656 -14.101562 12.265625 -14.6875 C 12.316406 -15.269531 12.367188 -15.65625 12.421875 -15.84375 L 16.3125 -15.84375 C 16.25 -14.789062 16.21875 -13.570312 16.21875 -12.1875 L 16.21875 -0.484375 C 16.21875 1.773438 15.578125 3.476562 14.296875 4.625 C 13.023438 5.78125 11.164062 6.359375 8.71875 6.359375 Z M 12.171875 -8.140625 C 12.171875 -9.765625 11.878906 -11.035156 11.296875 -11.953125 C 10.710938 -12.867188 9.882812 -13.328125 8.8125 -13.328125 C 6.613281 -13.328125 5.515625 -11.566406 5.515625 -8.046875 C 5.515625 -4.609375 6.601562 -2.890625 8.78125 -2.890625 C 9.875 -2.890625 10.710938 -3.34375 11.296875 -4.25 C 11.878906 -5.164062 12.171875 -6.460938 12.171875 -8.140625 Z M 12.171875 -8.140625 "/></g></g></g><g clip-path="url(#2d3e2d966d)"><path fill="#f2f2f2" d="M 466.984375 229.3125 L 653.636719 229.3125 L 653.636719 296.777344 L 466.984375 296.777344 Z M 466.984375 229.3125 " fill-opacity="1" fill-rule="nonzero"/></g><g clip-path="url(#f3035fd9b7)"><g clip-path="url(#48def5a7d8)"><g mask="url(#2220d0f95a)"><g transform="matrix(1, 0, 0, 1, 670, 153)"><g clip-path="url(#3c3969f47d)"><g clip-path="url(#b0418e1ac5)"><g clip-path="url(#e1f4cc58d2)"><path fill="#03e313" d="M 0.679688 0.953125 L 98.128906 0.953125 L 98.128906 62.417969 L 0.679688 62.417969 Z M 0.679688 0.953125 " fill-opacity="1" fill-rule="nonzero"/></g></g></g></g></g></g></g><g clip-path="url(#5d7be29f30)"><path fill="#d9d9d9" d="M 784.703125 150.617188 L 971.355469 150.617188 L 971.355469 218.082031 L 784.703125 218.082031 Z M 784.703125 150.617188 " fill-opacity="1" fill-rule="nonzero"/></g><g clip-path="url(#fa1d3bd1cf)"><path fill="#d9d9d9" d="M 980.527344 75.257812 L 1167.179688 75.257812 L 1167.179688 142.722656 L 980.527344 142.722656 Z M 980.527344 75.257812 " fill-opacity="1" fill-rule="nonzero"/></g><g clip-path="url(#36918af0ae)"><g mask="url(#83e1340d40)"><g transform="matrix(1, 0, 0, 1, 980, 150)"><g clip-path="url(#110dfa9259)"><g clip-path="url(#a6e91ce413)"><path fill="#03e313" d="M 0.527344 0.617188 L 187.179688 0.617188 L 187.179688 68.082031 L 0.527344 68.082031 Z M 0.527344 0.617188 " fill-opacity="1" fill-rule="nonzero"/></g></g></g></g></g><g fill="#808080" fill-opacity="1"><g transform="translate(997.371626, 194.095766)"><g><path d="M 14.5625 0 L 5.578125 -15.890625 C 5.753906 -14.347656 5.84375 -13.109375 5.84375 -12.171875 L 5.84375 0 L 2 0 L 2 -20.625 L 6.9375 -20.625 L 16.0625 -4.609375 C 15.882812 -6.085938 15.796875 -7.429688 15.796875 -8.640625 L 15.796875 -20.625 L 19.640625 -20.625 L 19.640625 0 Z M 14.5625 0 "/></g></g><g transform="translate(1019.02538, 194.095766)"><g><path d="M 2 0 L 2 -20.625 L 6.328125 -20.625 L 6.328125 0 Z M 2 0 "/></g></g><g transform="translate(1027.356, 194.095766)"><g><path d="M 11.640625 -3.109375 C 14.242188 -3.109375 16.054688 -4.414062 17.078125 -7.03125 L 20.828125 -5.609375 C 20.023438 -3.617188 18.835938 -2.132812 17.265625 -1.15625 C 15.703125 -0.1875 13.828125 0.296875 11.640625 0.296875 C 8.316406 0.296875 5.75 -0.640625 3.9375 -2.515625 C 2.132812 -4.398438 1.234375 -7.03125 1.234375 -10.40625 C 1.234375 -13.789062 2.101562 -16.390625 3.84375 -18.203125 C 5.59375 -20.023438 8.128906 -20.9375 11.453125 -20.9375 C 13.867188 -20.9375 15.835938 -20.445312 17.359375 -19.46875 C 18.878906 -18.5 19.953125 -17.078125 20.578125 -15.203125 L 16.765625 -14.15625 C 16.441406 -15.1875 15.804688 -16.007812 14.859375 -16.625 C 13.921875 -17.238281 12.8125 -17.546875 11.53125 -17.546875 C 9.582031 -17.546875 8.101562 -16.9375 7.09375 -15.71875 C 6.082031 -14.507812 5.578125 -12.738281 5.578125 -10.40625 C 5.578125 -8.039062 6.097656 -6.234375 7.140625 -4.984375 C 8.179688 -3.734375 9.679688 -3.109375 11.640625 -3.109375 Z M 11.640625 -3.109375 "/></g></g><g transform="translate(1049.009754, 194.095766)"><g><path d="M 2 0 L 2 -20.625 L 18.234375 -20.625 L 18.234375 -17.296875 L 6.328125 -17.296875 L 6.328125 -12.109375 L 17.328125 -12.109375 L 17.328125 -8.765625 L 6.328125 -8.765625 L 6.328125 -3.34375 L 18.828125 -3.34375 L 18.828125 0 Z M 2 0 "/></g></g><g transform="translate(1069.009097, 194.095766)"><g/></g><g transform="translate(1077.339716, 194.095766)"><g><path d="M 20.390625 -10.46875 C 20.390625 -8.34375 19.972656 -6.484375 19.140625 -4.890625 C 18.304688 -3.304688 17.125 -2.09375 15.59375 -1.25 C 14.070312 -0.414062 12.320312 0 10.34375 0 L 2 0 L 2 -20.625 L 9.46875 -20.625 C 12.945312 -20.625 15.632812 -19.75 17.53125 -18 C 19.4375 -16.25 20.390625 -13.738281 20.390625 -10.46875 Z M 16.046875 -10.46875 C 16.046875 -12.6875 15.46875 -14.378906 14.3125 -15.546875 C 13.164062 -16.710938 11.523438 -17.296875 9.390625 -17.296875 L 6.328125 -17.296875 L 6.328125 -3.34375 L 9.984375 -3.34375 C 11.835938 -3.34375 13.3125 -3.976562 14.40625 -5.25 C 15.5 -6.53125 16.046875 -8.269531 16.046875 -10.46875 Z M 16.046875 -10.46875 "/></g></g><g transform="translate(1098.993471, 194.095766)"><g><path d="M 16.59375 0 L 14.765625 -5.265625 L 6.890625 -5.265625 L 5.0625 0 L 0.75 0 L 8.265625 -20.625 L 13.359375 -20.625 L 20.859375 0 Z M 10.8125 -17.453125 L 10.734375 -17.125 C 10.628906 -16.78125 10.507812 -16.378906 10.375 -15.921875 C 10.238281 -15.472656 9.398438 -13.003906 7.859375 -8.515625 L 13.796875 -8.515625 L 11.75 -14.453125 L 11.125 -16.4375 Z M 10.8125 -17.453125 "/></g></g><g transform="translate(1120.647225, 194.095766)"><g><path d="M 12.171875 -8.46875 L 12.171875 0 L 7.859375 0 L 7.859375 -8.46875 L 0.515625 -20.625 L 5.03125 -20.625 L 9.984375 -11.90625 L 15 -20.625 L 19.515625 -20.625 Z M 12.171875 -8.46875 "/></g></g><g transform="translate(1140.646568, 194.095766)"><g><path d="M 6.65625 -6.234375 L 3.296875 -6.234375 L 2.828125 -20.625 L 7.125 -20.625 Z M 2.828125 0 L 2.828125 -3.953125 L 7.046875 -3.953125 L 7.046875 0 Z M 2.828125 0 "/></g></g></g><g clip-path="url(#d01ef5e467)"><path fill="#d9d9d9" d="M 784.703125 225.980469 L 971.355469 225.980469 L 971.355469 293.445312 L 784.703125 293.445312 Z M 784.703125 225.980469 " fill-opacity="1" fill-rule="nonzero"/></g><g clip-path="url(#f4bb190bbe)"><path fill="#f2f2f2" d="M 980.527344 225.980469 L 1167.179688 225.980469 L 1167.179688 293.445312 L 980.527344 293.445312 Z M 980.527344 225.980469 " fill-opacity="1" fill-rule="nonzero"/></g><g clip-path="url(#786e0f3d1f)"><path fill="#d9d9d9" d="M 1176.355469 75.257812 L 1363.007812 75.257812 L 1363.007812 142.722656 L 1176.355469 142.722656 Z M 1176.355469 75.257812 " fill-opacity="1" fill-rule="nonzero"/></g><g clip-path="url(#27b7410644)"><g mask="url(#7347ba5f1b)"><g transform="matrix(1, 0, 0, 1, 1176, 150)"><g clip-path="url(#04ad841cc0)"><g clip-path="url(#d79ea2146c)"><path fill="#03e313" d="M 0.355469 0.617188 L 187.007812 0.617188 L 187.007812 68.082031 L 0.355469 68.082031 Z M 0.355469 0.617188 " fill-opacity="1" fill-rule="nonzero"/></g></g></g></g></g><g fill="#808080" fill-opacity="1"><g transform="translate(1187.364226, 193.346157)"><g><path d="M 10.46875 -2.796875 C 12.820312 -2.796875 14.453125 -3.972656 15.359375 -6.328125 L 18.75 -5.046875 C 18.019531 -3.253906 16.945312 -1.921875 15.53125 -1.046875 C 14.125 -0.171875 12.4375 0.265625 10.46875 0.265625 C 7.488281 0.265625 5.179688 -0.578125 3.546875 -2.265625 C 1.921875 -3.960938 1.109375 -6.332031 1.109375 -9.375 C 1.109375 -12.414062 1.894531 -14.753906 3.46875 -16.390625 C 5.039062 -18.023438 7.316406 -18.84375 10.296875 -18.84375 C 12.484375 -18.84375 14.257812 -18.40625 15.625 -17.53125 C 17 -16.65625 17.960938 -15.367188 18.515625 -13.671875 L 15.09375 -12.734375 C 14.800781 -13.671875 14.226562 -14.410156 13.375 -14.953125 C 12.53125 -15.503906 11.53125 -15.78125 10.375 -15.78125 C 8.625 -15.78125 7.289062 -15.234375 6.375 -14.140625 C 5.46875 -13.054688 5.015625 -11.46875 5.015625 -9.375 C 5.015625 -7.238281 5.484375 -5.609375 6.421875 -4.484375 C 7.359375 -3.359375 8.707031 -2.796875 10.46875 -2.796875 Z M 10.46875 -2.796875 "/></g></g><g transform="translate(1206.852605, 193.346157)"><g><path d="M 19.859375 -9.375 C 19.859375 -7.4375 19.472656 -5.734375 18.703125 -4.265625 C 17.941406 -2.796875 16.847656 -1.671875 15.421875 -0.890625 C 14.003906 -0.117188 12.347656 0.265625 10.453125 0.265625 C 7.535156 0.265625 5.25 -0.59375 3.59375 -2.3125 C 1.9375 -4.03125 1.109375 -6.382812 1.109375 -9.375 C 1.109375 -12.34375 1.929688 -14.660156 3.578125 -16.328125 C 5.234375 -18.003906 7.53125 -18.84375 10.46875 -18.84375 C 13.414062 -18.84375 15.71875 -18 17.375 -16.3125 C 19.03125 -14.625 19.859375 -12.3125 19.859375 -9.375 Z M 15.890625 -9.375 C 15.890625 -11.375 15.414062 -12.941406 14.46875 -14.078125 C 13.519531 -15.210938 12.1875 -15.78125 10.46875 -15.78125 C 8.726562 -15.78125 7.382812 -15.21875 6.4375 -14.09375 C 5.488281 -12.96875 5.015625 -11.394531 5.015625 -9.375 C 5.015625 -7.332031 5.5 -5.722656 6.46875 -4.546875 C 7.445312 -3.378906 8.773438 -2.796875 10.453125 -2.796875 C 12.191406 -2.796875 13.53125 -3.363281 14.46875 -4.5 C 15.414062 -5.644531 15.890625 -7.269531 15.890625 -9.375 Z M 15.890625 -9.375 "/></g></g><g transform="translate(1227.843131, 193.346157)"><g><path d="M 19.859375 -9.375 C 19.859375 -7.4375 19.472656 -5.734375 18.703125 -4.265625 C 17.941406 -2.796875 16.847656 -1.671875 15.421875 -0.890625 C 14.003906 -0.117188 12.347656 0.265625 10.453125 0.265625 C 7.535156 0.265625 5.25 -0.59375 3.59375 -2.3125 C 1.9375 -4.03125 1.109375 -6.382812 1.109375 -9.375 C 1.109375 -12.34375 1.929688 -14.660156 3.578125 -16.328125 C 5.234375 -18.003906 7.53125 -18.84375 10.46875 -18.84375 C 13.414062 -18.84375 15.71875 -18 17.375 -16.3125 C 19.03125 -14.625 19.859375 -12.3125 19.859375 -9.375 Z M 15.890625 -9.375 C 15.890625 -11.375 15.414062 -12.941406 14.46875 -14.078125 C 13.519531 -15.210938 12.1875 -15.78125 10.46875 -15.78125 C 8.726562 -15.78125 7.382812 -15.21875 6.4375 -14.09375 C 5.488281 -12.96875 5.015625 -11.394531 5.015625 -9.375 C 5.015625 -7.332031 5.5 -5.722656 6.46875 -4.546875 C 7.445312 -3.378906 8.773438 -2.796875 10.453125 -2.796875 C 12.191406 -2.796875 13.53125 -3.363281 14.46875 -4.5 C 15.414062 -5.644531 15.890625 -7.269531 15.890625 -9.375 Z M 15.890625 -9.375 "/></g></g><g transform="translate(1248.833657, 193.346157)"><g><path d="M 1.8125 0 L 1.8125 -18.5625 L 5.6875 -18.5625 L 5.6875 -3 L 15.65625 -3 L 15.65625 0 Z M 1.8125 0 "/></g></g><g transform="translate(1265.317742, 193.346157)"><g/></g><g transform="translate(1272.815299, 193.346157)"><g><path d="M 16.9375 -5.34375 C 16.9375 -3.53125 16.265625 -2.140625 14.921875 -1.171875 C 13.578125 -0.210938 11.597656 0.265625 8.984375 0.265625 C 6.609375 0.265625 4.742188 -0.15625 3.390625 -1 C 2.035156 -1.84375 1.164062 -3.117188 0.78125 -4.828125 L 4.53125 -5.453125 C 4.789062 -4.472656 5.285156 -3.757812 6.015625 -3.3125 C 6.753906 -2.863281 7.78125 -2.640625 9.09375 -2.640625 C 11.800781 -2.640625 13.15625 -3.46875 13.15625 -5.125 C 13.15625 -5.65625 13 -6.085938 12.6875 -6.421875 C 12.382812 -6.765625 11.945312 -7.050781 11.375 -7.28125 C 10.8125 -7.507812 9.722656 -7.785156 8.109375 -8.109375 C 6.722656 -8.441406 5.757812 -8.707031 5.21875 -8.90625 C 4.675781 -9.101562 4.179688 -9.332031 3.734375 -9.59375 C 3.296875 -9.863281 2.921875 -10.1875 2.609375 -10.5625 C 2.304688 -10.945312 2.066406 -11.390625 1.890625 -11.890625 C 1.722656 -12.398438 1.640625 -12.988281 1.640625 -13.65625 C 1.640625 -15.332031 2.269531 -16.613281 3.53125 -17.5 C 4.789062 -18.394531 6.625 -18.84375 9.03125 -18.84375 C 11.332031 -18.84375 13.0625 -18.484375 14.21875 -17.765625 C 15.375 -17.046875 16.117188 -15.851562 16.453125 -14.1875 L 12.6875 -13.671875 C 12.5 -14.472656 12.109375 -15.078125 11.515625 -15.484375 C 10.921875 -15.890625 10.066406 -16.09375 8.953125 -16.09375 C 6.597656 -16.09375 5.421875 -15.351562 5.421875 -13.875 C 5.421875 -13.394531 5.546875 -13 5.796875 -12.6875 C 6.046875 -12.382812 6.414062 -12.125 6.90625 -11.90625 C 7.40625 -11.6875 8.40625 -11.414062 9.90625 -11.09375 C 11.6875 -10.71875 12.960938 -10.367188 13.734375 -10.046875 C 14.503906 -9.722656 15.113281 -9.347656 15.5625 -8.921875 C 16.007812 -8.492188 16.347656 -7.984375 16.578125 -7.390625 C 16.816406 -6.804688 16.9375 -6.125 16.9375 -5.34375 Z M 16.9375 -5.34375 "/></g></g><g transform="translate(1290.814708, 193.346157)"><g><path d="M 19.859375 -9.375 C 19.859375 -7.4375 19.472656 -5.734375 18.703125 -4.265625 C 17.941406 -2.796875 16.847656 -1.671875 15.421875 -0.890625 C 14.003906 -0.117188 12.347656 0.265625 10.453125 0.265625 C 7.535156 0.265625 5.25 -0.59375 3.59375 -2.3125 C 1.9375 -4.03125 1.109375 -6.382812 1.109375 -9.375 C 1.109375 -12.34375 1.929688 -14.660156 3.578125 -16.328125 C 5.234375 -18.003906 7.53125 -18.84375 10.46875 -18.84375 C 13.414062 -18.84375 15.71875 -18 17.375 -16.3125 C 19.03125 -14.625 19.859375 -12.3125 19.859375 -9.375 Z M 15.890625 -9.375 C 15.890625 -11.375 15.414062 -12.941406 14.46875 -14.078125 C 13.519531 -15.210938 12.1875 -15.78125 10.46875 -15.78125 C 8.726562 -15.78125 7.382812 -15.21875 6.4375 -14.09375 C 5.488281 -12.96875 5.015625 -11.394531 5.015625 -9.375 C 5.015625 -7.332031 5.5 -5.722656 6.46875 -4.546875 C 7.445312 -3.378906 8.773438 -2.796875 10.453125 -2.796875 C 12.191406 -2.796875 13.53125 -3.363281 14.46875 -4.5 C 15.414062 -5.644531 15.890625 -7.269531 15.890625 -9.375 Z M 15.890625 -9.375 "/></g></g><g transform="translate(1311.805234, 193.346157)"><g><path d="M 13.109375 0 L 5.015625 -14.296875 C 5.171875 -12.910156 5.25 -11.796875 5.25 -10.953125 L 5.25 0 L 1.8125 0 L 1.8125 -18.5625 L 6.25 -18.5625 L 14.453125 -4.15625 C 14.296875 -5.476562 14.21875 -6.6875 14.21875 -7.78125 L 14.21875 -18.5625 L 17.671875 -18.5625 L 17.671875 0 Z M 13.109375 0 "/></g></g><g transform="translate(1331.293613, 193.346157)"><g><path d="M 10.625 -2.78125 C 11.632812 -2.78125 12.613281 -2.925781 13.5625 -3.21875 C 14.507812 -3.507812 15.242188 -3.882812 15.765625 -4.34375 L 15.765625 -6.921875 L 11.21875 -6.921875 L 11.21875 -9.796875 L 19.3125 -9.796875 L 19.3125 -2.96875 C 18.332031 -1.957031 17.050781 -1.164062 15.46875 -0.59375 C 13.894531 -0.0195312 12.242188 0.265625 10.515625 0.265625 C 7.492188 0.265625 5.171875 -0.566406 3.546875 -2.234375 C 1.921875 -3.910156 1.109375 -6.289062 1.109375 -9.375 C 1.109375 -12.425781 1.925781 -14.765625 3.5625 -16.390625 C 5.195312 -18.023438 7.546875 -18.84375 10.609375 -18.84375 C 14.960938 -18.84375 17.734375 -17.226562 18.921875 -14 L 15.34375 -12.921875 C 14.945312 -13.859375 14.335938 -14.566406 13.515625 -15.046875 C 12.691406 -15.535156 11.722656 -15.78125 10.609375 -15.78125 C 8.773438 -15.78125 7.382812 -15.226562 6.4375 -14.125 C 5.488281 -13.019531 5.015625 -11.4375 5.015625 -9.375 C 5.015625 -7.269531 5.503906 -5.644531 6.484375 -4.5 C 7.460938 -3.351562 8.84375 -2.78125 10.625 -2.78125 Z M 10.625 -2.78125 "/></g></g></g><g clip-path="url(#3c85c334c1)"><path fill="#f2f2f2" d="M 1176.355469 225.980469 L 1363.007812 225.980469 L 1363.007812 293.445312 L 1176.355469 293.445312 Z M 1176.355469 225.980469 " fill-opacity="1" fill-rule="nonzero"/></g><g clip-path="url(#048b0d6bea)"><g mask="url(#09edca21a7)"><g transform="matrix(1, 0, 0, 1, 271, 153)"><g clip-path="url(#9715e4cde1)"><g clip-path="url(#8b515ddc71)"><path fill="#ffc000" d="M 0.160156 0.953125 L 186.8125 0.953125 L 186.8125 68.417969 L 0.160156 68.417969 Z M 0.160156 0.953125 " fill-opacity="1" fill-rule="nonzero"/></g></g></g></g></g><g fill="#808080" fill-opacity="1"><g transform="translate(299.644593, 197.42923)"><g><path d="M 12.359375 0 L 12.359375 -8.890625 C 12.359375 -11.671875 11.414062 -13.0625 9.53125 -13.0625 C 8.53125 -13.0625 7.722656 -12.632812 7.109375 -11.78125 C 6.503906 -10.925781 6.203125 -9.828125 6.203125 -8.484375 L 6.203125 0 L 2.09375 0 L 2.09375 -12.296875 C 2.09375 -13.148438 2.078125 -13.847656 2.046875 -14.390625 C 2.023438 -14.929688 2 -15.414062 1.96875 -15.84375 L 5.90625 -15.84375 C 5.925781 -15.65625 5.960938 -15.15625 6.015625 -14.34375 C 6.066406 -13.539062 6.09375 -12.988281 6.09375 -12.6875 L 6.15625 -12.6875 C 6.707031 -13.90625 7.398438 -14.785156 8.234375 -15.328125 C 9.078125 -15.878906 10.082031 -16.15625 11.25 -16.15625 C 12.925781 -16.15625 14.210938 -15.632812 15.109375 -14.59375 C 16.003906 -13.5625 16.453125 -12.050781 16.453125 -10.0625 L 16.453125 0 Z M 12.359375 0 "/></g></g><g transform="translate(317.960243, 197.42923)"><g><path d="M 2.09375 -18.703125 L 2.09375 -21.734375 L 6.203125 -21.734375 L 6.203125 -18.703125 Z M 2.09375 0 L 2.09375 -15.84375 L 6.203125 -15.84375 L 6.203125 0 Z M 2.09375 0 "/></g></g><g transform="translate(326.290863, 197.42923)"><g><path d="M 8.703125 0.296875 C 6.296875 0.296875 4.4375 -0.414062 3.125 -1.84375 C 1.820312 -3.28125 1.171875 -5.273438 1.171875 -7.828125 C 1.171875 -10.441406 1.828125 -12.476562 3.140625 -13.9375 C 4.460938 -15.40625 6.332031 -16.140625 8.75 -16.140625 C 10.613281 -16.140625 12.15625 -15.671875 13.375 -14.734375 C 14.601562 -13.796875 15.375 -12.5 15.6875 -10.84375 L 11.53125 -10.640625 C 11.414062 -11.453125 11.125 -12.097656 10.65625 -12.578125 C 10.1875 -13.066406 9.523438 -13.3125 8.671875 -13.3125 C 6.546875 -13.3125 5.484375 -11.539062 5.484375 -8 C 5.484375 -4.34375 6.5625 -2.515625 8.71875 -2.515625 C 9.5 -2.515625 10.15625 -2.757812 10.6875 -3.25 C 11.21875 -3.75 11.546875 -4.488281 11.671875 -5.46875 L 15.796875 -5.265625 C 15.648438 -4.179688 15.257812 -3.210938 14.625 -2.359375 C 14 -1.515625 13.171875 -0.859375 12.140625 -0.390625 C 11.117188 0.0664062 9.972656 0.296875 8.703125 0.296875 Z M 8.703125 0.296875 "/></g></g><g transform="translate(342.966742, 197.42923)"><g><path d="M 8.578125 0.296875 C 6.191406 0.296875 4.359375 -0.40625 3.078125 -1.8125 C 1.804688 -3.226562 1.171875 -5.289062 1.171875 -8 C 1.171875 -10.613281 1.816406 -12.625 3.109375 -14.03125 C 4.410156 -15.4375 6.253906 -16.140625 8.640625 -16.140625 C 10.910156 -16.140625 12.644531 -15.382812 13.84375 -13.875 C 15.050781 -12.363281 15.65625 -10.15625 15.65625 -7.25 L 15.65625 -7.125 L 5.484375 -7.125 C 5.484375 -5.582031 5.769531 -4.414062 6.34375 -3.625 C 6.914062 -2.84375 7.726562 -2.453125 8.78125 -2.453125 C 10.238281 -2.453125 11.15625 -3.082031 11.53125 -4.34375 L 15.421875 -4.015625 C 14.296875 -1.140625 12.015625 0.296875 8.578125 0.296875 Z M 8.578125 -13.546875 C 7.609375 -13.546875 6.863281 -13.207031 6.34375 -12.53125 C 5.820312 -11.851562 5.546875 -10.910156 5.515625 -9.703125 L 11.671875 -9.703125 C 11.585938 -10.984375 11.273438 -11.941406 10.734375 -12.578125 C 10.203125 -13.222656 9.484375 -13.546875 8.578125 -13.546875 Z M 8.578125 -13.546875 "/></g></g><g transform="translate(359.642622, 197.42923)"><g/></g><g transform="translate(367.973241, 197.42923)"><g><path d="M 12.359375 0 C 12.316406 -0.144531 12.269531 -0.507812 12.21875 -1.09375 C 12.164062 -1.6875 12.140625 -2.179688 12.140625 -2.578125 L 12.078125 -2.578125 C 11.191406 -0.660156 9.503906 0.296875 7.015625 0.296875 C 5.171875 0.296875 3.742188 -0.421875 2.734375 -1.859375 C 1.734375 -3.304688 1.234375 -5.320312 1.234375 -7.90625 C 1.234375 -10.53125 1.757812 -12.554688 2.8125 -13.984375 C 3.875 -15.421875 5.378906 -16.140625 7.328125 -16.140625 C 8.441406 -16.140625 9.40625 -15.90625 10.21875 -15.4375 C 11.039062 -14.96875 11.671875 -14.269531 12.109375 -13.34375 L 12.140625 -13.34375 L 12.109375 -15.9375 L 12.109375 -21.734375 L 16.21875 -21.734375 L 16.21875 -3.453125 C 16.21875 -2.472656 16.257812 -1.320312 16.34375 0 Z M 12.171875 -8.015625 C 12.171875 -9.722656 11.882812 -11.035156 11.3125 -11.953125 C 10.738281 -12.878906 9.894531 -13.34375 8.78125 -13.34375 C 7.675781 -13.34375 6.851562 -12.894531 6.3125 -12 C 5.78125 -11.101562 5.515625 -9.738281 5.515625 -7.90625 C 5.515625 -4.3125 6.59375 -2.515625 8.75 -2.515625 C 9.832031 -2.515625 10.671875 -2.988281 11.265625 -3.9375 C 11.867188 -4.894531 12.171875 -6.253906 12.171875 -8.015625 Z M 12.171875 -8.015625 "/></g></g><g transform="translate(386.288892, 197.42923)"><g><path d="M 5.75 0.296875 C 4.21875 0.296875 3.019531 -0.117188 2.15625 -0.953125 C 1.300781 -1.785156 0.875 -2.960938 0.875 -4.484375 C 0.875 -6.117188 1.40625 -7.363281 2.46875 -8.21875 C 3.539062 -9.082031 5.09375 -9.523438 7.125 -9.546875 L 10.546875 -9.609375 L 10.546875 -10.40625 C 10.546875 -11.445312 10.363281 -12.21875 10 -12.71875 C 9.632812 -13.21875 9.046875 -13.46875 8.234375 -13.46875 C 7.472656 -13.46875 6.910156 -13.296875 6.546875 -12.953125 C 6.191406 -12.609375 5.972656 -12.035156 5.890625 -11.234375 L 1.59375 -11.4375 C 1.851562 -12.976562 2.554688 -14.144531 3.703125 -14.9375 C 4.859375 -15.738281 6.425781 -16.140625 8.40625 -16.140625 C 10.40625 -16.140625 11.945312 -15.644531 13.03125 -14.65625 C 14.113281 -13.664062 14.65625 -12.265625 14.65625 -10.453125 L 14.65625 -4.6875 C 14.65625 -3.800781 14.753906 -3.1875 14.953125 -2.84375 C 15.148438 -2.507812 15.484375 -2.34375 15.953125 -2.34375 C 16.265625 -2.34375 16.566406 -2.375 16.859375 -2.4375 L 16.859375 -0.203125 C 16.617188 -0.140625 16.398438 -0.0820312 16.203125 -0.03125 C 16.015625 0.0078125 15.820312 0.0390625 15.625 0.0625 C 15.425781 0.09375 15.21875 0.117188 15 0.140625 C 14.78125 0.160156 14.523438 0.171875 14.234375 0.171875 C 13.191406 0.171875 12.425781 -0.078125 11.9375 -0.578125 C 11.445312 -1.085938 11.148438 -1.835938 11.046875 -2.828125 L 10.96875 -2.828125 C 9.8125 -0.742188 8.070312 0.296875 5.75 0.296875 Z M 10.546875 -7.328125 L 8.4375 -7.3125 C 7.476562 -7.269531 6.796875 -7.160156 6.390625 -6.984375 C 5.992188 -6.816406 5.691406 -6.554688 5.484375 -6.203125 C 5.273438 -5.859375 5.171875 -5.390625 5.171875 -4.796875 C 5.171875 -4.046875 5.34375 -3.488281 5.6875 -3.125 C 6.03125 -2.757812 6.492188 -2.578125 7.078125 -2.578125 C 7.710938 -2.578125 8.296875 -2.75 8.828125 -3.09375 C 9.367188 -3.445312 9.789062 -3.929688 10.09375 -4.546875 C 10.394531 -5.171875 10.546875 -5.832031 10.546875 -6.53125 Z M 10.546875 -7.328125 "/></g></g><g transform="translate(402.964771, 197.42923)"><g><path d="M 4.140625 6.21875 C 3.160156 6.21875 2.296875 6.15625 1.546875 6.03125 L 1.546875 3.109375 C 2.066406 3.179688 2.539062 3.21875 2.96875 3.21875 C 3.550781 3.21875 4.035156 3.125 4.421875 2.9375 C 4.804688 2.757812 5.148438 2.453125 5.453125 2.015625 C 5.765625 1.585938 6.113281 0.863281 6.5 -0.15625 L 0.234375 -15.84375 L 4.578125 -15.84375 L 7.078125 -8.421875 C 7.460938 -7.359375 7.953125 -5.726562 8.546875 -3.53125 L 8.921875 -4.921875 L 9.875 -8.359375 L 12.203125 -15.84375 L 16.515625 -15.84375 L 10.25 0.828125 C 9.40625 2.859375 8.53125 4.265625 7.625 5.046875 C 6.726562 5.828125 5.566406 6.21875 4.140625 6.21875 Z M 4.140625 6.21875 "/></g></g><g transform="translate(419.640651, 197.42923)"><g><path d="M 6.65625 -6.234375 L 3.296875 -6.234375 L 2.828125 -20.625 L 7.125 -20.625 Z M 2.828125 0 L 2.828125 -3.953125 L 7.046875 -3.953125 L 7.046875 0 Z M 2.828125 0 "/></g></g></g></svg>